<svg width="230" height="92" viewBox="0 0 230 92" fill="none" xmlns="http://www.w3.org/2000/svg">
<path d="M18.16 23.5H16.2225V12.5938H3.22253V23.5H1.30066V0.75H3.22253V10.9688H16.2225V0.75H18.16V23.5ZM22.4882 14.7969C22.4882 13.1719 22.8007 11.7083 23.4257 10.4062C24.0611 9.10417 24.9517 8.09375 26.0975 7.375C27.2538 6.64583 28.5611 6.28125 30.0194 6.28125C32.2694 6.28125 34.0923 7.07292 35.4882 8.65625C36.884 10.2292 37.5819 12.3177 37.5819 14.9219V15.3125C37.5819 16.9479 37.2642 18.4219 36.6288 19.7344C36.0038 21.0365 35.1184 22.0417 33.9725 22.75C32.8267 23.4583 31.5194 23.8125 30.0507 23.8125C27.8111 23.8125 25.9882 23.026 24.5819 21.4531C23.1861 19.8698 22.4882 17.776 22.4882 15.1719V14.7969ZM24.3632 15.3125C24.3632 17.3333 24.884 18.9948 25.9257 20.2969C26.9777 21.5885 28.3527 22.2344 30.0507 22.2344C31.7382 22.2344 33.1027 21.5885 34.1444 20.2969C35.1965 18.9948 35.7225 17.2812 35.7225 15.1562V14.7969C35.7225 13.5052 35.483 12.3229 35.0038 11.25C34.5246 10.1771 33.8527 9.34896 32.9882 8.76562C32.1236 8.17188 31.134 7.875 30.0194 7.875C28.3527 7.875 26.9934 8.53125 25.9413 9.84375C24.8892 11.1458 24.3632 12.8542 24.3632 14.9688V15.3125ZM52.3319 21.3594C51.2069 22.9948 49.41 23.8125 46.9413 23.8125C45.1392 23.8125 43.7694 23.2917 42.8319 22.25C41.8944 21.1979 41.4152 19.6458 41.3944 17.5938V6.59375H43.2538V17.3594C43.2538 20.5781 44.5559 22.1875 47.16 22.1875C49.8684 22.1875 51.5819 21.0677 52.3007 18.8281V6.59375H54.1757V23.5H52.3632L52.3319 21.3594ZM69.1757 19.2031C69.1757 18.276 68.8007 17.5312 68.0507 16.9688C67.3111 16.4062 66.1913 15.9688 64.6913 15.6562C63.1913 15.3333 62.0246 14.9688 61.1913 14.5625C60.3684 14.1458 59.7538 13.6406 59.3475 13.0469C58.9517 12.4531 58.7538 11.7344 58.7538 10.8906C58.7538 9.55729 59.3111 8.45833 60.4257 7.59375C61.5402 6.71875 62.9673 6.28125 64.7069 6.28125C66.5923 6.28125 68.1027 6.75 69.2382 7.6875C70.384 8.61458 70.9569 9.82812 70.9569 11.3281H69.0819C69.0819 10.3385 68.6652 9.51562 67.8319 8.85938C67.009 8.20312 65.9673 7.875 64.7069 7.875C63.4777 7.875 62.4882 8.15104 61.7382 8.70312C60.9986 9.24479 60.6288 9.95312 60.6288 10.8281C60.6288 11.6719 60.9361 12.3281 61.5507 12.7969C62.1757 13.2552 63.3059 13.6771 64.9413 14.0625C66.5871 14.4479 67.8163 14.8594 68.6288 15.2969C69.4517 15.7344 70.0611 16.2604 70.4569 16.875C70.8527 17.4896 71.0507 18.2344 71.0507 19.1094C71.0507 20.5365 70.4725 21.6771 69.3163 22.5312C68.1705 23.3854 66.6705 23.8125 64.8163 23.8125C62.8475 23.8125 61.2486 23.3385 60.0194 22.3906C58.8007 21.4323 58.1913 20.224 58.1913 18.7656H60.0663C60.1392 19.8594 60.5975 20.7135 61.4413 21.3281C62.2955 21.9323 63.4205 22.2344 64.8163 22.2344C66.1184 22.2344 67.1705 21.9479 67.9725 21.375C68.7746 20.8021 69.1757 20.0781 69.1757 19.2031ZM81.8163 23.8125C80.3788 23.8125 79.0767 23.4583 77.91 22.75C76.7538 22.0417 75.8527 21.0573 75.2069 19.7969C74.5611 18.526 74.2382 17.1042 74.2382 15.5312V14.8594C74.2382 13.2344 74.5507 11.7708 75.1757 10.4688C75.8111 9.16667 76.6913 8.14583 77.8163 7.40625C78.9413 6.65625 80.16 6.28125 81.4725 6.28125C83.5246 6.28125 85.1496 6.98438 86.3475 8.39062C87.5559 9.78646 88.16 11.6979 88.16 14.125V15.1719H76.0975V15.5312C76.0975 17.4479 76.6444 19.0469 77.7382 20.3281C78.8423 21.599 80.2277 22.2344 81.8944 22.2344C82.8944 22.2344 83.7746 22.0521 84.535 21.6875C85.3059 21.3229 86.0038 20.7396 86.6288 19.9375L87.8007 20.8281C86.4257 22.8177 84.4309 23.8125 81.8163 23.8125ZM81.4725 7.875C80.0663 7.875 78.8788 8.39062 77.91 9.42188C76.9517 10.4531 76.3684 11.8385 76.16 13.5781H86.3007V13.375C86.2486 11.75 85.785 10.4271 84.91 9.40625C84.035 8.38542 82.8892 7.875 81.4725 7.875ZM116.957 23.5H115.035L101.957 4.03125V23.5H100.019V0.75H101.957L115.051 20.2344V0.75H116.957V23.5ZM121.269 14.7969C121.269 13.1719 121.582 11.7083 122.207 10.4062C122.842 9.10417 123.733 8.09375 124.879 7.375C126.035 6.64583 127.342 6.28125 128.801 6.28125C131.051 6.28125 132.874 7.07292 134.269 8.65625C135.665 10.2292 136.363 12.3177 136.363 14.9219V15.3125C136.363 16.9479 136.045 18.4219 135.41 19.7344C134.785 21.0365 133.9 22.0417 132.754 22.75C131.608 23.4583 130.301 23.8125 128.832 23.8125C126.592 23.8125 124.769 23.026 123.363 21.4531C121.967 19.8698 121.269 17.776 121.269 15.1719V14.7969ZM123.144 15.3125C123.144 17.3333 123.665 18.9948 124.707 20.2969C125.759 21.5885 127.134 22.2344 128.832 22.2344C130.519 22.2344 131.884 21.5885 132.926 20.2969C133.978 18.9948 134.504 17.2812 134.504 15.1562V14.7969C134.504 13.5052 134.264 12.3229 133.785 11.25C133.306 10.1771 132.634 9.34896 131.769 8.76562C130.905 8.17188 129.915 7.875 128.801 7.875C127.134 7.875 125.775 8.53125 124.723 9.84375C123.67 11.1458 123.144 12.8542 123.144 14.9688V15.3125ZM140.066 22.375C140.066 22.0104 140.181 21.7031 140.41 21.4531C140.65 21.1927 140.978 21.0625 141.394 21.0625C141.811 21.0625 142.139 21.1927 142.379 21.4531C142.618 21.7031 142.738 22.0104 142.738 22.375C142.738 22.7396 142.618 23.0417 142.379 23.2812C142.139 23.5104 141.811 23.625 141.394 23.625C140.978 23.625 140.65 23.5104 140.41 23.2812C140.181 23.0417 140.066 22.7396 140.066 22.375ZM156.301 23.5H154.426V3L148.238 5.29688V3.54688L155.988 0.671875H156.301V23.5ZM1.30066 57.5V34.75H7.66003C9.52462 34.75 11.1965 35.1771 12.6757 36.0312C14.1548 36.875 15.3059 38.0885 16.1288 39.6719C16.9621 41.2552 17.3788 43.0573 17.3788 45.0781V47.1719C17.3788 49.2031 16.9673 51.0052 16.1444 52.5781C15.3215 54.151 14.16 55.3646 12.66 56.2188C11.1705 57.0729 9.45691 57.5 7.51941 57.5H1.30066ZM3.22253 36.3906V55.875H7.53503C9.93087 55.875 11.8527 55.0833 13.3007 53.5C14.7486 51.9062 15.4725 49.7552 15.4725 47.0469V45.0469C15.4725 42.4323 14.759 40.3385 13.3319 38.7656C11.9048 37.1927 10.0246 36.401 7.69128 36.3906H3.22253ZM28.3788 57.8125C26.9413 57.8125 25.6392 57.4583 24.4725 56.75C23.3163 56.0417 22.4152 55.0573 21.7694 53.7969C21.1236 52.526 20.8007 51.1042 20.8007 49.5312V48.8594C20.8007 47.2344 21.1132 45.7708 21.7382 44.4688C22.3736 43.1667 23.2538 42.1458 24.3788 41.4062C25.5038 40.6562 26.7225 40.2812 28.035 40.2812C30.0871 40.2812 31.7121 40.9844 32.91 42.3906C34.1184 43.7865 34.7225 45.6979 34.7225 48.125V49.1719H22.66V49.5312C22.66 51.4479 23.2069 53.0469 24.3007 54.3281C25.4048 55.599 26.7902 56.2344 28.4569 56.2344C29.4569 56.2344 30.3371 56.0521 31.0975 55.6875C31.8684 55.3229 32.5663 54.7396 33.1913 53.9375L34.3632 54.8281C32.9882 56.8177 30.9934 57.8125 28.3788 57.8125ZM28.035 41.875C26.6288 41.875 25.4413 42.3906 24.4725 43.4219C23.5142 44.4531 22.9309 45.8385 22.7225 47.5781H32.8632V47.375C32.8111 45.75 32.3475 44.4271 31.4725 43.4062C30.5975 42.3854 29.4517 41.875 28.035 41.875ZM48.4882 53.2031C48.4882 52.276 48.1132 51.5312 47.3632 50.9688C46.6236 50.4062 45.5038 49.9688 44.0038 49.6562C42.5038 49.3333 41.3371 48.9688 40.5038 48.5625C39.6809 48.1458 39.0663 47.6406 38.66 47.0469C38.2642 46.4531 38.0663 45.7344 38.0663 44.8906C38.0663 43.5573 38.6236 42.4583 39.7382 41.5938C40.8527 40.7188 42.2798 40.2812 44.0194 40.2812C45.9048 40.2812 47.4152 40.75 48.5507 41.6875C49.6965 42.6146 50.2694 43.8281 50.2694 45.3281H48.3944C48.3944 44.3385 47.9777 43.5156 47.1444 42.8594C46.3215 42.2031 45.2798 41.875 44.0194 41.875C42.7902 41.875 41.8007 42.151 41.0507 42.7031C40.3111 43.2448 39.9413 43.9531 39.9413 44.8281C39.9413 45.6719 40.2486 46.3281 40.8632 46.7969C41.4882 47.2552 42.6184 47.6771 44.2538 48.0625C45.8996 48.4479 47.1288 48.8594 47.9413 49.2969C48.7642 49.7344 49.3736 50.2604 49.7694 50.875C50.1652 51.4896 50.3632 52.2344 50.3632 53.1094C50.3632 54.5365 49.785 55.6771 48.6288 56.5312C47.483 57.3854 45.983 57.8125 44.1288 57.8125C42.16 57.8125 40.5611 57.3385 39.3319 56.3906C38.1132 55.4323 37.5038 54.224 37.5038 52.7656H39.3788C39.4517 53.8594 39.91 54.7135 40.7538 55.3281C41.608 55.9323 42.733 56.2344 44.1288 56.2344C45.4309 56.2344 46.483 55.9479 47.285 55.375C48.0871 54.8021 48.4882 54.0781 48.4882 53.2031ZM56.6757 57.5H54.8007V40.5938H56.6757V57.5ZM54.4725 35.7031C54.4725 35.349 54.5871 35.0521 54.8163 34.8125C55.0455 34.5625 55.358 34.4375 55.7538 34.4375C56.1496 34.4375 56.4621 34.5625 56.6913 34.8125C56.9309 35.0521 57.0507 35.349 57.0507 35.7031C57.0507 36.0573 56.9309 36.3542 56.6913 36.5938C56.4621 36.8333 56.1496 36.9531 55.7538 36.9531C55.358 36.9531 55.0455 36.8333 54.8163 36.5938C54.5871 36.3542 54.4725 36.0573 54.4725 35.7031ZM61.0194 48.8906C61.0194 46.2448 61.6027 44.151 62.7694 42.6094C63.9465 41.0573 65.5402 40.2812 67.5507 40.2812C69.8527 40.2812 71.6027 41.1979 72.8007 43.0312L72.8944 40.5938H74.6444V57.1562C74.6444 59.3333 74.035 61.0573 72.8163 62.3281C71.5975 63.599 69.9465 64.2344 67.8632 64.2344C66.6861 64.2344 65.5611 63.9688 64.4882 63.4375C63.4257 62.9167 62.5871 62.2188 61.9725 61.3438L63.0194 60.2188C64.3423 61.8438 65.9152 62.6562 67.7382 62.6562C69.3007 62.6562 70.5194 62.1927 71.3944 61.2656C72.2694 60.349 72.7225 59.0729 72.7538 57.4375V55.3125C71.5559 56.9792 69.8111 57.8125 67.5194 57.8125C65.5611 57.8125 63.9882 57.0312 62.8007 55.4688C61.6132 53.9062 61.0194 51.7969 61.0194 49.1406V48.8906ZM62.91 49.2188C62.91 51.375 63.3423 53.0781 64.2069 54.3281C65.0715 55.5677 66.2902 56.1875 67.8632 56.1875C70.1652 56.1875 71.7955 55.1562 72.7538 53.0938V45.2344C72.3163 44.151 71.6861 43.3281 70.8632 42.7656C70.0402 42.1927 69.0507 41.9062 67.8944 41.9062C66.3215 41.9062 65.0975 42.526 64.2225 43.7656C63.3475 44.9948 62.91 46.8125 62.91 49.2188ZM81.3007 40.5938L81.3632 43.4844C81.9986 42.4427 82.7902 41.651 83.7382 41.1094C84.6861 40.5573 85.733 40.2812 86.8788 40.2812C88.6913 40.2812 90.0402 40.7917 90.9257 41.8125C91.8111 42.8333 92.259 44.3646 92.2694 46.4062V57.5H90.41V46.3906C90.3996 44.8802 90.0767 43.7552 89.4413 43.0156C88.8163 42.276 87.8111 41.9062 86.4257 41.9062C85.2694 41.9062 84.2434 42.2708 83.3475 43C82.4621 43.7188 81.8059 44.6927 81.3788 45.9219V57.5H79.5194V40.5938H81.3007ZM115.566 57.5C115.379 56.9688 115.259 56.1823 115.207 55.1406C114.551 55.9948 113.712 56.6562 112.691 57.125C111.681 57.5833 110.608 57.8125 109.473 57.8125C107.848 57.8125 106.53 57.3594 105.519 56.4531C104.519 55.5469 104.019 54.401 104.019 53.0156C104.019 51.3698 104.702 50.0677 106.066 49.1094C107.441 48.151 109.353 47.6719 111.801 47.6719H115.191V45.75C115.191 44.5417 114.816 43.5938 114.066 42.9062C113.327 42.2083 112.243 41.8594 110.816 41.8594C109.514 41.8594 108.436 42.1927 107.582 42.8594C106.728 43.526 106.301 44.3281 106.301 45.2656L104.426 45.25C104.426 43.9062 105.051 42.7448 106.301 41.7656C107.551 40.776 109.087 40.2812 110.91 40.2812C112.795 40.2812 114.28 40.7552 115.363 41.7031C116.457 42.6406 117.019 43.9531 117.051 45.6406V53.6406C117.051 55.276 117.223 56.5 117.566 57.3125V57.5H115.566ZM109.691 56.1562C110.941 56.1562 112.056 55.8542 113.035 55.25C114.025 54.6458 114.743 53.8385 115.191 52.8281V49.1094H111.848C109.983 49.1302 108.525 49.474 107.473 50.1406C106.42 50.7969 105.894 51.7031 105.894 52.8594C105.894 53.8073 106.243 54.5938 106.941 55.2188C107.65 55.8438 108.566 56.1562 109.691 56.1562ZM123.832 40.5938L123.894 43.4844C124.53 42.4427 125.321 41.651 126.269 41.1094C127.217 40.5573 128.264 40.2812 129.41 40.2812C131.223 40.2812 132.571 40.7917 133.457 41.8125C134.342 42.8333 134.79 44.3646 134.801 46.4062V57.5H132.941V46.3906C132.931 44.8802 132.608 43.7552 131.973 43.0156C131.348 42.276 130.342 41.9062 128.957 41.9062C127.801 41.9062 126.775 42.2708 125.879 43C124.993 43.7188 124.337 44.6927 123.91 45.9219V57.5H122.051V40.5938H123.832ZM138.894 48.8906C138.894 46.2656 139.478 44.1771 140.644 42.625C141.821 41.0625 143.415 40.2812 145.426 40.2812C147.707 40.2812 149.446 41.1823 150.644 42.9844V33.5H152.504V57.5H150.754L150.676 55.25C149.478 56.9583 147.717 57.8125 145.394 57.8125C143.446 57.8125 141.874 57.0312 140.676 55.4688C139.488 53.8958 138.894 51.776 138.894 49.1094V48.8906ZM140.785 49.2188C140.785 51.375 141.217 53.0781 142.082 54.3281C142.946 55.5677 144.165 56.1875 145.738 56.1875C148.04 56.1875 149.676 55.1719 150.644 53.1406V45.2031C149.676 43.0052 148.051 41.9062 145.769 41.9062C144.196 41.9062 142.973 42.526 142.098 43.7656C141.223 44.9948 140.785 46.8125 140.785 49.2188ZM165.644 57.5V34.75H172.363C174.801 34.75 176.65 35.2552 177.91 36.2656C179.17 37.2656 179.801 38.7448 179.801 40.7031C179.801 41.8802 179.478 42.9062 178.832 43.7812C178.196 44.6458 177.321 45.2656 176.207 45.6406C177.53 45.9323 178.592 46.5833 179.394 47.5938C180.207 48.6042 180.613 49.7708 180.613 51.0938C180.613 53.1042 179.962 54.6771 178.66 55.8125C177.368 56.9375 175.566 57.5 173.254 57.5H165.644ZM167.566 46.5625V55.875H173.332C174.978 55.875 176.28 55.4583 177.238 54.625C178.207 53.7812 178.691 52.6146 178.691 51.125C178.691 49.7188 178.228 48.6094 177.301 47.7969C176.384 46.974 175.113 46.5625 173.488 46.5625H167.566ZM167.566 44.9531H172.816C174.42 44.9219 175.66 44.5469 176.535 43.8281C177.42 43.099 177.863 42.0417 177.863 40.6562C177.863 39.1979 177.405 38.125 176.488 37.4375C175.582 36.7396 174.207 36.3906 172.363 36.3906H167.566V44.9531ZM195.707 55.3594C194.582 56.9948 192.785 57.8125 190.316 57.8125C188.514 57.8125 187.144 57.2917 186.207 56.25C185.269 55.1979 184.79 53.6458 184.769 51.5938V40.5938H186.629V51.3594C186.629 54.5781 187.931 56.1875 190.535 56.1875C193.243 56.1875 194.957 55.0677 195.676 52.8281V40.5938H197.551V57.5H195.738L195.707 55.3594ZM204.519 57.5H202.644V40.5938H204.519V57.5ZM202.316 35.7031C202.316 35.349 202.431 35.0521 202.66 34.8125C202.889 34.5625 203.202 34.4375 203.598 34.4375C203.993 34.4375 204.306 34.5625 204.535 34.8125C204.775 35.0521 204.894 35.349 204.894 35.7031C204.894 36.0573 204.775 36.3542 204.535 36.5938C204.306 36.8333 203.993 36.9531 203.598 36.9531C203.202 36.9531 202.889 36.8333 202.66 36.5938C202.431 36.3542 202.316 36.0573 202.316 35.7031ZM211.707 57.5H209.832V33.5H211.707V57.5ZM216.051 48.8906C216.051 46.2656 216.634 44.1771 217.801 42.625C218.978 41.0625 220.571 40.2812 222.582 40.2812C224.863 40.2812 226.603 41.1823 227.801 42.9844V33.5H229.66V57.5H227.91L227.832 55.25C226.634 56.9583 224.874 57.8125 222.551 57.8125C220.603 57.8125 219.03 57.0312 217.832 55.4688C216.644 53.8958 216.051 51.776 216.051 49.1094V48.8906ZM217.941 49.2188C217.941 51.375 218.374 53.0781 219.238 54.3281C220.103 55.5677 221.321 56.1875 222.894 56.1875C225.196 56.1875 226.832 55.1719 227.801 53.1406V45.2031C226.832 43.0052 225.207 41.9062 222.926 41.9062C221.353 41.9062 220.129 42.526 219.254 43.7656C218.379 44.9948 217.941 46.8125 217.941 49.2188ZM14.8163 91.5H0.566284V90.0625L8.36316 81.2188C9.65483 79.7292 10.5507 78.5 11.0507 77.5312C11.5507 76.5625 11.8007 75.6198 11.8007 74.7031C11.8007 73.2656 11.3788 72.1302 10.535 71.2969C9.69128 70.4531 8.52983 70.0312 7.05066 70.0312C5.51941 70.0312 4.27983 70.5208 3.33191 71.5C2.39441 72.4792 1.92566 73.75 1.92566 75.3125H0.0662842C0.0662842 74.0312 0.352743 72.8646 0.925659 71.8125C1.50899 70.7604 2.33191 69.9375 3.39441 69.3438C4.46733 68.7396 5.68608 68.4375 7.05066 68.4375C9.13399 68.4375 10.759 68.9844 11.9257 70.0781C13.1027 71.1719 13.6913 72.6615 13.6913 74.5469C13.6913 75.6094 13.358 76.7708 12.6913 78.0312C12.035 79.2917 10.8736 80.8646 9.20691 82.75L2.86316 89.9219H14.8163V91.5ZM32.035 82.0156C32.035 85.224 31.4465 87.6615 30.2694 89.3281C29.0923 90.9844 27.358 91.8125 25.0663 91.8125C22.8163 91.8125 21.0923 91 19.8944 89.375C18.6965 87.7396 18.0819 85.3646 18.0507 82.25V78.1719C18.0507 74.974 18.6444 72.5521 19.8319 70.9062C21.0194 69.2604 22.7538 68.4375 25.035 68.4375C27.285 68.4375 29.0038 69.2344 30.1913 70.8281C31.3788 72.4115 31.9934 74.75 32.035 77.8438V82.0156ZM30.16 77.9375C30.16 75.3333 29.733 73.3646 28.8788 72.0312C28.035 70.6979 26.7538 70.0312 25.035 70.0312C23.3475 70.0312 22.0767 70.6823 21.2225 71.9844C20.3684 73.2865 19.9309 75.2083 19.91 77.75V82.2188C19.91 84.8125 20.3475 86.7969 21.2225 88.1719C22.108 89.5469 23.3892 90.2344 25.0663 90.2344C26.733 90.2344 27.9934 89.5625 28.8475 88.2188C29.7121 86.875 30.1496 84.9062 30.16 82.3125V77.9375ZM44.7694 91.5H42.8944V71L36.7069 73.2969V71.5469L44.4569 68.6719H44.7694V91.5ZM64.8475 68.5781V70.2188H64.6288C61.91 70.2188 59.7694 71.0208 58.2069 72.625C56.6444 74.2188 55.7798 76.4375 55.6132 79.2812C56.2382 78.4167 57.035 77.75 58.0038 77.2812C58.9725 76.8021 60.0559 76.5625 61.2538 76.5625C63.2538 76.5625 64.8423 77.2552 66.0194 78.6406C67.2069 80.0156 67.8007 81.8177 67.8007 84.0469C67.8007 85.526 67.5246 86.8594 66.9725 88.0469C66.4205 89.2344 65.6288 90.1615 64.5975 90.8281C63.5663 91.4844 62.3892 91.8125 61.0663 91.8125C58.8892 91.8125 57.1184 91.026 55.7538 89.4531C54.3892 87.8698 53.7069 85.8281 53.7069 83.3281V81.4531C53.7069 77.3802 54.634 74.2292 56.4882 72C58.3423 69.7604 60.9725 68.6198 64.3788 68.5781H64.8475ZM60.9569 78.1719C59.7694 78.1719 58.66 78.526 57.6288 79.2344C56.608 79.9323 55.9257 80.8229 55.5819 81.9062V83.5C55.5819 85.4792 56.0871 87.0938 57.0975 88.3438C58.1184 89.5938 59.4413 90.2188 61.0663 90.2188C62.5246 90.2188 63.7017 89.6406 64.5975 88.4844C65.5038 87.3281 65.9569 85.8698 65.9569 84.1094C65.9569 82.3177 65.5038 80.8802 64.5975 79.7969C63.7017 78.7135 62.4882 78.1719 60.9569 78.1719Z" fill="white"/>
</svg>
