<svg width="272" height="92" viewBox="0 0 272 92" fill="none" xmlns="http://www.w3.org/2000/svg">
<path d="M1.30066 23.5V0.75H8.01941C10.4569 0.75 12.3059 1.25521 13.5663 2.26562C14.8267 3.26562 15.4569 4.74479 15.4569 6.70312C15.4569 7.88021 15.134 8.90625 14.4882 9.78125C13.8527 10.6458 12.9777 11.2656 11.8632 11.6406C13.1861 11.9323 14.2486 12.5833 15.0507 13.5938C15.8632 14.6042 16.2694 15.7708 16.2694 17.0938C16.2694 19.1042 15.6184 20.6771 14.3163 21.8125C13.0246 22.9375 11.2225 23.5 8.91003 23.5H1.30066ZM3.22253 12.5625V21.875H8.98816C10.634 21.875 11.9361 21.4583 12.8944 20.625C13.8632 19.7812 14.3475 18.6146 14.3475 17.125C14.3475 15.7188 13.884 14.6094 12.9569 13.7969C12.0402 12.974 10.7694 12.5625 9.14441 12.5625H3.22253ZM3.22253 10.9531H8.47253C10.0767 10.9219 11.3163 10.5469 12.1913 9.82812C13.0767 9.09896 13.5194 8.04167 13.5194 6.65625C13.5194 5.19792 13.0611 4.125 12.1444 3.4375C11.2382 2.73958 9.86316 2.39062 8.01941 2.39062H3.22253V10.9531ZM22.5819 23.5H20.7069V6.59375H22.5819V23.5ZM20.3788 1.70312C20.3788 1.34896 20.4934 1.05208 20.7225 0.8125C20.9517 0.5625 21.2642 0.4375 21.66 0.4375C22.0559 0.4375 22.3684 0.5625 22.5975 0.8125C22.8371 1.05208 22.9569 1.34896 22.9569 1.70312C22.9569 2.05729 22.8371 2.35417 22.5975 2.59375C22.3684 2.83333 22.0559 2.95312 21.66 2.95312C21.2642 2.95312 20.9517 2.83333 20.7225 2.59375C20.4934 2.35417 20.3788 2.05729 20.3788 1.70312ZM26.6444 14.7969C26.6444 13.1719 26.9569 11.7083 27.5819 10.4062C28.2173 9.10417 29.108 8.09375 30.2538 7.375C31.41 6.64583 32.7173 6.28125 34.1757 6.28125C36.4257 6.28125 38.2486 7.07292 39.6444 8.65625C41.0402 10.2292 41.7382 12.3177 41.7382 14.9219V15.3125C41.7382 16.9479 41.4205 18.4219 40.785 19.7344C40.16 21.0365 39.2746 22.0417 38.1288 22.75C36.983 23.4583 35.6757 23.8125 34.2069 23.8125C31.9673 23.8125 30.1444 23.026 28.7382 21.4531C27.3423 19.8698 26.6444 17.776 26.6444 15.1719V14.7969ZM28.5194 15.3125C28.5194 17.3333 29.0402 18.9948 30.0819 20.2969C31.134 21.5885 32.509 22.2344 34.2069 22.2344C35.8944 22.2344 37.259 21.5885 38.3007 20.2969C39.3527 18.9948 39.8788 17.2812 39.8788 15.1562V14.7969C39.8788 13.5052 39.6392 12.3229 39.16 11.25C38.6809 10.1771 38.009 9.34896 37.1444 8.76562C36.2798 8.17188 35.2902 7.875 34.1757 7.875C32.509 7.875 31.1496 8.53125 30.0975 9.84375C29.0455 11.1458 28.5194 12.8542 28.5194 14.9688V15.3125ZM47.3163 6.59375L47.3788 9.34375C48.0038 8.32292 48.785 7.55729 49.7225 7.04688C50.66 6.53646 51.7017 6.28125 52.8475 6.28125C55.5142 6.28125 57.2069 7.375 57.9257 9.5625C58.5298 8.51042 59.3371 7.70312 60.3475 7.14062C61.358 6.56771 62.4725 6.28125 63.6913 6.28125C67.3163 6.28125 69.1652 8.26042 69.2382 12.2188V23.5H67.3632V12.3594C67.3527 10.849 67.0246 9.72917 66.3788 9C65.7434 8.27083 64.7017 7.90625 63.2538 7.90625C61.91 7.92708 60.7746 8.36458 59.8475 9.21875C58.9205 10.0625 58.4048 11.0938 58.3007 12.3125V23.5H56.4257V12.2188C56.4152 10.7708 56.0715 9.69271 55.3944 8.98438C54.7277 8.26562 53.6965 7.90625 52.3007 7.90625C51.1236 7.90625 50.1132 8.24479 49.2694 8.92188C48.4257 9.58854 47.8007 10.5833 47.3944 11.9062V23.5H45.5194V6.59375H47.3163ZM76.0819 23.5H74.2069V6.59375H76.0819V23.5ZM73.8788 1.70312C73.8788 1.34896 73.9934 1.05208 74.2225 0.8125C74.4517 0.5625 74.7642 0.4375 75.16 0.4375C75.5559 0.4375 75.8684 0.5625 76.0975 0.8125C76.3371 1.05208 76.4569 1.34896 76.4569 1.70312C76.4569 2.05729 76.3371 2.35417 76.0975 2.59375C75.8684 2.83333 75.5559 2.95312 75.16 2.95312C74.7642 2.95312 74.4517 2.83333 74.2225 2.59375C73.9934 2.35417 73.8788 2.05729 73.8788 1.70312ZM82.8788 6.59375L82.9413 9.34375C83.5663 8.32292 84.3475 7.55729 85.285 7.04688C86.2225 6.53646 87.2642 6.28125 88.41 6.28125C91.0767 6.28125 92.7694 7.375 93.4882 9.5625C94.0923 8.51042 94.8996 7.70312 95.91 7.14062C96.9205 6.56771 98.035 6.28125 99.2538 6.28125C102.879 6.28125 104.728 8.26042 104.801 12.2188V23.5H102.926V12.3594C102.915 10.849 102.587 9.72917 101.941 9C101.306 8.27083 100.264 7.90625 98.8163 7.90625C97.4725 7.92708 96.3371 8.36458 95.41 9.21875C94.483 10.0625 93.9673 11.0938 93.8632 12.3125V23.5H91.9882V12.2188C91.9777 10.7708 91.634 9.69271 90.9569 8.98438C90.2902 8.26562 89.259 7.90625 87.8632 7.90625C86.6861 7.90625 85.6757 8.24479 84.8319 8.92188C83.9882 9.58854 83.3632 10.5833 82.9569 11.9062V23.5H81.0819V6.59375H82.8788ZM111.644 23.5H109.769V6.59375H111.644V23.5ZM109.441 1.70312C109.441 1.34896 109.556 1.05208 109.785 0.8125C110.014 0.5625 110.327 0.4375 110.723 0.4375C111.118 0.4375 111.431 0.5625 111.66 0.8125C111.9 1.05208 112.019 1.34896 112.019 1.70312C112.019 2.05729 111.9 2.35417 111.66 2.59375C111.431 2.83333 111.118 2.95312 110.723 2.95312C110.327 2.95312 110.014 2.83333 109.785 2.59375C109.556 2.35417 109.441 2.05729 109.441 1.70312ZM122.988 22.2344C124.29 22.2344 125.379 21.8698 126.254 21.1406C127.139 20.401 127.618 19.4479 127.691 18.2812H129.488C129.436 19.3125 129.113 20.2552 128.519 21.1094C127.926 21.9531 127.134 22.6146 126.144 23.0938C125.165 23.5729 124.113 23.8125 122.988 23.8125C120.769 23.8125 119.009 23.0417 117.707 21.5C116.415 19.9583 115.769 17.8854 115.769 15.2812V14.7188C115.769 13.0521 116.061 11.5781 116.644 10.2969C117.228 9.01562 118.061 8.02604 119.144 7.32812C120.238 6.63021 121.514 6.28125 122.973 6.28125C124.827 6.28125 126.353 6.83333 127.551 7.9375C128.759 9.04167 129.405 10.4948 129.488 12.2969H127.691C127.608 10.974 127.129 9.90625 126.254 9.09375C125.389 8.28125 124.295 7.875 122.973 7.875C121.285 7.875 119.973 8.48438 119.035 9.70312C118.108 10.9219 117.644 12.6302 117.644 14.8281V15.375C117.644 17.5312 118.108 19.2135 119.035 20.4219C119.973 21.6302 121.29 22.2344 122.988 22.2344ZM141.051 8.1875C140.655 8.11458 140.233 8.07812 139.785 8.07812C138.618 8.07812 137.629 8.40625 136.816 9.0625C136.014 9.70833 135.441 10.651 135.098 11.8906V23.5H133.238V6.59375H135.066L135.098 9.28125C136.087 7.28125 137.676 6.28125 139.863 6.28125C140.384 6.28125 140.795 6.34896 141.098 6.48438L141.051 8.1875ZM149.66 20.8125L154.598 6.59375H156.613L149.394 26.375L149.019 27.25C148.092 29.3021 146.66 30.3281 144.723 30.3281C144.275 30.3281 143.795 30.2552 143.285 30.1094L143.269 28.5625L144.238 28.6562C145.155 28.6562 145.894 28.4271 146.457 27.9688C147.03 27.5208 147.514 26.7448 147.91 25.6406L148.738 23.3594L142.363 6.59375H144.41L149.66 20.8125ZM1.30066 57.5V34.75H7.66003C9.52462 34.75 11.1965 35.1771 12.6757 36.0312C14.1548 36.875 15.3059 38.0885 16.1288 39.6719C16.9621 41.2552 17.3788 43.0573 17.3788 45.0781V47.1719C17.3788 49.2031 16.9673 51.0052 16.1444 52.5781C15.3215 54.151 14.16 55.3646 12.66 56.2188C11.1705 57.0729 9.45691 57.5 7.51941 57.5H1.30066ZM3.22253 36.3906V55.875H7.53503C9.93087 55.875 11.8527 55.0833 13.3007 53.5C14.7486 51.9062 15.4725 49.7552 15.4725 47.0469V45.0469C15.4725 42.4323 14.759 40.3385 13.3319 38.7656C11.9048 37.1927 10.0246 36.401 7.69128 36.3906H3.22253ZM28.3788 57.8125C26.9413 57.8125 25.6392 57.4583 24.4725 56.75C23.3163 56.0417 22.4152 55.0573 21.7694 53.7969C21.1236 52.526 20.8007 51.1042 20.8007 49.5312V48.8594C20.8007 47.2344 21.1132 45.7708 21.7382 44.4688C22.3736 43.1667 23.2538 42.1458 24.3788 41.4062C25.5038 40.6562 26.7225 40.2812 28.035 40.2812C30.0871 40.2812 31.7121 40.9844 32.91 42.3906C34.1184 43.7865 34.7225 45.6979 34.7225 48.125V49.1719H22.66V49.5312C22.66 51.4479 23.2069 53.0469 24.3007 54.3281C25.4048 55.599 26.7902 56.2344 28.4569 56.2344C29.4569 56.2344 30.3371 56.0521 31.0975 55.6875C31.8684 55.3229 32.5663 54.7396 33.1913 53.9375L34.3632 54.8281C32.9882 56.8177 30.9934 57.8125 28.3788 57.8125ZM28.035 41.875C26.6288 41.875 25.4413 42.3906 24.4725 43.4219C23.5142 44.4531 22.9309 45.8385 22.7225 47.5781H32.8632V47.375C32.8111 45.75 32.3475 44.4271 31.4725 43.4062C30.5975 42.3854 29.4517 41.875 28.035 41.875ZM48.4882 53.2031C48.4882 52.276 48.1132 51.5312 47.3632 50.9688C46.6236 50.4062 45.5038 49.9688 44.0038 49.6562C42.5038 49.3333 41.3371 48.9688 40.5038 48.5625C39.6809 48.1458 39.0663 47.6406 38.66 47.0469C38.2642 46.4531 38.0663 45.7344 38.0663 44.8906C38.0663 43.5573 38.6236 42.4583 39.7382 41.5938C40.8527 40.7188 42.2798 40.2812 44.0194 40.2812C45.9048 40.2812 47.4152 40.75 48.5507 41.6875C49.6965 42.6146 50.2694 43.8281 50.2694 45.3281H48.3944C48.3944 44.3385 47.9777 43.5156 47.1444 42.8594C46.3215 42.2031 45.2798 41.875 44.0194 41.875C42.7902 41.875 41.8007 42.151 41.0507 42.7031C40.3111 43.2448 39.9413 43.9531 39.9413 44.8281C39.9413 45.6719 40.2486 46.3281 40.8632 46.7969C41.4882 47.2552 42.6184 47.6771 44.2538 48.0625C45.8996 48.4479 47.1288 48.8594 47.9413 49.2969C48.7642 49.7344 49.3736 50.2604 49.7694 50.875C50.1652 51.4896 50.3632 52.2344 50.3632 53.1094C50.3632 54.5365 49.785 55.6771 48.6288 56.5312C47.483 57.3854 45.983 57.8125 44.1288 57.8125C42.16 57.8125 40.5611 57.3385 39.3319 56.3906C38.1132 55.4323 37.5038 54.224 37.5038 52.7656H39.3788C39.4517 53.8594 39.91 54.7135 40.7538 55.3281C41.608 55.9323 42.733 56.2344 44.1288 56.2344C45.4309 56.2344 46.483 55.9479 47.285 55.375C48.0871 54.8021 48.4882 54.0781 48.4882 53.2031ZM56.6757 57.5H54.8007V40.5938H56.6757V57.5ZM54.4725 35.7031C54.4725 35.349 54.5871 35.0521 54.8163 34.8125C55.0455 34.5625 55.358 34.4375 55.7538 34.4375C56.1496 34.4375 56.4621 34.5625 56.6913 34.8125C56.9309 35.0521 57.0507 35.349 57.0507 35.7031C57.0507 36.0573 56.9309 36.3542 56.6913 36.5938C56.4621 36.8333 56.1496 36.9531 55.7538 36.9531C55.358 36.9531 55.0455 36.8333 54.8163 36.5938C54.5871 36.3542 54.4725 36.0573 54.4725 35.7031ZM61.0194 48.8906C61.0194 46.2448 61.6027 44.151 62.7694 42.6094C63.9465 41.0573 65.5402 40.2812 67.5507 40.2812C69.8527 40.2812 71.6027 41.1979 72.8007 43.0312L72.8944 40.5938H74.6444V57.1562C74.6444 59.3333 74.035 61.0573 72.8163 62.3281C71.5975 63.599 69.9465 64.2344 67.8632 64.2344C66.6861 64.2344 65.5611 63.9688 64.4882 63.4375C63.4257 62.9167 62.5871 62.2188 61.9725 61.3438L63.0194 60.2188C64.3423 61.8438 65.9152 62.6562 67.7382 62.6562C69.3007 62.6562 70.5194 62.1927 71.3944 61.2656C72.2694 60.349 72.7225 59.0729 72.7538 57.4375V55.3125C71.5559 56.9792 69.8111 57.8125 67.5194 57.8125C65.5611 57.8125 63.9882 57.0312 62.8007 55.4688C61.6132 53.9062 61.0194 51.7969 61.0194 49.1406V48.8906ZM62.91 49.2188C62.91 51.375 63.3423 53.0781 64.2069 54.3281C65.0715 55.5677 66.2902 56.1875 67.8632 56.1875C70.1652 56.1875 71.7955 55.1562 72.7538 53.0938V45.2344C72.3163 44.151 71.6861 43.3281 70.8632 42.7656C70.0402 42.1927 69.0507 41.9062 67.8944 41.9062C66.3215 41.9062 65.0975 42.526 64.2225 43.7656C63.3475 44.9948 62.91 46.8125 62.91 49.2188ZM81.3007 40.5938L81.3632 43.4844C81.9986 42.4427 82.7902 41.651 83.7382 41.1094C84.6861 40.5573 85.733 40.2812 86.8788 40.2812C88.6913 40.2812 90.0402 40.7917 90.9257 41.8125C91.8111 42.8333 92.259 44.3646 92.2694 46.4062V57.5H90.41V46.3906C90.3996 44.8802 90.0767 43.7552 89.4413 43.0156C88.8163 42.276 87.8111 41.9062 86.4257 41.9062C85.2694 41.9062 84.2434 42.2708 83.3475 43C82.4621 43.7188 81.8059 44.6927 81.3788 45.9219V57.5H79.5194V40.5938H81.3007ZM121.441 50.4062C121.181 52.8021 120.321 54.6354 118.863 55.9062C117.415 57.1771 115.483 57.8125 113.066 57.8125C111.379 57.8125 109.884 57.3906 108.582 56.5469C107.29 55.7031 106.29 54.5104 105.582 52.9688C104.874 51.4167 104.514 49.6458 104.504 47.6562V44.7031C104.504 42.6823 104.858 40.8906 105.566 39.3281C106.275 37.7656 107.29 36.5625 108.613 35.7188C109.946 34.8646 111.478 34.4375 113.207 34.4375C115.644 34.4375 117.566 35.099 118.973 36.4219C120.389 37.7344 121.212 39.5521 121.441 41.875H119.504C119.025 38.0104 116.926 36.0781 113.207 36.0781C111.144 36.0781 109.499 36.849 108.269 38.3906C107.051 39.9323 106.441 42.0625 106.441 44.7812V47.5625C106.441 50.1875 107.035 52.2812 108.223 53.8438C109.42 55.4062 111.035 56.1875 113.066 56.1875C115.077 56.1875 116.592 55.7083 117.613 54.75C118.634 53.7812 119.264 52.3333 119.504 50.4062H121.441ZM124.644 48.7969C124.644 47.1719 124.957 45.7083 125.582 44.4062C126.217 43.1042 127.108 42.0938 128.254 41.375C129.41 40.6458 130.717 40.2812 132.176 40.2812C134.426 40.2812 136.249 41.0729 137.644 42.6562C139.04 44.2292 139.738 46.3177 139.738 48.9219V49.3125C139.738 50.9479 139.42 52.4219 138.785 53.7344C138.16 55.0365 137.275 56.0417 136.129 56.75C134.983 57.4583 133.676 57.8125 132.207 57.8125C129.967 57.8125 128.144 57.026 126.738 55.4531C125.342 53.8698 124.644 51.776 124.644 49.1719V48.7969ZM126.519 49.3125C126.519 51.3333 127.04 52.9948 128.082 54.2969C129.134 55.5885 130.509 56.2344 132.207 56.2344C133.894 56.2344 135.259 55.5885 136.301 54.2969C137.353 52.9948 137.879 51.2812 137.879 49.1562V48.7969C137.879 47.5052 137.639 46.3229 137.16 45.25C136.681 44.1771 136.009 43.349 135.144 42.7656C134.28 42.1719 133.29 41.875 132.176 41.875C130.509 41.875 129.15 42.5312 128.098 43.8438C127.045 45.1458 126.519 46.8542 126.519 48.9688V49.3125ZM145.316 40.5938L145.379 43.3438C146.004 42.3229 146.785 41.5573 147.723 41.0469C148.66 40.5365 149.702 40.2812 150.848 40.2812C153.514 40.2812 155.207 41.375 155.926 43.5625C156.53 42.5104 157.337 41.7031 158.348 41.1406C159.358 40.5677 160.473 40.2812 161.691 40.2812C165.316 40.2812 167.165 42.2604 167.238 46.2188V57.5H165.363V46.3594C165.353 44.849 165.025 43.7292 164.379 43C163.743 42.2708 162.702 41.9062 161.254 41.9062C159.91 41.9271 158.775 42.3646 157.848 43.2188C156.92 44.0625 156.405 45.0938 156.301 46.3125V57.5H154.426V46.2188C154.415 44.7708 154.071 43.6927 153.394 42.9844C152.728 42.2656 151.696 41.9062 150.301 41.9062C149.124 41.9062 148.113 42.2448 147.269 42.9219C146.426 43.5885 145.801 44.5833 145.394 45.9062V57.5H143.519V40.5938H145.316ZM185.582 49.2188C185.582 51.8542 184.999 53.9479 183.832 55.5C182.665 57.0417 181.103 57.8125 179.144 57.8125C176.832 57.8125 175.061 57 173.832 55.375V64H171.973V40.5938H173.707L173.801 42.9844C175.019 41.1823 176.785 40.2812 179.098 40.2812C181.118 40.2812 182.702 41.0469 183.848 42.5781C185.004 44.1094 185.582 46.2344 185.582 48.9531V49.2188ZM183.707 48.8906C183.707 46.7344 183.264 45.0312 182.379 43.7812C181.493 42.5312 180.259 41.9062 178.676 41.9062C177.53 41.9062 176.545 42.1823 175.723 42.7344C174.9 43.2865 174.269 44.0885 173.832 45.1406V53.25C174.28 54.2188 174.92 54.9583 175.754 55.4688C176.587 55.9792 177.571 56.2344 178.707 56.2344C180.28 56.2344 181.504 55.6094 182.379 54.3594C183.264 53.099 183.707 51.276 183.707 48.8906ZM196.285 57.8125C194.848 57.8125 193.545 57.4583 192.379 56.75C191.223 56.0417 190.321 55.0573 189.676 53.7969C189.03 52.526 188.707 51.1042 188.707 49.5312V48.8594C188.707 47.2344 189.019 45.7708 189.644 44.4688C190.28 43.1667 191.16 42.1458 192.285 41.4062C193.41 40.6562 194.629 40.2812 195.941 40.2812C197.993 40.2812 199.618 40.9844 200.816 42.3906C202.025 43.7865 202.629 45.6979 202.629 48.125V49.1719H190.566V49.5312C190.566 51.4479 191.113 53.0469 192.207 54.3281C193.311 55.599 194.696 56.2344 196.363 56.2344C197.363 56.2344 198.243 56.0521 199.004 55.6875C199.775 55.3229 200.473 54.7396 201.098 53.9375L202.269 54.8281C200.894 56.8177 198.9 57.8125 196.285 57.8125ZM195.941 41.875C194.535 41.875 193.348 42.3906 192.379 43.4219C191.42 44.4531 190.837 45.8385 190.629 47.5781H200.769V47.375C200.717 45.75 200.254 44.4271 199.379 43.4062C198.504 42.3854 197.358 41.875 195.941 41.875ZM209.176 36.2656V40.5938H212.676V42.125H209.176V53.3906C209.176 54.3281 209.342 55.026 209.676 55.4844C210.019 55.9427 210.587 56.1719 211.379 56.1719C211.691 56.1719 212.196 56.1198 212.894 56.0156L212.973 57.5469C212.483 57.724 211.816 57.8125 210.973 57.8125C209.691 57.8125 208.759 57.4427 208.176 56.7031C207.592 55.9531 207.301 54.8542 207.301 53.4062V42.125H204.191V40.5938H207.301V36.2656H209.176ZM218.644 57.5H216.769V40.5938H218.644V57.5ZM216.441 35.7031C216.441 35.349 216.556 35.0521 216.785 34.8125C217.014 34.5625 217.327 34.4375 217.723 34.4375C218.118 34.4375 218.431 34.5625 218.66 34.8125C218.9 35.0521 219.019 35.349 219.019 35.7031C219.019 36.0573 218.9 36.3542 218.66 36.5938C218.431 36.8333 218.118 36.9531 217.723 36.9531C217.327 36.9531 217.014 36.8333 216.785 36.5938C216.556 36.3542 216.441 36.0573 216.441 35.7031ZM226.644 36.2656V40.5938H230.144V42.125H226.644V53.3906C226.644 54.3281 226.811 55.026 227.144 55.4844C227.488 55.9427 228.056 56.1719 228.848 56.1719C229.16 56.1719 229.665 56.1198 230.363 56.0156L230.441 57.5469C229.952 57.724 229.285 57.8125 228.441 57.8125C227.16 57.8125 226.228 57.4427 225.644 56.7031C225.061 55.9531 224.769 54.8542 224.769 53.4062V42.125H221.66V40.5938H224.769V36.2656H226.644ZM236.113 57.5H234.238V40.5938H236.113V57.5ZM233.91 35.7031C233.91 35.349 234.025 35.0521 234.254 34.8125C234.483 34.5625 234.795 34.4375 235.191 34.4375C235.587 34.4375 235.9 34.5625 236.129 34.8125C236.368 35.0521 236.488 35.349 236.488 35.7031C236.488 36.0573 236.368 36.3542 236.129 36.5938C235.9 36.8333 235.587 36.9531 235.191 36.9531C234.795 36.9531 234.483 36.8333 234.254 36.5938C234.025 36.3542 233.91 36.0573 233.91 35.7031ZM240.176 48.7969C240.176 47.1719 240.488 45.7083 241.113 44.4062C241.749 43.1042 242.639 42.0938 243.785 41.375C244.941 40.6458 246.249 40.2812 247.707 40.2812C249.957 40.2812 251.78 41.0729 253.176 42.6562C254.571 44.2292 255.269 46.3177 255.269 48.9219V49.3125C255.269 50.9479 254.952 52.4219 254.316 53.7344C253.691 55.0365 252.806 56.0417 251.66 56.75C250.514 57.4583 249.207 57.8125 247.738 57.8125C245.499 57.8125 243.676 57.026 242.269 55.4531C240.874 53.8698 240.176 51.776 240.176 49.1719V48.7969ZM242.051 49.3125C242.051 51.3333 242.571 52.9948 243.613 54.2969C244.665 55.5885 246.04 56.2344 247.738 56.2344C249.426 56.2344 250.79 55.5885 251.832 54.2969C252.884 52.9948 253.41 51.2812 253.41 49.1562V48.7969C253.41 47.5052 253.17 46.3229 252.691 45.25C252.212 44.1771 251.54 43.349 250.676 42.7656C249.811 42.1719 248.821 41.875 247.707 41.875C246.04 41.875 244.681 42.5312 243.629 43.8438C242.577 45.1458 242.051 46.8542 242.051 48.9688V49.3125ZM260.926 40.5938L260.988 43.4844C261.624 42.4427 262.415 41.651 263.363 41.1094C264.311 40.5573 265.358 40.2812 266.504 40.2812C268.316 40.2812 269.665 40.7917 270.551 41.8125C271.436 42.8333 271.884 44.3646 271.894 46.4062V57.5H270.035V46.3906C270.025 44.8802 269.702 43.7552 269.066 43.0156C268.441 42.276 267.436 41.9062 266.051 41.9062C264.894 41.9062 263.868 42.2708 262.973 43C262.087 43.7188 261.431 44.6927 261.004 45.9219V57.5H259.144V40.5938H260.926ZM14.8163 91.5H0.566284V90.0625L8.36316 81.2188C9.65483 79.7292 10.5507 78.5 11.0507 77.5312C11.5507 76.5625 11.8007 75.6198 11.8007 74.7031C11.8007 73.2656 11.3788 72.1302 10.535 71.2969C9.69128 70.4531 8.52983 70.0312 7.05066 70.0312C5.51941 70.0312 4.27983 70.5208 3.33191 71.5C2.39441 72.4792 1.92566 73.75 1.92566 75.3125H0.0662842C0.0662842 74.0312 0.352743 72.8646 0.925659 71.8125C1.50899 70.7604 2.33191 69.9375 3.39441 69.3438C4.46733 68.7396 5.68608 68.4375 7.05066 68.4375C9.13399 68.4375 10.759 68.9844 11.9257 70.0781C13.1027 71.1719 13.6913 72.6615 13.6913 74.5469C13.6913 75.6094 13.358 76.7708 12.6913 78.0312C12.035 79.2917 10.8736 80.8646 9.20691 82.75L2.86316 89.9219H14.8163V91.5ZM32.035 82.0156C32.035 85.224 31.4465 87.6615 30.2694 89.3281C29.0923 90.9844 27.358 91.8125 25.0663 91.8125C22.8163 91.8125 21.0923 91 19.8944 89.375C18.6965 87.7396 18.0819 85.3646 18.0507 82.25V78.1719C18.0507 74.974 18.6444 72.5521 19.8319 70.9062C21.0194 69.2604 22.7538 68.4375 25.035 68.4375C27.285 68.4375 29.0038 69.2344 30.1913 70.8281C31.3788 72.4115 31.9934 74.75 32.035 77.8438V82.0156ZM30.16 77.9375C30.16 75.3333 29.733 73.3646 28.8788 72.0312C28.035 70.6979 26.7538 70.0312 25.035 70.0312C23.3475 70.0312 22.0767 70.6823 21.2225 71.9844C20.3684 73.2865 19.9309 75.2083 19.91 77.75V82.2188C19.91 84.8125 20.3475 86.7969 21.2225 88.1719C22.108 89.5469 23.3892 90.2344 25.0663 90.2344C26.733 90.2344 27.9934 89.5625 28.8475 88.2188C29.7121 86.875 30.1496 84.9062 30.16 82.3125V77.9375ZM44.7694 91.5H42.8944V71L36.7069 73.2969V71.5469L44.4569 68.6719H44.7694V91.5ZM62.5194 91.5H60.6444V71L54.4569 73.2969V71.5469L62.2069 68.6719H62.5194V91.5Z" fill="white"/>
</svg>
