<svg width="253" height="253" viewBox="0 0 253 253" fill="none" xmlns="http://www.w3.org/2000/svg">
<path fill-rule="evenodd" clip-rule="evenodd" d="M237.405 252.352H252.422V237.203L237.405 237.164V252.352ZM252.422 231.203V176.416L237.405 176.377V231.164L252.422 231.203ZM252.422 170.416V98.0336L237.405 97.9947V170.377L252.422 170.416ZM252.422 92.0336V28.4492L237.405 28.4103V91.9947L252.422 92.0336ZM252.422 22.4492V0.648193H237.405V22.4103L252.422 22.4492ZM231.405 0.648193H166.053V22.2255L231.405 22.3947V0.648193ZM160.053 0.648193H94.7014V22.0407L160.053 22.2099V0.648193ZM88.7014 0.648193H23.3494V21.8559L88.7014 22.0251V0.648193ZM17.3494 0.648193H0.717957V21.7972L17.3494 21.8403V0.648193ZM0.717957 27.7973V91.3816L17.3494 91.4247V27.8403L0.717957 27.7973ZM0.717957 97.3817V169.764L17.3494 169.807V97.4247L0.717957 97.3817ZM0.717957 175.764V230.551L17.3494 230.594V175.807L0.717957 175.764ZM0.717957 236.551V252.352H17.3494V236.594L0.717957 236.551ZM23.3494 252.352H88.7014V236.779L23.3494 236.609V252.352ZM94.7014 252.352H160.053V236.963L94.7014 236.794V252.352ZM166.053 252.352H231.405V237.148L166.053 236.979V252.352ZM231.405 176.361V231.148L166.053 230.979V203.445C178.533 197.029 189.25 187.665 197.283 176.273L231.405 176.361ZM201.148 170.283L231.405 170.361V97.9791L208.201 97.919C211.333 106.866 213.036 116.484 213.036 126.5C213.036 142.477 208.703 157.442 201.148 170.283ZM205.841 91.9129L231.405 91.9791V28.3948L166.053 28.2255V49.5547C183.719 58.6381 197.851 73.6267 205.841 91.9129ZM160.053 46.756V28.21L94.7014 28.0407V46.0962C104.563 42.1841 115.315 40.0339 126.57 40.0339C138.442 40.0339 149.755 42.4266 160.053 46.756ZM88.7014 48.7455V28.0251L23.3494 27.8559V91.4402L47.4792 91.5027C55.7451 72.8501 70.4159 57.6677 88.7014 48.7455ZM45.0881 97.4966L23.3494 97.4403V169.822L51.7657 169.896C44.3503 157.141 40.1036 142.317 40.1036 126.5C40.1036 116.326 41.8607 106.563 45.0881 97.4966ZM55.5997 175.906L23.3494 175.823V230.609L88.7014 230.779V204.255C75.3948 197.762 64.0026 187.954 55.5997 175.906ZM160.053 206.244C149.755 210.574 138.442 212.966 126.57 212.966C115.315 212.966 104.563 210.816 94.7014 206.904V230.794L160.053 230.963V206.244Z" fill="white"/>
</svg>
