<svg width="272" height="93" viewBox="0 0 272 93" fill="none" xmlns="http://www.w3.org/2000/svg">
<path d="M9.80066 15.0312H3.19128V24.5H1.25378V1.75H8.64441C11.0715 1.75 12.9673 2.33854 14.3319 3.51562C15.6965 4.69271 16.3788 6.33854 16.3788 8.45312C16.3788 9.91146 15.9517 11.1979 15.0975 12.3125C14.2434 13.4271 13.0975 14.1979 11.66 14.625L17.3475 24.2969V24.5H15.3007L9.80066 15.0312ZM3.19128 13.3906H9.08191C10.6965 13.3906 11.9934 12.9323 12.9725 12.0156C13.9517 11.099 14.4413 9.91146 14.4413 8.45312C14.4413 6.84896 13.9309 5.60417 12.91 4.71875C11.8892 3.83333 10.4569 3.39062 8.61316 3.39062H3.19128V13.3906ZM27.7225 24.8125C26.285 24.8125 24.983 24.4583 23.8163 23.75C22.66 23.0417 21.759 22.0573 21.1132 20.7969C20.4673 19.526 20.1444 18.1042 20.1444 16.5312V15.8594C20.1444 14.2344 20.4569 12.7708 21.0819 11.4688C21.7173 10.1667 22.5975 9.14583 23.7225 8.40625C24.8475 7.65625 26.0663 7.28125 27.3788 7.28125C29.4309 7.28125 31.0559 7.98438 32.2538 9.39062C33.4621 10.7865 34.0663 12.6979 34.0663 15.125V16.1719H22.0038V16.5312C22.0038 18.4479 22.5507 20.0469 23.6444 21.3281C24.7486 22.599 26.134 23.2344 27.8007 23.2344C28.8007 23.2344 29.6809 23.0521 30.4413 22.6875C31.2121 22.3229 31.91 21.7396 32.535 20.9375L33.7069 21.8281C32.3319 23.8177 30.3371 24.8125 27.7225 24.8125ZM27.3788 8.875C25.9725 8.875 24.785 9.39062 23.8163 10.4219C22.858 11.4531 22.2746 12.8385 22.0663 14.5781H32.2069V14.375C32.1548 12.75 31.6913 11.4271 30.8163 10.4062C29.9413 9.38542 28.7955 8.875 27.3788 8.875ZM47.8319 20.2031C47.8319 19.276 47.4569 18.5312 46.7069 17.9688C45.9673 17.4062 44.8475 16.9688 43.3475 16.6562C41.8475 16.3333 40.6809 15.9688 39.8475 15.5625C39.0246 15.1458 38.41 14.6406 38.0038 14.0469C37.608 13.4531 37.41 12.7344 37.41 11.8906C37.41 10.5573 37.9673 9.45833 39.0819 8.59375C40.1965 7.71875 41.6236 7.28125 43.3632 7.28125C45.2486 7.28125 46.759 7.75 47.8944 8.6875C49.0402 9.61458 49.6132 10.8281 49.6132 12.3281H47.7382C47.7382 11.3385 47.3215 10.5156 46.4882 9.85938C45.6652 9.20312 44.6236 8.875 43.3632 8.875C42.134 8.875 41.1444 9.15104 40.3944 9.70312C39.6548 10.2448 39.285 10.9531 39.285 11.8281C39.285 12.6719 39.5923 13.3281 40.2069 13.7969C40.8319 14.2552 41.9621 14.6771 43.5975 15.0625C45.2434 15.4479 46.4725 15.8594 47.285 16.2969C48.108 16.7344 48.7173 17.2604 49.1132 17.875C49.509 18.4896 49.7069 19.2344 49.7069 20.1094C49.7069 21.5365 49.1288 22.6771 47.9725 23.5312C46.8267 24.3854 45.3267 24.8125 43.4725 24.8125C41.5038 24.8125 39.9048 24.3385 38.6757 23.3906C37.4569 22.4323 36.8475 21.224 36.8475 19.7656H38.7225C38.7955 20.8594 39.2538 21.7135 40.0975 22.3281C40.9517 22.9323 42.0767 23.2344 43.4725 23.2344C44.7746 23.2344 45.8267 22.9479 46.6288 22.375C47.4309 21.8021 47.8319 21.0781 47.8319 20.2031ZM64.5975 24.5C64.41 23.9688 64.2902 23.1823 64.2382 22.1406C63.5819 22.9948 62.7434 23.6562 61.7225 24.125C60.7121 24.5833 59.6392 24.8125 58.5038 24.8125C56.8788 24.8125 55.5611 24.3594 54.5507 23.4531C53.5507 22.5469 53.0507 21.401 53.0507 20.0156C53.0507 18.3698 53.733 17.0677 55.0975 16.1094C56.4725 15.151 58.384 14.6719 60.8319 14.6719H64.2225V12.75C64.2225 11.5417 63.8475 10.5938 63.0975 9.90625C62.358 9.20833 61.2746 8.85938 59.8475 8.85938C58.5455 8.85938 57.4673 9.19271 56.6132 9.85938C55.759 10.526 55.3319 11.3281 55.3319 12.2656L53.4569 12.25C53.4569 10.9062 54.0819 9.74479 55.3319 8.76562C56.5819 7.77604 58.1184 7.28125 59.9413 7.28125C61.8267 7.28125 63.3111 7.75521 64.3944 8.70312C65.4882 9.64062 66.0507 10.9531 66.0819 12.6406V20.6406C66.0819 22.276 66.2538 23.5 66.5975 24.3125V24.5H64.5975ZM58.7225 23.1562C59.9725 23.1562 61.0871 22.8542 62.0663 22.25C63.0559 21.6458 63.7746 20.8385 64.2225 19.8281V16.1094H60.8788C59.0142 16.1302 57.5559 16.474 56.5038 17.1406C55.4517 17.7969 54.9257 18.7031 54.9257 19.8594C54.9257 20.8073 55.2746 21.5938 55.9725 22.2188C56.6809 22.8438 57.5975 23.1562 58.7225 23.1562ZM73.1757 24.5H71.3007V0.5H73.1757V24.5ZM88.9413 24.5C88.7538 23.9688 88.634 23.1823 88.5819 22.1406C87.9257 22.9948 87.0871 23.6562 86.0663 24.125C85.0559 24.5833 83.983 24.8125 82.8475 24.8125C81.2225 24.8125 79.9048 24.3594 78.8944 23.4531C77.8944 22.5469 77.3944 21.401 77.3944 20.0156C77.3944 18.3698 78.0767 17.0677 79.4413 16.1094C80.8163 15.151 82.7277 14.6719 85.1757 14.6719H88.5663V12.75C88.5663 11.5417 88.1913 10.5938 87.4413 9.90625C86.7017 9.20833 85.6184 8.85938 84.1913 8.85938C82.8892 8.85938 81.8111 9.19271 80.9569 9.85938C80.1027 10.526 79.6757 11.3281 79.6757 12.2656L77.8007 12.25C77.8007 10.9062 78.4257 9.74479 79.6757 8.76562C80.9257 7.77604 82.4621 7.28125 84.285 7.28125C86.1705 7.28125 87.6548 7.75521 88.7382 8.70312C89.8319 9.64062 90.3944 10.9531 90.4257 12.6406V20.6406C90.4257 22.276 90.5975 23.5 90.9413 24.3125V24.5H88.9413ZM83.0663 23.1562C84.3163 23.1562 85.4309 22.8542 86.41 22.25C87.3996 21.6458 88.1184 20.8385 88.5663 19.8281V16.1094H85.2225C83.358 16.1302 81.8996 16.474 80.8475 17.1406C79.7955 17.7969 79.2694 18.7031 79.2694 19.8594C79.2694 20.8073 79.6184 21.5938 80.3163 22.2188C81.0246 22.8438 81.9413 23.1562 83.0663 23.1562ZM98.3319 3.26562V7.59375H101.832V9.125H98.3319V20.3906C98.3319 21.3281 98.4986 22.026 98.8319 22.4844C99.1757 22.9427 99.7434 23.1719 100.535 23.1719C100.848 23.1719 101.353 23.1198 102.051 23.0156L102.129 24.5469C101.639 24.724 100.973 24.8125 100.129 24.8125C98.8475 24.8125 97.9152 24.4427 97.3319 23.7031C96.7486 22.9531 96.4569 21.8542 96.4569 20.4062V9.125H93.3475V7.59375H96.4569V3.26562H98.3319ZM1.30066 58.5V35.75H7.66003C9.52462 35.75 11.1965 36.1771 12.6757 37.0312C14.1548 37.875 15.3059 39.0885 16.1288 40.6719C16.9621 42.2552 17.3788 44.0573 17.3788 46.0781V48.1719C17.3788 50.2031 16.9673 52.0052 16.1444 53.5781C15.3215 55.151 14.16 56.3646 12.66 57.2188C11.1705 58.0729 9.45691 58.5 7.51941 58.5H1.30066ZM3.22253 37.3906V56.875H7.53503C9.93087 56.875 11.8527 56.0833 13.3007 54.5C14.7486 52.9062 15.4725 50.7552 15.4725 48.0469V46.0469C15.4725 43.4323 14.759 41.3385 13.3319 39.7656C11.9048 38.1927 10.0246 37.401 7.69128 37.3906H3.22253ZM28.3788 58.8125C26.9413 58.8125 25.6392 58.4583 24.4725 57.75C23.3163 57.0417 22.4152 56.0573 21.7694 54.7969C21.1236 53.526 20.8007 52.1042 20.8007 50.5312V49.8594C20.8007 48.2344 21.1132 46.7708 21.7382 45.4688C22.3736 44.1667 23.2538 43.1458 24.3788 42.4062C25.5038 41.6562 26.7225 41.2812 28.035 41.2812C30.0871 41.2812 31.7121 41.9844 32.91 43.3906C34.1184 44.7865 34.7225 46.6979 34.7225 49.125V50.1719H22.66V50.5312C22.66 52.4479 23.2069 54.0469 24.3007 55.3281C25.4048 56.599 26.7902 57.2344 28.4569 57.2344C29.4569 57.2344 30.3371 57.0521 31.0975 56.6875C31.8684 56.3229 32.5663 55.7396 33.1913 54.9375L34.3632 55.8281C32.9882 57.8177 30.9934 58.8125 28.3788 58.8125ZM28.035 42.875C26.6288 42.875 25.4413 43.3906 24.4725 44.4219C23.5142 45.4531 22.9309 46.8385 22.7225 48.5781H32.8632V48.375C32.8111 46.75 32.3475 45.4271 31.4725 44.4062C30.5975 43.3854 29.4517 42.875 28.035 42.875ZM48.4882 54.2031C48.4882 53.276 48.1132 52.5312 47.3632 51.9688C46.6236 51.4062 45.5038 50.9688 44.0038 50.6562C42.5038 50.3333 41.3371 49.9688 40.5038 49.5625C39.6809 49.1458 39.0663 48.6406 38.66 48.0469C38.2642 47.4531 38.0663 46.7344 38.0663 45.8906C38.0663 44.5573 38.6236 43.4583 39.7382 42.5938C40.8527 41.7188 42.2798 41.2812 44.0194 41.2812C45.9048 41.2812 47.4152 41.75 48.5507 42.6875C49.6965 43.6146 50.2694 44.8281 50.2694 46.3281H48.3944C48.3944 45.3385 47.9777 44.5156 47.1444 43.8594C46.3215 43.2031 45.2798 42.875 44.0194 42.875C42.7902 42.875 41.8007 43.151 41.0507 43.7031C40.3111 44.2448 39.9413 44.9531 39.9413 45.8281C39.9413 46.6719 40.2486 47.3281 40.8632 47.7969C41.4882 48.2552 42.6184 48.6771 44.2538 49.0625C45.8996 49.4479 47.1288 49.8594 47.9413 50.2969C48.7642 50.7344 49.3736 51.2604 49.7694 51.875C50.1652 52.4896 50.3632 53.2344 50.3632 54.1094C50.3632 55.5365 49.785 56.6771 48.6288 57.5312C47.483 58.3854 45.983 58.8125 44.1288 58.8125C42.16 58.8125 40.5611 58.3385 39.3319 57.3906C38.1132 56.4323 37.5038 55.224 37.5038 53.7656H39.3788C39.4517 54.8594 39.91 55.7135 40.7538 56.3281C41.608 56.9323 42.733 57.2344 44.1288 57.2344C45.4309 57.2344 46.483 56.9479 47.285 56.375C48.0871 55.8021 48.4882 55.0781 48.4882 54.2031ZM56.6757 58.5H54.8007V41.5938H56.6757V58.5ZM54.4725 36.7031C54.4725 36.349 54.5871 36.0521 54.8163 35.8125C55.0455 35.5625 55.358 35.4375 55.7538 35.4375C56.1496 35.4375 56.4621 35.5625 56.6913 35.8125C56.9309 36.0521 57.0507 36.349 57.0507 36.7031C57.0507 37.0573 56.9309 37.3542 56.6913 37.5938C56.4621 37.8333 56.1496 37.9531 55.7538 37.9531C55.358 37.9531 55.0455 37.8333 54.8163 37.5938C54.5871 37.3542 54.4725 37.0573 54.4725 36.7031ZM61.0194 49.8906C61.0194 47.2448 61.6027 45.151 62.7694 43.6094C63.9465 42.0573 65.5402 41.2812 67.5507 41.2812C69.8527 41.2812 71.6027 42.1979 72.8007 44.0312L72.8944 41.5938H74.6444V58.1562C74.6444 60.3333 74.035 62.0573 72.8163 63.3281C71.5975 64.599 69.9465 65.2344 67.8632 65.2344C66.6861 65.2344 65.5611 64.9688 64.4882 64.4375C63.4257 63.9167 62.5871 63.2188 61.9725 62.3438L63.0194 61.2188C64.3423 62.8438 65.9152 63.6562 67.7382 63.6562C69.3007 63.6562 70.5194 63.1927 71.3944 62.2656C72.2694 61.349 72.7225 60.0729 72.7538 58.4375V56.3125C71.5559 57.9792 69.8111 58.8125 67.5194 58.8125C65.5611 58.8125 63.9882 58.0312 62.8007 56.4688C61.6132 54.9062 61.0194 52.7969 61.0194 50.1406V49.8906ZM62.91 50.2188C62.91 52.375 63.3423 54.0781 64.2069 55.3281C65.0715 56.5677 66.2902 57.1875 67.8632 57.1875C70.1652 57.1875 71.7955 56.1562 72.7538 54.0938V46.2344C72.3163 45.151 71.6861 44.3281 70.8632 43.7656C70.0402 43.1927 69.0507 42.9062 67.8944 42.9062C66.3215 42.9062 65.0975 43.526 64.2225 44.7656C63.3475 45.9948 62.91 47.8125 62.91 50.2188ZM81.3007 41.5938L81.3632 44.4844C81.9986 43.4427 82.7902 42.651 83.7382 42.1094C84.6861 41.5573 85.733 41.2812 86.8788 41.2812C88.6913 41.2812 90.0402 41.7917 90.9257 42.8125C91.8111 43.8333 92.259 45.3646 92.2694 47.4062V58.5H90.41V47.3906C90.3996 45.8802 90.0767 44.7552 89.4413 44.0156C88.8163 43.276 87.8111 42.9062 86.4257 42.9062C85.2694 42.9062 84.2434 43.2708 83.3475 44C82.4621 44.7188 81.8059 45.6927 81.3788 46.9219V58.5H79.5194V41.5938H81.3007ZM121.441 51.4062C121.181 53.8021 120.321 55.6354 118.863 56.9062C117.415 58.1771 115.483 58.8125 113.066 58.8125C111.379 58.8125 109.884 58.3906 108.582 57.5469C107.29 56.7031 106.29 55.5104 105.582 53.9688C104.874 52.4167 104.514 50.6458 104.504 48.6562V45.7031C104.504 43.6823 104.858 41.8906 105.566 40.3281C106.275 38.7656 107.29 37.5625 108.613 36.7188C109.946 35.8646 111.478 35.4375 113.207 35.4375C115.644 35.4375 117.566 36.099 118.973 37.4219C120.389 38.7344 121.212 40.5521 121.441 42.875H119.504C119.025 39.0104 116.926 37.0781 113.207 37.0781C111.144 37.0781 109.499 37.849 108.269 39.3906C107.051 40.9323 106.441 43.0625 106.441 45.7812V48.5625C106.441 51.1875 107.035 53.2812 108.223 54.8438C109.42 56.4062 111.035 57.1875 113.066 57.1875C115.077 57.1875 116.592 56.7083 117.613 55.75C118.634 54.7812 119.264 53.3333 119.504 51.4062H121.441ZM124.644 49.7969C124.644 48.1719 124.957 46.7083 125.582 45.4062C126.217 44.1042 127.108 43.0938 128.254 42.375C129.41 41.6458 130.717 41.2812 132.176 41.2812C134.426 41.2812 136.249 42.0729 137.644 43.6562C139.04 45.2292 139.738 47.3177 139.738 49.9219V50.3125C139.738 51.9479 139.42 53.4219 138.785 54.7344C138.16 56.0365 137.275 57.0417 136.129 57.75C134.983 58.4583 133.676 58.8125 132.207 58.8125C129.967 58.8125 128.144 58.026 126.738 56.4531C125.342 54.8698 124.644 52.776 124.644 50.1719V49.7969ZM126.519 50.3125C126.519 52.3333 127.04 53.9948 128.082 55.2969C129.134 56.5885 130.509 57.2344 132.207 57.2344C133.894 57.2344 135.259 56.5885 136.301 55.2969C137.353 53.9948 137.879 52.2812 137.879 50.1562V49.7969C137.879 48.5052 137.639 47.3229 137.16 46.25C136.681 45.1771 136.009 44.349 135.144 43.7656C134.28 43.1719 133.29 42.875 132.176 42.875C130.509 42.875 129.15 43.5312 128.098 44.8438C127.045 46.1458 126.519 47.8542 126.519 49.9688V50.3125ZM145.316 41.5938L145.379 44.3438C146.004 43.3229 146.785 42.5573 147.723 42.0469C148.66 41.5365 149.702 41.2812 150.848 41.2812C153.514 41.2812 155.207 42.375 155.926 44.5625C156.53 43.5104 157.337 42.7031 158.348 42.1406C159.358 41.5677 160.473 41.2812 161.691 41.2812C165.316 41.2812 167.165 43.2604 167.238 47.2188V58.5H165.363V47.3594C165.353 45.849 165.025 44.7292 164.379 44C163.743 43.2708 162.702 42.9062 161.254 42.9062C159.91 42.9271 158.775 43.3646 157.848 44.2188C156.92 45.0625 156.405 46.0938 156.301 47.3125V58.5H154.426V47.2188C154.415 45.7708 154.071 44.6927 153.394 43.9844C152.728 43.2656 151.696 42.9062 150.301 42.9062C149.124 42.9062 148.113 43.2448 147.269 43.9219C146.426 44.5885 145.801 45.5833 145.394 46.9062V58.5H143.519V41.5938H145.316ZM185.582 50.2188C185.582 52.8542 184.999 54.9479 183.832 56.5C182.665 58.0417 181.103 58.8125 179.144 58.8125C176.832 58.8125 175.061 58 173.832 56.375V65H171.973V41.5938H173.707L173.801 43.9844C175.019 42.1823 176.785 41.2812 179.098 41.2812C181.118 41.2812 182.702 42.0469 183.848 43.5781C185.004 45.1094 185.582 47.2344 185.582 49.9531V50.2188ZM183.707 49.8906C183.707 47.7344 183.264 46.0312 182.379 44.7812C181.493 43.5312 180.259 42.9062 178.676 42.9062C177.53 42.9062 176.545 43.1823 175.723 43.7344C174.9 44.2865 174.269 45.0885 173.832 46.1406V54.25C174.28 55.2188 174.92 55.9583 175.754 56.4688C176.587 56.9792 177.571 57.2344 178.707 57.2344C180.28 57.2344 181.504 56.6094 182.379 55.3594C183.264 54.099 183.707 52.276 183.707 49.8906ZM196.285 58.8125C194.848 58.8125 193.545 58.4583 192.379 57.75C191.223 57.0417 190.321 56.0573 189.676 54.7969C189.03 53.526 188.707 52.1042 188.707 50.5312V49.8594C188.707 48.2344 189.019 46.7708 189.644 45.4688C190.28 44.1667 191.16 43.1458 192.285 42.4062C193.41 41.6562 194.629 41.2812 195.941 41.2812C197.993 41.2812 199.618 41.9844 200.816 43.3906C202.025 44.7865 202.629 46.6979 202.629 49.125V50.1719H190.566V50.5312C190.566 52.4479 191.113 54.0469 192.207 55.3281C193.311 56.599 194.696 57.2344 196.363 57.2344C197.363 57.2344 198.243 57.0521 199.004 56.6875C199.775 56.3229 200.473 55.7396 201.098 54.9375L202.269 55.8281C200.894 57.8177 198.9 58.8125 196.285 58.8125ZM195.941 42.875C194.535 42.875 193.348 43.3906 192.379 44.4219C191.42 45.4531 190.837 46.8385 190.629 48.5781H200.769V48.375C200.717 46.75 200.254 45.4271 199.379 44.4062C198.504 43.3854 197.358 42.875 195.941 42.875ZM209.176 37.2656V41.5938H212.676V43.125H209.176V54.3906C209.176 55.3281 209.342 56.026 209.676 56.4844C210.019 56.9427 210.587 57.1719 211.379 57.1719C211.691 57.1719 212.196 57.1198 212.894 57.0156L212.973 58.5469C212.483 58.724 211.816 58.8125 210.973 58.8125C209.691 58.8125 208.759 58.4427 208.176 57.7031C207.592 56.9531 207.301 55.8542 207.301 54.4062V43.125H204.191V41.5938H207.301V37.2656H209.176ZM218.644 58.5H216.769V41.5938H218.644V58.5ZM216.441 36.7031C216.441 36.349 216.556 36.0521 216.785 35.8125C217.014 35.5625 217.327 35.4375 217.723 35.4375C218.118 35.4375 218.431 35.5625 218.66 35.8125C218.9 36.0521 219.019 36.349 219.019 36.7031C219.019 37.0573 218.9 37.3542 218.66 37.5938C218.431 37.8333 218.118 37.9531 217.723 37.9531C217.327 37.9531 217.014 37.8333 216.785 37.5938C216.556 37.3542 216.441 37.0573 216.441 36.7031ZM226.644 37.2656V41.5938H230.144V43.125H226.644V54.3906C226.644 55.3281 226.811 56.026 227.144 56.4844C227.488 56.9427 228.056 57.1719 228.848 57.1719C229.16 57.1719 229.665 57.1198 230.363 57.0156L230.441 58.5469C229.952 58.724 229.285 58.8125 228.441 58.8125C227.16 58.8125 226.228 58.4427 225.644 57.7031C225.061 56.9531 224.769 55.8542 224.769 54.4062V43.125H221.66V41.5938H224.769V37.2656H226.644ZM236.113 58.5H234.238V41.5938H236.113V58.5ZM233.91 36.7031C233.91 36.349 234.025 36.0521 234.254 35.8125C234.483 35.5625 234.795 35.4375 235.191 35.4375C235.587 35.4375 235.9 35.5625 236.129 35.8125C236.368 36.0521 236.488 36.349 236.488 36.7031C236.488 37.0573 236.368 37.3542 236.129 37.5938C235.9 37.8333 235.587 37.9531 235.191 37.9531C234.795 37.9531 234.483 37.8333 234.254 37.5938C234.025 37.3542 233.91 37.0573 233.91 36.7031ZM240.176 49.7969C240.176 48.1719 240.488 46.7083 241.113 45.4062C241.749 44.1042 242.639 43.0938 243.785 42.375C244.941 41.6458 246.249 41.2812 247.707 41.2812C249.957 41.2812 251.78 42.0729 253.176 43.6562C254.571 45.2292 255.269 47.3177 255.269 49.9219V50.3125C255.269 51.9479 254.952 53.4219 254.316 54.7344C253.691 56.0365 252.806 57.0417 251.66 57.75C250.514 58.4583 249.207 58.8125 247.738 58.8125C245.499 58.8125 243.676 58.026 242.269 56.4531C240.874 54.8698 240.176 52.776 240.176 50.1719V49.7969ZM242.051 50.3125C242.051 52.3333 242.571 53.9948 243.613 55.2969C244.665 56.5885 246.04 57.2344 247.738 57.2344C249.426 57.2344 250.79 56.5885 251.832 55.2969C252.884 53.9948 253.41 52.2812 253.41 50.1562V49.7969C253.41 48.5052 253.17 47.3229 252.691 46.25C252.212 45.1771 251.54 44.349 250.676 43.7656C249.811 43.1719 248.821 42.875 247.707 42.875C246.04 42.875 244.681 43.5312 243.629 44.8438C242.577 46.1458 242.051 47.8542 242.051 49.9688V50.3125ZM260.926 41.5938L260.988 44.4844C261.624 43.4427 262.415 42.651 263.363 42.1094C264.311 41.5573 265.358 41.2812 266.504 41.2812C268.316 41.2812 269.665 41.7917 270.551 42.8125C271.436 43.8333 271.884 45.3646 271.894 47.4062V58.5H270.035V47.3906C270.025 45.8802 269.702 44.7552 269.066 44.0156C268.441 43.276 267.436 42.9062 266.051 42.9062C264.894 42.9062 263.868 43.2708 262.973 44C262.087 44.7188 261.431 45.6927 261.004 46.9219V58.5H259.144V41.5938H260.926ZM14.8163 92.5H0.566284V91.0625L8.36316 82.2188C9.65483 80.7292 10.5507 79.5 11.0507 78.5312C11.5507 77.5625 11.8007 76.6198 11.8007 75.7031C11.8007 74.2656 11.3788 73.1302 10.535 72.2969C9.69128 71.4531 8.52983 71.0312 7.05066 71.0312C5.51941 71.0312 4.27983 71.5208 3.33191 72.5C2.39441 73.4792 1.92566 74.75 1.92566 76.3125H0.0662842C0.0662842 75.0312 0.352743 73.8646 0.925659 72.8125C1.50899 71.7604 2.33191 70.9375 3.39441 70.3438C4.46733 69.7396 5.68608 69.4375 7.05066 69.4375C9.13399 69.4375 10.759 69.9844 11.9257 71.0781C13.1027 72.1719 13.6913 73.6615 13.6913 75.5469C13.6913 76.6094 13.358 77.7708 12.6913 79.0312C12.035 80.2917 10.8736 81.8646 9.20691 83.75L2.86316 90.9219H14.8163V92.5ZM32.035 83.0156C32.035 86.224 31.4465 88.6615 30.2694 90.3281C29.0923 91.9844 27.358 92.8125 25.0663 92.8125C22.8163 92.8125 21.0923 92 19.8944 90.375C18.6965 88.7396 18.0819 86.3646 18.0507 83.25V79.1719C18.0507 75.974 18.6444 73.5521 19.8319 71.9062C21.0194 70.2604 22.7538 69.4375 25.035 69.4375C27.285 69.4375 29.0038 70.2344 30.1913 71.8281C31.3788 73.4115 31.9934 75.75 32.035 78.8438V83.0156ZM30.16 78.9375C30.16 76.3333 29.733 74.3646 28.8788 73.0312C28.035 71.6979 26.7538 71.0312 25.035 71.0312C23.3475 71.0312 22.0767 71.6823 21.2225 72.9844C20.3684 74.2865 19.9309 76.2083 19.91 78.75V83.2188C19.91 85.8125 20.3475 87.7969 21.2225 89.1719C22.108 90.5469 23.3892 91.2344 25.0663 91.2344C26.733 91.2344 27.9934 90.5625 28.8475 89.2188C29.7121 87.875 30.1496 85.9062 30.16 83.3125V78.9375ZM44.7694 92.5H42.8944V72L36.7069 74.2969V72.5469L44.4569 69.6719H44.7694V92.5ZM55.0819 80.8438L56.1913 69.75H67.5663V71.4844H57.8007L57.0038 79.1719C58.2225 78.3385 59.6496 77.9219 61.285 77.9219C63.3371 77.9219 64.9725 78.5885 66.1913 79.9219C67.41 81.2552 68.0194 83.0312 68.0194 85.25C68.0194 87.6458 67.4257 89.5052 66.2382 90.8281C65.0507 92.151 63.3788 92.8125 61.2225 92.8125C59.2434 92.8125 57.6392 92.2604 56.41 91.1562C55.1809 90.0521 54.4777 88.5052 54.3007 86.5156H56.0975C56.2746 88.0677 56.8007 89.2448 57.6757 90.0469C58.5507 90.8385 59.733 91.2344 61.2225 91.2344C62.8475 91.2344 64.0715 90.7188 64.8944 89.6875C65.7277 88.6562 66.1444 87.1875 66.1444 85.2812C66.1444 83.6146 65.6809 82.2552 64.7538 81.2031C63.8267 80.151 62.5611 79.625 60.9569 79.625C60.0715 79.625 59.3007 79.7396 58.6444 79.9688C57.9882 80.1875 57.2955 80.6198 56.5663 81.2656L55.0819 80.8438Z" fill="white"/>
</svg>
