<svg xmlns="http://www.w3.org/2000/svg" viewBox="0 0 56 121.375" x="0px" y="0px"><defs><style>.cls-1{fill:none;stroke:#000;stroke-miterlimit:10;}</style></defs><title>Asset 39</title><g data-name="Layer 2"><g data-name="Layer 2"><path class="cls-1" d="M37.77,52.58a1,1,0,0,1-1,1H34.68l.93,1.6a1,1,0,0,1-.37,1.39,1,1,0,0,1-1.39-.37L32.34,53.6l-.46-.8-.71-1.24-2.11-3.64a3.65,3.65,0,0,1,0-3.67L28,46.08l-3.17,5.48h4.91a2.49,2.49,0,0,1,2.14,1.24.54.54,0,0,1,.07.27.53.53,0,0,1-.53.53H22.36A.75.75,0,0,1,23,54.72l-.86,1.5a1,1,0,0,1-1.39.37,1,1,0,0,1-.51-.88,1.06,1.06,0,0,1,.14-.51l.93-1.6H19.24a1,1,0,0,1,0-2h3.25L26.83,44,25.1,41A1,1,0,0,1,26,39.52a1,1,0,0,1,.88.51L28,42l1.15-2a1,1,0,1,1,1.75,1l-1.73,3,4.34,7.51h3.25A1,1,0,0,1,37.77,52.58Z"/><path class="cls-1" d="M50.45.5H5.55a5,5,0,0,0-5,5v86a5,5,0,0,0,5,5.05h44.9a5,5,0,0,0,5-5.05v-86A5,5,0,0,0,50.45.5ZM28,65.07A16.52,16.52,0,1,1,44.52,48.55,16.54,16.54,0,0,1,28,65.07Z"/><line class="cls-1" x1="44.47" y1="0.5" x2="11.53" y2="0.5"/><path d="M37.77,52.58a1,1,0,0,1-1,1H34.68l.93,1.6a1,1,0,0,1-.37,1.39,1,1,0,0,1-1.39-.37L32.34,53.6l-.46-.8-.71-1.24-2.11-3.64a3.65,3.65,0,0,1,0-3.67L28,46.08l-3.17,5.48h4.91a2.49,2.49,0,0,1,2.14,1.24.54.54,0,0,1,.07.27.53.53,0,0,1-.53.53H22.36A.75.75,0,0,1,23,54.72l-.86,1.5a1,1,0,0,1-1.39.37,1,1,0,0,1-.51-.88,1.06,1.06,0,0,1,.14-.51l.93-1.6H19.24a1,1,0,0,1,0-2h3.25L26.83,44,25.1,41A1,1,0,0,1,26,39.52a1,1,0,0,1,.88.51L28,42l1.15-2a1,1,0,1,1,1.75,1l-1.73,3,4.34,7.51h3.25A1,1,0,0,1,37.77,52.58Z"/><path d="M48.94,3.1H44.41a1.31,1.31,0,0,0-1.22.85l-.81,2.23A1.31,1.31,0,0,1,41.16,7H14.84a1.3,1.3,0,0,1-1.22-.85L12.8,3.95a1.29,1.29,0,0,0-1.22-.85H7a4,4,0,0,0-4,4V90a4,4,0,0,0,4,4H48.94a4,4,0,0,0,4-4v-83A4,4,0,0,0,48.94,3.1ZM28,65.07A16.52,16.52,0,1,1,44.52,48.55,16.54,16.54,0,0,1,28,65.07Z"/><path d="M32,53.07a.53.53,0,0,1-.53.53H19.24a1,1,0,0,1,0-2h10.5a2.49,2.49,0,0,1,2.14,1.24A.54.54,0,0,1,32,53.07Z"/><path d="M37.77,52.58a1,1,0,0,1-1,1H34.68l-1.17-2h3.25A1,1,0,0,1,37.77,52.58Z"/><path d="M28,42l-1.17,2L25.1,41A1,1,0,0,1,26,39.52a1,1,0,0,1,.88.51Z"/><path d="M35.24,56.59a1,1,0,0,1-1.39-.37L32.34,53.6l-.46-.8-.71-1.24-2.11-3.64a3.65,3.65,0,0,1,0-3.67l.11-.2,4.34,7.51,1.17,2,.93,1.6A1,1,0,0,1,35.24,56.59Z"/><path d="M23,54.72l-.86,1.5a1,1,0,0,1-1.39.37,1,1,0,0,1-.51-.88,1.06,1.06,0,0,1,.14-.51l.93-1.6h1A.75.75,0,0,1,23,54.72Z"/><path d="M30.9,41l-1.73,3-.11.2L28,46.08l-3.17,5.48H22.49L26.83,44,28,42l1.15-2a1,1,0,1,1,1.75,1Z"/><path d="M37.77,52.58a1,1,0,0,1-1,1H34.68l.93,1.6a1,1,0,0,1-.37,1.39,1,1,0,0,1-1.39-.37L32.34,53.6l-.46-.8-.71-1.24-2.11-3.64a3.65,3.65,0,0,1,0-3.67L28,46.08l-3.17,5.48h4.91a2.49,2.49,0,0,1,2.14,1.24.54.54,0,0,1,.07.27.53.53,0,0,1-.53.53H22.36A.75.75,0,0,1,23,54.72l-.86,1.5a1,1,0,0,1-1.39.37,1,1,0,0,1-.51-.88,1.06,1.06,0,0,1,.14-.51l.93-1.6H19.24a1,1,0,0,1,0-2h3.25L26.83,44,25.1,41A1,1,0,0,1,26,39.52a1,1,0,0,1,.88.51L28,42l1.15-2a1,1,0,1,1,1.75,1l-1.73,3,4.34,7.51h3.25A1,1,0,0,1,37.77,52.58Z"/></g></g><text x="0" y="112.1" fill="#000000" font-size="5px" font-weight="bold" font-family="'Helvetica Neue', Helvetica, Arial-Unicode, Arial, Sans-serif">Created by DAVIVONGSA PATHRPOL</text><text x="0" y="117.1" fill="#000000" font-size="5px" font-weight="bold" font-family="'Helvetica Neue', Helvetica, Arial-Unicode, Arial, Sans-serif">from the Noun Project</text></svg>