<svg width="72" height="72" viewBox="0 0 72 72" fill="none" xmlns="http://www.w3.org/2000/svg">
<path d="M36 72C26.384 72 17.3437 68.2554 10.5442 61.4558C3.74464 54.6563 0 45.6158 0 36C0 26.384 3.74464 17.3436 10.5442 10.5442C17.3437 3.74464 26.384 0 36 0C45.616 0 54.6563 3.74464 61.456 10.5442C68.2554 17.3436 72 26.384 72 36C72 45.6158 68.2554 54.6563 61.456 61.4558C54.6563 68.2554 45.616 72 36 72ZM36 1.9115C17.2035 1.9115 1.9115 17.2035 1.9115 36C1.9115 54.7965 17.2035 70.0885 36 70.0885C54.7965 70.0885 70.0885 54.7965 70.0885 36C70.0885 17.2035 54.7965 1.9115 36 1.9115Z" fill="#539CFF"/>
<path d="M27.7552 44.7383C27.6617 44.7384 27.5691 44.72 27.4827 44.6843C27.3964 44.6485 27.3179 44.5961 27.2517 44.53C27.1856 44.4638 27.1332 44.3853 27.0974 44.299C27.0617 44.2126 27.0433 44.12 27.0434 44.0265V31.6401C27.0434 31.4513 27.1184 31.2702 27.2519 31.1367C27.3854 31.0032 27.5664 30.9282 27.7552 30.9282C27.944 30.9282 28.1251 31.0032 28.2586 31.1367C28.3921 31.2702 28.4671 31.4513 28.4671 31.6401V33.6805H31.1721V28.2232H20.2089V33.0166C20.2089 33.2054 20.1339 33.3865 20.0004 33.52C19.8668 33.6535 19.6858 33.7285 19.497 33.7285C19.3082 33.7285 19.1271 33.6535 18.9936 33.52C18.8601 33.3865 18.7851 33.2054 18.7851 33.0166V19.2531C18.785 19.1596 18.8034 19.067 18.8392 18.9806C18.8749 18.8942 18.9274 18.8157 18.9935 18.7496C19.0596 18.6835 19.1381 18.631 19.2245 18.5953C19.3109 18.5595 19.4035 18.5411 19.497 18.5412H21.5381V15.8362H16.0801V40.5623H18.7851V37.1454C18.7851 36.9566 18.8601 36.7755 18.9936 36.642C19.1271 36.5085 19.3082 36.4335 19.497 36.4335C19.6858 36.4335 19.8668 36.5085 20.0004 36.642C20.1339 36.7755 20.2089 36.9566 20.2089 37.1454V52.2847C20.2089 52.4735 20.1339 52.6546 20.0004 52.7881C19.8668 52.9216 19.6858 52.9966 19.497 52.9966C19.3082 52.9966 19.1271 52.9216 18.9936 52.7881C18.8601 52.6546 18.7851 52.4735 18.7851 52.2847V41.9861H16.0801V55.7016H22.9139V49.5317C22.9139 49.3429 22.9889 49.1619 23.1224 49.0284C23.2559 48.8948 23.437 48.8198 23.6258 48.8198C23.8146 48.8198 23.9956 48.8948 24.1291 49.0284C24.2626 49.1619 24.3376 49.3429 24.3376 49.5317V51.5728H29.131C29.3198 51.5728 29.5009 51.6478 29.6344 51.7813C29.7679 51.9148 29.8429 52.0959 29.8429 52.2847C29.8429 52.4735 29.7679 52.6546 29.6344 52.7881C29.5009 52.9216 29.3198 52.9966 29.131 52.9966H24.3376V55.7016H32.5486V48.8678H27.7552C27.5664 48.8678 27.3854 48.7928 27.2519 48.6593C27.1184 48.5258 27.0434 48.3447 27.0434 48.1559C27.0434 47.9671 27.1184 47.7861 27.2519 47.6526C27.3854 47.5191 27.5664 47.4441 27.7552 47.4441H32.5486V44.7383H27.7552ZM24.3376 45.403C24.3376 45.5918 24.2626 45.7728 24.1291 45.9063C23.9956 46.0398 23.8146 46.1148 23.6258 46.1148C23.437 46.1148 23.2559 46.0398 23.1224 45.9063C22.9889 45.7728 22.9139 45.5918 22.9139 45.403V31.6401C22.9139 31.4513 22.9889 31.2702 23.1224 31.1367C23.2559 31.0032 23.437 30.9282 23.6258 30.9282C23.8146 30.9282 23.9956 31.0032 24.1291 31.1367C24.2626 31.2702 24.3376 31.4513 24.3376 31.6401V45.403Z" fill="#539CFF"/>
<path d="M39.481 19.9165H45.6509C45.7444 19.9164 45.837 19.9348 45.9234 19.9705C46.0098 20.0063 46.0883 20.0587 46.1544 20.1249C46.2205 20.191 46.2729 20.2695 46.3087 20.3559C46.3444 20.4423 46.3628 20.5349 46.3628 20.6284V22.0048C46.3628 22.1937 46.2878 22.3747 46.1543 22.5082C46.0208 22.6417 45.8397 22.7167 45.6509 22.7167C45.4621 22.7167 45.281 22.6417 45.1475 22.5082C45.014 22.3747 44.939 22.1937 44.939 22.0048V21.3402H38.7691C38.6756 21.3403 38.583 21.3219 38.4966 21.2862C38.4102 21.2504 38.3317 21.198 38.2656 21.1318C38.1995 21.0657 38.1471 20.9872 38.1113 20.9008C38.0756 20.8144 38.0572 20.7219 38.0572 20.6284V15.835H35.3522V19.2519C35.3522 19.4407 35.2772 19.6217 35.1437 19.7552C35.0102 19.8887 34.8291 19.9637 34.6403 19.9637C34.4515 19.9637 34.2705 19.8887 34.137 19.7552C34.0035 19.6217 33.9285 19.4407 33.9285 19.2519V15.835H22.9659V18.54H25.0063C25.1951 18.54 25.3762 18.615 25.5097 18.7485C25.6432 18.882 25.7182 19.0631 25.7182 19.2519C25.7182 19.4407 25.6432 19.6217 25.5097 19.7552C25.3762 19.8887 25.1951 19.9637 25.0063 19.9637H20.2129V26.7982H27.0474V24.0925H23.6298C23.441 24.0925 23.2599 24.0175 23.1264 23.884C22.9929 23.7505 22.9179 23.5694 22.9179 23.3806C22.9179 23.1918 22.9929 23.0108 23.1264 22.8773C23.2599 22.7438 23.441 22.6688 23.6298 22.6688H29.7997V19.2519C29.7997 19.0631 29.8747 18.882 30.0082 18.7485C30.1417 18.615 30.3228 18.54 30.5116 18.54C30.7004 18.54 30.8814 18.615 31.0149 18.7485C31.1484 18.882 31.2234 19.0631 31.2234 19.2519V22.6688H36.0168C36.1103 22.6687 36.2029 22.6871 36.2893 22.7228C36.3757 22.7586 36.4542 22.811 36.5203 22.8771C36.5864 22.9433 36.6389 23.0218 36.6746 23.1082C36.7104 23.1945 36.7288 23.2871 36.7287 23.3806V33.6793H44.2744C44.4632 33.6793 44.6443 33.7543 44.7778 33.8878C44.9113 34.0213 44.9863 34.2024 44.9863 34.3912C44.9863 34.58 44.9113 34.7611 44.7778 34.8946C44.6443 35.0281 44.4632 35.1031 44.2744 35.1031H36.0168C35.9233 35.1031 35.8307 35.0848 35.7443 35.049C35.6579 35.0132 35.5795 34.9608 35.5133 34.8947C35.4472 34.8286 35.3948 34.7501 35.359 34.6637C35.3233 34.5773 35.3049 34.4847 35.3049 34.3912V24.0925H28.4712V26.7982H31.8881C31.9816 26.7982 32.0741 26.8166 32.1605 26.8523C32.2469 26.8881 32.3254 26.9405 32.3915 27.0066C32.4577 27.0727 32.5101 27.1512 32.5459 27.2376C32.5816 27.324 32.6 27.4166 32.5999 27.5101V37.8081H38.7691C38.9579 37.8081 39.139 37.8831 39.2725 38.0166C39.406 38.1501 39.481 38.3312 39.481 38.52C39.481 38.7088 39.406 38.8898 39.2725 39.0233C39.139 39.1569 38.9579 39.2319 38.7691 39.2319H32.5999V39.8965C32.5999 40.0853 32.5249 40.2663 32.3914 40.3998C32.2579 40.5333 32.0769 40.6083 31.8881 40.6083C31.6992 40.6083 31.5182 40.5333 31.3847 40.3998C31.2512 40.2663 31.1762 40.0853 31.1762 39.8965V35.1031H28.4712V43.3134H33.2645C33.358 43.3133 33.4506 43.3317 33.537 43.3674C33.6234 43.4032 33.7019 43.4556 33.768 43.5218C33.8342 43.5879 33.8866 43.6664 33.9223 43.7528C33.9581 43.8392 33.9765 43.9317 33.9764 44.0252V47.4428H40.1456C40.2391 47.4428 40.3317 47.4612 40.4181 47.4969C40.5045 47.5327 40.583 47.5851 40.6491 47.6512C40.7152 47.7173 40.7676 47.7958 40.8034 47.8822C40.8392 47.9686 40.8575 48.0612 40.8575 48.1547V52.2835C40.8575 52.4723 40.7825 52.6534 40.649 52.7869C40.5155 52.9204 40.3344 52.9954 40.1456 52.9954C39.9568 52.9954 39.7757 52.9204 39.6422 52.7869C39.5087 52.6534 39.4337 52.4723 39.4337 52.2835V48.8666H33.9764V56.4123H36.6814V52.2835C36.6814 52.0947 36.7564 51.9136 36.8899 51.7801C37.0234 51.6466 37.2045 51.5716 37.3933 51.5716C37.5821 51.5716 37.7632 51.6466 37.8967 51.7801C38.0302 51.9136 38.1052 52.0947 38.1052 52.2835V55.7004H42.1867V52.2835C42.1867 52.0947 42.2617 51.9136 42.3952 51.7801C42.5287 51.6466 42.7098 51.5716 42.8986 51.5716C43.0874 51.5716 43.2685 51.6466 43.402 51.7801C43.5355 51.9136 43.6105 52.0947 43.6105 52.2835V55.7004H46.3155V43.3613H43.6105V49.5305C43.6105 49.7193 43.5355 49.9004 43.402 50.0339C43.2685 50.1674 43.0874 50.2424 42.8986 50.2424C42.7098 50.2424 42.5287 50.1674 42.3952 50.0339C42.2617 49.9004 42.1867 49.7193 42.1867 49.5305V43.3613H36.0168C35.828 43.3613 35.647 43.2863 35.5135 43.1528C35.3799 43.0193 35.3049 42.8383 35.3049 42.6495C35.3049 42.4607 35.3799 42.2796 35.5135 42.1461C35.647 42.0126 35.828 41.9376 36.0168 41.9376H44.939V39.2319H41.5221C41.3333 39.2319 41.1522 39.1569 41.0187 39.0233C40.8852 38.8898 40.8102 38.7088 40.8102 38.52C40.8102 38.3312 40.8852 38.1501 41.0187 38.0166C41.1522 37.8831 41.3333 37.8081 41.5221 37.8081H47.692V30.9743H41.5221C41.3333 30.9743 41.1522 30.8993 41.0187 30.7658C40.8852 30.6323 40.8102 30.4512 40.8102 30.2624C40.8102 30.0736 40.8852 29.8925 41.0187 29.759C41.1522 29.6255 41.3333 29.5505 41.5221 29.5505H48.4039C48.4974 29.5505 48.59 29.5688 48.6764 29.6046C48.7628 29.6404 48.8413 29.6928 48.9074 29.7589C48.9735 29.825 49.0259 29.9035 49.0617 29.9899C49.0974 30.0763 49.1158 30.1689 49.1158 30.2624V38.52C49.1158 38.6135 49.0974 38.7061 49.0617 38.7925C49.0259 38.8789 48.9735 38.9574 48.9074 39.0235C48.8413 39.0896 48.7628 39.142 48.6764 39.1778C48.59 39.2135 48.4974 39.2319 48.4039 39.2319H46.3628V41.9376H51.8208V35.7677C51.8208 35.5789 51.8958 35.3978 52.0293 35.2643C52.1628 35.1308 52.3438 35.0558 52.5327 35.0558C52.7215 35.0558 52.9025 35.1308 53.036 35.2643C53.1695 35.3978 53.2445 35.5789 53.2445 35.7677V42.6495C53.2446 42.743 53.2262 42.8355 53.1905 42.9219C53.1547 43.0083 53.1023 43.0868 53.0362 43.153C52.97 43.2191 52.8915 43.2715 52.8051 43.3073C52.7187 43.343 52.6262 43.3614 52.5327 43.3613H47.7393V46.0663H52.5327C52.7215 46.0663 52.9025 46.1414 53.036 46.2749C53.1695 46.4084 53.2445 46.5894 53.2445 46.7782C53.2445 46.967 53.1695 47.1481 53.036 47.2816C52.9025 47.4151 52.7215 47.4901 52.5327 47.4901H47.7393V55.7004H50.4443V53.66C50.4443 53.4712 50.5193 53.2901 50.6528 53.1566C50.7863 53.0231 50.9674 52.9481 51.1562 52.9481C51.345 52.9481 51.526 53.0231 51.6595 53.1566C51.793 53.2901 51.868 53.4712 51.868 53.66V55.7004H55.9495V51.6189H51.1562C50.9674 51.6189 50.7863 51.5439 50.6528 51.4104C50.5193 51.2769 50.4443 51.0958 50.4443 50.907C50.4443 50.7182 50.5193 50.5371 50.6528 50.4036C50.7863 50.2701 50.9674 50.1951 51.1562 50.1951H55.9495V32.3508H52.5327C52.4392 32.3508 52.3466 32.3325 52.2602 32.2967C52.1738 32.261 52.0953 32.2085 52.0292 32.1424C51.963 32.0763 51.9106 31.9978 51.8748 31.9114C51.8391 31.825 51.8207 31.7324 51.8208 31.6389V26.8455H40.1456C39.9568 26.8455 39.7757 26.7705 39.6422 26.637C39.5087 26.5035 39.4337 26.3224 39.4337 26.1336C39.4337 25.9448 39.5087 25.7638 39.6422 25.6303C39.7757 25.4967 39.9568 25.4217 40.1456 25.4217H40.8102V23.3806C40.8102 23.1918 40.8852 23.0108 41.0187 22.8773C41.1522 22.7438 41.3333 22.6688 41.5221 22.6688C41.7109 22.6688 41.892 22.7438 42.0255 22.8773C42.159 23.0108 42.234 23.1918 42.234 23.3806V25.4217H52.5327C52.6262 25.4217 52.7187 25.4401 52.8051 25.4758C52.8915 25.5116 52.97 25.564 53.0362 25.6301C53.1023 25.6962 53.1547 25.7747 53.1905 25.8611C53.2262 25.9475 53.2446 26.0401 53.2445 26.1336V30.927H55.9495V19.9637H53.2445V23.3806C53.2445 23.5694 53.1695 23.7505 53.036 23.884C52.9025 24.0175 52.7215 24.0925 52.5327 24.0925C52.3438 24.0925 52.1628 24.0175 52.0293 23.884C51.8958 23.7505 51.8208 23.5694 51.8208 23.3806V19.9637H49.7797C49.5909 19.9637 49.4098 19.8887 49.2763 19.7552C49.1428 19.6217 49.0678 19.4407 49.0678 19.2519C49.0678 19.0631 49.1428 18.882 49.2763 18.7485C49.4098 18.615 49.5909 18.54 49.7797 18.54H55.9495V15.835H39.481V19.9165Z" fill="#539CFF"/>
</svg>
