<svg width="50" height="64" viewBox="0 0 50 64" fill="none" xmlns="http://www.w3.org/2000/svg">
<path d="M32.1 24.4224H18C16.4 24.4224 14.5 23.808 13.2 23.1936C14.3 22.3232 15.85 21.1968 17.4 20.1728C16.1 18.4832 15.3 16.3328 15.3 13.9776C15.15 14.0288 15.05 14.1312 14.9 14.1824C5.75 19.968 5.75 22.1184 5.75 23.3984C5.75 27.6992 12.65 30.464 17.05 30.7712L16.5 47.9232C16.45 48.9984 17.3 49.8688 18.35 49.8688H31.65C32.7 49.8688 33.55 48.9984 33.5 47.9232L33.35 43.776C33.9 44.2368 34.6 44.4928 35.3 44.4928C35.95 44.4928 36.6 44.288 37.15 43.8784C40.4 41.5232 44.25 37.9904 44.2 34.6112C44.2 29.8496 34.5 24.4224 32.1 24.4224ZM33.5 38.656C33.4 38.7072 33.35 38.8096 33.25 38.912L33 31.4368C34.55 32.3072 36.65 33.792 37.65 34.816C36.9 35.84 35.2 37.4272 33.5 38.656Z" fill="#539CFF"/>
<path d="M25.05 22.3232C29.5787 22.3232 33.25 18.5638 33.25 13.9264C33.25 9.28898 29.5787 5.5296 25.05 5.5296C20.5212 5.5296 16.85 9.28898 16.85 13.9264C16.85 18.5638 20.5212 22.3232 25.05 22.3232Z" fill="#539CFF"/>
<path d="M40.1 8.75521C38.65 8.14081 36.3 8.70401 34.65 9.77921C34.3 9.98401 34.5 10.5472 34.9 10.496C35.95 10.3936 37.05 10.496 38.2 11.776C39.15 12.8512 40.45 13.824 41.45 12.544C42.45 11.3152 41.8 9.52321 40.1 8.75521Z" fill="#539CFF"/>
<path d="M34.3 8.24321C35.1 7.11681 36.05 6.14401 38.15 6.04161C39.9 5.99041 41.9 5.47841 41.55 3.48161C41.2 1.48481 39 0.665608 36.9 1.74081C35.15 2.66241 33.75 5.42721 33.45 7.88481C33.35 8.39681 34 8.65281 34.3 8.24321Z" fill="#539CFF"/>
</svg>
