<svg width="73" height="73" viewBox="0 0 73 73" fill="none" xmlns="http://www.w3.org/2000/svg">
<path d="M20.8571 33.8928C22.297 33.8928 23.4643 32.7255 23.4643 31.2856C23.4643 29.8457 22.297 28.6785 20.8571 28.6785C19.4173 28.6785 18.25 29.8457 18.25 31.2856C18.25 32.7255 19.4173 33.8928 20.8571 33.8928Z" fill="#539CFF"/>
<path d="M49.5357 28.6786C49.0201 28.6786 48.516 28.8315 48.0873 29.1179C47.6585 29.4044 47.3244 29.8116 47.127 30.288C46.9297 30.7644 46.8781 31.2886 46.9787 31.7943C47.0793 32.3001 47.3276 32.7646 47.6922 33.1292C48.0568 33.4938 48.5214 33.7422 49.0271 33.8428C49.5328 33.9434 50.057 33.8917 50.5334 33.6944C51.0098 33.4971 51.417 33.1629 51.7035 32.7342C51.99 32.3054 52.1429 31.8014 52.1429 31.2857C52.1429 30.5942 51.8682 29.9311 51.3792 29.4422C50.8903 28.9532 50.2272 28.6786 49.5357 28.6786ZM49.5357 28.6786C49.0201 28.6786 48.516 28.8315 48.0873 29.1179C47.6585 29.4044 47.3244 29.8116 47.127 30.288C46.9297 30.7644 46.8781 31.2886 46.9787 31.7943C47.0793 32.3001 47.3276 32.7646 47.6922 33.1292C48.0568 33.4938 48.5214 33.7422 49.0271 33.8428C49.5328 33.9434 50.057 33.8917 50.5334 33.6944C51.0098 33.4971 51.417 33.1629 51.7035 32.7342C51.99 32.3054 52.1429 31.8014 52.1429 31.2857C52.1429 30.5942 51.8682 29.9311 51.3792 29.4422C50.8903 28.9532 50.2272 28.6786 49.5357 28.6786ZM49.5357 28.6786C49.0201 28.6786 48.516 28.8315 48.0873 29.1179C47.6585 29.4044 47.3244 29.8116 47.127 30.288C46.9297 30.7644 46.8781 31.2886 46.9787 31.7943C47.0793 32.3001 47.3276 32.7646 47.6922 33.1292C48.0568 33.4938 48.5214 33.7422 49.0271 33.8428C49.5328 33.9434 50.057 33.8917 50.5334 33.6944C51.0098 33.4971 51.417 33.1629 51.7035 32.7342C51.99 32.3054 52.1429 31.8014 52.1429 31.2857C52.1429 30.5942 51.8682 29.9311 51.3792 29.4422C50.8903 28.9532 50.2272 28.6786 49.5357 28.6786ZM49.5357 28.6786C49.0201 28.6786 48.516 28.8315 48.0873 29.1179C47.6585 29.4044 47.3244 29.8116 47.127 30.288C46.9297 30.7644 46.8781 31.2886 46.9787 31.7943C47.0793 32.3001 47.3276 32.7646 47.6922 33.1292C48.0568 33.4938 48.5214 33.7422 49.0271 33.8428C49.5328 33.9434 50.057 33.8917 50.5334 33.6944C51.0098 33.4971 51.417 33.1629 51.7035 32.7342C51.99 32.3054 52.1429 31.8014 52.1429 31.2857C52.1429 30.5942 51.8682 29.9311 51.3792 29.4422C50.8903 28.9532 50.2272 28.6786 49.5357 28.6786ZM36.5 0C29.281 0 22.2241 2.14069 16.2217 6.15136C10.2193 10.162 5.54101 15.8625 2.77841 22.532C0.0158148 29.2016 -0.707007 36.5405 0.701353 43.6208C2.10971 50.7011 5.586 57.2048 10.6906 62.3094C15.7952 67.414 22.2989 70.8903 29.3792 72.2986C36.4595 73.707 43.7984 72.9842 50.4679 70.2216C57.1375 67.459 62.838 62.7807 66.8486 56.7783C70.8593 50.7759 73 43.719 73 36.5C73 26.8196 69.1545 17.5357 62.3094 10.6906C55.4643 3.84552 46.1804 0 36.5 0V0ZM46.6157 12.7229C47.1042 12.2373 47.765 11.9647 48.4538 11.9647C49.1425 11.9647 49.8033 12.2373 50.2918 12.7229L53.9939 16.3989C54.2383 16.6413 54.4323 16.9296 54.5646 17.2473C54.697 17.5651 54.7651 17.9058 54.7651 18.25C54.7651 18.5942 54.697 18.9349 54.5646 19.2526C54.4323 19.5703 54.2383 19.8587 53.9939 20.1011C53.7516 20.3454 53.4632 20.5394 53.1455 20.6717C52.8278 20.8041 52.487 20.8723 52.1429 20.8723C51.7987 20.8723 51.4579 20.8041 51.1402 20.6717C50.8225 20.5394 50.5342 20.3454 50.2918 20.1011L46.6157 16.3989C46.1301 15.9104 45.8576 15.2497 45.8576 14.5609C45.8576 13.8721 46.1301 13.2113 46.6157 12.7229V12.7229ZM19.0061 16.3989L22.7082 12.7229C23.207 12.2957 23.8485 12.0725 24.5047 12.0979C25.1608 12.1232 25.7833 12.3952 26.2476 12.8596C26.7119 13.3239 26.9839 13.9463 27.0093 14.6025C27.0346 15.2586 26.8114 15.9002 26.3843 16.3989L22.7082 20.1011C22.4659 20.3454 22.1775 20.5394 21.8598 20.6717C21.5421 20.8041 21.2013 20.8723 20.8572 20.8723C20.513 20.8723 20.1722 20.8041 19.8545 20.6717C19.5368 20.5394 19.2485 20.3454 19.0061 20.1011C18.7617 19.8587 18.5678 19.5703 18.4354 19.2526C18.303 18.9349 18.2349 18.5942 18.2349 18.25C18.2349 17.9058 18.303 17.5651 18.4354 17.2473C18.5678 16.9296 18.7617 16.6413 19.0061 16.3989V16.3989ZM23.4643 23.4643C25.0112 23.4643 26.5234 23.923 27.8096 24.7824C29.0959 25.6419 30.0984 26.8634 30.6904 28.2926C31.2823 29.7218 31.4372 31.2944 31.1354 32.8116C30.8336 34.3288 30.0887 35.7224 28.9949 36.8163C27.901 37.9101 26.5074 38.6551 24.9902 38.9568C23.473 39.2586 21.9003 39.1037 20.4712 38.5118C19.042 37.9198 17.8204 36.9173 16.961 35.6311C16.1016 34.3448 15.6429 32.8326 15.6429 31.2857C15.6429 29.2113 16.4669 27.2219 17.9337 25.7551C19.4005 24.2883 21.3899 23.4643 23.4643 23.4643V23.4643ZM54.75 57.1746C53.4657 57.1446 52.2064 56.8127 51.0741 56.2058C49.9418 55.5988 48.9682 54.734 48.2321 53.6811C47.085 52.4036 46.6418 51.9603 45.625 51.9603C44.6082 51.9603 44.1389 52.4036 43.0179 53.6811C42.2759 54.7281 41.3011 55.5886 40.17 56.1948C39.039 56.801 37.7827 57.1365 36.5 57.1746C35.2169 57.1385 33.9599 56.8039 32.8285 56.1975C31.6972 55.5911 30.7227 54.7295 29.9822 53.6811C28.8611 52.4036 28.3918 51.9603 27.375 51.9603C26.3582 51.9603 25.915 52.4036 24.7679 53.6811C24.0288 54.731 23.0546 55.5937 21.9229 56.2002C20.7913 56.8068 19.5335 57.1405 18.25 57.1746C17.5586 57.1746 16.8954 56.8999 16.4065 56.411C15.9176 55.9221 15.6429 55.2589 15.6429 54.5675C15.6429 53.876 15.9176 53.2129 16.4065 52.724C16.8954 52.235 17.5586 51.9603 18.25 51.9603C19.2668 51.9603 19.71 51.5432 20.8572 50.2657C21.5919 49.2095 22.5646 48.3406 23.6967 47.7293C24.8289 47.1179 26.0888 46.7811 27.375 46.7461C28.6599 46.7872 29.9177 47.1266 31.0489 47.7375C32.1801 48.3483 33.1537 49.2139 33.8929 50.2657C35.0139 51.5432 35.4832 51.9603 36.5 51.9603C37.5168 51.9603 37.9861 51.5432 39.1072 50.2657C39.8206 49.1901 40.7892 48.3078 41.9264 47.6975C43.0637 47.0871 44.3343 46.7677 45.625 46.7677C46.9157 46.7677 48.1863 47.0871 49.3236 47.6975C50.4609 48.3078 51.4294 49.1901 52.1429 50.2657C53.29 51.5432 53.7332 51.9603 54.75 51.9603C55.4415 51.9603 56.1046 52.235 56.5935 52.724C57.0825 53.2129 57.3571 53.876 57.3571 54.5675C57.3571 55.2589 57.0825 55.9221 56.5935 56.411C56.1046 56.8999 55.4415 57.1746 54.75 57.1746ZM49.5357 39.1071C47.9888 39.1071 46.4766 38.6484 45.1904 37.789C43.9041 36.9296 42.9016 35.708 42.3097 34.2788C41.7177 32.8497 41.5628 31.277 41.8646 29.7598C42.1664 28.2426 42.9113 26.849 44.0051 25.7551C45.099 24.6613 46.4926 23.9164 48.0098 23.6146C49.527 23.3128 51.0997 23.4677 52.5288 24.0596C53.958 24.6516 55.1796 25.6541 56.039 26.9404C56.8984 28.2266 57.3571 29.7388 57.3571 31.2857C57.3571 33.3601 56.5331 35.3495 55.0663 36.8163C53.5995 38.2831 51.6101 39.1071 49.5357 39.1071V39.1071ZM49.5357 28.6786C49.0201 28.6786 48.516 28.8315 48.0873 29.1179C47.6585 29.4044 47.3244 29.8116 47.127 30.288C46.9297 30.7644 46.8781 31.2886 46.9787 31.7943C47.0793 32.3001 47.3276 32.7646 47.6922 33.1292C48.0568 33.4938 48.5214 33.7422 49.0271 33.8428C49.5328 33.9434 50.057 33.8917 50.5334 33.6944C51.0098 33.4971 51.417 33.1629 51.7035 32.7342C51.99 32.3054 52.1429 31.8014 52.1429 31.2857C52.1429 30.5942 51.8682 29.9311 51.3792 29.4422C50.8903 28.9532 50.2272 28.6786 49.5357 28.6786ZM49.5357 28.6786C49.0201 28.6786 48.516 28.8315 48.0873 29.1179C47.6585 29.4044 47.3244 29.8116 47.127 30.288C46.9297 30.7644 46.8781 31.2886 46.9787 31.7943C47.0793 32.3001 47.3276 32.7646 47.6922 33.1292C48.0568 33.4938 48.5214 33.7422 49.0271 33.8428C49.5328 33.9434 50.057 33.8917 50.5334 33.6944C51.0098 33.4971 51.417 33.1629 51.7035 32.7342C51.99 32.3054 52.1429 31.8014 52.1429 31.2857C52.1429 30.5942 51.8682 29.9311 51.3792 29.4422C50.8903 28.9532 50.2272 28.6786 49.5357 28.6786ZM49.5357 28.6786C49.0201 28.6786 48.516 28.8315 48.0873 29.1179C47.6585 29.4044 47.3244 29.8116 47.127 30.288C46.9297 30.7644 46.8781 31.2886 46.9787 31.7943C47.0793 32.3001 47.3276 32.7646 47.6922 33.1292C48.0568 33.4938 48.5214 33.7422 49.0271 33.8428C49.5328 33.9434 50.057 33.8917 50.5334 33.6944C51.0098 33.4971 51.417 33.1629 51.7035 32.7342C51.99 32.3054 52.1429 31.8014 52.1429 31.2857C52.1429 30.5942 51.8682 29.9311 51.3792 29.4422C50.8903 28.9532 50.2272 28.6786 49.5357 28.6786Z" fill="#539CFF"/>
</svg>
