<svg width="73" height="73" viewBox="0 0 73 73" fill="none" xmlns="http://www.w3.org/2000/svg">
<path d="M36.5 73C26.7505 73 17.5846 69.2034 10.6906 62.3094C3.79665 55.4154 0 46.2494 0 36.5C0 26.7505 3.79665 17.5844 10.6906 10.6906C17.5846 3.79665 26.7505 0 36.5 0C46.2495 0 55.4154 3.79665 62.3095 10.6906C69.2034 17.5844 73 26.7505 73 36.5C73 46.2494 69.2034 55.4154 62.3095 62.3094C55.4154 69.2034 46.2495 73 36.5 73ZM36.5 1.93805C17.4425 1.93805 1.93805 17.4425 1.93805 36.5C1.93805 55.5575 17.4425 71.0619 36.5 71.0619C55.5575 71.0619 71.0619 55.5575 71.0619 36.5C71.0619 17.4425 55.5575 1.93805 36.5 1.93805Z" fill="#539CFF"/>
<path d="M29.3488 46.2084H32.1584V41.994H29.3488V40.5892C29.3488 39.844 29.0528 39.1294 28.5259 38.6025C27.999 38.0756 27.2843 37.7795 26.5392 37.7795C25.794 37.7795 25.0794 38.0756 24.5525 38.6025C24.0256 39.1294 23.7295 39.844 23.7295 40.5892V41.994H20.9199V53.2325H32.1584V49.018H29.3488C28.9762 49.018 28.6189 48.87 28.3554 48.6066C28.092 48.3431 27.944 47.9858 27.944 47.6132C27.944 47.2406 28.092 46.8833 28.3554 46.6199C28.6189 46.3564 28.9762 46.2084 29.3488 46.2084V46.2084ZM29.3488 50.4228H30.7536V51.8277H22.3247V43.3988H25.1344V40.5892C25.1344 40.2166 25.2824 39.8593 25.5458 39.5958C25.8093 39.3324 26.1666 39.1844 26.5392 39.1844C26.9117 39.1844 27.2691 39.3324 27.5325 39.5958C27.796 39.8593 27.944 40.2166 27.944 40.5892V43.3988H30.7536V44.8036H29.3488C28.6036 44.8036 27.889 45.0996 27.3621 45.6265C26.8352 46.1534 26.5392 46.8681 26.5392 47.6132C26.5392 48.3584 26.8352 49.073 27.3621 49.5999C27.889 50.1268 28.6036 50.4228 29.3488 50.4228Z" fill="#539CFF"/>
<path d="M51.826 40.5889H47.6115V43.3985C47.6115 43.7711 47.4635 44.1284 47.2001 44.3918C46.9366 44.6553 46.5793 44.8033 46.2067 44.8033C45.8341 44.8033 45.4768 44.6553 45.2134 44.3918C44.9499 44.1284 44.8019 43.7711 44.8019 43.3985V40.5889H40.5875V43.3985H39.1827C38.4375 43.3985 37.7229 43.6945 37.196 44.2214C36.6691 44.7483 36.373 45.463 36.373 46.2081C36.373 46.9533 36.6691 47.6679 37.196 48.1948C37.7229 48.7217 38.4375 49.0177 39.1827 49.0177H40.5875V51.8274H51.826V40.5889ZM50.4212 50.4225H41.9923V47.6129H39.1827C38.8101 47.6129 38.4528 47.4649 38.1893 47.2015C37.9259 46.938 37.7779 46.5807 37.7779 46.2081C37.7779 45.8355 37.9259 45.4782 38.1893 45.2148C38.4528 44.9513 38.8101 44.8033 39.1827 44.8033H41.9923V41.9937H43.3971V43.3985C43.3971 44.1436 43.6931 44.8583 44.22 45.3852C44.7469 45.9121 45.4616 46.2081 46.2067 46.2081C46.9519 46.2081 47.6665 45.9121 48.1934 45.3852C48.7203 44.8583 49.0163 44.1436 49.0163 43.3985V41.9937H50.4212V50.4225Z" fill="#539CFF"/>
<path d="M51.8264 20.9219H40.5879V25.1363H43.3975C43.7701 25.1363 44.1274 25.2843 44.3909 25.5478C44.6543 25.8112 44.8023 26.1685 44.8023 26.5411C44.8023 26.9137 44.6543 27.271 44.3909 27.5345C44.1274 27.7979 43.7701 27.9459 43.3975 27.9459H40.5879V32.1604H43.3975V33.5652C43.3975 34.3103 43.6935 35.025 44.2204 35.5519C44.7473 36.0788 45.462 36.3748 46.2071 36.3748C46.9523 36.3748 47.6669 36.0788 48.1938 35.5519C48.7207 35.025 49.0168 34.3103 49.0168 33.5652V32.1604H51.8264V20.9219ZM50.4216 30.7556H47.6119V33.5652C47.6119 33.9378 47.4639 34.2951 47.2005 34.5585C46.937 34.822 46.5797 34.97 46.2071 34.97C45.8346 34.97 45.4772 34.822 45.2138 34.5585C44.9503 34.2951 44.8023 33.9378 44.8023 33.5652V30.7556H41.9927V29.3507H43.3975C44.1427 29.3507 44.8573 29.0547 45.3842 28.5278C45.9111 28.0009 46.2071 27.2863 46.2071 26.5411C46.2071 25.796 45.9111 25.0813 45.3842 24.5544C44.8573 24.0275 44.1427 23.7315 43.3975 23.7315H41.9927V22.3267H50.4216V30.7556Z" fill="#539CFF"/>
<path d="M36.3728 26.5411C36.3728 25.796 36.0768 25.0813 35.5499 24.5544C35.023 24.0275 34.3084 23.7315 33.5632 23.7315H32.1584V20.9219H20.9199V32.1604H25.1344V29.3507C25.1344 28.9782 25.2824 28.6208 25.5458 28.3574C25.8093 28.0939 26.1666 27.9459 26.5392 27.9459C26.9117 27.9459 27.2691 28.0939 27.5325 28.3574C27.796 28.6208 27.944 28.9782 27.944 29.3507V32.1604H32.1584V29.3507H33.5632C34.3084 29.3507 35.023 29.0547 35.5499 28.5278C36.0768 28.0009 36.3728 27.2863 36.3728 26.5411ZM33.5632 27.9459H30.7536V30.7556H29.3488V29.3507C29.3488 28.6056 29.0528 27.8909 28.5259 27.364C27.999 26.8371 27.2843 26.5411 26.5392 26.5411C25.794 26.5411 25.0794 26.8371 24.5525 27.364C24.0256 27.8909 23.7295 28.6056 23.7295 29.3507V30.7556H22.3247V22.3267H30.7536V25.1363H33.5632C33.9358 25.1363 34.2931 25.2843 34.5566 25.5478C34.82 25.8112 34.968 26.1685 34.968 26.5411C34.968 26.9137 34.82 27.271 34.5566 27.5345C34.2931 27.7979 33.9358 27.9459 33.5632 27.9459Z" fill="#539CFF"/>
<path d="M23.0259 15.3025H21.6211V16.7073H23.0259V15.3025Z" fill="#539CFF"/>
<path d="M23.0259 18.1121H21.6211V19.5169H23.0259V18.1121Z" fill="#539CFF"/>
<path d="M57.4458 20.9219H56.041V22.3267H57.4458V20.9219Z" fill="#539CFF"/>
<path d="M54.6353 20.9219H53.2305V22.3267H54.6353V20.9219Z" fill="#539CFF"/>
<path d="M19.5142 51.8276H18.1094V53.2324H19.5142V51.8276Z" fill="#539CFF"/>
<path d="M37.0747 35.6721H35.6699V37.0769H37.0747V35.6721Z" fill="#539CFF"/>
<path d="M39.8833 25.8386H38.4785V27.2434H39.8833V25.8386Z" fill="#539CFF"/>
<path d="M34.9673 46.9109H33.5625V48.3157H34.9673V46.9109Z" fill="#539CFF"/>
<path d="M46.9087 38.4817H45.5039V39.8865H46.9087V38.4817Z" fill="#539CFF"/>
<path d="M27.2427 34.2673H25.8379V35.6721H27.2427V34.2673Z" fill="#539CFF"/>
<path d="M16.7056 51.8276H15.3008V53.2324H16.7056V51.8276Z" fill="#539CFF"/>
<path d="M51.8247 53.2324H50.4199V54.6372H51.8247V53.2324Z" fill="#539CFF"/>
<path d="M51.8247 56.042H50.4199V57.4468H51.8247V56.042Z" fill="#539CFF"/>
</svg>
