<svg width="295" height="372" viewBox="0 0 295 372" fill="none" xmlns="http://www.w3.org/2000/svg">
<path fill-rule="evenodd" clip-rule="evenodd" d="M243.406 136.639L255.3 131.861C255.994 131.582 256.78 131.682 257.36 132.125L260.386 134.909L260.437 135.628L259.674 135.713L256.42 132.952C256.149 132.719 255.76 132.662 255.423 132.807L242.329 139.648L242.769 136.832L243.406 136.639Z" fill="#5C5C59"/>
<path fill-rule="evenodd" clip-rule="evenodd" d="M243.96 136.696L255.854 131.918C256.549 131.639 257.334 131.739 257.917 132.179L260.94 134.963L260.991 135.685L260.229 135.767L256.974 133.009C256.703 132.776 256.314 132.719 255.977 132.864L242.883 139.705L242.917 136.96L243.96 136.696Z" fill="#303332"/>
<path fill-rule="evenodd" clip-rule="evenodd" d="M205.663 205.827C206.831 205.838 209.131 206.043 210.629 206.188C210.937 206.068 211.229 205.969 211.551 205.847C213.146 205.236 214.834 204.881 216.429 204.224C216.94 204.014 217.417 203.713 217.883 203.378L218.117 203.949L218.243 204.494C218.946 206.003 219.471 207.506 220.02 209.074L220.2 209.372L219.691 209.642C218.711 210.287 217.791 210.926 216.797 211.54C216.129 211.955 215.594 212.545 215.071 213.128L214.763 213.489L214.84 213.693C214.84 213.693 214.634 213.83 214.283 214.051C213.491 214.994 212.66 215.96 211.574 216.497C210.251 217.148 209.357 217.642 208.334 217.423C205.04 219.08 203.186 219.188 201.586 219.634C199.909 220.099 200.294 220.685 197.466 218.148C194.637 215.611 196.809 214.869 196.809 214.869C196.809 214.869 196.809 214.869 196.34 213.742C196.186 213.369 196.214 212.949 196.297 212.568C196.383 212.185 196.686 211.849 196.711 211.455L196.529 210.719C196.291 209.969 196.577 209.085 197.209 208.614C197.84 208.142 198.683 208.099 199.46 207.972C199.94 207.892 200.414 207.77 200.874 207.614L201.251 207.381C201.506 207.006 199.726 206.273 199.78 205.528C199.897 203.966 203.849 205.81 205.663 205.827Z" fill="#EAB78E"/>
<path fill-rule="evenodd" clip-rule="evenodd" d="M246.111 178.318C246.551 177.474 253.043 164.026 249.449 163.943C249.449 163.943 244.706 161.313 239.814 163.585C234.926 165.855 230.391 178.128 229.749 180.074C228.766 183.057 227.714 186.182 226.523 189.114C225.603 191.372 224.657 194.406 222.911 196.162C220.489 198.599 211.986 205.685 211.986 205.685L220.2 209.372C220.2 209.372 229.709 201.841 231.411 200.455C232.149 199.855 233.409 199.17 233.86 198.33C234.28 197.543 234.306 196.213 234.446 195.338C234.729 193.574 235.58 191.591 236.597 190.114C237.38 188.977 238.609 188.017 239.534 186.955C241.911 184.233 244.434 181.548 246.111 178.318Z" fill="#EAB78E"/>
<path fill-rule="evenodd" clip-rule="evenodd" d="M244.457 162.006C244.457 162.006 238.703 161.239 234.651 168.219C230.6 175.202 228.377 181.179 228.377 181.179C228.377 181.179 229.04 187.418 231.257 188.264C233.474 189.108 244.457 162.006 244.457 162.006Z" fill="#ECC6B9"/>
<mask id="mask0" mask-type="alpha" maskUnits="userSpaceOnUse" x="217" y="321" width="78" height="49">
<path d="M271.474 369.58C268.154 369.58 264.566 369.256 260.78 368.571C239.834 364.79 220.743 351.486 218.14 338.852C216.006 328.5 225.6 321.813 240.66 321.813C243.98 321.813 247.569 322.139 251.354 322.821C258.066 324.031 264.589 326.222 270.437 329.054C270.594 333.278 270.751 337.506 270.909 341.73C270.909 341.73 273.877 345.773 279.197 345.773C281.471 345.773 284.177 345.034 287.269 342.92C287.269 342.92 287.334 342.25 287.437 341.091C290.877 344.778 293.203 348.69 293.997 352.543C296.129 362.892 286.534 369.58 271.474 369.58Z" fill="white"/>
</mask>
<g mask="url(#mask0)">
<path fill-rule="evenodd" clip-rule="evenodd" d="M216.006 369.58H296.129V321.813H216.006V369.58Z" fill="#4F4F4F"/>
</g>
<path fill-rule="evenodd" clip-rule="evenodd" d="M252.603 320.026C252.774 320.543 252.934 321.063 253.12 321.58C253.469 322.545 253.754 323.438 253.551 324.483C253.097 326.807 253.12 328.426 253.12 328.426L245.92 331.142L242.897 330.807L241.746 331.807C240.737 332.605 239.646 333.307 238.497 333.889C236.943 334.679 235.363 335.097 233.669 335.457C231.377 335.94 229.457 335.653 227.143 335.585C226.7 335.571 226.251 335.557 225.834 335.418C224.614 335.017 222.803 333.636 222.14 332.545C221.214 331.026 222.031 329.125 223.143 327.943C226.946 323.898 234.323 322.057 234.323 322.057L237.14 315.716C237.123 315.867 242.086 317.17 242.417 317.267C243.78 317.67 245.36 318.449 246.763 318.185C248.34 317.886 250.006 317.926 251.577 318.233L251.871 318.338L252.069 318.628C252.277 319.088 252.446 319.554 252.603 320.026Z" fill="#DCDBD6"/>
<path fill-rule="evenodd" clip-rule="evenodd" d="M223.629 327.455C222.374 328.588 223.543 330.051 224.723 330.625C225.346 330.932 226.066 330.983 226.763 330.994C228.351 331.02 229.943 330.869 231.5 330.551C232.754 330.295 234.057 330.142 235.237 329.651C236.269 329.219 237.346 329.08 238.314 328.466C239.334 327.821 239.577 326.52 240.203 325.577C240.757 324.744 241.617 324.153 242.146 323.307C242.454 322.815 242.84 321.46 242.16 321.17C239.949 320.227 238.44 318.023 236.886 316.284L234.323 322.057L232.886 322.48C231.729 322.849 230.589 323.281 229.48 323.776C228.077 324.395 226.711 325.116 225.451 325.989C224.809 326.435 224.211 326.929 223.629 327.455Z" fill="#FDFCFB"/>
<path fill-rule="evenodd" clip-rule="evenodd" d="M265.834 357.96C266.194 356.75 266.757 355.611 267.314 354.477C268.349 352.384 269.383 350.29 270.417 348.196C271.603 345.793 271.423 342.895 271.849 340.313L272.003 339.79C272.611 338.759 275.343 338.736 276.383 338.79C277.734 338.858 279.089 338.915 280.426 339.136C282.089 339.418 283.794 339.898 285.291 340.719C287.514 341.935 287.103 343.727 286.909 345.923C286.811 347.043 286.711 348.17 286.386 349.244C285.943 350.719 285.243 352.082 284.326 353.531L283.74 353.514L283.26 356.625C282.98 358.267 282.523 359.591 281.751 361.057C281.169 362.17 280.457 363.128 279.66 364.117C278.069 366.085 276.197 368.105 273.717 368.92C273.231 369.082 272.729 369.19 272.217 369.242C271.351 369.327 270.477 369.199 269.626 369.014C268.389 368.75 266.806 368.301 266 367.247C265.089 366.054 265.317 364.384 265.243 362.989C265.151 361.301 265.343 359.605 265.834 357.96Z" fill="#DCDBD6"/>
<path fill-rule="evenodd" clip-rule="evenodd" d="M277.254 342.105C276.397 341.693 275.466 341.25 274.491 341.276C273.62 341.301 273.337 341.73 272.923 342.44C272.083 343.881 271.989 345.599 271.76 347.21C271.574 348.523 271.12 349.83 270.72 351.057C270.14 352.844 268.929 354.551 268.3 356.273C267.566 358.281 266.597 360.915 267.091 363.057L267.311 363.651C267.751 364.344 269.317 364.75 270.077 364.918C270.654 365.048 271.24 365.091 271.829 365.088C272.146 365.085 273.354 365.19 273.574 364.974C275.011 363.557 276.477 362.08 277.697 360.472C278.937 358.844 279.557 356.972 280.5 355.19C281.403 353.486 281.429 351.645 281.851 349.784C282.191 348.267 282.5 346.736 282.074 345.182C281.817 344.247 281.246 343.54 280.291 343.233C279.886 343.102 279.463 343.128 279.057 343.003C278.429 342.807 277.849 342.389 277.254 342.105Z" fill="#FDFDFB"/>
<path fill-rule="evenodd" clip-rule="evenodd" d="M248.74 251.281C248.74 251.281 255.169 264.611 254.046 274.577C252.926 284.543 253.131 285.511 254.869 289.804C256.606 294.099 252.166 319.463 252.166 319.463C252.166 319.463 245.863 321.915 241.097 319.176C236.331 316.44 236.331 316.44 236.331 316.44C236.569 312.023 236.806 307.608 237.043 303.193C237.286 298.648 237.82 294.122 237.909 289.571C237.974 286.168 237.697 283.73 236.351 280.707C233.537 274.392 231.817 267.557 231.189 260.682C229.914 246.665 232.64 233.722 232.64 233.722L248.74 251.281Z" fill="#265079"/>
<path fill-rule="evenodd" clip-rule="evenodd" d="M232.637 233.722L236.074 237.469C238.34 240.707 240.163 244.446 243.077 247.119C244.886 248.781 247.089 249.994 248.811 251.744L249.169 252.224C249.546 253.077 250.131 254.455 250.783 256.213C250.889 259.259 249.12 261.892 248.78 264.923C248.606 266.494 248.657 268.08 248.711 269.659C248.783 271.784 248.854 273.912 248.926 276.04C248.991 278.031 249.06 280.028 249.274 282.011C249.383 283.023 249.529 284.028 249.686 285.031C249.866 286.193 249.931 286.46 248.703 286.759C246.766 287.233 244.691 287.153 242.8 286.52C243.103 286.511 243.389 286.659 243.654 286.804C245.717 287.923 247.757 289.082 249.771 290.287C251.343 291.227 250.72 294.795 250.666 296.392C250.577 298.898 250.294 301.398 249.886 303.872C249.06 308.867 247.726 313.759 246.389 318.636C246.223 319.236 246.043 319.849 245.797 320.423C244.237 320.352 242.597 320.037 241.097 319.176C236.331 316.44 236.331 316.44 236.331 316.44C236.569 312.023 236.806 307.608 237.043 303.193C237.286 298.648 237.82 294.122 237.909 289.571C237.974 286.168 237.697 283.73 236.351 280.707C233.537 274.392 231.817 267.557 231.189 260.682C229.914 246.665 232.637 233.722 232.637 233.722Z" fill="#295C87"/>
<path fill-rule="evenodd" clip-rule="evenodd" d="M287.269 342.921C287.269 342.921 290.074 315.168 286.529 307.205C282.986 299.242 281.074 296.506 281.357 291.176C281.64 285.847 274.8 264.903 274.8 264.903C274.8 264.903 278.114 255.182 274.64 246.594C271.166 238.009 268.834 236.173 268.834 236.173C268.834 236.173 261.974 240.77 247.151 234.392C232.329 228.011 232.889 225.867 232.889 225.867C232.889 225.867 229.257 241.23 236.071 251.134C242.886 261.037 249.323 263.014 249.323 263.014C249.323 263.014 255.569 286.415 261.514 295.591C264.143 299.648 267.563 303.739 268.957 308.426C270.423 313.352 270.046 318.571 270.234 323.642C270.46 329.671 270.686 335.702 270.909 341.73C270.909 341.73 276.96 349.972 287.269 342.921Z" fill="#296192"/>
<path fill-rule="evenodd" clip-rule="evenodd" d="M267.226 243.321C266.926 242.625 264.266 237.585 263.863 237.634C267.209 237.247 268.834 236.173 268.834 236.173C268.834 236.173 271.166 238.009 274.64 246.594C278.114 255.182 274.8 264.903 274.8 264.903C274.8 264.903 281.64 285.847 281.357 291.176C281.074 296.506 282.986 299.242 286.529 307.205C290.074 315.168 287.269 342.92 287.269 342.92C285.803 343.92 284.437 344.588 283.149 345.04C282.983 342.75 284.069 339.599 284.283 337.946C284.754 334.324 285.111 330.685 285.194 327.031C285.354 319.903 284.454 312.659 281.337 306.165C279.894 303.159 279.011 299.787 277.831 296.639C277.111 294.71 276.389 292.776 275.837 290.79C273.903 283.827 274.066 276.472 271.654 269.614C270.84 267.301 270.02 264.972 269.683 262.543C268.78 256.063 269.886 249.506 267.226 243.321Z" fill="#265079"/>
<path fill-rule="evenodd" clip-rule="evenodd" d="M228.974 196.617C228.697 216 232.083 229.656 232.083 229.656C232.083 229.656 240.306 244.349 271.291 236.756C271.291 236.756 268.931 219.986 270.689 216.889C272.486 213.759 283.783 201.997 284.623 194.523C285.466 187.048 287.6 180.929 280.514 174.236C276.56 170.466 273.223 167.332 269.823 164.722C267.166 162.648 264.463 160.946 261.463 159.551C258.894 158.358 255.591 158.293 252.329 158.878C247.011 159.798 241.766 162.432 239.923 164.952C236.917 169.006 229.249 177.273 228.974 196.617Z" fill="#F8D2C5"/>
<path fill-rule="evenodd" clip-rule="evenodd" d="M271.283 236.69C271.171 235.881 270.04 227.554 270.037 221.824C270.04 227.554 271.171 235.881 271.283 236.69ZM284.209 179.063C283.423 177.469 282.243 175.869 280.514 174.236C276.983 170.869 273.94 168.009 270.911 165.574C273.94 168.009 276.983 170.867 280.514 174.236C282.243 175.869 283.423 177.469 284.209 179.063ZM266.991 162.668C265.229 161.489 263.409 160.457 261.463 159.551C263.409 160.455 265.229 161.489 266.991 162.668ZM261.306 159.483C259.78 158.807 258.006 158.52 256.143 158.52C254.897 158.52 253.609 158.648 252.329 158.878C251.897 158.952 251.466 159.037 251.037 159.134C251.466 159.037 251.897 158.952 252.329 158.878C253.609 158.648 254.897 158.52 256.143 158.52C258.006 158.52 259.78 158.807 261.306 159.483Z" fill="#1B628D"/>
<path fill-rule="evenodd" clip-rule="evenodd" d="M262.009 238.449C261.751 238.449 262.697 229.858 262.763 229.29C263.677 221.168 264.12 211.648 267.909 204.233C269.651 200.781 272.363 197.918 275.134 195.21C276.663 193.719 277.203 191.952 277.871 189.98C278.557 187.957 279.246 185.923 279.583 183.818C279.729 182.912 279.803 181.969 279.54 181.091C279.277 180.224 278.703 179.489 278.126 178.787C275.383 175.452 271.917 171.065 268.014 169.094C264.017 167.077 259.32 165.935 254.929 165.131C250.44 164.315 245.797 163.634 241.231 163.617C243.414 161.759 247.12 160.017 251.037 159.134C251.466 159.037 251.897 158.952 252.329 158.878C253.609 158.648 254.897 158.52 256.143 158.52C258.006 158.52 259.78 158.807 261.306 159.483C261.314 159.486 261.323 159.489 261.331 159.494C261.374 159.511 261.42 159.531 261.463 159.551C263.409 160.457 265.229 161.489 266.991 162.668C267.949 163.31 268.889 163.992 269.823 164.722C270.186 165 270.549 165.284 270.911 165.574C273.94 168.009 276.983 170.869 280.514 174.236C282.243 175.869 283.423 177.469 284.209 179.063C286.566 183.855 285.334 188.594 284.68 194.043C284.66 194.202 284.64 194.361 284.623 194.523C283.783 201.997 272.486 213.759 270.689 216.889C270.211 217.727 270.037 219.577 270.037 221.824C270.04 227.554 271.171 235.881 271.283 236.69C271.289 236.733 271.291 236.756 271.291 236.756C267.917 237.582 264.863 238.102 262.011 238.449C262.011 238.449 262.011 238.449 262.009 238.449Z" fill="#C48677"/>
<path fill-rule="evenodd" clip-rule="evenodd" d="M246.423 171.517C245.163 175.989 250.169 179.619 254.174 177.23C256.146 176.057 258.317 174.668 260.549 173.074C268.54 167.341 269.823 164.722 269.823 164.722C267.166 162.648 264.463 160.946 261.463 159.554C258.894 158.358 255.591 158.293 252.329 158.878C252.329 158.878 248.023 166.003 246.471 171.355L246.423 171.517Z" fill="#C48566"/>
<path fill-rule="evenodd" clip-rule="evenodd" d="M259.754 171.861C260.297 169.781 260.554 167.605 260.491 165.457C260.431 163.483 260.089 161.517 260.174 159.543L260.229 159.136C260.646 159.267 261.077 159.372 261.463 159.551C264.463 160.946 267.166 162.648 269.823 164.722C269.823 164.722 268.54 167.341 260.549 173.074C259.917 173.526 259.309 173.92 258.689 174.338C259.126 173.349 259.611 172.403 259.754 171.861Z" fill="#BA7050"/>
<path fill-rule="evenodd" clip-rule="evenodd" d="M267.543 157.111L267.64 163.114C267.64 163.114 263.543 167.48 257.249 169.5C250.957 171.52 249.226 169.989 249.226 169.989L249.14 157.009C249.14 157.009 265.966 150.04 267.543 157.111Z" fill="#D4AA83"/>
<path fill-rule="evenodd" clip-rule="evenodd" d="M267.543 157.111L267.64 163.114C267.64 163.114 264.846 166.048 260.369 168.219C260.457 167.298 260.517 166.375 260.491 165.457C260.431 163.483 260.089 161.517 260.174 159.543C260.257 157.597 261.046 155.79 261.66 153.963C264.566 153.903 266.991 154.639 267.543 157.111Z" fill="#C48566"/>
<path fill-rule="evenodd" clip-rule="evenodd" d="M241.457 156.082C240.52 159.932 243.52 162.409 248.543 163.392C251.003 163.858 253.989 163.406 256.366 162.832C257.326 162.582 258.151 162.349 258.843 162.139L259.449 161.926L259.951 161.75C260.371 161.577 260.626 161.489 260.626 161.489C277.826 153.77 271.06 149.367 271.006 142.707C271.014 142.17 270.957 141.682 270.829 141.162C270.771 140.761 270.646 140.324 270.506 139.923C268.774 134.131 262.089 128.514 258.149 127.548C255.109 126.804 252.337 128.026 250.049 129.895C248.88 130.838 247.849 131.929 246.969 133.054L246.637 133.563C244.166 137.722 242.349 152.418 241.457 156.082Z" fill="#E9B389"/>
<path fill-rule="evenodd" clip-rule="evenodd" d="M246.637 133.563L246.709 133.679C247.294 134.378 248.163 134.835 248.966 135.261C251.266 136.403 253.586 137.511 256.046 138.06C257.117 138.313 258.723 138.361 259.5 139.244C260.1 139.926 260.666 141.009 260.817 141.898C260.9 142.369 260.894 142.849 260.889 143.33C260.871 145.054 261.04 146.827 260.454 148.472C259.871 150.114 259.426 151.818 258.96 153.474C258.574 154.793 258.694 156.017 258.58 157.381C258.374 159.287 257.489 161.117 256.366 162.832C257.326 162.582 258.151 162.349 258.843 162.139L259.449 161.926L259.951 161.75C260.371 161.577 260.626 161.489 260.626 161.489C277.826 153.77 271.06 149.367 271.006 142.707C271.014 142.17 270.957 141.682 270.829 141.162C270.771 140.761 270.646 140.324 270.506 139.923C269.551 137.298 267.351 135.162 264.977 133.651C263.457 132.716 261.82 131.932 260.12 131.369C257.926 130.614 255.497 129.997 253.149 130.082C252.371 130.128 251.2 129.943 250.049 129.895C248.88 130.838 247.849 131.929 246.969 133.054L246.637 133.563Z" fill="#D3916F"/>
<path fill-rule="evenodd" clip-rule="evenodd" d="M244.154 153.986L244.797 154.219L244.971 154.361C246.051 155.219 247.057 156.216 248.297 156.855C249.097 157.278 251.103 157.494 251.183 158.651C251.246 159.585 250.949 160.037 250.257 160.645C249.771 161.082 249.066 161.347 248.423 161.287C248.109 161.256 247.84 161.114 247.56 161.006C247.197 160.881 246.914 160.756 246.743 160.381C246.586 160.037 246.634 159.602 246.854 159.29C247.057 159.04 247.371 158.838 247.434 158.526C247.511 158.182 247.26 157.855 246.994 157.619C246.711 157.369 246.397 157.153 246.051 156.966C245.409 156.622 245.191 157.23 245.111 157.761L245.017 158.415C244.846 159.554 244.014 157.963 243.857 157.668C243.449 156.935 243.009 154.281 244.154 153.986ZM241.251 157.011C241.066 160.77 242.491 164.67 246.257 166.122C248.36 166.918 250.76 166.776 252.797 165.886C254.854 164.997 256.611 164.156 258.054 162.392C258.869 161.395 259.48 160.256 259.983 159.085C260.486 157.949 261.191 156.903 261.614 155.716C261.991 154.719 262.194 153.69 262.823 152.801C263.606 151.707 264.406 150.665 265.286 149.665L265.866 149.04C266.383 148.511 266.949 147.997 267.623 147.699C268.406 147.341 269.286 147.483 269.914 147.966C270.289 148.244 270.589 148.668 270.714 149.182C270.963 150.21 270.477 151.801 269.866 152.676C269.363 153.423 268.594 153.972 267.874 154.5C265.866 155.997 264.014 157.543 263.026 159.912L262.571 161.256C263.511 161.051 264.391 160.787 265.206 160.506C268.737 159.29 271.843 156.98 274.1 154.017C274.714 153.205 275.309 152.381 275.843 151.523C276.014 151.256 276.189 150.992 276.329 150.71C277.114 149.401 277.771 148.028 278.274 146.577C279.703 142.523 280.486 136.906 278.414 132.943C276.063 128.42 272.611 124.926 267.449 123.727C262.603 122.602 257.52 123.974 253.097 125.957C250.397 127.156 248.486 129.699 247.089 132.79C248.486 132.335 249.489 132.054 252.217 133.148C260.217 136.344 264.109 139.855 262.603 144.767C262.306 145.767 262.037 146.764 261.771 147.761C261.569 148.543 261.363 149.321 261.143 150.085C260.94 150.818 260.72 151.537 260.486 152.239C260.077 153.409 259.826 154.705 259.011 155.67C258.226 156.622 257.066 157.168 255.951 157.619C255.229 157.918 254.477 158.182 253.709 158.213C253.443 158.227 253.143 158.213 252.909 158.088L252.297 157.494C252.014 157.136 251.731 156.793 251.417 156.483C251.151 156.202 250.931 155.889 250.649 155.608C250.054 155 249.317 154.767 248.577 154.375C247.809 153.955 247.103 153.378 246.366 152.878C246.023 152.645 245.629 152.44 245.206 152.409C244.797 152.395 244.406 152.551 243.997 152.565C243.026 152.565 243.134 151.304 243.197 150.648C242.509 151.398 242.24 152.284 241.943 153.236C241.551 154.438 241.331 155.747 241.251 157.011Z" fill="#3E2A1B"/>
<path fill-rule="evenodd" clip-rule="evenodd" d="M263.649 125.207C261.9 124.923 259.989 124.909 258.157 124.943C257.643 124.952 257.134 124.966 256.64 124.977C256.214 124.989 255.78 125.006 255.346 125.045C259.2 123.602 263.406 122.784 267.446 123.722C272.611 124.92 276.066 128.418 278.42 132.94C280.483 136.906 279.709 142.52 278.283 146.574C277.329 149.284 275.837 151.742 274.097 154.02C272.263 156.42 269.866 158.352 267.146 159.665C267.417 159.31 267.683 158.972 267.9 158.67C269.154 156.915 270.32 155.077 271.4 153.21C273.28 149.963 274.597 146.574 275.577 142.949C277.291 136.605 273.794 130.523 268.474 126.986C266.997 126.003 265.389 125.489 263.649 125.207Z" fill="#312217"/>
<path fill-rule="evenodd" clip-rule="evenodd" d="M242.309 152.182C242.52 151.631 242.777 151.114 243.206 150.648C243.137 151.295 243.031 152.568 243.997 152.56C244.406 152.557 244.791 152.386 245.206 152.418C245.631 152.449 246.029 152.653 246.374 152.886C247.097 153.375 247.817 153.957 248.583 154.375C249.314 154.773 250.046 155.003 250.654 155.614C250.929 155.889 251.154 156.199 251.423 156.477C251.731 156.798 252.017 157.139 252.291 157.492L252.909 158.085C253.151 158.21 253.434 158.23 253.706 158.219C254.483 158.185 255.226 157.915 255.946 157.625C257.063 157.176 258.234 156.622 259.014 155.676L259.369 155.136C259 156.148 258.406 157.119 257.569 157.713C257.263 157.932 256.917 158.094 256.571 158.244C255.726 158.611 254.846 158.906 253.949 159.122C253.606 159.205 253.246 159.278 252.891 159.244C252.437 159.202 252.331 159.048 252.1 158.69C251.669 158.023 251.211 157.369 250.734 156.73C250.523 156.449 250.306 156.17 250.049 155.932C249.751 155.659 249.406 155.449 249.063 155.236C248.349 154.798 247.631 154.361 246.917 153.92C246.183 153.472 245.363 153.003 244.509 153.142C244.24 153.185 243.98 153.29 243.706 153.301C243.06 153.327 242.511 152.795 242.309 152.182Z" fill="#5E3820"/>
<path fill-rule="evenodd" clip-rule="evenodd" d="M252.803 165.884C250.754 166.767 248.36 166.923 246.26 166.117C242.489 164.665 241.069 160.773 241.26 157.017C241.309 156.028 241.489 155.026 241.737 154.054C241.66 154.588 241.58 155.125 241.534 155.665C241.42 157.003 241.397 158.531 242.074 159.693C243.506 162.156 246.143 164.145 249.031 164.449C252.237 164.784 256.48 162.977 258.183 160.233C258.737 159.338 259.071 158.332 259.454 157.352C259.894 156.233 260.4 155.102 260.983 154.011C261.589 152.881 262.277 151.795 263.057 150.818C263.5 150.261 265.134 148.736 266.243 148.67C265.903 148.992 265.583 149.338 265.289 149.668C264.403 150.665 263.606 151.713 262.829 152.795C262.194 153.682 261.986 154.716 261.62 155.722C261.191 156.898 260.486 157.943 259.986 159.082C259.474 160.253 258.871 161.395 258.06 162.389C256.617 164.156 254.846 165.003 252.803 165.884Z" fill="#312217"/>
<path fill-rule="evenodd" clip-rule="evenodd" d="M201.969 199.31L202.031 199.267L203.454 220.619L203.789 221.111L211.491 224.849L213.183 227.367L214.609 226.42H214.611L214.837 226.27L214.817 226.242C215.029 226.014 215.16 225.707 215.137 225.358L213.603 202.375C213.52 201.117 212.766 199.997 211.626 199.44L202.857 195.239C202.471 195.051 202.057 195.097 201.734 195.284L201.729 195.278L200.02 196.412L201.969 199.31Z" fill="#A7A8A4"/>
<path fill-rule="evenodd" clip-rule="evenodd" d="M215.137 225.392L215.003 223.375L211.891 225.443L212.869 226.898L215.137 225.392Z" fill="#777874"/>
<path fill-rule="evenodd" clip-rule="evenodd" d="M201.734 195.284L201.729 195.278L200.02 196.412L201.969 199.31L202.031 199.267L202.18 201.506L207.774 206.27L212.409 203.19L213.603 202.375C213.52 201.117 212.766 199.997 211.626 199.44L202.857 195.239C202.471 195.051 202.057 195.097 201.734 195.284Z" fill="#777874"/>
<path fill-rule="evenodd" clip-rule="evenodd" d="M213.551 201.994C213.389 201.074 212.866 200.261 212.103 199.724L210.54 200.764L212.04 203L213.551 201.994Z" fill="#5C5C59"/>
<path fill-rule="evenodd" clip-rule="evenodd" d="M202.577 195.423L211.346 199.625C212.486 200.182 213.24 201.301 213.323 202.56L214.857 225.543C214.88 225.892 214.751 226.202 214.537 226.426L214.557 226.455L214.609 226.42H214.611L214.837 226.27L214.817 226.242C215.029 226.014 215.16 225.707 215.137 225.358L213.603 202.375C213.52 201.117 212.766 199.997 211.626 199.44L202.857 195.239C202.471 195.051 202.057 195.097 201.734 195.284L201.729 195.278L201.449 195.463L201.454 195.472C201.78 195.281 202.191 195.236 202.577 195.423Z" fill="#585855"/>
<path fill-rule="evenodd" clip-rule="evenodd" d="M212.017 203.429L213.686 228.452L201.589 222.574L201.254 222.077L199.471 195.358L210.037 200.494C211.177 201.051 211.931 202.17 212.017 203.429Z" fill="#585855"/>
<path fill-rule="evenodd" clip-rule="evenodd" d="M201.323 196.259L210.037 200.494C211.177 201.051 211.931 202.17 212.017 203.429L213.549 226.412C213.574 226.787 213.42 227.111 213.18 227.338C213.614 227.148 213.934 226.716 213.897 226.179L212.263 201.642C212.243 201.341 212.063 201.077 211.791 200.946L201.671 196.026C201.189 195.79 200.666 195.918 200.326 196.242C200.629 196.108 200.986 196.094 201.323 196.259Z" fill="#787975"/>
<path fill-rule="evenodd" clip-rule="evenodd" d="M227.863 220.111L225.557 219.855C224.894 219.784 224.231 219.73 223.586 219.597C223.009 219.477 222.663 219.753 222.223 220.139C221.731 220.574 221.266 221.111 220.589 221.122C219.829 221.134 219.066 221.031 218.32 220.872C217.466 220.688 216.631 220.418 215.809 220.117C215.191 219.889 214.54 219.534 213.863 219.719C213.22 219.892 213.231 220.696 213.346 221.259C213.423 221.645 213.643 221.869 213.829 222.19C214 222.48 214.054 222.821 214.206 223.125C214.549 223.793 215.086 224.338 215.454 224.992C215.766 225.537 215.949 226.156 216.326 226.659L216.711 227.168C216.931 227.52 217.003 227.949 217.2 228.315C217.386 228.653 217.671 228.923 217.963 229.179C218.603 229.75 219.271 230.406 220.089 230.688C220.86 230.955 221.589 231.52 222.423 231.577C223.006 231.617 223.591 231.474 224.169 231.409C224.969 231.315 225.789 231.219 226.511 230.864C227.309 230.474 227.906 229.807 228.429 229.108C228.486 229.028 229.917 227.304 230.023 227.67L227.863 220.111Z" fill="#EAB78E"/>
<path fill-rule="evenodd" clip-rule="evenodd" d="M225.243 229.506L236.331 231.696L235.326 220.869L227.863 220.111L225.243 229.506Z" fill="#EAB78E"/>
<path fill-rule="evenodd" clip-rule="evenodd" d="M286.1 188.946C286.1 188.946 288.169 181.832 281.846 178.27C275.609 174.676 269.3 182.165 265.914 186.216C265.434 186.793 265.02 187.415 264.606 188.04C262.597 191.06 258.103 207.543 256.4 212.307C255.617 214.489 254.803 216.781 253.471 218.673C253.246 218.994 251.003 222.534 251.071 222.545L235.326 220.869L230.929 227.614C234.78 228.815 238.631 230.017 242.483 231.219C245.709 232.224 248.934 233.216 252.154 234.236C254.089 234.847 254.723 234.778 256.6 233.801C258.383 232.872 260.046 231.693 261.397 230.202C262.826 228.625 263.871 226.75 264.903 224.892C269.183 217.202 271.691 213.79 276.249 206.256C279.623 200.676 284.303 195.321 286.1 188.946Z" fill="#EAB78E"/>
<path fill-rule="evenodd" clip-rule="evenodd" d="M286.306 188.977C286.946 184.73 286.077 180.653 281.771 178.23C282.523 181.034 281.786 183.571 281.786 183.571L258.449 230.92L230.929 227.614L230.786 230.599C231.029 230.028 249.971 234.182 253.743 234.605C257.363 235.009 261.769 234.642 263.849 231.733C265.326 229.67 266.254 227.278 267.234 224.94C269.646 219.19 271.066 218.097 274.271 212.744C276.74 208.619 279.437 204.628 281.851 200.469C283.623 197.418 285.68 193.117 286.306 188.977Z" fill="#D4AA83"/>
<path fill-rule="evenodd" clip-rule="evenodd" d="M256.829 147.517L256.663 148.523L256.206 149.051L253.737 147.719L254.197 146.827L256.829 147.517Z" fill="#30312E"/>
<path fill-rule="evenodd" clip-rule="evenodd" d="M253.5 146.048L256.489 147.313L256.206 149.051C256.206 149.051 254.551 148.813 253.2 147.872L253.5 146.048Z" fill="#646561"/>
<path fill-rule="evenodd" clip-rule="evenodd" d="M247.906 145.242L248.5 145.386V145.384L248.531 145.406L248.42 145.338L248.56 145.44L248.623 145.486C248.78 145.602 249.011 145.867 249.154 146.156C249.38 146.608 249.483 146.867 249.626 148.54C249.626 148.54 249.449 148.565 249.34 148.31C249.234 148.054 249.203 147.534 249.109 147.222C249.011 146.915 248.857 146.449 248.374 146.094L248.354 146.08C247.869 145.739 247.777 146.017 247.606 146.134L247.077 146.682L246.777 146.494C247.423 145.375 247.586 145.307 247.906 145.242Z" fill="#5A5A57"/>
<path fill-rule="evenodd" clip-rule="evenodd" d="M249.131 146.304C248.989 146.014 248.746 145.801 248.589 145.682L248.526 145.636L248.383 145.537L248.497 145.605L248.466 145.582L247.877 145.389C247.569 145.452 247.403 145.517 246.809 146.543L246.777 146.494C247.423 145.375 247.586 145.307 247.906 145.242L248.5 145.386V145.384L248.531 145.406L248.42 145.338L248.56 145.44L248.623 145.486C248.78 145.602 249.011 145.867 249.154 146.156C249.38 146.608 249.483 146.867 249.626 148.54L249.589 148.537C249.454 147.003 249.349 146.744 249.131 146.304Z" fill="#7D7E7B"/>
<path fill-rule="evenodd" clip-rule="evenodd" d="M243.32 138.213L242.943 137.892C243.16 137.551 243.34 137.284 243.357 137.259L243.874 137.085L244.349 138.091C245.049 139.281 246.829 141.756 249.466 143.653C251.471 145.099 253.434 146.074 255.309 146.705C256.549 147.202 258.68 147.656 258.68 147.656L259.437 147.327L259.626 148.293L259.806 149.165L259.709 149.753L259.02 151L258.746 151.244L258.74 151.063C258.74 151.063 258.569 150.648 258.48 150.369C258.389 150.094 258.303 149.889 258.331 149.71C258.36 149.534 258.551 149.17 258.52 148.81C258.489 148.452 258.423 148.398 258.311 148.344C258.203 148.29 255.746 147.472 254.263 146.977C254.146 146.935 251.4 145.963 249.56 144.631L249.429 144.534L249.34 144.455L249.286 144.418C247.417 143.06 246.697 142.398 243.94 138.628L243.32 138.213Z" fill="#7D7E7B"/>
<path fill-rule="evenodd" clip-rule="evenodd" d="M259.02 149.918L262.1 149.23L266.94 148.19C267.326 147.81 267.771 147.492 268.306 147.341C268.806 147.176 269.351 147.264 269.877 147.511L271.466 147.188C271.78 147.148 272.146 147.295 272.391 147.597L273.517 148.952L273.806 149.168L274.226 149.105L274.197 148.392L273.306 147.099C272.746 146.503 271.986 146.162 271.323 146.224L262.454 147.134L260.046 147.358L259.423 147.372L259.02 149.918Z" fill="#5C5C59"/>
<path fill-rule="evenodd" clip-rule="evenodd" d="M259.511 150.46L261.143 150.085L261.991 149.884L265.866 149.04C266.383 148.511 266.949 147.997 267.623 147.699C268.406 147.341 269.286 147.483 269.914 147.966C271.011 147.778 271.937 147.685 271.937 147.685C272.283 147.653 272.643 147.841 272.894 148.136L273.849 149.298L274.02 149.486L274.271 149.688L274.726 149.611L274.694 148.923L274.334 148.489L273.771 147.591C273.254 147.014 272.486 146.702 271.826 146.764L262.369 147.699L261.771 147.761L260.549 147.903L259.543 147.824L259.511 150.46Z" fill="#303332"/>
<path fill-rule="evenodd" clip-rule="evenodd" d="M242.846 137.599L243.357 137.259L243.78 137.938C244.483 139.125 246.377 141.739 248.946 143.716C251.483 145.673 253.966 146.591 255.897 147.21C257.22 147.662 258.811 148.003 258.811 148.003L259.554 147.75L259.743 148.716L259.926 149.588L259.826 150.176L259.137 151.423L258.866 151.668L258.726 151.472C258.726 151.472 258.689 151.071 258.597 150.793C258.509 150.517 258.423 150.313 258.449 150.134C258.477 149.957 258.669 149.594 258.637 149.233C258.606 148.875 258.54 148.821 258.431 148.767C258.323 148.71 255.863 147.895 254.38 147.398C254.263 147.358 250.746 145.798 248.906 144.463L248.777 144.367V144.369L248.686 144.29L248.634 144.25C246.763 142.895 246.046 142.233 243.286 138.463L242.994 138.213L242.44 140.017L242.251 139.98L242.171 139.619L242.846 137.599Z" fill="#5A5A57"/>
<path fill-rule="evenodd" clip-rule="evenodd" d="M242.251 139.98L242.171 139.619L242.546 138.182L242.846 137.599L243.106 138.142V138.145L242.994 138.213L242.44 140.017L242.251 139.98Z" fill="#4C4F4D"/>
<path fill-rule="evenodd" clip-rule="evenodd" d="M228.68 229.827C228.68 229.827 230.686 228.742 230.931 226.057C231.243 222.685 229.303 220.707 229.303 220.707L229.117 220.119C229.117 220.119 234.886 219.653 234.406 227.006C234.28 228.957 231.274 230.179 229.309 230.378C228.337 230.477 227.629 229.878 227.629 229.878L228.68 229.827Z" fill="#59757E"/>
<path fill-rule="evenodd" clip-rule="evenodd" d="M228.886 230.378C228.886 230.378 231.134 229.878 231.617 226.847C231.98 224.56 231.583 222.511 230.209 221.054C229.909 220.736 229.117 220.119 229.117 220.119C232.503 220.173 234.263 221.884 234.263 221.884C234.263 221.884 235.974 223.469 235.466 227.068C235.06 229.952 232.76 230.716 232.76 230.716L228.886 230.378Z" fill="#1D3944"/>
<path fill-rule="evenodd" clip-rule="evenodd" d="M236.097 227.31L235.317 227.605L234.117 229.358C233.686 229.986 232.983 230.301 232.266 230.188L229.611 229.767L228.877 230.043L228.569 229.253L228.6 229.242C228.466 228.972 228.434 228.656 228.62 228.386L230.131 226.179C230.56 225.551 231.266 225.236 231.98 225.349L235.126 225.847C235.42 225.895 235.617 226.122 235.706 226.395L235.723 226.389L236.097 227.31Z" fill="#0D1314"/>
<path fill-rule="evenodd" clip-rule="evenodd" d="M235.483 226.753L232.337 226.256C231.62 226.142 230.917 226.457 230.486 227.085L228.974 229.293C228.64 229.778 228.923 230.506 229.477 230.594L232.623 231.094C233.34 231.207 234.043 230.892 234.474 230.261L235.986 228.057C236.32 227.568 236.037 226.841 235.483 226.753Z" fill="#111E24"/>
<path fill-rule="evenodd" clip-rule="evenodd" d="M234.994 227.551L232.094 227.091C231.777 227.04 231.466 227.179 231.277 227.457L229.803 229.608L230.023 230.179L232.923 230.639C233.24 230.688 233.551 230.548 233.74 230.273L235.214 228.122L234.994 227.551Z" fill="#FFFFFE"/>
<path fill-rule="evenodd" clip-rule="evenodd" d="M281.386 177.474C281.386 177.474 285.391 178.938 286.494 185.858C287.594 192.781 279.36 209.332 279.36 209.332C279.36 209.332 273.526 211.597 267.857 208.54C260.011 204.315 259.423 199.182 259.423 199.182C259.423 199.182 262.194 192.33 265.043 187.389C267.889 182.446 274.286 174.33 281.386 177.474Z" fill="#C7A396"/>
<path fill-rule="evenodd" clip-rule="evenodd" d="M44.3325 135.55C30.845 135.55 19.91 141.725 19.91 149.343C19.91 156.96 30.845 163.135 44.3325 163.135C57.8225 163.135 68.755 156.96 68.755 149.343C68.755 141.725 57.8225 135.55 44.3325 135.55Z" fill="#F8483D"/>
<path fill-rule="evenodd" clip-rule="evenodd" d="M57.4475 4.92501C50.67 0.480009 40.825 0.320009 30.5175 6.25501C11.815 17.0225 1.01501 41.18 1.01501 59.8875C1.01501 65.2925 2.32251 69.64 4.58752 72.8825L34.35 114.308L46.565 121.695L30.5375 90.16L52.7825 33.2125C53.505 31.15 54.115 29.08 54.5775 27.0075L54.835 26.12L54.745 26.17C55.35 23.235 55.685 20.315 55.7275 17.45L68.755 11.3825L57.445 4.89751L57.4475 4.92501Z" fill="#B53131"/>
<path fill-rule="evenodd" clip-rule="evenodd" d="M42.84 13.3625C24.1375 24.13 13.3375 48.2875 13.3375 66.995C13.3375 72.4 14.6475 76.7475 16.91 79.99L46.565 121.695L75.81 46.825C76.5325 44.7625 77.1425 42.69 77.605 40.6175L77.8625 39.73L77.7725 39.7825C78.415 36.66 78.785 33.55 78.785 30.515C78.785 11.8075 61.5475 2.59251 42.84 13.3625Z" fill="#F43030"/>
<path fill-rule="evenodd" clip-rule="evenodd" d="M44.7675 27.545C34.96 33.935 27.7675 48.2 28.7625 59.3025C29.755 70.4 38.565 74.2425 48.37 67.8525C58.18 61.46 65.37 47.195 64.3775 36.0975C63.385 24.9975 54.5775 21.155 44.7675 27.545Z" fill="white"/>
<path fill-rule="evenodd" clip-rule="evenodd" d="M196 317.604L199.604 319.668L201.094 317.064L197.488 315L196 317.604Z" fill="#EB5757"/>
<path fill-rule="evenodd" clip-rule="evenodd" d="M201 320.604L204.604 322.668L206.094 320.064L202.488 318L201 320.604Z" fill="#EB5757"/>
<path fill-rule="evenodd" clip-rule="evenodd" d="M206 323.604L209.604 325.668L211.094 323.064L207.488 321L206 323.604Z" fill="#EB5757"/>
<path fill-rule="evenodd" clip-rule="evenodd" d="M211 326.604L214.604 328.668L216.094 326.064L212.488 324L211 326.604Z" fill="#EB5757"/>
<path fill-rule="evenodd" clip-rule="evenodd" d="M216 329.604L219.604 331.668L221.094 329.064L217.488 327L216 329.604Z" fill="#EB5757"/>
<path fill-rule="evenodd" clip-rule="evenodd" d="M72.466 156.69C70.434 157.998 68.944 160.914 69.15 163.186C69.356 165.456 71.18 166.242 73.212 164.934C75.246 163.628 76.736 160.71 76.53 158.44C76.324 156.168 74.498 155.382 72.466 156.69Z" fill="#EB5757"/>
<path fill-rule="evenodd" clip-rule="evenodd" d="M90.71 175.734L93.91 178.166L95.726 175.778L92.526 173.346L90.71 175.734Z" fill="#EB5757"/>
<path fill-rule="evenodd" clip-rule="evenodd" d="M96.448 180.098L99.648 182.53L101.464 180.142L98.264 177.71L96.448 180.098Z" fill="#EB5757"/>
<path fill-rule="evenodd" clip-rule="evenodd" d="M102.17 184.446L105.368 186.88L107.184 184.492L103.984 182.058L102.17 184.446Z" fill="#EB5757"/>
<path fill-rule="evenodd" clip-rule="evenodd" d="M73.472 162.626L76.67 165.058L78.486 162.67L75.288 160.238L73.472 162.626Z" fill="#EB5757"/>
<path fill-rule="evenodd" clip-rule="evenodd" d="M79.21 166.99L82.41 169.422L84.226 167.034L81.026 164.602L79.21 166.99Z" fill="#EB5757"/>
<path fill-rule="evenodd" clip-rule="evenodd" d="M84.93 171.338L88.13 173.772L89.946 171.384L86.746 168.95L84.93 171.338Z" fill="#EB5757"/>
<path fill-rule="evenodd" clip-rule="evenodd" d="M120.716 273.124L124.322 275.188L125.81 272.584L122.204 270.52L120.716 273.124Z" fill="#EB5757"/>
<path fill-rule="evenodd" clip-rule="evenodd" d="M114.248 269.426L117.854 271.488L119.344 268.884L115.738 266.822L114.248 269.426Z" fill="#EB5757"/>
<path fill-rule="evenodd" clip-rule="evenodd" d="M107.802 265.738L111.408 267.8L112.898 265.196L109.292 263.134L107.802 265.738Z" fill="#EB5757"/>
<path fill-rule="evenodd" clip-rule="evenodd" d="M140.142 284.236L143.746 286.3L145.236 283.696L141.63 281.632L140.142 284.236Z" fill="#EB5757"/>
<path fill-rule="evenodd" clip-rule="evenodd" d="M133.674 280.538L137.28 282.6L138.77 279.996L135.164 277.934L133.674 280.538Z" fill="#EB5757"/>
<path fill-rule="evenodd" clip-rule="evenodd" d="M127.228 276.85L130.834 278.912L132.324 276.308L128.718 274.246L127.228 276.85Z" fill="#EB5757"/>
<path fill-rule="evenodd" clip-rule="evenodd" d="M105.372 210.546L108.372 210.548V205.834L105.372 205.832V210.546Z" fill="#EB5757"/>
<path fill-rule="evenodd" clip-rule="evenodd" d="M105.374 202.092L108.374 202.094L108.376 197.38L105.376 197.378L105.374 202.092Z" fill="#EB5757"/>
<path fill-rule="evenodd" clip-rule="evenodd" d="M105.376 193.666H108.376L108.378 188.952H105.378L105.376 193.666Z" fill="#EB5757"/>
<path fill-rule="evenodd" clip-rule="evenodd" d="M105.362 235.942H108.362L108.364 231.228H105.364L105.362 235.942Z" fill="#EB5757"/>
<path fill-rule="evenodd" clip-rule="evenodd" d="M105.366 227.488H108.366L108.368 222.774H105.368L105.366 227.488Z" fill="#EB5757"/>
<path fill-rule="evenodd" clip-rule="evenodd" d="M105.368 219.06L108.368 219.062L108.37 214.348L105.37 214.346L105.368 219.06Z" fill="#EB5757"/>
<path fill-rule="evenodd" clip-rule="evenodd" d="M105.356 261.336L108.356 261.338V256.624H105.356V261.336Z" fill="#EB5757"/>
<path fill-rule="evenodd" clip-rule="evenodd" d="M105.358 252.882L108.358 252.884L108.36 248.17L105.36 248.168L105.358 252.882Z" fill="#EB5757"/>
<path fill-rule="evenodd" clip-rule="evenodd" d="M105.36 244.456H108.36L108.362 239.742H105.362L105.36 244.456Z" fill="#EB5757"/>
<path fill-rule="evenodd" clip-rule="evenodd" d="M146 287.604L149.604 289.668L151.094 287.064L147.488 285L146 287.604Z" fill="#EB5757"/>
<path fill-rule="evenodd" clip-rule="evenodd" d="M151 290.604L154.604 292.668L156.094 290.064L152.488 288L151 290.604Z" fill="#EB5757"/>
<path fill-rule="evenodd" clip-rule="evenodd" d="M156 293.604L159.604 295.668L161.094 293.064L157.488 291L156 293.604Z" fill="#EB5757"/>
<path fill-rule="evenodd" clip-rule="evenodd" d="M161 296.604L164.604 298.668L166.094 296.064L162.488 294L161 296.604Z" fill="#EB5757"/>
<path fill-rule="evenodd" clip-rule="evenodd" d="M166 299.604L169.604 301.668L171.094 299.064L167.488 297L166 299.604Z" fill="#EB5757"/>
<path fill-rule="evenodd" clip-rule="evenodd" d="M171 302.604L174.604 304.668L176.094 302.064L172.488 300L171 302.604Z" fill="#EB5757"/>
<path fill-rule="evenodd" clip-rule="evenodd" d="M176 305.604L179.604 307.668L181.094 305.064L177.488 303L176 305.604Z" fill="#EB5757"/>
<path fill-rule="evenodd" clip-rule="evenodd" d="M181 308.604L184.604 310.668L186.094 308.064L182.488 306L181 308.604Z" fill="#EB5757"/>
<path fill-rule="evenodd" clip-rule="evenodd" d="M186 311.604L189.604 313.668L191.094 311.064L187.488 309L186 311.604Z" fill="#EB5757"/>
<path fill-rule="evenodd" clip-rule="evenodd" d="M191 314.604L194.604 316.668L196.094 314.064L192.488 312L191 314.604Z" fill="#EB5757"/>
</svg>
