<svg width="235" height="235" viewBox="0 0 235 235" fill="none" xmlns="http://www.w3.org/2000/svg">
<rect width="235" height="235" rx="10" fill="#F5F5F5"/>
<path d="M137.556 50.4494L145.772 38.7071C146.86 37.1516 147.502 35.3262 147.627 33.43C147.753 31.5338 147.357 29.6395 146.483 27.9534C145.609 26.2673 144.29 24.8541 142.67 23.8678C141.051 22.8815 139.193 22.36 137.298 22.36C135.403 22.36 133.545 22.8815 131.925 23.8678C130.306 24.8541 128.987 26.2673 128.113 27.9534C127.239 29.6395 126.843 31.5338 126.968 33.43C127.094 35.3262 127.736 37.1516 128.824 38.7071L137.04 50.4494C137.069 50.491 137.107 50.5249 137.152 50.5483C137.197 50.5717 137.247 50.584 137.298 50.584C137.348 50.584 137.398 50.5717 137.443 50.5483C137.488 50.5249 137.527 50.491 137.556 50.4494ZM131.044 32.7086C131.044 31.4681 131.411 30.2555 132.098 29.2241C132.786 28.1926 133.762 27.3887 134.905 26.914C136.047 26.4393 137.305 26.3151 138.518 26.5571C139.731 26.7991 140.845 27.3965 141.72 28.2736C142.594 29.1508 143.19 30.2684 143.431 31.485C143.672 32.7017 143.548 33.9628 143.075 35.1088C142.602 36.2549 141.8 37.2344 140.772 37.9236C139.744 38.6128 138.535 38.9806 137.298 38.9806C135.639 38.9806 134.049 38.3198 132.876 37.1436C131.703 35.9674 131.045 34.3721 131.044 32.7086V32.7086Z" fill="#539CFF"/>
<path d="M97.4446 82.7054C97.4737 82.747 97.5123 82.7809 97.5572 82.8043C97.6021 82.8277 97.652 82.84 97.7026 82.84C97.7533 82.84 97.8031 82.8277 97.848 82.8043C97.893 82.7809 97.9316 82.747 97.9607 82.7054L106.176 70.9631C107.265 69.4076 107.907 67.5822 108.032 65.686C108.157 63.7898 107.761 61.8955 106.887 60.2094C106.013 58.5233 104.695 57.1101 103.075 56.1238C101.456 55.1375 99.5973 54.616 97.7026 54.616C95.8079 54.616 93.9495 55.1375 92.33 56.1238C90.7104 57.1101 89.3918 58.5233 88.5178 60.2094C87.6438 61.8955 87.2479 63.7898 87.3733 65.686C87.4987 67.5822 88.1405 69.4076 89.2289 70.9631L97.4446 82.7054ZM97.7026 58.6926C98.9394 58.6926 100.148 59.0605 101.177 59.7497C102.205 60.4388 103.007 61.4184 103.48 62.5644C103.953 63.7105 104.077 64.9716 103.836 66.1882C103.595 67.4049 102.999 68.5225 102.124 69.3996C101.25 70.2768 100.136 70.8741 98.9226 71.1161C97.7095 71.3581 96.4522 71.2339 95.3096 70.7592C94.1669 70.2845 93.1903 69.4806 92.5031 68.4492C91.816 67.4177 91.4493 66.2051 91.4493 64.9646C91.4493 63.3012 92.1081 61.7059 93.2808 60.5297C94.4536 59.3534 96.0441 58.6926 97.7026 58.6926Z" fill="#539CFF"/>
<path d="M137.479 62.4372H126.156C124.572 62.4355 123.054 61.8032 121.934 60.6794C120.815 59.5555 120.186 58.0319 120.186 56.4433C120.186 54.8547 120.815 53.3311 121.934 52.2072C123.054 51.0834 124.572 50.4511 126.156 50.4494H130.185C130.541 50.4494 130.882 50.3078 131.133 50.0558C131.384 49.8037 131.525 49.4619 131.525 49.1054C131.525 48.749 131.384 48.4071 131.133 48.1551C130.882 47.903 130.541 47.7614 130.185 47.7614H126.156C123.862 47.7635 121.662 48.679 120.04 50.307C118.418 51.9349 117.508 54.142 117.508 56.4433C117.508 58.7445 118.418 60.9517 120.04 62.5796C121.662 64.2075 123.862 65.1231 126.156 65.1252H137.479C139.464 65.127 141.368 65.9195 142.771 67.3283C144.175 68.7371 144.963 70.6471 144.963 72.6386C144.963 74.63 144.175 76.54 142.771 77.9488C141.368 79.3577 139.464 80.1501 137.479 80.152H104.66C104.305 80.152 103.964 80.2936 103.713 80.5456C103.461 80.7977 103.32 81.1395 103.32 81.496C103.32 81.8524 103.461 82.1943 103.713 82.4463C103.964 82.6984 104.305 82.84 104.66 82.84H137.479C140.175 82.8378 142.76 81.762 144.666 79.8491C146.571 77.9362 147.642 75.3427 147.642 72.6386C147.642 69.9344 146.571 67.3409 144.666 65.428C142.76 63.5151 140.175 62.4394 137.479 62.4372Z" fill="#539CFF"/>
<path d="M24.8281 137H23.7383V130.865H16.4258V137H15.3447V124.203H16.4258V129.951H23.7383V124.203H24.8281V137ZM27.2627 132.104C27.2627 131.19 27.4385 130.367 27.79 129.635C28.1475 128.902 28.6484 128.334 29.293 127.93C29.9434 127.52 30.6787 127.314 31.499 127.314C32.7646 127.314 33.79 127.76 34.5752 128.65C35.3604 129.535 35.7529 130.71 35.7529 132.175V132.395C35.7529 133.314 35.5742 134.144 35.2168 134.882C34.8652 135.614 34.3672 136.18 33.7227 136.578C33.0781 136.977 32.3428 137.176 31.5166 137.176C30.2568 137.176 29.2314 136.733 28.4404 135.849C27.6553 134.958 27.2627 133.78 27.2627 132.315V132.104ZM28.3174 132.395C28.3174 133.531 28.6104 134.466 29.1963 135.198C29.7881 135.925 30.5615 136.288 31.5166 136.288C32.4658 136.288 33.2334 135.925 33.8193 135.198C34.4111 134.466 34.707 133.502 34.707 132.307V132.104C34.707 131.378 34.5723 130.713 34.3027 130.109C34.0332 129.506 33.6553 129.04 33.1689 128.712C32.6826 128.378 32.126 128.211 31.499 128.211C30.5615 128.211 29.7969 128.58 29.2051 129.318C28.6133 130.051 28.3174 131.012 28.3174 132.201V132.395ZM40.209 134.812L40.3672 135.629L40.5781 134.768L42.8633 127.49H43.7598L46.0186 134.706L46.2646 135.708L46.4668 134.785L48.418 127.49H49.5078L46.7393 137H45.8428L43.3994 129.459L43.2852 128.94L43.1709 129.468L40.7715 137H39.875L37.1152 127.49H38.1963L40.209 134.812ZM55.458 132.157C55.458 130.681 55.7861 129.506 56.4424 128.633C57.1045 127.754 58.001 127.314 59.1318 127.314C60.415 127.314 61.3936 127.821 62.0674 128.835V123.5H63.1133V137H62.1289L62.085 135.734C61.4111 136.695 60.4209 137.176 59.1143 137.176C58.0186 137.176 57.1338 136.736 56.46 135.857C55.792 134.973 55.458 133.78 55.458 132.28V132.157ZM56.5215 132.342C56.5215 133.555 56.7646 134.513 57.251 135.216C57.7373 135.913 58.4229 136.262 59.3076 136.262C60.6025 136.262 61.5225 135.69 62.0674 134.548V130.083C61.5225 128.847 60.6084 128.229 59.3252 128.229C58.4404 128.229 57.752 128.577 57.2598 129.274C56.7676 129.966 56.5215 130.988 56.5215 132.342ZM65.3018 132.104C65.3018 131.19 65.4775 130.367 65.8291 129.635C66.1865 128.902 66.6875 128.334 67.332 127.93C67.9824 127.52 68.7178 127.314 69.5381 127.314C70.8037 127.314 71.8291 127.76 72.6143 128.65C73.3994 129.535 73.792 130.71 73.792 132.175V132.395C73.792 133.314 73.6133 134.144 73.2559 134.882C72.9043 135.614 72.4062 136.18 71.7617 136.578C71.1172 136.977 70.3818 137.176 69.5557 137.176C68.2959 137.176 67.2705 136.733 66.4795 135.849C65.6943 134.958 65.3018 133.78 65.3018 132.315V132.104ZM66.3564 132.395C66.3564 133.531 66.6494 134.466 67.2354 135.198C67.8271 135.925 68.6006 136.288 69.5557 136.288C70.5049 136.288 71.2725 135.925 71.8584 135.198C72.4502 134.466 72.7461 133.502 72.7461 132.307V132.104C72.7461 131.378 72.6113 130.713 72.3418 130.109C72.0723 129.506 71.6943 129.04 71.208 128.712C70.7217 128.378 70.165 128.211 69.5381 128.211C68.6006 128.211 67.8359 128.58 67.2441 129.318C66.6523 130.051 66.3564 131.012 66.3564 132.201V132.395ZM86.0439 134.583C86.0439 134.062 85.833 133.643 85.4111 133.326C84.9951 133.01 84.3652 132.764 83.5215 132.588C82.6777 132.406 82.0215 132.201 81.5527 131.973C81.0898 131.738 80.7441 131.454 80.5156 131.12C80.293 130.786 80.1816 130.382 80.1816 129.907C80.1816 129.157 80.4951 128.539 81.1221 128.053C81.749 127.561 82.5518 127.314 83.5303 127.314C84.5908 127.314 85.4404 127.578 86.0791 128.105C86.7236 128.627 87.0459 129.31 87.0459 130.153H85.9912C85.9912 129.597 85.7568 129.134 85.2881 128.765C84.8252 128.396 84.2393 128.211 83.5303 128.211C82.8389 128.211 82.2822 128.366 81.8604 128.677C81.4443 128.981 81.2363 129.38 81.2363 129.872C81.2363 130.347 81.4092 130.716 81.7549 130.979C82.1064 131.237 82.7422 131.475 83.6621 131.691C84.5879 131.908 85.2793 132.14 85.7363 132.386C86.1992 132.632 86.542 132.928 86.7646 133.273C86.9873 133.619 87.0986 134.038 87.0986 134.53C87.0986 135.333 86.7734 135.975 86.123 136.455C85.4785 136.936 84.6348 137.176 83.5918 137.176C82.4844 137.176 81.585 136.909 80.8936 136.376C80.208 135.837 79.8652 135.157 79.8652 134.337H80.9199C80.9609 134.952 81.2188 135.433 81.6934 135.778C82.1738 136.118 82.8066 136.288 83.5918 136.288C84.3242 136.288 84.916 136.127 85.3672 135.805C85.8184 135.482 86.0439 135.075 86.0439 134.583ZM91.1064 125.056V127.49H93.0752V128.352H91.1064V134.688C91.1064 135.216 91.2002 135.608 91.3877 135.866C91.5811 136.124 91.9004 136.253 92.3457 136.253C92.5215 136.253 92.8057 136.224 93.1982 136.165L93.2422 137.026C92.9668 137.126 92.5918 137.176 92.1172 137.176C91.3965 137.176 90.8721 136.968 90.5439 136.552C90.2158 136.13 90.0518 135.512 90.0518 134.697V128.352H88.3027V127.49H90.0518V125.056H91.1064ZM101.372 135.796C100.739 136.716 99.7285 137.176 98.3398 137.176C97.3262 137.176 96.5557 136.883 96.0283 136.297C95.501 135.705 95.2314 134.832 95.2197 133.678V127.49H96.2656V133.546C96.2656 135.356 96.998 136.262 98.4629 136.262C99.9863 136.262 100.95 135.632 101.354 134.372V127.49H102.409V137H101.39L101.372 135.796ZM104.729 132.157C104.729 130.681 105.058 129.506 105.714 128.633C106.376 127.754 107.272 127.314 108.403 127.314C109.687 127.314 110.665 127.821 111.339 128.835V123.5H112.385V137H111.4L111.356 135.734C110.683 136.695 109.692 137.176 108.386 137.176C107.29 137.176 106.405 136.736 105.731 135.857C105.063 134.973 104.729 133.78 104.729 132.28V132.157ZM105.793 132.342C105.793 133.555 106.036 134.513 106.522 135.216C107.009 135.913 107.694 136.262 108.579 136.262C109.874 136.262 110.794 135.69 111.339 134.548V130.083C110.794 128.847 109.88 128.229 108.597 128.229C107.712 128.229 107.023 128.577 106.531 129.274C106.039 129.966 105.793 130.988 105.793 132.342ZM118.836 137.176C118.027 137.176 117.295 136.977 116.639 136.578C115.988 136.18 115.481 135.626 115.118 134.917C114.755 134.202 114.573 133.402 114.573 132.518V132.14C114.573 131.226 114.749 130.402 115.101 129.67C115.458 128.938 115.953 128.363 116.586 127.947C117.219 127.525 117.904 127.314 118.643 127.314C119.797 127.314 120.711 127.71 121.385 128.501C122.064 129.286 122.404 130.361 122.404 131.727V132.315H115.619V132.518C115.619 133.596 115.927 134.495 116.542 135.216C117.163 135.931 117.942 136.288 118.88 136.288C119.442 136.288 119.938 136.186 120.365 135.98C120.799 135.775 121.191 135.447 121.543 134.996L122.202 135.497C121.429 136.616 120.307 137.176 118.836 137.176ZM118.643 128.211C117.852 128.211 117.184 128.501 116.639 129.081C116.1 129.661 115.771 130.44 115.654 131.419H121.358V131.305C121.329 130.391 121.068 129.646 120.576 129.072C120.084 128.498 119.439 128.211 118.643 128.211ZM125.454 127.49L125.489 129.116C125.847 128.53 126.292 128.085 126.825 127.78C127.358 127.47 127.947 127.314 128.592 127.314C129.611 127.314 130.37 127.602 130.868 128.176C131.366 128.75 131.618 129.611 131.624 130.76V137H130.578V130.751C130.572 129.901 130.391 129.269 130.033 128.853C129.682 128.437 129.116 128.229 128.337 128.229C127.687 128.229 127.109 128.434 126.605 128.844C126.107 129.248 125.738 129.796 125.498 130.487V137H124.452V127.49H125.454ZM135.983 125.056V127.49H137.952V128.352H135.983V134.688C135.983 135.216 136.077 135.608 136.265 135.866C136.458 136.124 136.777 136.253 137.223 136.253C137.398 136.253 137.683 136.224 138.075 136.165L138.119 137.026C137.844 137.126 137.469 137.176 136.994 137.176C136.273 137.176 135.749 136.968 135.421 136.552C135.093 136.13 134.929 135.512 134.929 134.697V128.352H133.18V127.49H134.929V125.056H135.983ZM145.827 134.583C145.827 134.062 145.616 133.643 145.194 133.326C144.778 133.01 144.148 132.764 143.305 132.588C142.461 132.406 141.805 132.201 141.336 131.973C140.873 131.738 140.527 131.454 140.299 131.12C140.076 130.786 139.965 130.382 139.965 129.907C139.965 129.157 140.278 128.539 140.905 128.053C141.532 127.561 142.335 127.314 143.313 127.314C144.374 127.314 145.224 127.578 145.862 128.105C146.507 128.627 146.829 129.31 146.829 130.153H145.774C145.774 129.597 145.54 129.134 145.071 128.765C144.608 128.396 144.022 128.211 143.313 128.211C142.622 128.211 142.065 128.366 141.644 128.677C141.228 128.981 141.02 129.38 141.02 129.872C141.02 130.347 141.192 130.716 141.538 130.979C141.89 131.237 142.525 131.475 143.445 131.691C144.371 131.908 145.062 132.14 145.52 132.386C145.982 132.632 146.325 132.928 146.548 133.273C146.771 133.619 146.882 134.038 146.882 134.53C146.882 135.333 146.557 135.975 145.906 136.455C145.262 136.936 144.418 137.176 143.375 137.176C142.268 137.176 141.368 136.909 140.677 136.376C139.991 135.837 139.648 135.157 139.648 134.337H140.703C140.744 134.952 141.002 135.433 141.477 135.778C141.957 136.118 142.59 136.288 143.375 136.288C144.107 136.288 144.699 136.127 145.15 135.805C145.602 135.482 145.827 135.075 145.827 134.583ZM154.265 137V128.352H152.683V127.49H154.265V126.515C154.265 125.501 154.54 124.716 155.091 124.159C155.642 123.597 156.418 123.315 157.42 123.315C158.205 123.315 159.014 123.488 159.846 123.834L159.67 124.739C158.955 124.429 158.229 124.273 157.49 124.273C156.043 124.273 155.319 125.026 155.319 126.532V127.49H157.543V128.352H155.319V137H154.265ZM160.417 137H159.362V127.49H160.417V137ZM164.302 127.49L164.337 129.116C164.694 128.53 165.14 128.085 165.673 127.78C166.206 127.47 166.795 127.314 167.439 127.314C168.459 127.314 169.218 127.602 169.716 128.176C170.214 128.75 170.466 129.611 170.472 130.76V137H169.426V130.751C169.42 129.901 169.238 129.269 168.881 128.853C168.529 128.437 167.964 128.229 167.185 128.229C166.534 128.229 165.957 128.434 165.453 128.844C164.955 129.248 164.586 129.796 164.346 130.487V137H163.3V127.49H164.302ZM172.774 132.157C172.774 130.681 173.103 129.506 173.759 128.633C174.421 127.754 175.317 127.314 176.448 127.314C177.731 127.314 178.71 127.821 179.384 128.835V123.5H180.43V137H179.445L179.401 135.734C178.728 136.695 177.737 137.176 176.431 137.176C175.335 137.176 174.45 136.736 173.776 135.857C173.108 134.973 172.774 133.78 172.774 132.28V132.157ZM173.838 132.342C173.838 133.555 174.081 134.513 174.567 135.216C175.054 135.913 175.739 136.262 176.624 136.262C177.919 136.262 178.839 135.69 179.384 134.548V130.083C178.839 128.847 177.925 128.229 176.642 128.229C175.757 128.229 175.068 128.577 174.576 129.274C174.084 129.966 173.838 130.988 173.838 132.342ZM189.21 125.056V127.49H191.179V128.352H189.21V134.688C189.21 135.216 189.304 135.608 189.491 135.866C189.685 136.124 190.004 136.253 190.449 136.253C190.625 136.253 190.909 136.224 191.302 136.165L191.346 137.026C191.07 137.126 190.695 137.176 190.221 137.176C189.5 137.176 188.976 136.968 188.647 136.552C188.319 136.13 188.155 135.512 188.155 134.697V128.352H186.406V127.49H188.155V125.056H189.21ZM194.404 129.099C194.75 128.53 195.192 128.091 195.731 127.78C196.271 127.47 196.859 127.314 197.498 127.314C198.518 127.314 199.276 127.602 199.774 128.176C200.272 128.75 200.524 129.611 200.53 130.76V137H199.484V130.751C199.479 129.901 199.297 129.269 198.939 128.853C198.588 128.437 198.022 128.229 197.243 128.229C196.593 128.229 196.016 128.434 195.512 128.844C195.014 129.248 194.645 129.796 194.404 130.487V137H193.358V123.5H194.404V129.099ZM206.92 137.176C206.111 137.176 205.379 136.977 204.723 136.578C204.072 136.18 203.565 135.626 203.202 134.917C202.839 134.202 202.657 133.402 202.657 132.518V132.14C202.657 131.226 202.833 130.402 203.185 129.67C203.542 128.938 204.037 128.363 204.67 127.947C205.303 127.525 205.988 127.314 206.727 127.314C207.881 127.314 208.795 127.71 209.469 128.501C210.148 129.286 210.488 130.361 210.488 131.727V132.315H203.703V132.518C203.703 133.596 204.011 134.495 204.626 135.216C205.247 135.931 206.026 136.288 206.964 136.288C207.526 136.288 208.021 136.186 208.449 135.98C208.883 135.775 209.275 135.447 209.627 134.996L210.286 135.497C209.513 136.616 208.391 137.176 206.92 137.176ZM206.727 128.211C205.936 128.211 205.268 128.501 204.723 129.081C204.184 129.661 203.855 130.44 203.738 131.419H209.442V131.305C209.413 130.391 209.152 129.646 208.66 129.072C208.168 128.498 207.523 128.211 206.727 128.211ZM213.714 137H212.659V127.49H213.714V137ZM212.475 124.739C212.475 124.54 212.539 124.373 212.668 124.238C212.797 124.098 212.973 124.027 213.195 124.027C213.418 124.027 213.594 124.098 213.723 124.238C213.857 124.373 213.925 124.54 213.925 124.739C213.925 124.938 213.857 125.105 213.723 125.24C213.594 125.375 213.418 125.442 213.195 125.442C212.973 125.442 212.797 125.375 212.668 125.24C212.539 125.105 212.475 124.938 212.475 124.739ZM220.974 128.387C220.751 128.346 220.514 128.325 220.262 128.325C219.605 128.325 219.049 128.51 218.592 128.879C218.141 129.242 217.818 129.772 217.625 130.47V137H216.579V127.49H217.607L217.625 129.002C218.182 127.877 219.075 127.314 220.306 127.314C220.599 127.314 220.83 127.353 221 127.429L220.974 128.387ZM16.9883 147.056V149.49H18.957V150.352H16.9883V156.688C16.9883 157.216 17.082 157.608 17.2695 157.866C17.4629 158.124 17.7822 158.253 18.2275 158.253C18.4033 158.253 18.6875 158.224 19.0801 158.165L19.124 159.026C18.8486 159.126 18.4736 159.176 17.999 159.176C17.2783 159.176 16.7539 158.968 16.4258 158.552C16.0977 158.13 15.9336 157.512 15.9336 156.697V150.352H14.1846V149.49H15.9336V147.056H16.9883ZM27.1396 159C27.0342 158.701 26.9668 158.259 26.9375 157.673C26.5684 158.153 26.0967 158.525 25.5225 158.789C24.9541 159.047 24.3506 159.176 23.7119 159.176C22.7979 159.176 22.0566 158.921 21.4883 158.411C20.9258 157.901 20.6445 157.257 20.6445 156.478C20.6445 155.552 21.0283 154.819 21.7959 154.28C22.5693 153.741 23.6445 153.472 25.0215 153.472H26.9287V152.391C26.9287 151.711 26.7178 151.178 26.2959 150.791C25.8799 150.398 25.2705 150.202 24.4678 150.202C23.7354 150.202 23.1289 150.39 22.6484 150.765C22.168 151.14 21.9277 151.591 21.9277 152.118L20.873 152.109C20.873 151.354 21.2246 150.7 21.9277 150.149C22.6309 149.593 23.4951 149.314 24.5205 149.314C25.5811 149.314 26.416 149.581 27.0254 150.114C27.6406 150.642 27.957 151.38 27.9746 152.329V156.829C27.9746 157.749 28.0713 158.438 28.2646 158.895V159H27.1396ZM23.835 158.244C24.5381 158.244 25.165 158.074 25.7158 157.734C26.2725 157.395 26.6768 156.94 26.9287 156.372V154.28H25.0479C23.999 154.292 23.1787 154.485 22.5869 154.86C21.9951 155.229 21.6992 155.739 21.6992 156.39C21.6992 156.923 21.8955 157.365 22.2881 157.717C22.6865 158.068 23.2021 158.244 23.835 158.244ZM35.1816 150.387C34.959 150.346 34.7217 150.325 34.4697 150.325C33.8135 150.325 33.2568 150.51 32.7998 150.879C32.3486 151.242 32.0264 151.772 31.833 152.47V159H30.7871V149.49H31.8154L31.833 151.002C32.3896 149.877 33.2832 149.314 34.5137 149.314C34.8066 149.314 35.0381 149.353 35.208 149.429L35.1816 150.387ZM36.2539 154.157C36.2539 152.669 36.582 151.491 37.2383 150.624C37.9004 149.751 38.7969 149.314 39.9277 149.314C41.2227 149.314 42.207 149.83 42.8809 150.861L42.9336 149.49H43.918V158.807C43.918 160.031 43.5752 161.001 42.8896 161.716C42.2041 162.431 41.2754 162.788 40.1035 162.788C39.4414 162.788 38.8086 162.639 38.2051 162.34C37.6074 162.047 37.1357 161.654 36.79 161.162L37.3789 160.529C38.123 161.443 39.0078 161.9 40.0332 161.9C40.9121 161.9 41.5977 161.64 42.0898 161.118C42.582 160.603 42.8369 159.885 42.8545 158.965V157.77C42.1807 158.707 41.1992 159.176 39.9102 159.176C38.8086 159.176 37.9238 158.736 37.2559 157.857C36.5879 156.979 36.2539 155.792 36.2539 154.298V154.157ZM37.3174 154.342C37.3174 155.555 37.5605 156.513 38.0469 157.216C38.5332 157.913 39.2188 158.262 40.1035 158.262C41.3984 158.262 42.3154 157.682 42.8545 156.521V152.101C42.6084 151.491 42.2539 151.028 41.791 150.712C41.3281 150.39 40.7715 150.229 40.1211 150.229C39.2363 150.229 38.5479 150.577 38.0557 151.274C37.5635 151.966 37.3174 152.988 37.3174 154.342ZM50.3428 159.176C49.5342 159.176 48.8018 158.977 48.1455 158.578C47.4951 158.18 46.9883 157.626 46.625 156.917C46.2617 156.202 46.0801 155.402 46.0801 154.518V154.14C46.0801 153.226 46.2559 152.402 46.6074 151.67C46.9648 150.938 47.46 150.363 48.0928 149.947C48.7256 149.525 49.4111 149.314 50.1494 149.314C51.3037 149.314 52.2178 149.71 52.8916 150.501C53.5713 151.286 53.9111 152.361 53.9111 153.727V154.315H47.126V154.518C47.126 155.596 47.4336 156.495 48.0488 157.216C48.6699 157.931 49.4492 158.288 50.3867 158.288C50.9492 158.288 51.4443 158.186 51.8721 157.98C52.3057 157.775 52.6982 157.447 53.0498 156.996L53.709 157.497C52.9355 158.616 51.8135 159.176 50.3428 159.176ZM50.1494 150.211C49.3584 150.211 48.6904 150.501 48.1455 151.081C47.6064 151.661 47.2783 152.44 47.1611 153.419H52.8652V153.305C52.8359 152.391 52.5752 151.646 52.083 151.072C51.5908 150.498 50.9463 150.211 50.1494 150.211ZM57.5938 147.056V149.49H59.5625V150.352H57.5938V156.688C57.5938 157.216 57.6875 157.608 57.875 157.866C58.0684 158.124 58.3877 158.253 58.833 158.253C59.0088 158.253 59.293 158.224 59.6855 158.165L59.7295 159.026C59.4541 159.126 59.0791 159.176 58.6045 159.176C57.8838 159.176 57.3594 158.968 57.0312 158.552C56.7031 158.13 56.5391 157.512 56.5391 156.697V150.352H54.79V149.49H56.5391V147.056H57.5938ZM73.7656 154.342C73.7656 155.824 73.4375 157.002 72.7812 157.875C72.125 158.742 71.2461 159.176 70.1445 159.176C68.8438 159.176 67.8477 158.719 67.1562 157.805V162.656H66.1104V149.49H67.0859L67.1387 150.835C67.8242 149.821 68.8174 149.314 70.1182 149.314C71.2549 149.314 72.1455 149.745 72.79 150.606C73.4404 151.468 73.7656 152.663 73.7656 154.192V154.342ZM72.7109 154.157C72.7109 152.944 72.4619 151.986 71.9639 151.283C71.4658 150.58 70.7715 150.229 69.8809 150.229C69.2363 150.229 68.6826 150.384 68.2197 150.694C67.7568 151.005 67.4023 151.456 67.1562 152.048V156.609C67.4082 157.154 67.7686 157.57 68.2373 157.857C68.7061 158.145 69.2598 158.288 69.8984 158.288C70.7832 158.288 71.4717 157.937 71.9639 157.233C72.4619 156.524 72.7109 155.499 72.7109 154.157ZM77.2812 159H76.2266V145.5H77.2812V159ZM86.1494 159C86.0439 158.701 85.9766 158.259 85.9473 157.673C85.5781 158.153 85.1064 158.525 84.5322 158.789C83.9639 159.047 83.3604 159.176 82.7217 159.176C81.8076 159.176 81.0664 158.921 80.498 158.411C79.9355 157.901 79.6543 157.257 79.6543 156.478C79.6543 155.552 80.0381 154.819 80.8057 154.28C81.5791 153.741 82.6543 153.472 84.0312 153.472H85.9385V152.391C85.9385 151.711 85.7275 151.178 85.3057 150.791C84.8896 150.398 84.2803 150.202 83.4775 150.202C82.7451 150.202 82.1387 150.39 81.6582 150.765C81.1777 151.14 80.9375 151.591 80.9375 152.118L79.8828 152.109C79.8828 151.354 80.2344 150.7 80.9375 150.149C81.6406 149.593 82.5049 149.314 83.5303 149.314C84.5908 149.314 85.4258 149.581 86.0352 150.114C86.6504 150.642 86.9668 151.38 86.9844 152.329V156.829C86.9844 157.749 87.0811 158.438 87.2744 158.895V159H86.1494ZM82.8447 158.244C83.5479 158.244 84.1748 158.074 84.7256 157.734C85.2822 157.395 85.6865 156.94 85.9385 156.372V154.28H84.0576C83.0088 154.292 82.1885 154.485 81.5967 154.86C81.0049 155.229 80.709 155.739 80.709 156.39C80.709 156.923 80.9053 157.365 81.2979 157.717C81.6963 158.068 82.2119 158.244 82.8447 158.244ZM93.3125 158.288C94.0449 158.288 94.6572 158.083 95.1494 157.673C95.6475 157.257 95.917 156.721 95.958 156.064H96.9688C96.9395 156.645 96.7578 157.175 96.4238 157.655C96.0898 158.13 95.6445 158.502 95.0879 158.771C94.5371 159.041 93.9453 159.176 93.3125 159.176C92.0645 159.176 91.0742 158.742 90.3418 157.875C89.6152 157.008 89.252 155.842 89.252 154.377V154.061C89.252 153.123 89.416 152.294 89.7441 151.573C90.0723 150.853 90.541 150.296 91.1504 149.903C91.7656 149.511 92.4834 149.314 93.3037 149.314C94.3467 149.314 95.2051 149.625 95.8789 150.246C96.5586 150.867 96.9219 151.685 96.9688 152.698H95.958C95.9111 151.954 95.6416 151.354 95.1494 150.896C94.6631 150.439 94.0479 150.211 93.3037 150.211C92.3545 150.211 91.6162 150.554 91.0889 151.239C90.5674 151.925 90.3066 152.886 90.3066 154.122V154.43C90.3066 155.643 90.5674 156.589 91.0889 157.269C91.6162 157.948 92.3574 158.288 93.3125 158.288ZM102.761 159.176C101.952 159.176 101.22 158.977 100.563 158.578C99.9131 158.18 99.4062 157.626 99.043 156.917C98.6797 156.202 98.498 155.402 98.498 154.518V154.14C98.498 153.226 98.6738 152.402 99.0254 151.67C99.3828 150.938 99.8779 150.363 100.511 149.947C101.144 149.525 101.829 149.314 102.567 149.314C103.722 149.314 104.636 149.71 105.31 150.501C105.989 151.286 106.329 152.361 106.329 153.727V154.315H99.5439V154.518C99.5439 155.596 99.8516 156.495 100.467 157.216C101.088 157.931 101.867 158.288 102.805 158.288C103.367 158.288 103.862 158.186 104.29 157.98C104.724 157.775 105.116 157.447 105.468 156.996L106.127 157.497C105.354 158.616 104.231 159.176 102.761 159.176ZM102.567 150.211C101.776 150.211 101.108 150.501 100.563 151.081C100.024 151.661 99.6963 152.44 99.5791 153.419H105.283V153.305C105.254 152.391 104.993 151.646 104.501 151.072C104.009 150.498 103.364 150.211 102.567 150.211ZM115.03 156.812L115.188 157.629L115.399 156.768L117.685 149.49H118.581L120.84 156.706L121.086 157.708L121.288 156.785L123.239 149.49H124.329L121.561 159H120.664L118.221 151.459L118.106 150.94L117.992 151.468L115.593 159H114.696L111.937 149.49H113.018L115.03 156.812ZM127.37 151.099C127.716 150.53 128.158 150.091 128.697 149.78C129.236 149.47 129.825 149.314 130.464 149.314C131.483 149.314 132.242 149.602 132.74 150.176C133.238 150.75 133.49 151.611 133.496 152.76V159H132.45V152.751C132.444 151.901 132.263 151.269 131.905 150.853C131.554 150.437 130.988 150.229 130.209 150.229C129.559 150.229 128.981 150.434 128.478 150.844C127.979 151.248 127.61 151.796 127.37 152.487V159H126.324V145.5H127.37V151.099ZM139.886 159.176C139.077 159.176 138.345 158.977 137.688 158.578C137.038 158.18 136.531 157.626 136.168 156.917C135.805 156.202 135.623 155.402 135.623 154.518V154.14C135.623 153.226 135.799 152.402 136.15 151.67C136.508 150.938 137.003 150.363 137.636 149.947C138.269 149.525 138.954 149.314 139.692 149.314C140.847 149.314 141.761 149.71 142.435 150.501C143.114 151.286 143.454 152.361 143.454 153.727V154.315H136.669V154.518C136.669 155.596 136.977 156.495 137.592 157.216C138.213 157.931 138.992 158.288 139.93 158.288C140.492 158.288 140.987 158.186 141.415 157.98C141.849 157.775 142.241 157.447 142.593 156.996L143.252 157.497C142.479 158.616 141.356 159.176 139.886 159.176ZM139.692 150.211C138.901 150.211 138.233 150.501 137.688 151.081C137.149 151.661 136.821 152.44 136.704 153.419H142.408V153.305C142.379 152.391 142.118 151.646 141.626 151.072C141.134 150.498 140.489 150.211 139.692 150.211ZM146.504 149.49L146.539 151.116C146.896 150.53 147.342 150.085 147.875 149.78C148.408 149.47 148.997 149.314 149.642 149.314C150.661 149.314 151.42 149.602 151.918 150.176C152.416 150.75 152.668 151.611 152.674 152.76V159H151.628V152.751C151.622 151.901 151.44 151.269 151.083 150.853C150.731 150.437 150.166 150.229 149.387 150.229C148.736 150.229 148.159 150.434 147.655 150.844C147.157 151.248 146.788 151.796 146.548 152.487V159H145.502V149.49H146.504ZM161.41 147.056V149.49H163.379V150.352H161.41V156.688C161.41 157.216 161.504 157.608 161.691 157.866C161.885 158.124 162.204 158.253 162.649 158.253C162.825 158.253 163.109 158.224 163.502 158.165L163.546 159.026C163.271 159.126 162.896 159.176 162.421 159.176C161.7 159.176 161.176 158.968 160.848 158.552C160.52 158.13 160.355 157.512 160.355 156.697V150.352H158.606V149.49H160.355V147.056H161.41ZM166.604 151.099C166.95 150.53 167.393 150.091 167.932 149.78C168.471 149.47 169.06 149.314 169.698 149.314C170.718 149.314 171.477 149.602 171.975 150.176C172.473 150.75 172.725 151.611 172.73 152.76V159H171.685V152.751C171.679 151.901 171.497 151.269 171.14 150.853C170.788 150.437 170.223 150.229 169.443 150.229C168.793 150.229 168.216 150.434 167.712 150.844C167.214 151.248 166.845 151.796 166.604 152.487V159H165.559V145.5H166.604V151.099ZM179.12 159.176C178.312 159.176 177.579 158.977 176.923 158.578C176.272 158.18 175.766 157.626 175.402 156.917C175.039 156.202 174.857 155.402 174.857 154.518V154.14C174.857 153.226 175.033 152.402 175.385 151.67C175.742 150.938 176.237 150.363 176.87 149.947C177.503 149.525 178.188 149.314 178.927 149.314C180.081 149.314 180.995 149.71 181.669 150.501C182.349 151.286 182.688 152.361 182.688 153.727V154.315H175.903V154.518C175.903 155.596 176.211 156.495 176.826 157.216C177.447 157.931 178.227 158.288 179.164 158.288C179.727 158.288 180.222 158.186 180.649 157.98C181.083 157.775 181.476 157.447 181.827 156.996L182.486 157.497C181.713 158.616 180.591 159.176 179.12 159.176ZM178.927 150.211C178.136 150.211 177.468 150.501 176.923 151.081C176.384 151.661 176.056 152.44 175.938 153.419H181.643V153.305C181.613 152.391 181.353 151.646 180.86 151.072C180.368 150.498 179.724 150.211 178.927 150.211ZM187.628 157.488L190.405 149.49H191.539L187.479 160.617L187.268 161.109C186.746 162.264 185.94 162.841 184.851 162.841C184.599 162.841 184.329 162.8 184.042 162.718L184.033 161.848L184.578 161.9C185.094 161.9 185.51 161.771 185.826 161.514C186.148 161.262 186.421 160.825 186.644 160.204L187.109 158.921L183.523 149.49H184.675L187.628 157.488ZM203.554 159C203.448 158.701 203.381 158.259 203.352 157.673C202.982 158.153 202.511 158.525 201.937 158.789C201.368 159.047 200.765 159.176 200.126 159.176C199.212 159.176 198.471 158.921 197.902 158.411C197.34 157.901 197.059 157.257 197.059 156.478C197.059 155.552 197.442 154.819 198.21 154.28C198.983 153.741 200.059 153.472 201.436 153.472H203.343V152.391C203.343 151.711 203.132 151.178 202.71 150.791C202.294 150.398 201.685 150.202 200.882 150.202C200.149 150.202 199.543 150.39 199.062 150.765C198.582 151.14 198.342 151.591 198.342 152.118L197.287 152.109C197.287 151.354 197.639 150.7 198.342 150.149C199.045 149.593 199.909 149.314 200.935 149.314C201.995 149.314 202.83 149.581 203.439 150.114C204.055 150.642 204.371 151.38 204.389 152.329V156.829C204.389 157.749 204.485 158.438 204.679 158.895V159H203.554ZM200.249 158.244C200.952 158.244 201.579 158.074 202.13 157.734C202.687 157.395 203.091 156.94 203.343 156.372V154.28H201.462C200.413 154.292 199.593 154.485 199.001 154.86C198.409 155.229 198.113 155.739 198.113 156.39C198.113 156.923 198.31 157.365 198.702 157.717C199.101 158.068 199.616 158.244 200.249 158.244ZM211.596 150.387C211.373 150.346 211.136 150.325 210.884 150.325C210.228 150.325 209.671 150.51 209.214 150.879C208.763 151.242 208.44 151.772 208.247 152.47V159H207.201V149.49H208.229L208.247 151.002C208.804 149.877 209.697 149.314 210.928 149.314C211.221 149.314 211.452 149.353 211.622 149.429L211.596 150.387ZM216.772 159.176C215.964 159.176 215.231 158.977 214.575 158.578C213.925 158.18 213.418 157.626 213.055 156.917C212.691 156.202 212.51 155.402 212.51 154.518V154.14C212.51 153.226 212.686 152.402 213.037 151.67C213.395 150.938 213.89 150.363 214.522 149.947C215.155 149.525 215.841 149.314 216.579 149.314C217.733 149.314 218.647 149.71 219.321 150.501C220.001 151.286 220.341 152.361 220.341 153.727V154.315H213.556V154.518C213.556 155.596 213.863 156.495 214.479 157.216C215.1 157.931 215.879 158.288 216.816 158.288C217.379 158.288 217.874 158.186 218.302 157.98C218.735 157.775 219.128 157.447 219.479 156.996L220.139 157.497C219.365 158.616 218.243 159.176 216.772 159.176ZM216.579 150.211C215.788 150.211 215.12 150.501 214.575 151.081C214.036 151.661 213.708 152.44 213.591 153.419H219.295V153.305C219.266 152.391 219.005 151.646 218.513 151.072C218.021 150.498 217.376 150.211 216.579 150.211ZM41.5977 171.49L41.6328 173.116C41.9902 172.53 42.4355 172.085 42.9688 171.78C43.502 171.47 44.0908 171.314 44.7354 171.314C45.7549 171.314 46.5137 171.602 47.0117 172.176C47.5098 172.75 47.7617 173.611 47.7676 174.76V181H46.7217V174.751C46.7158 173.901 46.5342 173.269 46.1768 172.853C45.8252 172.437 45.2598 172.229 44.4805 172.229C43.8301 172.229 43.2529 172.434 42.749 172.844C42.251 173.248 41.8818 173.796 41.6416 174.487V181H40.5957V171.49H41.5977ZM49.9121 176.104C49.9121 175.19 50.0879 174.367 50.4395 173.635C50.7969 172.902 51.2979 172.334 51.9424 171.93C52.5928 171.52 53.3281 171.314 54.1484 171.314C55.4141 171.314 56.4395 171.76 57.2246 172.65C58.0098 173.535 58.4023 174.71 58.4023 176.175V176.395C58.4023 177.314 58.2236 178.144 57.8662 178.882C57.5146 179.614 57.0166 180.18 56.3721 180.578C55.7275 180.977 54.9922 181.176 54.166 181.176C52.9062 181.176 51.8809 180.733 51.0898 179.849C50.3047 178.958 49.9121 177.78 49.9121 176.315V176.104ZM50.9668 176.395C50.9668 177.531 51.2598 178.466 51.8457 179.198C52.4375 179.925 53.2109 180.288 54.166 180.288C55.1152 180.288 55.8828 179.925 56.4688 179.198C57.0605 178.466 57.3564 177.502 57.3564 176.307V176.104C57.3564 175.378 57.2217 174.713 56.9521 174.109C56.6826 173.506 56.3047 173.04 55.8184 172.712C55.332 172.378 54.7754 172.211 54.1484 172.211C53.2109 172.211 52.4463 172.58 51.8545 173.318C51.2627 174.051 50.9668 175.012 50.9668 176.201V176.395ZM62.2168 169.056V171.49H64.1855V172.352H62.2168V178.688C62.2168 179.216 62.3105 179.608 62.498 179.866C62.6914 180.124 63.0107 180.253 63.4561 180.253C63.6318 180.253 63.916 180.224 64.3086 180.165L64.3525 181.026C64.0771 181.126 63.7021 181.176 63.2275 181.176C62.5068 181.176 61.9824 180.968 61.6543 180.552C61.3262 180.13 61.1621 179.512 61.1621 178.697V172.352H59.4131V171.49H61.1621V169.056H62.2168ZM71.498 181V172.352H69.9248V171.49H71.498V170.339C71.498 169.366 71.7441 168.619 72.2363 168.098C72.7344 167.576 73.4258 167.315 74.3105 167.315C74.709 167.315 75.0811 167.365 75.4268 167.465L75.3477 168.344C75.0547 168.273 74.7354 168.238 74.3896 168.238C73.8096 168.238 73.3584 168.42 73.0361 168.783C72.7139 169.141 72.5527 169.65 72.5527 170.312V171.49H74.8203V172.352H72.5527V181H71.498ZM82.7041 181C82.5986 180.701 82.5312 180.259 82.502 179.673C82.1328 180.153 81.6611 180.525 81.0869 180.789C80.5186 181.047 79.915 181.176 79.2764 181.176C78.3623 181.176 77.6211 180.921 77.0527 180.411C76.4902 179.901 76.209 179.257 76.209 178.478C76.209 177.552 76.5928 176.819 77.3604 176.28C78.1338 175.741 79.209 175.472 80.5859 175.472H82.4932V174.391C82.4932 173.711 82.2822 173.178 81.8604 172.791C81.4443 172.398 80.835 172.202 80.0322 172.202C79.2998 172.202 78.6934 172.39 78.2129 172.765C77.7324 173.14 77.4922 173.591 77.4922 174.118L76.4375 174.109C76.4375 173.354 76.7891 172.7 77.4922 172.149C78.1953 171.593 79.0596 171.314 80.085 171.314C81.1455 171.314 81.9805 171.581 82.5898 172.114C83.2051 172.642 83.5215 173.38 83.5391 174.329V178.829C83.5391 179.749 83.6357 180.438 83.8291 180.895V181H82.7041ZM79.3994 180.244C80.1025 180.244 80.7295 180.074 81.2803 179.734C81.8369 179.395 82.2412 178.94 82.4932 178.372V176.28H80.6123C79.5635 176.292 78.7432 176.485 78.1514 176.86C77.5596 177.229 77.2637 177.739 77.2637 178.39C77.2637 178.923 77.46 179.365 77.8525 179.717C78.251 180.068 78.7666 180.244 79.3994 180.244ZM87.3096 171.49L87.3447 173.037C87.6963 172.463 88.1357 172.032 88.6631 171.745C89.1904 171.458 89.7764 171.314 90.4209 171.314C91.9209 171.314 92.873 171.93 93.2773 173.16C93.6172 172.568 94.0713 172.114 94.6396 171.798C95.208 171.476 95.835 171.314 96.5205 171.314C98.5596 171.314 99.5996 172.428 99.6406 174.654V181H98.5859V174.733C98.5801 173.884 98.3955 173.254 98.0322 172.844C97.6748 172.434 97.0889 172.229 96.2744 172.229C95.5186 172.24 94.8799 172.486 94.3584 172.967C93.8369 173.441 93.5469 174.021 93.4883 174.707V181H92.4336V174.654C92.4277 173.84 92.2344 173.233 91.8535 172.835C91.4785 172.431 90.8984 172.229 90.1133 172.229C89.4512 172.229 88.8828 172.419 88.4082 172.8C87.9336 173.175 87.582 173.734 87.3535 174.479V181H86.2988V171.49H87.3096ZM103.49 181H102.436V171.49H103.49V181ZM102.251 168.739C102.251 168.54 102.315 168.373 102.444 168.238C102.573 168.098 102.749 168.027 102.972 168.027C103.194 168.027 103.37 168.098 103.499 168.238C103.634 168.373 103.701 168.54 103.701 168.739C103.701 168.938 103.634 169.105 103.499 169.24C103.37 169.375 103.194 169.442 102.972 169.442C102.749 169.442 102.573 169.375 102.444 169.24C102.315 169.105 102.251 168.938 102.251 168.739ZM107.533 181H106.479V167.5H107.533V181ZM111.576 181H110.521V171.49H111.576V181ZM110.337 168.739C110.337 168.54 110.401 168.373 110.53 168.238C110.659 168.098 110.835 168.027 111.058 168.027C111.28 168.027 111.456 168.098 111.585 168.238C111.72 168.373 111.787 168.54 111.787 168.739C111.787 168.938 111.72 169.105 111.585 169.24C111.456 169.375 111.28 169.442 111.058 169.442C110.835 169.442 110.659 169.375 110.53 169.24C110.401 169.105 110.337 168.938 110.337 168.739ZM120.444 181C120.339 180.701 120.271 180.259 120.242 179.673C119.873 180.153 119.401 180.525 118.827 180.789C118.259 181.047 117.655 181.176 117.017 181.176C116.103 181.176 115.361 180.921 114.793 180.411C114.23 179.901 113.949 179.257 113.949 178.478C113.949 177.552 114.333 176.819 115.101 176.28C115.874 175.741 116.949 175.472 118.326 175.472H120.233V174.391C120.233 173.711 120.022 173.178 119.601 172.791C119.185 172.398 118.575 172.202 117.772 172.202C117.04 172.202 116.434 172.39 115.953 172.765C115.473 173.14 115.232 173.591 115.232 174.118L114.178 174.109C114.178 173.354 114.529 172.7 115.232 172.149C115.936 171.593 116.8 171.314 117.825 171.314C118.886 171.314 119.721 171.581 120.33 172.114C120.945 172.642 121.262 173.38 121.279 174.329V178.829C121.279 179.749 121.376 180.438 121.569 180.895V181H120.444ZM117.14 180.244C117.843 180.244 118.47 180.074 119.021 179.734C119.577 179.395 119.981 178.94 120.233 178.372V176.28H118.353C117.304 176.292 116.483 176.485 115.892 176.86C115.3 177.229 115.004 177.739 115.004 178.39C115.004 178.923 115.2 179.365 115.593 179.717C115.991 180.068 116.507 180.244 117.14 180.244ZM128.486 172.387C128.264 172.346 128.026 172.325 127.774 172.325C127.118 172.325 126.562 172.51 126.104 172.879C125.653 173.242 125.331 173.772 125.138 174.47V181H124.092V171.49H125.12L125.138 173.002C125.694 171.877 126.588 171.314 127.818 171.314C128.111 171.314 128.343 171.353 128.513 171.429L128.486 172.387ZM136.81 178.812L136.968 179.629L137.179 178.768L139.464 171.49H140.36L142.619 178.706L142.865 179.708L143.067 178.785L145.019 171.49H146.108L143.34 181H142.443L140 173.459L139.886 172.94L139.771 173.468L137.372 181H136.476L133.716 171.49H134.797L136.81 178.812ZM149.281 181H148.227V171.49H149.281V181ZM148.042 168.739C148.042 168.54 148.106 168.373 148.235 168.238C148.364 168.098 148.54 168.027 148.763 168.027C148.985 168.027 149.161 168.098 149.29 168.238C149.425 168.373 149.492 168.54 149.492 168.739C149.492 168.938 149.425 169.105 149.29 169.24C149.161 169.375 148.985 169.442 148.763 169.442C148.54 169.442 148.364 169.375 148.235 169.24C148.106 169.105 148.042 168.938 148.042 168.739ZM153.781 169.056V171.49H155.75V172.352H153.781V178.688C153.781 179.216 153.875 179.608 154.062 179.866C154.256 180.124 154.575 180.253 155.021 180.253C155.196 180.253 155.48 180.224 155.873 180.165L155.917 181.026C155.642 181.126 155.267 181.176 154.792 181.176C154.071 181.176 153.547 180.968 153.219 180.552C152.891 180.13 152.727 179.512 152.727 178.697V172.352H150.978V171.49H152.727V169.056H153.781ZM158.976 173.099C159.321 172.53 159.764 172.091 160.303 171.78C160.842 171.47 161.431 171.314 162.069 171.314C163.089 171.314 163.848 171.602 164.346 172.176C164.844 172.75 165.096 173.611 165.102 174.76V181H164.056V174.751C164.05 173.901 163.868 173.269 163.511 172.853C163.159 172.437 162.594 172.229 161.814 172.229C161.164 172.229 160.587 172.434 160.083 172.844C159.585 173.248 159.216 173.796 158.976 174.487V181H157.93V167.5H158.976V173.099ZM173.82 169.056V171.49H175.789V172.352H173.82V178.688C173.82 179.216 173.914 179.608 174.102 179.866C174.295 180.124 174.614 180.253 175.06 180.253C175.235 180.253 175.52 180.224 175.912 180.165L175.956 181.026C175.681 181.126 175.306 181.176 174.831 181.176C174.11 181.176 173.586 180.968 173.258 180.552C172.93 180.13 172.766 179.512 172.766 178.697V172.352H171.017V171.49H172.766V169.056H173.82ZM179.015 173.099C179.36 172.53 179.803 172.091 180.342 171.78C180.881 171.47 181.47 171.314 182.108 171.314C183.128 171.314 183.887 171.602 184.385 172.176C184.883 172.75 185.135 173.611 185.141 174.76V181H184.095V174.751C184.089 173.901 183.907 173.269 183.55 172.853C183.198 172.437 182.633 172.229 181.854 172.229C181.203 172.229 180.626 172.434 180.122 172.844C179.624 173.248 179.255 173.796 179.015 174.487V181H177.969V167.5H179.015V173.099ZM191.53 181.176C190.722 181.176 189.989 180.977 189.333 180.578C188.683 180.18 188.176 179.626 187.812 178.917C187.449 178.202 187.268 177.402 187.268 176.518V176.14C187.268 175.226 187.443 174.402 187.795 173.67C188.152 172.938 188.647 172.363 189.28 171.947C189.913 171.525 190.599 171.314 191.337 171.314C192.491 171.314 193.405 171.71 194.079 172.501C194.759 173.286 195.099 174.361 195.099 175.727V176.315H188.313V176.518C188.313 177.596 188.621 178.495 189.236 179.216C189.857 179.931 190.637 180.288 191.574 180.288C192.137 180.288 192.632 180.186 193.06 179.98C193.493 179.775 193.886 179.447 194.237 178.996L194.896 179.497C194.123 180.616 193.001 181.176 191.53 181.176ZM191.337 172.211C190.546 172.211 189.878 172.501 189.333 173.081C188.794 173.661 188.466 174.44 188.349 175.419H194.053V175.305C194.023 174.391 193.763 173.646 193.271 173.072C192.778 172.498 192.134 172.211 191.337 172.211ZM91.4932 198.342C91.4932 199.824 91.165 201.002 90.5088 201.875C89.8525 202.742 88.9707 203.176 87.8633 203.176C86.5391 203.176 85.5371 202.684 84.8574 201.699L84.8135 203H83.8291V189.5H84.875V194.87C85.543 193.833 86.5332 193.314 87.8457 193.314C88.9707 193.314 89.8584 193.745 90.5088 194.606C91.165 195.462 91.4932 196.654 91.4932 198.184V198.342ZM90.4385 198.157C90.4385 196.903 90.1953 195.937 89.709 195.257C89.2227 194.571 88.5371 194.229 87.6523 194.229C86.9785 194.229 86.4072 194.396 85.9385 194.729C85.4697 195.058 85.1152 195.541 84.875 196.18V200.469C85.4023 201.664 86.334 202.262 87.6699 202.262C88.5371 202.262 89.2139 201.919 89.7002 201.233C90.1924 200.548 90.4385 199.522 90.4385 198.157ZM99.9395 201.796C99.3066 202.716 98.2959 203.176 96.9072 203.176C95.8936 203.176 95.123 202.883 94.5957 202.297C94.0684 201.705 93.7988 200.832 93.7871 199.678V193.49H94.833V199.546C94.833 201.356 95.5654 202.262 97.0303 202.262C98.5537 202.262 99.5176 201.632 99.9219 200.372V193.49H100.977V203H99.957L99.9395 201.796ZM104.896 203H103.842V193.49H104.896V203ZM103.657 190.739C103.657 190.54 103.722 190.373 103.851 190.238C103.979 190.098 104.155 190.027 104.378 190.027C104.601 190.027 104.776 190.098 104.905 190.238C105.04 190.373 105.107 190.54 105.107 190.739C105.107 190.938 105.04 191.105 104.905 191.24C104.776 191.375 104.601 191.442 104.378 191.442C104.155 191.442 103.979 191.375 103.851 191.24C103.722 191.105 103.657 190.938 103.657 190.739ZM108.939 203H107.885V189.5H108.939V203ZM111.383 198.157C111.383 196.681 111.711 195.506 112.367 194.633C113.029 193.754 113.926 193.314 115.057 193.314C116.34 193.314 117.318 193.821 117.992 194.835V189.5H119.038V203H118.054L118.01 201.734C117.336 202.695 116.346 203.176 115.039 203.176C113.943 203.176 113.059 202.736 112.385 201.857C111.717 200.973 111.383 199.78 111.383 198.28V198.157ZM112.446 198.342C112.446 199.555 112.689 200.513 113.176 201.216C113.662 201.913 114.348 202.262 115.232 202.262C116.527 202.262 117.447 201.69 117.992 200.548V196.083C117.447 194.847 116.533 194.229 115.25 194.229C114.365 194.229 113.677 194.577 113.185 195.274C112.692 195.966 112.446 196.988 112.446 198.342ZM122.984 203H121.93V193.49H122.984V203ZM121.745 190.739C121.745 190.54 121.81 190.373 121.938 190.238C122.067 190.098 122.243 190.027 122.466 190.027C122.688 190.027 122.864 190.098 122.993 190.238C123.128 190.373 123.195 190.54 123.195 190.739C123.195 190.938 123.128 191.105 122.993 191.24C122.864 191.375 122.688 191.442 122.466 191.442C122.243 191.442 122.067 191.375 121.938 191.24C121.81 191.105 121.745 190.938 121.745 190.739ZM126.852 193.49L126.887 195.116C127.244 194.53 127.689 194.085 128.223 193.78C128.756 193.47 129.345 193.314 129.989 193.314C131.009 193.314 131.768 193.602 132.266 194.176C132.764 194.75 133.016 195.611 133.021 196.76V203H131.976V196.751C131.97 195.901 131.788 195.269 131.431 194.853C131.079 194.437 130.514 194.229 129.734 194.229C129.084 194.229 128.507 194.434 128.003 194.844C127.505 195.248 127.136 195.796 126.896 196.487V203H125.85V193.49H126.852ZM135.324 198.157C135.324 196.669 135.652 195.491 136.309 194.624C136.971 193.751 137.867 193.314 138.998 193.314C140.293 193.314 141.277 193.83 141.951 194.861L142.004 193.49H142.988V202.807C142.988 204.031 142.646 205.001 141.96 205.716C141.274 206.431 140.346 206.788 139.174 206.788C138.512 206.788 137.879 206.639 137.275 206.34C136.678 206.047 136.206 205.654 135.86 205.162L136.449 204.529C137.193 205.443 138.078 205.9 139.104 205.9C139.982 205.9 140.668 205.64 141.16 205.118C141.652 204.603 141.907 203.885 141.925 202.965V201.77C141.251 202.707 140.27 203.176 138.98 203.176C137.879 203.176 136.994 202.736 136.326 201.857C135.658 200.979 135.324 199.792 135.324 198.298V198.157ZM136.388 198.342C136.388 199.555 136.631 200.513 137.117 201.216C137.604 201.913 138.289 202.262 139.174 202.262C140.469 202.262 141.386 201.682 141.925 200.521V196.101C141.679 195.491 141.324 195.028 140.861 194.712C140.398 194.39 139.842 194.229 139.191 194.229C138.307 194.229 137.618 194.577 137.126 195.274C136.634 195.966 136.388 196.988 136.388 198.342ZM147.664 199.449C147.676 198.758 147.77 198.201 147.945 197.779C148.121 197.357 148.499 196.862 149.079 196.294C149.659 195.72 150.031 195.315 150.195 195.081C150.365 194.841 150.494 194.58 150.582 194.299C150.676 194.012 150.723 193.687 150.723 193.323C150.723 192.591 150.526 192.017 150.134 191.601C149.747 191.179 149.205 190.968 148.508 190.968C147.805 190.968 147.236 191.17 146.803 191.574C146.375 191.973 146.155 192.515 146.144 193.2H145.098C145.109 192.239 145.435 191.472 146.073 190.897C146.712 190.317 147.523 190.027 148.508 190.027C149.516 190.027 150.31 190.323 150.89 190.915C151.476 191.501 151.769 192.298 151.769 193.306C151.769 193.938 151.625 194.533 151.338 195.09C151.051 195.641 150.506 196.285 149.703 197.023C149.041 197.58 148.71 198.389 148.71 199.449H147.664ZM147.523 202.385C147.523 202.186 147.585 202.019 147.708 201.884C147.837 201.743 148.016 201.673 148.244 201.673C148.467 201.673 148.643 201.743 148.771 201.884C148.906 202.019 148.974 202.186 148.974 202.385C148.974 202.578 148.906 202.742 148.771 202.877C148.643 203.006 148.467 203.07 148.244 203.07C148.016 203.07 147.837 203.006 147.708 202.877C147.585 202.742 147.523 202.578 147.523 202.385Z" fill="black"/>
</svg>
