<svg width="235" height="235" viewBox="0 0 235 235" fill="none" xmlns="http://www.w3.org/2000/svg">
<rect width="235" height="235" rx="10" fill="#F5F5F5"/>
<path d="M15.6211 133.546L16.0166 135.532L16.5 133.634L19.2773 124.203H20.2529L22.9951 133.634L23.4697 135.55L23.8916 133.546L26.2031 124.203H27.3105L24.0322 137H22.9951L20.0947 126.989L19.7695 125.724L19.4531 126.989L16.4824 137H15.4453L12.1758 124.203H13.2832L15.6211 133.546ZM30.1934 129.099C30.5391 128.53 30.9814 128.091 31.5205 127.78C32.0596 127.47 32.6484 127.314 33.2871 127.314C34.3066 127.314 35.0654 127.602 35.5635 128.176C36.0615 128.75 36.3135 129.611 36.3193 130.76V137H35.2734V130.751C35.2676 129.901 35.0859 129.269 34.7285 128.853C34.377 128.437 33.8115 128.229 33.0322 128.229C32.3818 128.229 31.8047 128.434 31.3008 128.844C30.8027 129.248 30.4336 129.796 30.1934 130.487V137H29.1475V123.5H30.1934V129.099ZM45.0293 137C44.9238 136.701 44.8564 136.259 44.8271 135.673C44.458 136.153 43.9863 136.525 43.4121 136.789C42.8438 137.047 42.2402 137.176 41.6016 137.176C40.6875 137.176 39.9463 136.921 39.3779 136.411C38.8154 135.901 38.5342 135.257 38.5342 134.478C38.5342 133.552 38.918 132.819 39.6855 132.28C40.459 131.741 41.5342 131.472 42.9111 131.472H44.8184V130.391C44.8184 129.711 44.6074 129.178 44.1855 128.791C43.7695 128.398 43.1602 128.202 42.3574 128.202C41.625 128.202 41.0186 128.39 40.5381 128.765C40.0576 129.14 39.8174 129.591 39.8174 130.118L38.7627 130.109C38.7627 129.354 39.1143 128.7 39.8174 128.149C40.5205 127.593 41.3848 127.314 42.4102 127.314C43.4707 127.314 44.3057 127.581 44.915 128.114C45.5303 128.642 45.8467 129.38 45.8643 130.329V134.829C45.8643 135.749 45.9609 136.438 46.1543 136.895V137H45.0293ZM41.7246 136.244C42.4277 136.244 43.0547 136.074 43.6055 135.734C44.1621 135.395 44.5664 134.94 44.8184 134.372V132.28H42.9375C41.8887 132.292 41.0684 132.485 40.4766 132.86C39.8848 133.229 39.5889 133.739 39.5889 134.39C39.5889 134.923 39.7852 135.365 40.1777 135.717C40.5762 136.068 41.0918 136.244 41.7246 136.244ZM50.3115 125.056V127.49H52.2803V128.352H50.3115V134.688C50.3115 135.216 50.4053 135.608 50.5928 135.866C50.7861 136.124 51.1055 136.253 51.5508 136.253C51.7266 136.253 52.0107 136.224 52.4033 136.165L52.4473 137.026C52.1719 137.126 51.7969 137.176 51.3223 137.176C50.6016 137.176 50.0771 136.968 49.749 136.552C49.4209 136.13 49.2568 135.512 49.2568 134.697V128.352H47.5078V127.49H49.2568V125.056H50.3115ZM64.8398 137C64.7344 136.701 64.667 136.259 64.6377 135.673C64.2686 136.153 63.7969 136.525 63.2227 136.789C62.6543 137.047 62.0508 137.176 61.4121 137.176C60.498 137.176 59.7568 136.921 59.1885 136.411C58.626 135.901 58.3447 135.257 58.3447 134.478C58.3447 133.552 58.7285 132.819 59.4961 132.28C60.2695 131.741 61.3447 131.472 62.7217 131.472H64.6289V130.391C64.6289 129.711 64.418 129.178 63.9961 128.791C63.5801 128.398 62.9707 128.202 62.168 128.202C61.4355 128.202 60.8291 128.39 60.3486 128.765C59.8682 129.14 59.6279 129.591 59.6279 130.118L58.5732 130.109C58.5732 129.354 58.9248 128.7 59.6279 128.149C60.3311 127.593 61.1953 127.314 62.2207 127.314C63.2812 127.314 64.1162 127.581 64.7256 128.114C65.3408 128.642 65.6572 129.38 65.6748 130.329V134.829C65.6748 135.749 65.7715 136.438 65.9648 136.895V137H64.8398ZM61.5352 136.244C62.2383 136.244 62.8652 136.074 63.416 135.734C63.9727 135.395 64.377 134.94 64.6289 134.372V132.28H62.748C61.6992 132.292 60.8789 132.485 60.2871 132.86C59.6953 133.229 59.3994 133.739 59.3994 134.39C59.3994 134.923 59.5957 135.365 59.9883 135.717C60.3867 136.068 60.9023 136.244 61.5352 136.244ZM72.8818 128.387C72.6592 128.346 72.4219 128.325 72.1699 128.325C71.5137 128.325 70.957 128.51 70.5 128.879C70.0488 129.242 69.7266 129.772 69.5332 130.47V137H68.4873V127.49H69.5156L69.5332 129.002C70.0898 127.877 70.9834 127.314 72.2139 127.314C72.5068 127.314 72.7383 127.353 72.9082 127.429L72.8818 128.387ZM78.0586 137.176C77.25 137.176 76.5176 136.977 75.8613 136.578C75.2109 136.18 74.7041 135.626 74.3408 134.917C73.9775 134.202 73.7959 133.402 73.7959 132.518V132.14C73.7959 131.226 73.9717 130.402 74.3232 129.67C74.6807 128.938 75.1758 128.363 75.8086 127.947C76.4414 127.525 77.127 127.314 77.8652 127.314C79.0195 127.314 79.9336 127.71 80.6074 128.501C81.2871 129.286 81.627 130.361 81.627 131.727V132.315H74.8418V132.518C74.8418 133.596 75.1494 134.495 75.7646 135.216C76.3857 135.931 77.165 136.288 78.1025 136.288C78.665 136.288 79.1602 136.186 79.5879 135.98C80.0215 135.775 80.4141 135.447 80.7656 134.996L81.4248 135.497C80.6514 136.616 79.5293 137.176 78.0586 137.176ZM77.8652 128.211C77.0742 128.211 76.4062 128.501 75.8613 129.081C75.3223 129.661 74.9941 130.44 74.877 131.419H80.5811V131.305C80.5518 130.391 80.291 129.646 79.7988 129.072C79.3066 128.498 78.6621 128.211 77.8652 128.211ZM93.7471 134.583C93.7471 134.062 93.5361 133.643 93.1143 133.326C92.6982 133.01 92.0684 132.764 91.2246 132.588C90.3809 132.406 89.7246 132.201 89.2559 131.973C88.793 131.738 88.4473 131.454 88.2188 131.12C87.9961 130.786 87.8848 130.382 87.8848 129.907C87.8848 129.157 88.1982 128.539 88.8252 128.053C89.4521 127.561 90.2549 127.314 91.2334 127.314C92.2939 127.314 93.1436 127.578 93.7822 128.105C94.4268 128.627 94.749 129.31 94.749 130.153H93.6943C93.6943 129.597 93.46 129.134 92.9912 128.765C92.5283 128.396 91.9424 128.211 91.2334 128.211C90.542 128.211 89.9854 128.366 89.5635 128.677C89.1475 128.981 88.9395 129.38 88.9395 129.872C88.9395 130.347 89.1123 130.716 89.458 130.979C89.8096 131.237 90.4453 131.475 91.3652 131.691C92.291 131.908 92.9824 132.14 93.4395 132.386C93.9023 132.632 94.2451 132.928 94.4678 133.273C94.6904 133.619 94.8018 134.038 94.8018 134.53C94.8018 135.333 94.4766 135.975 93.8262 136.455C93.1816 136.936 92.3379 137.176 91.2949 137.176C90.1875 137.176 89.2881 136.909 88.5967 136.376C87.9111 135.837 87.5684 135.157 87.5684 134.337H88.623C88.6641 134.952 88.9219 135.433 89.3965 135.778C89.877 136.118 90.5098 136.288 91.2949 136.288C92.0273 136.288 92.6191 136.127 93.0703 135.805C93.5215 135.482 93.7471 135.075 93.7471 134.583ZM96.5947 132.104C96.5947 131.19 96.7705 130.367 97.1221 129.635C97.4795 128.902 97.9805 128.334 98.625 127.93C99.2754 127.52 100.011 127.314 100.831 127.314C102.097 127.314 103.122 127.76 103.907 128.65C104.692 129.535 105.085 130.71 105.085 132.175V132.395C105.085 133.314 104.906 134.144 104.549 134.882C104.197 135.614 103.699 136.18 103.055 136.578C102.41 136.977 101.675 137.176 100.849 137.176C99.5889 137.176 98.5635 136.733 97.7725 135.849C96.9873 134.958 96.5947 133.78 96.5947 132.315V132.104ZM97.6494 132.395C97.6494 133.531 97.9424 134.466 98.5283 135.198C99.1201 135.925 99.8936 136.288 100.849 136.288C101.798 136.288 102.565 135.925 103.151 135.198C103.743 134.466 104.039 133.502 104.039 132.307V132.104C104.039 131.378 103.904 130.713 103.635 130.109C103.365 129.506 102.987 129.04 102.501 128.712C102.015 128.378 101.458 128.211 100.831 128.211C99.8936 128.211 99.1289 128.58 98.5371 129.318C97.9453 130.051 97.6494 131.012 97.6494 132.201V132.395ZM108.223 127.49L108.258 129.037C108.609 128.463 109.049 128.032 109.576 127.745C110.104 127.458 110.689 127.314 111.334 127.314C112.834 127.314 113.786 127.93 114.19 129.16C114.53 128.568 114.984 128.114 115.553 127.798C116.121 127.476 116.748 127.314 117.434 127.314C119.473 127.314 120.513 128.428 120.554 130.654V137H119.499V130.733C119.493 129.884 119.309 129.254 118.945 128.844C118.588 128.434 118.002 128.229 117.188 128.229C116.432 128.24 115.793 128.486 115.271 128.967C114.75 129.441 114.46 130.021 114.401 130.707V137H113.347V130.654C113.341 129.84 113.147 129.233 112.767 128.835C112.392 128.431 111.812 128.229 111.026 128.229C110.364 128.229 109.796 128.419 109.321 128.8C108.847 129.175 108.495 129.734 108.267 130.479V137H107.212V127.49H108.223ZM126.908 137.176C126.1 137.176 125.367 136.977 124.711 136.578C124.061 136.18 123.554 135.626 123.19 134.917C122.827 134.202 122.646 133.402 122.646 132.518V132.14C122.646 131.226 122.821 130.402 123.173 129.67C123.53 128.938 124.025 128.363 124.658 127.947C125.291 127.525 125.977 127.314 126.715 127.314C127.869 127.314 128.783 127.71 129.457 128.501C130.137 129.286 130.477 130.361 130.477 131.727V132.315H123.691V132.518C123.691 133.596 123.999 134.495 124.614 135.216C125.235 135.931 126.015 136.288 126.952 136.288C127.515 136.288 128.01 136.186 128.438 135.98C128.871 135.775 129.264 135.447 129.615 134.996L130.274 135.497C129.501 136.616 128.379 137.176 126.908 137.176ZM126.715 128.211C125.924 128.211 125.256 128.501 124.711 129.081C124.172 129.661 123.844 130.44 123.727 131.419H129.431V131.305C129.401 130.391 129.141 129.646 128.648 129.072C128.156 128.498 127.512 128.211 126.715 128.211ZM137.859 127.49L137.895 129.037C138.246 128.463 138.686 128.032 139.213 127.745C139.74 127.458 140.326 127.314 140.971 127.314C142.471 127.314 143.423 127.93 143.827 129.16C144.167 128.568 144.621 128.114 145.189 127.798C145.758 127.476 146.385 127.314 147.07 127.314C149.109 127.314 150.149 128.428 150.19 130.654V137H149.136V130.733C149.13 129.884 148.945 129.254 148.582 128.844C148.225 128.434 147.639 128.229 146.824 128.229C146.068 128.24 145.43 128.486 144.908 128.967C144.387 129.441 144.097 130.021 144.038 130.707V137H142.983V130.654C142.978 129.84 142.784 129.233 142.403 128.835C142.028 128.431 141.448 128.229 140.663 128.229C140.001 128.229 139.433 128.419 138.958 128.8C138.483 129.175 138.132 129.734 137.903 130.479V137H136.849V127.49H137.859ZM158.865 137C158.76 136.701 158.692 136.259 158.663 135.673C158.294 136.153 157.822 136.525 157.248 136.789C156.68 137.047 156.076 137.176 155.438 137.176C154.523 137.176 153.782 136.921 153.214 136.411C152.651 135.901 152.37 135.257 152.37 134.478C152.37 133.552 152.754 132.819 153.521 132.28C154.295 131.741 155.37 131.472 156.747 131.472H158.654V130.391C158.654 129.711 158.443 129.178 158.021 128.791C157.605 128.398 156.996 128.202 156.193 128.202C155.461 128.202 154.854 128.39 154.374 128.765C153.894 129.14 153.653 129.591 153.653 130.118L152.599 130.109C152.599 129.354 152.95 128.7 153.653 128.149C154.356 127.593 155.221 127.314 156.246 127.314C157.307 127.314 158.142 127.581 158.751 128.114C159.366 128.642 159.683 129.38 159.7 130.329V134.829C159.7 135.749 159.797 136.438 159.99 136.895V137H158.865ZM155.561 136.244C156.264 136.244 156.891 136.074 157.441 135.734C157.998 135.395 158.402 134.94 158.654 134.372V132.28H156.773C155.725 132.292 154.904 132.485 154.312 132.86C153.721 133.229 153.425 133.739 153.425 134.39C153.425 134.923 153.621 135.365 154.014 135.717C154.412 136.068 154.928 136.244 155.561 136.244ZM163.646 127.49V138.134C163.646 139.013 163.436 139.684 163.014 140.146C162.592 140.609 161.971 140.841 161.15 140.841C160.834 140.841 160.526 140.785 160.228 140.674L160.245 139.804C160.503 139.88 160.767 139.918 161.036 139.918C162.079 139.918 162.601 139.317 162.601 138.116V127.49H163.646ZM163.128 124.027C163.356 124.027 163.535 124.098 163.664 124.238C163.793 124.373 163.857 124.54 163.857 124.739C163.857 124.938 163.793 125.105 163.664 125.24C163.535 125.375 163.356 125.442 163.128 125.442C162.905 125.442 162.729 125.375 162.601 125.24C162.478 125.105 162.416 124.938 162.416 124.739C162.416 124.54 162.478 124.373 162.601 124.238C162.729 124.098 162.905 124.027 163.128 124.027ZM166.046 132.104C166.046 131.19 166.222 130.367 166.573 129.635C166.931 128.902 167.432 128.334 168.076 127.93C168.727 127.52 169.462 127.314 170.282 127.314C171.548 127.314 172.573 127.76 173.358 128.65C174.144 129.535 174.536 130.71 174.536 132.175V132.395C174.536 133.314 174.357 134.144 174 134.882C173.648 135.614 173.15 136.18 172.506 136.578C171.861 136.977 171.126 137.176 170.3 137.176C169.04 137.176 168.015 136.733 167.224 135.849C166.438 134.958 166.046 133.78 166.046 132.315V132.104ZM167.101 132.395C167.101 133.531 167.394 134.466 167.979 135.198C168.571 135.925 169.345 136.288 170.3 136.288C171.249 136.288 172.017 135.925 172.603 135.198C173.194 134.466 173.49 133.502 173.49 132.307V132.104C173.49 131.378 173.355 130.713 173.086 130.109C172.816 129.506 172.438 129.04 171.952 128.712C171.466 128.378 170.909 128.211 170.282 128.211C169.345 128.211 168.58 128.58 167.988 129.318C167.396 130.051 167.101 131.012 167.101 132.201V132.395ZM181.11 128.387C180.888 128.346 180.65 128.325 180.398 128.325C179.742 128.325 179.186 128.51 178.729 128.879C178.277 129.242 177.955 129.772 177.762 130.47V137H176.716V127.49H177.744L177.762 129.002C178.318 127.877 179.212 127.314 180.442 127.314C180.735 127.314 180.967 127.353 181.137 127.429L181.11 128.387ZM194.804 132.342C194.804 133.824 194.476 135.002 193.819 135.875C193.163 136.742 192.284 137.176 191.183 137.176C189.882 137.176 188.886 136.719 188.194 135.805V140.656H187.148V127.49H188.124L188.177 128.835C188.862 127.821 189.855 127.314 191.156 127.314C192.293 127.314 193.184 127.745 193.828 128.606C194.479 129.468 194.804 130.663 194.804 132.192V132.342ZM193.749 132.157C193.749 130.944 193.5 129.986 193.002 129.283C192.504 128.58 191.81 128.229 190.919 128.229C190.274 128.229 189.721 128.384 189.258 128.694C188.795 129.005 188.44 129.456 188.194 130.048V134.609C188.446 135.154 188.807 135.57 189.275 135.857C189.744 136.145 190.298 136.288 190.937 136.288C191.821 136.288 192.51 135.937 193.002 135.233C193.5 134.524 193.749 133.499 193.749 132.157ZM203.145 137C203.039 136.701 202.972 136.259 202.942 135.673C202.573 136.153 202.102 136.525 201.527 136.789C200.959 137.047 200.355 137.176 199.717 137.176C198.803 137.176 198.062 136.921 197.493 136.411C196.931 135.901 196.649 135.257 196.649 134.478C196.649 133.552 197.033 132.819 197.801 132.28C198.574 131.741 199.649 131.472 201.026 131.472H202.934V130.391C202.934 129.711 202.723 129.178 202.301 128.791C201.885 128.398 201.275 128.202 200.473 128.202C199.74 128.202 199.134 128.39 198.653 128.765C198.173 129.14 197.933 129.591 197.933 130.118L196.878 130.109C196.878 129.354 197.229 128.7 197.933 128.149C198.636 127.593 199.5 127.314 200.525 127.314C201.586 127.314 202.421 127.581 203.03 128.114C203.646 128.642 203.962 129.38 203.979 130.329V134.829C203.979 135.749 204.076 136.438 204.27 136.895V137H203.145ZM199.84 136.244C200.543 136.244 201.17 136.074 201.721 135.734C202.277 135.395 202.682 134.94 202.934 134.372V132.28H201.053C200.004 132.292 199.184 132.485 198.592 132.86C198 133.229 197.704 133.739 197.704 134.39C197.704 134.923 197.9 135.365 198.293 135.717C198.691 136.068 199.207 136.244 199.84 136.244ZM207.97 137H206.915V127.49H207.97V137ZM206.73 124.739C206.73 124.54 206.795 124.373 206.924 124.238C207.053 124.098 207.229 124.027 207.451 124.027C207.674 124.027 207.85 124.098 207.979 124.238C208.113 124.373 208.181 124.54 208.181 124.739C208.181 124.938 208.113 125.105 207.979 125.24C207.85 125.375 207.674 125.442 207.451 125.442C207.229 125.442 207.053 125.375 206.924 125.24C206.795 125.105 206.73 124.938 206.73 124.739ZM211.837 127.49L211.872 129.116C212.229 128.53 212.675 128.085 213.208 127.78C213.741 127.47 214.33 127.314 214.975 127.314C215.994 127.314 216.753 127.602 217.251 128.176C217.749 128.75 218.001 129.611 218.007 130.76V137H216.961V130.751C216.955 129.901 216.773 129.269 216.416 128.853C216.064 128.437 215.499 128.229 214.72 128.229C214.069 128.229 213.492 128.434 212.988 128.844C212.49 129.248 212.121 129.796 211.881 130.487V137H210.835V127.49H211.837ZM23.8213 154.342C23.8213 155.824 23.4932 157.002 22.8369 157.875C22.1807 158.742 21.3018 159.176 20.2002 159.176C18.8994 159.176 17.9033 158.719 17.2119 157.805V162.656H16.166V149.49H17.1416L17.1943 150.835C17.8799 149.821 18.873 149.314 20.1738 149.314C21.3105 149.314 22.2012 149.745 22.8457 150.606C23.4961 151.468 23.8213 152.663 23.8213 154.192V154.342ZM22.7666 154.157C22.7666 152.944 22.5176 151.986 22.0195 151.283C21.5215 150.58 20.8271 150.229 19.9365 150.229C19.292 150.229 18.7383 150.384 18.2754 150.694C17.8125 151.005 17.458 151.456 17.2119 152.048V156.609C17.4639 157.154 17.8242 157.57 18.293 157.857C18.7617 158.145 19.3154 158.288 19.9541 158.288C20.8389 158.288 21.5273 157.937 22.0195 157.233C22.5176 156.524 22.7666 155.499 22.7666 154.157ZM25.5791 154.104C25.5791 153.19 25.7549 152.367 26.1064 151.635C26.4639 150.902 26.9648 150.334 27.6094 149.93C28.2598 149.52 28.9951 149.314 29.8154 149.314C31.0811 149.314 32.1064 149.76 32.8916 150.65C33.6768 151.535 34.0693 152.71 34.0693 154.175V154.395C34.0693 155.314 33.8906 156.144 33.5332 156.882C33.1816 157.614 32.6836 158.18 32.0391 158.578C31.3945 158.977 30.6592 159.176 29.833 159.176C28.5732 159.176 27.5479 158.733 26.7568 157.849C25.9717 156.958 25.5791 155.78 25.5791 154.315V154.104ZM26.6338 154.395C26.6338 155.531 26.9268 156.466 27.5127 157.198C28.1045 157.925 28.8779 158.288 29.833 158.288C30.7822 158.288 31.5498 157.925 32.1357 157.198C32.7275 156.466 33.0234 155.502 33.0234 154.307V154.104C33.0234 153.378 32.8887 152.713 32.6191 152.109C32.3496 151.506 31.9717 151.04 31.4854 150.712C30.999 150.378 30.4424 150.211 29.8154 150.211C28.8779 150.211 28.1133 150.58 27.5215 151.318C26.9297 152.051 26.6338 153.012 26.6338 154.201V154.395ZM37.4268 159H36.3721V149.49H37.4268V159ZM36.1875 146.739C36.1875 146.54 36.252 146.373 36.3809 146.238C36.5098 146.098 36.6855 146.027 36.9082 146.027C37.1309 146.027 37.3066 146.098 37.4355 146.238C37.5703 146.373 37.6377 146.54 37.6377 146.739C37.6377 146.938 37.5703 147.105 37.4355 147.24C37.3066 147.375 37.1309 147.442 36.9082 147.442C36.6855 147.442 36.5098 147.375 36.3809 147.24C36.252 147.105 36.1875 146.938 36.1875 146.739ZM41.2939 149.49L41.3291 151.116C41.6865 150.53 42.1318 150.085 42.665 149.78C43.1982 149.47 43.7871 149.314 44.4316 149.314C45.4512 149.314 46.21 149.602 46.708 150.176C47.2061 150.75 47.458 151.611 47.4639 152.76V159H46.418V152.751C46.4121 151.901 46.2305 151.269 45.873 150.853C45.5215 150.437 44.9561 150.229 44.1768 150.229C43.5264 150.229 42.9492 150.434 42.4453 150.844C41.9473 151.248 41.5781 151.796 41.3379 152.487V159H40.292V149.49H41.2939ZM51.8232 147.056V149.49H53.792V150.352H51.8232V156.688C51.8232 157.216 51.917 157.608 52.1045 157.866C52.2979 158.124 52.6172 158.253 53.0625 158.253C53.2383 158.253 53.5225 158.224 53.915 158.165L53.959 159.026C53.6836 159.126 53.3086 159.176 52.834 159.176C52.1133 159.176 51.5889 158.968 51.2607 158.552C50.9326 158.13 50.7686 157.512 50.7686 156.697V150.352H49.0195V149.49H50.7686V147.056H51.8232ZM61.667 156.583C61.667 156.062 61.4561 155.643 61.0342 155.326C60.6182 155.01 59.9883 154.764 59.1445 154.588C58.3008 154.406 57.6445 154.201 57.1758 153.973C56.7129 153.738 56.3672 153.454 56.1387 153.12C55.916 152.786 55.8047 152.382 55.8047 151.907C55.8047 151.157 56.1182 150.539 56.7451 150.053C57.3721 149.561 58.1748 149.314 59.1533 149.314C60.2139 149.314 61.0635 149.578 61.7021 150.105C62.3467 150.627 62.6689 151.31 62.6689 152.153H61.6143C61.6143 151.597 61.3799 151.134 60.9111 150.765C60.4482 150.396 59.8623 150.211 59.1533 150.211C58.4619 150.211 57.9053 150.366 57.4834 150.677C57.0674 150.981 56.8594 151.38 56.8594 151.872C56.8594 152.347 57.0322 152.716 57.3779 152.979C57.7295 153.237 58.3652 153.475 59.2852 153.691C60.2109 153.908 60.9023 154.14 61.3594 154.386C61.8223 154.632 62.165 154.928 62.3877 155.273C62.6104 155.619 62.7217 156.038 62.7217 156.53C62.7217 157.333 62.3965 157.975 61.7461 158.455C61.1016 158.936 60.2578 159.176 59.2148 159.176C58.1074 159.176 57.208 158.909 56.5166 158.376C55.8311 157.837 55.4883 157.157 55.4883 156.337H56.543C56.584 156.952 56.8418 157.433 57.3164 157.778C57.7969 158.118 58.4297 158.288 59.2148 158.288C59.9473 158.288 60.5391 158.127 60.9902 157.805C61.4414 157.482 61.667 157.075 61.667 156.583ZM71.1064 147.056V149.49H73.0752V150.352H71.1064V156.688C71.1064 157.216 71.2002 157.608 71.3877 157.866C71.5811 158.124 71.9004 158.253 72.3457 158.253C72.5215 158.253 72.8057 158.224 73.1982 158.165L73.2422 159.026C72.9668 159.126 72.5918 159.176 72.1172 159.176C71.3965 159.176 70.8721 158.968 70.5439 158.552C70.2158 158.13 70.0518 157.512 70.0518 156.697V150.352H68.3027V149.49H70.0518V147.056H71.1064ZM76.3008 151.099C76.6465 150.53 77.0889 150.091 77.6279 149.78C78.167 149.47 78.7559 149.314 79.3945 149.314C80.4141 149.314 81.1729 149.602 81.6709 150.176C82.1689 150.75 82.4209 151.611 82.4268 152.76V159H81.3809V152.751C81.375 151.901 81.1934 151.269 80.8359 150.853C80.4844 150.437 79.9189 150.229 79.1396 150.229C78.4893 150.229 77.9121 150.434 77.4082 150.844C76.9102 151.248 76.541 151.796 76.3008 152.487V159H75.2549V145.5H76.3008V151.099ZM88.8164 159.176C88.0078 159.176 87.2754 158.977 86.6191 158.578C85.9688 158.18 85.4619 157.626 85.0986 156.917C84.7354 156.202 84.5537 155.402 84.5537 154.518V154.14C84.5537 153.226 84.7295 152.402 85.0811 151.67C85.4385 150.938 85.9336 150.363 86.5664 149.947C87.1992 149.525 87.8848 149.314 88.623 149.314C89.7773 149.314 90.6914 149.71 91.3652 150.501C92.0449 151.286 92.3848 152.361 92.3848 153.727V154.315H85.5996V154.518C85.5996 155.596 85.9072 156.495 86.5225 157.216C87.1436 157.931 87.9229 158.288 88.8604 158.288C89.4229 158.288 89.918 158.186 90.3457 157.98C90.7793 157.775 91.1719 157.447 91.5234 156.996L92.1826 157.497C91.4092 158.616 90.2871 159.176 88.8164 159.176ZM88.623 150.211C87.832 150.211 87.1641 150.501 86.6191 151.081C86.0801 151.661 85.752 152.44 85.6348 153.419H91.3389V153.305C91.3096 152.391 91.0488 151.646 90.5566 151.072C90.0645 150.498 89.4199 150.211 88.623 150.211ZM97.3242 157.488L100.102 149.49H101.235L97.1748 160.617L96.9639 161.109C96.4424 162.264 95.6367 162.841 94.5469 162.841C94.2949 162.841 94.0254 162.8 93.7383 162.718L93.7295 161.848L94.2744 161.9C94.79 161.9 95.2061 161.771 95.5225 161.514C95.8447 161.262 96.1172 160.825 96.3398 160.204L96.8057 158.921L93.2197 149.49H94.3711L97.3242 157.488ZM110.763 158.288C111.495 158.288 112.107 158.083 112.6 157.673C113.098 157.257 113.367 156.721 113.408 156.064H114.419C114.39 156.645 114.208 157.175 113.874 157.655C113.54 158.13 113.095 158.502 112.538 158.771C111.987 159.041 111.396 159.176 110.763 159.176C109.515 159.176 108.524 158.742 107.792 157.875C107.065 157.008 106.702 155.842 106.702 154.377V154.061C106.702 153.123 106.866 152.294 107.194 151.573C107.522 150.853 107.991 150.296 108.601 149.903C109.216 149.511 109.934 149.314 110.754 149.314C111.797 149.314 112.655 149.625 113.329 150.246C114.009 150.867 114.372 151.685 114.419 152.698H113.408C113.361 151.954 113.092 151.354 112.6 150.896C112.113 150.439 111.498 150.211 110.754 150.211C109.805 150.211 109.066 150.554 108.539 151.239C108.018 151.925 107.757 152.886 107.757 154.122V154.43C107.757 155.643 108.018 156.589 108.539 157.269C109.066 157.948 109.808 158.288 110.763 158.288ZM122.646 157.796C122.013 158.716 121.002 159.176 119.613 159.176C118.6 159.176 117.829 158.883 117.302 158.297C116.774 157.705 116.505 156.832 116.493 155.678V149.49H117.539V155.546C117.539 157.356 118.271 158.262 119.736 158.262C121.26 158.262 122.224 157.632 122.628 156.372V149.49H123.683V159H122.663L122.646 157.796ZM130.819 150.387C130.597 150.346 130.359 150.325 130.107 150.325C129.451 150.325 128.895 150.51 128.438 150.879C127.986 151.242 127.664 151.772 127.471 152.47V159H126.425V149.49H127.453L127.471 151.002C128.027 149.877 128.921 149.314 130.151 149.314C130.444 149.314 130.676 149.353 130.846 149.429L130.819 150.387ZM136.884 150.387C136.661 150.346 136.424 150.325 136.172 150.325C135.516 150.325 134.959 150.51 134.502 150.879C134.051 151.242 133.729 151.772 133.535 152.47V159H132.489V149.49H133.518L133.535 151.002C134.092 149.877 134.985 149.314 136.216 149.314C136.509 149.314 136.74 149.353 136.91 149.429L136.884 150.387ZM142.061 159.176C141.252 159.176 140.52 158.977 139.863 158.578C139.213 158.18 138.706 157.626 138.343 156.917C137.979 156.202 137.798 155.402 137.798 154.518V154.14C137.798 153.226 137.974 152.402 138.325 151.67C138.683 150.938 139.178 150.363 139.811 149.947C140.443 149.525 141.129 149.314 141.867 149.314C143.021 149.314 143.936 149.71 144.609 150.501C145.289 151.286 145.629 152.361 145.629 153.727V154.315H138.844V154.518C138.844 155.596 139.151 156.495 139.767 157.216C140.388 157.931 141.167 158.288 142.104 158.288C142.667 158.288 143.162 158.186 143.59 157.98C144.023 157.775 144.416 157.447 144.768 156.996L145.427 157.497C144.653 158.616 143.531 159.176 142.061 159.176ZM141.867 150.211C141.076 150.211 140.408 150.501 139.863 151.081C139.324 151.661 138.996 152.44 138.879 153.419H144.583V153.305C144.554 152.391 144.293 151.646 143.801 151.072C143.309 150.498 142.664 150.211 141.867 150.211ZM148.679 149.49L148.714 151.116C149.071 150.53 149.517 150.085 150.05 149.78C150.583 149.47 151.172 149.314 151.816 149.314C152.836 149.314 153.595 149.602 154.093 150.176C154.591 150.75 154.843 151.611 154.849 152.76V159H153.803V152.751C153.797 151.901 153.615 151.269 153.258 150.853C152.906 150.437 152.341 150.229 151.562 150.229C150.911 150.229 150.334 150.434 149.83 150.844C149.332 151.248 148.963 151.796 148.723 152.487V159H147.677V149.49H148.679ZM159.208 147.056V149.49H161.177V150.352H159.208V156.688C159.208 157.216 159.302 157.608 159.489 157.866C159.683 158.124 160.002 158.253 160.447 158.253C160.623 158.253 160.907 158.224 161.3 158.165L161.344 159.026C161.068 159.126 160.693 159.176 160.219 159.176C159.498 159.176 158.974 158.968 158.646 158.552C158.317 158.13 158.153 157.512 158.153 156.697V150.352H156.404V149.49H158.153V147.056H159.208ZM164.534 159H163.479V145.5H164.534V159ZM170.414 157.488L173.191 149.49H174.325L170.265 160.617L170.054 161.109C169.532 162.264 168.727 162.841 167.637 162.841C167.385 162.841 167.115 162.8 166.828 162.718L166.819 161.848L167.364 161.9C167.88 161.9 168.296 161.771 168.612 161.514C168.935 161.262 169.207 160.825 169.43 160.204L169.896 158.921L166.31 149.49H167.461L170.414 157.488ZM181.383 151.099C181.729 150.53 182.171 150.091 182.71 149.78C183.249 149.47 183.838 149.314 184.477 149.314C185.496 149.314 186.255 149.602 186.753 150.176C187.251 150.75 187.503 151.611 187.509 152.76V159H186.463V152.751C186.457 151.901 186.275 151.269 185.918 150.853C185.566 150.437 185.001 150.229 184.222 150.229C183.571 150.229 182.994 150.434 182.49 150.844C181.992 151.248 181.623 151.796 181.383 152.487V159H180.337V145.5H181.383V151.099ZM196.219 159C196.113 158.701 196.046 158.259 196.017 157.673C195.647 158.153 195.176 158.525 194.602 158.789C194.033 159.047 193.43 159.176 192.791 159.176C191.877 159.176 191.136 158.921 190.567 158.411C190.005 157.901 189.724 157.257 189.724 156.478C189.724 155.552 190.107 154.819 190.875 154.28C191.648 153.741 192.724 153.472 194.101 153.472H196.008V152.391C196.008 151.711 195.797 151.178 195.375 150.791C194.959 150.398 194.35 150.202 193.547 150.202C192.814 150.202 192.208 150.39 191.728 150.765C191.247 151.14 191.007 151.591 191.007 152.118L189.952 152.109C189.952 151.354 190.304 150.7 191.007 150.149C191.71 149.593 192.574 149.314 193.6 149.314C194.66 149.314 195.495 149.581 196.104 150.114C196.72 150.642 197.036 151.38 197.054 152.329V156.829C197.054 157.749 197.15 158.438 197.344 158.895V159H196.219ZM192.914 158.244C193.617 158.244 194.244 158.074 194.795 157.734C195.352 157.395 195.756 156.94 196.008 156.372V154.28H194.127C193.078 154.292 192.258 154.485 191.666 154.86C191.074 155.229 190.778 155.739 190.778 156.39C190.778 156.923 190.975 157.365 191.367 157.717C191.766 158.068 192.281 158.244 192.914 158.244ZM202.688 157.55L205.579 149.49H206.66L203.109 159H202.257L198.688 149.49H199.77L202.688 157.55ZM211.951 159.176C211.143 159.176 210.41 158.977 209.754 158.578C209.104 158.18 208.597 157.626 208.233 156.917C207.87 156.202 207.688 155.402 207.688 154.518V154.14C207.688 153.226 207.864 152.402 208.216 151.67C208.573 150.938 209.068 150.363 209.701 149.947C210.334 149.525 211.02 149.314 211.758 149.314C212.912 149.314 213.826 149.71 214.5 150.501C215.18 151.286 215.52 152.361 215.52 153.727V154.315H208.734V154.518C208.734 155.596 209.042 156.495 209.657 157.216C210.278 157.931 211.058 158.288 211.995 158.288C212.558 158.288 213.053 158.186 213.48 157.98C213.914 157.775 214.307 157.447 214.658 156.996L215.317 157.497C214.544 158.616 213.422 159.176 211.951 159.176ZM211.758 150.211C210.967 150.211 210.299 150.501 209.754 151.081C209.215 151.661 208.887 152.44 208.77 153.419H214.474V153.305C214.444 152.391 214.184 151.646 213.691 151.072C213.199 150.498 212.555 150.211 211.758 150.211ZM56.3408 181V172.352H54.7588V171.49H56.3408V170.515C56.3408 169.501 56.6162 168.716 57.167 168.159C57.7178 167.597 58.4941 167.315 59.4961 167.315C60.2812 167.315 61.0898 167.488 61.9219 167.834L61.7461 168.739C61.0312 168.429 60.3047 168.273 59.5664 168.273C58.1191 168.273 57.3955 169.026 57.3955 170.532V171.49H59.6191V172.352H57.3955V181H56.3408ZM62.4932 181H61.4385V171.49H62.4932V181ZM66.3779 171.49L66.4131 173.116C66.7705 172.53 67.2158 172.085 67.749 171.78C68.2822 171.47 68.8711 171.314 69.5156 171.314C70.5352 171.314 71.2939 171.602 71.792 172.176C72.29 172.75 72.542 173.611 72.5479 174.76V181H71.502V174.751C71.4961 173.901 71.3145 173.269 70.957 172.853C70.6055 172.437 70.04 172.229 69.2607 172.229C68.6104 172.229 68.0332 172.434 67.5293 172.844C67.0312 173.248 66.6621 173.796 66.4219 174.487V181H65.376V171.49H66.3779ZM74.8506 176.157C74.8506 174.681 75.1787 173.506 75.835 172.633C76.4971 171.754 77.3936 171.314 78.5244 171.314C79.8076 171.314 80.7861 171.821 81.46 172.835V167.5H82.5059V181H81.5215L81.4775 179.734C80.8037 180.695 79.8135 181.176 78.5068 181.176C77.4111 181.176 76.5264 180.736 75.8525 179.857C75.1846 178.973 74.8506 177.78 74.8506 176.28V176.157ZM75.9141 176.342C75.9141 177.555 76.1572 178.513 76.6436 179.216C77.1299 179.913 77.8154 180.262 78.7002 180.262C79.9951 180.262 80.915 179.69 81.46 178.548V174.083C80.915 172.847 80.001 172.229 78.7178 172.229C77.833 172.229 77.1445 172.577 76.6523 173.274C76.1602 173.966 75.9141 174.988 75.9141 176.342ZM86.4521 181H85.3975V171.49H86.4521V181ZM85.2129 168.739C85.2129 168.54 85.2773 168.373 85.4062 168.238C85.5352 168.098 85.7109 168.027 85.9336 168.027C86.1562 168.027 86.332 168.098 86.4609 168.238C86.5957 168.373 86.6631 168.54 86.6631 168.739C86.6631 168.938 86.5957 169.105 86.4609 169.24C86.332 169.375 86.1562 169.442 85.9336 169.442C85.7109 169.442 85.5352 169.375 85.4062 169.24C85.2773 169.105 85.2129 168.938 85.2129 168.739ZM90.3193 171.49L90.3545 173.116C90.7119 172.53 91.1572 172.085 91.6904 171.78C92.2236 171.47 92.8125 171.314 93.457 171.314C94.4766 171.314 95.2354 171.602 95.7334 172.176C96.2314 172.75 96.4834 173.611 96.4893 174.76V181H95.4434V174.751C95.4375 173.901 95.2559 173.269 94.8984 172.853C94.5469 172.437 93.9814 172.229 93.2021 172.229C92.5518 172.229 91.9746 172.434 91.4707 172.844C90.9727 173.248 90.6035 173.796 90.3633 174.487V181H89.3174V171.49H90.3193ZM98.792 176.157C98.792 174.669 99.1201 173.491 99.7764 172.624C100.438 171.751 101.335 171.314 102.466 171.314C103.761 171.314 104.745 171.83 105.419 172.861L105.472 171.49H106.456V180.807C106.456 182.031 106.113 183.001 105.428 183.716C104.742 184.431 103.813 184.788 102.642 184.788C101.979 184.788 101.347 184.639 100.743 184.34C100.146 184.047 99.6738 183.654 99.3281 183.162L99.917 182.529C100.661 183.443 101.546 183.9 102.571 183.9C103.45 183.9 104.136 183.64 104.628 183.118C105.12 182.603 105.375 181.885 105.393 180.965V179.77C104.719 180.707 103.737 181.176 102.448 181.176C101.347 181.176 100.462 180.736 99.7939 179.857C99.126 178.979 98.792 177.792 98.792 176.298V176.157ZM99.8555 176.342C99.8555 177.555 100.099 178.513 100.585 179.216C101.071 179.913 101.757 180.262 102.642 180.262C103.937 180.262 104.854 179.682 105.393 178.521V174.101C105.146 173.491 104.792 173.028 104.329 172.712C103.866 172.39 103.31 172.229 102.659 172.229C101.774 172.229 101.086 172.577 100.594 173.274C100.102 173.966 99.8555 174.988 99.8555 176.342ZM119.578 181C119.473 180.701 119.405 180.259 119.376 179.673C119.007 180.153 118.535 180.525 117.961 180.789C117.393 181.047 116.789 181.176 116.15 181.176C115.236 181.176 114.495 180.921 113.927 180.411C113.364 179.901 113.083 179.257 113.083 178.478C113.083 177.552 113.467 176.819 114.234 176.28C115.008 175.741 116.083 175.472 117.46 175.472H119.367V174.391C119.367 173.711 119.156 173.178 118.734 172.791C118.318 172.398 117.709 172.202 116.906 172.202C116.174 172.202 115.567 172.39 115.087 172.765C114.606 173.14 114.366 173.591 114.366 174.118L113.312 174.109C113.312 173.354 113.663 172.7 114.366 172.149C115.069 171.593 115.934 171.314 116.959 171.314C118.02 171.314 118.854 171.581 119.464 172.114C120.079 172.642 120.396 173.38 120.413 174.329V178.829C120.413 179.749 120.51 180.438 120.703 180.895V181H119.578ZM116.273 180.244C116.977 180.244 117.604 180.074 118.154 179.734C118.711 179.395 119.115 178.94 119.367 178.372V176.28H117.486C116.438 176.292 115.617 176.485 115.025 176.86C114.434 177.229 114.138 177.739 114.138 178.39C114.138 178.923 114.334 179.365 114.727 179.717C115.125 180.068 115.641 180.244 116.273 180.244ZM135.249 176.342C135.249 177.824 134.921 179.002 134.265 179.875C133.608 180.742 132.729 181.176 131.628 181.176C130.327 181.176 129.331 180.719 128.64 179.805V184.656H127.594V171.49H128.569L128.622 172.835C129.308 171.821 130.301 171.314 131.602 171.314C132.738 171.314 133.629 171.745 134.273 172.606C134.924 173.468 135.249 174.663 135.249 176.192V176.342ZM134.194 176.157C134.194 174.944 133.945 173.986 133.447 173.283C132.949 172.58 132.255 172.229 131.364 172.229C130.72 172.229 130.166 172.384 129.703 172.694C129.24 173.005 128.886 173.456 128.64 174.048V178.609C128.892 179.154 129.252 179.57 129.721 179.857C130.189 180.145 130.743 180.288 131.382 180.288C132.267 180.288 132.955 179.937 133.447 179.233C133.945 178.524 134.194 177.499 134.194 176.157ZM138.765 181H137.71V167.5H138.765V181ZM147.633 181C147.527 180.701 147.46 180.259 147.431 179.673C147.062 180.153 146.59 180.525 146.016 180.789C145.447 181.047 144.844 181.176 144.205 181.176C143.291 181.176 142.55 180.921 141.981 180.411C141.419 179.901 141.138 179.257 141.138 178.478C141.138 177.552 141.521 176.819 142.289 176.28C143.062 175.741 144.138 175.472 145.515 175.472H147.422V174.391C147.422 173.711 147.211 173.178 146.789 172.791C146.373 172.398 145.764 172.202 144.961 172.202C144.229 172.202 143.622 172.39 143.142 172.765C142.661 173.14 142.421 173.591 142.421 174.118L141.366 174.109C141.366 173.354 141.718 172.7 142.421 172.149C143.124 171.593 143.988 171.314 145.014 171.314C146.074 171.314 146.909 171.581 147.519 172.114C148.134 172.642 148.45 173.38 148.468 174.329V178.829C148.468 179.749 148.564 180.438 148.758 180.895V181H147.633ZM144.328 180.244C145.031 180.244 145.658 180.074 146.209 179.734C146.766 179.395 147.17 178.94 147.422 178.372V176.28H145.541C144.492 176.292 143.672 176.485 143.08 176.86C142.488 177.229 142.192 177.739 142.192 178.39C142.192 178.923 142.389 179.365 142.781 179.717C143.18 180.068 143.695 180.244 144.328 180.244ZM154.796 180.288C155.528 180.288 156.141 180.083 156.633 179.673C157.131 179.257 157.4 178.721 157.441 178.064H158.452C158.423 178.645 158.241 179.175 157.907 179.655C157.573 180.13 157.128 180.502 156.571 180.771C156.021 181.041 155.429 181.176 154.796 181.176C153.548 181.176 152.558 180.742 151.825 179.875C151.099 179.008 150.735 177.842 150.735 176.377V176.061C150.735 175.123 150.899 174.294 151.228 173.573C151.556 172.853 152.024 172.296 152.634 171.903C153.249 171.511 153.967 171.314 154.787 171.314C155.83 171.314 156.688 171.625 157.362 172.246C158.042 172.867 158.405 173.685 158.452 174.698H157.441C157.395 173.954 157.125 173.354 156.633 172.896C156.146 172.439 155.531 172.211 154.787 172.211C153.838 172.211 153.1 172.554 152.572 173.239C152.051 173.925 151.79 174.886 151.79 176.122V176.43C151.79 177.643 152.051 178.589 152.572 179.269C153.1 179.948 153.841 180.288 154.796 180.288ZM164.244 181.176C163.436 181.176 162.703 180.977 162.047 180.578C161.396 180.18 160.89 179.626 160.526 178.917C160.163 178.202 159.981 177.402 159.981 176.518V176.14C159.981 175.226 160.157 174.402 160.509 173.67C160.866 172.938 161.361 172.363 161.994 171.947C162.627 171.525 163.312 171.314 164.051 171.314C165.205 171.314 166.119 171.71 166.793 172.501C167.473 173.286 167.812 174.361 167.812 175.727V176.315H161.027V176.518C161.027 177.596 161.335 178.495 161.95 179.216C162.571 179.931 163.351 180.288 164.288 180.288C164.851 180.288 165.346 180.186 165.773 179.98C166.207 179.775 166.6 179.447 166.951 178.996L167.61 179.497C166.837 180.616 165.715 181.176 164.244 181.176ZM164.051 172.211C163.26 172.211 162.592 172.501 162.047 173.081C161.508 173.661 161.18 174.44 161.062 175.419H166.767V175.305C166.737 174.391 166.477 173.646 165.984 173.072C165.492 172.498 164.848 172.211 164.051 172.211ZM171.794 177.449C171.806 176.758 171.899 176.201 172.075 175.779C172.251 175.357 172.629 174.862 173.209 174.294C173.789 173.72 174.161 173.315 174.325 173.081C174.495 172.841 174.624 172.58 174.712 172.299C174.806 172.012 174.853 171.687 174.853 171.323C174.853 170.591 174.656 170.017 174.264 169.601C173.877 169.179 173.335 168.968 172.638 168.968C171.935 168.968 171.366 169.17 170.933 169.574C170.505 169.973 170.285 170.515 170.273 171.2H169.228C169.239 170.239 169.564 169.472 170.203 168.897C170.842 168.317 171.653 168.027 172.638 168.027C173.646 168.027 174.439 168.323 175.02 168.915C175.605 169.501 175.898 170.298 175.898 171.306C175.898 171.938 175.755 172.533 175.468 173.09C175.181 173.641 174.636 174.285 173.833 175.023C173.171 175.58 172.84 176.389 172.84 177.449H171.794ZM171.653 180.385C171.653 180.186 171.715 180.019 171.838 179.884C171.967 179.743 172.146 179.673 172.374 179.673C172.597 179.673 172.772 179.743 172.901 179.884C173.036 180.019 173.104 180.186 173.104 180.385C173.104 180.578 173.036 180.742 172.901 180.877C172.772 181.006 172.597 181.07 172.374 181.07C172.146 181.07 171.967 181.006 171.838 180.877C171.715 180.742 171.653 180.578 171.653 180.385Z" fill="black"/>
<path d="M90.1972 89.6888C91.9881 89.6888 93.6669 88.9973 94.9253 87.7419L105.342 77.3498C106.327 76.3668 106.602 74.9532 106.198 73.7143L109.789 70.1314C114.325 73.2757 119.627 74.8554 124.933 74.8554C131.735 74.8554 138.537 72.2725 143.715 67.1067C154.071 56.775 154.071 39.9649 143.715 29.6332C138.698 24.628 132.028 21.872 124.933 21.872C117.839 21.872 111.169 24.628 106.153 29.6332C96.9351 38.8294 95.9296 53.1545 103.121 63.4789L99.5297 67.062C98.2878 66.6589 96.8708 66.9335 95.8853 67.9158L85.4691 78.3079C84.2107 79.5633 83.5176 81.2378 83.5176 83.0249C83.5176 84.8112 84.2107 86.4865 85.4691 87.7419C86.7275 88.9973 88.4063 89.6888 90.1972 89.6888ZM107.355 30.8323C117.049 21.1615 132.82 21.1615 142.513 30.8323C152.206 40.5023 152.206 56.2375 142.513 65.9076C132.82 75.5767 117.048 75.5784 107.355 65.9076C97.6621 56.2375 97.6621 40.5023 107.355 30.8323ZM106.153 67.1067C106.874 67.8263 107.629 68.4904 108.409 69.1097L105.279 72.2328L101.015 67.9785L104.145 64.8554C104.766 65.6334 105.431 66.3872 106.153 67.1067ZM86.671 79.507L97.0873 69.1149C97.4542 68.7489 97.9365 68.5658 98.4187 68.5658C98.9001 68.5658 99.3813 68.7484 99.7479 69.113L104.14 73.4948C104.874 74.2269 104.874 75.4186 104.14 76.1506L93.7234 86.5428C92.7858 87.4777 91.5336 87.9928 90.1972 87.9928C88.8608 87.9928 87.6086 87.4777 86.671 86.5428C85.7339 85.6078 85.2176 84.3582 85.2176 83.0249C85.2176 81.6908 85.7339 80.442 86.671 79.507Z" fill="#539CFF"/>
<path d="M124.934 68.7273C136.185 68.7273 145.339 59.5956 145.339 48.3704C145.339 37.1451 136.185 28.0126 124.934 28.0126C113.682 28.0126 104.528 37.1451 104.528 48.3704C104.528 59.5956 113.682 68.7273 124.934 68.7273ZM113.428 63.0671C113.47 58.0166 116.735 53.6484 121.585 52.1797C121.913 52.0804 122.149 51.7946 122.184 51.4543C122.219 51.1148 122.045 50.7868 121.745 50.6237C119.426 49.3641 117.986 46.9476 117.986 44.3167C117.986 40.3599 121.212 37.141 125.179 37.141C129.145 37.141 132.371 40.3599 132.371 44.3167C132.371 47.0263 130.862 49.4759 128.433 50.709C128.127 50.8647 127.945 51.1876 127.971 51.5288C127.997 51.87 128.226 52.1623 128.551 52.27C133.241 53.8191 136.398 58.1506 136.439 63.0673C133.263 65.5474 129.27 67.0313 124.934 67.0313C120.597 67.0313 116.604 65.5473 113.428 63.0671ZM124.934 29.7086C135.248 29.7086 143.639 38.0801 143.639 48.3704C143.639 53.5669 141.497 58.2722 138.049 61.659C137.534 57.1626 134.747 53.2509 130.663 51.2953C132.799 49.6332 134.071 47.0851 134.071 44.3167C134.071 39.4249 130.082 35.445 125.179 35.445C120.275 35.445 116.286 39.4249 116.286 44.3167C116.286 46.9882 117.487 49.48 119.504 51.1479C115.244 53.0481 112.34 57.0207 111.817 61.658C108.37 58.2713 106.228 53.5664 106.228 48.3704C106.228 38.0801 114.62 29.7086 124.934 29.7086Z" fill="#539CFF"/>
</svg>
