<svg width="235" height="235" viewBox="0 0 235 235" fill="none" xmlns="http://www.w3.org/2000/svg">
<rect width="235" height="235" rx="10" fill="#F5F5F5"/>
<path d="M34.0029 134.546L34.3984 136.532L34.8818 134.634L37.6592 125.203H38.6348L41.377 134.634L41.8516 136.55L42.2734 134.546L44.585 125.203H45.6924L42.4141 138H41.377L38.4766 127.989L38.1514 126.724L37.835 127.989L34.8643 138H33.8271L30.5576 125.203H31.665L34.0029 134.546ZM48.5752 130.099C48.9209 129.53 49.3633 129.091 49.9023 128.78C50.4414 128.47 51.0303 128.314 51.6689 128.314C52.6885 128.314 53.4473 128.602 53.9453 129.176C54.4434 129.75 54.6953 130.611 54.7012 131.76V138H53.6553V131.751C53.6494 130.901 53.4678 130.269 53.1104 129.853C52.7588 129.437 52.1934 129.229 51.4141 129.229C50.7637 129.229 50.1865 129.434 49.6826 129.844C49.1846 130.248 48.8154 130.796 48.5752 131.487V138H47.5293V124.5H48.5752V130.099ZM63.4111 138C63.3057 137.701 63.2383 137.259 63.209 136.673C62.8398 137.153 62.3682 137.525 61.7939 137.789C61.2256 138.047 60.6221 138.176 59.9834 138.176C59.0693 138.176 58.3281 137.921 57.7598 137.411C57.1973 136.901 56.916 136.257 56.916 135.478C56.916 134.552 57.2998 133.819 58.0674 133.28C58.8408 132.741 59.916 132.472 61.293 132.472H63.2002V131.391C63.2002 130.711 62.9893 130.178 62.5674 129.791C62.1514 129.398 61.542 129.202 60.7393 129.202C60.0068 129.202 59.4004 129.39 58.9199 129.765C58.4395 130.14 58.1992 130.591 58.1992 131.118L57.1445 131.109C57.1445 130.354 57.4961 129.7 58.1992 129.149C58.9023 128.593 59.7666 128.314 60.792 128.314C61.8525 128.314 62.6875 128.581 63.2969 129.114C63.9121 129.642 64.2285 130.38 64.2461 131.329V135.829C64.2461 136.749 64.3428 137.438 64.5361 137.895V138H63.4111ZM60.1064 137.244C60.8096 137.244 61.4365 137.074 61.9873 136.734C62.5439 136.395 62.9482 135.94 63.2002 135.372V133.28H61.3193C60.2705 133.292 59.4502 133.485 58.8584 133.86C58.2666 134.229 57.9707 134.739 57.9707 135.39C57.9707 135.923 58.167 136.365 58.5596 136.717C58.958 137.068 59.4736 137.244 60.1064 137.244ZM68.6934 126.056V128.49H70.6621V129.352H68.6934V135.688C68.6934 136.216 68.7871 136.608 68.9746 136.866C69.168 137.124 69.4873 137.253 69.9326 137.253C70.1084 137.253 70.3926 137.224 70.7852 137.165L70.8291 138.026C70.5537 138.126 70.1787 138.176 69.7041 138.176C68.9834 138.176 68.459 137.968 68.1309 137.552C67.8027 137.13 67.6387 136.512 67.6387 135.697V129.352H65.8896V128.49H67.6387V126.056H68.6934ZM79.4775 133.21L78.2734 134.37V138H77.2188V124.5H78.2734V133.14L79.2666 132.067L82.9053 128.49H84.2324L80.1982 132.498L84.584 138H83.3271L79.4775 133.21ZM87.2207 138H86.166V128.49H87.2207V138ZM85.9814 125.739C85.9814 125.54 86.0459 125.373 86.1748 125.238C86.3037 125.098 86.4795 125.027 86.7021 125.027C86.9248 125.027 87.1006 125.098 87.2295 125.238C87.3643 125.373 87.4316 125.54 87.4316 125.739C87.4316 125.938 87.3643 126.105 87.2295 126.24C87.1006 126.375 86.9248 126.442 86.7021 126.442C86.4795 126.442 86.3037 126.375 86.1748 126.24C86.0459 126.105 85.9814 125.938 85.9814 125.739ZM91.0879 128.49L91.123 130.116C91.4805 129.53 91.9258 129.085 92.459 128.78C92.9922 128.47 93.5811 128.314 94.2256 128.314C95.2451 128.314 96.0039 128.602 96.502 129.176C97 129.75 97.252 130.611 97.2578 131.76V138H96.2119V131.751C96.2061 130.901 96.0244 130.269 95.667 129.853C95.3154 129.437 94.75 129.229 93.9707 129.229C93.3203 129.229 92.7432 129.434 92.2393 129.844C91.7412 130.248 91.3721 130.796 91.1318 131.487V138H90.0859V128.49H91.0879ZM99.5605 133.157C99.5605 131.681 99.8887 130.506 100.545 129.633C101.207 128.754 102.104 128.314 103.234 128.314C104.518 128.314 105.496 128.821 106.17 129.835V124.5H107.216V138H106.231L106.188 136.734C105.514 137.695 104.523 138.176 103.217 138.176C102.121 138.176 101.236 137.736 100.562 136.857C99.8945 135.973 99.5605 134.78 99.5605 133.28V133.157ZM100.624 133.342C100.624 134.555 100.867 135.513 101.354 136.216C101.84 136.913 102.525 137.262 103.41 137.262C104.705 137.262 105.625 136.69 106.17 135.548V131.083C105.625 129.847 104.711 129.229 103.428 129.229C102.543 129.229 101.854 129.577 101.362 130.274C100.87 130.966 100.624 131.988 100.624 133.342ZM113.781 133.104C113.781 132.19 113.957 131.367 114.309 130.635C114.666 129.902 115.167 129.334 115.812 128.93C116.462 128.52 117.197 128.314 118.018 128.314C119.283 128.314 120.309 128.76 121.094 129.65C121.879 130.535 122.271 131.71 122.271 133.175V133.395C122.271 134.314 122.093 135.144 121.735 135.882C121.384 136.614 120.886 137.18 120.241 137.578C119.597 137.977 118.861 138.176 118.035 138.176C116.775 138.176 115.75 137.733 114.959 136.849C114.174 135.958 113.781 134.78 113.781 133.315V133.104ZM114.836 133.395C114.836 134.531 115.129 135.466 115.715 136.198C116.307 136.925 117.08 137.288 118.035 137.288C118.984 137.288 119.752 136.925 120.338 136.198C120.93 135.466 121.226 134.502 121.226 133.307V133.104C121.226 132.378 121.091 131.713 120.821 131.109C120.552 130.506 120.174 130.04 119.688 129.712C119.201 129.378 118.645 129.211 118.018 129.211C117.08 129.211 116.315 129.58 115.724 130.318C115.132 131.051 114.836 132.012 114.836 133.201V133.395ZM125.207 138V129.352H123.634V128.49H125.207V127.339C125.207 126.366 125.453 125.619 125.945 125.098C126.443 124.576 127.135 124.315 128.02 124.315C128.418 124.315 128.79 124.365 129.136 124.465L129.057 125.344C128.764 125.273 128.444 125.238 128.099 125.238C127.519 125.238 127.067 125.42 126.745 125.783C126.423 126.141 126.262 126.65 126.262 127.312V128.49H128.529V129.352H126.262V138H125.207ZM134.365 133.157C134.365 131.669 134.693 130.491 135.35 129.624C136.012 128.751 136.908 128.314 138.039 128.314C139.334 128.314 140.318 128.83 140.992 129.861L141.045 128.49H142.029V137.807C142.029 139.031 141.687 140.001 141.001 140.716C140.315 141.431 139.387 141.788 138.215 141.788C137.553 141.788 136.92 141.639 136.316 141.34C135.719 141.047 135.247 140.654 134.901 140.162L135.49 139.529C136.234 140.443 137.119 140.9 138.145 140.9C139.023 140.9 139.709 140.64 140.201 140.118C140.693 139.603 140.948 138.885 140.966 137.965V136.77C140.292 137.707 139.311 138.176 138.021 138.176C136.92 138.176 136.035 137.736 135.367 136.857C134.699 135.979 134.365 134.792 134.365 133.298V133.157ZM135.429 133.342C135.429 134.555 135.672 135.513 136.158 136.216C136.645 136.913 137.33 137.262 138.215 137.262C139.51 137.262 140.427 136.682 140.966 135.521V131.101C140.72 130.491 140.365 130.028 139.902 129.712C139.439 129.39 138.883 129.229 138.232 129.229C137.348 129.229 136.659 129.577 136.167 130.274C135.675 130.966 135.429 131.988 135.429 133.342ZM150.889 136.796C150.256 137.716 149.245 138.176 147.856 138.176C146.843 138.176 146.072 137.883 145.545 137.297C145.018 136.705 144.748 135.832 144.736 134.678V128.49H145.782V134.546C145.782 136.356 146.515 137.262 147.979 137.262C149.503 137.262 150.467 136.632 150.871 135.372V128.49H151.926V138H150.906L150.889 136.796ZM155.846 138H154.791V128.49H155.846V138ZM154.606 125.739C154.606 125.54 154.671 125.373 154.8 125.238C154.929 125.098 155.104 125.027 155.327 125.027C155.55 125.027 155.726 125.098 155.854 125.238C155.989 125.373 156.057 125.54 156.057 125.739C156.057 125.938 155.989 126.105 155.854 126.24C155.726 126.375 155.55 126.442 155.327 126.442C155.104 126.442 154.929 126.375 154.8 126.24C154.671 126.105 154.606 125.938 154.606 125.739ZM158.289 133.157C158.289 131.681 158.617 130.506 159.273 129.633C159.936 128.754 160.832 128.314 161.963 128.314C163.246 128.314 164.225 128.821 164.898 129.835V124.5H165.944V138H164.96L164.916 136.734C164.242 137.695 163.252 138.176 161.945 138.176C160.85 138.176 159.965 137.736 159.291 136.857C158.623 135.973 158.289 134.78 158.289 133.28V133.157ZM159.353 133.342C159.353 134.555 159.596 135.513 160.082 136.216C160.568 136.913 161.254 137.262 162.139 137.262C163.434 137.262 164.354 136.69 164.898 135.548V131.083C164.354 129.847 163.439 129.229 162.156 129.229C161.271 129.229 160.583 129.577 160.091 130.274C159.599 130.966 159.353 131.988 159.353 133.342ZM172.396 138.176C171.587 138.176 170.854 137.977 170.198 137.578C169.548 137.18 169.041 136.626 168.678 135.917C168.314 135.202 168.133 134.402 168.133 133.518V133.14C168.133 132.226 168.309 131.402 168.66 130.67C169.018 129.938 169.513 129.363 170.146 128.947C170.778 128.525 171.464 128.314 172.202 128.314C173.356 128.314 174.271 128.71 174.944 129.501C175.624 130.286 175.964 131.361 175.964 132.727V133.315H169.179V133.518C169.179 134.596 169.486 135.495 170.102 136.216C170.723 136.931 171.502 137.288 172.439 137.288C173.002 137.288 173.497 137.186 173.925 136.98C174.358 136.775 174.751 136.447 175.103 135.996L175.762 136.497C174.988 137.616 173.866 138.176 172.396 138.176ZM172.202 129.211C171.411 129.211 170.743 129.501 170.198 130.081C169.659 130.661 169.331 131.44 169.214 132.419H174.918V132.305C174.889 131.391 174.628 130.646 174.136 130.072C173.644 129.498 172.999 129.211 172.202 129.211ZM183.707 135.583C183.707 135.062 183.496 134.643 183.074 134.326C182.658 134.01 182.028 133.764 181.185 133.588C180.341 133.406 179.685 133.201 179.216 132.973C178.753 132.738 178.407 132.454 178.179 132.12C177.956 131.786 177.845 131.382 177.845 130.907C177.845 130.157 178.158 129.539 178.785 129.053C179.412 128.561 180.215 128.314 181.193 128.314C182.254 128.314 183.104 128.578 183.742 129.105C184.387 129.627 184.709 130.31 184.709 131.153H183.654C183.654 130.597 183.42 130.134 182.951 129.765C182.488 129.396 181.902 129.211 181.193 129.211C180.502 129.211 179.945 129.366 179.523 129.677C179.107 129.981 178.899 130.38 178.899 130.872C178.899 131.347 179.072 131.716 179.418 131.979C179.77 132.237 180.405 132.475 181.325 132.691C182.251 132.908 182.942 133.14 183.399 133.386C183.862 133.632 184.205 133.928 184.428 134.273C184.65 134.619 184.762 135.038 184.762 135.53C184.762 136.333 184.437 136.975 183.786 137.455C183.142 137.936 182.298 138.176 181.255 138.176C180.147 138.176 179.248 137.909 178.557 137.376C177.871 136.837 177.528 136.157 177.528 135.337H178.583C178.624 135.952 178.882 136.433 179.356 136.778C179.837 137.118 180.47 137.288 181.255 137.288C181.987 137.288 182.579 137.127 183.03 136.805C183.481 136.482 183.707 136.075 183.707 135.583ZM197.515 138C197.409 137.701 197.342 137.259 197.312 136.673C196.943 137.153 196.472 137.525 195.897 137.789C195.329 138.047 194.726 138.176 194.087 138.176C193.173 138.176 192.432 137.921 191.863 137.411C191.301 136.901 191.02 136.257 191.02 135.478C191.02 134.552 191.403 133.819 192.171 133.28C192.944 132.741 194.02 132.472 195.396 132.472H197.304V131.391C197.304 130.711 197.093 130.178 196.671 129.791C196.255 129.398 195.646 129.202 194.843 129.202C194.11 129.202 193.504 129.39 193.023 129.765C192.543 130.14 192.303 130.591 192.303 131.118L191.248 131.109C191.248 130.354 191.6 129.7 192.303 129.149C193.006 128.593 193.87 128.314 194.896 128.314C195.956 128.314 196.791 128.581 197.4 129.114C198.016 129.642 198.332 130.38 198.35 131.329V135.829C198.35 136.749 198.446 137.438 198.64 137.895V138H197.515ZM194.21 137.244C194.913 137.244 195.54 137.074 196.091 136.734C196.647 136.395 197.052 135.94 197.304 135.372V133.28H195.423C194.374 133.292 193.554 133.485 192.962 133.86C192.37 134.229 192.074 134.739 192.074 135.39C192.074 135.923 192.271 136.365 192.663 136.717C193.062 137.068 193.577 137.244 194.21 137.244ZM205.557 129.387C205.334 129.346 205.097 129.325 204.845 129.325C204.188 129.325 203.632 129.51 203.175 129.879C202.724 130.242 202.401 130.772 202.208 131.47V138H201.162V128.49H202.19L202.208 130.002C202.765 128.877 203.658 128.314 204.889 128.314C205.182 128.314 205.413 128.353 205.583 128.429L205.557 129.387ZM210.733 138.176C209.925 138.176 209.192 137.977 208.536 137.578C207.886 137.18 207.379 136.626 207.016 135.917C206.652 135.202 206.471 134.402 206.471 133.518V133.14C206.471 132.226 206.646 131.402 206.998 130.67C207.355 129.938 207.851 129.363 208.483 128.947C209.116 128.525 209.802 128.314 210.54 128.314C211.694 128.314 212.608 128.71 213.282 129.501C213.962 130.286 214.302 131.361 214.302 132.727V133.315H207.517V133.518C207.517 134.596 207.824 135.495 208.439 136.216C209.061 136.931 209.84 137.288 210.777 137.288C211.34 137.288 211.835 137.186 212.263 136.98C212.696 136.775 213.089 136.447 213.44 135.996L214.1 136.497C213.326 137.616 212.204 138.176 210.733 138.176ZM210.54 129.211C209.749 129.211 209.081 129.501 208.536 130.081C207.997 130.661 207.669 131.44 207.552 132.419H213.256V132.305C213.227 131.391 212.966 130.646 212.474 130.072C211.981 129.498 211.337 129.211 210.54 129.211ZM23.7197 148.056V150.49H25.6885V151.352H23.7197V157.688C23.7197 158.216 23.8135 158.608 24.001 158.866C24.1943 159.124 24.5137 159.253 24.959 159.253C25.1348 159.253 25.4189 159.224 25.8115 159.165L25.8555 160.026C25.5801 160.126 25.2051 160.176 24.7305 160.176C24.0098 160.176 23.4854 159.968 23.1572 159.552C22.8291 159.13 22.665 158.512 22.665 157.697V151.352H20.916V150.49H22.665V148.056H23.7197ZM28.9141 152.099C29.2598 151.53 29.7021 151.091 30.2412 150.78C30.7803 150.47 31.3691 150.314 32.0078 150.314C33.0273 150.314 33.7861 150.602 34.2842 151.176C34.7822 151.75 35.0342 152.611 35.04 153.76V160H33.9941V153.751C33.9883 152.901 33.8066 152.269 33.4492 151.853C33.0977 151.437 32.5322 151.229 31.7529 151.229C31.1025 151.229 30.5254 151.434 30.0215 151.844C29.5234 152.248 29.1543 152.796 28.9141 153.487V160H27.8682V146.5H28.9141V152.099ZM41.4297 160.176C40.6211 160.176 39.8887 159.977 39.2324 159.578C38.582 159.18 38.0752 158.626 37.7119 157.917C37.3486 157.202 37.167 156.402 37.167 155.518V155.14C37.167 154.226 37.3428 153.402 37.6943 152.67C38.0518 151.938 38.5469 151.363 39.1797 150.947C39.8125 150.525 40.498 150.314 41.2363 150.314C42.3906 150.314 43.3047 150.71 43.9785 151.501C44.6582 152.286 44.998 153.361 44.998 154.727V155.315H38.2129V155.518C38.2129 156.596 38.5205 157.495 39.1357 158.216C39.7568 158.931 40.5361 159.288 41.4736 159.288C42.0361 159.288 42.5312 159.186 42.959 158.98C43.3926 158.775 43.7852 158.447 44.1367 157.996L44.7959 158.497C44.0225 159.616 42.9004 160.176 41.4297 160.176ZM41.2363 151.211C40.4453 151.211 39.7773 151.501 39.2324 152.081C38.6934 152.661 38.3652 153.44 38.248 154.419H43.9521V154.305C43.9229 153.391 43.6621 152.646 43.1699 152.072C42.6777 151.498 42.0332 151.211 41.2363 151.211ZM49.9375 158.488L52.7148 150.49H53.8486L49.7881 161.617L49.5771 162.109C49.0557 163.264 48.25 163.841 47.1602 163.841C46.9082 163.841 46.6387 163.8 46.3516 163.718L46.3428 162.848L46.8877 162.9C47.4033 162.9 47.8193 162.771 48.1357 162.514C48.458 162.262 48.7305 161.825 48.9531 161.204L49.4189 159.921L45.833 150.49H46.9844L49.9375 158.488ZM65.9775 158.796C65.3447 159.716 64.334 160.176 62.9453 160.176C61.9316 160.176 61.1611 159.883 60.6338 159.297C60.1064 158.705 59.8369 157.832 59.8252 156.678V150.49H60.8711V156.546C60.8711 158.356 61.6035 159.262 63.0684 159.262C64.5918 159.262 65.5557 158.632 65.96 157.372V150.49H67.0146V160H65.9951L65.9775 158.796ZM75.4521 157.583C75.4521 157.062 75.2412 156.643 74.8193 156.326C74.4033 156.01 73.7734 155.764 72.9297 155.588C72.0859 155.406 71.4297 155.201 70.9609 154.973C70.498 154.738 70.1523 154.454 69.9238 154.12C69.7012 153.786 69.5898 153.382 69.5898 152.907C69.5898 152.157 69.9033 151.539 70.5303 151.053C71.1572 150.561 71.96 150.314 72.9385 150.314C73.999 150.314 74.8486 150.578 75.4873 151.105C76.1318 151.627 76.4541 152.31 76.4541 153.153H75.3994C75.3994 152.597 75.165 152.134 74.6963 151.765C74.2334 151.396 73.6475 151.211 72.9385 151.211C72.2471 151.211 71.6904 151.366 71.2686 151.677C70.8525 151.981 70.6445 152.38 70.6445 152.872C70.6445 153.347 70.8174 153.716 71.1631 153.979C71.5146 154.237 72.1504 154.475 73.0703 154.691C73.9961 154.908 74.6875 155.14 75.1445 155.386C75.6074 155.632 75.9502 155.928 76.1729 156.273C76.3955 156.619 76.5068 157.038 76.5068 157.53C76.5068 158.333 76.1816 158.975 75.5312 159.455C74.8867 159.936 74.043 160.176 73 160.176C71.8926 160.176 70.9932 159.909 70.3018 159.376C69.6162 158.837 69.2734 158.157 69.2734 157.337H70.3281C70.3691 157.952 70.627 158.433 71.1016 158.778C71.582 159.118 72.2148 159.288 73 159.288C73.7324 159.288 74.3242 159.127 74.7754 158.805C75.2266 158.482 75.4521 158.075 75.4521 157.583ZM80.0576 160H79.0029V150.49H80.0576V160ZM78.8184 147.739C78.8184 147.54 78.8828 147.373 79.0117 147.238C79.1406 147.098 79.3164 147.027 79.5391 147.027C79.7617 147.027 79.9375 147.098 80.0664 147.238C80.2012 147.373 80.2686 147.54 80.2686 147.739C80.2686 147.938 80.2012 148.105 80.0664 148.24C79.9375 148.375 79.7617 148.442 79.5391 148.442C79.3164 148.442 79.1406 148.375 79.0117 148.24C78.8828 148.105 78.8184 147.938 78.8184 147.739ZM83.9248 150.49L83.96 152.116C84.3174 151.53 84.7627 151.085 85.2959 150.78C85.8291 150.47 86.418 150.314 87.0625 150.314C88.082 150.314 88.8408 150.602 89.3389 151.176C89.8369 151.75 90.0889 152.611 90.0947 153.76V160H89.0488V153.751C89.043 152.901 88.8613 152.269 88.5039 151.853C88.1523 151.437 87.5869 151.229 86.8076 151.229C86.1572 151.229 85.5801 151.434 85.0762 151.844C84.5781 152.248 84.209 152.796 83.9688 153.487V160H82.9229V150.49H83.9248ZM92.3975 155.157C92.3975 153.669 92.7256 152.491 93.3818 151.624C94.0439 150.751 94.9404 150.314 96.0713 150.314C97.3662 150.314 98.3506 150.83 99.0244 151.861L99.0771 150.49H100.062V159.807C100.062 161.031 99.7188 162.001 99.0332 162.716C98.3477 163.431 97.4189 163.788 96.2471 163.788C95.585 163.788 94.9521 163.639 94.3486 163.34C93.751 163.047 93.2793 162.654 92.9336 162.162L93.5225 161.529C94.2666 162.443 95.1514 162.9 96.1768 162.9C97.0557 162.9 97.7412 162.64 98.2334 162.118C98.7256 161.603 98.9805 160.885 98.998 159.965V158.77C98.3242 159.707 97.3428 160.176 96.0537 160.176C94.9521 160.176 94.0674 159.736 93.3994 158.857C92.7314 157.979 92.3975 156.792 92.3975 155.298V155.157ZM93.4609 155.342C93.4609 156.555 93.7041 157.513 94.1904 158.216C94.6768 158.913 95.3623 159.262 96.2471 159.262C97.542 159.262 98.459 158.682 98.998 157.521V153.101C98.752 152.491 98.3975 152.028 97.9346 151.712C97.4717 151.39 96.915 151.229 96.2646 151.229C95.3799 151.229 94.6914 151.577 94.1992 152.274C93.707 152.966 93.4609 153.988 93.4609 155.342ZM108.815 148.056V150.49H110.784V151.352H108.815V157.688C108.815 158.216 108.909 158.608 109.097 158.866C109.29 159.124 109.609 159.253 110.055 159.253C110.23 159.253 110.515 159.224 110.907 159.165L110.951 160.026C110.676 160.126 110.301 160.176 109.826 160.176C109.105 160.176 108.581 159.968 108.253 159.552C107.925 159.13 107.761 158.512 107.761 157.697V151.352H106.012V150.49H107.761V148.056H108.815ZM112.208 155.104C112.208 154.19 112.384 153.367 112.735 152.635C113.093 151.902 113.594 151.334 114.238 150.93C114.889 150.52 115.624 150.314 116.444 150.314C117.71 150.314 118.735 150.76 119.521 151.65C120.306 152.535 120.698 153.71 120.698 155.175V155.395C120.698 156.314 120.52 157.144 120.162 157.882C119.811 158.614 119.312 159.18 118.668 159.578C118.023 159.977 117.288 160.176 116.462 160.176C115.202 160.176 114.177 159.733 113.386 158.849C112.601 157.958 112.208 156.78 112.208 155.315V155.104ZM113.263 155.395C113.263 156.531 113.556 157.466 114.142 158.198C114.733 158.925 115.507 159.288 116.462 159.288C117.411 159.288 118.179 158.925 118.765 158.198C119.356 157.466 119.652 156.502 119.652 155.307V155.104C119.652 154.378 119.518 153.713 119.248 153.109C118.979 152.506 118.601 152.04 118.114 151.712C117.628 151.378 117.071 151.211 116.444 151.211C115.507 151.211 114.742 151.58 114.15 152.318C113.559 153.051 113.263 154.012 113.263 155.201V155.395ZM127.888 160V151.352H126.306V150.49H127.888V149.515C127.888 148.501 128.163 147.716 128.714 147.159C129.265 146.597 130.041 146.315 131.043 146.315C131.828 146.315 132.637 146.488 133.469 146.834L133.293 147.739C132.578 147.429 131.852 147.273 131.113 147.273C129.666 147.273 128.942 148.026 128.942 149.532V150.49H131.166V151.352H128.942V160H127.888ZM134.04 160H132.985V150.49H134.04V160ZM137.925 150.49L137.96 152.116C138.317 151.53 138.763 151.085 139.296 150.78C139.829 150.47 140.418 150.314 141.062 150.314C142.082 150.314 142.841 150.602 143.339 151.176C143.837 151.75 144.089 152.611 144.095 153.76V160H143.049V153.751C143.043 152.901 142.861 152.269 142.504 151.853C142.152 151.437 141.587 151.229 140.808 151.229C140.157 151.229 139.58 151.434 139.076 151.844C138.578 152.248 138.209 152.796 137.969 153.487V160H136.923V150.49H137.925ZM146.397 155.157C146.397 153.681 146.726 152.506 147.382 151.633C148.044 150.754 148.94 150.314 150.071 150.314C151.354 150.314 152.333 150.821 153.007 151.835V146.5H154.053V160H153.068L153.024 158.734C152.351 159.695 151.36 160.176 150.054 160.176C148.958 160.176 148.073 159.736 147.399 158.857C146.731 157.973 146.397 156.78 146.397 155.28V155.157ZM147.461 155.342C147.461 156.555 147.704 157.513 148.19 158.216C148.677 158.913 149.362 159.262 150.247 159.262C151.542 159.262 152.462 158.69 153.007 157.548V153.083C152.462 151.847 151.548 151.229 150.265 151.229C149.38 151.229 148.691 151.577 148.199 152.274C147.707 152.966 147.461 153.988 147.461 155.342ZM167.201 160C167.096 159.701 167.028 159.259 166.999 158.673C166.63 159.153 166.158 159.525 165.584 159.789C165.016 160.047 164.412 160.176 163.773 160.176C162.859 160.176 162.118 159.921 161.55 159.411C160.987 158.901 160.706 158.257 160.706 157.478C160.706 156.552 161.09 155.819 161.857 155.28C162.631 154.741 163.706 154.472 165.083 154.472H166.99V153.391C166.99 152.711 166.779 152.178 166.357 151.791C165.941 151.398 165.332 151.202 164.529 151.202C163.797 151.202 163.19 151.39 162.71 151.765C162.229 152.14 161.989 152.591 161.989 153.118L160.935 153.109C160.935 152.354 161.286 151.7 161.989 151.149C162.692 150.593 163.557 150.314 164.582 150.314C165.643 150.314 166.478 150.581 167.087 151.114C167.702 151.642 168.019 152.38 168.036 153.329V157.829C168.036 158.749 168.133 159.438 168.326 159.895V160H167.201ZM163.896 159.244C164.6 159.244 165.227 159.074 165.777 158.734C166.334 158.395 166.738 157.94 166.99 157.372V155.28H165.109C164.061 155.292 163.24 155.485 162.648 155.86C162.057 156.229 161.761 156.739 161.761 157.39C161.761 157.923 161.957 158.365 162.35 158.717C162.748 159.068 163.264 159.244 163.896 159.244ZM182.872 155.342C182.872 156.824 182.544 158.002 181.888 158.875C181.231 159.742 180.353 160.176 179.251 160.176C177.95 160.176 176.954 159.719 176.263 158.805V163.656H175.217V150.49H176.192L176.245 151.835C176.931 150.821 177.924 150.314 179.225 150.314C180.361 150.314 181.252 150.745 181.896 151.606C182.547 152.468 182.872 153.663 182.872 155.192V155.342ZM181.817 155.157C181.817 153.944 181.568 152.986 181.07 152.283C180.572 151.58 179.878 151.229 178.987 151.229C178.343 151.229 177.789 151.384 177.326 151.694C176.863 152.005 176.509 152.456 176.263 153.048V157.609C176.515 158.154 176.875 158.57 177.344 158.857C177.812 159.145 178.366 159.288 179.005 159.288C179.89 159.288 180.578 158.937 181.07 158.233C181.568 157.524 181.817 156.499 181.817 155.157ZM186.388 160H185.333V146.5H186.388V160ZM195.256 160C195.15 159.701 195.083 159.259 195.054 158.673C194.685 159.153 194.213 159.525 193.639 159.789C193.07 160.047 192.467 160.176 191.828 160.176C190.914 160.176 190.173 159.921 189.604 159.411C189.042 158.901 188.761 158.257 188.761 157.478C188.761 156.552 189.145 155.819 189.912 155.28C190.686 154.741 191.761 154.472 193.138 154.472H195.045V153.391C195.045 152.711 194.834 152.178 194.412 151.791C193.996 151.398 193.387 151.202 192.584 151.202C191.852 151.202 191.245 151.39 190.765 151.765C190.284 152.14 190.044 152.591 190.044 153.118L188.989 153.109C188.989 152.354 189.341 151.7 190.044 151.149C190.747 150.593 191.611 150.314 192.637 150.314C193.697 150.314 194.532 150.581 195.142 151.114C195.757 151.642 196.073 152.38 196.091 153.329V157.829C196.091 158.749 196.188 159.438 196.381 159.895V160H195.256ZM191.951 159.244C192.654 159.244 193.281 159.074 193.832 158.734C194.389 158.395 194.793 157.94 195.045 157.372V155.28H193.164C192.115 155.292 191.295 155.485 190.703 155.86C190.111 156.229 189.815 156.739 189.815 157.39C189.815 157.923 190.012 158.365 190.404 158.717C190.803 159.068 191.318 159.244 191.951 159.244ZM202.419 159.288C203.151 159.288 203.764 159.083 204.256 158.673C204.754 158.257 205.023 157.721 205.064 157.064H206.075C206.046 157.645 205.864 158.175 205.53 158.655C205.196 159.13 204.751 159.502 204.194 159.771C203.644 160.041 203.052 160.176 202.419 160.176C201.171 160.176 200.181 159.742 199.448 158.875C198.722 158.008 198.358 156.842 198.358 155.377V155.061C198.358 154.123 198.522 153.294 198.851 152.573C199.179 151.853 199.647 151.296 200.257 150.903C200.872 150.511 201.59 150.314 202.41 150.314C203.453 150.314 204.312 150.625 204.985 151.246C205.665 151.867 206.028 152.685 206.075 153.698H205.064C205.018 152.954 204.748 152.354 204.256 151.896C203.77 151.439 203.154 151.211 202.41 151.211C201.461 151.211 200.723 151.554 200.195 152.239C199.674 152.925 199.413 153.886 199.413 155.122V155.43C199.413 156.643 199.674 157.589 200.195 158.269C200.723 158.948 201.464 159.288 202.419 159.288ZM211.867 160.176C211.059 160.176 210.326 159.977 209.67 159.578C209.02 159.18 208.513 158.626 208.149 157.917C207.786 157.202 207.604 156.402 207.604 155.518V155.14C207.604 154.226 207.78 153.402 208.132 152.67C208.489 151.938 208.984 151.363 209.617 150.947C210.25 150.525 210.936 150.314 211.674 150.314C212.828 150.314 213.742 150.71 214.416 151.501C215.096 152.286 215.436 153.361 215.436 154.727V155.315H208.65V155.518C208.65 156.596 208.958 157.495 209.573 158.216C210.194 158.931 210.974 159.288 211.911 159.288C212.474 159.288 212.969 159.186 213.396 158.98C213.83 158.775 214.223 158.447 214.574 157.996L215.233 158.497C214.46 159.616 213.338 160.176 211.867 160.176ZM211.674 151.211C210.883 151.211 210.215 151.501 209.67 152.081C209.131 152.661 208.803 153.44 208.686 154.419H214.39V154.305C214.36 153.391 214.1 152.646 213.607 152.072C213.115 151.498 212.471 151.211 211.674 151.211ZM219.417 156.449C219.429 155.758 219.522 155.201 219.698 154.779C219.874 154.357 220.252 153.862 220.832 153.294C221.412 152.72 221.784 152.315 221.948 152.081C222.118 151.841 222.247 151.58 222.335 151.299C222.429 151.012 222.476 150.687 222.476 150.323C222.476 149.591 222.279 149.017 221.887 148.601C221.5 148.179 220.958 147.968 220.261 147.968C219.558 147.968 218.989 148.17 218.556 148.574C218.128 148.973 217.908 149.515 217.896 150.2H216.851C216.862 149.239 217.188 148.472 217.826 147.897C218.465 147.317 219.276 147.027 220.261 147.027C221.269 147.027 222.062 147.323 222.643 147.915C223.229 148.501 223.521 149.298 223.521 150.306C223.521 150.938 223.378 151.533 223.091 152.09C222.804 152.641 222.259 153.285 221.456 154.023C220.794 154.58 220.463 155.389 220.463 156.449H219.417ZM219.276 159.385C219.276 159.186 219.338 159.019 219.461 158.884C219.59 158.743 219.769 158.673 219.997 158.673C220.22 158.673 220.396 158.743 220.524 158.884C220.659 159.019 220.727 159.186 220.727 159.385C220.727 159.578 220.659 159.742 220.524 159.877C220.396 160.006 220.22 160.07 219.997 160.07C219.769 160.07 219.59 160.006 219.461 159.877C219.338 159.742 219.276 159.578 219.276 159.385Z" fill="black"/>
<path d="M118.75 69.372H116.25V71.872H118.75V69.372Z" fill="#539CFF"/>
<path d="M126.25 69.372H123.75V71.872H126.25V69.372Z" fill="#539CFF"/>
<path d="M111.25 69.372H108.75V71.872H111.25V69.372Z" fill="#539CFF"/>
<path d="M116.25 25.622C116.25 24.932 116.811 24.372 117.5 24.372C118.189 24.372 118.75 24.932 118.75 25.622V29.372H116.25V25.622ZM98.0175 38.122L104.267 31.872H137.5V35.1045L134.482 38.122L137.5 41.1395V44.372H104.267L98.0175 38.122ZM116.25 46.872H118.75V49.372H116.25V46.872ZM97.5 57.3895L99.2675 55.622L97.5 53.8545V51.872H130.871L136.496 55.622L130.871 59.372H97.5V57.3895ZM116.25 61.872H118.75V64.372H116.25V61.872ZM103.75 74.372V66.872H131.25V74.372H103.75ZM116.25 76.872H118.75V96.872H116.25V76.872Z" fill="#539CFF"/>
<path d="M106.25 41.872H113.75V34.372H106.25V41.872ZM108.75 36.872H111.25V39.372H108.75V36.872Z" fill="#539CFF"/>
<path d="M132.5 34.372H116.25V36.872H132.5V34.372Z" fill="#539CFF"/>
<path d="M118.75 39.372H116.25V41.872H118.75V39.372Z" fill="#539CFF"/>
<path d="M132.5 39.372H121.25V41.872H132.5V39.372Z" fill="#539CFF"/>
<path d="M130 54.372H127.5V56.872H130V54.372Z" fill="#539CFF"/>
<path d="M125 54.372H102.5V56.872H125V54.372Z" fill="#539CFF"/>
</svg>
