<svg width="928" height="144" viewBox="0 0 928 144" fill="none" xmlns="http://www.w3.org/2000/svg">
<rect width="928" height="132" fill="white"/>
<circle cx="252.5" cy="66.5" r="66.5" fill="#F5F5F5"/>
<path d="M222.5 107.5C220.1 109.9 218.167 114.833 217.5 117L216 121.5L222 125.5L229 128.5L235.5 130.5L242.5 132L249.5 132.5H257L265 131.5L273 129.5L280 127L285.5 124L289 122L292.5 119L291.5 114C290.833 112.5 289.1 109.1 287.5 107.5C285.9 105.9 282.833 104.5 281.5 104H230C228.5 104.167 224.9 105.1 222.5 107.5Z" fill="#E5E5E5" stroke="#E5E5E5"/>
<path d="M265.253 37.4245C265.253 37.4245 265.191 26.1763 250.611 26.1763C236.031 26.1763 219.471 35.176 219.471 57.856C219.471 80.536 216.951 99.6152 235.311 99.6152V90.1361" stroke="black" stroke-width="2" stroke-miterlimit="10" stroke-linecap="round" stroke-linejoin="round"/>
<path d="M260.685 28.886C260.685 28.886 274.236 26.0035 282.341 34.4675C285.882 38.0088 288.343 42.601 288.343 48.2461C288.343 48.2461 288.343 67.036 288.343 76.0367C288.343 85.0374 288.231 99.6152 273.651 99.6152V88.772" stroke="black" stroke-width="1.7786" stroke-miterlimit="10" stroke-linecap="round" stroke-linejoin="round"/>
<path d="M273.5 47.88L277.671 75.8866C277.671 87.8162 268.001 97.4866 256.071 97.4866H251.628C239.698 97.4866 230.028 87.8162 230.028 75.8866L233 51.12" fill="#F3BA9C"/>
<path d="M273.5 47.88L277.671 75.8866C277.671 87.8162 268.001 97.4866 256.071 97.4866H251.628C239.698 97.4866 230.028 87.8162 230.028 75.8866L233 51.12" stroke="#F3BA9C" stroke-width="2" stroke-miterlimit="10" stroke-linecap="round" stroke-linejoin="round"/>
<path d="M245.5 104V96.5L250 94.5L266 96.5V103C266.167 103.667 266.2 105.7 265 108.5C263.8 111.3 261.833 112.333 261 112.5C259.667 113.333 255.9 114.6 251.5 113C247.1 111.4 245.667 106.333 245.5 104Z" fill="#F3BA9C" stroke="#F3BA9C"/>
<path d="M230.027 68.265L235.705 42.8753V55.44H263.785V46.4404L267.45 55.44L272.066 55.5696V42.8753L277.67 68.265" stroke="black" stroke-width="2" stroke-miterlimit="10" stroke-linecap="round" stroke-linejoin="round"/>
<path d="M235.7 99.18V91.08C232.244 87.624 230.66 81 230.3 78.12V67.86L235.7 44.1V54.9H263.78V47.88L267.56 54.9H272.42V44.1L277.82 67.86V79.74C277.82 83.196 275.3 87.3 274.04 88.92V99.18C276.2 98.82 281.168 97.452 283.76 94.86C286.352 92.268 288.08 85.5 288.62 82.44V48.42C288.62 46.26 289.7 43.02 283.76 35.46C279.008 29.412 269.54 28.26 265.4 28.44C265.22 28.98 263.78 29.628 259.46 27.9C255.14 26.172 250.1 25.74 248.12 25.74C243.26 26.28 232.244 28.98 227.06 35.46C221.876 41.94 219.86 50.4 219.5 53.82V79.74C220.04 83.88 221.984 93.024 225.44 96.48C228.896 99.936 233.72 99.72 235.7 99.18Z" fill="black" stroke="black"/>
<path d="M357 9H630C641.046 9 650 17.9543 650 29V124C650 135.046 641.046 144 630 144H406C394.954 144 386 135.046 386 124V38.1011C386 31.1768 382.418 24.7451 376.532 21.0988L357 9Z" fill="#F5F5F5"/>
<path d="M401.705 20.3281L401.412 23.8242H400.328L400.338 19H401.705V20.3281ZM404.342 20.3281L404.049 23.8242H402.965L402.975 19H404.342V20.3281ZM417.984 34H416.1V27.4277H408.932V34H407.057V19.7812H408.932V25.8945H416.1V19.7812H417.984V34ZM420.553 28.6191C420.553 27.584 420.755 26.653 421.158 25.8262C421.568 24.9993 422.135 24.3613 422.857 23.9121C423.587 23.4629 424.417 23.2383 425.348 23.2383C426.786 23.2383 427.949 23.7363 428.834 24.7324C429.726 25.7285 430.172 27.0534 430.172 28.707V28.834C430.172 29.8626 429.973 30.7871 429.576 31.6074C429.186 32.4212 428.622 33.056 427.887 33.5117C427.158 33.9674 426.318 34.1953 425.367 34.1953C423.935 34.1953 422.773 33.6973 421.881 32.7012C420.995 31.7051 420.553 30.3867 420.553 28.7461V28.6191ZM422.369 28.834C422.369 30.0059 422.639 30.9466 423.18 31.6562C423.727 32.3659 424.456 32.7207 425.367 32.7207C426.285 32.7207 427.014 32.3626 427.555 31.6465C428.095 30.9238 428.365 29.9147 428.365 28.6191C428.365 27.4603 428.089 26.5228 427.535 25.8066C426.988 25.084 426.259 24.7227 425.348 24.7227C424.456 24.7227 423.736 25.0775 423.189 25.7871C422.643 26.4967 422.369 27.5124 422.369 28.834ZM441.793 31.5098L443.824 23.4336H445.631L442.555 34H441.09L438.521 25.9922L436.021 34H434.557L431.49 23.4336H433.287L435.367 31.3438L437.828 23.4336H439.283L441.793 31.5098ZM456.676 32.7207C457.32 32.7207 457.883 32.5254 458.365 32.1348C458.847 31.7441 459.114 31.2559 459.166 30.6699H460.875C460.842 31.2754 460.634 31.8516 460.25 32.3984C459.866 32.9453 459.352 33.3815 458.707 33.707C458.069 34.0326 457.392 34.1953 456.676 34.1953C455.237 34.1953 454.091 33.7168 453.238 32.7598C452.392 31.7962 451.969 30.4811 451.969 28.8145V28.5117C451.969 27.4831 452.158 26.5684 452.535 25.7676C452.913 24.9668 453.453 24.3451 454.156 23.9023C454.866 23.4596 455.702 23.2383 456.666 23.2383C457.851 23.2383 458.834 23.5931 459.615 24.3027C460.403 25.0124 460.823 25.9336 460.875 27.0664H459.166C459.114 26.3828 458.854 25.8229 458.385 25.3867C457.923 24.944 457.35 24.7227 456.666 24.7227C455.748 24.7227 455.035 25.0547 454.527 25.7188C454.026 26.3763 453.775 27.3301 453.775 28.5801V28.9219C453.775 30.1393 454.026 31.0768 454.527 31.7344C455.029 32.3919 455.745 32.7207 456.676 32.7207ZM469.43 34C469.326 33.7917 469.241 33.4206 469.176 32.8867C468.336 33.7591 467.333 34.1953 466.168 34.1953C465.126 34.1953 464.27 33.9023 463.6 33.3164C462.936 32.724 462.604 31.9753 462.604 31.0703C462.604 29.9701 463.02 29.1172 463.854 28.5117C464.693 27.8997 465.872 27.5938 467.389 27.5938H469.146V26.7637C469.146 26.1322 468.958 25.6309 468.58 25.2598C468.202 24.8822 467.646 24.6934 466.91 24.6934C466.266 24.6934 465.725 24.8561 465.289 25.1816C464.853 25.5072 464.635 25.901 464.635 26.3633H462.818C462.818 25.8359 463.004 25.3281 463.375 24.8398C463.753 24.3451 464.26 23.9544 464.898 23.668C465.543 23.3815 466.249 23.2383 467.018 23.2383C468.235 23.2383 469.189 23.5443 469.879 24.1562C470.569 24.7617 470.927 25.5983 470.953 26.666V31.5293C470.953 32.4993 471.077 33.2708 471.324 33.8438V34H469.43ZM466.432 32.623C466.998 32.623 467.535 32.4766 468.043 32.1836C468.551 31.8906 468.919 31.5098 469.146 31.041V28.873H467.73C465.517 28.873 464.41 29.5208 464.41 30.8164C464.41 31.3828 464.599 31.8255 464.977 32.1445C465.354 32.4635 465.839 32.623 466.432 32.623ZM475.494 23.4336L475.553 24.7617C476.36 23.7461 477.415 23.2383 478.717 23.2383C480.95 23.2383 482.076 24.498 482.096 27.0176V34H480.289V27.0078C480.283 26.2461 480.107 25.6829 479.762 25.3184C479.423 24.9538 478.893 24.7715 478.17 24.7715C477.584 24.7715 477.07 24.9277 476.627 25.2402C476.184 25.5527 475.839 25.9629 475.592 26.4707V34H473.785V23.4336H475.494ZM492.076 34H490.201V19.7812H492.076V34ZM500.797 34V24.8301H499.127V23.4336H500.797V22.5352C500.797 21.3568 501.132 20.4388 501.803 19.7812C502.48 19.1237 503.434 18.7949 504.664 18.7949C505.393 18.7949 506.314 18.9935 507.428 19.3906L507.125 20.9141C506.311 20.5885 505.536 20.4258 504.801 20.4258C504.026 20.4258 503.466 20.6016 503.121 20.9531C502.783 21.2982 502.613 21.819 502.613 22.5156V23.4336H504.771V24.8301H502.613V34H500.797ZM508.326 34H506.51V23.4336H508.326V34ZM512.975 23.4336L513.033 24.7617C513.84 23.7461 514.895 23.2383 516.197 23.2383C518.43 23.2383 519.557 24.498 519.576 27.0176V34H517.77V27.0078C517.763 26.2461 517.587 25.6829 517.242 25.3184C516.904 24.9538 516.373 24.7715 515.65 24.7715C515.064 24.7715 514.55 24.9277 514.107 25.2402C513.665 25.5527 513.32 25.9629 513.072 26.4707V34H511.266V23.4336H512.975ZM521.861 28.6289C521.861 27.0078 522.245 25.7057 523.014 24.7227C523.782 23.7331 524.788 23.2383 526.031 23.2383C527.268 23.2383 528.248 23.6615 528.971 24.5078V19H530.777V34H529.117L529.029 32.8672C528.307 33.7526 527.301 34.1953 526.012 34.1953C524.788 34.1953 523.788 33.694 523.014 32.6914C522.245 31.6888 521.861 30.3802 521.861 28.7656V28.6289ZM523.668 28.834C523.668 30.0319 523.915 30.9694 524.41 31.6465C524.905 32.3236 525.589 32.6621 526.461 32.6621C527.607 32.6621 528.443 32.1478 528.971 31.1191V26.2656C528.43 25.2695 527.6 24.7715 526.48 24.7715C525.595 24.7715 524.905 25.1133 524.41 25.7969C523.915 26.4805 523.668 27.4928 523.668 28.834ZM544.703 31.1973C544.703 30.709 544.518 30.3314 544.146 30.0645C543.782 29.791 543.141 29.5566 542.223 29.3613C541.311 29.166 540.585 28.9316 540.045 28.6582C539.511 28.3848 539.114 28.0592 538.854 27.6816C538.6 27.304 538.473 26.8548 538.473 26.334C538.473 25.4681 538.837 24.7357 539.566 24.1367C540.302 23.5378 541.24 23.2383 542.379 23.2383C543.577 23.2383 544.547 23.5475 545.289 24.166C546.038 24.7845 546.412 25.5755 546.412 26.5391H544.596C544.596 26.0443 544.384 25.6178 543.961 25.2598C543.544 24.9017 543.017 24.7227 542.379 24.7227C541.721 24.7227 541.207 24.8659 540.836 25.1523C540.465 25.4388 540.279 25.8132 540.279 26.2754C540.279 26.7116 540.452 27.0404 540.797 27.2617C541.142 27.4831 541.764 27.6947 542.662 27.8965C543.567 28.0983 544.299 28.3392 544.859 28.6191C545.419 28.8991 545.833 29.2376 546.1 29.6348C546.373 30.0254 546.51 30.5039 546.51 31.0703C546.51 32.0143 546.132 32.7728 545.377 33.3457C544.622 33.9121 543.642 34.1953 542.438 34.1953C541.591 34.1953 540.842 34.0456 540.191 33.7461C539.54 33.4466 539.029 33.0299 538.658 32.4961C538.294 31.9557 538.111 31.373 538.111 30.748H539.918C539.951 31.3535 540.191 31.8353 540.641 32.1934C541.096 32.5449 541.695 32.7207 542.438 32.7207C543.121 32.7207 543.668 32.584 544.078 32.3105C544.495 32.0306 544.703 31.6595 544.703 31.1973ZM548.385 28.6191C548.385 27.584 548.587 26.653 548.99 25.8262C549.4 24.9993 549.967 24.3613 550.689 23.9121C551.419 23.4629 552.249 23.2383 553.18 23.2383C554.618 23.2383 555.781 23.7363 556.666 24.7324C557.558 25.7285 558.004 27.0534 558.004 28.707V28.834C558.004 29.8626 557.805 30.7871 557.408 31.6074C557.018 32.4212 556.454 33.056 555.719 33.5117C554.99 33.9674 554.15 34.1953 553.199 34.1953C551.767 34.1953 550.605 33.6973 549.713 32.7012C548.827 31.7051 548.385 30.3867 548.385 28.7461V28.6191ZM550.201 28.834C550.201 30.0059 550.471 30.9466 551.012 31.6562C551.559 32.3659 552.288 32.7207 553.199 32.7207C554.117 32.7207 554.846 32.3626 555.387 31.6465C555.927 30.9238 556.197 29.9147 556.197 28.6191C556.197 27.4603 555.921 26.5228 555.367 25.8066C554.82 25.084 554.091 24.7227 553.18 24.7227C552.288 24.7227 551.568 25.0775 551.021 25.7871C550.475 26.4967 550.201 27.5124 550.201 28.834ZM561.969 23.4336L562.018 24.6055C562.792 23.694 563.837 23.2383 565.152 23.2383C566.63 23.2383 567.636 23.8047 568.17 24.9375C568.521 24.4297 568.977 24.0195 569.537 23.707C570.104 23.3945 570.771 23.2383 571.539 23.2383C573.857 23.2383 575.035 24.4655 575.074 26.9199V34H573.268V27.0273C573.268 26.2721 573.095 25.709 572.75 25.3379C572.405 24.9603 571.826 24.7715 571.012 24.7715C570.341 24.7715 569.785 24.9733 569.342 25.377C568.899 25.7741 568.642 26.3112 568.57 26.9883V34H566.754V27.0762C566.754 25.5397 566.002 24.7715 564.498 24.7715C563.313 24.7715 562.503 25.276 562.066 26.2852V34H560.26V23.4336H561.969ZM582.193 34.1953C580.761 34.1953 579.596 33.7266 578.697 32.7891C577.799 31.8451 577.35 30.5853 577.35 29.0098V28.6777C577.35 27.6296 577.548 26.6953 577.945 25.875C578.349 25.0482 578.909 24.4036 579.625 23.9414C580.348 23.4727 581.129 23.2383 581.969 23.2383C583.342 23.2383 584.41 23.6908 585.172 24.5957C585.934 25.5007 586.314 26.7962 586.314 28.4824V29.2344H579.156C579.182 30.276 579.485 31.1191 580.064 31.7637C580.65 32.4017 581.393 32.7207 582.291 32.7207C582.929 32.7207 583.469 32.5905 583.912 32.3301C584.355 32.0697 584.742 31.7246 585.074 31.2949L586.178 32.1543C585.292 33.515 583.964 34.1953 582.193 34.1953ZM581.969 24.7227C581.24 24.7227 580.628 24.9896 580.133 25.5234C579.638 26.0508 579.332 26.793 579.215 27.75H584.508V27.6133C584.456 26.6953 584.208 25.9857 583.766 25.4844C583.323 24.9766 582.724 24.7227 581.969 24.7227ZM587.936 28.6191C587.936 27.584 588.137 26.653 588.541 25.8262C588.951 24.9993 589.518 24.3613 590.24 23.9121C590.969 23.4629 591.799 23.2383 592.73 23.2383C594.169 23.2383 595.331 23.7363 596.217 24.7324C597.109 25.7285 597.555 27.0534 597.555 28.707V28.834C597.555 29.8626 597.356 30.7871 596.959 31.6074C596.568 32.4212 596.005 33.056 595.27 33.5117C594.54 33.9674 593.701 34.1953 592.75 34.1953C591.318 34.1953 590.156 33.6973 589.264 32.7012C588.378 31.7051 587.936 30.3867 587.936 28.7461V28.6191ZM589.752 28.834C589.752 30.0059 590.022 30.9466 590.562 31.6562C591.109 32.3659 591.839 32.7207 592.75 32.7207C593.668 32.7207 594.397 32.3626 594.938 31.6465C595.478 30.9238 595.748 29.9147 595.748 28.6191C595.748 27.4603 595.471 26.5228 594.918 25.8066C594.371 25.084 593.642 24.7227 592.73 24.7227C591.839 24.7227 591.119 25.0775 590.572 25.7871C590.025 26.4967 589.752 27.5124 589.752 28.834ZM601.529 23.4336L601.588 24.7617C602.395 23.7461 603.45 23.2383 604.752 23.2383C606.985 23.2383 608.111 24.498 608.131 27.0176V34H606.324V27.0078C606.318 26.2461 606.142 25.6829 605.797 25.3184C605.458 24.9538 604.928 24.7715 604.205 24.7715C603.619 24.7715 603.105 24.9277 602.662 25.2402C602.219 25.5527 601.874 25.9629 601.627 26.4707V34H599.82V23.4336H601.529ZM615.24 34.1953C613.808 34.1953 612.643 33.7266 611.744 32.7891C610.846 31.8451 610.396 30.5853 610.396 29.0098V28.6777C610.396 27.6296 610.595 26.6953 610.992 25.875C611.396 25.0482 611.956 24.4036 612.672 23.9414C613.395 23.4727 614.176 23.2383 615.016 23.2383C616.389 23.2383 617.457 23.6908 618.219 24.5957C618.98 25.5007 619.361 26.7962 619.361 28.4824V29.2344H612.203C612.229 30.276 612.532 31.1191 613.111 31.7637C613.697 32.4017 614.439 32.7207 615.338 32.7207C615.976 32.7207 616.516 32.5905 616.959 32.3301C617.402 32.0697 617.789 31.7246 618.121 31.2949L619.225 32.1543C618.339 33.515 617.011 34.1953 615.24 34.1953ZM615.016 24.7227C614.286 24.7227 613.674 24.9896 613.18 25.5234C612.685 26.0508 612.379 26.793 612.262 27.75H617.555V27.6133C617.503 26.6953 617.255 25.9857 616.812 25.4844C616.37 24.9766 615.771 24.7227 615.016 24.7227ZM402.818 45.875V48.4336H404.791V49.8301H402.818V56.3828C402.818 56.806 402.906 57.125 403.082 57.3398C403.258 57.5482 403.557 57.6523 403.98 57.6523C404.189 57.6523 404.475 57.6133 404.84 57.5352V59C404.365 59.1302 403.902 59.1953 403.453 59.1953C402.646 59.1953 402.037 58.9512 401.627 58.4629C401.217 57.9746 401.012 57.2812 401.012 56.3828V49.8301H399.088V48.4336H401.012V45.875H402.818ZM406.236 53.6191C406.236 52.584 406.438 51.653 406.842 50.8262C407.252 49.9993 407.818 49.3613 408.541 48.9121C409.27 48.4629 410.1 48.2383 411.031 48.2383C412.47 48.2383 413.632 48.7363 414.518 49.7324C415.41 50.7285 415.855 52.0534 415.855 53.707V53.834C415.855 54.8626 415.657 55.7871 415.26 56.6074C414.869 57.4212 414.306 58.056 413.57 58.5117C412.841 58.9674 412.001 59.1953 411.051 59.1953C409.618 59.1953 408.456 58.6973 407.564 57.7012C406.679 56.7051 406.236 55.3867 406.236 53.7461V53.6191ZM408.053 53.834C408.053 55.0059 408.323 55.9466 408.863 56.6562C409.41 57.3659 410.139 57.7207 411.051 57.7207C411.969 57.7207 412.698 57.3626 413.238 56.6465C413.779 55.9238 414.049 54.9147 414.049 53.6191C414.049 52.4603 413.772 51.5228 413.219 50.8066C412.672 50.084 411.943 49.7227 411.031 49.7227C410.139 49.7227 409.42 50.0775 408.873 50.7871C408.326 51.4967 408.053 52.5124 408.053 53.834ZM424.889 49.7129C425.689 48.7298 426.731 48.2383 428.014 48.2383C430.247 48.2383 431.373 49.498 431.393 52.0176V59H429.586V52.0078C429.579 51.2461 429.404 50.6829 429.059 50.3184C428.72 49.9538 428.189 49.7715 427.467 49.7715C426.881 49.7715 426.367 49.9277 425.924 50.2402C425.481 50.5527 425.136 50.9629 424.889 51.4707V59H423.082V44H424.889V49.7129ZM438.482 59.1953C437.05 59.1953 435.885 58.7266 434.986 57.7891C434.088 56.8451 433.639 55.5853 433.639 54.0098V53.6777C433.639 52.6296 433.837 51.6953 434.234 50.875C434.638 50.0482 435.198 49.4036 435.914 48.9414C436.637 48.4727 437.418 48.2383 438.258 48.2383C439.632 48.2383 440.699 48.6908 441.461 49.5957C442.223 50.5007 442.604 51.7962 442.604 53.4824V54.2344H435.445C435.471 55.276 435.774 56.1191 436.354 56.7637C436.939 57.4017 437.682 57.7207 438.58 57.7207C439.218 57.7207 439.758 57.5905 440.201 57.3301C440.644 57.0697 441.031 56.7246 441.363 56.2949L442.467 57.1543C441.581 58.515 440.253 59.1953 438.482 59.1953ZM438.258 49.7227C437.529 49.7227 436.917 49.9896 436.422 50.5234C435.927 51.0508 435.621 51.793 435.504 52.75H440.797V52.6133C440.745 51.6953 440.497 50.9857 440.055 50.4844C439.612 49.9766 439.013 49.7227 438.258 49.7227ZM446.666 59H444.859V44H446.666V59ZM458.492 53.834C458.492 55.4421 458.124 56.7376 457.389 57.7207C456.653 58.7038 455.657 59.1953 454.4 59.1953C453.118 59.1953 452.109 58.7884 451.373 57.9746V63.0625H449.566V48.4336H451.217L451.305 49.6055C452.04 48.694 453.062 48.2383 454.371 48.2383C455.641 48.2383 456.643 48.7168 457.379 49.6738C458.121 50.6309 458.492 51.9622 458.492 53.668V53.834ZM456.686 53.6289C456.686 52.4375 456.432 51.4967 455.924 50.8066C455.416 50.1165 454.719 49.7715 453.834 49.7715C452.74 49.7715 451.92 50.2565 451.373 51.2266V56.2754C451.913 57.2389 452.74 57.7207 453.854 57.7207C454.719 57.7207 455.406 57.3789 455.914 56.6953C456.428 56.0052 456.686 54.9831 456.686 53.6289ZM467.457 48.4336L467.506 49.6055C468.281 48.694 469.326 48.2383 470.641 48.2383C472.118 48.2383 473.124 48.8047 473.658 49.9375C474.01 49.4297 474.465 49.0195 475.025 48.707C475.592 48.3945 476.259 48.2383 477.027 48.2383C479.345 48.2383 480.523 49.4655 480.562 51.9199V59H478.756V52.0273C478.756 51.2721 478.583 50.709 478.238 50.3379C477.893 49.9603 477.314 49.7715 476.5 49.7715C475.829 49.7715 475.273 49.9733 474.83 50.377C474.387 50.7741 474.13 51.3112 474.059 51.9883V59H472.242V52.0762C472.242 50.5397 471.49 49.7715 469.986 49.7715C468.801 49.7715 467.991 50.276 467.555 51.2852V59H465.748V48.4336H467.457ZM487.682 59.1953C486.249 59.1953 485.084 58.7266 484.186 57.7891C483.287 56.8451 482.838 55.5853 482.838 54.0098V53.6777C482.838 52.6296 483.036 51.6953 483.434 50.875C483.837 50.0482 484.397 49.4036 485.113 48.9414C485.836 48.4727 486.617 48.2383 487.457 48.2383C488.831 48.2383 489.898 48.6908 490.66 49.5957C491.422 50.5007 491.803 51.7962 491.803 53.4824V54.2344H484.645C484.671 55.276 484.973 56.1191 485.553 56.7637C486.139 57.4017 486.881 57.7207 487.779 57.7207C488.417 57.7207 488.958 57.5905 489.4 57.3301C489.843 57.0697 490.23 56.7246 490.562 56.2949L491.666 57.1543C490.781 58.515 489.452 59.1953 487.682 59.1953ZM487.457 49.7227C486.728 49.7227 486.116 49.9896 485.621 50.5234C485.126 51.0508 484.82 51.793 484.703 52.75H489.996V52.6133C489.944 51.6953 489.697 50.9857 489.254 50.4844C488.811 49.9766 488.212 49.7227 487.457 49.7227ZM508.219 56.5098L510.25 48.4336H512.057L508.98 59H507.516L504.947 50.9922L502.447 59H500.982L497.916 48.4336H499.713L501.793 56.3438L504.254 48.4336H505.709L508.219 56.5098ZM515.865 59H514.059V48.4336H515.865V59ZM513.912 45.6309C513.912 45.3379 514 45.0905 514.176 44.8887C514.358 44.6868 514.625 44.5859 514.977 44.5859C515.328 44.5859 515.595 44.6868 515.777 44.8887C515.96 45.0905 516.051 45.3379 516.051 45.6309C516.051 45.9238 515.96 46.168 515.777 46.3633C515.595 46.5586 515.328 46.6562 514.977 46.6562C514.625 46.6562 514.358 46.5586 514.176 46.3633C514 46.168 513.912 45.9238 513.912 45.6309ZM521.217 45.875V48.4336H523.189V49.8301H521.217V56.3828C521.217 56.806 521.305 57.125 521.48 57.3398C521.656 57.5482 521.956 57.6523 522.379 57.6523C522.587 57.6523 522.874 57.6133 523.238 57.5352V59C522.763 59.1302 522.301 59.1953 521.852 59.1953C521.044 59.1953 520.436 58.9512 520.025 58.4629C519.615 57.9746 519.41 57.2812 519.41 56.3828V49.8301H517.486V48.4336H519.41V45.875H521.217ZM527.115 49.7129C527.916 48.7298 528.958 48.2383 530.24 48.2383C532.473 48.2383 533.6 49.498 533.619 52.0176V59H531.812V52.0078C531.806 51.2461 531.63 50.6829 531.285 50.3184C530.947 49.9538 530.416 49.7715 529.693 49.7715C529.107 49.7715 528.593 49.9277 528.15 50.2402C527.708 50.5527 527.363 50.9629 527.115 51.4707V59H525.309V44H527.115V49.7129ZM541.891 59V49.8301H540.221V48.4336H541.891V47.5352C541.891 46.3568 542.226 45.4388 542.896 44.7812C543.574 44.1237 544.527 43.7949 545.758 43.7949C546.487 43.7949 547.408 43.9935 548.521 44.3906L548.219 45.9141C547.405 45.5885 546.63 45.4258 545.895 45.4258C545.12 45.4258 544.56 45.6016 544.215 45.9531C543.876 46.2982 543.707 46.819 543.707 47.5156V48.4336H545.865V49.8301H543.707V59H541.891ZM549.42 59H547.604V48.4336H549.42V59ZM554.068 48.4336L554.127 49.7617C554.934 48.7461 555.989 48.2383 557.291 48.2383C559.524 48.2383 560.65 49.498 560.67 52.0176V59H558.863V52.0078C558.857 51.2461 558.681 50.6829 558.336 50.3184C557.997 49.9538 557.467 49.7715 556.744 49.7715C556.158 49.7715 555.644 49.9277 555.201 50.2402C554.758 50.5527 554.413 50.9629 554.166 51.4707V59H552.359V48.4336H554.068ZM562.955 53.6289C562.955 52.0078 563.339 50.7057 564.107 49.7227C564.876 48.7331 565.882 48.2383 567.125 48.2383C568.362 48.2383 569.342 48.6615 570.064 49.5078V44H571.871V59H570.211L570.123 57.8672C569.4 58.7526 568.395 59.1953 567.105 59.1953C565.882 59.1953 564.882 58.694 564.107 57.6914C563.339 56.6888 562.955 55.3802 562.955 53.7656V53.6289ZM564.762 53.834C564.762 55.0319 565.009 55.9694 565.504 56.6465C565.999 57.3236 566.682 57.6621 567.555 57.6621C568.701 57.6621 569.537 57.1478 570.064 56.1191V51.2656C569.524 50.2695 568.694 49.7715 567.574 49.7715C566.689 49.7715 565.999 50.1133 565.504 50.7969C565.009 51.4805 564.762 52.4928 564.762 53.834ZM576.646 59H574.84V48.4336H576.646V59ZM574.693 45.6309C574.693 45.3379 574.781 45.0905 574.957 44.8887C575.139 44.6868 575.406 44.5859 575.758 44.5859C576.109 44.5859 576.376 44.6868 576.559 44.8887C576.741 45.0905 576.832 45.3379 576.832 45.6309C576.832 45.9238 576.741 46.168 576.559 46.3633C576.376 46.5586 576.109 46.6562 575.758 46.6562C575.406 46.6562 575.139 46.5586 574.957 46.3633C574.781 46.168 574.693 45.9238 574.693 45.6309ZM581.256 48.4336L581.314 49.7617C582.122 48.7461 583.176 48.2383 584.479 48.2383C586.712 48.2383 587.838 49.498 587.857 52.0176V59H586.051V52.0078C586.044 51.2461 585.868 50.6829 585.523 50.3184C585.185 49.9538 584.654 49.7715 583.932 49.7715C583.346 49.7715 582.831 49.9277 582.389 50.2402C581.946 50.5527 581.601 50.9629 581.354 51.4707V59H579.547V48.4336H581.256ZM590.152 53.6289C590.152 51.9818 590.533 50.6732 591.295 49.7031C592.057 48.7266 593.066 48.2383 594.322 48.2383C595.611 48.2383 596.617 48.694 597.34 49.6055L597.428 48.4336H599.078V58.7461C599.078 60.1133 598.671 61.1908 597.857 61.9785C597.05 62.7663 595.963 63.1602 594.596 63.1602C593.834 63.1602 593.089 62.9974 592.359 62.6719C591.63 62.3464 591.074 61.9004 590.689 61.334L591.627 60.25C592.402 61.207 593.349 61.6855 594.469 61.6855C595.348 61.6855 596.031 61.4382 596.52 60.9434C597.014 60.4486 597.262 59.752 597.262 58.8535V57.9453C596.539 58.7786 595.553 59.1953 594.303 59.1953C593.066 59.1953 592.063 58.6973 591.295 57.7012C590.533 56.7051 590.152 55.3477 590.152 53.6289ZM591.969 53.834C591.969 55.0254 592.213 55.9629 592.701 56.6465C593.189 57.3236 593.873 57.6621 594.752 57.6621C595.891 57.6621 596.728 57.1445 597.262 56.1094V51.2852C596.708 50.276 595.878 49.7715 594.771 49.7715C593.893 49.7715 593.206 50.1133 592.711 50.7969C592.216 51.4805 591.969 52.4928 591.969 53.834ZM402.818 70.875V73.4336H404.791V74.8301H402.818V81.3828C402.818 81.806 402.906 82.125 403.082 82.3398C403.258 82.5482 403.557 82.6523 403.98 82.6523C404.189 82.6523 404.475 82.6133 404.84 82.5352V84C404.365 84.1302 403.902 84.1953 403.453 84.1953C402.646 84.1953 402.037 83.9512 401.627 83.4629C401.217 82.9746 401.012 82.2812 401.012 81.3828V74.8301H399.088V73.4336H401.012V70.875H402.818ZM408.717 74.7129C409.518 73.7298 410.559 73.2383 411.842 73.2383C414.075 73.2383 415.201 74.498 415.221 77.0176V84H413.414V77.0078C413.408 76.2461 413.232 75.6829 412.887 75.3184C412.548 74.9538 412.018 74.7715 411.295 74.7715C410.709 74.7715 410.195 74.9277 409.752 75.2402C409.309 75.5527 408.964 75.9629 408.717 76.4707V84H406.91V69H408.717V74.7129ZM422.311 84.1953C420.878 84.1953 419.713 83.7266 418.814 82.7891C417.916 81.8451 417.467 80.5853 417.467 79.0098V78.6777C417.467 77.6296 417.665 76.6953 418.062 75.875C418.466 75.0482 419.026 74.4036 419.742 73.9414C420.465 73.4727 421.246 73.2383 422.086 73.2383C423.46 73.2383 424.527 73.6908 425.289 74.5957C426.051 75.5007 426.432 76.7962 426.432 78.4824V79.2344H419.273C419.299 80.276 419.602 81.1191 420.182 81.7637C420.768 82.4017 421.51 82.7207 422.408 82.7207C423.046 82.7207 423.587 82.5905 424.029 82.3301C424.472 82.0697 424.859 81.7246 425.191 81.2949L426.295 82.1543C425.41 83.515 424.081 84.1953 422.311 84.1953ZM422.086 74.7227C421.357 74.7227 420.745 74.9896 420.25 75.5234C419.755 76.0508 419.449 76.793 419.332 77.75H424.625V77.6133C424.573 76.6953 424.326 75.9857 423.883 75.4844C423.44 74.9766 422.841 74.7227 422.086 74.7227ZM435.787 84H433.912V69.7812H435.787V84ZM448.756 71.3242H444.186V84H442.32V71.3242H437.76V69.7812H448.756V71.3242ZM457.115 84H455.309V69H457.115V84ZM466.539 84C466.435 83.7917 466.35 83.4206 466.285 82.8867C465.445 83.7591 464.443 84.1953 463.277 84.1953C462.236 84.1953 461.38 83.9023 460.709 83.3164C460.045 82.724 459.713 81.9753 459.713 81.0703C459.713 79.9701 460.13 79.1172 460.963 78.5117C461.803 77.8997 462.981 77.5938 464.498 77.5938H466.256V76.7637C466.256 76.1322 466.067 75.6309 465.689 75.2598C465.312 74.8822 464.755 74.6934 464.02 74.6934C463.375 74.6934 462.835 74.8561 462.398 75.1816C461.962 75.5072 461.744 75.901 461.744 76.3633H459.928C459.928 75.8359 460.113 75.3281 460.484 74.8398C460.862 74.3451 461.37 73.9544 462.008 73.668C462.652 73.3815 463.359 73.2383 464.127 73.2383C465.344 73.2383 466.298 73.5443 466.988 74.1562C467.678 74.7617 468.036 75.5983 468.062 76.666V81.5293C468.062 82.4993 468.186 83.2708 468.434 83.8438V84H466.539ZM463.541 82.623C464.107 82.623 464.645 82.4766 465.152 82.1836C465.66 81.8906 466.028 81.5098 466.256 81.041V78.873H464.84C462.626 78.873 461.52 79.5208 461.52 80.8164C461.52 81.3828 461.708 81.8255 462.086 82.1445C462.464 82.4635 462.949 82.623 463.541 82.623ZM479.84 78.834C479.84 80.4486 479.469 81.7474 478.727 82.7305C477.984 83.707 476.988 84.1953 475.738 84.1953C474.404 84.1953 473.372 83.7233 472.643 82.7793L472.555 84H470.895V69H472.701V74.5957C473.43 73.6908 474.436 73.2383 475.719 73.2383C477.001 73.2383 478.007 73.7233 478.736 74.6934C479.472 75.6634 479.84 76.9915 479.84 78.6777V78.834ZM478.033 78.6289C478.033 77.3984 477.796 76.4479 477.32 75.7773C476.845 75.1068 476.161 74.7715 475.27 74.7715C474.078 74.7715 473.222 75.3249 472.701 76.4316V81.002C473.255 82.1087 474.117 82.6621 475.289 82.6621C476.155 82.6621 476.829 82.3268 477.311 81.6562C477.792 80.9857 478.033 79.9766 478.033 78.6289ZM484.244 79.9961C484.257 79.2214 484.345 78.6094 484.508 78.1602C484.671 77.7109 485.003 77.2129 485.504 76.666L486.783 75.3477C487.33 74.7292 487.604 74.0651 487.604 73.3555C487.604 72.6719 487.424 72.138 487.066 71.7539C486.708 71.3633 486.188 71.168 485.504 71.168C484.84 71.168 484.306 71.3438 483.902 71.6953C483.499 72.0469 483.297 72.5189 483.297 73.1113H481.49C481.503 72.0566 481.878 71.207 482.613 70.5625C483.355 69.9115 484.319 69.5859 485.504 69.5859C486.734 69.5859 487.691 69.918 488.375 70.582C489.065 71.2396 489.41 72.1445 489.41 73.2969C489.41 74.4362 488.883 75.5592 487.828 76.666L486.764 77.7207C486.288 78.248 486.051 79.0065 486.051 79.9961H484.244ZM484.166 83.0918C484.166 82.7988 484.254 82.5547 484.43 82.3594C484.612 82.1576 484.879 82.0566 485.23 82.0566C485.582 82.0566 485.849 82.1576 486.031 82.3594C486.214 82.5547 486.305 82.7988 486.305 83.0918C486.305 83.3848 486.214 83.6289 486.031 83.8242C485.849 84.013 485.582 84.1074 485.23 84.1074C484.879 84.1074 484.612 84.013 484.43 83.8242C484.254 83.6289 484.166 83.3848 484.166 83.0918ZM492.916 70.3281L492.623 73.8242H491.539L491.549 69H492.916V70.3281ZM495.553 70.3281L495.26 73.8242H494.176L494.186 69H495.553V70.3281Z" fill="black"/>
<path d="M405.977 113.857H403.085V118H402.237V108.047H405.471C406.533 108.047 407.362 108.304 407.959 108.819C408.556 109.334 408.854 110.054 408.854 110.979C408.854 111.618 408.668 112.18 408.294 112.668C407.92 113.156 407.419 113.493 406.79 113.68L409.278 117.911V118H408.383L405.977 113.857ZM403.085 113.14H405.662C406.368 113.14 406.936 112.939 407.364 112.538C407.793 112.137 408.007 111.618 408.007 110.979C408.007 110.278 407.784 109.733 407.337 109.346C406.89 108.958 406.264 108.765 405.457 108.765H403.085V113.14ZM410.502 114.192C410.502 113.481 410.639 112.841 410.912 112.271C411.19 111.702 411.58 111.26 412.081 110.945C412.587 110.626 413.159 110.467 413.797 110.467C414.781 110.467 415.579 110.813 416.189 111.506C416.8 112.194 417.105 113.108 417.105 114.247V114.418C417.105 115.133 416.966 115.778 416.688 116.353C416.415 116.922 416.028 117.362 415.526 117.672C415.025 117.982 414.453 118.137 413.811 118.137C412.831 118.137 412.033 117.793 411.418 117.104C410.807 116.412 410.502 115.496 410.502 114.356V114.192ZM411.322 114.418C411.322 115.302 411.55 116.029 412.006 116.599C412.466 117.164 413.068 117.446 413.811 117.446C414.549 117.446 415.146 117.164 415.602 116.599C416.062 116.029 416.292 115.279 416.292 114.35V114.192C416.292 113.627 416.187 113.11 415.978 112.641C415.768 112.171 415.474 111.809 415.096 111.554C414.717 111.294 414.285 111.164 413.797 111.164C413.068 111.164 412.473 111.451 412.013 112.025C411.552 112.595 411.322 113.342 411.322 114.268V114.418ZM423.23 116.12C423.23 115.715 423.066 115.389 422.738 115.143C422.415 114.896 421.925 114.705 421.269 114.568C420.612 114.427 420.102 114.268 419.737 114.09C419.377 113.908 419.108 113.687 418.931 113.427C418.757 113.167 418.671 112.853 418.671 112.483C418.671 111.9 418.915 111.419 419.402 111.041C419.89 110.658 420.514 110.467 421.275 110.467C422.1 110.467 422.761 110.672 423.258 111.082C423.759 111.488 424.01 112.019 424.01 112.675H423.189C423.189 112.242 423.007 111.882 422.643 111.595C422.283 111.308 421.827 111.164 421.275 111.164C420.738 111.164 420.305 111.285 419.977 111.526C419.653 111.763 419.491 112.073 419.491 112.456C419.491 112.825 419.626 113.112 419.895 113.317C420.168 113.518 420.662 113.702 421.378 113.871C422.098 114.04 422.636 114.22 422.991 114.411C423.351 114.603 423.618 114.833 423.791 115.102C423.964 115.37 424.051 115.696 424.051 116.079C424.051 116.703 423.798 117.202 423.292 117.576C422.791 117.95 422.134 118.137 421.323 118.137C420.462 118.137 419.762 117.929 419.225 117.515C418.691 117.095 418.425 116.567 418.425 115.929H419.245C419.277 116.407 419.478 116.781 419.847 117.05C420.22 117.314 420.713 117.446 421.323 117.446C421.893 117.446 422.353 117.321 422.704 117.07C423.055 116.82 423.23 116.503 423.23 116.12ZM430.565 118C430.483 117.768 430.431 117.424 430.408 116.968C430.121 117.341 429.754 117.631 429.308 117.836C428.866 118.036 428.396 118.137 427.899 118.137C427.188 118.137 426.612 117.938 426.17 117.542C425.732 117.146 425.514 116.644 425.514 116.038C425.514 115.318 425.812 114.748 426.409 114.329C427.011 113.91 427.847 113.7 428.918 113.7H430.401V112.859C430.401 112.331 430.237 111.916 429.909 111.615C429.586 111.31 429.112 111.157 428.487 111.157C427.918 111.157 427.446 111.303 427.072 111.595C426.699 111.886 426.512 112.237 426.512 112.647L425.691 112.641C425.691 112.053 425.965 111.545 426.512 111.116C427.059 110.683 427.731 110.467 428.528 110.467C429.353 110.467 430.003 110.674 430.477 111.089C430.955 111.499 431.201 112.073 431.215 112.812V116.312C431.215 117.027 431.29 117.562 431.44 117.918V118H430.565ZM427.995 117.412C428.542 117.412 429.03 117.28 429.458 117.016C429.891 116.751 430.205 116.398 430.401 115.956V114.329H428.938C428.123 114.338 427.485 114.489 427.024 114.78C426.564 115.067 426.334 115.464 426.334 115.97C426.334 116.384 426.487 116.729 426.792 117.002C427.102 117.275 427.503 117.412 427.995 117.412ZM409.668 133H408.827L403.105 124.482V133H402.258V123.047H403.105L408.834 131.571V123.047H409.668V133ZM414.87 133.137C414.241 133.137 413.672 132.982 413.161 132.672C412.655 132.362 412.261 131.931 411.979 131.38C411.696 130.824 411.555 130.202 411.555 129.514V129.22C411.555 128.509 411.691 127.868 411.965 127.299C412.243 126.729 412.628 126.283 413.12 125.959C413.612 125.631 414.146 125.467 414.72 125.467C415.618 125.467 416.328 125.774 416.853 126.39C417.381 127 417.646 127.837 417.646 128.898V129.356H412.368V129.514C412.368 130.352 412.607 131.052 413.086 131.612C413.569 132.168 414.175 132.446 414.904 132.446C415.342 132.446 415.727 132.367 416.06 132.207C416.397 132.048 416.702 131.792 416.976 131.441L417.488 131.831C416.887 132.701 416.014 133.137 414.87 133.137ZM414.72 126.164C414.104 126.164 413.585 126.39 413.161 126.841C412.742 127.292 412.487 127.898 412.396 128.659H416.832V128.57C416.809 127.859 416.606 127.281 416.224 126.834C415.841 126.387 415.34 126.164 414.72 126.164ZM421.009 131.298L421.132 131.934L421.296 131.264L423.073 125.604H423.771L425.527 131.216L425.719 131.995L425.876 131.277L427.394 125.604H428.241L426.088 133H425.391L423.49 127.135L423.401 126.731L423.312 127.142L421.446 133H420.749L418.603 125.604H419.443L421.009 131.298ZM439.021 130.553C439.021 130.001 438.828 129.566 438.44 129.247C438.053 128.924 437.344 128.618 436.314 128.331C435.285 128.039 434.533 127.723 434.059 127.381C433.384 126.898 433.047 126.264 433.047 125.48C433.047 124.719 433.359 124.102 433.983 123.628C434.612 123.149 435.414 122.91 436.39 122.91C437.05 122.91 437.641 123.038 438.16 123.293C438.684 123.548 439.09 123.904 439.377 124.359C439.664 124.815 439.808 125.323 439.808 125.884H438.96C438.96 125.205 438.728 124.66 438.263 124.25C437.798 123.835 437.174 123.628 436.39 123.628C435.629 123.628 435.022 123.799 434.571 124.141C434.12 124.478 433.895 124.92 433.895 125.467C433.895 125.973 434.097 126.385 434.503 126.704C434.909 127.023 435.558 127.306 436.451 127.552C437.344 127.793 438.021 128.046 438.481 128.311C438.942 128.57 439.288 128.882 439.521 129.247C439.753 129.612 439.869 130.042 439.869 130.539C439.869 131.323 439.555 131.952 438.926 132.426C438.301 132.9 437.477 133.137 436.451 133.137C435.749 133.137 435.104 133.011 434.517 132.761C433.933 132.51 433.489 132.159 433.184 131.708C432.883 131.257 432.732 130.74 432.732 130.156H433.573C433.573 130.858 433.835 131.412 434.359 131.817C434.883 132.223 435.581 132.426 436.451 132.426C437.226 132.426 437.848 132.255 438.317 131.913C438.787 131.571 439.021 131.118 439.021 130.553ZM442.768 123.71V125.604H444.299V126.273H442.768V131.202C442.768 131.612 442.84 131.918 442.986 132.118C443.137 132.319 443.385 132.419 443.731 132.419C443.868 132.419 444.089 132.396 444.395 132.351L444.429 133.021C444.215 133.098 443.923 133.137 443.554 133.137C442.993 133.137 442.585 132.975 442.33 132.651C442.075 132.323 441.947 131.842 441.947 131.209V126.273H440.587V125.604H441.947V123.71H442.768ZM450.752 132.063C450.26 132.779 449.474 133.137 448.394 133.137C447.605 133.137 447.006 132.909 446.596 132.453C446.186 131.993 445.976 131.314 445.967 130.416V125.604H446.78V130.313C446.78 131.722 447.35 132.426 448.489 132.426C449.674 132.426 450.424 131.936 450.738 130.956V125.604H451.559V133H450.766L450.752 132.063ZM453.363 129.233C453.363 128.085 453.618 127.171 454.129 126.492C454.644 125.809 455.341 125.467 456.221 125.467C457.219 125.467 457.98 125.861 458.504 126.649V122.5H459.317V133H458.552L458.518 132.016C457.993 132.763 457.223 133.137 456.207 133.137C455.355 133.137 454.667 132.795 454.143 132.111C453.623 131.423 453.363 130.496 453.363 129.329V129.233ZM454.19 129.377C454.19 130.32 454.38 131.065 454.758 131.612C455.136 132.155 455.669 132.426 456.357 132.426C457.365 132.426 458.08 131.981 458.504 131.093V127.62C458.08 126.659 457.369 126.178 456.371 126.178C455.683 126.178 455.147 126.449 454.765 126.991C454.382 127.529 454.19 128.324 454.19 129.377ZM464.335 133.137C463.706 133.137 463.136 132.982 462.626 132.672C462.12 132.362 461.726 131.931 461.443 131.38C461.161 130.824 461.02 130.202 461.02 129.514V129.22C461.02 128.509 461.156 127.868 461.43 127.299C461.708 126.729 462.093 126.283 462.585 125.959C463.077 125.631 463.61 125.467 464.185 125.467C465.082 125.467 465.793 125.774 466.317 126.39C466.846 127 467.11 127.837 467.11 128.898V129.356H461.833V129.514C461.833 130.352 462.072 131.052 462.551 131.612C463.034 132.168 463.64 132.446 464.369 132.446C464.807 132.446 465.192 132.367 465.524 132.207C465.862 132.048 466.167 131.792 466.44 131.441L466.953 131.831C466.352 132.701 465.479 133.137 464.335 133.137ZM464.185 126.164C463.569 126.164 463.05 126.39 462.626 126.841C462.207 127.292 461.951 127.898 461.86 128.659H466.297V128.57C466.274 127.859 466.071 127.281 465.688 126.834C465.306 126.387 464.804 126.164 464.185 126.164ZM469.482 125.604L469.51 126.868C469.788 126.412 470.134 126.066 470.549 125.829C470.964 125.588 471.422 125.467 471.923 125.467C472.716 125.467 473.306 125.69 473.693 126.137C474.081 126.583 474.277 127.253 474.281 128.146V133H473.468V128.14C473.463 127.479 473.322 126.987 473.044 126.663C472.771 126.34 472.331 126.178 471.725 126.178C471.219 126.178 470.77 126.337 470.378 126.656C469.991 126.971 469.703 127.397 469.517 127.935V133H468.703V125.604H469.482ZM477.672 123.71V125.604H479.203V126.273H477.672V131.202C477.672 131.612 477.745 131.918 477.891 132.118C478.041 132.319 478.289 132.419 478.636 132.419C478.772 132.419 478.993 132.396 479.299 132.351L479.333 133.021C479.119 133.098 478.827 133.137 478.458 133.137C477.897 133.137 477.49 132.975 477.234 132.651C476.979 132.323 476.852 131.842 476.852 131.209V126.273H475.491V125.604H476.852V123.71H477.672Z" fill="black"/>
</svg>
