<svg width="928" height="144" viewBox="0 0 928 144" fill="none" xmlns="http://www.w3.org/2000/svg">
<rect width="928" height="133" fill="white"/>
<path d="M369 1H858C869.046 1 878 9.95431 878 21V116C878 127.046 869.046 136 858 136H419.794C408.748 136 399.794 127.046 399.794 116V30.4509C399.794 23.3376 396.016 16.7597 389.871 13.1755L369 1Z" fill="#F5F5F5"/>
<path d="M413.705 11.3281L413.412 14.8242H412.328L412.338 10H413.705V11.3281ZM416.342 11.3281L416.049 14.8242H414.965L414.975 10H416.342V11.3281ZM429.066 10.7812V20.4492C429.06 21.7904 428.637 22.8874 427.797 23.7402C426.964 24.5931 425.831 25.0716 424.398 25.1758L423.9 25.1953C422.344 25.1953 421.104 24.7754 420.18 23.9355C419.255 23.0957 418.786 21.9401 418.773 20.4688V10.7812H420.629V20.4102C420.629 21.4388 420.912 22.2396 421.479 22.8125C422.045 23.3789 422.852 23.6621 423.9 23.6621C424.962 23.6621 425.772 23.3789 426.332 22.8125C426.898 22.2461 427.182 21.4486 427.182 20.4199V10.7812H429.066ZM433.441 14.4336L433.49 15.6055C434.265 14.694 435.31 14.2383 436.625 14.2383C438.103 14.2383 439.109 14.8047 439.643 15.9375C439.994 15.4297 440.45 15.0195 441.01 14.707C441.576 14.3945 442.243 14.2383 443.012 14.2383C445.329 14.2383 446.508 15.4655 446.547 17.9199V25H444.74V18.0273C444.74 17.2721 444.568 16.709 444.223 16.3379C443.878 15.9603 443.298 15.7715 442.484 15.7715C441.814 15.7715 441.257 15.9733 440.814 16.377C440.372 16.7741 440.115 17.3112 440.043 17.9883V25H438.227V18.0762C438.227 16.5397 437.475 15.7715 435.971 15.7715C434.786 15.7715 433.975 16.276 433.539 17.2852V25H431.732V14.4336H433.441ZM449.223 27.832L448.197 27.1289C448.809 26.276 449.128 25.3971 449.154 24.4922V22.8613H450.922V24.2773C450.922 24.9349 450.759 25.5924 450.434 26.25C450.115 26.9076 449.711 27.4349 449.223 27.832ZM460.463 25H458.588V10.7812H460.463V25ZM469.467 25V15.8301H467.797V14.4336H469.467V13.3496C469.467 12.2168 469.77 11.3411 470.375 10.7227C470.98 10.1042 471.837 9.79492 472.943 9.79492C473.36 9.79492 473.773 9.85026 474.184 9.96094L474.086 11.4258C473.78 11.3672 473.454 11.3379 473.109 11.3379C472.523 11.3379 472.071 11.5104 471.752 11.8555C471.433 12.194 471.273 12.6823 471.273 13.3203V14.4336H473.529V15.8301H471.273V25H469.467ZM479.682 25.1953C478.249 25.1953 477.084 24.7266 476.186 23.7891C475.287 22.8451 474.838 21.5853 474.838 20.0098V19.6777C474.838 18.6296 475.036 17.6953 475.434 16.875C475.837 16.0482 476.397 15.4036 477.113 14.9414C477.836 14.4727 478.617 14.2383 479.457 14.2383C480.831 14.2383 481.898 14.6908 482.66 15.5957C483.422 16.5007 483.803 17.7962 483.803 19.4824V20.2344H476.645C476.671 21.276 476.973 22.1191 477.553 22.7637C478.139 23.4017 478.881 23.7207 479.779 23.7207C480.417 23.7207 480.958 23.5905 481.4 23.3301C481.843 23.0697 482.23 22.7246 482.562 22.2949L483.666 23.1543C482.781 24.515 481.452 25.1953 479.682 25.1953ZM479.457 15.7227C478.728 15.7227 478.116 15.9896 477.621 16.5234C477.126 17.0508 476.82 17.793 476.703 18.75H481.996V18.6133C481.944 17.6953 481.697 16.9857 481.254 16.4844C480.811 15.9766 480.212 15.7227 479.457 15.7227ZM490.287 25.1953C488.855 25.1953 487.689 24.7266 486.791 23.7891C485.893 22.8451 485.443 21.5853 485.443 20.0098V19.6777C485.443 18.6296 485.642 17.6953 486.039 16.875C486.443 16.0482 487.003 15.4036 487.719 14.9414C488.441 14.4727 489.223 14.2383 490.062 14.2383C491.436 14.2383 492.504 14.6908 493.266 15.5957C494.027 16.5007 494.408 17.7962 494.408 19.4824V20.2344H487.25C487.276 21.276 487.579 22.1191 488.158 22.7637C488.744 23.4017 489.486 23.7207 490.385 23.7207C491.023 23.7207 491.563 23.5905 492.006 23.3301C492.449 23.0697 492.836 22.7246 493.168 22.2949L494.271 23.1543C493.386 24.515 492.058 25.1953 490.287 25.1953ZM490.062 15.7227C489.333 15.7227 488.721 15.9896 488.227 16.5234C487.732 17.0508 487.426 17.793 487.309 18.75H492.602V18.6133C492.549 17.6953 492.302 16.9857 491.859 16.4844C491.417 15.9766 490.818 15.7227 490.062 15.7227ZM498.471 25H496.664V10H498.471V25ZM508.295 25H506.488V10H508.295V25ZM513.158 25H511.352V14.4336H513.158V25ZM511.205 11.6309C511.205 11.3379 511.293 11.0905 511.469 10.8887C511.651 10.6868 511.918 10.5859 512.27 10.5859C512.621 10.5859 512.888 10.6868 513.07 10.8887C513.253 11.0905 513.344 11.3379 513.344 11.6309C513.344 11.9238 513.253 12.168 513.07 12.3633C512.888 12.5586 512.621 12.6562 512.27 12.6562C511.918 12.6562 511.651 12.5586 511.469 12.3633C511.293 12.168 511.205 11.9238 511.205 11.6309ZM519.008 20.1074L517.875 21.2891V25H516.068V10H517.875V19.0723L518.842 17.9102L522.133 14.4336H524.33L520.219 18.8477L524.809 25H522.689L519.008 20.1074ZM530.385 25.1953C528.952 25.1953 527.787 24.7266 526.889 23.7891C525.99 22.8451 525.541 21.5853 525.541 20.0098V19.6777C525.541 18.6296 525.74 17.6953 526.137 16.875C526.54 16.0482 527.1 15.4036 527.816 14.9414C528.539 14.4727 529.32 14.2383 530.16 14.2383C531.534 14.2383 532.602 14.6908 533.363 15.5957C534.125 16.5007 534.506 17.7962 534.506 19.4824V20.2344H527.348C527.374 21.276 527.676 22.1191 528.256 22.7637C528.842 23.4017 529.584 23.7207 530.482 23.7207C531.12 23.7207 531.661 23.5905 532.104 23.3301C532.546 23.0697 532.934 22.7246 533.266 22.2949L534.369 23.1543C533.484 24.515 532.156 25.1953 530.385 25.1953ZM530.16 15.7227C529.431 15.7227 528.819 15.9896 528.324 16.5234C527.829 17.0508 527.523 17.793 527.406 18.75H532.699V18.6133C532.647 17.6953 532.4 16.9857 531.957 16.4844C531.514 15.9766 530.915 15.7227 530.16 15.7227ZM536.547 27.832L535.521 27.1289C536.133 26.276 536.452 25.3971 536.479 24.4922V22.8613H538.246V24.2773C538.246 24.9349 538.083 25.5924 537.758 26.25C537.439 26.9076 537.035 27.4349 536.547 27.832ZM546.098 25V15.8301H544.428V14.4336H546.098V13.5352C546.098 12.3568 546.433 11.4388 547.104 10.7812C547.781 10.1237 548.734 9.79492 549.965 9.79492C550.694 9.79492 551.615 9.99349 552.729 10.3906L552.426 11.9141C551.612 11.5885 550.837 11.4258 550.102 11.4258C549.327 11.4258 548.767 11.6016 548.422 11.9531C548.083 12.2982 547.914 12.819 547.914 13.5156V14.4336H550.072V15.8301H547.914V25H546.098ZM553.627 25H551.811V14.4336H553.627V25ZM558.275 14.4336L558.334 15.7617C559.141 14.7461 560.196 14.2383 561.498 14.2383C563.731 14.2383 564.857 15.498 564.877 18.0176V25H563.07V18.0078C563.064 17.2461 562.888 16.6829 562.543 16.3184C562.204 15.9538 561.674 15.7715 560.951 15.7715C560.365 15.7715 559.851 15.9277 559.408 16.2402C558.965 16.5527 558.62 16.9629 558.373 17.4707V25H556.566V14.4336H558.275ZM567.162 19.6289C567.162 18.0078 567.546 16.7057 568.314 15.7227C569.083 14.7331 570.089 14.2383 571.332 14.2383C572.569 14.2383 573.549 14.6615 574.271 15.5078V10H576.078V25H574.418L574.33 23.8672C573.607 24.7526 572.602 25.1953 571.312 25.1953C570.089 25.1953 569.089 24.694 568.314 23.6914C567.546 22.6888 567.162 21.3802 567.162 19.7656V19.6289ZM568.969 19.834C568.969 21.0319 569.216 21.9694 569.711 22.6465C570.206 23.3236 570.889 23.6621 571.762 23.6621C572.908 23.6621 573.744 23.1478 574.271 22.1191V17.2656C573.731 16.2695 572.901 15.7715 571.781 15.7715C570.896 15.7715 570.206 16.1133 569.711 16.7969C569.216 17.4805 568.969 18.4928 568.969 19.834ZM580.854 25H579.047V14.4336H580.854V25ZM578.9 11.6309C578.9 11.3379 578.988 11.0905 579.164 10.8887C579.346 10.6868 579.613 10.5859 579.965 10.5859C580.316 10.5859 580.583 10.6868 580.766 10.8887C580.948 11.0905 581.039 11.3379 581.039 11.6309C581.039 11.9238 580.948 12.168 580.766 12.3633C580.583 12.5586 580.316 12.6562 579.965 12.6562C579.613 12.6562 579.346 12.5586 579.164 12.3633C578.988 12.168 578.9 11.9238 578.9 11.6309ZM585.463 14.4336L585.521 15.7617C586.329 14.7461 587.383 14.2383 588.686 14.2383C590.919 14.2383 592.045 15.498 592.064 18.0176V25H590.258V18.0078C590.251 17.2461 590.076 16.6829 589.73 16.3184C589.392 15.9538 588.861 15.7715 588.139 15.7715C587.553 15.7715 587.038 15.9277 586.596 16.2402C586.153 16.5527 585.808 16.9629 585.561 17.4707V25H583.754V14.4336H585.463ZM594.359 19.6289C594.359 17.9818 594.74 16.6732 595.502 15.7031C596.264 14.7266 597.273 14.2383 598.529 14.2383C599.818 14.2383 600.824 14.694 601.547 15.6055L601.635 14.4336H603.285V24.7461C603.285 26.1133 602.878 27.1908 602.064 27.9785C601.257 28.7663 600.17 29.1602 598.803 29.1602C598.041 29.1602 597.296 28.9974 596.566 28.6719C595.837 28.3464 595.281 27.9004 594.896 27.334L595.834 26.25C596.609 27.207 597.556 27.6855 598.676 27.6855C599.555 27.6855 600.238 27.4382 600.727 26.9434C601.221 26.4486 601.469 25.752 601.469 24.8535V23.9453C600.746 24.7786 599.76 25.1953 598.51 25.1953C597.273 25.1953 596.27 24.6973 595.502 23.7012C594.74 22.7051 594.359 21.3477 594.359 19.6289ZM596.176 19.834C596.176 21.0254 596.42 21.9629 596.908 22.6465C597.396 23.3236 598.08 23.6621 598.959 23.6621C600.098 23.6621 600.935 23.1445 601.469 22.1094V17.2852C600.915 16.276 600.085 15.7715 598.979 15.7715C598.1 15.7715 597.413 16.1133 596.918 16.7969C596.423 17.4805 596.176 18.4928 596.176 19.834ZM617.504 25C617.4 24.7917 617.315 24.4206 617.25 23.8867C616.41 24.7591 615.408 25.1953 614.242 25.1953C613.201 25.1953 612.344 24.9023 611.674 24.3164C611.01 23.724 610.678 22.9753 610.678 22.0703C610.678 20.9701 611.094 20.1172 611.928 19.5117C612.768 18.8997 613.946 18.5938 615.463 18.5938H617.221V17.7637C617.221 17.1322 617.032 16.6309 616.654 16.2598C616.277 15.8822 615.72 15.6934 614.984 15.6934C614.34 15.6934 613.799 15.8561 613.363 16.1816C612.927 16.5072 612.709 16.901 612.709 17.3633H610.893C610.893 16.8359 611.078 16.3281 611.449 15.8398C611.827 15.3451 612.335 14.9544 612.973 14.668C613.617 14.3815 614.324 14.2383 615.092 14.2383C616.309 14.2383 617.263 14.5443 617.953 15.1562C618.643 15.7617 619.001 16.5983 619.027 17.666V22.5293C619.027 23.4993 619.151 24.2708 619.398 24.8438V25H617.504ZM614.506 23.623C615.072 23.623 615.609 23.4766 616.117 23.1836C616.625 22.8906 616.993 22.5098 617.221 22.041V19.873H615.805C613.591 19.873 612.484 20.5208 612.484 21.8164C612.484 22.3828 612.673 22.8255 613.051 23.1445C613.428 23.4635 613.913 23.623 614.506 23.623ZM631.928 16.0547C631.654 16.0091 631.358 15.9863 631.039 15.9863C629.854 15.9863 629.05 16.4909 628.627 17.5V25H626.82V14.4336H628.578L628.607 15.6543C629.2 14.7103 630.04 14.2383 631.127 14.2383C631.479 14.2383 631.745 14.2839 631.928 14.375V16.0547ZM632.924 19.6191C632.924 18.584 633.126 17.653 633.529 16.8262C633.939 15.9993 634.506 15.3613 635.229 14.9121C635.958 14.4629 636.788 14.2383 637.719 14.2383C639.158 14.2383 640.32 14.7363 641.205 15.7324C642.097 16.7285 642.543 18.0534 642.543 19.707V19.834C642.543 20.8626 642.344 21.7871 641.947 22.6074C641.557 23.4212 640.993 24.056 640.258 24.5117C639.529 24.9674 638.689 25.1953 637.738 25.1953C636.306 25.1953 635.144 24.6973 634.252 23.7012C633.367 22.7051 632.924 21.3867 632.924 19.7461V19.6191ZM634.74 19.834C634.74 21.0059 635.01 21.9466 635.551 22.6562C636.098 23.3659 636.827 23.7207 637.738 23.7207C638.656 23.7207 639.385 23.3626 639.926 22.6465C640.466 21.9238 640.736 20.9147 640.736 19.6191C640.736 18.4603 640.46 17.5228 639.906 16.8066C639.359 16.084 638.63 15.7227 637.719 15.7227C636.827 15.7227 636.107 16.0775 635.561 16.7871C635.014 17.4967 634.74 18.5124 634.74 19.834ZM644.33 19.6191C644.33 18.584 644.532 17.653 644.936 16.8262C645.346 15.9993 645.912 15.3613 646.635 14.9121C647.364 14.4629 648.194 14.2383 649.125 14.2383C650.564 14.2383 651.726 14.7363 652.611 15.7324C653.503 16.7285 653.949 18.0534 653.949 19.707V19.834C653.949 20.8626 653.751 21.7871 653.354 22.6074C652.963 23.4212 652.4 24.056 651.664 24.5117C650.935 24.9674 650.095 25.1953 649.145 25.1953C647.712 25.1953 646.55 24.6973 645.658 23.7012C644.773 22.7051 644.33 21.3867 644.33 19.7461V19.6191ZM646.146 19.834C646.146 21.0059 646.417 21.9466 646.957 22.6562C647.504 23.3659 648.233 23.7207 649.145 23.7207C650.062 23.7207 650.792 23.3626 651.332 22.6465C651.872 21.9238 652.143 20.9147 652.143 19.6191C652.143 18.4603 651.866 17.5228 651.312 16.8066C650.766 16.084 650.036 15.7227 649.125 15.7227C648.233 15.7227 647.514 16.0775 646.967 16.7871C646.42 17.4967 646.146 18.5124 646.146 19.834ZM657.914 14.4336L657.963 15.6055C658.738 14.694 659.783 14.2383 661.098 14.2383C662.576 14.2383 663.581 14.8047 664.115 15.9375C664.467 15.4297 664.923 15.0195 665.482 14.707C666.049 14.3945 666.716 14.2383 667.484 14.2383C669.802 14.2383 670.98 15.4655 671.02 17.9199V25H669.213V18.0273C669.213 17.2721 669.04 16.709 668.695 16.3379C668.35 15.9603 667.771 15.7715 666.957 15.7715C666.286 15.7715 665.73 15.9733 665.287 16.377C664.844 16.7741 664.587 17.3112 664.516 17.9883V25H662.699V18.0762C662.699 16.5397 661.947 15.7715 660.443 15.7715C659.258 15.7715 658.448 16.276 658.012 17.2852V25H656.205V14.4336H657.914ZM680.678 25H678.871V14.4336H680.678V25ZM678.725 11.6309C678.725 11.3379 678.812 11.0905 678.988 10.8887C679.171 10.6868 679.438 10.5859 679.789 10.5859C680.141 10.5859 680.408 10.6868 680.59 10.8887C680.772 11.0905 680.863 11.3379 680.863 11.6309C680.863 11.9238 680.772 12.168 680.59 12.3633C680.408 12.5586 680.141 12.6562 679.789 12.6562C679.438 12.6562 679.171 12.5586 678.988 12.3633C678.812 12.168 678.725 11.9238 678.725 11.6309ZM685.287 14.4336L685.346 15.7617C686.153 14.7461 687.208 14.2383 688.51 14.2383C690.743 14.2383 691.869 15.498 691.889 18.0176V25H690.082V18.0078C690.076 17.2461 689.9 16.6829 689.555 16.3184C689.216 15.9538 688.686 15.7715 687.963 15.7715C687.377 15.7715 686.863 15.9277 686.42 16.2402C685.977 16.5527 685.632 16.9629 685.385 17.4707V25H683.578V14.4336H685.287ZM702.025 11.875V14.4336H703.998V15.8301H702.025V22.3828C702.025 22.806 702.113 23.125 702.289 23.3398C702.465 23.5482 702.764 23.6523 703.188 23.6523C703.396 23.6523 703.682 23.6133 704.047 23.5352V25C703.572 25.1302 703.109 25.1953 702.66 25.1953C701.853 25.1953 701.244 24.9512 700.834 24.4629C700.424 23.9746 700.219 23.2812 700.219 22.3828V15.8301H698.295V14.4336H700.219V11.875H702.025ZM707.924 15.7129C708.725 14.7298 709.766 14.2383 711.049 14.2383C713.282 14.2383 714.408 15.498 714.428 18.0176V25H712.621V18.0078C712.615 17.2461 712.439 16.6829 712.094 16.3184C711.755 15.9538 711.225 15.7715 710.502 15.7715C709.916 15.7715 709.402 15.9277 708.959 16.2402C708.516 16.5527 708.171 16.9629 707.924 17.4707V25H706.117V10H707.924V15.7129ZM719.096 25H717.289V14.4336H719.096V25ZM717.143 11.6309C717.143 11.3379 717.23 11.0905 717.406 10.8887C717.589 10.6868 717.855 10.5859 718.207 10.5859C718.559 10.5859 718.826 10.6868 719.008 10.8887C719.19 11.0905 719.281 11.3379 719.281 11.6309C719.281 11.9238 719.19 12.168 719.008 12.3633C718.826 12.5586 718.559 12.6562 718.207 12.6562C717.855 12.6562 717.589 12.5586 717.406 12.3633C717.23 12.168 717.143 11.9238 717.143 11.6309ZM728.148 22.1973C728.148 21.709 727.963 21.3314 727.592 21.0645C727.227 20.791 726.586 20.5566 725.668 20.3613C724.757 20.166 724.031 19.9316 723.49 19.6582C722.956 19.3848 722.559 19.0592 722.299 18.6816C722.045 18.304 721.918 17.8548 721.918 17.334C721.918 16.4681 722.283 15.7357 723.012 15.1367C723.747 14.5378 724.685 14.2383 725.824 14.2383C727.022 14.2383 727.992 14.5475 728.734 15.166C729.483 15.7845 729.857 16.5755 729.857 17.5391H728.041C728.041 17.0443 727.829 16.6178 727.406 16.2598C726.99 15.9017 726.462 15.7227 725.824 15.7227C725.167 15.7227 724.652 15.8659 724.281 16.1523C723.91 16.4388 723.725 16.8132 723.725 17.2754C723.725 17.7116 723.897 18.0404 724.242 18.2617C724.587 18.4831 725.209 18.6947 726.107 18.8965C727.012 19.0983 727.745 19.3392 728.305 19.6191C728.865 19.8991 729.278 20.2376 729.545 20.6348C729.818 21.0254 729.955 21.5039 729.955 22.0703C729.955 23.0143 729.577 23.7728 728.822 24.3457C728.067 24.9121 727.087 25.1953 725.883 25.1953C725.036 25.1953 724.288 25.0456 723.637 24.7461C722.986 24.4466 722.475 24.0299 722.104 23.4961C721.739 22.9557 721.557 22.373 721.557 21.748H723.363C723.396 22.3535 723.637 22.8353 724.086 23.1934C724.542 23.5449 725.141 23.7207 725.883 23.7207C726.566 23.7207 727.113 23.584 727.523 23.3105C727.94 23.0306 728.148 22.6595 728.148 22.1973ZM746.215 19.834C746.215 21.4486 745.844 22.7474 745.102 23.7305C744.359 24.707 743.363 25.1953 742.113 25.1953C740.779 25.1953 739.747 24.7233 739.018 23.7793L738.93 25H737.27V10H739.076V15.5957C739.805 14.6908 740.811 14.2383 742.094 14.2383C743.376 14.2383 744.382 14.7233 745.111 15.6934C745.847 16.6634 746.215 17.9915 746.215 19.6777V19.834ZM744.408 19.6289C744.408 18.3984 744.171 17.4479 743.695 16.7773C743.22 16.1068 742.536 15.7715 741.645 15.7715C740.453 15.7715 739.597 16.3249 739.076 17.4316V22.002C739.63 23.1087 740.492 23.6621 741.664 23.6621C742.53 23.6621 743.204 23.3268 743.686 22.6562C744.167 21.9857 744.408 20.9766 744.408 19.6289ZM755.023 23.9551C754.32 24.7819 753.288 25.1953 751.928 25.1953C750.801 25.1953 749.942 24.8698 749.35 24.2188C748.764 23.5612 748.467 22.5911 748.461 21.3086V14.4336H750.268V21.2598C750.268 22.8613 750.919 23.6621 752.221 23.6621C753.601 23.6621 754.519 23.1478 754.975 22.1191V14.4336H756.781V25H755.062L755.023 23.9551ZM761.498 25H759.691V14.4336H761.498V25ZM759.545 11.6309C759.545 11.3379 759.633 11.0905 759.809 10.8887C759.991 10.6868 760.258 10.5859 760.609 10.5859C760.961 10.5859 761.228 10.6868 761.41 10.8887C761.592 11.0905 761.684 11.3379 761.684 11.6309C761.684 11.9238 761.592 12.168 761.41 12.3633C761.228 12.5586 760.961 12.6562 760.609 12.6562C760.258 12.6562 759.991 12.5586 759.809 12.3633C759.633 12.168 759.545 11.9238 759.545 11.6309ZM766.361 25H764.555V10H766.361V25ZM768.822 19.6289C768.822 18.0078 769.206 16.7057 769.975 15.7227C770.743 14.7331 771.749 14.2383 772.992 14.2383C774.229 14.2383 775.209 14.6615 775.932 15.5078V10H777.738V25H776.078L775.99 23.8672C775.268 24.7526 774.262 25.1953 772.973 25.1953C771.749 25.1953 770.749 24.694 769.975 23.6914C769.206 22.6888 768.822 21.3802 768.822 19.7656V19.6289ZM770.629 19.834C770.629 21.0319 770.876 21.9694 771.371 22.6465C771.866 23.3236 772.549 23.6621 773.422 23.6621C774.568 23.6621 775.404 23.1478 775.932 22.1191V17.2656C775.391 16.2695 774.561 15.7715 773.441 15.7715C772.556 15.7715 771.866 16.1133 771.371 16.7969C770.876 17.4805 770.629 18.4928 770.629 19.834ZM782.514 25H780.707V14.4336H782.514V25ZM780.561 11.6309C780.561 11.3379 780.648 11.0905 780.824 10.8887C781.007 10.6868 781.273 10.5859 781.625 10.5859C781.977 10.5859 782.243 10.6868 782.426 10.8887C782.608 11.0905 782.699 11.3379 782.699 11.6309C782.699 11.9238 782.608 12.168 782.426 12.3633C782.243 12.5586 781.977 12.6562 781.625 12.6562C781.273 12.6562 781.007 12.5586 780.824 12.3633C780.648 12.168 780.561 11.9238 780.561 11.6309ZM787.123 14.4336L787.182 15.7617C787.989 14.7461 789.044 14.2383 790.346 14.2383C792.579 14.2383 793.705 15.498 793.725 18.0176V25H791.918V18.0078C791.911 17.2461 791.736 16.6829 791.391 16.3184C791.052 15.9538 790.521 15.7715 789.799 15.7715C789.213 15.7715 788.699 15.9277 788.256 16.2402C787.813 16.5527 787.468 16.9629 787.221 17.4707V25H785.414V14.4336H787.123ZM796.02 19.6289C796.02 17.9818 796.4 16.6732 797.162 15.7031C797.924 14.7266 798.933 14.2383 800.189 14.2383C801.479 14.2383 802.484 14.694 803.207 15.6055L803.295 14.4336H804.945V24.7461C804.945 26.1133 804.538 27.1908 803.725 27.9785C802.917 28.7663 801.83 29.1602 800.463 29.1602C799.701 29.1602 798.956 28.9974 798.227 28.6719C797.497 28.3464 796.941 27.9004 796.557 27.334L797.494 26.25C798.269 27.207 799.216 27.6855 800.336 27.6855C801.215 27.6855 801.898 27.4382 802.387 26.9434C802.882 26.4486 803.129 25.752 803.129 24.8535V23.9453C802.406 24.7786 801.42 25.1953 800.17 25.1953C798.933 25.1953 797.93 24.6973 797.162 23.7012C796.4 22.7051 796.02 21.3477 796.02 19.6289ZM797.836 19.834C797.836 21.0254 798.08 21.9629 798.568 22.6465C799.057 23.3236 799.74 23.6621 800.619 23.6621C801.758 23.6621 802.595 23.1445 803.129 22.1094V17.2852C802.576 16.276 801.745 15.7715 800.639 15.7715C799.76 15.7715 799.073 16.1133 798.578 16.7969C798.083 17.4805 797.836 18.4928 797.836 19.834ZM807.621 27.832L806.596 27.1289C807.208 26.276 807.527 25.3971 807.553 24.4922V22.8613H809.32V24.2773C809.32 24.9349 809.158 25.5924 808.832 26.25C808.513 26.9076 808.109 27.4349 807.621 27.832ZM818.529 25H816.723V14.4336H818.529V25ZM816.576 11.6309C816.576 11.3379 816.664 11.0905 816.84 10.8887C817.022 10.6868 817.289 10.5859 817.641 10.5859C817.992 10.5859 818.259 10.6868 818.441 10.8887C818.624 11.0905 818.715 11.3379 818.715 11.6309C818.715 11.9238 818.624 12.168 818.441 12.3633C818.259 12.5586 817.992 12.6562 817.641 12.6562C817.289 12.6562 817.022 12.5586 816.84 12.3633C816.664 12.168 816.576 11.9238 816.576 11.6309ZM827.582 22.1973C827.582 21.709 827.396 21.3314 827.025 21.0645C826.661 20.791 826.02 20.5566 825.102 20.3613C824.19 20.166 823.464 19.9316 822.924 19.6582C822.39 19.3848 821.993 19.0592 821.732 18.6816C821.479 18.304 821.352 17.8548 821.352 17.334C821.352 16.4681 821.716 15.7357 822.445 15.1367C823.181 14.5378 824.118 14.2383 825.258 14.2383C826.456 14.2383 827.426 14.5475 828.168 15.166C828.917 15.7845 829.291 16.5755 829.291 17.5391H827.475C827.475 17.0443 827.263 16.6178 826.84 16.2598C826.423 15.9017 825.896 15.7227 825.258 15.7227C824.6 15.7227 824.086 15.8659 823.715 16.1523C823.344 16.4388 823.158 16.8132 823.158 17.2754C823.158 17.7116 823.331 18.0404 823.676 18.2617C824.021 18.4831 824.643 18.6947 825.541 18.8965C826.446 19.0983 827.178 19.3392 827.738 19.6191C828.298 19.8991 828.712 20.2376 828.979 20.6348C829.252 21.0254 829.389 21.5039 829.389 22.0703C829.389 23.0143 829.011 23.7728 828.256 24.3457C827.501 24.9121 826.521 25.1953 825.316 25.1953C824.47 25.1953 823.721 25.0456 823.07 24.7461C822.419 24.4466 821.908 24.0299 821.537 23.4961C821.173 22.9557 820.99 22.373 820.99 21.748H822.797C822.829 22.3535 823.07 22.8353 823.52 23.1934C823.975 23.5449 824.574 23.7207 825.316 23.7207C826 23.7207 826.547 23.584 826.957 23.3105C827.374 23.0306 827.582 22.6595 827.582 22.1973ZM839.154 11.875V14.4336H841.127V15.8301H839.154V22.3828C839.154 22.806 839.242 23.125 839.418 23.3398C839.594 23.5482 839.893 23.6523 840.316 23.6523C840.525 23.6523 840.811 23.6133 841.176 23.5352V25C840.701 25.1302 840.238 25.1953 839.789 25.1953C838.982 25.1953 838.373 24.9512 837.963 24.4629C837.553 23.9746 837.348 23.2812 837.348 22.3828V15.8301H835.424V14.4336H837.348V11.875H839.154ZM845.053 15.7129C845.854 14.7298 846.895 14.2383 848.178 14.2383C850.411 14.2383 851.537 15.498 851.557 18.0176V25H849.75V18.0078C849.743 17.2461 849.568 16.6829 849.223 16.3184C848.884 15.9538 848.354 15.7715 847.631 15.7715C847.045 15.7715 846.531 15.9277 846.088 16.2402C845.645 16.5527 845.3 16.9629 845.053 17.4707V25H843.246V10H845.053V15.7129ZM858.646 25.1953C857.214 25.1953 856.049 24.7266 855.15 23.7891C854.252 22.8451 853.803 21.5853 853.803 20.0098V19.6777C853.803 18.6296 854.001 17.6953 854.398 16.875C854.802 16.0482 855.362 15.4036 856.078 14.9414C856.801 14.4727 857.582 14.2383 858.422 14.2383C859.796 14.2383 860.863 14.6908 861.625 15.5957C862.387 16.5007 862.768 17.7962 862.768 19.4824V20.2344H855.609C855.635 21.276 855.938 22.1191 856.518 22.7637C857.104 23.4017 857.846 23.7207 858.744 23.7207C859.382 23.7207 859.923 23.5905 860.365 23.3301C860.808 23.0697 861.195 22.7246 861.527 22.2949L862.631 23.1543C861.745 24.515 860.417 25.1953 858.646 25.1953ZM858.422 15.7227C857.693 15.7227 857.081 15.9896 856.586 16.5234C856.091 17.0508 855.785 17.793 855.668 18.75H860.961V18.6133C860.909 17.6953 860.661 16.9857 860.219 16.4844C859.776 15.9766 859.177 15.7227 858.422 15.7227ZM414.066 39.4336L414.115 40.6055C414.89 39.694 415.935 39.2383 417.25 39.2383C418.728 39.2383 419.734 39.8047 420.268 40.9375C420.619 40.4297 421.075 40.0195 421.635 39.707C422.201 39.3945 422.868 39.2383 423.637 39.2383C425.954 39.2383 427.133 40.4655 427.172 42.9199V50H425.365V43.0273C425.365 42.2721 425.193 41.709 424.848 41.3379C424.503 40.9603 423.923 40.7715 423.109 40.7715C422.439 40.7715 421.882 40.9733 421.439 41.377C420.997 41.7741 420.74 42.3112 420.668 42.9883V50H418.852V43.0762C418.852 41.5397 418.1 40.7715 416.596 40.7715C415.411 40.7715 414.6 41.276 414.164 42.2852V50H412.357V39.4336H414.066ZM429.428 44.6191C429.428 43.584 429.63 42.653 430.033 41.8262C430.443 40.9993 431.01 40.3613 431.732 39.9121C432.462 39.4629 433.292 39.2383 434.223 39.2383C435.661 39.2383 436.824 39.7363 437.709 40.7324C438.601 41.7285 439.047 43.0534 439.047 44.707V44.834C439.047 45.8626 438.848 46.7871 438.451 47.6074C438.061 48.4212 437.497 49.056 436.762 49.5117C436.033 49.9674 435.193 50.1953 434.242 50.1953C432.81 50.1953 431.648 49.6973 430.756 48.7012C429.87 47.7051 429.428 46.3867 429.428 44.7461V44.6191ZM431.244 44.834C431.244 46.0059 431.514 46.9466 432.055 47.6562C432.602 48.3659 433.331 48.7207 434.242 48.7207C435.16 48.7207 435.889 48.3626 436.43 47.6465C436.97 46.9238 437.24 45.9147 437.24 44.6191C437.24 43.4603 436.964 42.5228 436.41 41.8066C435.863 41.084 435.134 40.7227 434.223 40.7227C433.331 40.7227 432.611 41.0775 432.064 41.7871C431.518 42.4967 431.244 43.5124 431.244 44.834ZM447.465 47.1973C447.465 46.709 447.279 46.3314 446.908 46.0645C446.544 45.791 445.902 45.5566 444.984 45.3613C444.073 45.166 443.347 44.9316 442.807 44.6582C442.273 44.3848 441.876 44.0592 441.615 43.6816C441.361 43.304 441.234 42.8548 441.234 42.334C441.234 41.4681 441.599 40.7357 442.328 40.1367C443.064 39.5378 444.001 39.2383 445.141 39.2383C446.339 39.2383 447.309 39.5475 448.051 40.166C448.799 40.7845 449.174 41.5755 449.174 42.5391H447.357C447.357 42.0443 447.146 41.6178 446.723 41.2598C446.306 40.9017 445.779 40.7227 445.141 40.7227C444.483 40.7227 443.969 40.8659 443.598 41.1523C443.227 41.4388 443.041 41.8132 443.041 42.2754C443.041 42.7116 443.214 43.0404 443.559 43.2617C443.904 43.4831 444.525 43.6947 445.424 43.8965C446.329 44.0983 447.061 44.3392 447.621 44.6191C448.181 44.8991 448.594 45.2376 448.861 45.6348C449.135 46.0254 449.271 46.5039 449.271 47.0703C449.271 48.0143 448.894 48.7728 448.139 49.3457C447.383 49.9121 446.404 50.1953 445.199 50.1953C444.353 50.1953 443.604 50.0456 442.953 49.7461C442.302 49.4466 441.791 49.0299 441.42 48.4961C441.055 47.9557 440.873 47.373 440.873 46.748H442.68C442.712 47.3535 442.953 47.8353 443.402 48.1934C443.858 48.5449 444.457 48.7207 445.199 48.7207C445.883 48.7207 446.43 48.584 446.84 48.3105C447.257 48.0306 447.465 47.6595 447.465 47.1973ZM454.076 36.875V39.4336H456.049V40.8301H454.076V47.3828C454.076 47.806 454.164 48.125 454.34 48.3398C454.516 48.5482 454.815 48.6523 455.238 48.6523C455.447 48.6523 455.733 48.6133 456.098 48.5352V50C455.622 50.1302 455.16 50.1953 454.711 50.1953C453.904 50.1953 453.295 49.9512 452.885 49.4629C452.475 48.9746 452.27 48.2812 452.27 47.3828V40.8301H450.346V39.4336H452.27V36.875H454.076ZM462.689 44.6289C462.689 43.0078 463.074 41.7057 463.842 40.7227C464.61 39.7331 465.616 39.2383 466.859 39.2383C468.096 39.2383 469.076 39.6615 469.799 40.5078V35H471.605V50H469.945L469.857 48.8672C469.135 49.7526 468.129 50.1953 466.84 50.1953C465.616 50.1953 464.617 49.694 463.842 48.6914C463.074 47.6888 462.689 46.3802 462.689 44.7656V44.6289ZM464.496 44.834C464.496 46.0319 464.743 46.9694 465.238 47.6465C465.733 48.3236 466.417 48.6621 467.289 48.6621C468.435 48.6621 469.271 48.1478 469.799 47.1191V42.2656C469.258 41.2695 468.428 40.7715 467.309 40.7715C466.423 40.7715 465.733 41.1133 465.238 41.7969C464.743 42.4805 464.496 43.4928 464.496 44.834ZM476.381 50H474.574V39.4336H476.381V50ZM474.428 36.6309C474.428 36.3379 474.516 36.0905 474.691 35.8887C474.874 35.6868 475.141 35.5859 475.492 35.5859C475.844 35.5859 476.111 35.6868 476.293 35.8887C476.475 36.0905 476.566 36.3379 476.566 36.6309C476.566 36.9238 476.475 37.168 476.293 37.3633C476.111 37.5586 475.844 37.6562 475.492 37.6562C475.141 37.6562 474.874 37.5586 474.691 37.3633C474.516 37.168 474.428 36.9238 474.428 36.6309ZM480.17 50V40.8301H478.5V39.4336H480.17V38.3496C480.17 37.2168 480.473 36.3411 481.078 35.7227C481.684 35.1042 482.54 34.7949 483.646 34.7949C484.063 34.7949 484.477 34.8503 484.887 34.9609L484.789 36.4258C484.483 36.3672 484.158 36.3379 483.812 36.3379C483.227 36.3379 482.774 36.5104 482.455 36.8555C482.136 37.194 481.977 37.6823 481.977 38.3203V39.4336H485.883V38.5352C485.883 37.3568 486.218 36.4388 486.889 35.7812C487.566 35.1237 488.52 34.7949 489.75 34.7949C490.479 34.7949 491.4 34.9935 492.514 35.3906L492.211 36.9141C491.397 36.5885 490.619 36.4258 489.877 36.4258C489.102 36.4258 488.542 36.5983 488.197 36.9434C487.859 37.2884 487.689 37.8125 487.689 38.5156V39.4336H489.857V40.8301H487.689V50H485.883V40.8301H481.977V50H480.17ZM493.402 50H491.596V39.4336H493.402V50ZM500.59 48.7207C501.234 48.7207 501.798 48.5254 502.279 48.1348C502.761 47.7441 503.028 47.2559 503.08 46.6699H504.789C504.757 47.2754 504.548 47.8516 504.164 48.3984C503.78 48.9453 503.266 49.3815 502.621 49.707C501.983 50.0326 501.306 50.1953 500.59 50.1953C499.151 50.1953 498.005 49.7168 497.152 48.7598C496.306 47.7962 495.883 46.4811 495.883 44.8145V44.5117C495.883 43.4831 496.072 42.5684 496.449 41.7676C496.827 40.9668 497.367 40.3451 498.07 39.9023C498.78 39.4596 499.617 39.2383 500.58 39.2383C501.765 39.2383 502.748 39.5931 503.529 40.3027C504.317 41.0124 504.737 41.9336 504.789 43.0664H503.08C503.028 42.3828 502.768 41.8229 502.299 41.3867C501.837 40.944 501.264 40.7227 500.58 40.7227C499.662 40.7227 498.949 41.0547 498.441 41.7188C497.94 42.3763 497.689 43.3301 497.689 44.5801V44.9219C497.689 46.1393 497.94 47.0768 498.441 47.7344C498.943 48.3919 499.659 48.7207 500.59 48.7207ZM513.344 48.9551C512.641 49.7819 511.609 50.1953 510.248 50.1953C509.122 50.1953 508.262 49.8698 507.67 49.2188C507.084 48.5612 506.788 47.5911 506.781 46.3086V39.4336H508.588V46.2598C508.588 47.8613 509.239 48.6621 510.541 48.6621C511.921 48.6621 512.839 48.1478 513.295 47.1191V39.4336H515.102V50H513.383L513.344 48.9551ZM519.818 50H518.012V35H519.818V50ZM525.17 36.875V39.4336H527.143V40.8301H525.17V47.3828C525.17 47.806 525.258 48.125 525.434 48.3398C525.609 48.5482 525.909 48.6523 526.332 48.6523C526.54 48.6523 526.827 48.6133 527.191 48.5352V50C526.716 50.1302 526.254 50.1953 525.805 50.1953C524.997 50.1953 524.389 49.9512 523.979 49.4629C523.568 48.9746 523.363 48.2812 523.363 47.3828V40.8301H521.439V39.4336H523.363V36.875H525.17ZM536.674 36.875V39.4336H538.646V40.8301H536.674V47.3828C536.674 47.806 536.762 48.125 536.938 48.3398C537.113 48.5482 537.413 48.6523 537.836 48.6523C538.044 48.6523 538.331 48.6133 538.695 48.5352V50C538.22 50.1302 537.758 50.1953 537.309 50.1953C536.501 50.1953 535.893 49.9512 535.482 49.4629C535.072 48.9746 534.867 48.2812 534.867 47.3828V40.8301H532.943V39.4336H534.867V36.875H536.674ZM542.572 40.7129C543.373 39.7298 544.415 39.2383 545.697 39.2383C547.93 39.2383 549.057 40.498 549.076 43.0176V50H547.27V43.0078C547.263 42.2461 547.087 41.6829 546.742 41.3184C546.404 40.9538 545.873 40.7715 545.15 40.7715C544.564 40.7715 544.05 40.9277 543.607 41.2402C543.165 41.5527 542.82 41.9629 542.572 42.4707V50H540.766V35H542.572V40.7129ZM553.744 50H551.938V39.4336H553.744V50ZM551.791 36.6309C551.791 36.3379 551.879 36.0905 552.055 35.8887C552.237 35.6868 552.504 35.5859 552.855 35.5859C553.207 35.5859 553.474 35.6868 553.656 35.8887C553.839 36.0905 553.93 36.3379 553.93 36.6309C553.93 36.9238 553.839 37.168 553.656 37.3633C553.474 37.5586 553.207 37.6562 552.855 37.6562C552.504 37.6562 552.237 37.5586 552.055 37.3633C551.879 37.168 551.791 36.9238 551.791 36.6309ZM558.354 39.4336L558.412 40.7617C559.219 39.7461 560.274 39.2383 561.576 39.2383C563.809 39.2383 564.936 40.498 564.955 43.0176V50H563.148V43.0078C563.142 42.2461 562.966 41.6829 562.621 41.3184C562.283 40.9538 561.752 40.7715 561.029 40.7715C560.443 40.7715 559.929 40.9277 559.486 41.2402C559.044 41.5527 558.699 41.9629 558.451 42.4707V50H556.645V39.4336H558.354ZM567.25 44.6289C567.25 42.9818 567.631 41.6732 568.393 40.7031C569.154 39.7266 570.163 39.2383 571.42 39.2383C572.709 39.2383 573.715 39.694 574.438 40.6055L574.525 39.4336H576.176V49.7461C576.176 51.1133 575.769 52.1908 574.955 52.9785C574.148 53.7663 573.061 54.1602 571.693 54.1602C570.932 54.1602 570.186 53.9974 569.457 53.6719C568.728 53.3464 568.171 52.9004 567.787 52.334L568.725 51.25C569.499 52.207 570.447 52.6855 571.566 52.6855C572.445 52.6855 573.129 52.4382 573.617 51.9434C574.112 51.4486 574.359 50.752 574.359 49.8535V48.9453C573.637 49.7786 572.65 50.1953 571.4 50.1953C570.163 50.1953 569.161 49.6973 568.393 48.7012C567.631 47.7051 567.25 46.3477 567.25 44.6289ZM569.066 44.834C569.066 46.0254 569.311 46.9629 569.799 47.6465C570.287 48.3236 570.971 48.6621 571.85 48.6621C572.989 48.6621 573.826 48.1445 574.359 47.1094V42.2852C573.806 41.276 572.976 40.7715 571.869 40.7715C570.99 40.7715 570.303 41.1133 569.809 41.7969C569.314 42.4805 569.066 43.4928 569.066 44.834ZM578.949 49.0527C578.949 48.7402 579.04 48.4798 579.223 48.2715C579.411 48.0632 579.691 47.959 580.062 47.959C580.434 47.959 580.714 48.0632 580.902 48.2715C581.098 48.4798 581.195 48.7402 581.195 49.0527C581.195 49.3522 581.098 49.6029 580.902 49.8047C580.714 50.0065 580.434 50.1074 580.062 50.1074C579.691 50.1074 579.411 50.0065 579.223 49.8047C579.04 49.6029 578.949 49.3522 578.949 49.0527ZM598.861 37.3242H594.291V50H592.426V37.3242H587.865V35.7812H598.861V37.3242ZM602.494 40.7129C603.295 39.7298 604.337 39.2383 605.619 39.2383C607.852 39.2383 608.979 40.498 608.998 43.0176V50H607.191V43.0078C607.185 42.2461 607.009 41.6829 606.664 41.3184C606.326 40.9538 605.795 40.7715 605.072 40.7715C604.486 40.7715 603.972 40.9277 603.529 41.2402C603.087 41.5527 602.742 41.9629 602.494 42.4707V50H600.688V35H602.494V40.7129ZM616.088 50.1953C614.656 50.1953 613.49 49.7266 612.592 48.7891C611.693 47.8451 611.244 46.5853 611.244 45.0098V44.6777C611.244 43.6296 611.443 42.6953 611.84 41.875C612.243 41.0482 612.803 40.4036 613.52 39.9414C614.242 39.4727 615.023 39.2383 615.863 39.2383C617.237 39.2383 618.305 39.6908 619.066 40.5957C619.828 41.5007 620.209 42.7962 620.209 44.4824V45.2344H613.051C613.077 46.276 613.38 47.1191 613.959 47.7637C614.545 48.4017 615.287 48.7207 616.186 48.7207C616.824 48.7207 617.364 48.5905 617.807 48.3301C618.249 48.0697 618.637 47.7246 618.969 47.2949L620.072 48.1543C619.187 49.515 617.859 50.1953 616.088 50.1953ZM615.863 40.7227C615.134 40.7227 614.522 40.9896 614.027 41.5234C613.533 42.0508 613.227 42.793 613.109 43.75H618.402V43.6133C618.35 42.6953 618.103 41.9857 617.66 41.4844C617.217 40.9766 616.618 40.7227 615.863 40.7227ZM627.416 41.0547C627.143 41.0091 626.846 40.9863 626.527 40.9863C625.342 40.9863 624.538 41.4909 624.115 42.5V50H622.309V39.4336H624.066L624.096 40.6543C624.688 39.7103 625.528 39.2383 626.615 39.2383C626.967 39.2383 627.234 39.2839 627.416 39.375V41.0547ZM633.275 50.1953C631.843 50.1953 630.678 49.7266 629.779 48.7891C628.881 47.8451 628.432 46.5853 628.432 45.0098V44.6777C628.432 43.6296 628.63 42.6953 629.027 41.875C629.431 41.0482 629.991 40.4036 630.707 39.9414C631.43 39.4727 632.211 39.2383 633.051 39.2383C634.424 39.2383 635.492 39.6908 636.254 40.5957C637.016 41.5007 637.396 42.7962 637.396 44.4824V45.2344H630.238C630.264 46.276 630.567 47.1191 631.146 47.7637C631.732 48.4017 632.475 48.7207 633.373 48.7207C634.011 48.7207 634.551 48.5905 634.994 48.3301C635.437 48.0697 635.824 47.7246 636.156 47.2949L637.26 48.1543C636.374 49.515 635.046 50.1953 633.275 50.1953ZM633.051 40.7227C632.322 40.7227 631.71 40.9896 631.215 41.5234C630.72 42.0508 630.414 42.793 630.297 43.75H635.59V43.6133C635.538 42.6953 635.29 41.9857 634.848 41.4844C634.405 40.9766 633.806 40.7227 633.051 40.7227ZM650.98 50C650.876 49.7917 650.792 49.4206 650.727 48.8867C649.887 49.7591 648.884 50.1953 647.719 50.1953C646.677 50.1953 645.821 49.9023 645.15 49.3164C644.486 48.724 644.154 47.9753 644.154 47.0703C644.154 45.9701 644.571 45.1172 645.404 44.5117C646.244 43.8997 647.423 43.5938 648.939 43.5938H650.697V42.7637C650.697 42.1322 650.508 41.6309 650.131 41.2598C649.753 40.8822 649.197 40.6934 648.461 40.6934C647.816 40.6934 647.276 40.8561 646.84 41.1816C646.404 41.5072 646.186 41.901 646.186 42.3633H644.369C644.369 41.8359 644.555 41.3281 644.926 40.8398C645.303 40.3451 645.811 39.9544 646.449 39.668C647.094 39.3815 647.8 39.2383 648.568 39.2383C649.786 39.2383 650.74 39.5443 651.43 40.1562C652.12 40.7617 652.478 41.5983 652.504 42.666V47.5293C652.504 48.4993 652.628 49.2708 652.875 49.8438V50H650.98ZM647.982 48.623C648.549 48.623 649.086 48.4766 649.594 48.1836C650.102 47.8906 650.469 47.5098 650.697 47.041V44.873H649.281C647.068 44.873 645.961 45.5208 645.961 46.8164C645.961 47.3828 646.15 47.8255 646.527 48.1445C646.905 48.4635 647.39 48.623 647.982 48.623ZM660.443 41.0547C660.17 41.0091 659.874 40.9863 659.555 40.9863C658.37 40.9863 657.566 41.4909 657.143 42.5V50H655.336V39.4336H657.094L657.123 40.6543C657.715 39.7103 658.555 39.2383 659.643 39.2383C659.994 39.2383 660.261 39.2839 660.443 39.375V41.0547ZM666.303 50.1953C664.87 50.1953 663.705 49.7266 662.807 48.7891C661.908 47.8451 661.459 46.5853 661.459 45.0098V44.6777C661.459 43.6296 661.658 42.6953 662.055 41.875C662.458 41.0482 663.018 40.4036 663.734 39.9414C664.457 39.4727 665.238 39.2383 666.078 39.2383C667.452 39.2383 668.52 39.6908 669.281 40.5957C670.043 41.5007 670.424 42.7962 670.424 44.4824V45.2344H663.266C663.292 46.276 663.594 47.1191 664.174 47.7637C664.76 48.4017 665.502 48.7207 666.4 48.7207C667.038 48.7207 667.579 48.5905 668.021 48.3301C668.464 48.0697 668.852 47.7246 669.184 47.2949L670.287 48.1543C669.402 49.515 668.074 50.1953 666.303 50.1953ZM666.078 40.7227C665.349 40.7227 664.737 40.9896 664.242 41.5234C663.747 42.0508 663.441 42.793 663.324 43.75H668.617V43.6133C668.565 42.6953 668.318 41.9857 667.875 41.4844C667.432 40.9766 666.833 40.7227 666.078 40.7227ZM684.008 50C683.904 49.7917 683.819 49.4206 683.754 48.8867C682.914 49.7591 681.911 50.1953 680.746 50.1953C679.704 50.1953 678.848 49.9023 678.178 49.3164C677.514 48.724 677.182 47.9753 677.182 47.0703C677.182 45.9701 677.598 45.1172 678.432 44.5117C679.271 43.8997 680.45 43.5938 681.967 43.5938H683.725V42.7637C683.725 42.1322 683.536 41.6309 683.158 41.2598C682.781 40.8822 682.224 40.6934 681.488 40.6934C680.844 40.6934 680.303 40.8561 679.867 41.1816C679.431 41.5072 679.213 41.901 679.213 42.3633H677.396C677.396 41.8359 677.582 41.3281 677.953 40.8398C678.331 40.3451 678.839 39.9544 679.477 39.668C680.121 39.3815 680.827 39.2383 681.596 39.2383C682.813 39.2383 683.767 39.5443 684.457 40.1562C685.147 40.7617 685.505 41.5983 685.531 42.666V47.5293C685.531 48.4993 685.655 49.2708 685.902 49.8438V50H684.008ZM681.01 48.623C681.576 48.623 682.113 48.4766 682.621 48.1836C683.129 47.8906 683.497 47.5098 683.725 47.041V44.873H682.309C680.095 44.873 678.988 45.5208 678.988 46.8164C678.988 47.3828 679.177 47.8255 679.555 48.1445C679.932 48.4635 680.417 48.623 681.01 48.623ZM695.287 50H693.48V35H695.287V50ZM697.709 44.6191C697.709 43.584 697.911 42.653 698.314 41.8262C698.725 40.9993 699.291 40.3613 700.014 39.9121C700.743 39.4629 701.573 39.2383 702.504 39.2383C703.943 39.2383 705.105 39.7363 705.99 40.7324C706.882 41.7285 707.328 43.0534 707.328 44.707V44.834C707.328 45.8626 707.13 46.7871 706.732 47.6074C706.342 48.4212 705.779 49.056 705.043 49.5117C704.314 49.9674 703.474 50.1953 702.523 50.1953C701.091 50.1953 699.929 49.6973 699.037 48.7012C698.152 47.7051 697.709 46.3867 697.709 44.7461V44.6191ZM699.525 44.834C699.525 46.0059 699.796 46.9466 700.336 47.6562C700.883 48.3659 701.612 48.7207 702.523 48.7207C703.441 48.7207 704.171 48.3626 704.711 47.6465C705.251 46.9238 705.521 45.9147 705.521 44.6191C705.521 43.4603 705.245 42.5228 704.691 41.8066C704.145 41.084 703.415 40.7227 702.504 40.7227C701.612 40.7227 700.893 41.0775 700.346 41.7871C699.799 42.4967 699.525 43.5124 699.525 44.834ZM712.045 36.875V39.4336H714.018V40.8301H712.045V47.3828C712.045 47.806 712.133 48.125 712.309 48.3398C712.484 48.5482 712.784 48.6523 713.207 48.6523C713.415 48.6523 713.702 48.6133 714.066 48.5352V50C713.591 50.1302 713.129 50.1953 712.68 50.1953C711.872 50.1953 711.264 49.9512 710.854 49.4629C710.443 48.9746 710.238 48.2812 710.238 47.3828V40.8301H708.314V39.4336H710.238V36.875H712.045ZM720.619 44.6191C720.619 43.584 720.821 42.653 721.225 41.8262C721.635 40.9993 722.201 40.3613 722.924 39.9121C723.653 39.4629 724.483 39.2383 725.414 39.2383C726.853 39.2383 728.015 39.7363 728.9 40.7324C729.792 41.7285 730.238 43.0534 730.238 44.707V44.834C730.238 45.8626 730.04 46.7871 729.643 47.6074C729.252 48.4212 728.689 49.056 727.953 49.5117C727.224 49.9674 726.384 50.1953 725.434 50.1953C724.001 50.1953 722.839 49.6973 721.947 48.7012C721.062 47.7051 720.619 46.3867 720.619 44.7461V44.6191ZM722.436 44.834C722.436 46.0059 722.706 46.9466 723.246 47.6562C723.793 48.3659 724.522 48.7207 725.434 48.7207C726.352 48.7207 727.081 48.3626 727.621 47.6465C728.161 46.9238 728.432 45.9147 728.432 44.6191C728.432 43.4603 728.155 42.5228 727.602 41.8066C727.055 41.084 726.326 40.7227 725.414 40.7227C724.522 40.7227 723.803 41.0775 723.256 41.7871C722.709 42.4967 722.436 43.5124 722.436 44.834ZM733.393 50V40.8301H731.723V39.4336H733.393V38.3496C733.393 37.2168 733.695 36.3411 734.301 35.7227C734.906 35.1042 735.762 34.7949 736.869 34.7949C737.286 34.7949 737.699 34.8503 738.109 34.9609L738.012 36.4258C737.706 36.3672 737.38 36.3379 737.035 36.3379C736.449 36.3379 735.997 36.5104 735.678 36.8555C735.359 37.194 735.199 37.6823 735.199 38.3203V39.4336H737.455V40.8301H735.199V50H733.393ZM750.57 47.1973C750.57 46.709 750.385 46.3314 750.014 46.0645C749.649 45.791 749.008 45.5566 748.09 45.3613C747.178 45.166 746.452 44.9316 745.912 44.6582C745.378 44.3848 744.981 44.0592 744.721 43.6816C744.467 43.304 744.34 42.8548 744.34 42.334C744.34 41.4681 744.704 40.7357 745.434 40.1367C746.169 39.5378 747.107 39.2383 748.246 39.2383C749.444 39.2383 750.414 39.5475 751.156 40.166C751.905 40.7845 752.279 41.5755 752.279 42.5391H750.463C750.463 42.0443 750.251 41.6178 749.828 41.2598C749.411 40.9017 748.884 40.7227 748.246 40.7227C747.589 40.7227 747.074 40.8659 746.703 41.1523C746.332 41.4388 746.146 41.8132 746.146 42.2754C746.146 42.7116 746.319 43.0404 746.664 43.2617C747.009 43.4831 747.631 43.6947 748.529 43.8965C749.434 44.0983 750.167 44.3392 750.727 44.6191C751.286 44.8991 751.7 45.2376 751.967 45.6348C752.24 46.0254 752.377 46.5039 752.377 47.0703C752.377 48.0143 751.999 48.7728 751.244 49.3457C750.489 49.9121 749.509 50.1953 748.305 50.1953C747.458 50.1953 746.71 50.0456 746.059 49.7461C745.408 49.4466 744.896 49.0299 744.525 48.4961C744.161 47.9557 743.979 47.373 743.979 46.748H745.785C745.818 47.3535 746.059 47.8353 746.508 48.1934C746.964 48.5449 747.562 48.7207 748.305 48.7207C748.988 48.7207 749.535 48.584 749.945 48.3105C750.362 48.0306 750.57 47.6595 750.57 47.1973ZM756.693 50H754.887V39.4336H756.693V50ZM754.74 36.6309C754.74 36.3379 754.828 36.0905 755.004 35.8887C755.186 35.6868 755.453 35.5859 755.805 35.5859C756.156 35.5859 756.423 35.6868 756.605 35.8887C756.788 36.0905 756.879 36.3379 756.879 36.6309C756.879 36.9238 756.788 37.168 756.605 37.3633C756.423 37.5586 756.156 37.6562 755.805 37.6562C755.453 37.6562 755.186 37.5586 755.004 37.3633C754.828 37.168 754.74 36.9238 754.74 36.6309ZM761.293 39.4336L761.342 40.6055C762.117 39.694 763.161 39.2383 764.477 39.2383C765.954 39.2383 766.96 39.8047 767.494 40.9375C767.846 40.4297 768.301 40.0195 768.861 39.707C769.428 39.3945 770.095 39.2383 770.863 39.2383C773.181 39.2383 774.359 40.4655 774.398 42.9199V50H772.592V43.0273C772.592 42.2721 772.419 41.709 772.074 41.3379C771.729 40.9603 771.15 40.7715 770.336 40.7715C769.665 40.7715 769.109 40.9733 768.666 41.377C768.223 41.7741 767.966 42.3112 767.895 42.9883V50H766.078V43.0762C766.078 41.5397 765.326 40.7715 763.822 40.7715C762.637 40.7715 761.827 41.276 761.391 42.2852V50H759.584V39.4336H761.293ZM779.096 50H777.289V39.4336H779.096V50ZM777.143 36.6309C777.143 36.3379 777.23 36.0905 777.406 35.8887C777.589 35.6868 777.855 35.5859 778.207 35.5859C778.559 35.5859 778.826 35.6868 779.008 35.8887C779.19 36.0905 779.281 36.3379 779.281 36.6309C779.281 36.9238 779.19 37.168 779.008 37.3633C778.826 37.5586 778.559 37.6562 778.207 37.6562C777.855 37.6562 777.589 37.5586 777.406 37.3633C777.23 37.168 777.143 36.9238 777.143 36.6309ZM783.959 50H782.152V35H783.959V50ZM793.383 50C793.279 49.7917 793.194 49.4206 793.129 48.8867C792.289 49.7591 791.286 50.1953 790.121 50.1953C789.079 50.1953 788.223 49.9023 787.553 49.3164C786.889 48.724 786.557 47.9753 786.557 47.0703C786.557 45.9701 786.973 45.1172 787.807 44.5117C788.646 43.8997 789.825 43.5938 791.342 43.5938H793.1V42.7637C793.1 42.1322 792.911 41.6309 792.533 41.2598C792.156 40.8822 791.599 40.6934 790.863 40.6934C790.219 40.6934 789.678 40.8561 789.242 41.1816C788.806 41.5072 788.588 41.901 788.588 42.3633H786.771C786.771 41.8359 786.957 41.3281 787.328 40.8398C787.706 40.3451 788.214 39.9544 788.852 39.668C789.496 39.3815 790.202 39.2383 790.971 39.2383C792.188 39.2383 793.142 39.5443 793.832 40.1562C794.522 40.7617 794.88 41.5983 794.906 42.666V47.5293C794.906 48.4993 795.03 49.2708 795.277 49.8438V50H793.383ZM790.385 48.623C790.951 48.623 791.488 48.4766 791.996 48.1836C792.504 47.8906 792.872 47.5098 793.1 47.041V44.873H791.684C789.47 44.873 788.363 45.5208 788.363 46.8164C788.363 47.3828 788.552 47.8255 788.93 48.1445C789.307 48.4635 789.792 48.623 790.385 48.623ZM802.846 41.0547C802.572 41.0091 802.276 40.9863 801.957 40.9863C800.772 40.9863 799.968 41.4909 799.545 42.5V50H797.738V39.4336H799.496L799.525 40.6543C800.118 39.7103 800.958 39.2383 802.045 39.2383C802.396 39.2383 802.663 39.2839 802.846 39.375V41.0547ZM818.402 44.834C818.402 46.4421 818.035 47.7376 817.299 48.7207C816.563 49.7038 815.567 50.1953 814.311 50.1953C813.028 50.1953 812.019 49.7884 811.283 48.9746V54.0625H809.477V39.4336H811.127L811.215 40.6055C811.951 39.694 812.973 39.2383 814.281 39.2383C815.551 39.2383 816.553 39.7168 817.289 40.6738C818.031 41.6309 818.402 42.9622 818.402 44.668V44.834ZM816.596 44.6289C816.596 43.4375 816.342 42.4967 815.834 41.8066C815.326 41.1165 814.63 40.7715 813.744 40.7715C812.65 40.7715 811.83 41.2565 811.283 42.2266V47.2754C811.824 48.2389 812.65 48.7207 813.764 48.7207C814.63 48.7207 815.316 48.3789 815.824 47.6953C816.339 47.0052 816.596 45.9831 816.596 44.6289ZM827.23 50C827.126 49.7917 827.042 49.4206 826.977 48.8867C826.137 49.7591 825.134 50.1953 823.969 50.1953C822.927 50.1953 822.071 49.9023 821.4 49.3164C820.736 48.724 820.404 47.9753 820.404 47.0703C820.404 45.9701 820.821 45.1172 821.654 44.5117C822.494 43.8997 823.673 43.5938 825.189 43.5938H826.947V42.7637C826.947 42.1322 826.758 41.6309 826.381 41.2598C826.003 40.8822 825.447 40.6934 824.711 40.6934C824.066 40.6934 823.526 40.8561 823.09 41.1816C822.654 41.5072 822.436 41.901 822.436 42.3633H820.619C820.619 41.8359 820.805 41.3281 821.176 40.8398C821.553 40.3451 822.061 39.9544 822.699 39.668C823.344 39.3815 824.05 39.2383 824.818 39.2383C826.036 39.2383 826.99 39.5443 827.68 40.1562C828.37 40.7617 828.728 41.5983 828.754 42.666V47.5293C828.754 48.4993 828.878 49.2708 829.125 49.8438V50H827.23ZM824.232 48.623C824.799 48.623 825.336 48.4766 825.844 48.1836C826.352 47.8906 826.719 47.5098 826.947 47.041V44.873H825.531C823.318 44.873 822.211 45.5208 822.211 46.8164C822.211 47.3828 822.4 47.8255 822.777 48.1445C823.155 48.4635 823.64 48.623 824.232 48.623ZM834.037 36.875V39.4336H836.01V40.8301H834.037V47.3828C834.037 47.806 834.125 48.125 834.301 48.3398C834.477 48.5482 834.776 48.6523 835.199 48.6523C835.408 48.6523 835.694 48.6133 836.059 48.5352V50C835.583 50.1302 835.121 50.1953 834.672 50.1953C833.865 50.1953 833.256 49.9512 832.846 49.4629C832.436 48.9746 832.23 48.2812 832.23 47.3828V40.8301H830.307V39.4336H832.23V36.875H834.037ZM839.936 40.7129C840.736 39.7298 841.778 39.2383 843.061 39.2383C845.294 39.2383 846.42 40.498 846.439 43.0176V50H844.633V43.0078C844.626 42.2461 844.451 41.6829 844.105 41.3184C843.767 40.9538 843.236 40.7715 842.514 40.7715C841.928 40.7715 841.413 40.9277 840.971 41.2402C840.528 41.5527 840.183 41.9629 839.936 42.4707V50H838.129V35H839.936V40.7129ZM855.297 47.1973C855.297 46.709 855.111 46.3314 854.74 46.0645C854.376 45.791 853.734 45.5566 852.816 45.3613C851.905 45.166 851.179 44.9316 850.639 44.6582C850.105 44.3848 849.708 44.0592 849.447 43.6816C849.193 43.304 849.066 42.8548 849.066 42.334C849.066 41.4681 849.431 40.7357 850.16 40.1367C850.896 39.5378 851.833 39.2383 852.973 39.2383C854.171 39.2383 855.141 39.5475 855.883 40.166C856.632 40.7845 857.006 41.5755 857.006 42.5391H855.189C855.189 42.0443 854.978 41.6178 854.555 41.2598C854.138 40.9017 853.611 40.7227 852.973 40.7227C852.315 40.7227 851.801 40.8659 851.43 41.1523C851.059 41.4388 850.873 41.8132 850.873 42.2754C850.873 42.7116 851.046 43.0404 851.391 43.2617C851.736 43.4831 852.357 43.6947 853.256 43.8965C854.161 44.0983 854.893 44.3392 855.453 44.6191C856.013 44.8991 856.426 45.2376 856.693 45.6348C856.967 46.0254 857.104 46.5039 857.104 47.0703C857.104 48.0143 856.726 48.7728 855.971 49.3457C855.215 49.9121 854.236 50.1953 853.031 50.1953C852.185 50.1953 851.436 50.0456 850.785 49.7461C850.134 49.4466 849.623 49.0299 849.252 48.4961C848.887 47.9557 848.705 47.373 848.705 46.748H850.512C850.544 47.3535 850.785 47.8353 851.234 48.1934C851.69 48.5449 852.289 48.7207 853.031 48.7207C853.715 48.7207 854.262 48.584 854.672 48.3105C855.089 48.0306 855.297 47.6595 855.297 47.1973ZM421.723 72.5098L423.754 64.4336H425.561L422.484 75H421.02L418.451 66.9922L415.951 75H414.486L411.42 64.4336H413.217L415.297 72.3438L417.758 64.4336H419.213L421.723 72.5098ZM429.369 75H427.562V64.4336H429.369V75ZM427.416 61.6309C427.416 61.3379 427.504 61.0905 427.68 60.8887C427.862 60.6868 428.129 60.5859 428.48 60.5859C428.832 60.5859 429.099 60.6868 429.281 60.8887C429.464 61.0905 429.555 61.3379 429.555 61.6309C429.555 61.9238 429.464 62.168 429.281 62.3633C429.099 62.5586 428.832 62.6562 428.48 62.6562C428.129 62.6562 427.862 62.5586 427.68 62.3633C427.504 62.168 427.416 61.9238 427.416 61.6309ZM434.721 61.875V64.4336H436.693V65.8301H434.721V72.3828C434.721 72.806 434.809 73.125 434.984 73.3398C435.16 73.5482 435.46 73.6523 435.883 73.6523C436.091 73.6523 436.378 73.6133 436.742 73.5352V75C436.267 75.1302 435.805 75.1953 435.355 75.1953C434.548 75.1953 433.939 74.9512 433.529 74.4629C433.119 73.9746 432.914 73.2812 432.914 72.3828V65.8301H430.99V64.4336H432.914V61.875H434.721ZM440.619 65.7129C441.42 64.7298 442.462 64.2383 443.744 64.2383C445.977 64.2383 447.104 65.498 447.123 68.0176V75H445.316V68.0078C445.31 67.2461 445.134 66.6829 444.789 66.3184C444.451 65.9538 443.92 65.7715 443.197 65.7715C442.611 65.7715 442.097 65.9277 441.654 66.2402C441.212 66.5527 440.867 66.9629 440.619 67.4707V75H438.812V60H440.619V65.7129ZM456.498 64.4336L456.557 65.7617C457.364 64.7461 458.419 64.2383 459.721 64.2383C461.954 64.2383 463.08 65.498 463.1 68.0176V75H461.293V68.0078C461.286 67.2461 461.111 66.6829 460.766 66.3184C460.427 65.9538 459.896 65.7715 459.174 65.7715C458.588 65.7715 458.074 65.9277 457.631 66.2402C457.188 66.5527 456.843 66.9629 456.596 67.4707V75H454.789V64.4336H456.498ZM465.346 69.6191C465.346 68.584 465.548 67.653 465.951 66.8262C466.361 65.9993 466.928 65.3613 467.65 64.9121C468.38 64.4629 469.21 64.2383 470.141 64.2383C471.579 64.2383 472.742 64.7363 473.627 65.7324C474.519 66.7285 474.965 68.0534 474.965 69.707V69.834C474.965 70.8626 474.766 71.7871 474.369 72.6074C473.979 73.4212 473.415 74.056 472.68 74.5117C471.951 74.9674 471.111 75.1953 470.16 75.1953C468.728 75.1953 467.566 74.6973 466.674 73.7012C465.788 72.7051 465.346 71.3867 465.346 69.7461V69.6191ZM467.162 69.834C467.162 71.0059 467.432 71.9466 467.973 72.6562C468.52 73.3659 469.249 73.7207 470.16 73.7207C471.078 73.7207 471.807 73.3626 472.348 72.6465C472.888 71.9238 473.158 70.9147 473.158 69.6191C473.158 68.4603 472.882 67.5228 472.328 66.8066C471.781 66.084 471.052 65.7227 470.141 65.7227C469.249 65.7227 468.529 66.0775 467.982 66.7871C467.436 67.4967 467.162 68.5124 467.162 69.834ZM481.713 69.6191C481.713 68.584 481.915 67.653 482.318 66.8262C482.729 65.9993 483.295 65.3613 484.018 64.9121C484.747 64.4629 485.577 64.2383 486.508 64.2383C487.947 64.2383 489.109 64.7363 489.994 65.7324C490.886 66.7285 491.332 68.0534 491.332 69.707V69.834C491.332 70.8626 491.133 71.7871 490.736 72.6074C490.346 73.4212 489.783 74.056 489.047 74.5117C488.318 74.9674 487.478 75.1953 486.527 75.1953C485.095 75.1953 483.933 74.6973 483.041 73.7012C482.156 72.7051 481.713 71.3867 481.713 69.7461V69.6191ZM483.529 69.834C483.529 71.0059 483.799 71.9466 484.34 72.6562C484.887 73.3659 485.616 73.7207 486.527 73.7207C487.445 73.7207 488.174 73.3626 488.715 72.6465C489.255 71.9238 489.525 70.9147 489.525 69.6191C489.525 68.4603 489.249 67.5228 488.695 66.8066C488.148 66.084 487.419 65.7227 486.508 65.7227C485.616 65.7227 484.896 66.0775 484.35 66.7871C483.803 67.4967 483.529 68.5124 483.529 69.834ZM502.543 69.834C502.543 71.4486 502.172 72.7474 501.43 73.7305C500.688 74.707 499.691 75.1953 498.441 75.1953C497.107 75.1953 496.075 74.7233 495.346 73.7793L495.258 75H493.598V60H495.404V65.5957C496.133 64.6908 497.139 64.2383 498.422 64.2383C499.704 64.2383 500.71 64.7233 501.439 65.6934C502.175 66.6634 502.543 67.9915 502.543 69.6777V69.834ZM500.736 69.6289C500.736 68.3984 500.499 67.4479 500.023 66.7773C499.548 66.1068 498.865 65.7715 497.973 65.7715C496.781 65.7715 495.925 66.3249 495.404 67.4316V72.002C495.958 73.1087 496.82 73.6621 497.992 73.6621C498.858 73.6621 499.532 73.3268 500.014 72.6562C500.495 71.9857 500.736 70.9766 500.736 69.6289ZM508.197 72.5488L510.814 64.4336H512.66L508.871 75H507.494L503.666 64.4336H505.512L508.197 72.5488ZM516.361 75H514.555V64.4336H516.361V75ZM514.408 61.6309C514.408 61.3379 514.496 61.0905 514.672 60.8887C514.854 60.6868 515.121 60.5859 515.473 60.5859C515.824 60.5859 516.091 60.6868 516.273 60.8887C516.456 61.0905 516.547 61.3379 516.547 61.6309C516.547 61.9238 516.456 62.168 516.273 62.3633C516.091 62.5586 515.824 62.6562 515.473 62.6562C515.121 62.6562 514.854 62.5586 514.672 62.3633C514.496 62.168 514.408 61.9238 514.408 61.6309ZM518.783 69.6191C518.783 68.584 518.985 67.653 519.389 66.8262C519.799 65.9993 520.365 65.3613 521.088 64.9121C521.817 64.4629 522.647 64.2383 523.578 64.2383C525.017 64.2383 526.179 64.7363 527.064 65.7324C527.956 66.7285 528.402 68.0534 528.402 69.707V69.834C528.402 70.8626 528.204 71.7871 527.807 72.6074C527.416 73.4212 526.853 74.056 526.117 74.5117C525.388 74.9674 524.548 75.1953 523.598 75.1953C522.165 75.1953 521.003 74.6973 520.111 73.7012C519.226 72.7051 518.783 71.3867 518.783 69.7461V69.6191ZM520.6 69.834C520.6 71.0059 520.87 71.9466 521.41 72.6562C521.957 73.3659 522.686 73.7207 523.598 73.7207C524.516 73.7207 525.245 73.3626 525.785 72.6465C526.326 71.9238 526.596 70.9147 526.596 69.6191C526.596 68.4603 526.319 67.5228 525.766 66.8066C525.219 66.084 524.49 65.7227 523.578 65.7227C522.686 65.7227 521.967 66.0775 521.42 66.7871C520.873 67.4967 520.6 68.5124 520.6 69.834ZM537.191 73.9551C536.488 74.7819 535.456 75.1953 534.096 75.1953C532.969 75.1953 532.11 74.8698 531.518 74.2188C530.932 73.5612 530.635 72.5911 530.629 71.3086V64.4336H532.436V71.2598C532.436 72.8613 533.087 73.6621 534.389 73.6621C535.769 73.6621 536.687 73.1478 537.143 72.1191V64.4336H538.949V75H537.23L537.191 73.9551ZM547.855 72.1973C547.855 71.709 547.67 71.3314 547.299 71.0645C546.934 70.791 546.293 70.5566 545.375 70.3613C544.464 70.166 543.738 69.9316 543.197 69.6582C542.663 69.3848 542.266 69.0592 542.006 68.6816C541.752 68.304 541.625 67.8548 541.625 67.334C541.625 66.4681 541.99 65.7357 542.719 65.1367C543.454 64.5378 544.392 64.2383 545.531 64.2383C546.729 64.2383 547.699 64.5475 548.441 65.166C549.19 65.7845 549.564 66.5755 549.564 67.5391H547.748C547.748 67.0443 547.536 66.6178 547.113 66.2598C546.697 65.9017 546.169 65.7227 545.531 65.7227C544.874 65.7227 544.359 65.8659 543.988 66.1523C543.617 66.4388 543.432 66.8132 543.432 67.2754C543.432 67.7116 543.604 68.0404 543.949 68.2617C544.294 68.4831 544.916 68.6947 545.814 68.8965C546.719 69.0983 547.452 69.3392 548.012 69.6191C548.572 69.8991 548.985 70.2376 549.252 70.6348C549.525 71.0254 549.662 71.5039 549.662 72.0703C549.662 73.0143 549.285 73.7728 548.529 74.3457C547.774 74.9121 546.794 75.1953 545.59 75.1953C544.743 75.1953 543.995 75.0456 543.344 74.7461C542.693 74.4466 542.182 74.0299 541.811 73.4961C541.446 72.9557 541.264 72.373 541.264 71.748H543.07C543.103 72.3535 543.344 72.8353 543.793 73.1934C544.249 73.5449 544.848 73.7207 545.59 73.7207C546.273 73.7207 546.82 73.584 547.23 73.3105C547.647 73.0306 547.855 72.6595 547.855 72.1973ZM563.129 72.1973C563.129 71.709 562.943 71.3314 562.572 71.0645C562.208 70.791 561.566 70.5566 560.648 70.3613C559.737 70.166 559.011 69.9316 558.471 69.6582C557.937 69.3848 557.54 69.0592 557.279 68.6816C557.025 68.304 556.898 67.8548 556.898 67.334C556.898 66.4681 557.263 65.7357 557.992 65.1367C558.728 64.5378 559.665 64.2383 560.805 64.2383C562.003 64.2383 562.973 64.5475 563.715 65.166C564.464 65.7845 564.838 66.5755 564.838 67.5391H563.021C563.021 67.0443 562.81 66.6178 562.387 66.2598C561.97 65.9017 561.443 65.7227 560.805 65.7227C560.147 65.7227 559.633 65.8659 559.262 66.1523C558.891 66.4388 558.705 66.8132 558.705 67.2754C558.705 67.7116 558.878 68.0404 559.223 68.2617C559.568 68.4831 560.189 68.6947 561.088 68.8965C561.993 69.0983 562.725 69.3392 563.285 69.6191C563.845 69.8991 564.258 70.2376 564.525 70.6348C564.799 71.0254 564.936 71.5039 564.936 72.0703C564.936 73.0143 564.558 73.7728 563.803 74.3457C563.048 74.9121 562.068 75.1953 560.863 75.1953C560.017 75.1953 559.268 75.0456 558.617 74.7461C557.966 74.4466 557.455 74.0299 557.084 73.4961C556.719 72.9557 556.537 72.373 556.537 71.748H558.344C558.376 72.3535 558.617 72.8353 559.066 73.1934C559.522 73.5449 560.121 73.7207 560.863 73.7207C561.547 73.7207 562.094 73.584 562.504 73.3105C562.921 73.0306 563.129 72.6595 563.129 72.1973ZM569.252 75H567.445V64.4336H569.252V75ZM567.299 61.6309C567.299 61.3379 567.387 61.0905 567.562 60.8887C567.745 60.6868 568.012 60.5859 568.363 60.5859C568.715 60.5859 568.982 60.6868 569.164 60.8887C569.346 61.0905 569.438 61.3379 569.438 61.6309C569.438 61.9238 569.346 62.168 569.164 62.3633C568.982 62.5586 568.715 62.6562 568.363 62.6562C568.012 62.6562 567.745 62.5586 567.562 62.3633C567.387 62.168 567.299 61.9238 567.299 61.6309ZM571.723 69.6289C571.723 67.9818 572.104 66.6732 572.865 65.7031C573.627 64.7266 574.636 64.2383 575.893 64.2383C577.182 64.2383 578.188 64.694 578.91 65.6055L578.998 64.4336H580.648V74.7461C580.648 76.1133 580.242 77.1908 579.428 77.9785C578.62 78.7663 577.533 79.1602 576.166 79.1602C575.404 79.1602 574.659 78.9974 573.93 78.6719C573.201 78.3464 572.644 77.9004 572.26 77.334L573.197 76.25C573.972 77.207 574.919 77.6855 576.039 77.6855C576.918 77.6855 577.602 77.4382 578.09 76.9434C578.585 76.4486 578.832 75.752 578.832 74.8535V73.9453C578.109 74.7786 577.123 75.1953 575.873 75.1953C574.636 75.1953 573.633 74.6973 572.865 73.7012C572.104 72.7051 571.723 71.3477 571.723 69.6289ZM573.539 69.834C573.539 71.0254 573.783 71.9629 574.271 72.6465C574.76 73.3236 575.443 73.6621 576.322 73.6621C577.462 73.6621 578.298 73.1445 578.832 72.1094V67.2852C578.279 66.276 577.449 65.7715 576.342 65.7715C575.463 65.7715 574.776 66.1133 574.281 66.7969C573.786 67.4805 573.539 68.4928 573.539 69.834ZM585.092 64.4336L585.15 65.7617C585.958 64.7461 587.012 64.2383 588.314 64.2383C590.548 64.2383 591.674 65.498 591.693 68.0176V75H589.887V68.0078C589.88 67.2461 589.704 66.6829 589.359 66.3184C589.021 65.9538 588.49 65.7715 587.768 65.7715C587.182 65.7715 586.667 65.9277 586.225 66.2402C585.782 66.5527 585.437 66.9629 585.189 67.4707V75H583.383V64.4336H585.092ZM594.457 74.0527C594.457 73.7402 594.548 73.4798 594.73 73.2715C594.919 73.0632 595.199 72.959 595.57 72.959C595.941 72.959 596.221 73.0632 596.41 73.2715C596.605 73.4798 596.703 73.7402 596.703 74.0527C596.703 74.3522 596.605 74.6029 596.41 74.8047C596.221 75.0065 595.941 75.1074 595.57 75.1074C595.199 75.1074 594.919 75.0065 594.73 74.8047C594.548 74.6029 594.457 74.3522 594.457 74.0527ZM599.369 61.3281L599.076 64.8242H597.992L598.002 60H599.369V61.3281ZM602.006 61.3281L601.713 64.8242H600.629L600.639 60H602.006V61.3281Z" fill="black"/>
<path d="M420.891 106.553C420.891 106.001 420.697 105.566 420.31 105.247C419.922 104.924 419.214 104.618 418.184 104.331C417.154 104.039 416.402 103.723 415.928 103.381C415.253 102.898 414.916 102.264 414.916 101.48C414.916 100.719 415.228 100.102 415.853 99.6279C416.481 99.1494 417.284 98.9102 418.259 98.9102C418.92 98.9102 419.51 99.0378 420.029 99.293C420.553 99.5482 420.959 99.9036 421.246 100.359C421.533 100.815 421.677 101.323 421.677 101.884H420.829C420.829 101.205 420.597 100.66 420.132 100.25C419.667 99.8353 419.043 99.6279 418.259 99.6279C417.498 99.6279 416.892 99.7988 416.44 100.141C415.989 100.478 415.764 100.92 415.764 101.467C415.764 101.973 415.966 102.385 416.372 102.704C416.778 103.023 417.427 103.306 418.32 103.552C419.214 103.793 419.89 104.046 420.351 104.311C420.811 104.57 421.157 104.882 421.39 105.247C421.622 105.612 421.738 106.042 421.738 106.539C421.738 107.323 421.424 107.952 420.795 108.426C420.171 108.9 419.346 109.137 418.32 109.137C417.618 109.137 416.974 109.011 416.386 108.761C415.802 108.51 415.358 108.159 415.053 107.708C414.752 107.257 414.602 106.74 414.602 106.156H415.442C415.442 106.858 415.704 107.412 416.229 107.817C416.753 108.223 417.45 108.426 418.32 108.426C419.095 108.426 419.717 108.255 420.187 107.913C420.656 107.571 420.891 107.118 420.891 106.553ZM428.034 109C427.952 108.768 427.9 108.424 427.877 107.968C427.59 108.341 427.223 108.631 426.776 108.836C426.334 109.036 425.865 109.137 425.368 109.137C424.657 109.137 424.081 108.938 423.639 108.542C423.201 108.146 422.982 107.644 422.982 107.038C422.982 106.318 423.281 105.748 423.878 105.329C424.479 104.91 425.316 104.7 426.387 104.7H427.87V103.859C427.87 103.331 427.706 102.916 427.378 102.615C427.054 102.31 426.58 102.157 425.956 102.157C425.386 102.157 424.915 102.303 424.541 102.595C424.167 102.886 423.98 103.237 423.98 103.647L423.16 103.641C423.16 103.053 423.434 102.545 423.98 102.116C424.527 101.683 425.2 101.467 425.997 101.467C426.822 101.467 427.471 101.674 427.945 102.089C428.424 102.499 428.67 103.073 428.684 103.812V107.312C428.684 108.027 428.759 108.562 428.909 108.918V109H428.034ZM425.464 108.412C426.011 108.412 426.498 108.28 426.927 108.016C427.36 107.751 427.674 107.398 427.87 106.956V105.329H426.407C425.591 105.338 424.953 105.489 424.493 105.78C424.033 106.067 423.803 106.464 423.803 106.97C423.803 107.384 423.955 107.729 424.261 108.002C424.571 108.275 424.972 108.412 425.464 108.412ZM435.301 107.12C435.301 106.715 435.137 106.389 434.809 106.143C434.485 105.896 433.995 105.705 433.339 105.568C432.683 105.427 432.172 105.268 431.808 105.09C431.448 104.908 431.179 104.687 431.001 104.427C430.828 104.167 430.741 103.853 430.741 103.483C430.741 102.9 430.985 102.419 431.473 102.041C431.96 101.658 432.585 101.467 433.346 101.467C434.171 101.467 434.831 101.672 435.328 102.082C435.829 102.488 436.08 103.019 436.08 103.675H435.26C435.26 103.242 435.077 102.882 434.713 102.595C434.353 102.308 433.897 102.164 433.346 102.164C432.808 102.164 432.375 102.285 432.047 102.526C431.723 102.763 431.562 103.073 431.562 103.456C431.562 103.825 431.696 104.112 431.965 104.317C432.238 104.518 432.733 104.702 433.448 104.871C434.168 105.04 434.706 105.22 435.062 105.411C435.422 105.603 435.688 105.833 435.861 106.102C436.035 106.37 436.121 106.696 436.121 107.079C436.121 107.703 435.868 108.202 435.362 108.576C434.861 108.95 434.205 109.137 433.394 109.137C432.532 109.137 431.833 108.929 431.295 108.515C430.762 108.095 430.495 107.567 430.495 106.929H431.315C431.347 107.407 431.548 107.781 431.917 108.05C432.291 108.314 432.783 108.446 433.394 108.446C433.963 108.446 434.424 108.321 434.774 108.07C435.125 107.82 435.301 107.503 435.301 107.12ZM438.78 102.854C439.049 102.412 439.393 102.071 439.812 101.829C440.232 101.588 440.69 101.467 441.187 101.467C441.979 101.467 442.57 101.69 442.957 102.137C443.344 102.583 443.54 103.253 443.545 104.146V109H442.731V104.14C442.727 103.479 442.586 102.987 442.308 102.663C442.034 102.34 441.594 102.178 440.988 102.178C440.482 102.178 440.034 102.337 439.642 102.656C439.254 102.971 438.967 103.397 438.78 103.935V109H437.967V98.5H438.78V102.854ZM450.319 109C450.237 108.768 450.185 108.424 450.162 107.968C449.875 108.341 449.508 108.631 449.062 108.836C448.619 109.036 448.15 109.137 447.653 109.137C446.942 109.137 446.366 108.938 445.924 108.542C445.486 108.146 445.268 107.644 445.268 107.038C445.268 106.318 445.566 105.748 446.163 105.329C446.765 104.91 447.601 104.7 448.672 104.7H450.155V103.859C450.155 103.331 449.991 102.916 449.663 102.615C449.34 102.31 448.866 102.157 448.241 102.157C447.672 102.157 447.2 102.303 446.826 102.595C446.452 102.886 446.266 103.237 446.266 103.647L445.445 103.641C445.445 103.053 445.719 102.545 446.266 102.116C446.812 101.683 447.485 101.467 448.282 101.467C449.107 101.467 449.757 101.674 450.23 102.089C450.709 102.499 450.955 103.073 450.969 103.812V107.312C450.969 108.027 451.044 108.562 451.194 108.918V109H450.319ZM447.749 108.412C448.296 108.412 448.784 108.28 449.212 108.016C449.645 107.751 449.959 107.398 450.155 106.956V105.329H448.692C447.877 105.338 447.239 105.489 446.778 105.78C446.318 106.067 446.088 106.464 446.088 106.97C446.088 107.384 446.241 107.729 446.546 108.002C446.856 108.275 447.257 108.412 447.749 108.412ZM453.936 101.604L453.963 102.868C454.241 102.412 454.587 102.066 455.002 101.829C455.417 101.588 455.875 101.467 456.376 101.467C457.169 101.467 457.759 101.69 458.146 102.137C458.534 102.583 458.73 103.253 458.734 104.146V109H457.921V104.14C457.916 103.479 457.775 102.987 457.497 102.663C457.224 102.34 456.784 102.178 456.178 102.178C455.672 102.178 455.223 102.337 454.831 102.656C454.444 102.971 454.157 103.397 453.97 103.935V109H453.156V101.604H453.936ZM462.61 105.274L461.674 106.177V109H460.854V98.5H461.674V105.22L462.446 104.386L465.276 101.604H466.309L463.171 104.721L466.582 109H465.604L462.61 105.274ZM422.668 124H421.827L416.105 115.482V124H415.258V114.047H416.105L421.834 122.571V114.047H422.668V124ZM427.87 124.137C427.241 124.137 426.672 123.982 426.161 123.672C425.655 123.362 425.261 122.931 424.979 122.38C424.696 121.824 424.555 121.202 424.555 120.514V120.22C424.555 119.509 424.691 118.868 424.965 118.299C425.243 117.729 425.628 117.283 426.12 116.959C426.612 116.631 427.146 116.467 427.72 116.467C428.618 116.467 429.328 116.774 429.853 117.39C430.381 118 430.646 118.837 430.646 119.898V120.356H425.368V120.514C425.368 121.352 425.607 122.052 426.086 122.612C426.569 123.168 427.175 123.446 427.904 123.446C428.342 123.446 428.727 123.367 429.06 123.207C429.397 123.048 429.702 122.792 429.976 122.441L430.488 122.831C429.887 123.701 429.014 124.137 427.87 124.137ZM427.72 117.164C427.104 117.164 426.585 117.39 426.161 117.841C425.742 118.292 425.487 118.898 425.396 119.659H429.832V119.57C429.809 118.859 429.606 118.281 429.224 117.834C428.841 117.387 428.34 117.164 427.72 117.164ZM434.009 122.298L434.132 122.934L434.296 122.264L436.073 116.604H436.771L438.527 122.216L438.719 122.995L438.876 122.277L440.394 116.604H441.241L439.088 124H438.391L436.49 118.135L436.401 117.731L436.312 118.142L434.446 124H433.749L431.603 116.604H432.443L434.009 122.298ZM452.021 121.553C452.021 121.001 451.828 120.566 451.44 120.247C451.053 119.924 450.344 119.618 449.314 119.331C448.285 119.039 447.533 118.723 447.059 118.381C446.384 117.898 446.047 117.264 446.047 116.48C446.047 115.719 446.359 115.102 446.983 114.628C447.612 114.149 448.414 113.91 449.39 113.91C450.05 113.91 450.641 114.038 451.16 114.293C451.684 114.548 452.09 114.904 452.377 115.359C452.664 115.815 452.808 116.323 452.808 116.884H451.96C451.96 116.205 451.728 115.66 451.263 115.25C450.798 114.835 450.174 114.628 449.39 114.628C448.629 114.628 448.022 114.799 447.571 115.141C447.12 115.478 446.895 115.92 446.895 116.467C446.895 116.973 447.097 117.385 447.503 117.704C447.909 118.023 448.558 118.306 449.451 118.552C450.344 118.793 451.021 119.046 451.481 119.311C451.942 119.57 452.288 119.882 452.521 120.247C452.753 120.612 452.869 121.042 452.869 121.539C452.869 122.323 452.555 122.952 451.926 123.426C451.301 123.9 450.477 124.137 449.451 124.137C448.749 124.137 448.104 124.011 447.517 123.761C446.933 123.51 446.489 123.159 446.184 122.708C445.883 122.257 445.732 121.74 445.732 121.156H446.573C446.573 121.858 446.835 122.412 447.359 122.817C447.883 123.223 448.581 123.426 449.451 123.426C450.226 123.426 450.848 123.255 451.317 122.913C451.787 122.571 452.021 122.118 452.021 121.553ZM455.768 114.71V116.604H457.299V117.273H455.768V122.202C455.768 122.612 455.84 122.918 455.986 123.118C456.137 123.319 456.385 123.419 456.731 123.419C456.868 123.419 457.089 123.396 457.395 123.351L457.429 124.021C457.215 124.098 456.923 124.137 456.554 124.137C455.993 124.137 455.585 123.975 455.33 123.651C455.075 123.323 454.947 122.842 454.947 122.209V117.273H453.587V116.604H454.947V114.71H455.768ZM463.752 123.063C463.26 123.779 462.474 124.137 461.394 124.137C460.605 124.137 460.006 123.909 459.596 123.453C459.186 122.993 458.976 122.314 458.967 121.416V116.604H459.78V121.313C459.78 122.722 460.35 123.426 461.489 123.426C462.674 123.426 463.424 122.936 463.738 121.956V116.604H464.559V124H463.766L463.752 123.063ZM466.363 120.233C466.363 119.085 466.618 118.171 467.129 117.492C467.644 116.809 468.341 116.467 469.221 116.467C470.219 116.467 470.98 116.861 471.504 117.649V113.5H472.317V124H471.552L471.518 123.016C470.993 123.763 470.223 124.137 469.207 124.137C468.355 124.137 467.667 123.795 467.143 123.111C466.623 122.423 466.363 121.496 466.363 120.329V120.233ZM467.19 120.377C467.19 121.32 467.38 122.065 467.758 122.612C468.136 123.155 468.669 123.426 469.357 123.426C470.365 123.426 471.08 122.981 471.504 122.093V118.62C471.08 117.659 470.369 117.178 469.371 117.178C468.683 117.178 468.147 117.449 467.765 117.991C467.382 118.529 467.19 119.324 467.19 120.377ZM477.335 124.137C476.706 124.137 476.136 123.982 475.626 123.672C475.12 123.362 474.726 122.931 474.443 122.38C474.161 121.824 474.02 121.202 474.02 120.514V120.22C474.02 119.509 474.156 118.868 474.43 118.299C474.708 117.729 475.093 117.283 475.585 116.959C476.077 116.631 476.61 116.467 477.185 116.467C478.082 116.467 478.793 116.774 479.317 117.39C479.846 118 480.11 118.837 480.11 119.898V120.356H474.833V120.514C474.833 121.352 475.072 122.052 475.551 122.612C476.034 123.168 476.64 123.446 477.369 123.446C477.807 123.446 478.192 123.367 478.524 123.207C478.862 123.048 479.167 122.792 479.44 122.441L479.953 122.831C479.352 123.701 478.479 124.137 477.335 124.137ZM477.185 117.164C476.569 117.164 476.05 117.39 475.626 117.841C475.207 118.292 474.951 118.898 474.86 119.659H479.297V119.57C479.274 118.859 479.071 118.281 478.688 117.834C478.306 117.387 477.804 117.164 477.185 117.164ZM482.482 116.604L482.51 117.868C482.788 117.412 483.134 117.066 483.549 116.829C483.964 116.588 484.422 116.467 484.923 116.467C485.716 116.467 486.306 116.69 486.693 117.137C487.081 117.583 487.277 118.253 487.281 119.146V124H486.468V119.14C486.463 118.479 486.322 117.987 486.044 117.663C485.771 117.34 485.331 117.178 484.725 117.178C484.219 117.178 483.77 117.337 483.378 117.656C482.991 117.971 482.703 118.397 482.517 118.935V124H481.703V116.604H482.482ZM490.672 114.71V116.604H492.203V117.273H490.672V122.202C490.672 122.612 490.745 122.918 490.891 123.118C491.041 123.319 491.289 123.419 491.636 123.419C491.772 123.419 491.993 123.396 492.299 123.351L492.333 124.021C492.119 124.098 491.827 124.137 491.458 124.137C490.897 124.137 490.49 123.975 490.234 123.651C489.979 123.323 489.852 122.842 489.852 122.209V117.273H488.491V116.604H489.852V114.71H490.672Z" fill="black"/>
<circle cx="260.5" cy="66.5" r="66.5" fill="#F5F5F5"/>
<path d="M230.5 107.5C228.1 109.9 226.167 114.833 225.5 117L224 121.5L230 125.5L237 128.5L243.5 130.5L250.5 132L257.5 132.5H265L273 131.5L281 129.5L288 127L293.5 124L297 122L300.5 119L299.5 114C298.833 112.5 297.1 109.1 295.5 107.5C293.9 105.9 290.833 104.5 289.5 104H238C236.5 104.167 232.9 105.1 230.5 107.5Z" fill="#E5E5E5" stroke="#E5E5E5"/>
<path d="M281.5 47.88L285.671 75.8866C285.671 87.8162 276.001 97.4866 264.071 97.4866H259.628C247.698 97.4866 238.028 87.8162 238.028 75.8866L241 51.12" fill="#F3BA9C"/>
<path d="M281.5 47.88L285.671 75.8866C285.671 87.8162 276.001 97.4866 264.071 97.4866H259.628C247.698 97.4866 238.028 87.8162 238.028 75.8866L241 51.12" stroke="#F3BA9C" stroke-width="2" stroke-miterlimit="10" stroke-linecap="round" stroke-linejoin="round"/>
<path d="M253.5 104V96.5L258 94.5L274 96.5V103C274.167 103.667 274.2 105.7 273 108.5C271.8 111.3 269.833 112.333 269 112.5C267.667 113.333 263.9 114.6 259.5 113C255.1 111.4 253.667 106.333 253.5 104Z" fill="#F3BA9C" stroke="#F3BA9C"/>
<path d="M296.507 59.5956C295.315 58.0825 293.591 57.5524 292.183 57.5808C291.575 57.5852 291.021 57.6802 290.493 57.7966L290.495 57.7886C290.495 52.6312 291.725 47.8858 291.725 43.5072C291.725 39.1392 289.149 31.61 281.214 30.8161C281.214 30.8161 276.006 15.9025 245.304 19.9019C245.304 19.9019 248.275 21.7773 249.018 22.5215C249.76 23.2745 249.76 23.2745 249.76 23.2745C249.76 23.2745 242.207 22.898 237.751 26.1471C237.751 26.1471 240.848 27.0244 241.466 28.7684C241.466 28.7684 232.739 29.3323 229.333 32.7679C229.333 32.7679 233.665 33.2652 233.665 44.634C233.665 48.0865 234.675 53.4881 236.282 57.5506C236.271 57.6953 236.252 57.8321 236.244 57.9688C235.539 57.7575 234.714 57.587 233.817 57.579C232.408 57.5506 230.682 58.0807 229.496 59.5938C228.305 61.0999 227.708 63.255 227.708 66.3603C227.708 76.81 234.942 80.0467 237.586 80.8761C242.211 94.0999 251.639 103.526 263.008 103.578C274.357 103.525 283.787 94.099 288.412 80.8761C291.058 80.0467 298.288 76.81 298.288 66.3603C298.291 63.2559 297.695 61.0759 296.507 59.5956ZM286.928 77.984L285.996 78.142L285.7 79.0486C281.394 91.9777 272.627 100.416 263.011 100.375C253.394 100.417 244.608 91.9777 240.327 79.0486L240.008 78.142L239.076 77.984C239.096 77.8845 230.884 76.7896 230.884 66.3612C231.124 60.9223 232.569 60.7811 233.819 60.7811C236.659 60.7811 238.513 62.1521 239.076 62.6332C239.196 62.7356 239.258 62.7977 239.258 62.7977L239.293 60.3744C239.404 57.3028 239.742 54.3352 240.24 51.483C243.234 43.0019 246.92 41.8244 248.462 41.8244C250.009 41.8244 255.331 42.7577 259.044 42.7577C268.204 42.7577 270.558 40.385 276.375 40.385C281.903 40.385 285.794 52.8043 286.168 54.0404C286.443 56.097 286.649 58.2059 286.727 60.3744L286.826 62.7977C286.826 62.7977 289.647 60.7802 292.183 60.7802C293.436 60.7802 294.879 60.8965 295.12 66.3603C295.119 76.7896 286.928 77.8836 286.928 77.984Z" fill="black"/>
<path d="M240 51.5C238.4 55.1 238.667 60.3333 239 62.5L236.5 58C236.442 57.9711 236.384 57.9438 236.325 57.9182C234.752 57.2336 232.803 57.6787 232 58C231.333 58.1667 229.7 59 228.5 61C227.3 63 227.667 67.8333 228 70C228.5 71.6667 229.8 75.3 231 76.5C232.2 77.7 235.833 80 237.5 81L238.5 83.5L241 88.5C242 90.5 243.217 91.8258 244 93C245 94.5 246.333 95.8333 247 96.5C248.5 97.6667 251.8 100.2 253 101C254.2 101.8 257.5 102.667 259 103C260 103.167 262.5 103.5 264.5 103.5C266.5 103.5 270 102.167 271.5 101.5C272.5 101 274.9 99.7 276.5 98.5C278.5 97 283 91.5 284 90C284.8 88.8 287.333 83.5 288.5 81C288.833 81 289.8 80.8 291 80C292.2 79.2 294.5 76.6667 295.5 75.5C296.333 74.3333 298 71.2 298 68C298 64.8 297.333 62 297 61C296.833 60.3333 296 58.8 294 58C292 57.2 290.833 57.6667 290.5 58L287 62.5L286.5 53.5L282 44.5C281.167 43.3333 279.1 40.9 277.5 40.5C275.9 40.1 274.167 40.3333 273.5 40.5C272.5 40.6667 269.8 41.2 267 42C263.5 43 263.5 42.5 259.5 43C256.3 43.4 252.5 42.5 251 42C250 41.6667 247.7 41.2 246.5 42C245.3 42.8 244 44.3333 243.5 45C243 45.6667 241.6 47.9 240 51.5Z" fill="#F3BA9C" stroke="#F3BA9C"/>
</svg>
