<svg width="928" height="150" viewBox="0 0 928 150" fill="none" xmlns="http://www.w3.org/2000/svg">
<rect width="928" height="133" fill="white"/>
<path d="M375 15H716.5C727.546 15 736.5 23.9543 736.5 35V130C736.5 141.046 727.546 150 716.5 150H423.121C412.075 150 403.121 141.046 403.121 130V43.9201C403.121 37.0944 399.64 30.74 393.888 27.0655L375 15Z" fill="#F5F5F5"/>
<path d="M414.205 27.3281L413.912 30.8242H412.828L412.838 26H414.205V27.3281ZM416.842 27.3281L416.549 30.8242H415.465L415.475 26H416.842V27.3281ZM430.494 34.3496C430.494 35.7428 430.26 36.9603 429.791 38.002C429.322 39.0371 428.658 39.8281 427.799 40.375C426.939 40.9219 425.937 41.1953 424.791 41.1953C423.671 41.1953 422.678 40.9219 421.812 40.375C420.947 39.8216 420.273 39.0371 419.791 38.0215C419.316 36.9993 419.072 35.8177 419.059 34.4766V33.4512C419.059 32.084 419.296 30.8763 419.771 29.8281C420.247 28.7799 420.917 27.9792 421.783 27.4258C422.656 26.8659 423.652 26.5859 424.771 26.5859C425.911 26.5859 426.913 26.8626 427.779 27.416C428.652 27.9629 429.322 28.7604 429.791 29.8086C430.26 30.8503 430.494 32.0645 430.494 33.4512V34.3496ZM428.629 33.4316C428.629 31.7454 428.29 30.4531 427.613 29.5547C426.936 28.6497 425.989 28.1973 424.771 28.1973C423.587 28.1973 422.652 28.6497 421.969 29.5547C421.292 30.4531 420.943 31.7031 420.924 33.3047V34.3496C420.924 35.9837 421.266 37.2695 421.949 38.207C422.639 39.138 423.587 39.6035 424.791 39.6035C426.002 39.6035 426.939 39.1641 427.604 38.2852C428.268 37.3997 428.609 36.1335 428.629 34.4863V33.4316ZM434.83 31.7129C435.631 30.7298 436.673 30.2383 437.955 30.2383C440.188 30.2383 441.314 31.498 441.334 34.0176V41H439.527V34.0078C439.521 33.2461 439.345 32.6829 439 32.3184C438.661 31.9538 438.131 31.7715 437.408 31.7715C436.822 31.7715 436.308 31.9277 435.865 32.2402C435.423 32.5527 435.077 32.9629 434.83 33.4707V41H433.023V26H434.83V31.7129ZM443.98 43.832L442.955 43.1289C443.567 42.276 443.886 41.3971 443.912 40.4922V38.8613H445.68V40.2773C445.68 40.9349 445.517 41.5924 445.191 42.25C444.872 42.9076 444.469 43.4349 443.98 43.832ZM447.906 43.832L446.881 43.1289C447.493 42.276 447.812 41.3971 447.838 40.4922V38.8613H449.605V40.2773C449.605 40.9349 449.443 41.5924 449.117 42.25C448.798 42.9076 448.395 43.4349 447.906 43.832ZM451.832 43.832L450.807 43.1289C451.419 42.276 451.738 41.3971 451.764 40.4922V38.8613H453.531V40.2773C453.531 40.9349 453.368 41.5924 453.043 42.25C452.724 42.9076 452.32 43.4349 451.832 43.832ZM458.111 41H456.236V26.7812H458.111V41ZM472.75 41C472.646 40.7917 472.561 40.4206 472.496 39.8867C471.656 40.7591 470.654 41.1953 469.488 41.1953C468.447 41.1953 467.59 40.9023 466.92 40.3164C466.256 39.724 465.924 38.9753 465.924 38.0703C465.924 36.9701 466.34 36.1172 467.174 35.5117C468.014 34.8997 469.192 34.5938 470.709 34.5938H472.467V33.7637C472.467 33.1322 472.278 32.6309 471.9 32.2598C471.523 31.8822 470.966 31.6934 470.23 31.6934C469.586 31.6934 469.046 31.8561 468.609 32.1816C468.173 32.5072 467.955 32.901 467.955 33.3633H466.139C466.139 32.8359 466.324 32.3281 466.695 31.8398C467.073 31.3451 467.581 30.9544 468.219 30.668C468.863 30.3815 469.57 30.2383 470.338 30.2383C471.555 30.2383 472.509 30.5443 473.199 31.1562C473.889 31.7617 474.247 32.5983 474.273 33.666V38.5293C474.273 39.4993 474.397 40.2708 474.645 40.8438V41H472.75ZM469.752 39.623C470.318 39.623 470.855 39.4766 471.363 39.1836C471.871 38.8906 472.239 38.5098 472.467 38.041V35.873H471.051C468.837 35.873 467.73 36.5208 467.73 37.8164C467.73 38.3828 467.919 38.8255 468.297 39.1445C468.674 39.4635 469.16 39.623 469.752 39.623ZM478.805 30.4336L478.854 31.6055C479.628 30.694 480.673 30.2383 481.988 30.2383C483.466 30.2383 484.472 30.8047 485.006 31.9375C485.357 31.4297 485.813 31.0195 486.373 30.707C486.939 30.3945 487.607 30.2383 488.375 30.2383C490.693 30.2383 491.871 31.4655 491.91 33.9199V41H490.104V34.0273C490.104 33.2721 489.931 32.709 489.586 32.3379C489.241 31.9603 488.661 31.7715 487.848 31.7715C487.177 31.7715 486.62 31.9733 486.178 32.377C485.735 32.7741 485.478 33.3112 485.406 33.9883V41H483.59V34.0762C483.59 32.5397 482.838 31.7715 481.334 31.7715C480.149 31.7715 479.339 32.276 478.902 33.2852V41H477.096V30.4336H478.805ZM501.568 41H499.762V26H501.568V41ZM510.992 41C510.888 40.7917 510.803 40.4206 510.738 39.8867C509.898 40.7591 508.896 41.1953 507.73 41.1953C506.689 41.1953 505.833 40.9023 505.162 40.3164C504.498 39.724 504.166 38.9753 504.166 38.0703C504.166 36.9701 504.583 36.1172 505.416 35.5117C506.256 34.8997 507.434 34.5938 508.951 34.5938H510.709V33.7637C510.709 33.1322 510.52 32.6309 510.143 32.2598C509.765 31.8822 509.208 31.6934 508.473 31.6934C507.828 31.6934 507.288 31.8561 506.852 32.1816C506.415 32.5072 506.197 32.901 506.197 33.3633H504.381C504.381 32.8359 504.566 32.3281 504.938 31.8398C505.315 31.3451 505.823 30.9544 506.461 30.668C507.105 30.3815 507.812 30.2383 508.58 30.2383C509.798 30.2383 510.751 30.5443 511.441 31.1562C512.132 31.7617 512.49 32.5983 512.516 33.666V38.5293C512.516 39.4993 512.639 40.2708 512.887 40.8438V41H510.992ZM507.994 39.623C508.561 39.623 509.098 39.4766 509.605 39.1836C510.113 38.8906 510.481 38.5098 510.709 38.041V35.873H509.293C507.079 35.873 505.973 36.5208 505.973 37.8164C505.973 38.3828 506.161 38.8255 506.539 39.1445C506.917 39.4635 507.402 39.623 507.994 39.623ZM517.799 27.875V30.4336H519.771V31.8301H517.799V38.3828C517.799 38.806 517.887 39.125 518.062 39.3398C518.238 39.5482 518.538 39.6523 518.961 39.6523C519.169 39.6523 519.456 39.6133 519.82 39.5352V41C519.345 41.1302 518.883 41.1953 518.434 41.1953C517.626 41.1953 517.018 40.9512 516.607 40.4629C516.197 39.9746 515.992 39.2812 515.992 38.3828V31.8301H514.068V30.4336H515.992V27.875H517.799ZM526.275 41.1953C524.843 41.1953 523.678 40.7266 522.779 39.7891C521.881 38.8451 521.432 37.5853 521.432 36.0098V35.6777C521.432 34.6296 521.63 33.6953 522.027 32.875C522.431 32.0482 522.991 31.4036 523.707 30.9414C524.43 30.4727 525.211 30.2383 526.051 30.2383C527.424 30.2383 528.492 30.6908 529.254 31.5957C530.016 32.5007 530.396 33.7962 530.396 35.4824V36.2344H523.238C523.264 37.276 523.567 38.1191 524.146 38.7637C524.732 39.4017 525.475 39.7207 526.373 39.7207C527.011 39.7207 527.551 39.5905 527.994 39.3301C528.437 39.0697 528.824 38.7246 529.156 38.2949L530.26 39.1543C529.374 40.515 528.046 41.1953 526.275 41.1953ZM526.051 31.7227C525.322 31.7227 524.71 31.9896 524.215 32.5234C523.72 33.0508 523.414 33.793 523.297 34.75H528.59V34.6133C528.538 33.6953 528.29 32.9857 527.848 32.4844C527.405 31.9766 526.806 31.7227 526.051 31.7227ZM543.98 41C543.876 40.7917 543.792 40.4206 543.727 39.8867C542.887 40.7591 541.884 41.1953 540.719 41.1953C539.677 41.1953 538.821 40.9023 538.15 40.3164C537.486 39.724 537.154 38.9753 537.154 38.0703C537.154 36.9701 537.571 36.1172 538.404 35.5117C539.244 34.8997 540.423 34.5938 541.939 34.5938H543.697V33.7637C543.697 33.1322 543.508 32.6309 543.131 32.2598C542.753 31.8822 542.197 31.6934 541.461 31.6934C540.816 31.6934 540.276 31.8561 539.84 32.1816C539.404 32.5072 539.186 32.901 539.186 33.3633H537.369C537.369 32.8359 537.555 32.3281 537.926 31.8398C538.303 31.3451 538.811 30.9544 539.449 30.668C540.094 30.3815 540.8 30.2383 541.568 30.2383C542.786 30.2383 543.74 30.5443 544.43 31.1562C545.12 31.7617 545.478 32.5983 545.504 33.666V38.5293C545.504 39.4993 545.628 40.2708 545.875 40.8438V41H543.98ZM540.982 39.623C541.549 39.623 542.086 39.4766 542.594 39.1836C543.102 38.8906 543.469 38.5098 543.697 38.041V35.873H542.281C540.068 35.873 538.961 36.5208 538.961 37.8164C538.961 38.3828 539.15 38.8255 539.527 39.1445C539.905 39.4635 540.39 39.623 540.982 39.623ZM550.045 30.4336L550.104 31.7617C550.911 30.7461 551.965 30.2383 553.268 30.2383C555.501 30.2383 556.627 31.498 556.646 34.0176V41H554.84V34.0078C554.833 33.2461 554.658 32.6829 554.312 32.3184C553.974 31.9538 553.443 31.7715 552.721 31.7715C552.135 31.7715 551.62 31.9277 551.178 32.2402C550.735 32.5527 550.39 32.9629 550.143 33.4707V41H548.336V30.4336H550.045ZM558.932 35.6289C558.932 34.0078 559.316 32.7057 560.084 31.7227C560.852 30.7331 561.858 30.2383 563.102 30.2383C564.339 30.2383 565.318 30.6615 566.041 31.5078V26H567.848V41H566.188L566.1 39.8672C565.377 40.7526 564.371 41.1953 563.082 41.1953C561.858 41.1953 560.859 40.694 560.084 39.6914C559.316 38.6888 558.932 37.3802 558.932 35.7656V35.6289ZM560.738 35.834C560.738 37.0319 560.986 37.9694 561.48 38.6465C561.975 39.3236 562.659 39.6621 563.531 39.6621C564.677 39.6621 565.514 39.1478 566.041 38.1191V33.2656C565.501 32.2695 564.671 31.7715 563.551 31.7715C562.665 31.7715 561.975 32.1133 561.48 32.7969C560.986 33.4805 560.738 34.4928 560.738 35.834ZM575.182 35.6289C575.182 34.0078 575.566 32.7057 576.334 31.7227C577.102 30.7331 578.108 30.2383 579.352 30.2383C580.589 30.2383 581.568 30.6615 582.291 31.5078V26H584.098V41H582.438L582.35 39.8672C581.627 40.7526 580.621 41.1953 579.332 41.1953C578.108 41.1953 577.109 40.694 576.334 39.6914C575.566 38.6888 575.182 37.3802 575.182 35.7656V35.6289ZM576.988 35.834C576.988 37.0319 577.236 37.9694 577.73 38.6465C578.225 39.3236 578.909 39.6621 579.781 39.6621C580.927 39.6621 581.764 39.1478 582.291 38.1191V33.2656C581.751 32.2695 580.921 31.7715 579.801 31.7715C578.915 31.7715 578.225 32.1133 577.73 32.7969C577.236 33.4805 576.988 34.4928 576.988 35.834ZM586.432 35.6191C586.432 34.584 586.633 33.653 587.037 32.8262C587.447 31.9993 588.014 31.3613 588.736 30.9121C589.465 30.4629 590.296 30.2383 591.227 30.2383C592.665 30.2383 593.827 30.7363 594.713 31.7324C595.605 32.7285 596.051 34.0534 596.051 35.707V35.834C596.051 36.8626 595.852 37.7871 595.455 38.6074C595.064 39.4212 594.501 40.056 593.766 40.5117C593.036 40.9674 592.197 41.1953 591.246 41.1953C589.814 41.1953 588.652 40.6973 587.76 39.7012C586.874 38.7051 586.432 37.3867 586.432 35.7461V35.6191ZM588.248 35.834C588.248 37.0059 588.518 37.9466 589.059 38.6562C589.605 39.3659 590.335 39.7207 591.246 39.7207C592.164 39.7207 592.893 39.3626 593.434 38.6465C593.974 37.9238 594.244 36.9147 594.244 35.6191C594.244 34.4603 593.967 33.5228 593.414 32.8066C592.867 32.084 592.138 31.7227 591.227 31.7227C590.335 31.7227 589.615 32.0775 589.068 32.7871C588.521 33.4967 588.248 34.5124 588.248 35.834ZM600.025 30.4336L600.084 31.7617C600.891 30.7461 601.946 30.2383 603.248 30.2383C605.481 30.2383 606.607 31.498 606.627 34.0176V41H604.82V34.0078C604.814 33.2461 604.638 32.6829 604.293 32.3184C603.954 31.9538 603.424 31.7715 602.701 31.7715C602.115 31.7715 601.601 31.9277 601.158 32.2402C600.715 32.5527 600.37 32.9629 600.123 33.4707V41H598.316V30.4336H600.025ZM608.697 30.7852L607.672 30.082C608.277 29.2357 608.59 28.3438 608.609 27.4062V26H610.396V27.2695C610.39 27.9206 610.227 28.5716 609.908 29.2227C609.596 29.8672 609.192 30.388 608.697 30.7852ZM615.025 27.875V30.4336H616.998V31.8301H615.025V38.3828C615.025 38.806 615.113 39.125 615.289 39.3398C615.465 39.5482 615.764 39.6523 616.188 39.6523C616.396 39.6523 616.682 39.6133 617.047 39.5352V41C616.572 41.1302 616.109 41.1953 615.66 41.1953C614.853 41.1953 614.244 40.9512 613.834 40.4629C613.424 39.9746 613.219 39.2812 613.219 38.3828V31.8301H611.295V30.4336H613.219V27.875H615.025ZM627.027 36.1074L625.895 37.2891V41H624.088V26H625.895V35.0723L626.861 33.9102L630.152 30.4336H632.35L628.238 34.8477L632.828 41H630.709L627.027 36.1074ZM635.924 30.4336L635.982 31.7617C636.79 30.7461 637.844 30.2383 639.146 30.2383C641.38 30.2383 642.506 31.498 642.525 34.0176V41H640.719V34.0078C640.712 33.2461 640.536 32.6829 640.191 32.3184C639.853 31.9538 639.322 31.7715 638.6 31.7715C638.014 31.7715 637.499 31.9277 637.057 32.2402C636.614 32.5527 636.269 32.9629 636.021 33.4707V41H634.215V30.4336H635.924ZM644.771 35.6191C644.771 34.584 644.973 33.653 645.377 32.8262C645.787 31.9993 646.354 31.3613 647.076 30.9121C647.805 30.4629 648.635 30.2383 649.566 30.2383C651.005 30.2383 652.167 30.7363 653.053 31.7324C653.945 32.7285 654.391 34.0534 654.391 35.707V35.834C654.391 36.8626 654.192 37.7871 653.795 38.6074C653.404 39.4212 652.841 40.056 652.105 40.5117C651.376 40.9674 650.536 41.1953 649.586 41.1953C648.154 41.1953 646.992 40.6973 646.1 39.7012C645.214 38.7051 644.771 37.3867 644.771 35.7461V35.6191ZM646.588 35.834C646.588 37.0059 646.858 37.9466 647.398 38.6562C647.945 39.3659 648.674 39.7207 649.586 39.7207C650.504 39.7207 651.233 39.3626 651.773 38.6465C652.314 37.9238 652.584 36.9147 652.584 35.6191C652.584 34.4603 652.307 33.5228 651.754 32.8066C651.207 32.084 650.478 31.7227 649.566 31.7227C648.674 31.7227 647.955 32.0775 647.408 32.7871C646.861 33.4967 646.588 34.5124 646.588 35.834ZM666.012 38.5098L668.043 30.4336H669.85L666.773 41H665.309L662.74 32.9922L660.24 41H658.775L655.709 30.4336H657.506L659.586 38.3438L662.047 30.4336H663.502L666.012 38.5098ZM678.463 31.7129C679.264 30.7298 680.305 30.2383 681.588 30.2383C683.821 30.2383 684.947 31.498 684.967 34.0176V41H683.16V34.0078C683.154 33.2461 682.978 32.6829 682.633 32.3184C682.294 31.9538 681.764 31.7715 681.041 31.7715C680.455 31.7715 679.941 31.9277 679.498 32.2402C679.055 32.5527 678.71 32.9629 678.463 33.4707V41H676.656V26H678.463V31.7129ZM687.193 35.6191C687.193 34.584 687.395 33.653 687.799 32.8262C688.209 31.9993 688.775 31.3613 689.498 30.9121C690.227 30.4629 691.057 30.2383 691.988 30.2383C693.427 30.2383 694.589 30.7363 695.475 31.7324C696.367 32.7285 696.812 34.0534 696.812 35.707V35.834C696.812 36.8626 696.614 37.7871 696.217 38.6074C695.826 39.4212 695.263 40.056 694.527 40.5117C693.798 40.9674 692.958 41.1953 692.008 41.1953C690.576 41.1953 689.413 40.6973 688.521 39.7012C687.636 38.7051 687.193 37.3867 687.193 35.7461V35.6191ZM689.01 35.834C689.01 37.0059 689.28 37.9466 689.82 38.6562C690.367 39.3659 691.096 39.7207 692.008 39.7207C692.926 39.7207 693.655 39.3626 694.195 38.6465C694.736 37.9238 695.006 36.9147 695.006 35.6191C695.006 34.4603 694.729 33.5228 694.176 32.8066C693.629 32.084 692.9 31.7227 691.988 31.7227C691.096 31.7227 690.377 32.0775 689.83 32.7871C689.283 33.4967 689.01 34.5124 689.01 35.834ZM708.434 38.5098L710.465 30.4336H712.271L709.195 41H707.73L705.162 32.9922L702.662 41H701.197L698.131 30.4336H699.928L702.008 38.3438L704.469 30.4336H705.924L708.434 38.5098ZM721.373 41H719.498V26.7812H721.373V41ZM417.105 64.7207C417.75 64.7207 418.313 64.5254 418.795 64.1348C419.277 63.7441 419.544 63.2559 419.596 62.6699H421.305C421.272 63.2754 421.064 63.8516 420.68 64.3984C420.296 64.9453 419.781 65.3815 419.137 65.707C418.499 66.0326 417.822 66.1953 417.105 66.1953C415.667 66.1953 414.521 65.7168 413.668 64.7598C412.822 63.7962 412.398 62.4811 412.398 60.8145V60.5117C412.398 59.4831 412.587 58.5684 412.965 57.7676C413.342 56.9668 413.883 56.3451 414.586 55.9023C415.296 55.4596 416.132 55.2383 417.096 55.2383C418.281 55.2383 419.264 55.5931 420.045 56.3027C420.833 57.0124 421.253 57.9336 421.305 59.0664H419.596C419.544 58.3828 419.283 57.8229 418.814 57.3867C418.352 56.944 417.779 56.7227 417.096 56.7227C416.178 56.7227 415.465 57.0547 414.957 57.7188C414.456 58.3763 414.205 59.3301 414.205 60.5801V60.9219C414.205 62.1393 414.456 63.0768 414.957 63.7344C415.458 64.3919 416.174 64.7207 417.105 64.7207ZM429.859 66C429.755 65.7917 429.671 65.4206 429.605 64.8867C428.766 65.7591 427.763 66.1953 426.598 66.1953C425.556 66.1953 424.7 65.9023 424.029 65.3164C423.365 64.724 423.033 63.9753 423.033 63.0703C423.033 61.9701 423.45 61.1172 424.283 60.5117C425.123 59.8997 426.301 59.5938 427.818 59.5938H429.576V58.7637C429.576 58.1322 429.387 57.6309 429.01 57.2598C428.632 56.8822 428.076 56.6934 427.34 56.6934C426.695 56.6934 426.155 56.8561 425.719 57.1816C425.283 57.5072 425.064 57.901 425.064 58.3633H423.248C423.248 57.8359 423.434 57.3281 423.805 56.8398C424.182 56.3451 424.69 55.9544 425.328 55.668C425.973 55.3815 426.679 55.2383 427.447 55.2383C428.665 55.2383 429.618 55.5443 430.309 56.1562C430.999 56.7617 431.357 57.5983 431.383 58.666V63.5293C431.383 64.4993 431.507 65.2708 431.754 65.8438V66H429.859ZM426.861 64.623C427.428 64.623 427.965 64.4766 428.473 64.1836C428.98 63.8906 429.348 63.5098 429.576 63.041V60.873H428.16C425.947 60.873 424.84 61.5208 424.84 62.8164C424.84 63.3828 425.029 63.8255 425.406 64.1445C425.784 64.4635 426.269 64.623 426.861 64.623ZM435.924 55.4336L435.982 56.7617C436.79 55.7461 437.844 55.2383 439.146 55.2383C441.38 55.2383 442.506 56.498 442.525 59.0176V66H440.719V59.0078C440.712 58.2461 440.536 57.6829 440.191 57.3184C439.853 56.9538 439.322 56.7715 438.6 56.7715C438.014 56.7715 437.499 56.9277 437.057 57.2402C436.614 57.5527 436.269 57.9629 436.021 58.4707V66H434.215V55.4336H435.924ZM450.816 66V56.8301H449.146V55.4336H450.816V54.5352C450.816 53.3568 451.152 52.4388 451.822 51.7812C452.499 51.1237 453.453 50.7949 454.684 50.7949C455.413 50.7949 456.334 50.9935 457.447 51.3906L457.145 52.9141C456.331 52.5885 455.556 52.4258 454.82 52.4258C454.046 52.4258 453.486 52.6016 453.141 52.9531C452.802 53.2982 452.633 53.819 452.633 54.5156V55.4336H454.791V56.8301H452.633V66H450.816ZM458.346 66H456.529V55.4336H458.346V66ZM462.994 55.4336L463.053 56.7617C463.86 55.7461 464.915 55.2383 466.217 55.2383C468.45 55.2383 469.576 56.498 469.596 59.0176V66H467.789V59.0078C467.783 58.2461 467.607 57.6829 467.262 57.3184C466.923 56.9538 466.393 56.7715 465.67 56.7715C465.084 56.7715 464.57 56.9277 464.127 57.2402C463.684 57.5527 463.339 57.9629 463.092 58.4707V66H461.285V55.4336H462.994ZM471.881 60.6289C471.881 59.0078 472.265 57.7057 473.033 56.7227C473.801 55.7331 474.807 55.2383 476.051 55.2383C477.288 55.2383 478.268 55.6615 478.99 56.5078V51H480.797V66H479.137L479.049 64.8672C478.326 65.7526 477.32 66.1953 476.031 66.1953C474.807 66.1953 473.808 65.694 473.033 64.6914C472.265 63.6888 471.881 62.3802 471.881 60.7656V60.6289ZM473.688 60.834C473.688 62.0319 473.935 62.9694 474.43 63.6465C474.924 64.3236 475.608 64.6621 476.48 64.6621C477.626 64.6621 478.463 64.1478 478.99 63.1191V58.2656C478.45 57.2695 477.62 56.7715 476.5 56.7715C475.615 56.7715 474.924 57.1133 474.43 57.7969C473.935 58.4805 473.688 59.4928 473.688 60.834ZM491.021 52.875V55.4336H492.994V56.8301H491.021V63.3828C491.021 63.806 491.109 64.125 491.285 64.3398C491.461 64.5482 491.76 64.6523 492.184 64.6523C492.392 64.6523 492.678 64.6133 493.043 64.5352V66C492.568 66.1302 492.105 66.1953 491.656 66.1953C490.849 66.1953 490.24 65.9512 489.83 65.4629C489.42 64.9746 489.215 64.2812 489.215 63.3828V56.8301H487.291V55.4336H489.215V52.875H491.021ZM496.92 56.7129C497.721 55.7298 498.762 55.2383 500.045 55.2383C502.278 55.2383 503.404 56.498 503.424 59.0176V66H501.617V59.0078C501.611 58.2461 501.435 57.6829 501.09 57.3184C500.751 56.9538 500.221 56.7715 499.498 56.7715C498.912 56.7715 498.398 56.9277 497.955 57.2402C497.512 57.5527 497.167 57.9629 496.92 58.4707V66H495.113V51H496.92V56.7129ZM510.514 66.1953C509.081 66.1953 507.916 65.7266 507.018 64.7891C506.119 63.8451 505.67 62.5853 505.67 61.0098V60.6777C505.67 59.6296 505.868 58.6953 506.266 57.875C506.669 57.0482 507.229 56.4036 507.945 55.9414C508.668 55.4727 509.449 55.2383 510.289 55.2383C511.663 55.2383 512.73 55.6908 513.492 56.5957C514.254 57.5007 514.635 58.7962 514.635 60.4824V61.2344H507.477C507.503 62.276 507.805 63.1191 508.385 63.7637C508.971 64.4017 509.713 64.7207 510.611 64.7207C511.249 64.7207 511.79 64.5905 512.232 64.3301C512.675 64.0697 513.062 63.7246 513.395 63.2949L514.498 64.1543C513.613 65.515 512.285 66.1953 510.514 66.1953ZM510.289 56.7227C509.56 56.7227 508.948 56.9896 508.453 57.5234C507.958 58.0508 507.652 58.793 507.535 59.75H512.828V59.6133C512.776 58.6953 512.529 57.9857 512.086 57.4844C511.643 56.9766 511.044 56.7227 510.289 56.7227ZM521.266 60.6289C521.266 58.9818 521.646 57.6732 522.408 56.7031C523.17 55.7266 524.179 55.2383 525.436 55.2383C526.725 55.2383 527.73 55.694 528.453 56.6055L528.541 55.4336H530.191V65.7461C530.191 67.1133 529.785 68.1908 528.971 68.9785C528.163 69.7663 527.076 70.1602 525.709 70.1602C524.947 70.1602 524.202 69.9974 523.473 69.6719C522.743 69.3464 522.187 68.9004 521.803 68.334L522.74 67.25C523.515 68.207 524.462 68.6855 525.582 68.6855C526.461 68.6855 527.145 68.4382 527.633 67.9434C528.128 67.4486 528.375 66.752 528.375 65.8535V64.9453C527.652 65.7786 526.666 66.1953 525.416 66.1953C524.179 66.1953 523.176 65.6973 522.408 64.7012C521.646 63.7051 521.266 62.3477 521.266 60.6289ZM523.082 60.834C523.082 62.0254 523.326 62.9629 523.814 63.6465C524.303 64.3236 524.986 64.6621 525.865 64.6621C527.005 64.6621 527.841 64.1445 528.375 63.1094V58.2852C527.822 57.276 526.992 56.7715 525.885 56.7715C525.006 56.7715 524.319 57.1133 523.824 57.7969C523.329 58.4805 523.082 59.4928 523.082 60.834ZM539.449 64.9551C538.746 65.7819 537.714 66.1953 536.354 66.1953C535.227 66.1953 534.368 65.8698 533.775 65.2188C533.189 64.5612 532.893 63.5911 532.887 62.3086V55.4336H534.693V62.2598C534.693 63.8613 535.344 64.6621 536.646 64.6621C538.027 64.6621 538.945 64.1478 539.4 63.1191V55.4336H541.207V66H539.488L539.449 64.9551ZM545.924 66H544.117V55.4336H545.924V66ZM543.971 52.6309C543.971 52.3379 544.059 52.0905 544.234 51.8887C544.417 51.6868 544.684 51.5859 545.035 51.5859C545.387 51.5859 545.654 51.6868 545.836 51.8887C546.018 52.0905 546.109 52.3379 546.109 52.6309C546.109 52.9238 546.018 53.168 545.836 53.3633C545.654 53.5586 545.387 53.6562 545.035 53.6562C544.684 53.6562 544.417 53.5586 544.234 53.3633C544.059 53.168 543.971 52.9238 543.971 52.6309ZM548.385 60.6289C548.385 59.0078 548.769 57.7057 549.537 56.7227C550.305 55.7331 551.311 55.2383 552.555 55.2383C553.792 55.2383 554.771 55.6615 555.494 56.5078V51H557.301V66H555.641L555.553 64.8672C554.83 65.7526 553.824 66.1953 552.535 66.1953C551.311 66.1953 550.312 65.694 549.537 64.6914C548.769 63.6888 548.385 62.3802 548.385 60.7656V60.6289ZM550.191 60.834C550.191 62.0319 550.439 62.9694 550.934 63.6465C551.428 64.3236 552.112 64.6621 552.984 64.6621C554.13 64.6621 554.967 64.1478 555.494 63.1191V58.2656C554.954 57.2695 554.124 56.7715 553.004 56.7715C552.118 56.7715 551.428 57.1133 550.934 57.7969C550.439 58.4805 550.191 59.4928 550.191 60.834ZM564.498 66.1953C563.066 66.1953 561.9 65.7266 561.002 64.7891C560.104 63.8451 559.654 62.5853 559.654 61.0098V60.6777C559.654 59.6296 559.853 58.6953 560.25 57.875C560.654 57.0482 561.214 56.4036 561.93 55.9414C562.652 55.4727 563.434 55.2383 564.273 55.2383C565.647 55.2383 566.715 55.6908 567.477 56.5957C568.238 57.5007 568.619 58.7962 568.619 60.4824V61.2344H561.461C561.487 62.276 561.79 63.1191 562.369 63.7637C562.955 64.4017 563.697 64.7207 564.596 64.7207C565.234 64.7207 565.774 64.5905 566.217 64.3301C566.66 64.0697 567.047 63.7246 567.379 63.2949L568.482 64.1543C567.597 65.515 566.269 66.1953 564.498 66.1953ZM564.273 56.7227C563.544 56.7227 562.932 56.9896 562.438 57.5234C561.943 58.0508 561.637 58.793 561.52 59.75H566.812V59.6133C566.76 58.6953 566.513 57.9857 566.07 57.4844C565.628 56.9766 565.029 56.7227 564.273 56.7227ZM581.832 63.1973C581.832 62.709 581.646 62.3314 581.275 62.0645C580.911 61.791 580.27 61.5566 579.352 61.3613C578.44 61.166 577.714 60.9316 577.174 60.6582C576.64 60.3848 576.243 60.0592 575.982 59.6816C575.729 59.304 575.602 58.8548 575.602 58.334C575.602 57.4681 575.966 56.7357 576.695 56.1367C577.431 55.5378 578.368 55.2383 579.508 55.2383C580.706 55.2383 581.676 55.5475 582.418 56.166C583.167 56.7845 583.541 57.5755 583.541 58.5391H581.725C581.725 58.0443 581.513 57.6178 581.09 57.2598C580.673 56.9017 580.146 56.7227 579.508 56.7227C578.85 56.7227 578.336 56.8659 577.965 57.1523C577.594 57.4388 577.408 57.8132 577.408 58.2754C577.408 58.7116 577.581 59.0404 577.926 59.2617C578.271 59.4831 578.893 59.6947 579.791 59.8965C580.696 60.0983 581.428 60.3392 581.988 60.6191C582.548 60.8991 582.962 61.2376 583.229 61.6348C583.502 62.0254 583.639 62.5039 583.639 63.0703C583.639 64.0143 583.261 64.7728 582.506 65.3457C581.751 65.9121 580.771 66.1953 579.566 66.1953C578.72 66.1953 577.971 66.0456 577.32 65.7461C576.669 65.4466 576.158 65.0299 575.787 64.4961C575.423 63.9557 575.24 63.373 575.24 62.748H577.047C577.079 63.3535 577.32 63.8353 577.77 64.1934C578.225 64.5449 578.824 64.7207 579.566 64.7207C580.25 64.7207 580.797 64.584 581.207 64.3105C581.624 64.0306 581.832 63.6595 581.832 63.1973ZM587.955 66H586.148V55.4336H587.955V66ZM586.002 52.6309C586.002 52.3379 586.09 52.0905 586.266 51.8887C586.448 51.6868 586.715 51.5859 587.066 51.5859C587.418 51.5859 587.685 51.6868 587.867 51.8887C588.049 52.0905 588.141 52.3379 588.141 52.6309C588.141 52.9238 588.049 53.168 587.867 53.3633C587.685 53.5586 587.418 53.6562 587.066 53.6562C586.715 53.6562 586.448 53.5586 586.266 53.3633C586.09 53.168 586.002 52.9238 586.002 52.6309ZM590.426 60.6289C590.426 58.9818 590.807 57.6732 591.568 56.7031C592.33 55.7266 593.339 55.2383 594.596 55.2383C595.885 55.2383 596.891 55.694 597.613 56.6055L597.701 55.4336H599.352V65.7461C599.352 67.1133 598.945 68.1908 598.131 68.9785C597.324 69.7663 596.236 70.1602 594.869 70.1602C594.107 70.1602 593.362 69.9974 592.633 69.6719C591.904 69.3464 591.347 68.9004 590.963 68.334L591.9 67.25C592.675 68.207 593.622 68.6855 594.742 68.6855C595.621 68.6855 596.305 68.4382 596.793 67.9434C597.288 67.4486 597.535 66.752 597.535 65.8535V64.9453C596.812 65.7786 595.826 66.1953 594.576 66.1953C593.339 66.1953 592.337 65.6973 591.568 64.7012C590.807 63.7051 590.426 62.3477 590.426 60.6289ZM592.242 60.834C592.242 62.0254 592.486 62.9629 592.975 63.6465C593.463 64.3236 594.146 64.6621 595.025 64.6621C596.165 64.6621 597.001 64.1445 597.535 63.1094V58.2852C596.982 57.276 596.152 56.7715 595.045 56.7715C594.166 56.7715 593.479 57.1133 592.984 57.7969C592.49 58.4805 592.242 59.4928 592.242 60.834ZM603.795 55.4336L603.854 56.7617C604.661 55.7461 605.715 55.2383 607.018 55.2383C609.251 55.2383 610.377 56.498 610.396 59.0176V66H608.59V59.0078C608.583 58.2461 608.408 57.6829 608.062 57.3184C607.724 56.9538 607.193 56.7715 606.471 56.7715C605.885 56.7715 605.37 56.9277 604.928 57.2402C604.485 57.5527 604.14 57.9629 603.893 58.4707V66H602.086V55.4336H603.795ZM619.273 63.1973C619.273 62.709 619.088 62.3314 618.717 62.0645C618.352 61.791 617.711 61.5566 616.793 61.3613C615.882 61.166 615.156 60.9316 614.615 60.6582C614.081 60.3848 613.684 60.0592 613.424 59.6816C613.17 59.304 613.043 58.8548 613.043 58.334C613.043 57.4681 613.408 56.7357 614.137 56.1367C614.872 55.5378 615.81 55.2383 616.949 55.2383C618.147 55.2383 619.117 55.5475 619.859 56.166C620.608 56.7845 620.982 57.5755 620.982 58.5391H619.166C619.166 58.0443 618.954 57.6178 618.531 57.2598C618.115 56.9017 617.587 56.7227 616.949 56.7227C616.292 56.7227 615.777 56.8659 615.406 57.1523C615.035 57.4388 614.85 57.8132 614.85 58.2754C614.85 58.7116 615.022 59.0404 615.367 59.2617C615.712 59.4831 616.334 59.6947 617.232 59.8965C618.137 60.0983 618.87 60.3392 619.43 60.6191C619.99 60.8991 620.403 61.2376 620.67 61.6348C620.943 62.0254 621.08 62.5039 621.08 63.0703C621.08 64.0143 620.702 64.7728 619.947 65.3457C619.192 65.9121 618.212 66.1953 617.008 66.1953C616.161 66.1953 615.413 66.0456 614.762 65.7461C614.111 65.4466 613.6 65.0299 613.229 64.4961C612.864 63.9557 612.682 63.373 612.682 62.748H614.488C614.521 63.3535 614.762 63.8353 615.211 64.1934C615.667 64.5449 616.266 64.7207 617.008 64.7207C617.691 64.7207 618.238 64.584 618.648 64.3105C619.065 64.0306 619.273 63.6595 619.273 63.1973ZM630.846 52.875V55.4336H632.818V56.8301H630.846V63.3828C630.846 63.806 630.934 64.125 631.109 64.3398C631.285 64.5482 631.585 64.6523 632.008 64.6523C632.216 64.6523 632.503 64.6133 632.867 64.5352V66C632.392 66.1302 631.93 66.1953 631.48 66.1953C630.673 66.1953 630.064 65.9512 629.654 65.4629C629.244 64.9746 629.039 64.2812 629.039 63.3828V56.8301H627.115V55.4336H629.039V52.875H630.846ZM634.264 60.6191C634.264 59.584 634.465 58.653 634.869 57.8262C635.279 56.9993 635.846 56.3613 636.568 55.9121C637.298 55.4629 638.128 55.2383 639.059 55.2383C640.497 55.2383 641.66 55.7363 642.545 56.7324C643.437 57.7285 643.883 59.0534 643.883 60.707V60.834C643.883 61.8626 643.684 62.7871 643.287 63.6074C642.896 64.4212 642.333 65.056 641.598 65.5117C640.868 65.9674 640.029 66.1953 639.078 66.1953C637.646 66.1953 636.484 65.6973 635.592 64.7012C634.706 63.7051 634.264 62.3867 634.264 60.7461V60.6191ZM636.08 60.834C636.08 62.0059 636.35 62.9466 636.891 63.6562C637.438 64.3659 638.167 64.7207 639.078 64.7207C639.996 64.7207 640.725 64.3626 641.266 63.6465C641.806 62.9238 642.076 61.9147 642.076 60.6191C642.076 59.4603 641.799 58.5228 641.246 57.8066C640.699 57.084 639.97 56.7227 639.059 56.7227C638.167 56.7227 637.447 57.0775 636.9 57.7871C636.354 58.4967 636.08 59.5124 636.08 60.834ZM651.715 66V56.8301H650.045V55.4336H651.715V54.5352C651.715 53.3568 652.05 52.4388 652.721 51.7812C653.398 51.1237 654.352 50.7949 655.582 50.7949C656.311 50.7949 657.232 50.9935 658.346 51.3906L658.043 52.9141C657.229 52.5885 656.454 52.4258 655.719 52.4258C654.944 52.4258 654.384 52.6016 654.039 52.9531C653.701 53.2982 653.531 53.819 653.531 54.5156V55.4336H655.689V56.8301H653.531V66H651.715ZM659.244 66H657.428V55.4336H659.244V66ZM663.893 55.4336L663.951 56.7617C664.758 55.7461 665.813 55.2383 667.115 55.2383C669.348 55.2383 670.475 56.498 670.494 59.0176V66H668.688V59.0078C668.681 58.2461 668.505 57.6829 668.16 57.3184C667.822 56.9538 667.291 56.7715 666.568 56.7715C665.982 56.7715 665.468 56.9277 665.025 57.2402C664.583 57.5527 664.238 57.9629 663.99 58.4707V66H662.184V55.4336H663.893ZM672.779 60.6289C672.779 59.0078 673.163 57.7057 673.932 56.7227C674.7 55.7331 675.706 55.2383 676.949 55.2383C678.186 55.2383 679.166 55.6615 679.889 56.5078V51H681.695V66H680.035L679.947 64.8672C679.225 65.7526 678.219 66.1953 676.93 66.1953C675.706 66.1953 674.706 65.694 673.932 64.6914C673.163 63.6888 672.779 62.3802 672.779 60.7656V60.6289ZM674.586 60.834C674.586 62.0319 674.833 62.9694 675.328 63.6465C675.823 64.3236 676.507 64.6621 677.379 64.6621C678.525 64.6621 679.361 64.1478 679.889 63.1191V58.2656C679.348 57.2695 678.518 56.7715 677.398 56.7715C676.513 56.7715 675.823 57.1133 675.328 57.7969C674.833 58.4805 674.586 59.4928 674.586 60.834ZM691.168 55.4336L691.217 56.6055C691.992 55.694 693.036 55.2383 694.352 55.2383C695.829 55.2383 696.835 55.8047 697.369 56.9375C697.721 56.4297 698.176 56.0195 698.736 55.707C699.303 55.3945 699.97 55.2383 700.738 55.2383C703.056 55.2383 704.234 56.4655 704.273 58.9199V66H702.467V59.0273C702.467 58.2721 702.294 57.709 701.949 57.3379C701.604 56.9603 701.025 56.7715 700.211 56.7715C699.54 56.7715 698.984 56.9733 698.541 57.377C698.098 57.7741 697.841 58.3112 697.77 58.9883V66H695.953V59.0762C695.953 57.5397 695.201 56.7715 693.697 56.7715C692.512 56.7715 691.702 57.276 691.266 58.2852V66H689.459V55.4336H691.168ZM710.465 63.3535L712.926 55.4336H714.859L710.611 67.6309C709.954 69.3887 708.909 70.2676 707.477 70.2676L707.135 70.2383L706.461 70.1113V68.6465L706.949 68.6855C707.561 68.6855 708.036 68.5618 708.375 68.3145C708.72 68.0671 709.003 67.6146 709.225 66.957L709.625 65.8828L705.855 55.4336H707.828L710.465 63.3535ZM417.105 89.7207C417.75 89.7207 418.313 89.5254 418.795 89.1348C419.277 88.7441 419.544 88.2559 419.596 87.6699H421.305C421.272 88.2754 421.064 88.8516 420.68 89.3984C420.296 89.9453 419.781 90.3815 419.137 90.707C418.499 91.0326 417.822 91.1953 417.105 91.1953C415.667 91.1953 414.521 90.7168 413.668 89.7598C412.822 88.7962 412.398 87.4811 412.398 85.8145V85.5117C412.398 84.4831 412.587 83.5684 412.965 82.7676C413.342 81.9668 413.883 81.3451 414.586 80.9023C415.296 80.4596 416.132 80.2383 417.096 80.2383C418.281 80.2383 419.264 80.5931 420.045 81.3027C420.833 82.0124 421.253 82.9336 421.305 84.0664H419.596C419.544 83.3828 419.283 82.8229 418.814 82.3867C418.352 81.944 417.779 81.7227 417.096 81.7227C416.178 81.7227 415.465 82.0547 414.957 82.7188C414.456 83.3763 414.205 84.3301 414.205 85.5801V85.9219C414.205 87.1393 414.456 88.0768 414.957 88.7344C415.458 89.3919 416.174 89.7207 417.105 89.7207ZM425.299 91H423.492V76H425.299V91ZM434.723 91C434.618 90.7917 434.534 90.4206 434.469 89.8867C433.629 90.7591 432.626 91.1953 431.461 91.1953C430.419 91.1953 429.563 90.9023 428.893 90.3164C428.229 89.724 427.896 88.9753 427.896 88.0703C427.896 86.9701 428.313 86.1172 429.146 85.5117C429.986 84.8997 431.165 84.5938 432.682 84.5938H434.439V83.7637C434.439 83.1322 434.251 82.6309 433.873 82.2598C433.495 81.8822 432.939 81.6934 432.203 81.6934C431.559 81.6934 431.018 81.8561 430.582 82.1816C430.146 82.5072 429.928 82.901 429.928 83.3633H428.111C428.111 82.8359 428.297 82.3281 428.668 81.8398C429.046 81.3451 429.553 80.9544 430.191 80.668C430.836 80.3815 431.542 80.2383 432.311 80.2383C433.528 80.2383 434.482 80.5443 435.172 81.1562C435.862 81.7617 436.22 82.5983 436.246 83.666V88.5293C436.246 89.4993 436.37 90.2708 436.617 90.8438V91H434.723ZM431.725 89.623C432.291 89.623 432.828 89.4766 433.336 89.1836C433.844 88.8906 434.212 88.5098 434.439 88.041V85.873H433.023C430.81 85.873 429.703 86.5208 429.703 87.8164C429.703 88.3828 429.892 88.8255 430.27 89.1445C430.647 89.4635 431.132 89.623 431.725 89.623ZM445.23 88.1973C445.23 87.709 445.045 87.3314 444.674 87.0645C444.309 86.791 443.668 86.5566 442.75 86.3613C441.839 86.166 441.113 85.9316 440.572 85.6582C440.038 85.3848 439.641 85.0592 439.381 84.6816C439.127 84.304 439 83.8548 439 83.334C439 82.4681 439.365 81.7357 440.094 81.1367C440.829 80.5378 441.767 80.2383 442.906 80.2383C444.104 80.2383 445.074 80.5475 445.816 81.166C446.565 81.7845 446.939 82.5755 446.939 83.5391H445.123C445.123 83.0443 444.911 82.6178 444.488 82.2598C444.072 81.9017 443.544 81.7227 442.906 81.7227C442.249 81.7227 441.734 81.8659 441.363 82.1523C440.992 82.4388 440.807 82.8132 440.807 83.2754C440.807 83.7116 440.979 84.0404 441.324 84.2617C441.669 84.4831 442.291 84.6947 443.189 84.8965C444.094 85.0983 444.827 85.3392 445.387 85.6191C445.947 85.8991 446.36 86.2376 446.627 86.6348C446.9 87.0254 447.037 87.5039 447.037 88.0703C447.037 89.0143 446.66 89.7728 445.904 90.3457C445.149 90.9121 444.169 91.1953 442.965 91.1953C442.118 91.1953 441.37 91.0456 440.719 90.7461C440.068 90.4466 439.557 90.0299 439.186 89.4961C438.821 88.9557 438.639 88.373 438.639 87.748H440.445C440.478 88.3535 440.719 88.8353 441.168 89.1934C441.624 89.5449 442.223 89.7207 442.965 89.7207C443.648 89.7207 444.195 89.584 444.605 89.3105C445.022 89.0306 445.23 88.6595 445.23 88.1973ZM455.543 88.1973C455.543 87.709 455.357 87.3314 454.986 87.0645C454.622 86.791 453.98 86.5566 453.062 86.3613C452.151 86.166 451.425 85.9316 450.885 85.6582C450.351 85.3848 449.954 85.0592 449.693 84.6816C449.439 84.304 449.312 83.8548 449.312 83.334C449.312 82.4681 449.677 81.7357 450.406 81.1367C451.142 80.5378 452.079 80.2383 453.219 80.2383C454.417 80.2383 455.387 80.5475 456.129 81.166C456.878 81.7845 457.252 82.5755 457.252 83.5391H455.436C455.436 83.0443 455.224 82.6178 454.801 82.2598C454.384 81.9017 453.857 81.7227 453.219 81.7227C452.561 81.7227 452.047 81.8659 451.676 82.1523C451.305 82.4388 451.119 82.8132 451.119 83.2754C451.119 83.7116 451.292 84.0404 451.637 84.2617C451.982 84.4831 452.604 84.6947 453.502 84.8965C454.407 85.0983 455.139 85.3392 455.699 85.6191C456.259 85.8991 456.673 86.2376 456.939 86.6348C457.213 87.0254 457.35 87.5039 457.35 88.0703C457.35 89.0143 456.972 89.7728 456.217 90.3457C455.462 90.9121 454.482 91.1953 453.277 91.1953C452.431 91.1953 451.682 91.0456 451.031 90.7461C450.38 90.4466 449.869 90.0299 449.498 89.4961C449.133 88.9557 448.951 88.373 448.951 87.748H450.758C450.79 88.3535 451.031 88.8353 451.48 89.1934C451.936 89.5449 452.535 89.7207 453.277 89.7207C453.961 89.7207 454.508 89.584 454.918 89.3105C455.335 89.0306 455.543 88.6595 455.543 88.1973ZM464.811 82.0547C464.537 82.0091 464.241 81.9863 463.922 81.9863C462.737 81.9863 461.933 82.4909 461.51 83.5V91H459.703V80.4336H461.461L461.49 81.6543C462.083 80.7103 462.923 80.2383 464.01 80.2383C464.361 80.2383 464.628 80.2839 464.811 80.375V82.0547ZM465.807 85.6191C465.807 84.584 466.008 83.653 466.412 82.8262C466.822 81.9993 467.389 81.3613 468.111 80.9121C468.84 80.4629 469.671 80.2383 470.602 80.2383C472.04 80.2383 473.202 80.7363 474.088 81.7324C474.98 82.7285 475.426 84.0534 475.426 85.707V85.834C475.426 86.8626 475.227 87.7871 474.83 88.6074C474.439 89.4212 473.876 90.056 473.141 90.5117C472.411 90.9674 471.572 91.1953 470.621 91.1953C469.189 91.1953 468.027 90.6973 467.135 89.7012C466.249 88.7051 465.807 87.3867 465.807 85.7461V85.6191ZM467.623 85.834C467.623 87.0059 467.893 87.9466 468.434 88.6562C468.98 89.3659 469.71 89.7207 470.621 89.7207C471.539 89.7207 472.268 89.3626 472.809 88.6465C473.349 87.9238 473.619 86.9147 473.619 85.6191C473.619 84.4603 473.342 83.5228 472.789 82.8066C472.242 82.084 471.513 81.7227 470.602 81.7227C469.71 81.7227 468.99 82.0775 468.443 82.7871C467.896 83.4967 467.623 84.5124 467.623 85.834ZM477.213 85.6191C477.213 84.584 477.415 83.653 477.818 82.8262C478.229 81.9993 478.795 81.3613 479.518 80.9121C480.247 80.4629 481.077 80.2383 482.008 80.2383C483.447 80.2383 484.609 80.7363 485.494 81.7324C486.386 82.7285 486.832 84.0534 486.832 85.707V85.834C486.832 86.8626 486.633 87.7871 486.236 88.6074C485.846 89.4212 485.283 90.056 484.547 90.5117C483.818 90.9674 482.978 91.1953 482.027 91.1953C480.595 91.1953 479.433 90.6973 478.541 89.7012C477.656 88.7051 477.213 87.3867 477.213 85.7461V85.6191ZM479.029 85.834C479.029 87.0059 479.299 87.9466 479.84 88.6562C480.387 89.3659 481.116 89.7207 482.027 89.7207C482.945 89.7207 483.674 89.3626 484.215 88.6465C484.755 87.9238 485.025 86.9147 485.025 85.6191C485.025 84.4603 484.749 83.5228 484.195 82.8066C483.648 82.084 482.919 81.7227 482.008 81.7227C481.116 81.7227 480.396 82.0775 479.85 82.7871C479.303 83.4967 479.029 84.5124 479.029 85.834ZM490.797 80.4336L490.846 81.6055C491.62 80.694 492.665 80.2383 493.98 80.2383C495.458 80.2383 496.464 80.8047 496.998 81.9375C497.35 81.4297 497.805 81.0195 498.365 80.707C498.932 80.3945 499.599 80.2383 500.367 80.2383C502.685 80.2383 503.863 81.4655 503.902 83.9199V91H502.096V84.0273C502.096 83.2721 501.923 82.709 501.578 82.3379C501.233 81.9603 500.654 81.7715 499.84 81.7715C499.169 81.7715 498.613 81.9733 498.17 82.377C497.727 82.7741 497.47 83.3112 497.398 83.9883V91H495.582V84.0762C495.582 82.5397 494.83 81.7715 493.326 81.7715C492.141 81.7715 491.331 82.276 490.895 83.2852V91H489.088V80.4336H490.797ZM508.658 86.9863H507.027L506.9 76.7812H508.795L508.658 86.9863ZM506.832 90.0918C506.832 89.7988 506.92 89.5547 507.096 89.3594C507.278 89.1576 507.545 89.0566 507.896 89.0566C508.248 89.0566 508.515 89.1576 508.697 89.3594C508.88 89.5547 508.971 89.7988 508.971 90.0918C508.971 90.3848 508.88 90.6289 508.697 90.8242C508.515 91.013 508.248 91.1074 507.896 91.1074C507.545 91.1074 507.278 91.013 507.096 90.8242C506.92 90.6289 506.832 90.3848 506.832 90.0918ZM512.037 80.7852L511.012 80.082C511.617 79.2357 511.93 78.3438 511.949 77.4062V76H513.736V77.2695C513.73 77.9206 513.567 78.5716 513.248 79.2227C512.936 79.8672 512.532 80.388 512.037 80.7852ZM515.035 80.7852L514.01 80.082C514.615 79.2357 514.928 78.3438 514.947 77.4062V76H516.734V77.2695C516.728 77.9206 516.565 78.5716 516.246 79.2227C515.934 79.8672 515.53 80.388 515.035 80.7852Z" fill="black"/>
<path d="M421.391 122.553C421.391 122.001 421.197 121.566 420.81 121.247C420.422 120.924 419.714 120.618 418.684 120.331C417.654 120.039 416.902 119.723 416.428 119.381C415.753 118.898 415.416 118.264 415.416 117.48C415.416 116.719 415.728 116.102 416.353 115.628C416.981 115.149 417.784 114.91 418.759 114.91C419.42 114.91 420.01 115.038 420.529 115.293C421.053 115.548 421.459 115.904 421.746 116.359C422.033 116.815 422.177 117.323 422.177 117.884H421.329C421.329 117.205 421.097 116.66 420.632 116.25C420.167 115.835 419.543 115.628 418.759 115.628C417.998 115.628 417.392 115.799 416.94 116.141C416.489 116.478 416.264 116.92 416.264 117.467C416.264 117.973 416.466 118.385 416.872 118.704C417.278 119.023 417.927 119.306 418.82 119.552C419.714 119.793 420.39 120.046 420.851 120.311C421.311 120.57 421.657 120.882 421.89 121.247C422.122 121.612 422.238 122.042 422.238 122.539C422.238 123.323 421.924 123.952 421.295 124.426C420.671 124.9 419.846 125.137 418.82 125.137C418.118 125.137 417.474 125.011 416.886 124.761C416.302 124.51 415.858 124.159 415.553 123.708C415.252 123.257 415.102 122.74 415.102 122.156H415.942C415.942 122.858 416.204 123.412 416.729 123.817C417.253 124.223 417.95 124.426 418.82 124.426C419.595 124.426 420.217 124.255 420.687 123.913C421.156 123.571 421.391 123.118 421.391 122.553ZM428.623 124.063C428.131 124.779 427.345 125.137 426.265 125.137C425.476 125.137 424.877 124.909 424.467 124.453C424.057 123.993 423.847 123.314 423.838 122.416V117.604H424.651V122.313C424.651 123.722 425.221 124.426 426.36 124.426C427.545 124.426 428.295 123.936 428.609 122.956V117.604H429.43V125H428.637L428.623 124.063ZM434.427 125.137C433.798 125.137 433.228 124.982 432.718 124.672C432.212 124.362 431.818 123.931 431.535 123.38C431.253 122.824 431.111 122.202 431.111 121.514V121.22C431.111 120.509 431.248 119.868 431.521 119.299C431.799 118.729 432.185 118.283 432.677 117.959C433.169 117.631 433.702 117.467 434.276 117.467C435.174 117.467 435.885 117.774 436.409 118.39C436.938 119 437.202 119.837 437.202 120.898V121.356H431.925V121.514C431.925 122.352 432.164 123.052 432.643 123.612C433.126 124.168 433.732 124.446 434.461 124.446C434.898 124.446 435.284 124.367 435.616 124.207C435.953 124.048 436.259 123.792 436.532 123.441L437.045 123.831C436.443 124.701 435.571 125.137 434.427 125.137ZM434.276 118.164C433.661 118.164 433.142 118.39 432.718 118.841C432.299 119.292 432.043 119.898 431.952 120.659H436.389V120.57C436.366 119.859 436.163 119.281 435.78 118.834C435.397 118.387 434.896 118.164 434.276 118.164ZM423.168 140H422.327L416.605 131.482V140H415.758V130.047H416.605L422.334 138.571V130.047H423.168V140ZM428.37 140.137C427.741 140.137 427.172 139.982 426.661 139.672C426.155 139.362 425.761 138.931 425.479 138.38C425.196 137.824 425.055 137.202 425.055 136.514V136.22C425.055 135.509 425.191 134.868 425.465 134.299C425.743 133.729 426.128 133.283 426.62 132.959C427.112 132.631 427.646 132.467 428.22 132.467C429.118 132.467 429.828 132.774 430.353 133.39C430.881 134 431.146 134.837 431.146 135.898V136.356H425.868V136.514C425.868 137.352 426.107 138.052 426.586 138.612C427.069 139.168 427.675 139.446 428.404 139.446C428.842 139.446 429.227 139.367 429.56 139.207C429.897 139.048 430.202 138.792 430.476 138.441L430.988 138.831C430.387 139.701 429.514 140.137 428.37 140.137ZM428.22 133.164C427.604 133.164 427.085 133.39 426.661 133.841C426.242 134.292 425.987 134.898 425.896 135.659H430.332V135.57C430.309 134.859 430.106 134.281 429.724 133.834C429.341 133.387 428.84 133.164 428.22 133.164ZM434.509 138.298L434.632 138.934L434.796 138.264L436.573 132.604H437.271L439.027 138.216L439.219 138.995L439.376 138.277L440.894 132.604H441.741L439.588 140H438.891L436.99 134.135L436.901 133.731L436.812 134.142L434.946 140H434.249L432.103 132.604H432.943L434.509 138.298ZM452.521 137.553C452.521 137.001 452.328 136.566 451.94 136.247C451.553 135.924 450.844 135.618 449.814 135.331C448.785 135.039 448.033 134.723 447.559 134.381C446.884 133.898 446.547 133.264 446.547 132.48C446.547 131.719 446.859 131.102 447.483 130.628C448.112 130.149 448.914 129.91 449.89 129.91C450.55 129.91 451.141 130.038 451.66 130.293C452.184 130.548 452.59 130.904 452.877 131.359C453.164 131.815 453.308 132.323 453.308 132.884H452.46C452.46 132.205 452.228 131.66 451.763 131.25C451.298 130.835 450.674 130.628 449.89 130.628C449.129 130.628 448.522 130.799 448.071 131.141C447.62 131.478 447.395 131.92 447.395 132.467C447.395 132.973 447.597 133.385 448.003 133.704C448.409 134.023 449.058 134.306 449.951 134.552C450.844 134.793 451.521 135.046 451.981 135.311C452.442 135.57 452.788 135.882 453.021 136.247C453.253 136.612 453.369 137.042 453.369 137.539C453.369 138.323 453.055 138.952 452.426 139.426C451.801 139.9 450.977 140.137 449.951 140.137C449.249 140.137 448.604 140.011 448.017 139.761C447.433 139.51 446.989 139.159 446.684 138.708C446.383 138.257 446.232 137.74 446.232 137.156H447.073C447.073 137.858 447.335 138.412 447.859 138.817C448.383 139.223 449.081 139.426 449.951 139.426C450.726 139.426 451.348 139.255 451.817 138.913C452.287 138.571 452.521 138.118 452.521 137.553ZM456.268 130.71V132.604H457.799V133.273H456.268V138.202C456.268 138.612 456.34 138.918 456.486 139.118C456.637 139.319 456.885 139.419 457.231 139.419C457.368 139.419 457.589 139.396 457.895 139.351L457.929 140.021C457.715 140.098 457.423 140.137 457.054 140.137C456.493 140.137 456.085 139.975 455.83 139.651C455.575 139.323 455.447 138.842 455.447 138.209V133.273H454.087V132.604H455.447V130.71H456.268ZM464.252 139.063C463.76 139.779 462.974 140.137 461.894 140.137C461.105 140.137 460.506 139.909 460.096 139.453C459.686 138.993 459.476 138.314 459.467 137.416V132.604H460.28V137.313C460.28 138.722 460.85 139.426 461.989 139.426C463.174 139.426 463.924 138.936 464.238 137.956V132.604H465.059V140H464.266L464.252 139.063ZM466.863 136.233C466.863 135.085 467.118 134.171 467.629 133.492C468.144 132.809 468.841 132.467 469.721 132.467C470.719 132.467 471.48 132.861 472.004 133.649V129.5H472.817V140H472.052L472.018 139.016C471.493 139.763 470.723 140.137 469.707 140.137C468.855 140.137 468.167 139.795 467.643 139.111C467.123 138.423 466.863 137.496 466.863 136.329V136.233ZM467.69 136.377C467.69 137.32 467.88 138.065 468.258 138.612C468.636 139.155 469.169 139.426 469.857 139.426C470.865 139.426 471.58 138.981 472.004 138.093V134.62C471.58 133.659 470.869 133.178 469.871 133.178C469.183 133.178 468.647 133.449 468.265 133.991C467.882 134.529 467.69 135.324 467.69 136.377ZM477.835 140.137C477.206 140.137 476.636 139.982 476.126 139.672C475.62 139.362 475.226 138.931 474.943 138.38C474.661 137.824 474.52 137.202 474.52 136.514V136.22C474.52 135.509 474.656 134.868 474.93 134.299C475.208 133.729 475.593 133.283 476.085 132.959C476.577 132.631 477.11 132.467 477.685 132.467C478.582 132.467 479.293 132.774 479.817 133.39C480.346 134 480.61 134.837 480.61 135.898V136.356H475.333V136.514C475.333 137.352 475.572 138.052 476.051 138.612C476.534 139.168 477.14 139.446 477.869 139.446C478.307 139.446 478.692 139.367 479.024 139.207C479.362 139.048 479.667 138.792 479.94 138.441L480.453 138.831C479.852 139.701 478.979 140.137 477.835 140.137ZM477.685 133.164C477.069 133.164 476.55 133.39 476.126 133.841C475.707 134.292 475.451 134.898 475.36 135.659H479.797V135.57C479.774 134.859 479.571 134.281 479.188 133.834C478.806 133.387 478.304 133.164 477.685 133.164ZM482.982 132.604L483.01 133.868C483.288 133.412 483.634 133.066 484.049 132.829C484.464 132.588 484.922 132.467 485.423 132.467C486.216 132.467 486.806 132.69 487.193 133.137C487.581 133.583 487.777 134.253 487.781 135.146V140H486.968V135.14C486.963 134.479 486.822 133.987 486.544 133.663C486.271 133.34 485.831 133.178 485.225 133.178C484.719 133.178 484.27 133.337 483.878 133.656C483.491 133.971 483.203 134.397 483.017 134.935V140H482.203V132.604H482.982ZM491.172 130.71V132.604H492.703V133.273H491.172V138.202C491.172 138.612 491.245 138.918 491.391 139.118C491.541 139.319 491.789 139.419 492.136 139.419C492.272 139.419 492.493 139.396 492.799 139.351L492.833 140.021C492.619 140.098 492.327 140.137 491.958 140.137C491.397 140.137 490.99 139.975 490.734 139.651C490.479 139.323 490.352 138.842 490.352 138.209V133.273H488.991V132.604H490.352V130.71H491.172Z" fill="black"/>
<circle cx="260.5" cy="66.5" r="66.5" fill="#F5F5F5"/>
<path d="M230.5 107.5C228.1 109.9 226.167 114.833 225.5 117L224 121.5L230 125.5L237 128.5L243.5 130.5L250.5 132L257.5 132.5H265L273 131.5L281 129.5L288 127L293.5 124L297 122L300.5 119L299.5 114C298.833 112.5 297.1 109.1 295.5 107.5C293.9 105.9 290.833 104.5 289.5 104H238C236.5 104.167 232.9 105.1 230.5 107.5Z" fill="#E5E5E5" stroke="#E5E5E5"/>
<path d="M281.5 47.88L285.671 75.8866C285.671 87.8162 276.001 97.4866 264.071 97.4866H259.628C247.698 97.4866 238.028 87.8162 238.028 75.8866L241 51.12" fill="#DB9C7B"/>
<path d="M281.5 47.88L285.671 75.8866C285.671 87.8162 276.001 97.4866 264.071 97.4866H259.628C247.698 97.4866 238.028 87.8162 238.028 75.8866L241 51.12" stroke="#DB9C7B" stroke-width="2" stroke-miterlimit="10" stroke-linecap="round" stroke-linejoin="round"/>
<path d="M253.5 104V96.5L258 94.5L274 96.5V103C274.167 103.667 274.2 105.7 273 108.5C271.8 111.3 269.833 112.333 269 112.5C267.667 113.333 263.9 114.6 259.5 113C255.1 111.4 253.667 106.333 253.5 104Z" fill="#DB9C7B" stroke="#DB9C7B"/>
<path d="M238 75C236.4 78.2 233.333 79 232 79L230 65.5C229.333 59.6667 228.2 53.2 229 48C229.8 42.8 232.5 39.3333 233.5 37C235.5 34 240.6 27.4 245 25C249.4 22.6 255.5 22 258 22C260.333 22 266.2 22.2 271 23C277 24 283.5 28.5 287.5 32C290.7 34.8 293.666 41 295 45C295.5 48.8333 296.5 50.8 296.5 54C296.5 58 293.5 73.5 293.5 75.5C293.5 77.1 292.5 77.1667 292 77C290.833 76.8333 288.1 76.3 286.5 75.5C284.5 74.5 281 71 279.5 68.5C278.3 66.5 275.666 60.6667 274.5 58L274 60L274.5 63L276 66.5C276.833 67.8333 277.8 70.3 275 69.5C271.5 68.5 270 68 267 66.5C264.6 65.3 261 61.3333 259.5 59.5C260 61 261.3 64.3 262.5 65.5C263.7 66.7 262.333 67.3333 261.5 67.5L258 67C256.5 66.5 252.7 65 249.5 63C246.3 61 243.5 56.1667 242.5 54C242.666 56.6667 242.7 62.9 241.5 66.5C240 71 240 71 238 75Z" fill="black" stroke="black"/>
</svg>
