<svg width="73" height="73" viewBox="0 0 73 73" fill="none" xmlns="http://www.w3.org/2000/svg">
<path d="M36.5 73C26.7505 73 17.5846 69.2034 10.6906 62.3094C3.79665 55.4154 0 46.2494 0 36.5C0 26.7505 3.79665 17.5844 10.6906 10.6906C17.5846 3.79665 26.7505 0 36.5 0C46.2495 0 55.4154 3.79665 62.3095 10.6906C69.2034 17.5844 73 26.7505 73 36.5C73 46.2494 69.2034 55.4154 62.3095 62.3094C55.4154 69.2034 46.2495 73 36.5 73ZM36.5 1.93805C17.4425 1.93805 1.93805 17.4425 1.93805 36.5C1.93805 55.5575 17.4425 71.0619 36.5 71.0619C55.5575 71.0619 71.0619 55.5575 71.0619 36.5C71.0619 17.4425 55.5575 1.93805 36.5 1.93805Z" fill="#539CFF"/>
<path d="M41.4556 19.3193C40.9966 20.1728 40.3168 20.8856 39.4882 21.3821C38.6596 21.8786 37.713 22.1403 36.7487 22.1397C35.7844 22.1391 34.8381 21.876 34.0102 21.3784C33.1823 20.8808 32.5034 20.1671 32.0455 19.313C29.13 20.2928 26.5755 22.1342 24.7151 24.5968C22.8548 27.0595 21.775 30.0292 21.6165 33.1187C21.5067 35.4356 21.9338 37.7464 22.864 39.8686C23.7942 41.9907 25.202 43.8661 26.9763 45.3465C29.2218 47.1905 30.7429 49.7778 31.2682 52.6463H35.8614V50.9786C35.8625 50.5348 35.7543 50.0977 35.5465 49.7063C35.3387 49.3149 35.0377 48.9814 34.6706 48.7358L27.0449 43.6222C26.4661 43.2347 25.9915 42.7091 25.6635 42.0922C25.3355 41.4753 25.1643 40.7863 25.165 40.0867C25.1673 39.0365 25.5356 38.0205 26.2057 37.2156C26.8758 36.4107 27.8052 35.8679 28.8321 35.6818C29.0111 34.901 29.4456 34.2034 30.0658 33.701C30.6859 33.1985 31.4558 32.9203 32.2519 32.911C33.048 32.9016 33.8242 33.1618 34.4558 33.6496C35.0874 34.1374 35.5378 34.8247 35.7349 35.6011H37.7707C37.9877 34.7554 38.5036 34.0184 39.2219 33.5282C39.9401 33.038 40.8114 32.8283 41.6722 32.9383C42.5331 33.0484 43.3246 33.4706 43.8983 34.126C44.472 34.7813 44.7885 35.6248 44.7885 36.4982C44.7885 37.3716 44.472 38.215 43.8983 38.8704C43.3246 39.5257 42.5331 39.948 41.6722 40.0581C40.8114 40.1681 39.9401 39.9584 39.2219 39.4682C38.5036 38.978 37.9877 38.241 37.7707 37.3953H35.7349C35.5437 38.155 35.1094 38.8302 34.499 39.3167C33.8886 39.8032 33.136 40.0739 32.3574 40.0869C31.5789 40.1 30.8178 39.8547 30.1915 39.389C29.5653 38.9233 29.1089 38.263 28.8927 37.5101C28.3348 37.6693 27.8434 38.0066 27.4925 38.4714C27.1417 38.9361 26.9505 39.503 26.9478 40.0867C26.9473 40.4909 27.0464 40.889 27.2359 41.2455C27.4255 41.6019 27.6998 41.9056 28.0343 42.1294L35.6591 47.243C36.2706 47.6524 36.7719 48.2078 37.1182 48.8596C37.4646 49.5114 37.6453 50.2394 37.6442 50.9786V52.6463H42.2392C42.7744 49.7703 44.3044 47.1781 46.5578 45.3294C48.232 43.919 49.5785 42.1563 50.5025 40.1655C51.4265 38.1747 51.9056 36.0042 51.906 33.8068C51.9028 30.5918 50.8906 27.46 49.0139 24.8583C47.1372 22.2567 44.492 20.3181 41.4556 19.3193ZM25.887 31.3137C25.703 32.1318 25.6103 32.968 25.6107 33.8068C25.6107 34.0448 25.5168 34.2729 25.3496 34.4412C25.1825 34.6094 24.9557 34.7039 24.7193 34.7039C24.4829 34.7039 24.2562 34.6094 24.089 34.4412C23.9219 34.2729 23.828 34.0448 23.828 33.8068C23.8278 32.8347 23.9351 31.8655 24.148 30.9172C24.2002 30.6851 24.3419 30.4834 24.5419 30.3565C24.742 30.2295 24.9839 30.1878 25.2145 30.2403C25.4451 30.2929 25.6455 30.4355 25.7716 30.6369C25.8978 30.8382 25.9393 31.0816 25.887 31.3137ZM30.9767 24.2157C29.2201 25.2886 27.7914 26.8283 26.8479 28.6654C26.7356 28.8699 26.5486 29.0222 26.3264 29.09C26.1043 29.1578 25.8647 29.1357 25.6585 29.0284C25.4523 28.9212 25.2958 28.7372 25.2223 28.5156C25.1488 28.294 25.1641 28.0523 25.2648 27.8419C26.3583 25.7121 28.0139 23.927 30.0497 22.6826C30.2517 22.5588 30.4943 22.5209 30.7241 22.5772C30.9538 22.6335 31.152 22.7793 31.2749 22.9826C31.3978 23.186 31.4355 23.4301 31.3796 23.6613C31.3236 23.8926 31.1787 24.092 30.9767 24.2157ZM40.8531 43.1961C39.6683 44.0844 38.2302 42.635 36.7528 42.635C35.2753 42.635 33.8373 44.0844 32.6525 43.1961C32.4634 43.0533 32.3383 42.8408 32.3049 42.6052C32.2715 42.3697 32.3324 42.1304 32.4742 41.9401C32.6161 41.7498 32.8272 41.6239 33.0613 41.5903C33.2953 41.5566 33.533 41.6179 33.7221 41.7607C34.5984 42.4161 35.6611 41.0748 36.7528 41.0748C37.8445 41.0748 38.9072 42.4161 39.7834 41.7607C39.9726 41.6179 40.2103 41.5566 40.4443 41.5903C40.6784 41.6239 40.8895 41.7498 41.0314 41.9401C41.1732 42.1304 41.2341 42.3697 41.2007 42.6052C41.1672 42.8408 41.0422 43.0533 40.8531 43.1961Z" fill="#539CFF"/>
<path d="M42.1007 54.4407H31.4043V56.2349H42.1007V54.4407Z" fill="#539CFF"/>
<path d="M35.8618 61.6175H37.6446C38.6717 61.6164 39.6669 61.2588 40.4626 60.6051C41.2582 59.9514 41.8055 59.0416 42.0123 58.0291H31.4941C31.7009 59.0416 32.2482 59.9514 33.0438 60.6051C33.8395 61.2588 34.8348 61.6164 35.8618 61.6175V61.6175Z" fill="#539CFF"/>
<path d="M32.2945 38.2926C33.279 38.2926 34.0772 37.4893 34.0772 36.4983C34.0772 35.5074 33.279 34.7041 32.2945 34.7041C31.3099 34.7041 30.5117 35.5074 30.5117 36.4983C30.5117 37.4893 31.3099 38.2926 32.2945 38.2926Z" fill="#539CFF"/>
<path d="M36.354 19.3632L33.3652 17.8516C33.3715 17.8731 33.3741 17.8955 33.3813 17.9162C33.62 18.6255 34.0733 19.242 34.6777 19.679C35.282 20.1161 36.007 20.3519 36.7512 20.3534C37.4954 20.3548 38.2214 20.1219 38.8274 19.6873C39.4334 19.2526 39.8892 18.638 40.1307 17.9296C40.1396 17.9045 40.1423 17.8776 40.1503 17.8516L37.1553 19.3587C37.0316 19.4209 36.8952 19.4533 36.7569 19.4533C36.6186 19.4533 36.4822 19.4209 36.3584 19.3587L36.354 19.3632Z" fill="#539CFF"/>
<path d="M41.2085 38.2926C42.1931 38.2926 42.9913 37.4893 42.9913 36.4983C42.9913 35.5074 42.1931 34.7041 41.2085 34.7041C40.2239 34.7041 39.4258 35.5074 39.4258 36.4983C39.4258 37.4893 40.2239 38.2926 41.2085 38.2926Z" fill="#539CFF"/>
<path d="M42.0629 14.8804L36.7522 11.5396L31.4414 14.8804L36.7522 17.5529L42.0629 14.8804Z" fill="#539CFF"/>
<path d="M55.6857 24.7748C55.163 23.6664 54.545 22.6062 53.8388 21.6062L52.3867 22.646C53.0334 23.5607 53.6001 24.5303 54.0803 25.5437L55.6857 24.7748Z" fill="#539CFF"/>
<path d="M17.6498 32.2155L15.8733 32.0684C15.827 32.6344 15.8047 33.2113 15.8047 33.7837C15.8047 34.4314 15.8341 35.0899 15.8938 35.7331L15.9027 35.8273L17.6694 35.577C17.6151 34.9804 17.5883 34.3766 17.5883 33.7828C17.5883 33.2597 17.6079 32.7304 17.6498 32.2155Z" fill="#539CFF"/>
<path d="M17.8359 42.8758C18.3608 43.9829 18.9806 45.042 19.6882 46.0408L21.1393 44.9984C20.4921 44.0852 19.9254 43.1168 19.4457 42.1042L17.8359 42.8758Z" fill="#539CFF"/>
<path d="M20.9993 22.8226L19.5339 21.8008C18.8399 22.809 18.2339 23.8757 17.7227 24.9891L19.3414 25.7409C19.8094 24.7219 20.3641 23.7454 20.9993 22.8226V22.8226Z" fill="#539CFF"/>
<path d="M52.5312 44.76L53.9984 45.78C54.6907 44.7705 55.2946 43.7025 55.8035 42.588L54.1838 41.8398C53.7177 42.8594 53.1648 43.8364 52.5312 44.76V44.76Z" fill="#539CFF"/>
<path d="M57.6085 31.8906L57.6023 31.8269L55.832 32.0368C55.8864 32.6334 55.9131 33.2372 55.9131 33.8311C55.9131 34.3406 55.8935 34.8556 55.8534 35.3624L57.6308 35.5051C57.6745 34.9507 57.6959 34.3873 57.6959 33.8311C57.6977 33.1789 57.6691 32.524 57.6085 31.8906Z" fill="#539CFF"/>
</svg>
