<svg width="252" height="252" viewBox="0 0 252 252" fill="none" xmlns="http://www.w3.org/2000/svg">
<circle cx="124.517" cy="212.512" r="7.6582" fill="white"/>
<rect x="116.582" y="42.3315" width="15.3555" height="1.75899" rx="0.879493" fill="white"/>
<circle cx="124.225" cy="35.5809" r="1.99669" fill="white"/>
<path fill-rule="evenodd" clip-rule="evenodd" d="M0 0H251.704V251.704H0V0ZM77 41C77 32.7157 83.7158 26 92 26H156.552C164.836 26 171.552 32.7157 171.552 41V211.785C171.552 220.07 164.836 226.785 156.552 226.785H92C83.7158 226.785 77 220.07 77 211.785V41Z" fill="white"/>
<path fill-rule="evenodd" clip-rule="evenodd" d="M165.039 53.7128H83.9949V198.676H165.039V53.7128ZM131.221 125.538C131.221 125.538 148.441 97.5024 148.441 88.429C148.441 79.3555 140.732 72 131.221 72C121.71 72 114 79.3555 114 88.429C114 97.5024 131.221 125.538 131.221 125.538Z" fill="white"/>
<circle cx="131.221" cy="88.0259" r="10.7429" fill="white"/>
</svg>
