<svg width="291" height="291" viewBox="0 0 291 291" fill="none" xmlns="http://www.w3.org/2000/svg">
<path d="M145.5 291C106.635 291 70.0975 275.865 42.616 248.384C15.1346 220.902 0 184.364 0 145.5C0 106.635 15.1346 70.0969 42.616 42.616C70.0975 15.1346 106.635 0 145.5 0C184.365 0 220.902 15.1346 248.385 42.616C275.865 70.0969 291 106.635 291 145.5C291 184.364 275.865 220.902 248.385 248.384C220.902 275.865 184.365 291 145.5 291ZM145.5 7.72566C69.531 7.72566 7.72566 69.531 7.72566 145.5C7.72566 221.469 69.531 283.274 145.5 283.274C221.469 283.274 283.274 221.469 283.274 145.5C283.274 69.531 221.469 7.72566 145.5 7.72566Z" fill="#539CFF"/>
<path d="M177.058 78.7378C176.794 77.8553 176.383 77.0023 175.855 76.2375C174.712 74.5609 172.981 73.3549 171.016 72.8254C170.283 72.6195 169.521 72.5313 168.758 72.5313H163.684V71.7959C163.567 61.9714 155.502 54 145.707 54H145.443C140.457 54 135.97 56.0002 132.686 59.2064C129.43 62.442 127.377 66.8836 127.319 71.7959V72.5313H122.245C121.483 72.5313 120.72 72.6195 119.987 72.8254C118.022 73.3549 116.292 74.5609 115.148 76.2375C114.62 77.0023 114.21 77.8553 113.946 78.7378C113.799 79.2378 113.682 79.7967 113.652 80.3556V90.3566C113.682 90.9449 113.799 91.4743 113.946 91.9744C114.972 95.5924 118.198 98.0926 121.923 98.2397H169.022C172.805 98.0926 176.031 95.5924 177.058 91.9744C177.204 91.4743 177.322 90.9449 177.351 90.4154V80.2967C177.322 79.7967 177.204 79.2672 177.058 78.7378ZM155.15 72.5313H135.853V71.7665C136 66.6777 140.223 62.5597 145.296 62.5597H145.707C150.781 62.5597 155.004 66.6777 155.15 71.7665V72.5313Z" fill="#539CFF"/>
<path d="M212.971 195.446L212.962 193.785C212.95 189.861 212.936 185.807 212.939 181.827C212.942 172.5 212.939 163.17 212.936 153.842V149.048C212.933 134.573 212.927 119.607 212.95 104.923C212.965 93.9628 208.396 85.912 199.369 80.9939C196.263 79.3113 192.762 78.5524 188.014 78.5377L185.55 78.5348V90.0654L186.101 90.0683C187.662 90.083 188.996 90.1242 190.181 90.2007C196.255 90.5919 201.448 95.763 201.762 101.731C202.061 107.547 202.053 113.65 202.041 119.036C202.038 120.224 202.038 121.416 202.038 122.604C202.053 142.703 202.053 162.802 202.053 182.898C202.053 196.92 202.053 196.079 202.055 210.101C202.055 213.292 202.055 216.593 200.536 219.44C197.906 224.355 194.131 226.747 188.987 226.747C182.037 226.747 175.086 226.747 168.139 226.744L147.287 226.741H145.501H143.715L122.863 226.744C115.916 226.747 108.965 226.747 102.015 226.747C96.8707 226.747 93.0962 224.358 90.4656 219.44C88.9464 216.593 88.9464 213.292 88.9464 210.101C88.9494 196.079 88.9494 196.92 88.9494 182.898C88.9494 162.802 88.9494 142.706 88.964 122.604C88.964 121.416 88.964 120.224 88.9611 119.036C88.9494 113.647 88.9377 107.547 89.2397 101.731C89.5535 95.763 94.7503 90.5889 100.821 90.2007C102.006 90.1212 103.34 90.083 104.9 90.0683L105.452 90.0654V78.5348L102.988 78.5377C98.2373 78.5524 94.7386 79.3113 91.6328 80.9939C82.603 85.9091 78.0367 93.9628 78.0514 104.923C78.0749 119.604 78.069 134.573 78.0661 149.048V153.842C78.0631 163.17 78.0573 172.5 78.0631 181.827C78.0661 185.807 78.0514 189.861 78.0397 193.785L78.0309 195.446C77.9898 206.674 77.9488 203.418 78.198 214.934C78.3359 221.081 80.8727 226.911 85.3451 231.35C89.8527 235.824 95.7416 238.292 101.93 238.292H102.026C115.212 238.233 128.069 238.23 141.175 238.23H145.501H149.83C162.933 238.23 175.79 238.233 188.978 238.292H189.075C195.263 238.292 201.149 235.824 205.66 231.35C210.132 226.908 212.669 221.078 212.807 214.934C213.05 203.418 213.009 206.674 212.971 195.446Z" fill="#539CFF"/>
<path d="M180.274 194.644C182.227 196.626 184.107 198.509 185.961 200.421C188.146 202.677 187.453 206.004 184.594 207.033C182.955 207.624 181.614 207.057 180.418 205.927C178.491 204.103 176.555 202.286 174.5 200.353C172.505 202.368 170.637 204.259 168.766 206.145C167.608 207.313 166.262 207.901 164.616 207.363C161.795 206.439 160.953 203.174 163.006 200.897C164.414 199.338 165.927 197.87 167.443 196.417C167.889 195.991 168.825 195.144 168.757 195.076C166.476 192.829 164.751 191.161 162.945 189.328C161.209 187.572 161.153 185.131 162.751 183.557C164.341 181.992 166.564 181.975 168.37 183.731C170.276 185.584 172.021 187.605 173.969 189.696C176.368 187.29 178.271 185.281 180.283 183.39C182.72 181.098 186.057 182.075 186.908 185.284C187.318 186.831 186.615 188.043 185.582 189.102C183.878 190.852 182.157 192.588 180.447 194.332C180.368 194.411 180.336 194.529 180.274 194.644Z" fill="#539CFF"/>
<path d="M180.274 124.751C182.227 126.734 184.107 128.616 185.961 130.528C188.146 132.784 187.453 136.111 184.594 137.141C182.955 137.732 181.614 137.164 180.418 136.035C178.491 134.211 176.555 132.393 174.5 130.461C172.505 132.475 170.637 134.367 168.766 136.252C167.608 137.42 166.262 138.008 164.616 137.47C161.795 136.546 160.953 133.281 163.006 131.005C164.414 129.446 165.927 127.978 167.443 126.525C167.889 126.098 168.825 125.251 168.757 125.184C166.476 122.936 164.751 121.268 162.945 119.436C161.209 117.68 161.153 115.238 162.751 113.665C164.341 112.1 166.564 112.082 168.37 113.838C170.276 115.691 172.021 117.712 173.969 119.804C176.368 117.397 178.271 115.388 180.283 113.497C182.72 111.206 186.057 112.182 186.908 115.391C187.318 116.939 186.615 118.15 185.582 119.209C183.878 120.96 182.157 122.695 180.447 124.439C180.368 124.519 180.336 124.636 180.274 124.751Z" fill="#539CFF"/>
<path d="M188.426 147.468C188.344 147.468 188.262 147.474 188.2 147.483C187.837 147.524 187.543 147.665 187.329 147.777L186.426 148.256C185.88 148.554 185.235 148.912 184.587 149.339C180.285 152.204 176.2 155.448 172.246 158.587L172.006 158.778C171.053 159.534 170.091 160.311 169.158 161.07L168.598 161.522L167.574 160.667C166.434 159.708 165.143 158.622 163.829 157.59C163.035 156.966 162.137 156.546 161.363 156.213C160.539 155.869 159.677 156.04 159.196 156.64C158.835 157.084 158.718 157.702 158.864 158.378C158.973 158.869 159.111 159.449 159.339 160.011C160.586 163.058 162.325 166.129 164.809 169.679C165.659 170.891 166.956 171.588 168.366 171.588C169.531 171.588 170.66 171.109 171.542 170.238C172.32 169.476 173.117 168.67 173.918 167.844C176.528 165.138 179.558 161.978 182.452 158.708C183.303 157.752 184.141 156.787 184.983 155.822C185.608 155.107 186.229 154.392 186.857 153.681L187.001 153.519C189.139 151.154 190.101 149.589 190.027 148.589C189.995 148.168 189.746 147.468 188.426 147.468Z" fill="#539CFF"/>
<path d="M151.034 120.545H102.791V129.369H151.034V120.545Z" fill="#539CFF"/>
<path d="M151.034 155.116H102.791V163.941H151.034V155.116Z" fill="#539CFF"/>
<path d="M151.034 190.437H102.791V199.262H151.034V190.437Z" fill="#539CFF"/>
</svg>
