<svg width="242" height="93" viewBox="0 0 242 93" fill="none" xmlns="http://www.w3.org/2000/svg">
<path d="M4.8125 22.875H16.0469V24.5H2.875V1.75H4.8125V22.875ZM18.2812 15.7969C18.2812 14.1719 18.5938 12.7083 19.2188 11.4062C19.8542 10.1042 20.7448 9.09375 21.8906 8.375C23.0469 7.64583 24.3542 7.28125 25.8125 7.28125C28.0625 7.28125 29.8854 8.07292 31.2812 9.65625C32.6771 11.2292 33.375 13.3177 33.375 15.9219V16.3125C33.375 17.9479 33.0573 19.4219 32.4219 20.7344C31.7969 22.0365 30.9115 23.0417 29.7656 23.75C28.6198 24.4583 27.3125 24.8125 25.8438 24.8125C23.6042 24.8125 21.7812 24.026 20.375 22.4531C18.9792 20.8698 18.2812 18.776 18.2812 16.1719V15.7969ZM20.1562 16.3125C20.1562 18.3333 20.6771 19.9948 21.7188 21.2969C22.7708 22.5885 24.1458 23.2344 25.8438 23.2344C27.5312 23.2344 28.8958 22.5885 29.9375 21.2969C30.9896 19.9948 31.5156 18.2812 31.5156 16.1562V15.7969C31.5156 14.5052 31.276 13.3229 30.7969 12.25C30.3177 11.1771 29.6458 10.349 28.7812 9.76562C27.9167 9.17188 26.9271 8.875 25.8125 8.875C24.1458 8.875 22.7865 9.53125 21.7344 10.8438C20.6823 12.1458 20.1562 13.8542 20.1562 15.9688V16.3125ZM43.5 23.2344C44.8021 23.2344 45.8906 22.8698 46.7656 22.1406C47.651 21.401 48.1302 20.4479 48.2031 19.2812H50C49.9479 20.3125 49.625 21.2552 49.0312 22.1094C48.4375 22.9531 47.6458 23.6146 46.6562 24.0938C45.6771 24.5729 44.625 24.8125 43.5 24.8125C41.2812 24.8125 39.5208 24.0417 38.2188 22.5C36.9271 20.9583 36.2812 18.8854 36.2812 16.2812V15.7188C36.2812 14.0521 36.5729 12.5781 37.1562 11.2969C37.7396 10.0156 38.5729 9.02604 39.6562 8.32812C40.75 7.63021 42.026 7.28125 43.4844 7.28125C45.3385 7.28125 46.8646 7.83333 48.0625 8.9375C49.2708 10.0417 49.9167 11.4948 50 13.2969H48.2031C48.1198 11.974 47.6406 10.9062 46.7656 10.0938C45.901 9.28125 44.8073 8.875 43.4844 8.875C41.7969 8.875 40.4844 9.48438 39.5469 10.7031C38.6198 11.9219 38.1562 13.6302 38.1562 15.8281V16.375C38.1562 18.5312 38.6198 20.2135 39.5469 21.4219C40.4844 22.6302 41.8021 23.2344 43.5 23.2344ZM64.4219 24.5C64.2344 23.9688 64.1146 23.1823 64.0625 22.1406C63.4062 22.9948 62.5677 23.6562 61.5469 24.125C60.5365 24.5833 59.4635 24.8125 58.3281 24.8125C56.7031 24.8125 55.3854 24.3594 54.375 23.4531C53.375 22.5469 52.875 21.401 52.875 20.0156C52.875 18.3698 53.5573 17.0677 54.9219 16.1094C56.2969 15.151 58.2083 14.6719 60.6562 14.6719H64.0469V12.75C64.0469 11.5417 63.6719 10.5938 62.9219 9.90625C62.1823 9.20833 61.099 8.85938 59.6719 8.85938C58.3698 8.85938 57.2917 9.19271 56.4375 9.85938C55.5833 10.526 55.1562 11.3281 55.1562 12.2656L53.2812 12.25C53.2812 10.9062 53.9062 9.74479 55.1562 8.76562C56.4062 7.77604 57.9427 7.28125 59.7656 7.28125C61.651 7.28125 63.1354 7.75521 64.2188 8.70312C65.3125 9.64062 65.875 10.9531 65.9062 12.6406V20.6406C65.9062 22.276 66.0781 23.5 66.4219 24.3125V24.5H64.4219ZM58.5469 23.1562C59.7969 23.1562 60.9115 22.8542 61.8906 22.25C62.8802 21.6458 63.599 20.8385 64.0469 19.8281V16.1094H60.7031C58.8385 16.1302 57.3802 16.474 56.3281 17.1406C55.276 17.7969 54.75 18.7031 54.75 19.8594C54.75 20.8073 55.099 21.5938 55.7969 22.2188C56.5052 22.8438 57.4219 23.1562 58.5469 23.1562ZM73.8125 3.26562V7.59375H77.3125V9.125H73.8125V20.3906C73.8125 21.3281 73.9792 22.026 74.3125 22.4844C74.6562 22.9427 75.224 23.1719 76.0156 23.1719C76.3281 23.1719 76.8333 23.1198 77.5312 23.0156L77.6094 24.5469C77.1198 24.724 76.4531 24.8125 75.6094 24.8125C74.3281 24.8125 73.3958 24.4427 72.8125 23.7031C72.2292 22.9531 71.9375 21.8542 71.9375 20.4062V9.125H68.8281V7.59375H71.9375V3.26562H73.8125ZM83.2812 24.5H81.4062V7.59375H83.2812V24.5ZM81.0781 2.70312C81.0781 2.34896 81.1927 2.05208 81.4219 1.8125C81.651 1.5625 81.9635 1.4375 82.3594 1.4375C82.7552 1.4375 83.0677 1.5625 83.2969 1.8125C83.5365 2.05208 83.6562 2.34896 83.6562 2.70312C83.6562 3.05729 83.5365 3.35417 83.2969 3.59375C83.0677 3.83333 82.7552 3.95312 82.3594 3.95312C81.9635 3.95312 81.651 3.83333 81.4219 3.59375C81.1927 3.35417 81.0781 3.05729 81.0781 2.70312ZM89.7188 24.5V9.125H86.9219V7.59375H89.7188V5.54688C89.7188 3.81771 90.1562 2.48958 91.0312 1.5625C91.9167 0.635417 93.1458 0.171875 94.7188 0.171875C95.4271 0.171875 96.0885 0.260417 96.7031 0.4375L96.5625 2C96.0417 1.875 95.474 1.8125 94.8594 1.8125C93.8281 1.8125 93.026 2.13542 92.4531 2.78125C91.8802 3.41667 91.5938 4.32292 91.5938 5.5V7.59375H95.625V9.125H91.5938V24.5H89.7188ZM104.328 21.8125L109.266 7.59375H111.281L104.062 27.375L103.688 28.25C102.76 30.3021 101.328 31.3281 99.3906 31.3281C98.9427 31.3281 98.4635 31.2552 97.9531 31.1094L97.9375 29.5625L98.9062 29.6562C99.8229 29.6562 100.562 29.4271 101.125 28.9688C101.698 28.5208 102.182 27.7448 102.578 26.6406L103.406 24.3594L97.0312 7.59375H99.0781L104.328 21.8125ZM15.1562 52.125H4.82812L2.48438 58.5H0.46875L9.07812 35.75H10.9062L19.5156 58.5H17.5156L15.1562 52.125ZM5.42188 50.4844H14.5469L9.98438 38.0938L5.42188 50.4844ZM31.375 49.0312H24.7656V58.5H22.8281V35.75H30.2188C32.6458 35.75 34.5417 36.3385 35.9062 37.5156C37.2708 38.6927 37.9531 40.3385 37.9531 42.4531C37.9531 43.9115 37.526 45.1979 36.6719 46.3125C35.8177 47.4271 34.6719 48.1979 33.2344 48.625L38.9219 58.2969V58.5H36.875L31.375 49.0312ZM24.7656 47.3906H30.6562C32.2708 47.3906 33.5677 46.9323 34.5469 46.0156C35.526 45.099 36.0156 43.9115 36.0156 42.4531C36.0156 40.849 35.5052 39.6042 34.4844 38.7188C33.4635 37.8333 32.0312 37.3906 30.1875 37.3906H24.7656V47.3906ZM61.2031 58.5C61.0156 57.9688 60.8958 57.1823 60.8438 56.1406C60.1875 56.9948 59.349 57.6562 58.3281 58.125C57.3177 58.5833 56.2448 58.8125 55.1094 58.8125C53.4844 58.8125 52.1667 58.3594 51.1562 57.4531C50.1562 56.5469 49.6562 55.401 49.6562 54.0156C49.6562 52.3698 50.3385 51.0677 51.7031 50.1094C53.0781 49.151 54.9896 48.6719 57.4375 48.6719H60.8281V46.75C60.8281 45.5417 60.4531 44.5938 59.7031 43.9062C58.9635 43.2083 57.8802 42.8594 56.4531 42.8594C55.151 42.8594 54.0729 43.1927 53.2188 43.8594C52.3646 44.526 51.9375 45.3281 51.9375 46.2656L50.0625 46.25C50.0625 44.9062 50.6875 43.7448 51.9375 42.7656C53.1875 41.776 54.724 41.2812 56.5469 41.2812C58.4323 41.2812 59.9167 41.7552 61 42.7031C62.0938 43.6406 62.6562 44.9531 62.6875 46.6406V54.6406C62.6875 56.276 62.8594 57.5 63.2031 58.3125V58.5H61.2031ZM55.3281 57.1562C56.5781 57.1562 57.6927 56.8542 58.6719 56.25C59.6615 55.6458 60.3802 54.8385 60.8281 53.8281V50.1094H57.4844C55.6198 50.1302 54.1615 50.474 53.1094 51.1406C52.0573 51.7969 51.5312 52.7031 51.5312 53.8594C51.5312 54.8073 51.8802 55.5938 52.5781 56.2188C53.2865 56.8438 54.2031 57.1562 55.3281 57.1562ZM81.2812 50.2188C81.2812 52.8542 80.6979 54.9479 79.5312 56.5C78.3646 58.0417 76.8021 58.8125 74.8438 58.8125C72.5312 58.8125 70.7604 58 69.5312 56.375V65H67.6719V41.5938H69.4062L69.5 43.9844C70.7188 42.1823 72.4844 41.2812 74.7969 41.2812C76.8177 41.2812 78.401 42.0469 79.5469 43.5781C80.7031 45.1094 81.2812 47.2344 81.2812 49.9531V50.2188ZM79.4062 49.8906C79.4062 47.7344 78.9635 46.0312 78.0781 44.7812C77.1927 43.5312 75.9583 42.9062 74.375 42.9062C73.2292 42.9062 72.2448 43.1823 71.4219 43.7344C70.599 44.2865 69.9688 45.0885 69.5312 46.1406V54.25C69.9792 55.2188 70.6198 55.9583 71.4531 56.4688C72.2865 56.9792 73.2708 57.2344 74.4062 57.2344C75.9792 57.2344 77.2031 56.6094 78.0781 55.3594C78.9635 54.099 79.4062 52.276 79.4062 49.8906ZM99.0312 50.2188C99.0312 52.8542 98.4479 54.9479 97.2812 56.5C96.1146 58.0417 94.5521 58.8125 92.5938 58.8125C90.2812 58.8125 88.5104 58 87.2812 56.375V65H85.4219V41.5938H87.1562L87.25 43.9844C88.4688 42.1823 90.2344 41.2812 92.5469 41.2812C94.5677 41.2812 96.151 42.0469 97.2969 43.5781C98.4531 45.1094 99.0312 47.2344 99.0312 49.9531V50.2188ZM97.1562 49.8906C97.1562 47.7344 96.7135 46.0312 95.8281 44.7812C94.9427 43.5312 93.7083 42.9062 92.125 42.9062C90.9792 42.9062 89.9948 43.1823 89.1719 43.7344C88.349 44.2865 87.7188 45.0885 87.2812 46.1406V54.25C87.7292 55.2188 88.3698 55.9583 89.2031 56.4688C90.0365 56.9792 91.0208 57.2344 92.1562 57.2344C93.7292 57.2344 94.9531 56.6094 95.8281 55.3594C96.7135 54.099 97.1562 52.276 97.1562 49.8906ZM124.562 50.2188C124.562 52.8542 123.979 54.9479 122.812 56.5C121.646 58.0417 120.083 58.8125 118.125 58.8125C115.812 58.8125 114.042 58 112.812 56.375V65H110.953V41.5938H112.688L112.781 43.9844C114 42.1823 115.766 41.2812 118.078 41.2812C120.099 41.2812 121.682 42.0469 122.828 43.5781C123.984 45.1094 124.562 47.2344 124.562 49.9531V50.2188ZM122.688 49.8906C122.688 47.7344 122.245 46.0312 121.359 44.7812C120.474 43.5312 119.24 42.9062 117.656 42.9062C116.51 42.9062 115.526 43.1823 114.703 43.7344C113.88 44.2865 113.25 45.0885 112.812 46.1406V54.25C113.26 55.2188 113.901 55.9583 114.734 56.4688C115.568 56.9792 116.552 57.2344 117.688 57.2344C119.26 57.2344 120.484 56.6094 121.359 55.3594C122.245 54.099 122.688 52.276 122.688 49.8906ZM136.531 43.1875C136.135 43.1146 135.714 43.0781 135.266 43.0781C134.099 43.0781 133.109 43.4062 132.297 44.0625C131.495 44.7083 130.922 45.651 130.578 46.8906V58.5H128.719V41.5938H130.547L130.578 44.2812C131.568 42.2812 133.156 41.2812 135.344 41.2812C135.865 41.2812 136.276 41.349 136.578 41.4844L136.531 43.1875ZM138.156 49.7969C138.156 48.1719 138.469 46.7083 139.094 45.4062C139.729 44.1042 140.62 43.0938 141.766 42.375C142.922 41.6458 144.229 41.2812 145.688 41.2812C147.938 41.2812 149.76 42.0729 151.156 43.6562C152.552 45.2292 153.25 47.3177 153.25 49.9219V50.3125C153.25 51.9479 152.932 53.4219 152.297 54.7344C151.672 56.0365 150.786 57.0417 149.641 57.75C148.495 58.4583 147.188 58.8125 145.719 58.8125C143.479 58.8125 141.656 58.026 140.25 56.4531C138.854 54.8698 138.156 52.776 138.156 50.1719V49.7969ZM140.031 50.3125C140.031 52.3333 140.552 53.9948 141.594 55.2969C142.646 56.5885 144.021 57.2344 145.719 57.2344C147.406 57.2344 148.771 56.5885 149.812 55.2969C150.865 53.9948 151.391 52.2812 151.391 50.1562V49.7969C151.391 48.5052 151.151 47.3229 150.672 46.25C150.193 45.1771 149.521 44.349 148.656 43.7656C147.792 43.1719 146.802 42.875 145.688 42.875C144.021 42.875 142.661 43.5312 141.609 44.8438C140.557 46.1458 140.031 47.8542 140.031 49.9688V50.3125ZM160.031 37.2656V41.5938H163.531V43.125H160.031V54.3906C160.031 55.3281 160.198 56.026 160.531 56.4844C160.875 56.9427 161.443 57.1719 162.234 57.1719C162.547 57.1719 163.052 57.1198 163.75 57.0156L163.828 58.5469C163.339 58.724 162.672 58.8125 161.828 58.8125C160.547 58.8125 159.615 58.4427 159.031 57.7031C158.448 56.9531 158.156 55.8542 158.156 54.4062V43.125H155.047V41.5938H158.156V37.2656H160.031ZM166.062 49.7969C166.062 48.1719 166.375 46.7083 167 45.4062C167.635 44.1042 168.526 43.0938 169.672 42.375C170.828 41.6458 172.135 41.2812 173.594 41.2812C175.844 41.2812 177.667 42.0729 179.062 43.6562C180.458 45.2292 181.156 47.3177 181.156 49.9219V50.3125C181.156 51.9479 180.839 53.4219 180.203 54.7344C179.578 56.0365 178.693 57.0417 177.547 57.75C176.401 58.4583 175.094 58.8125 173.625 58.8125C171.385 58.8125 169.562 58.026 168.156 56.4531C166.76 54.8698 166.062 52.776 166.062 50.1719V49.7969ZM167.938 50.3125C167.938 52.3333 168.458 53.9948 169.5 55.2969C170.552 56.5885 171.927 57.2344 173.625 57.2344C175.312 57.2344 176.677 56.5885 177.719 55.2969C178.771 53.9948 179.297 52.2812 179.297 50.1562V49.7969C179.297 48.5052 179.057 47.3229 178.578 46.25C178.099 45.1771 177.427 44.349 176.562 43.7656C175.698 43.1719 174.708 42.875 173.594 42.875C171.927 42.875 170.568 43.5312 169.516 44.8438C168.464 46.1458 167.938 47.8542 167.938 49.9688V50.3125ZM187.938 37.2656V41.5938H191.438V43.125H187.938V54.3906C187.938 55.3281 188.104 56.026 188.438 56.4844C188.781 56.9427 189.349 57.1719 190.141 57.1719C190.453 57.1719 190.958 57.1198 191.656 57.0156L191.734 58.5469C191.245 58.724 190.578 58.8125 189.734 58.8125C188.453 58.8125 187.521 58.4427 186.938 57.7031C186.354 56.9531 186.062 55.8542 186.062 54.4062V43.125H182.953V41.5938H186.062V37.2656H187.938ZM200.672 55.8125L205.609 41.5938H207.625L200.406 61.375L200.031 62.25C199.104 64.3021 197.672 65.3281 195.734 65.3281C195.286 65.3281 194.807 65.2552 194.297 65.1094L194.281 63.5625L195.25 63.6562C196.167 63.6562 196.906 63.4271 197.469 62.9688C198.042 62.5208 198.526 61.7448 198.922 60.6406L199.75 58.3594L193.375 41.5938H195.422L200.672 55.8125ZM224.125 50.2188C224.125 52.8542 223.542 54.9479 222.375 56.5C221.208 58.0417 219.646 58.8125 217.688 58.8125C215.375 58.8125 213.604 58 212.375 56.375V65H210.516V41.5938H212.25L212.344 43.9844C213.562 42.1823 215.328 41.2812 217.641 41.2812C219.661 41.2812 221.245 42.0469 222.391 43.5781C223.547 45.1094 224.125 47.2344 224.125 49.9531V50.2188ZM222.25 49.8906C222.25 47.7344 221.807 46.0312 220.922 44.7812C220.036 43.5312 218.802 42.9062 217.219 42.9062C216.073 42.9062 215.089 43.1823 214.266 43.7344C213.443 44.2865 212.812 45.0885 212.375 46.1406V54.25C212.823 55.2188 213.464 55.9583 214.297 56.4688C215.13 56.9792 216.115 57.2344 217.25 57.2344C218.823 57.2344 220.047 56.6094 220.922 55.3594C221.807 54.099 222.25 52.276 222.25 49.8906ZM234.828 58.8125C233.391 58.8125 232.089 58.4583 230.922 57.75C229.766 57.0417 228.865 56.0573 228.219 54.7969C227.573 53.526 227.25 52.1042 227.25 50.5312V49.8594C227.25 48.2344 227.562 46.7708 228.188 45.4688C228.823 44.1667 229.703 43.1458 230.828 42.4062C231.953 41.6562 233.172 41.2812 234.484 41.2812C236.536 41.2812 238.161 41.9844 239.359 43.3906C240.568 44.7865 241.172 46.6979 241.172 49.125V50.1719H229.109V50.5312C229.109 52.4479 229.656 54.0469 230.75 55.3281C231.854 56.599 233.24 57.2344 234.906 57.2344C235.906 57.2344 236.786 57.0521 237.547 56.6875C238.318 56.3229 239.016 55.7396 239.641 54.9375L240.812 55.8281C239.438 57.8177 237.443 58.8125 234.828 58.8125ZM234.484 42.875C233.078 42.875 231.891 43.3906 230.922 44.4219C229.964 45.4531 229.38 46.8385 229.172 48.5781H239.312V48.375C239.26 46.75 238.797 45.4271 237.922 44.4062C237.047 43.3854 235.901 42.875 234.484 42.875ZM16.3906 92.5H2.14062V91.0625L9.9375 82.2188C11.2292 80.7292 12.125 79.5 12.625 78.5312C13.125 77.5625 13.375 76.6198 13.375 75.7031C13.375 74.2656 12.9531 73.1302 12.1094 72.2969C11.2656 71.4531 10.1042 71.0312 8.625 71.0312C7.09375 71.0312 5.85417 71.5208 4.90625 72.5C3.96875 73.4792 3.5 74.75 3.5 76.3125H1.64062C1.64062 75.0312 1.92708 73.8646 2.5 72.8125C3.08333 71.7604 3.90625 70.9375 4.96875 70.3438C6.04167 69.7396 7.26042 69.4375 8.625 69.4375C10.7083 69.4375 12.3333 69.9844 13.5 71.0781C14.6771 72.1719 15.2656 73.6615 15.2656 75.5469C15.2656 76.6094 14.9323 77.7708 14.2656 79.0312C13.6094 80.2917 12.4479 81.8646 10.7812 83.75L4.4375 90.9219H16.3906V92.5ZM33.6094 83.0156C33.6094 86.224 33.0208 88.6615 31.8438 90.3281C30.6667 91.9844 28.9323 92.8125 26.6406 92.8125C24.3906 92.8125 22.6667 92 21.4688 90.375C20.2708 88.7396 19.6562 86.3646 19.625 83.25V79.1719C19.625 75.974 20.2188 73.5521 21.4062 71.9062C22.5938 70.2604 24.3281 69.4375 26.6094 69.4375C28.8594 69.4375 30.5781 70.2344 31.7656 71.8281C32.9531 73.4115 33.5677 75.75 33.6094 78.8438V83.0156ZM31.7344 78.9375C31.7344 76.3333 31.3073 74.3646 30.4531 73.0312C29.6094 71.6979 28.3281 71.0312 26.6094 71.0312C24.9219 71.0312 23.651 71.6823 22.7969 72.9844C21.9427 74.2865 21.5052 76.2083 21.4844 78.75V83.2188C21.4844 85.8125 21.9219 87.7969 22.7969 89.1719C23.6823 90.5469 24.9635 91.2344 26.6406 91.2344C28.3073 91.2344 29.5677 90.5625 30.4219 89.2188C31.2865 87.875 31.724 85.9062 31.7344 83.3125V78.9375ZM46.3438 92.5H44.4688V72L38.2812 74.2969V72.5469L46.0312 69.6719H46.3438V92.5ZM67.0625 81.9688C66.3958 82.9479 65.5677 83.7083 64.5781 84.25C63.5885 84.7812 62.5156 85.0469 61.3594 85.0469C60.0677 85.0469 58.9271 84.7135 57.9375 84.0469C56.9479 83.3802 56.1823 82.4583 55.6406 81.2812C55.099 80.1042 54.8281 78.8177 54.8281 77.4219C54.8281 75.9219 55.1146 74.5573 55.6875 73.3281C56.2708 72.099 57.0781 71.1458 58.1094 70.4688C59.151 69.7812 60.349 69.4375 61.7031 69.4375C63.9844 69.4375 65.7604 70.2396 67.0312 71.8438C68.3021 73.4375 68.9375 75.7031 68.9375 78.6406V80.3281C68.9375 84.4323 68.0625 87.5156 66.3125 89.5781C64.5625 91.6406 61.8906 92.6719 58.2969 92.6719H57.9531L57.9688 91.0469H58.625C61.3438 91.0052 63.4115 90.2344 64.8281 88.7344C66.2448 87.2344 66.9896 84.9792 67.0625 81.9688ZM61.5938 83.4375C62.8438 83.4375 63.9635 83.0677 64.9531 82.3281C65.9531 81.5781 66.6615 80.6094 67.0781 79.4219V78.3438C67.0781 76.0312 66.5938 74.2396 65.625 72.9688C64.6667 71.6875 63.3698 71.0469 61.7344 71.0469C60.2552 71.0469 59.0417 71.6458 58.0938 72.8438C57.1458 74.0312 56.6719 75.5312 56.6719 77.3438C56.6719 79.0833 57.125 80.5365 58.0312 81.7031C58.9479 82.8594 60.1354 83.4375 61.5938 83.4375Z" fill="white"/>
</svg>
