<svg width="217" height="374" viewBox="0 0 217 374" fill="none" xmlns="http://www.w3.org/2000/svg">
<g opacity="0.75" filter="url(#filter0_b)">
<rect width="217" height="375" fill="#3A3335"/>
</g>
<path d="M23.7188 170.234H33.6719V174H19.0312V151.25H23.7188V170.234ZM35.375 165.391C35.375 163.714 35.6979 162.219 36.3438 160.906C36.9896 159.594 37.9167 158.578 39.125 157.859C40.3438 157.141 41.7552 156.781 43.3594 156.781C45.6406 156.781 47.5 157.479 48.9375 158.875C50.3854 160.271 51.1927 162.167 51.3594 164.562L51.3906 165.719C51.3906 168.312 50.6667 170.396 49.2188 171.969C47.7708 173.531 45.8281 174.312 43.3906 174.312C40.9531 174.312 39.0052 173.531 37.5469 171.969C36.099 170.406 35.375 168.281 35.375 165.594V165.391ZM39.8906 165.719C39.8906 167.323 40.1927 168.552 40.7969 169.406C41.401 170.25 42.2656 170.672 43.3906 170.672C44.4844 170.672 45.3385 170.255 45.9531 169.422C46.5677 168.578 46.875 167.234 46.875 165.391C46.875 163.818 46.5677 162.599 45.9531 161.734C45.3385 160.87 44.474 160.438 43.3594 160.438C42.2552 160.438 41.401 160.87 40.7969 161.734C40.1927 162.589 39.8906 163.917 39.8906 165.719ZM61.2031 170.672C62.0365 170.672 62.7135 170.443 63.2344 169.984C63.7552 169.526 64.026 168.917 64.0469 168.156H68.2812C68.2708 169.302 67.9583 170.354 67.3438 171.312C66.7292 172.26 65.8854 173 64.8125 173.531C63.75 174.052 62.5729 174.312 61.2812 174.312C58.8646 174.312 56.9583 173.547 55.5625 172.016C54.1667 170.474 53.4688 168.349 53.4688 165.641V165.344C53.4688 162.74 54.1615 160.661 55.5469 159.109C56.9323 157.557 58.8333 156.781 61.25 156.781C63.3646 156.781 65.0573 157.385 66.3281 158.594C67.6094 159.792 68.2604 161.391 68.2812 163.391H64.0469C64.026 162.516 63.7552 161.807 63.2344 161.266C62.7135 160.714 62.026 160.438 61.1719 160.438C60.1198 160.438 59.3229 160.823 58.7812 161.594C58.25 162.354 57.9844 163.594 57.9844 165.312V165.781C57.9844 167.521 58.25 168.771 58.7812 169.531C59.3125 170.292 60.1198 170.672 61.2031 170.672ZM80.6562 174C80.4479 173.594 80.2969 173.089 80.2031 172.484C79.1094 173.703 77.6875 174.312 75.9375 174.312C74.2812 174.312 72.9062 173.833 71.8125 172.875C70.7292 171.917 70.1875 170.708 70.1875 169.25C70.1875 167.458 70.849 166.083 72.1719 165.125C73.5052 164.167 75.4271 163.682 77.9375 163.672H80.0156V162.703C80.0156 161.922 79.8125 161.297 79.4062 160.828C79.0104 160.359 78.3802 160.125 77.5156 160.125C76.7552 160.125 76.1562 160.307 75.7188 160.672C75.2917 161.036 75.0781 161.536 75.0781 162.172H70.5625C70.5625 161.193 70.8646 160.286 71.4688 159.453C72.0729 158.62 72.9271 157.969 74.0312 157.5C75.1354 157.021 76.375 156.781 77.75 156.781C79.8333 156.781 81.4844 157.307 82.7031 158.359C83.9323 159.401 84.5469 160.87 84.5469 162.766V170.094C84.5573 171.698 84.7812 172.911 85.2188 173.734V174H80.6562ZM76.9219 170.859C77.5885 170.859 78.2031 170.714 78.7656 170.422C79.3281 170.12 79.7448 169.719 80.0156 169.219V166.312H78.3281C76.0677 166.312 74.8646 167.094 74.7188 168.656L74.7031 168.922C74.7031 169.484 74.901 169.948 75.2969 170.312C75.6927 170.677 76.2344 170.859 76.9219 170.859ZM93.4219 152.938V157.094H96.3125V160.406H93.4219V168.844C93.4219 169.469 93.5417 169.917 93.7812 170.188C94.0208 170.458 94.4792 170.594 95.1562 170.594C95.6562 170.594 96.099 170.557 96.4844 170.484V173.906C95.599 174.177 94.6875 174.312 93.75 174.312C90.5833 174.312 88.9688 172.714 88.9062 169.516V160.406H86.4375V157.094H88.9062V152.938H93.4219ZM103.594 174H99.0625V157.094H103.594V174ZM98.7969 152.719C98.7969 152.042 99.0208 151.484 99.4688 151.047C99.9271 150.609 100.547 150.391 101.328 150.391C102.099 150.391 102.714 150.609 103.172 151.047C103.63 151.484 103.859 152.042 103.859 152.719C103.859 153.406 103.625 153.969 103.156 154.406C102.698 154.844 102.089 155.062 101.328 155.062C100.568 155.062 99.9531 154.844 99.4844 154.406C99.026 153.969 98.7969 153.406 98.7969 152.719ZM108.562 174V160.406H106.047V157.094H108.562V155.656C108.562 153.76 109.104 152.292 110.188 151.25C111.281 150.198 112.807 149.672 114.766 149.672C115.391 149.672 116.156 149.776 117.062 149.984L117.016 153.484C116.641 153.391 116.182 153.344 115.641 153.344C113.943 153.344 113.094 154.141 113.094 155.734V157.094H116.453V160.406H113.094V174H108.562ZM125.109 167.609L128.234 157.094H133.078L126.281 176.625L125.906 177.516C124.896 179.724 123.229 180.828 120.906 180.828C120.25 180.828 119.583 180.729 118.906 180.531V177.109L119.594 177.125C120.448 177.125 121.083 176.995 121.5 176.734C121.927 176.474 122.26 176.042 122.5 175.438L123.031 174.047L117.109 157.094H121.969L125.109 167.609ZM28.3672 193.219H20.6211L18.8633 198H17.3516L23.8086 180.938H25.1797L31.6367 198H30.1367L28.3672 193.219ZM21.0664 191.988H27.9102L24.4883 182.695L21.0664 191.988ZM40.5312 190.898H35.5742V198H34.1211V180.938H39.6641C41.4844 180.938 42.9062 181.379 43.9297 182.262C44.9531 183.145 45.4648 184.379 45.4648 185.965C45.4648 187.059 45.1445 188.023 44.5039 188.859C43.8633 189.695 43.0039 190.273 41.9258 190.594L46.1914 197.848V198H44.6562L40.5312 190.898ZM35.5742 189.668H39.9922C41.2031 189.668 42.1758 189.324 42.9102 188.637C43.6445 187.949 44.0117 187.059 44.0117 185.965C44.0117 184.762 43.6289 183.828 42.8633 183.164C42.0977 182.5 41.0234 182.168 39.6406 182.168H35.5742V189.668ZM62.9023 198C62.7617 197.602 62.6719 197.012 62.6328 196.23C62.1406 196.871 61.5117 197.367 60.7461 197.719C59.9883 198.062 59.1836 198.234 58.332 198.234C57.1133 198.234 56.125 197.895 55.3672 197.215C54.6172 196.535 54.2422 195.676 54.2422 194.637C54.2422 193.402 54.7539 192.426 55.7773 191.707C56.8086 190.988 58.2422 190.629 60.0781 190.629H62.6211V189.188C62.6211 188.281 62.3398 187.57 61.7773 187.055C61.2227 186.531 60.4102 186.27 59.3398 186.27C58.3633 186.27 57.5547 186.52 56.9141 187.02C56.2734 187.52 55.9531 188.121 55.9531 188.824L54.5469 188.812C54.5469 187.805 55.0156 186.934 55.9531 186.199C56.8906 185.457 58.043 185.086 59.4102 185.086C60.8242 185.086 61.9375 185.441 62.75 186.152C63.5703 186.855 63.9922 187.84 64.0156 189.105V195.105C64.0156 196.332 64.1445 197.25 64.4023 197.859V198H62.9023ZM58.4961 196.992C59.4336 196.992 60.2695 196.766 61.0039 196.312C61.7461 195.859 62.2852 195.254 62.6211 194.496V191.707H60.1133C58.7148 191.723 57.6211 191.98 56.832 192.48C56.043 192.973 55.6484 193.652 55.6484 194.52C55.6484 195.23 55.9102 195.82 56.4336 196.289C56.9648 196.758 57.6523 196.992 58.4961 196.992ZM77.9609 191.789C77.9609 193.766 77.5234 195.336 76.6484 196.5C75.7734 197.656 74.6016 198.234 73.1328 198.234C71.3984 198.234 70.0703 197.625 69.1484 196.406V202.875H67.7539V185.32H69.0547L69.125 187.113C70.0391 185.762 71.3633 185.086 73.0977 185.086C74.6133 185.086 75.8008 185.66 76.6602 186.809C77.5273 187.957 77.9609 189.551 77.9609 191.59V191.789ZM76.5547 191.543C76.5547 189.926 76.2227 188.648 75.5586 187.711C74.8945 186.773 73.9688 186.305 72.7812 186.305C71.9219 186.305 71.1836 186.512 70.5664 186.926C69.9492 187.34 69.4766 187.941 69.1484 188.73V194.812C69.4844 195.539 69.9648 196.094 70.5898 196.477C71.2148 196.859 71.9531 197.051 72.8047 197.051C73.9844 197.051 74.9023 196.582 75.5586 195.645C76.2227 194.699 76.5547 193.332 76.5547 191.543ZM91.2734 191.789C91.2734 193.766 90.8359 195.336 89.9609 196.5C89.0859 197.656 87.9141 198.234 86.4453 198.234C84.7109 198.234 83.3828 197.625 82.4609 196.406V202.875H81.0664V185.32H82.3672L82.4375 187.113C83.3516 185.762 84.6758 185.086 86.4102 185.086C87.9258 185.086 89.1133 185.66 89.9727 186.809C90.8398 187.957 91.2734 189.551 91.2734 191.59V191.789ZM89.8672 191.543C89.8672 189.926 89.5352 188.648 88.8711 187.711C88.207 186.773 87.2812 186.305 86.0938 186.305C85.2344 186.305 84.4961 186.512 83.8789 186.926C83.2617 187.34 82.7891 187.941 82.4609 188.73V194.812C82.7969 195.539 83.2773 196.094 83.9023 196.477C84.5273 196.859 85.2656 197.051 86.1172 197.051C87.2969 197.051 88.2148 196.582 88.8711 195.645C89.5352 194.699 89.8672 193.332 89.8672 191.543ZM110.422 191.789C110.422 193.766 109.984 195.336 109.109 196.5C108.234 197.656 107.062 198.234 105.594 198.234C103.859 198.234 102.531 197.625 101.609 196.406V202.875H100.215V185.32H101.516L101.586 187.113C102.5 185.762 103.824 185.086 105.559 185.086C107.074 185.086 108.262 185.66 109.121 186.809C109.988 187.957 110.422 189.551 110.422 191.59V191.789ZM109.016 191.543C109.016 189.926 108.684 188.648 108.02 187.711C107.355 186.773 106.43 186.305 105.242 186.305C104.383 186.305 103.645 186.512 103.027 186.926C102.41 187.34 101.938 187.941 101.609 188.73V194.812C101.945 195.539 102.426 196.094 103.051 196.477C103.676 196.859 104.414 197.051 105.266 197.051C106.445 197.051 107.363 196.582 108.02 195.645C108.684 194.699 109.016 193.332 109.016 191.543ZM119.398 186.516C119.102 186.461 118.785 186.434 118.449 186.434C117.574 186.434 116.832 186.68 116.223 187.172C115.621 187.656 115.191 188.363 114.934 189.293V198H113.539V185.32H114.91L114.934 187.336C115.676 185.836 116.867 185.086 118.508 185.086C118.898 185.086 119.207 185.137 119.434 185.238L119.398 186.516ZM120.617 191.473C120.617 190.254 120.852 189.156 121.32 188.18C121.797 187.203 122.465 186.445 123.324 185.906C124.191 185.359 125.172 185.086 126.266 185.086C127.953 185.086 129.32 185.68 130.367 186.867C131.414 188.047 131.938 189.613 131.938 191.566V191.859C131.938 193.086 131.699 194.191 131.223 195.176C130.754 196.152 130.09 196.906 129.23 197.438C128.371 197.969 127.391 198.234 126.289 198.234C124.609 198.234 123.242 197.645 122.188 196.465C121.141 195.277 120.617 193.707 120.617 191.754V191.473ZM122.023 191.859C122.023 193.375 122.414 194.621 123.195 195.598C123.984 196.566 125.016 197.051 126.289 197.051C127.555 197.051 128.578 196.566 129.359 195.598C130.148 194.621 130.543 193.336 130.543 191.742V191.473C130.543 190.504 130.363 189.617 130.004 188.812C129.645 188.008 129.141 187.387 128.492 186.949C127.844 186.504 127.102 186.281 126.266 186.281C125.016 186.281 123.996 186.773 123.207 187.758C122.418 188.734 122.023 190.016 122.023 191.602V191.859ZM137.023 182.074V185.32H139.648V186.469H137.023V194.918C137.023 195.621 137.148 196.145 137.398 196.488C137.656 196.832 138.082 197.004 138.676 197.004C138.91 197.004 139.289 196.965 139.812 196.887L139.871 198.035C139.504 198.168 139.004 198.234 138.371 198.234C137.41 198.234 136.711 197.957 136.273 197.402C135.836 196.84 135.617 196.016 135.617 194.93V186.469H133.285V185.32H135.617V182.074H137.023ZM141.547 191.473C141.547 190.254 141.781 189.156 142.25 188.18C142.727 187.203 143.395 186.445 144.254 185.906C145.121 185.359 146.102 185.086 147.195 185.086C148.883 185.086 150.25 185.68 151.297 186.867C152.344 188.047 152.867 189.613 152.867 191.566V191.859C152.867 193.086 152.629 194.191 152.152 195.176C151.684 196.152 151.02 196.906 150.16 197.438C149.301 197.969 148.32 198.234 147.219 198.234C145.539 198.234 144.172 197.645 143.117 196.465C142.07 195.277 141.547 193.707 141.547 191.754V191.473ZM142.953 191.859C142.953 193.375 143.344 194.621 144.125 195.598C144.914 196.566 145.945 197.051 147.219 197.051C148.484 197.051 149.508 196.566 150.289 195.598C151.078 194.621 151.473 193.336 151.473 191.742V191.473C151.473 190.504 151.293 189.617 150.934 188.812C150.574 188.008 150.07 187.387 149.422 186.949C148.773 186.504 148.031 186.281 147.195 186.281C145.945 186.281 144.926 186.773 144.137 187.758C143.348 188.734 142.953 190.016 142.953 191.602V191.859ZM157.953 182.074V185.32H160.578V186.469H157.953V194.918C157.953 195.621 158.078 196.145 158.328 196.488C158.586 196.832 159.012 197.004 159.605 197.004C159.84 197.004 160.219 196.965 160.742 196.887L160.801 198.035C160.434 198.168 159.934 198.234 159.301 198.234C158.34 198.234 157.641 197.957 157.203 197.402C156.766 196.84 156.547 196.016 156.547 194.93V186.469H154.215V185.32H156.547V182.074H157.953ZM167.504 195.984L171.207 185.32H172.719L167.305 200.156L167.023 200.812C166.328 202.352 165.254 203.121 163.801 203.121C163.465 203.121 163.105 203.066 162.723 202.957L162.711 201.797L163.438 201.867C164.125 201.867 164.68 201.695 165.102 201.352C165.531 201.016 165.895 200.434 166.191 199.605L166.812 197.895L162.031 185.32H163.566L167.504 195.984ZM185.094 191.789C185.094 193.766 184.656 195.336 183.781 196.5C182.906 197.656 181.734 198.234 180.266 198.234C178.531 198.234 177.203 197.625 176.281 196.406V202.875H174.887V185.32H176.188L176.258 187.113C177.172 185.762 178.496 185.086 180.23 185.086C181.746 185.086 182.934 185.66 183.793 186.809C184.66 187.957 185.094 189.551 185.094 191.59V191.789ZM183.688 191.543C183.688 189.926 183.355 188.648 182.691 187.711C182.027 186.773 181.102 186.305 179.914 186.305C179.055 186.305 178.316 186.512 177.699 186.926C177.082 187.34 176.609 187.941 176.281 188.73V194.812C176.617 195.539 177.098 196.094 177.723 196.477C178.348 196.859 179.086 197.051 179.938 197.051C181.117 197.051 182.035 196.582 182.691 195.645C183.355 194.699 183.688 193.332 183.688 191.543ZM193.121 198.234C192.043 198.234 191.066 197.969 190.191 197.438C189.324 196.906 188.648 196.168 188.164 195.223C187.68 194.27 187.438 193.203 187.438 192.023V191.52C187.438 190.301 187.672 189.203 188.141 188.227C188.617 187.25 189.277 186.484 190.121 185.93C190.965 185.367 191.879 185.086 192.863 185.086C194.402 185.086 195.621 185.613 196.52 186.668C197.426 187.715 197.879 189.148 197.879 190.969V191.754H188.832V192.023C188.832 193.461 189.242 194.66 190.062 195.621C190.891 196.574 191.93 197.051 193.18 197.051C193.93 197.051 194.59 196.914 195.16 196.641C195.738 196.367 196.262 195.93 196.73 195.328L197.609 195.996C196.578 197.488 195.082 198.234 193.121 198.234ZM192.863 186.281C191.809 186.281 190.918 186.668 190.191 187.441C189.473 188.215 189.035 189.254 188.879 190.559H196.484V190.406C196.445 189.188 196.098 188.195 195.441 187.43C194.785 186.664 193.926 186.281 192.863 186.281ZM26.2197 222H18.2041V221.191L22.5898 216.217C23.3164 215.379 23.8203 214.688 24.1016 214.143C24.3828 213.598 24.5234 213.067 24.5234 212.552C24.5234 211.743 24.2861 211.104 23.8115 210.636C23.3369 210.161 22.6836 209.924 21.8516 209.924C20.9902 209.924 20.293 210.199 19.7598 210.75C19.2324 211.301 18.9688 212.016 18.9688 212.895H17.9229C17.9229 212.174 18.084 211.518 18.4062 210.926C18.7344 210.334 19.1973 209.871 19.7949 209.537C20.3984 209.197 21.084 209.027 21.8516 209.027C23.0234 209.027 23.9375 209.335 24.5938 209.95C25.2559 210.565 25.5869 211.403 25.5869 212.464C25.5869 213.062 25.3994 213.715 25.0244 214.424C24.6553 215.133 24.002 216.018 23.0645 217.078L19.4961 221.112H26.2197V222ZM35.9053 216.665C35.9053 218.47 35.5742 219.841 34.9121 220.778C34.25 221.71 33.2744 222.176 31.9854 222.176C30.7197 222.176 29.75 221.719 29.0762 220.805C28.4023 219.885 28.0566 218.549 28.0391 216.797V214.503C28.0391 212.704 28.373 211.342 29.041 210.416C29.709 209.49 30.6846 209.027 31.9678 209.027C33.2334 209.027 34.2002 209.476 34.8682 210.372C35.5361 211.263 35.8818 212.578 35.9053 214.318V216.665ZM34.8506 214.371C34.8506 212.906 34.6104 211.799 34.1299 211.049C33.6553 210.299 32.9346 209.924 31.9678 209.924C31.0186 209.924 30.3037 210.29 29.8232 211.022C29.3428 211.755 29.0967 212.836 29.085 214.266V216.779C29.085 218.238 29.3311 219.354 29.8232 220.128C30.3213 220.901 31.042 221.288 31.9854 221.288C32.9229 221.288 33.6318 220.91 34.1123 220.154C34.5986 219.398 34.8447 218.291 34.8506 216.832V214.371ZM43.0684 222H42.0137V210.469L38.5332 211.761V210.776L42.8926 209.159H43.0684V222ZM54.7227 216.076C54.3477 216.627 53.8818 217.055 53.3252 217.359C52.7686 217.658 52.165 217.808 51.5146 217.808C50.7881 217.808 50.1465 217.62 49.5898 217.245C49.0332 216.87 48.6025 216.352 48.2979 215.689C47.9932 215.027 47.8408 214.304 47.8408 213.519C47.8408 212.675 48.002 211.907 48.3242 211.216C48.6523 210.524 49.1064 209.988 49.6865 209.607C50.2725 209.221 50.9463 209.027 51.708 209.027C52.9912 209.027 53.9902 209.479 54.7051 210.381C55.4199 211.277 55.7773 212.552 55.7773 214.204V215.153C55.7773 217.462 55.2852 219.196 54.3008 220.356C53.3164 221.517 51.8135 222.097 49.792 222.097H49.5986L49.6074 221.183H49.9766C51.5059 221.159 52.6689 220.726 53.4658 219.882C54.2627 219.038 54.6816 217.77 54.7227 216.076ZM51.6465 216.902C52.3496 216.902 52.9795 216.694 53.5361 216.278C54.0986 215.856 54.4971 215.312 54.7314 214.644V214.037C54.7314 212.736 54.459 211.729 53.9141 211.014C53.375 210.293 52.6455 209.933 51.7256 209.933C50.8936 209.933 50.2109 210.27 49.6777 210.943C49.1445 211.611 48.8779 212.455 48.8779 213.475C48.8779 214.453 49.1328 215.271 49.6426 215.927C50.1582 216.577 50.8262 216.902 51.6465 216.902Z" fill="white"/>
<defs>
<filter id="filter0_b" x="-100" y="-100" width="417" height="575" filterUnits="userSpaceOnUse" color-interpolation-filters="sRGB">
<feFlood flood-opacity="0" result="BackgroundImageFix"/>
<feGaussianBlur in="BackgroundImage" stdDeviation="50"/>
<feComposite in2="SourceAlpha" operator="in" result="effect1_backgroundBlur"/>
<feBlend mode="normal" in="SourceGraphic" in2="effect1_backgroundBlur" result="shape"/>
</filter>
</defs>
</svg>
