<svg width="73" height="74" viewBox="0 0 73 74" fill="none" xmlns="http://www.w3.org/2000/svg">
<path d="M36.5 73.5C26.7505 73.5 17.5846 69.7034 10.6906 62.8094C3.79665 55.9154 0 46.7494 0 37C0 27.2505 3.79665 18.0844 10.6906 11.1906C17.5846 4.29665 26.7505 0.5 36.5 0.5C46.2495 0.5 55.4154 4.29665 62.3095 11.1906C69.2034 18.0844 73 27.2505 73 37C73 46.7494 69.2034 55.9154 62.3095 62.8094C55.4154 69.7034 46.2495 73.5 36.5 73.5ZM36.5 2.43805C17.4425 2.43805 1.93805 17.9425 1.93805 37C1.93805 56.0575 17.4425 71.5619 36.5 71.5619C55.5575 71.5619 71.0619 56.0575 71.0619 37C71.0619 17.9425 55.5575 2.43805 36.5 2.43805Z" fill="#539CFF"/>
<mask id="path-2-inside-1" fill="white">
<path d="M41.581 38.183C41.4939 38.0295 41.5474 37.8351 41.701 37.748C41.8545 37.6608 42.0489 37.7144 42.1361 37.8679C42.4136 38.355 42.6295 38.8812 42.7759 39.4354C42.9182 39.9744 42.9934 40.5382 42.9934 41.1181C42.9934 42.9359 42.2568 44.5817 41.0652 45.7733C39.8735 46.9649 38.2277 47.7015 36.4098 47.7015C34.592 47.7015 32.9461 46.9649 31.7544 45.7733C30.5628 44.5817 29.8262 42.9359 29.8262 41.1181C29.8262 39.3003 30.5628 37.6544 31.7544 36.4628C32.9461 35.2712 34.592 34.5346 36.4098 34.5346C36.8817 34.5346 37.3431 34.585 37.7894 34.6802C38.246 34.7777 38.6859 34.9225 39.1034 35.1104C39.2641 35.1824 39.3361 35.3711 39.2649 35.5319C39.193 35.6926 39.0042 35.7646 38.8435 35.6934C38.4684 35.5247 38.0709 35.3935 37.6566 35.3056C37.2559 35.22 36.8385 35.1752 36.409 35.1752C34.7679 35.1752 33.282 35.8406 32.2063 36.9162C31.1306 37.9919 30.4652 39.4778 30.4652 41.1189C30.4652 42.7599 31.1306 44.2458 32.2063 45.3215C33.282 46.3971 34.7679 47.0625 36.409 47.0625C38.0501 47.0625 39.5361 46.3971 40.6117 45.3215C41.6874 44.2458 42.3528 42.7599 42.3528 41.1189C42.3528 40.5918 42.2848 40.0824 42.1576 39.5994C42.0257 39.0987 41.8297 38.6237 41.5802 38.1846L41.581 38.183ZM52.9216 30.5583C52.8048 30.376 52.6848 30.1952 52.5617 30.0169L52.0346 30.38C52.1538 30.5527 52.2698 30.7279 52.3833 30.9046L52.9216 30.5583ZM39.5528 21.7716C39.3385 21.7372 39.1242 21.706 38.909 21.6788L38.8283 22.3138C39.0362 22.341 39.2441 22.3706 39.4513 22.4034L39.5528 21.7716ZM36.9648 21.5285C36.7481 21.5229 36.5314 21.5205 36.3146 21.5213L36.3186 22.1611C36.529 22.1603 36.7377 22.1627 36.9472 22.1683L36.9648 21.5285ZM34.3664 21.626L34.2833 21.6348L34.1601 21.6484L34.0369 21.6628L33.9146 21.678L33.7922 21.694L33.721 21.7036L33.8098 22.337L33.877 22.3282L33.9953 22.313L34.1137 22.2986L34.2329 22.285L34.352 22.2714L34.4352 22.2626L34.3664 21.626ZM31.804 22.0651L31.748 22.0787L31.6305 22.1075L31.5129 22.1371L31.3953 22.1675L31.2786 22.1986L31.1754 22.2266L31.3466 22.8432L31.4457 22.816L31.5585 22.7856L31.6721 22.7561L31.7856 22.7273L31.9 22.6993L31.956 22.6857L31.804 22.0651ZM29.3216 22.8416L29.224 22.88L29.1128 22.924L29.0025 22.9688L28.8921 23.0144L28.7817 23.0608L28.7202 23.0872L28.9729 23.675L29.0305 23.6502L29.1368 23.6054L29.244 23.5614L29.3512 23.5182L29.4583 23.4758L29.5559 23.4374L29.3216 22.8416ZM26.9671 23.9413L26.8607 24.0005L26.7576 24.0588L26.6544 24.1172L26.552 24.1764L26.4496 24.2364L26.4017 24.2652L26.7304 24.8138L26.7751 24.7874L26.8735 24.7298L26.9727 24.6722L27.0719 24.6155L27.1718 24.5595L27.275 24.5019L26.9671 23.9413ZM24.7766 25.3448L24.6838 25.4136L24.5894 25.4848L24.4958 25.5559L24.4023 25.6279L24.3095 25.7007L24.2599 25.7399L24.6582 26.2405L24.7046 26.2037L24.7942 26.1334L24.8845 26.0638L24.9749 25.995L25.0661 25.9262L25.1588 25.8574L24.7766 25.3448ZM22.7924 27.0243L22.7196 27.0954L22.6356 27.1778L22.5524 27.261L22.4693 27.3442L22.3869 27.4281L22.3333 27.4833L22.794 27.9272L22.8451 27.8744L22.9251 27.7936L23.0051 27.7128L23.0859 27.6329L23.1667 27.5529L23.2394 27.4817L22.7924 27.0243ZM21.0465 28.95L20.9921 29.0188L20.9193 29.1116L20.8474 29.2052L20.7762 29.2987L20.705 29.3931L20.6506 29.4659L21.1657 29.8457L21.2176 29.7762L21.2864 29.685L21.3552 29.5946L21.4248 29.5043L21.4952 29.4147L21.5495 29.3459L21.0465 28.95ZM19.5694 31.0893L19.5278 31.1589L19.4678 31.2613L19.4086 31.3636L19.3502 31.4668L19.2918 31.57L19.2454 31.6532L19.8061 31.9619L19.8501 31.8819L19.906 31.7819L19.9628 31.6827L20.0204 31.5836L20.078 31.4852L20.1196 31.4156L19.5686 31.0901L19.5694 31.0893ZM18.3881 33.4054L18.3521 33.4894L18.3057 33.5997L18.2602 33.7101L18.2154 33.8204L18.1714 33.9316L18.1418 34.0068L18.7384 34.2379L18.7664 34.1667L18.8088 34.0596L18.852 33.9524L18.896 33.8452L18.9407 33.7389L18.9767 33.6549L18.3881 33.4054ZM17.526 35.8574L17.4908 35.9861L17.4596 36.1029L17.4292 36.2205L17.3996 36.338L17.3708 36.4556L17.3628 36.4876L17.985 36.6355L17.9922 36.6075L18.0202 36.4932L18.049 36.3796L18.0786 36.266L18.109 36.1533L18.1434 36.0285L17.526 35.8574ZM16.9981 38.4045L16.9853 38.4997L16.9693 38.6221L16.9541 38.7444L16.9398 38.8676L16.9262 38.9908L16.9198 39.0491L17.5564 39.1139L17.562 39.0595L17.5756 38.9404L17.5892 38.8212L17.6036 38.7028L17.6187 38.5845L17.6315 38.4893L16.9981 38.4045ZM16.8118 40.9973H17.4516V41.1173V41.2396L17.4524 41.362L17.454 41.4843L17.4564 41.6067L17.4572 41.6267L16.8174 41.6467L16.8166 41.6227L16.8134 41.4963L16.811 41.37L16.8094 41.2436L16.8086 41.1173V40.9973H16.8118ZM16.9661 43.5909L16.9685 43.6132L16.9845 43.7356L17.0013 43.858L17.0189 43.9803L17.0373 44.1019L17.0581 44.2362L17.6891 44.1315L17.6691 44.0051L17.6515 43.8876L17.6347 43.7692L17.6187 43.6508L17.6036 43.5325L17.6012 43.5101L16.9661 43.5909ZM17.462 46.1444L17.49 46.2492L17.522 46.3659L17.5548 46.4827L17.5884 46.5987L17.6227 46.7146L17.6395 46.7698L18.2514 46.5835L18.2362 46.5323L18.2034 46.4203L18.1714 46.3084L18.1394 46.1956L18.1082 46.0828L18.0802 45.9781L17.4628 46.1452L17.462 46.1444ZM18.2929 48.6068L18.3049 48.6356L18.3513 48.746L18.3985 48.8555L18.4457 48.9651L18.4937 49.0739L18.5425 49.1826L18.5521 49.2042L19.1335 48.9371L19.1255 48.9187L19.0783 48.8139L19.0319 48.7084L18.9863 48.6028L18.9407 48.4964L18.896 48.3901L18.884 48.3613L18.2929 48.6068ZM19.4454 50.9373L19.467 50.9748L19.527 51.0772L19.5877 51.1788L19.6485 51.2803L19.7101 51.3811L19.7725 51.4819L19.7813 51.4963L20.3219 51.154L20.2547 51.0452L20.1948 50.9476L20.1356 50.8501L20.0772 50.7517L20.0196 50.6533L19.998 50.6158L19.4454 50.9373ZM20.8961 53.0941L20.9185 53.1237L20.9913 53.2165L21.0641 53.3085L21.1377 53.4004L21.212 53.4916L21.2864 53.5828L21.3032 53.6028L21.7943 53.1925L21.7799 53.1757L21.7079 53.0877L21.6359 52.999L21.5647 52.9102L21.4944 52.8206L21.424 52.7311L21.4016 52.7015L20.8961 53.0941ZM22.618 55.0407L22.634 55.0567L22.718 55.1391L22.802 55.2207L22.8867 55.3022L22.9723 55.383L23.0579 55.463L23.0883 55.491L23.5217 55.0199L23.4946 54.9943L23.4114 54.9167L23.329 54.8384L23.2466 54.76L23.1651 54.6808L23.0843 54.6009L23.0683 54.5849L22.6188 55.0399L22.618 55.0407ZM24.5814 56.7442L24.6822 56.8201L24.7766 56.8905L24.8717 56.9601L24.9669 57.0289L25.0629 57.0976L25.1069 57.1288L25.4747 56.605L25.434 56.5762L25.3412 56.5098L25.2492 56.4427L25.1572 56.3755L25.0661 56.3075L24.9677 56.2339L24.5814 56.7442ZM26.7528 58.1741L26.8591 58.2341L26.9623 58.2916L27.0663 58.3484L27.1702 58.4044L27.275 58.4604L27.3238 58.486L27.6189 57.9182L27.5733 57.8942L27.4717 57.8406L27.371 57.7862L27.2702 57.731L27.1702 57.675L27.0671 57.6167L26.7512 58.1733L26.7528 58.1741ZM29.0944 59.3033L29.1104 59.3097L29.2216 59.3537L29.3328 59.3969L29.4447 59.4401L29.5567 59.4825L29.6695 59.524L29.7031 59.536L29.919 58.9338L29.8894 58.9234L29.7806 58.8835L29.6719 58.8427L29.5639 58.8011L29.4559 58.7587L29.3488 58.7163L29.3328 58.7099L29.0944 59.3033ZM31.5665 60.1111L31.6273 60.1262L31.7448 60.155L31.8632 60.1838L31.9816 60.2118L32.0999 60.239L32.1983 60.2606L32.3342 59.6352L32.2399 59.6144L32.1247 59.588L32.0103 59.5608L31.896 59.5336L31.7816 59.5056L31.7208 59.4905L31.5649 60.1111H31.5665ZM34.1233 60.5821L34.1577 60.5861L34.2809 60.5997L34.404 60.6125L34.528 60.6245L34.6519 60.6357L34.7703 60.6461L34.8231 60.0087L34.7087 59.9991L34.5888 59.9879L34.4688 59.9759L34.3496 59.9631L34.2305 59.9495L34.1961 59.9455L34.1233 60.5821ZM36.7201 60.7117L36.7873 60.7109L36.9137 60.7077L37.0392 60.7045L37.1648 60.7005L37.2903 60.6957L37.3695 60.6917L37.3375 60.0527L37.2623 60.0559L37.1408 60.0607L37.0192 60.0647L36.8977 60.0679L36.7753 60.0703L36.7081 60.0711L36.7201 60.7117ZM39.3113 60.5005L39.3921 60.4885L39.5137 60.4693L39.6352 60.4493L39.756 60.4285L39.8767 60.4078L39.9527 60.3942L39.836 59.7648L39.764 59.7776L39.6472 59.7984L39.5305 59.8183L39.4129 59.8375L39.2953 59.8559L39.2145 59.8679L39.3113 60.5005ZM41.8513 59.9479L41.8889 59.9367L42.0049 59.9023L42.1201 59.8679L42.2352 59.8327L42.3504 59.7968L42.4744 59.7568L42.2728 59.1498L42.156 59.1874L42.0449 59.2225L41.9337 59.2569L41.8218 59.2905L41.7098 59.3233L41.6722 59.3345L41.8505 59.9487L41.8513 59.9479ZM44.2962 59.0618L44.3642 59.0314L44.4729 58.9826L44.5809 58.933L44.6889 58.8827L44.7968 58.8323L44.8864 58.7899L44.6089 58.2133L44.5233 58.2541L44.4194 58.3028L44.3146 58.3516L44.2098 58.3996L44.1051 58.4468L44.0371 58.4772L44.2962 59.0618ZM46.6011 57.8582L46.6715 57.815L46.7722 57.7526L46.8722 57.6894L46.9722 57.6263L47.0713 57.5623L47.1505 57.5103L46.7986 56.9761L46.7227 57.0257L46.6267 57.0872L46.5307 57.1488L46.4339 57.2096L46.3372 57.2696L46.2668 57.3128L46.6027 57.8574L46.6011 57.8582ZM48.726 56.3603L48.7836 56.3139L48.8748 56.2395L48.9652 56.1643L49.0555 56.0884L49.1451 56.0124L49.2251 55.9436L48.806 55.4598L48.7292 55.5262L48.6429 55.5997L48.5557 55.6733L48.4685 55.7461L48.3805 55.8181L48.323 55.8644L48.7276 56.3603H48.726ZM50.6343 54.5961L50.675 54.5529L50.755 54.4673L50.835 54.3809L50.9142 54.2946L50.9934 54.2074L51.0749 54.1162L50.5935 53.6947L50.5175 53.7803L50.4415 53.8651L50.3647 53.9491L50.2872 54.0322L50.2096 54.1154L50.1688 54.1586L50.6343 54.5977V54.5961ZM52.2938 52.5959L52.3209 52.5583L52.3897 52.4624L52.4577 52.3664L52.5249 52.2696L52.5921 52.1728L52.6584 52.0753L52.6672 52.0625L52.1346 51.7074L52.0634 51.8114L51.9986 51.9049L51.9331 51.9985L51.8675 52.0913L51.8011 52.184L51.7739 52.2216L52.2938 52.5959ZM53.6749 50.3934L53.6957 50.355L53.7517 50.2503L53.8069 50.1455L53.8613 50.0399L53.9149 49.9344L53.9748 49.8152L53.3998 49.5337L53.3438 49.6457L53.2918 49.748L53.2391 49.8504L53.1855 49.952L53.1319 50.0535L53.1111 50.0919L53.6749 50.3934ZM54.7522 48.027L54.7738 47.9686L54.8154 47.8559L54.8562 47.7431L54.8962 47.6303L54.9353 47.5168L54.9705 47.4152L54.3643 47.2105L54.3307 47.3088L54.2923 47.4184L54.2532 47.528L54.214 47.6367L54.174 47.7455L54.1524 47.8039L54.7522 48.027ZM55.5048 45.5374L55.5304 45.4255L55.5568 45.3063L55.5823 45.1871L55.6071 45.068L55.6311 44.948L55.6399 44.9024L55.0113 44.7817L55.0033 44.824L54.9801 44.94L54.9561 45.0552L54.9313 45.1703L54.9058 45.2855L54.8802 45.3975L55.5048 45.5374ZM55.9182 42.9711L55.927 42.8743L55.9374 42.7503L55.947 42.6264L55.9558 42.5016L55.9638 42.3768L55.967 42.3233L55.328 42.2865L55.3248 42.3361L55.3168 42.4568L55.308 42.5776L55.2984 42.6975L55.288 42.8175L55.2792 42.9143L55.9166 42.9711H55.9182ZM55.991 40.3743C55.983 40.1576 55.9718 39.9408 55.9558 39.7249L55.3176 39.7713C55.3328 39.98 55.3432 40.1904 55.3512 40.3991L55.991 40.3743ZM55.7231 37.7887C55.6863 37.5752 55.6463 37.3617 55.6023 37.1498L54.9761 37.2793C55.0185 37.4848 55.0569 37.6912 55.0929 37.8975L55.7231 37.7887ZM55.1145 35.2616C55.0497 35.0544 54.9817 34.8489 54.9098 34.6442L54.3059 34.8553C54.3747 35.0536 54.4411 35.252 54.5035 35.4527L55.1145 35.2616ZM54.174 32.8376C54.0828 32.6408 53.9868 32.4457 53.8885 32.2522L53.3182 32.5433C53.4134 32.7296 53.5054 32.9183 53.5934 33.1087L54.174 32.8376ZM47.9999 33.946C47.8847 33.7605 47.7655 33.5781 47.6416 33.3982L47.1145 33.7613C47.2329 33.9332 47.3465 34.1076 47.4568 34.2843L47.9999 33.946ZM42.9574 29.1636C42.7655 29.0588 42.5719 28.9588 42.376 28.8621L42.0953 29.4371C42.2824 29.529 42.4672 29.6242 42.6495 29.7242L42.9574 29.1636ZM41.7802 28.5894C41.577 28.5054 41.3779 28.423 41.1723 28.3454L40.9484 28.9452C41.1444 29.0188 41.3347 29.0972 41.5282 29.1772L41.7802 28.5894ZM40.5525 28.1311C40.3446 28.0647 40.1343 28.0031 39.9231 27.9472L39.7592 28.5654C39.9599 28.6189 40.1599 28.6773 40.3582 28.7405L40.5525 28.1311ZM39.2865 27.7944C39.073 27.748 38.8579 27.7072 38.6427 27.6721L38.5396 28.3038C38.7451 28.3382 38.949 28.3766 39.1522 28.4206L39.2865 27.7944ZM37.9941 27.5809C37.7766 27.5561 37.5599 27.5361 37.3415 27.5209L37.2991 28.1591C37.5071 28.1727 37.7142 28.1927 37.9205 28.2159L37.9933 27.5801L37.9941 27.5809ZM36.6881 27.4921C36.5945 27.4905 36.5018 27.4897 36.4082 27.4889H36.3202L36.2323 27.4897L36.1443 27.4913L36.0563 27.4929L36.0315 27.4937L36.0515 28.1335L36.0723 28.1327L36.1563 28.1311L36.2403 28.1295L36.3242 28.1287H36.4082C36.497 28.1287 36.5858 28.1295 36.6753 28.1311L36.6881 27.4921ZM35.3789 27.5273L35.3605 27.5289L35.2742 27.5361L35.1878 27.5433L35.1014 27.5513L35.015 27.5601L34.9295 27.5689L34.8439 27.5785L34.7583 27.5889L34.7263 27.5929L34.8071 28.2279L34.8351 28.2247L34.9167 28.2151L34.9982 28.2063L35.0798 28.1975L35.1614 28.1895L35.2438 28.1823L35.3261 28.1751L35.4085 28.1687L35.4269 28.1671L35.3781 27.5289L35.3789 27.5273ZM34.0777 27.6872L33.9969 27.7016L33.913 27.7168L33.829 27.7328L33.7458 27.7488L33.6626 27.7656L33.5795 27.7832L33.4963 27.8008L33.4363 27.8144L33.5763 28.439L33.6323 28.4262L33.7114 28.4094L33.7906 28.3926L33.8698 28.3766L33.949 28.3614L34.0289 28.3462L34.1089 28.3318L34.1897 28.3174L34.0777 27.6872ZM32.7997 27.972L32.7589 27.9832L32.6781 28.0055L32.5974 28.0287L32.5166 28.0527L32.4366 28.0767L32.3566 28.1015L32.2767 28.1263L32.1967 28.1519L32.1727 28.1599L32.3742 28.7669L32.395 28.7605L32.471 28.7357L32.547 28.7117L32.623 28.6885L32.6997 28.6653L32.7765 28.6429L32.8533 28.6205L32.9301 28.5989L32.9709 28.5878L32.7997 27.972ZM31.5537 28.379L31.4881 28.4038L31.4105 28.4342L31.333 28.4646L31.2562 28.4958L31.1794 28.5278L31.1026 28.5598L31.0267 28.5926L30.9467 28.6269L31.2066 29.2115L31.2794 29.1804L31.3522 29.1492L31.4249 29.1188L31.4977 29.0884L31.5713 29.0588L31.6449 29.0292L31.7184 29.0004L31.784 28.9756L31.5537 28.379ZM30.3549 28.9037L30.2773 28.9428L30.2037 28.9804L30.1301 29.018L30.0573 29.0564L29.9846 29.0948L29.9118 29.134L29.8398 29.1732L29.7758 29.2083L30.0877 29.7666L30.1485 29.733L30.2173 29.6954L30.2861 29.6578L30.3557 29.621L30.4252 29.5842L30.4948 29.5482L30.5652 29.5123L30.6396 29.4747L30.3549 28.9021V28.9037ZM29.2112 29.5418L29.1312 29.5914L29.0617 29.6354L28.9929 29.6802L28.9241 29.725L28.8553 29.7706L28.7873 29.8162L28.7194 29.8625L28.6626 29.9017L29.0273 30.4272L29.0808 30.3904L29.1456 30.3464L29.2104 30.3032L29.276 30.26L29.3416 30.2168L29.4071 30.1744L29.4735 30.132L29.5503 30.0841L29.2112 29.5418ZM28.1339 30.2872L28.058 30.3456L27.9932 30.396L27.9292 30.4463L27.8652 30.4975L27.8012 30.5487L27.7381 30.6007L27.6749 30.6527L27.6221 30.6967L28.0356 31.1853L28.0851 31.1437L28.1451 31.0941L28.2051 31.0446L28.2659 30.9958L28.3267 30.947L28.3883 30.8982L28.4498 30.8502L28.5226 30.7942L28.1331 30.2864L28.1339 30.2872ZM27.1326 31.1317L27.0639 31.1957L27.0047 31.2517L26.9455 31.3085L26.8871 31.3652L26.8287 31.4228L26.7711 31.4804L26.7136 31.538L26.664 31.5884L27.1214 32.0354L27.1678 31.9874L27.223 31.9323L27.2782 31.8771L27.3342 31.8227L27.3902 31.7683L27.4461 31.7147L27.5029 31.6611L27.5685 31.5996L27.1326 31.1317ZM26.2169 32.0682L26.1561 32.137L26.1026 32.1986L26.049 32.2602L25.9962 32.3225L25.9434 32.3849L25.8914 32.4481L25.8394 32.5113L25.7938 32.5673L26.2921 32.9687L26.3353 32.9151L26.3849 32.8552L26.4345 32.7952L26.4848 32.7352L26.5352 32.676L26.5864 32.6168L26.6376 32.5585L26.696 32.4921L26.2177 32.0674L26.2169 32.0682ZM25.3948 33.0879L25.3412 33.1615L25.2932 33.2278L25.246 33.295L25.1988 33.3622L25.1524 33.4294L25.1061 33.4973L25.0605 33.5653L25.0205 33.6253L25.5547 33.9772L25.5923 33.9204L25.6355 33.8556L25.6795 33.7909L25.7235 33.7261L25.7683 33.6621L25.813 33.5981L25.8586 33.5349L25.9098 33.4638L25.3932 33.0871L25.3948 33.0879ZM24.6734 34.1811L24.6254 34.2627L24.5838 34.3339L24.543 34.4051L24.5022 34.477L24.4623 34.549L24.4231 34.621L24.3839 34.6938L24.3527 34.7529L24.9189 35.0512L24.9485 34.9961L24.9861 34.9273L25.0237 34.8585L25.0621 34.7897L25.1005 34.7217L25.1396 34.6538L25.1788 34.5858L25.2244 34.5074L24.6734 34.1811ZM24.0608 35.3391L24.052 35.3583L24.0168 35.4335L23.9824 35.5087L23.9488 35.5847L23.9152 35.6606L23.8824 35.7366L23.8496 35.8126L23.8177 35.8894L23.7969 35.939L24.3895 36.1813L24.4087 36.1349L24.4391 36.0621L24.4703 35.9893L24.5014 35.9166L24.5334 35.8446L24.5654 35.7726L24.5982 35.7006L24.631 35.6287L24.6398 35.6095L24.0608 35.3391ZM23.5625 36.5516L23.5489 36.5891L23.5217 36.6683L23.4946 36.7475L23.4682 36.8267L23.4418 36.9058L23.4162 36.9858L23.3914 37.0658L23.3666 37.1458L23.3578 37.1745L23.9712 37.3569L23.9784 37.3321L24.0016 37.2561L24.0256 37.1801L24.0504 37.1042L24.0752 37.0282L24.1008 36.953L24.1264 36.8778L24.1527 36.8027L24.1663 36.7651L23.5625 36.5516ZM23.1834 37.8063L23.1659 37.8759L23.1459 37.9583L23.1267 38.0407L23.1083 38.123L23.0899 38.2054L23.0723 38.2886L23.0547 38.3718L23.0403 38.4437L23.6681 38.5677L23.6817 38.4997L23.6985 38.4205L23.7153 38.3414L23.7329 38.2622L23.7505 38.1838L23.7689 38.1054L23.7881 38.0271L23.8057 37.9575L23.1842 37.8055L23.1834 37.8063ZM22.9283 39.0907L22.9227 39.1283L22.9107 39.2131L22.8987 39.2979L22.8875 39.3834L22.8771 39.469L22.8667 39.5546L22.8571 39.6401L22.8483 39.7257L22.8467 39.7417L23.4834 39.8025L23.493 39.7089L23.5017 39.6273L23.5113 39.5458L23.5217 39.4642L23.5321 39.3826L23.5433 39.3019L23.5545 39.2211L23.5601 39.1835L22.9267 39.0907H22.9283ZM22.7972 40.3935L22.7956 40.4175L22.7916 40.5047L22.7884 40.5918L22.7852 40.679L22.7828 40.767L22.7812 40.8549L22.7796 40.9429L22.7788 41.0309V41.0493H23.4186L23.4194 40.9509L23.421 40.8669L23.4226 40.783L23.425 40.6998L23.4282 40.6166L23.4314 40.5334L23.4354 40.4503L23.437 40.4263L22.798 40.3943L22.7972 40.3935ZM22.7908 41.7027L22.7924 41.7323L22.7964 41.8194L22.8012 41.9066L22.8068 41.9938L22.8124 42.0801L22.8188 42.1665L22.826 42.2529L22.8332 42.3393L22.8348 42.3569L23.4714 42.2961L23.4634 42.2001L23.457 42.1177L23.4506 42.0354L23.445 41.953L23.4402 41.8698L23.4354 41.7866L23.4314 41.7035L23.4298 41.6739L22.7908 41.7027ZM22.9083 43.007L22.9107 43.0246L22.9227 43.1094L22.9355 43.1942L22.9483 43.279L22.9619 43.3629L22.9763 43.4469L22.9907 43.5309L23.0059 43.6148L23.0131 43.654L23.6417 43.5333L23.6353 43.4981L23.6209 43.4181L23.6065 43.3381L23.5929 43.2582L23.5801 43.1774L23.5673 43.0966L23.5553 43.0158L23.5441 42.9351L23.5417 42.9175L22.9083 43.007ZM23.1507 44.2954L23.1667 44.361L23.1866 44.4434L23.2074 44.5249L23.229 44.6065L23.2506 44.6881L23.273 44.7689L23.2954 44.8496L23.3178 44.9272L23.932 44.7489L23.9104 44.6753L23.8888 44.5985L23.8672 44.5209L23.8464 44.4434L23.8264 44.3658L23.8065 44.2882L23.7873 44.2098L23.7713 44.1443L23.1499 44.2962L23.1507 44.2954ZM23.5161 45.5526L23.5217 45.5694L23.5489 45.6486L23.5769 45.727L23.6057 45.8053L23.6345 45.8837L23.6641 45.9613L23.6937 46.0388L23.7241 46.1164L23.7441 46.1668L24.3375 45.9285L24.3191 45.8813L24.2903 45.8077L24.2615 45.7334L24.2335 45.659L24.2063 45.5846L24.1791 45.5102L24.1527 45.435L24.1264 45.3599L24.1208 45.3431L23.5161 45.5526ZM24.0016 46.7698L24.0168 46.8034L24.052 46.8786L24.0872 46.9538L24.1232 47.0281L24.1591 47.1025L24.1959 47.1769L24.2327 47.2505L24.2703 47.324L24.2887 47.3592L24.8565 47.0641L24.8397 47.0321L24.8038 46.9617L24.7686 46.8914L24.7334 46.821L24.699 46.7498L24.6646 46.6786L24.631 46.6075L24.5982 46.5355L24.583 46.5019L24.0016 46.7698ZM24.6022 47.9342L24.6254 47.9742L24.667 48.0454L24.7094 48.1158L24.7518 48.1861L24.795 48.2565L24.8381 48.3261L24.8821 48.3957L24.9261 48.4653L24.9445 48.4932L25.4811 48.1446L25.4651 48.1198L25.4228 48.0534L25.3812 47.987L25.3396 47.9206L25.2988 47.8535L25.258 47.7863L25.218 47.7191L25.178 47.6511L25.1548 47.6111L24.6022 47.9342ZM25.3116 49.0355L25.3404 49.0763L25.3884 49.1426L25.4372 49.209L25.4859 49.2746L25.5355 49.3402L25.5851 49.4049L25.6355 49.4697L25.6859 49.5345L25.7059 49.5593L26.2065 49.161L26.1889 49.1386L26.1409 49.0771L26.093 49.0155L26.0458 48.9531L25.9986 48.8907L25.9522 48.8283L25.9058 48.7652L25.8602 48.702L25.8314 48.6612L25.3116 49.0355ZM26.1233 50.0631L26.1553 50.0999L26.2097 50.1615L26.2641 50.2223L26.3193 50.2831L26.3745 50.343L26.4297 50.403L26.4856 50.463L26.5416 50.5222L26.5648 50.5462L27.0255 50.1023L27.0047 50.0807L26.9511 50.0239L26.8975 49.9672L26.8447 49.9096L26.7919 49.852L26.74 49.7944L26.688 49.736L26.6368 49.6777L26.6048 49.6409L26.1233 50.0631ZM27.0295 51.0084L27.0639 51.0404L27.1238 51.0964L27.1838 51.1516L27.2438 51.2068L27.3046 51.2619L27.3654 51.3163L27.4269 51.3707L27.4885 51.4243L27.5157 51.4475L27.9316 50.9612L27.9076 50.9404L27.8492 50.8893L27.7908 50.8381L27.7325 50.7861L27.6749 50.7341L27.6173 50.6813L27.5597 50.6286L27.5029 50.575L27.4685 50.543L27.0295 51.0084ZM28.022 51.8633L28.058 51.8913L28.1227 51.9417L28.1875 51.9913L28.2531 52.0409L28.3187 52.0897L28.3851 52.1385L28.4514 52.1864L28.5178 52.2344L28.5474 52.2552L28.9153 51.7314L28.8889 51.713L28.8257 51.6674L28.7625 51.6218L28.6994 51.5754L28.637 51.5291L28.5746 51.4819L28.5122 51.4347L28.4506 51.3867L28.4146 51.3587L28.022 51.8633ZM29.0912 52.6199L29.1312 52.6455L29.2008 52.6895L29.2704 52.7327L29.3408 52.7759L29.4111 52.8182L29.4815 52.8606L29.5527 52.9022L29.6239 52.9438L29.6519 52.9598L29.9678 52.4032L29.943 52.3888L29.875 52.3496L29.807 52.3096L29.7398 52.2696L29.6727 52.2288L29.6055 52.188L29.5391 52.1465L29.4727 52.1049L29.4327 52.0793L29.0912 52.6199ZM30.2285 53.2701L30.2765 53.2949L30.3501 53.3317L30.4244 53.3685L30.4988 53.4044L30.5732 53.4404L30.6484 53.4756L30.7235 53.5108L30.7987 53.5452L30.8195 53.5548L31.0794 52.9702L31.0626 52.9622L30.9907 52.9294L30.9187 52.8966L30.8475 52.863L30.7763 52.8286L30.7051 52.7942L30.6348 52.7591L30.5644 52.7239L30.5164 52.6991L30.2285 53.2701ZM31.4233 53.8083L31.4881 53.8339L31.5657 53.8635L31.6433 53.8931L31.7216 53.9219L31.8 53.9507L31.8784 53.9787L31.9576 54.0058L32.0391 54.0338L32.2407 53.4268L32.2423 53.4276L32.1671 53.402L32.0919 53.3757L32.0167 53.3493L31.9424 53.3221L31.868 53.2949L31.7936 53.2669L31.7192 53.2381L31.6545 53.2125L31.4233 53.8083ZM32.663 54.2274L32.7581 54.2538L32.8389 54.2762L32.9205 54.2978L33.002 54.3193L33.0836 54.3401L33.166 54.3601L33.2484 54.3801L33.298 54.3921L33.4419 53.7683L33.3955 53.7579L33.3172 53.7387L33.2388 53.7195L33.1612 53.6995L33.0836 53.6796L33.006 53.6588L32.9285 53.6372L32.8373 53.6116L32.663 54.2274ZM33.9394 54.5257L33.9953 54.5361L34.0793 54.5505L34.1633 54.5649L34.2473 54.5785L34.332 54.5913L34.4168 54.6041L34.5016 54.616L34.5848 54.6272L34.6695 53.9931L34.5904 53.9819L34.5096 53.9707L34.4288 53.9587L34.348 53.9459L34.2673 53.9331L34.1873 53.9195L34.1073 53.9051L34.0513 53.8947L33.9386 54.5249L33.9394 54.5257ZM35.2374 54.6992L35.2734 54.7024L35.3597 54.7096L35.4461 54.716L35.5325 54.7216L35.6196 54.7272L35.7068 54.732L35.794 54.736L35.8924 54.74L35.9124 54.1002L35.822 54.0962L35.7388 54.0922L35.6556 54.0874L35.5725 54.0826L35.4901 54.077L35.4077 54.0706L35.3253 54.0642L35.2893 54.061L35.2366 54.6984L35.2374 54.6992ZM36.5458 54.748H36.5834L36.6713 54.7464L36.7593 54.7448L36.8473 54.7424L36.9344 54.7392L37.0216 54.736L37.1088 54.732L37.2016 54.7272L37.1608 54.089L37.076 54.0938L36.9928 54.0978L36.9097 54.101L36.8265 54.1042L36.7433 54.1066L36.6593 54.1082L36.5754 54.1098H36.5378L36.5458 54.7496V54.748ZM37.8534 54.6728L37.887 54.6696L37.9725 54.66L38.0581 54.6496L38.1437 54.6392L38.2292 54.628L38.314 54.616L38.3988 54.6041L38.4836 54.5913L38.5044 54.5881L38.4036 53.9563L38.3868 53.9587L38.306 53.9707L38.2253 53.9819L38.1445 53.9931L38.0629 54.0034L37.9813 54.0138L37.8997 54.0234L37.8182 54.0322L37.7846 54.0354L37.8534 54.6712V54.6728ZM39.1474 54.4729L39.2377 54.4545L39.3209 54.4369L39.4033 54.4185L39.4857 54.4001L39.568 54.3809L39.6504 54.3609L39.7328 54.3409L39.7872 54.3273L39.628 53.7075L39.5776 53.7203L39.4993 53.7395L39.4209 53.7587L39.3425 53.7771L39.2641 53.7947L39.185 53.8123L39.1058 53.8291L39.0194 53.8467L39.1474 54.4729ZM40.4174 54.149L40.4606 54.1354L40.5405 54.1106L40.6205 54.085L40.6997 54.0586L40.7789 54.0322L40.858 54.005L40.9372 53.9779L41.0156 53.9499L41.0388 53.9411L40.8189 53.3405L40.7989 53.3477L40.7237 53.3741L40.6485 53.4004L40.5733 53.426L40.4982 53.4516L40.4222 53.4764L40.3462 53.5012L40.2702 53.5252L40.227 53.5388L40.4174 54.149ZM41.6498 53.7035L41.713 53.6772L41.789 53.6444L41.8649 53.6116L41.9409 53.578L42.0169 53.5444L42.0921 53.51L42.1672 53.4748L42.2488 53.4364L41.9713 52.8598L41.8969 52.895L41.825 52.9278L41.753 52.9606L41.681 52.9926L41.609 53.0246L41.5362 53.0558L41.4635 53.0869L41.4003 53.1133L41.6498 53.7035ZM42.8318 53.1421L42.9046 53.1029L42.9766 53.0638L43.0486 53.0238L43.1206 52.983L43.1917 52.9422L43.2629 52.9006L43.3341 52.859L43.4021 52.819L43.0734 52.2704L43.0094 52.3088L42.9414 52.3488L42.8734 52.388L42.8055 52.4272L42.7375 52.4656L42.6687 52.5039L42.5999 52.5415L42.5303 52.5791L42.8326 53.1429L42.8318 53.1421ZM43.9555 52.4687L44.0283 52.42L44.0963 52.3736L44.1634 52.3272L44.2306 52.28L44.2978 52.2328L44.3642 52.1848L44.4306 52.1369L44.4913 52.0921L44.1115 51.577L44.0531 51.6194L43.9899 51.665L43.9267 51.7106L43.8627 51.7554L43.7987 51.8002L43.734 51.8442L43.6692 51.8881L43.5996 51.9345L43.9547 52.4672L43.9555 52.4687ZM45.0096 51.6914L45.0776 51.6354L45.1407 51.5834L45.2031 51.5307L45.2655 51.4779L45.3271 51.4243L45.3887 51.3707L45.4502 51.3163L45.507 51.2651L45.0792 50.7893L45.0248 50.8381L44.9664 50.8893L44.908 50.9404L44.8488 50.9916L44.7896 51.042L44.7297 51.0924L44.6697 51.142L44.6049 51.1956L45.0096 51.6914ZM45.9845 50.8165L46.0453 50.7557L46.1028 50.6981L46.1604 50.6397L46.2172 50.5814L46.274 50.5222L46.33 50.463L46.386 50.403L46.4395 50.3454L45.9685 49.912L45.9173 49.9672L45.8637 50.0239L45.8101 50.0807L45.7565 50.1367L45.7022 50.1927L45.6478 50.2487L45.5926 50.3039L45.5342 50.3614L45.9845 50.8165ZM46.8714 49.8528L46.925 49.788L46.977 49.7248L47.0282 49.6609L47.0793 49.5969L47.1297 49.5329L47.1801 49.4681L47.2305 49.4034L47.2793 49.3394L46.769 48.9531L46.7227 49.0139L46.6747 49.0755L46.6267 49.137L46.5779 49.1986L46.5291 49.2594L46.4803 49.3202L46.4307 49.3802L46.3796 49.4417L46.8706 49.852L46.8714 49.8528ZM47.6624 48.8091L47.7096 48.7396L47.7551 48.6716L47.8007 48.6028L47.8455 48.534L47.8903 48.4653L47.9343 48.3957L47.9783 48.3261L48.0199 48.2597L47.4752 47.9238L47.436 47.987L47.3944 48.0534L47.3521 48.1198L47.3097 48.1853L47.2665 48.2509L47.2233 48.3165L47.1801 48.3813L47.1345 48.4477L47.6624 48.8091ZM48.3494 47.6943L48.3925 47.6159L48.4317 47.5432L48.4701 47.4704L48.5085 47.3976L48.5461 47.324L48.5837 47.2505L48.6205 47.1769L48.6517 47.1129L48.0766 46.8314L48.0471 46.8914L48.0119 46.9617L47.9759 47.0321L47.9399 47.1017L47.9031 47.1713L47.8663 47.2409L47.8287 47.3096L47.7879 47.3848L48.3486 47.6935L48.3494 47.6943ZM48.926 46.5179L48.9332 46.5011L48.966 46.4251L48.998 46.3484L49.0299 46.2716L49.0611 46.1948L49.0915 46.1172L49.1219 46.0397L49.1515 45.9621L49.1707 45.9109L48.5709 45.687L48.5525 45.735L48.5237 45.8093L48.4949 45.8829L48.4653 45.9565L48.4357 46.0301L48.4053 46.1028L48.375 46.1756L48.3438 46.2484L48.3366 46.2652L48.9244 46.5179H48.926ZM49.3866 45.2911L49.3994 45.2519L49.4242 45.1719L49.449 45.092L49.473 45.012L49.497 44.9312L49.5202 44.8504L49.5426 44.7697L49.565 44.6889L49.5722 44.6625L48.9532 44.4994L48.9476 44.5217L48.926 44.5993L48.9044 44.6761L48.882 44.7529L48.8596 44.8296L48.8364 44.9064L48.8132 44.9824L48.7892 45.0584L48.7764 45.0976L49.3866 45.2911ZM49.7265 44.0251L49.7425 43.9491L49.7601 43.866L49.7769 43.7828L49.7929 43.6996L49.8089 43.6156L49.8241 43.5317L49.8385 43.4477L49.8497 43.3829L49.2187 43.2782L49.2083 43.3389L49.1939 43.4189L49.1795 43.4989L49.1643 43.5789L49.1491 43.658L49.1331 43.7372L49.1163 43.8164L49.1003 43.8924L49.7265 44.0251ZM49.9425 42.7335L49.9481 42.6839L49.9577 42.5984L49.9665 42.5128L49.9753 42.4264L49.9833 42.3401L49.9905 42.2537L49.9977 42.1673L50.0041 42.0825L49.3658 42.0378L49.3602 42.1185L49.3539 42.2009L49.3467 42.2833L49.3395 42.3657L49.3315 42.4472L49.3227 42.5288L49.3139 42.6104L49.3083 42.66L49.9441 42.7327L49.9425 42.7335ZM50.0336 41.4276L50.0344 41.3836L50.036 41.2956L50.0368 41.2076V41.1197C50.0368 41.0045 50.0352 40.8885 50.0328 40.7734L49.393 40.7902C49.3962 40.8997 49.397 41.0093 49.397 41.1197V41.2036L49.3962 41.2876L49.3946 41.3716L49.3938 41.4156L50.0336 41.4276ZM50.0009 40.1192C49.9849 39.9017 49.9641 39.6849 49.9377 39.4682L49.3027 39.545C49.3275 39.7521 49.3475 39.9592 49.3626 40.1672L50.0009 40.1192ZM49.8433 38.8188C49.8065 38.6037 49.7649 38.3894 49.7177 38.1758L49.0931 38.3142C49.1379 38.5173 49.1779 38.722 49.2123 38.9268L49.8425 38.818L49.8433 38.8188ZM49.5618 37.54C49.505 37.3297 49.4426 37.1194 49.3746 36.9114L48.766 37.1098C48.8308 37.3073 48.89 37.5072 48.9444 37.708L49.5618 37.54ZM49.1579 36.294C49.0811 36.0901 48.998 35.887 48.9108 35.687L48.3246 35.943C48.4077 36.1333 48.4861 36.3268 48.5597 36.5212L49.1579 36.294ZM48.6349 35.0928C48.5381 34.8969 48.4365 34.7034 48.331 34.5122L47.7719 34.8241C47.8735 35.0057 47.9695 35.1912 48.0614 35.3767L48.6349 35.0928ZM44.4641 35.5847C44.3642 35.4399 44.4002 35.2408 44.5457 35.1408C44.6905 35.0408 44.8896 35.0768 44.9896 35.2224C45.5774 36.0757 46.0405 37.021 46.3548 38.0319C46.6579 39.0099 46.8218 40.0472 46.8218 41.1213C46.8218 43.9971 45.6566 46.6003 43.7716 48.4844C41.8873 50.3686 39.2841 51.5347 36.4082 51.5347C33.5323 51.5347 30.9291 50.3694 29.0449 48.4844C27.1606 46.6003 25.9946 43.9971 25.9946 41.1213C25.9946 38.2454 27.1598 35.6422 29.0449 33.7581C30.9291 31.8739 33.5323 30.7079 36.4082 30.7079C37.2999 30.7079 38.1693 30.8214 39.0018 31.035C39.86 31.2549 40.6733 31.5804 41.4267 31.9954C41.581 32.0802 41.6378 32.2745 41.553 32.4289C41.4683 32.5832 41.2739 32.64 41.1196 32.5553C40.4078 32.1634 39.6448 31.8571 38.8443 31.6524C38.0685 31.4532 37.2527 31.3477 36.4082 31.3477C33.709 31.3477 31.2658 32.4417 29.4975 34.2099C27.7293 35.9781 26.6352 38.4221 26.6352 41.1205C26.6352 43.8196 27.7293 46.2628 29.4975 48.031C31.2658 49.7992 33.7098 50.8933 36.4082 50.8933C39.1074 50.8933 41.5506 49.7992 43.3189 48.031C45.0872 46.2628 46.1812 43.8188 46.1812 41.1205C46.1812 40.108 46.0285 39.1339 45.7446 38.219C45.4502 37.2713 45.0144 36.3844 44.4641 35.5847ZM45.8869 29.2108L38.8906 38.3886L50.5359 27.6137L46.6251 26.1845C46.4595 26.1246 46.374 25.9414 46.4339 25.7759C46.4507 25.7295 46.4779 25.6887 46.5107 25.6559L55.3136 16.6908L48.7636 14.0253L42.9206 27.4961L45.7597 28.7237C45.9213 28.7933 45.9957 28.9812 45.9261 29.142C45.9157 29.1668 45.9021 29.1892 45.8869 29.2092V29.2108ZM36.1539 40.9269L45.1327 29.1476L42.3752 27.9552C42.2136 27.8856 42.1393 27.6976 42.2088 27.5369L48.2926 13.5103C48.2942 13.5047 48.2966 13.4991 48.299 13.4935C48.3654 13.3295 48.5517 13.2512 48.7148 13.3175L55.9942 16.2798C56.0318 16.295 56.067 16.319 56.0982 16.3486C56.2238 16.4717 56.2254 16.674 56.1022 16.7996L47.3081 25.7567L51.2437 27.1946C51.2901 27.2114 51.3332 27.2402 51.3692 27.2786C51.4884 27.4073 51.4804 27.6089 51.3516 27.7288L36.6409 41.3404C36.5306 41.4587 36.3458 41.4763 36.2139 41.3764C36.0739 41.2692 36.0467 41.0693 36.1539 40.9293V40.9269Z"/>
</mask>
<path d="M41.581 38.183C41.4939 38.0295 41.5474 37.8351 41.701 37.748C41.8545 37.6608 42.0489 37.7144 42.1361 37.8679C42.4136 38.355 42.6295 38.8812 42.7759 39.4354C42.9182 39.9744 42.9934 40.5382 42.9934 41.1181C42.9934 42.9359 42.2568 44.5817 41.0652 45.7733C39.8735 46.9649 38.2277 47.7015 36.4098 47.7015C34.592 47.7015 32.9461 46.9649 31.7544 45.7733C30.5628 44.5817 29.8262 42.9359 29.8262 41.1181C29.8262 39.3003 30.5628 37.6544 31.7544 36.4628C32.9461 35.2712 34.592 34.5346 36.4098 34.5346C36.8817 34.5346 37.3431 34.585 37.7894 34.6802C38.246 34.7777 38.6859 34.9225 39.1034 35.1104C39.2641 35.1824 39.3361 35.3711 39.2649 35.5319C39.193 35.6926 39.0042 35.7646 38.8435 35.6934C38.4684 35.5247 38.0709 35.3935 37.6566 35.3056C37.2559 35.22 36.8385 35.1752 36.409 35.1752C34.7679 35.1752 33.282 35.8406 32.2063 36.9162C31.1306 37.9919 30.4652 39.4778 30.4652 41.1189C30.4652 42.7599 31.1306 44.2458 32.2063 45.3215C33.282 46.3971 34.7679 47.0625 36.409 47.0625C38.0501 47.0625 39.5361 46.3971 40.6117 45.3215C41.6874 44.2458 42.3528 42.7599 42.3528 41.1189C42.3528 40.5918 42.2848 40.0824 42.1576 39.5994C42.0257 39.0987 41.8297 38.6237 41.5802 38.1846L41.581 38.183ZM52.9216 30.5583C52.8048 30.376 52.6848 30.1952 52.5617 30.0169L52.0346 30.38C52.1538 30.5527 52.2698 30.7279 52.3833 30.9046L52.9216 30.5583ZM39.5528 21.7716C39.3385 21.7372 39.1242 21.706 38.909 21.6788L38.8283 22.3138C39.0362 22.341 39.2441 22.3706 39.4513 22.4034L39.5528 21.7716ZM36.9648 21.5285C36.7481 21.5229 36.5314 21.5205 36.3146 21.5213L36.3186 22.1611C36.529 22.1603 36.7377 22.1627 36.9472 22.1683L36.9648 21.5285ZM34.3664 21.626L34.2833 21.6348L34.1601 21.6484L34.0369 21.6628L33.9146 21.678L33.7922 21.694L33.721 21.7036L33.8098 22.337L33.877 22.3282L33.9953 22.313L34.1137 22.2986L34.2329 22.285L34.352 22.2714L34.4352 22.2626L34.3664 21.626ZM31.804 22.0651L31.748 22.0787L31.6305 22.1075L31.5129 22.1371L31.3953 22.1675L31.2786 22.1986L31.1754 22.2266L31.3466 22.8432L31.4457 22.816L31.5585 22.7856L31.6721 22.7561L31.7856 22.7273L31.9 22.6993L31.956 22.6857L31.804 22.0651ZM29.3216 22.8416L29.224 22.88L29.1128 22.924L29.0025 22.9688L28.8921 23.0144L28.7817 23.0608L28.7202 23.0872L28.9729 23.675L29.0305 23.6502L29.1368 23.6054L29.244 23.5614L29.3512 23.5182L29.4583 23.4758L29.5559 23.4374L29.3216 22.8416ZM26.9671 23.9413L26.8607 24.0005L26.7576 24.0588L26.6544 24.1172L26.552 24.1764L26.4496 24.2364L26.4017 24.2652L26.7304 24.8138L26.7751 24.7874L26.8735 24.7298L26.9727 24.6722L27.0719 24.6155L27.1718 24.5595L27.275 24.5019L26.9671 23.9413ZM24.7766 25.3448L24.6838 25.4136L24.5894 25.4848L24.4958 25.5559L24.4023 25.6279L24.3095 25.7007L24.2599 25.7399L24.6582 26.2405L24.7046 26.2037L24.7942 26.1334L24.8845 26.0638L24.9749 25.995L25.0661 25.9262L25.1588 25.8574L24.7766 25.3448ZM22.7924 27.0243L22.7196 27.0954L22.6356 27.1778L22.5524 27.261L22.4693 27.3442L22.3869 27.4281L22.3333 27.4833L22.794 27.9272L22.8451 27.8744L22.9251 27.7936L23.0051 27.7128L23.0859 27.6329L23.1667 27.5529L23.2394 27.4817L22.7924 27.0243ZM21.0465 28.95L20.9921 29.0188L20.9193 29.1116L20.8474 29.2052L20.7762 29.2987L20.705 29.3931L20.6506 29.4659L21.1657 29.8457L21.2176 29.7762L21.2864 29.685L21.3552 29.5946L21.4248 29.5043L21.4952 29.4147L21.5495 29.3459L21.0465 28.95ZM19.5694 31.0893L19.5278 31.1589L19.4678 31.2613L19.4086 31.3636L19.3502 31.4668L19.2918 31.57L19.2454 31.6532L19.8061 31.9619L19.8501 31.8819L19.906 31.7819L19.9628 31.6827L20.0204 31.5836L20.078 31.4852L20.1196 31.4156L19.5686 31.0901L19.5694 31.0893ZM18.3881 33.4054L18.3521 33.4894L18.3057 33.5997L18.2602 33.7101L18.2154 33.8204L18.1714 33.9316L18.1418 34.0068L18.7384 34.2379L18.7664 34.1667L18.8088 34.0596L18.852 33.9524L18.896 33.8452L18.9407 33.7389L18.9767 33.6549L18.3881 33.4054ZM17.526 35.8574L17.4908 35.9861L17.4596 36.1029L17.4292 36.2205L17.3996 36.338L17.3708 36.4556L17.3628 36.4876L17.985 36.6355L17.9922 36.6075L18.0202 36.4932L18.049 36.3796L18.0786 36.266L18.109 36.1533L18.1434 36.0285L17.526 35.8574ZM16.9981 38.4045L16.9853 38.4997L16.9693 38.6221L16.9541 38.7444L16.9398 38.8676L16.9262 38.9908L16.9198 39.0491L17.5564 39.1139L17.562 39.0595L17.5756 38.9404L17.5892 38.8212L17.6036 38.7028L17.6187 38.5845L17.6315 38.4893L16.9981 38.4045ZM16.8118 40.9973H17.4516V41.1173V41.2396L17.4524 41.362L17.454 41.4843L17.4564 41.6067L17.4572 41.6267L16.8174 41.6467L16.8166 41.6227L16.8134 41.4963L16.811 41.37L16.8094 41.2436L16.8086 41.1173V40.9973H16.8118ZM16.9661 43.5909L16.9685 43.6132L16.9845 43.7356L17.0013 43.858L17.0189 43.9803L17.0373 44.1019L17.0581 44.2362L17.6891 44.1315L17.6691 44.0051L17.6515 43.8876L17.6347 43.7692L17.6187 43.6508L17.6036 43.5325L17.6012 43.5101L16.9661 43.5909ZM17.462 46.1444L17.49 46.2492L17.522 46.3659L17.5548 46.4827L17.5884 46.5987L17.6227 46.7146L17.6395 46.7698L18.2514 46.5835L18.2362 46.5323L18.2034 46.4203L18.1714 46.3084L18.1394 46.1956L18.1082 46.0828L18.0802 45.9781L17.4628 46.1452L17.462 46.1444ZM18.2929 48.6068L18.3049 48.6356L18.3513 48.746L18.3985 48.8555L18.4457 48.9651L18.4937 49.0739L18.5425 49.1826L18.5521 49.2042L19.1335 48.9371L19.1255 48.9187L19.0783 48.8139L19.0319 48.7084L18.9863 48.6028L18.9407 48.4964L18.896 48.3901L18.884 48.3613L18.2929 48.6068ZM19.4454 50.9373L19.467 50.9748L19.527 51.0772L19.5877 51.1788L19.6485 51.2803L19.7101 51.3811L19.7725 51.4819L19.7813 51.4963L20.3219 51.154L20.2547 51.0452L20.1948 50.9476L20.1356 50.8501L20.0772 50.7517L20.0196 50.6533L19.998 50.6158L19.4454 50.9373ZM20.8961 53.0941L20.9185 53.1237L20.9913 53.2165L21.0641 53.3085L21.1377 53.4004L21.212 53.4916L21.2864 53.5828L21.3032 53.6028L21.7943 53.1925L21.7799 53.1757L21.7079 53.0877L21.6359 52.999L21.5647 52.9102L21.4944 52.8206L21.424 52.7311L21.4016 52.7015L20.8961 53.0941ZM22.618 55.0407L22.634 55.0567L22.718 55.1391L22.802 55.2207L22.8867 55.3022L22.9723 55.383L23.0579 55.463L23.0883 55.491L23.5217 55.0199L23.4946 54.9943L23.4114 54.9167L23.329 54.8384L23.2466 54.76L23.1651 54.6808L23.0843 54.6009L23.0683 54.5849L22.6188 55.0399L22.618 55.0407ZM24.5814 56.7442L24.6822 56.8201L24.7766 56.8905L24.8717 56.9601L24.9669 57.0289L25.0629 57.0976L25.1069 57.1288L25.4747 56.605L25.434 56.5762L25.3412 56.5098L25.2492 56.4427L25.1572 56.3755L25.0661 56.3075L24.9677 56.2339L24.5814 56.7442ZM26.7528 58.1741L26.8591 58.2341L26.9623 58.2916L27.0663 58.3484L27.1702 58.4044L27.275 58.4604L27.3238 58.486L27.6189 57.9182L27.5733 57.8942L27.4717 57.8406L27.371 57.7862L27.2702 57.731L27.1702 57.675L27.0671 57.6167L26.7512 58.1733L26.7528 58.1741ZM29.0944 59.3033L29.1104 59.3097L29.2216 59.3537L29.3328 59.3969L29.4447 59.4401L29.5567 59.4825L29.6695 59.524L29.7031 59.536L29.919 58.9338L29.8894 58.9234L29.7806 58.8835L29.6719 58.8427L29.5639 58.8011L29.4559 58.7587L29.3488 58.7163L29.3328 58.7099L29.0944 59.3033ZM31.5665 60.1111L31.6273 60.1262L31.7448 60.155L31.8632 60.1838L31.9816 60.2118L32.0999 60.239L32.1983 60.2606L32.3342 59.6352L32.2399 59.6144L32.1247 59.588L32.0103 59.5608L31.896 59.5336L31.7816 59.5056L31.7208 59.4905L31.5649 60.1111H31.5665ZM34.1233 60.5821L34.1577 60.5861L34.2809 60.5997L34.404 60.6125L34.528 60.6245L34.6519 60.6357L34.7703 60.6461L34.8231 60.0087L34.7087 59.9991L34.5888 59.9879L34.4688 59.9759L34.3496 59.9631L34.2305 59.9495L34.1961 59.9455L34.1233 60.5821ZM36.7201 60.7117L36.7873 60.7109L36.9137 60.7077L37.0392 60.7045L37.1648 60.7005L37.2903 60.6957L37.3695 60.6917L37.3375 60.0527L37.2623 60.0559L37.1408 60.0607L37.0192 60.0647L36.8977 60.0679L36.7753 60.0703L36.7081 60.0711L36.7201 60.7117ZM39.3113 60.5005L39.3921 60.4885L39.5137 60.4693L39.6352 60.4493L39.756 60.4285L39.8767 60.4078L39.9527 60.3942L39.836 59.7648L39.764 59.7776L39.6472 59.7984L39.5305 59.8183L39.4129 59.8375L39.2953 59.8559L39.2145 59.8679L39.3113 60.5005ZM41.8513 59.9479L41.8889 59.9367L42.0049 59.9023L42.1201 59.8679L42.2352 59.8327L42.3504 59.7968L42.4744 59.7568L42.2728 59.1498L42.156 59.1874L42.0449 59.2225L41.9337 59.2569L41.8218 59.2905L41.7098 59.3233L41.6722 59.3345L41.8505 59.9487L41.8513 59.9479ZM44.2962 59.0618L44.3642 59.0314L44.4729 58.9826L44.5809 58.933L44.6889 58.8827L44.7968 58.8323L44.8864 58.7899L44.6089 58.2133L44.5233 58.2541L44.4194 58.3028L44.3146 58.3516L44.2098 58.3996L44.1051 58.4468L44.0371 58.4772L44.2962 59.0618ZM46.6011 57.8582L46.6715 57.815L46.7722 57.7526L46.8722 57.6894L46.9722 57.6263L47.0713 57.5623L47.1505 57.5103L46.7986 56.9761L46.7227 57.0257L46.6267 57.0872L46.5307 57.1488L46.4339 57.2096L46.3372 57.2696L46.2668 57.3128L46.6027 57.8574L46.6011 57.8582ZM48.726 56.3603L48.7836 56.3139L48.8748 56.2395L48.9652 56.1643L49.0555 56.0884L49.1451 56.0124L49.2251 55.9436L48.806 55.4598L48.7292 55.5262L48.6429 55.5997L48.5557 55.6733L48.4685 55.7461L48.3805 55.8181L48.323 55.8644L48.7276 56.3603H48.726ZM50.6343 54.5961L50.675 54.5529L50.755 54.4673L50.835 54.3809L50.9142 54.2946L50.9934 54.2074L51.0749 54.1162L50.5935 53.6947L50.5175 53.7803L50.4415 53.8651L50.3647 53.9491L50.2872 54.0322L50.2096 54.1154L50.1688 54.1586L50.6343 54.5977V54.5961ZM52.2938 52.5959L52.3209 52.5583L52.3897 52.4624L52.4577 52.3664L52.5249 52.2696L52.5921 52.1728L52.6584 52.0753L52.6672 52.0625L52.1346 51.7074L52.0634 51.8114L51.9986 51.9049L51.9331 51.9985L51.8675 52.0913L51.8011 52.184L51.7739 52.2216L52.2938 52.5959ZM53.6749 50.3934L53.6957 50.355L53.7517 50.2503L53.8069 50.1455L53.8613 50.0399L53.9149 49.9344L53.9748 49.8152L53.3998 49.5337L53.3438 49.6457L53.2918 49.748L53.2391 49.8504L53.1855 49.952L53.1319 50.0535L53.1111 50.0919L53.6749 50.3934ZM54.7522 48.027L54.7738 47.9686L54.8154 47.8559L54.8562 47.7431L54.8962 47.6303L54.9353 47.5168L54.9705 47.4152L54.3643 47.2105L54.3307 47.3088L54.2923 47.4184L54.2532 47.528L54.214 47.6367L54.174 47.7455L54.1524 47.8039L54.7522 48.027ZM55.5048 45.5374L55.5304 45.4255L55.5568 45.3063L55.5823 45.1871L55.6071 45.068L55.6311 44.948L55.6399 44.9024L55.0113 44.7817L55.0033 44.824L54.9801 44.94L54.9561 45.0552L54.9313 45.1703L54.9058 45.2855L54.8802 45.3975L55.5048 45.5374ZM55.9182 42.9711L55.927 42.8743L55.9374 42.7503L55.947 42.6264L55.9558 42.5016L55.9638 42.3768L55.967 42.3233L55.328 42.2865L55.3248 42.3361L55.3168 42.4568L55.308 42.5776L55.2984 42.6975L55.288 42.8175L55.2792 42.9143L55.9166 42.9711H55.9182ZM55.991 40.3743C55.983 40.1576 55.9718 39.9408 55.9558 39.7249L55.3176 39.7713C55.3328 39.98 55.3432 40.1904 55.3512 40.3991L55.991 40.3743ZM55.7231 37.7887C55.6863 37.5752 55.6463 37.3617 55.6023 37.1498L54.9761 37.2793C55.0185 37.4848 55.0569 37.6912 55.0929 37.8975L55.7231 37.7887ZM55.1145 35.2616C55.0497 35.0544 54.9817 34.8489 54.9098 34.6442L54.3059 34.8553C54.3747 35.0536 54.4411 35.252 54.5035 35.4527L55.1145 35.2616ZM54.174 32.8376C54.0828 32.6408 53.9868 32.4457 53.8885 32.2522L53.3182 32.5433C53.4134 32.7296 53.5054 32.9183 53.5934 33.1087L54.174 32.8376ZM47.9999 33.946C47.8847 33.7605 47.7655 33.5781 47.6416 33.3982L47.1145 33.7613C47.2329 33.9332 47.3465 34.1076 47.4568 34.2843L47.9999 33.946ZM42.9574 29.1636C42.7655 29.0588 42.5719 28.9588 42.376 28.8621L42.0953 29.4371C42.2824 29.529 42.4672 29.6242 42.6495 29.7242L42.9574 29.1636ZM41.7802 28.5894C41.577 28.5054 41.3779 28.423 41.1723 28.3454L40.9484 28.9452C41.1444 29.0188 41.3347 29.0972 41.5282 29.1772L41.7802 28.5894ZM40.5525 28.1311C40.3446 28.0647 40.1343 28.0031 39.9231 27.9472L39.7592 28.5654C39.9599 28.6189 40.1599 28.6773 40.3582 28.7405L40.5525 28.1311ZM39.2865 27.7944C39.073 27.748 38.8579 27.7072 38.6427 27.6721L38.5396 28.3038C38.7451 28.3382 38.949 28.3766 39.1522 28.4206L39.2865 27.7944ZM37.9941 27.5809C37.7766 27.5561 37.5599 27.5361 37.3415 27.5209L37.2991 28.1591C37.5071 28.1727 37.7142 28.1927 37.9205 28.2159L37.9933 27.5801L37.9941 27.5809ZM36.6881 27.4921C36.5945 27.4905 36.5018 27.4897 36.4082 27.4889H36.3202L36.2323 27.4897L36.1443 27.4913L36.0563 27.4929L36.0315 27.4937L36.0515 28.1335L36.0723 28.1327L36.1563 28.1311L36.2403 28.1295L36.3242 28.1287H36.4082C36.497 28.1287 36.5858 28.1295 36.6753 28.1311L36.6881 27.4921ZM35.3789 27.5273L35.3605 27.5289L35.2742 27.5361L35.1878 27.5433L35.1014 27.5513L35.015 27.5601L34.9295 27.5689L34.8439 27.5785L34.7583 27.5889L34.7263 27.5929L34.8071 28.2279L34.8351 28.2247L34.9167 28.2151L34.9982 28.2063L35.0798 28.1975L35.1614 28.1895L35.2438 28.1823L35.3261 28.1751L35.4085 28.1687L35.4269 28.1671L35.3781 27.5289L35.3789 27.5273ZM34.0777 27.6872L33.9969 27.7016L33.913 27.7168L33.829 27.7328L33.7458 27.7488L33.6626 27.7656L33.5795 27.7832L33.4963 27.8008L33.4363 27.8144L33.5763 28.439L33.6323 28.4262L33.7114 28.4094L33.7906 28.3926L33.8698 28.3766L33.949 28.3614L34.0289 28.3462L34.1089 28.3318L34.1897 28.3174L34.0777 27.6872ZM32.7997 27.972L32.7589 27.9832L32.6781 28.0055L32.5974 28.0287L32.5166 28.0527L32.4366 28.0767L32.3566 28.1015L32.2767 28.1263L32.1967 28.1519L32.1727 28.1599L32.3742 28.7669L32.395 28.7605L32.471 28.7357L32.547 28.7117L32.623 28.6885L32.6997 28.6653L32.7765 28.6429L32.8533 28.6205L32.9301 28.5989L32.9709 28.5878L32.7997 27.972ZM31.5537 28.379L31.4881 28.4038L31.4105 28.4342L31.333 28.4646L31.2562 28.4958L31.1794 28.5278L31.1026 28.5598L31.0267 28.5926L30.9467 28.6269L31.2066 29.2115L31.2794 29.1804L31.3522 29.1492L31.4249 29.1188L31.4977 29.0884L31.5713 29.0588L31.6449 29.0292L31.7184 29.0004L31.784 28.9756L31.5537 28.379ZM30.3549 28.9037L30.2773 28.9428L30.2037 28.9804L30.1301 29.018L30.0573 29.0564L29.9846 29.0948L29.9118 29.134L29.8398 29.1732L29.7758 29.2083L30.0877 29.7666L30.1485 29.733L30.2173 29.6954L30.2861 29.6578L30.3557 29.621L30.4252 29.5842L30.4948 29.5482L30.5652 29.5123L30.6396 29.4747L30.3549 28.9021V28.9037ZM29.2112 29.5418L29.1312 29.5914L29.0617 29.6354L28.9929 29.6802L28.9241 29.725L28.8553 29.7706L28.7873 29.8162L28.7194 29.8625L28.6626 29.9017L29.0273 30.4272L29.0808 30.3904L29.1456 30.3464L29.2104 30.3032L29.276 30.26L29.3416 30.2168L29.4071 30.1744L29.4735 30.132L29.5503 30.0841L29.2112 29.5418ZM28.1339 30.2872L28.058 30.3456L27.9932 30.396L27.9292 30.4463L27.8652 30.4975L27.8012 30.5487L27.7381 30.6007L27.6749 30.6527L27.6221 30.6967L28.0356 31.1853L28.0851 31.1437L28.1451 31.0941L28.2051 31.0446L28.2659 30.9958L28.3267 30.947L28.3883 30.8982L28.4498 30.8502L28.5226 30.7942L28.1331 30.2864L28.1339 30.2872ZM27.1326 31.1317L27.0639 31.1957L27.0047 31.2517L26.9455 31.3085L26.8871 31.3652L26.8287 31.4228L26.7711 31.4804L26.7136 31.538L26.664 31.5884L27.1214 32.0354L27.1678 31.9874L27.223 31.9323L27.2782 31.8771L27.3342 31.8227L27.3902 31.7683L27.4461 31.7147L27.5029 31.6611L27.5685 31.5996L27.1326 31.1317ZM26.2169 32.0682L26.1561 32.137L26.1026 32.1986L26.049 32.2602L25.9962 32.3225L25.9434 32.3849L25.8914 32.4481L25.8394 32.5113L25.7938 32.5673L26.2921 32.9687L26.3353 32.9151L26.3849 32.8552L26.4345 32.7952L26.4848 32.7352L26.5352 32.676L26.5864 32.6168L26.6376 32.5585L26.696 32.4921L26.2177 32.0674L26.2169 32.0682ZM25.3948 33.0879L25.3412 33.1615L25.2932 33.2278L25.246 33.295L25.1988 33.3622L25.1524 33.4294L25.1061 33.4973L25.0605 33.5653L25.0205 33.6253L25.5547 33.9772L25.5923 33.9204L25.6355 33.8556L25.6795 33.7909L25.7235 33.7261L25.7683 33.6621L25.813 33.5981L25.8586 33.5349L25.9098 33.4638L25.3932 33.0871L25.3948 33.0879ZM24.6734 34.1811L24.6254 34.2627L24.5838 34.3339L24.543 34.4051L24.5022 34.477L24.4623 34.549L24.4231 34.621L24.3839 34.6938L24.3527 34.7529L24.9189 35.0512L24.9485 34.9961L24.9861 34.9273L25.0237 34.8585L25.0621 34.7897L25.1005 34.7217L25.1396 34.6538L25.1788 34.5858L25.2244 34.5074L24.6734 34.1811ZM24.0608 35.3391L24.052 35.3583L24.0168 35.4335L23.9824 35.5087L23.9488 35.5847L23.9152 35.6606L23.8824 35.7366L23.8496 35.8126L23.8177 35.8894L23.7969 35.939L24.3895 36.1813L24.4087 36.1349L24.4391 36.0621L24.4703 35.9893L24.5014 35.9166L24.5334 35.8446L24.5654 35.7726L24.5982 35.7006L24.631 35.6287L24.6398 35.6095L24.0608 35.3391ZM23.5625 36.5516L23.5489 36.5891L23.5217 36.6683L23.4946 36.7475L23.4682 36.8267L23.4418 36.9058L23.4162 36.9858L23.3914 37.0658L23.3666 37.1458L23.3578 37.1745L23.9712 37.3569L23.9784 37.3321L24.0016 37.2561L24.0256 37.1801L24.0504 37.1042L24.0752 37.0282L24.1008 36.953L24.1264 36.8778L24.1527 36.8027L24.1663 36.7651L23.5625 36.5516ZM23.1834 37.8063L23.1659 37.8759L23.1459 37.9583L23.1267 38.0407L23.1083 38.123L23.0899 38.2054L23.0723 38.2886L23.0547 38.3718L23.0403 38.4437L23.6681 38.5677L23.6817 38.4997L23.6985 38.4205L23.7153 38.3414L23.7329 38.2622L23.7505 38.1838L23.7689 38.1054L23.7881 38.0271L23.8057 37.9575L23.1842 37.8055L23.1834 37.8063ZM22.9283 39.0907L22.9227 39.1283L22.9107 39.2131L22.8987 39.2979L22.8875 39.3834L22.8771 39.469L22.8667 39.5546L22.8571 39.6401L22.8483 39.7257L22.8467 39.7417L23.4834 39.8025L23.493 39.7089L23.5017 39.6273L23.5113 39.5458L23.5217 39.4642L23.5321 39.3826L23.5433 39.3019L23.5545 39.2211L23.5601 39.1835L22.9267 39.0907H22.9283ZM22.7972 40.3935L22.7956 40.4175L22.7916 40.5047L22.7884 40.5918L22.7852 40.679L22.7828 40.767L22.7812 40.8549L22.7796 40.9429L22.7788 41.0309V41.0493H23.4186L23.4194 40.9509L23.421 40.8669L23.4226 40.783L23.425 40.6998L23.4282 40.6166L23.4314 40.5334L23.4354 40.4503L23.437 40.4263L22.798 40.3943L22.7972 40.3935ZM22.7908 41.7027L22.7924 41.7323L22.7964 41.8194L22.8012 41.9066L22.8068 41.9938L22.8124 42.0801L22.8188 42.1665L22.826 42.2529L22.8332 42.3393L22.8348 42.3569L23.4714 42.2961L23.4634 42.2001L23.457 42.1177L23.4506 42.0354L23.445 41.953L23.4402 41.8698L23.4354 41.7866L23.4314 41.7035L23.4298 41.6739L22.7908 41.7027ZM22.9083 43.007L22.9107 43.0246L22.9227 43.1094L22.9355 43.1942L22.9483 43.279L22.9619 43.3629L22.9763 43.4469L22.9907 43.5309L23.0059 43.6148L23.0131 43.654L23.6417 43.5333L23.6353 43.4981L23.6209 43.4181L23.6065 43.3381L23.5929 43.2582L23.5801 43.1774L23.5673 43.0966L23.5553 43.0158L23.5441 42.9351L23.5417 42.9175L22.9083 43.007ZM23.1507 44.2954L23.1667 44.361L23.1866 44.4434L23.2074 44.5249L23.229 44.6065L23.2506 44.6881L23.273 44.7689L23.2954 44.8496L23.3178 44.9272L23.932 44.7489L23.9104 44.6753L23.8888 44.5985L23.8672 44.5209L23.8464 44.4434L23.8264 44.3658L23.8065 44.2882L23.7873 44.2098L23.7713 44.1443L23.1499 44.2962L23.1507 44.2954ZM23.5161 45.5526L23.5217 45.5694L23.5489 45.6486L23.5769 45.727L23.6057 45.8053L23.6345 45.8837L23.6641 45.9613L23.6937 46.0388L23.7241 46.1164L23.7441 46.1668L24.3375 45.9285L24.3191 45.8813L24.2903 45.8077L24.2615 45.7334L24.2335 45.659L24.2063 45.5846L24.1791 45.5102L24.1527 45.435L24.1264 45.3599L24.1208 45.3431L23.5161 45.5526ZM24.0016 46.7698L24.0168 46.8034L24.052 46.8786L24.0872 46.9538L24.1232 47.0281L24.1591 47.1025L24.1959 47.1769L24.2327 47.2505L24.2703 47.324L24.2887 47.3592L24.8565 47.0641L24.8397 47.0321L24.8038 46.9617L24.7686 46.8914L24.7334 46.821L24.699 46.7498L24.6646 46.6786L24.631 46.6075L24.5982 46.5355L24.583 46.5019L24.0016 46.7698ZM24.6022 47.9342L24.6254 47.9742L24.667 48.0454L24.7094 48.1158L24.7518 48.1861L24.795 48.2565L24.8381 48.3261L24.8821 48.3957L24.9261 48.4653L24.9445 48.4932L25.4811 48.1446L25.4651 48.1198L25.4228 48.0534L25.3812 47.987L25.3396 47.9206L25.2988 47.8535L25.258 47.7863L25.218 47.7191L25.178 47.6511L25.1548 47.6111L24.6022 47.9342ZM25.3116 49.0355L25.3404 49.0763L25.3884 49.1426L25.4372 49.209L25.4859 49.2746L25.5355 49.3402L25.5851 49.4049L25.6355 49.4697L25.6859 49.5345L25.7059 49.5593L26.2065 49.161L26.1889 49.1386L26.1409 49.0771L26.093 49.0155L26.0458 48.9531L25.9986 48.8907L25.9522 48.8283L25.9058 48.7652L25.8602 48.702L25.8314 48.6612L25.3116 49.0355ZM26.1233 50.0631L26.1553 50.0999L26.2097 50.1615L26.2641 50.2223L26.3193 50.2831L26.3745 50.343L26.4297 50.403L26.4856 50.463L26.5416 50.5222L26.5648 50.5462L27.0255 50.1023L27.0047 50.0807L26.9511 50.0239L26.8975 49.9672L26.8447 49.9096L26.7919 49.852L26.74 49.7944L26.688 49.736L26.6368 49.6777L26.6048 49.6409L26.1233 50.0631ZM27.0295 51.0084L27.0639 51.0404L27.1238 51.0964L27.1838 51.1516L27.2438 51.2068L27.3046 51.2619L27.3654 51.3163L27.4269 51.3707L27.4885 51.4243L27.5157 51.4475L27.9316 50.9612L27.9076 50.9404L27.8492 50.8893L27.7908 50.8381L27.7325 50.7861L27.6749 50.7341L27.6173 50.6813L27.5597 50.6286L27.5029 50.575L27.4685 50.543L27.0295 51.0084ZM28.022 51.8633L28.058 51.8913L28.1227 51.9417L28.1875 51.9913L28.2531 52.0409L28.3187 52.0897L28.3851 52.1385L28.4514 52.1864L28.5178 52.2344L28.5474 52.2552L28.9153 51.7314L28.8889 51.713L28.8257 51.6674L28.7625 51.6218L28.6994 51.5754L28.637 51.5291L28.5746 51.4819L28.5122 51.4347L28.4506 51.3867L28.4146 51.3587L28.022 51.8633ZM29.0912 52.6199L29.1312 52.6455L29.2008 52.6895L29.2704 52.7327L29.3408 52.7759L29.4111 52.8182L29.4815 52.8606L29.5527 52.9022L29.6239 52.9438L29.6519 52.9598L29.9678 52.4032L29.943 52.3888L29.875 52.3496L29.807 52.3096L29.7398 52.2696L29.6727 52.2288L29.6055 52.188L29.5391 52.1465L29.4727 52.1049L29.4327 52.0793L29.0912 52.6199ZM30.2285 53.2701L30.2765 53.2949L30.3501 53.3317L30.4244 53.3685L30.4988 53.4044L30.5732 53.4404L30.6484 53.4756L30.7235 53.5108L30.7987 53.5452L30.8195 53.5548L31.0794 52.9702L31.0626 52.9622L30.9907 52.9294L30.9187 52.8966L30.8475 52.863L30.7763 52.8286L30.7051 52.7942L30.6348 52.7591L30.5644 52.7239L30.5164 52.6991L30.2285 53.2701ZM31.4233 53.8083L31.4881 53.8339L31.5657 53.8635L31.6433 53.8931L31.7216 53.9219L31.8 53.9507L31.8784 53.9787L31.9576 54.0058L32.0391 54.0338L32.2407 53.4268L32.2423 53.4276L32.1671 53.402L32.0919 53.3757L32.0167 53.3493L31.9424 53.3221L31.868 53.2949L31.7936 53.2669L31.7192 53.2381L31.6545 53.2125L31.4233 53.8083ZM32.663 54.2274L32.7581 54.2538L32.8389 54.2762L32.9205 54.2978L33.002 54.3193L33.0836 54.3401L33.166 54.3601L33.2484 54.3801L33.298 54.3921L33.4419 53.7683L33.3955 53.7579L33.3172 53.7387L33.2388 53.7195L33.1612 53.6995L33.0836 53.6796L33.006 53.6588L32.9285 53.6372L32.8373 53.6116L32.663 54.2274ZM33.9394 54.5257L33.9953 54.5361L34.0793 54.5505L34.1633 54.5649L34.2473 54.5785L34.332 54.5913L34.4168 54.6041L34.5016 54.616L34.5848 54.6272L34.6695 53.9931L34.5904 53.9819L34.5096 53.9707L34.4288 53.9587L34.348 53.9459L34.2673 53.9331L34.1873 53.9195L34.1073 53.9051L34.0513 53.8947L33.9386 54.5249L33.9394 54.5257ZM35.2374 54.6992L35.2734 54.7024L35.3597 54.7096L35.4461 54.716L35.5325 54.7216L35.6196 54.7272L35.7068 54.732L35.794 54.736L35.8924 54.74L35.9124 54.1002L35.822 54.0962L35.7388 54.0922L35.6556 54.0874L35.5725 54.0826L35.4901 54.077L35.4077 54.0706L35.3253 54.0642L35.2893 54.061L35.2366 54.6984L35.2374 54.6992ZM36.5458 54.748H36.5834L36.6713 54.7464L36.7593 54.7448L36.8473 54.7424L36.9344 54.7392L37.0216 54.736L37.1088 54.732L37.2016 54.7272L37.1608 54.089L37.076 54.0938L36.9928 54.0978L36.9097 54.101L36.8265 54.1042L36.7433 54.1066L36.6593 54.1082L36.5754 54.1098H36.5378L36.5458 54.7496V54.748ZM37.8534 54.6728L37.887 54.6696L37.9725 54.66L38.0581 54.6496L38.1437 54.6392L38.2292 54.628L38.314 54.616L38.3988 54.6041L38.4836 54.5913L38.5044 54.5881L38.4036 53.9563L38.3868 53.9587L38.306 53.9707L38.2253 53.9819L38.1445 53.9931L38.0629 54.0034L37.9813 54.0138L37.8997 54.0234L37.8182 54.0322L37.7846 54.0354L37.8534 54.6712V54.6728ZM39.1474 54.4729L39.2377 54.4545L39.3209 54.4369L39.4033 54.4185L39.4857 54.4001L39.568 54.3809L39.6504 54.3609L39.7328 54.3409L39.7872 54.3273L39.628 53.7075L39.5776 53.7203L39.4993 53.7395L39.4209 53.7587L39.3425 53.7771L39.2641 53.7947L39.185 53.8123L39.1058 53.8291L39.0194 53.8467L39.1474 54.4729ZM40.4174 54.149L40.4606 54.1354L40.5405 54.1106L40.6205 54.085L40.6997 54.0586L40.7789 54.0322L40.858 54.005L40.9372 53.9779L41.0156 53.9499L41.0388 53.9411L40.8189 53.3405L40.7989 53.3477L40.7237 53.3741L40.6485 53.4004L40.5733 53.426L40.4982 53.4516L40.4222 53.4764L40.3462 53.5012L40.2702 53.5252L40.227 53.5388L40.4174 54.149ZM41.6498 53.7035L41.713 53.6772L41.789 53.6444L41.8649 53.6116L41.9409 53.578L42.0169 53.5444L42.0921 53.51L42.1672 53.4748L42.2488 53.4364L41.9713 52.8598L41.8969 52.895L41.825 52.9278L41.753 52.9606L41.681 52.9926L41.609 53.0246L41.5362 53.0558L41.4635 53.0869L41.4003 53.1133L41.6498 53.7035ZM42.8318 53.1421L42.9046 53.1029L42.9766 53.0638L43.0486 53.0238L43.1206 52.983L43.1917 52.9422L43.2629 52.9006L43.3341 52.859L43.4021 52.819L43.0734 52.2704L43.0094 52.3088L42.9414 52.3488L42.8734 52.388L42.8055 52.4272L42.7375 52.4656L42.6687 52.5039L42.5999 52.5415L42.5303 52.5791L42.8326 53.1429L42.8318 53.1421ZM43.9555 52.4687L44.0283 52.42L44.0963 52.3736L44.1634 52.3272L44.2306 52.28L44.2978 52.2328L44.3642 52.1848L44.4306 52.1369L44.4913 52.0921L44.1115 51.577L44.0531 51.6194L43.9899 51.665L43.9267 51.7106L43.8627 51.7554L43.7987 51.8002L43.734 51.8442L43.6692 51.8881L43.5996 51.9345L43.9547 52.4672L43.9555 52.4687ZM45.0096 51.6914L45.0776 51.6354L45.1407 51.5834L45.2031 51.5307L45.2655 51.4779L45.3271 51.4243L45.3887 51.3707L45.4502 51.3163L45.507 51.2651L45.0792 50.7893L45.0248 50.8381L44.9664 50.8893L44.908 50.9404L44.8488 50.9916L44.7896 51.042L44.7297 51.0924L44.6697 51.142L44.6049 51.1956L45.0096 51.6914ZM45.9845 50.8165L46.0453 50.7557L46.1028 50.6981L46.1604 50.6397L46.2172 50.5814L46.274 50.5222L46.33 50.463L46.386 50.403L46.4395 50.3454L45.9685 49.912L45.9173 49.9672L45.8637 50.0239L45.8101 50.0807L45.7565 50.1367L45.7022 50.1927L45.6478 50.2487L45.5926 50.3039L45.5342 50.3614L45.9845 50.8165ZM46.8714 49.8528L46.925 49.788L46.977 49.7248L47.0282 49.6609L47.0793 49.5969L47.1297 49.5329L47.1801 49.4681L47.2305 49.4034L47.2793 49.3394L46.769 48.9531L46.7227 49.0139L46.6747 49.0755L46.6267 49.137L46.5779 49.1986L46.5291 49.2594L46.4803 49.3202L46.4307 49.3802L46.3796 49.4417L46.8706 49.852L46.8714 49.8528ZM47.6624 48.8091L47.7096 48.7396L47.7551 48.6716L47.8007 48.6028L47.8455 48.534L47.8903 48.4653L47.9343 48.3957L47.9783 48.3261L48.0199 48.2597L47.4752 47.9238L47.436 47.987L47.3944 48.0534L47.3521 48.1198L47.3097 48.1853L47.2665 48.2509L47.2233 48.3165L47.1801 48.3813L47.1345 48.4477L47.6624 48.8091ZM48.3494 47.6943L48.3925 47.6159L48.4317 47.5432L48.4701 47.4704L48.5085 47.3976L48.5461 47.324L48.5837 47.2505L48.6205 47.1769L48.6517 47.1129L48.0766 46.8314L48.0471 46.8914L48.0119 46.9617L47.9759 47.0321L47.9399 47.1017L47.9031 47.1713L47.8663 47.2409L47.8287 47.3096L47.7879 47.3848L48.3486 47.6935L48.3494 47.6943ZM48.926 46.5179L48.9332 46.5011L48.966 46.4251L48.998 46.3484L49.0299 46.2716L49.0611 46.1948L49.0915 46.1172L49.1219 46.0397L49.1515 45.9621L49.1707 45.9109L48.5709 45.687L48.5525 45.735L48.5237 45.8093L48.4949 45.8829L48.4653 45.9565L48.4357 46.0301L48.4053 46.1028L48.375 46.1756L48.3438 46.2484L48.3366 46.2652L48.9244 46.5179H48.926ZM49.3866 45.2911L49.3994 45.2519L49.4242 45.1719L49.449 45.092L49.473 45.012L49.497 44.9312L49.5202 44.8504L49.5426 44.7697L49.565 44.6889L49.5722 44.6625L48.9532 44.4994L48.9476 44.5217L48.926 44.5993L48.9044 44.6761L48.882 44.7529L48.8596 44.8296L48.8364 44.9064L48.8132 44.9824L48.7892 45.0584L48.7764 45.0976L49.3866 45.2911ZM49.7265 44.0251L49.7425 43.9491L49.7601 43.866L49.7769 43.7828L49.7929 43.6996L49.8089 43.6156L49.8241 43.5317L49.8385 43.4477L49.8497 43.3829L49.2187 43.2782L49.2083 43.3389L49.1939 43.4189L49.1795 43.4989L49.1643 43.5789L49.1491 43.658L49.1331 43.7372L49.1163 43.8164L49.1003 43.8924L49.7265 44.0251ZM49.9425 42.7335L49.9481 42.6839L49.9577 42.5984L49.9665 42.5128L49.9753 42.4264L49.9833 42.3401L49.9905 42.2537L49.9977 42.1673L50.0041 42.0825L49.3658 42.0378L49.3602 42.1185L49.3539 42.2009L49.3467 42.2833L49.3395 42.3657L49.3315 42.4472L49.3227 42.5288L49.3139 42.6104L49.3083 42.66L49.9441 42.7327L49.9425 42.7335ZM50.0336 41.4276L50.0344 41.3836L50.036 41.2956L50.0368 41.2076V41.1197C50.0368 41.0045 50.0352 40.8885 50.0328 40.7734L49.393 40.7902C49.3962 40.8997 49.397 41.0093 49.397 41.1197V41.2036L49.3962 41.2876L49.3946 41.3716L49.3938 41.4156L50.0336 41.4276ZM50.0009 40.1192C49.9849 39.9017 49.9641 39.6849 49.9377 39.4682L49.3027 39.545C49.3275 39.7521 49.3475 39.9592 49.3626 40.1672L50.0009 40.1192ZM49.8433 38.8188C49.8065 38.6037 49.7649 38.3894 49.7177 38.1758L49.0931 38.3142C49.1379 38.5173 49.1779 38.722 49.2123 38.9268L49.8425 38.818L49.8433 38.8188ZM49.5618 37.54C49.505 37.3297 49.4426 37.1194 49.3746 36.9114L48.766 37.1098C48.8308 37.3073 48.89 37.5072 48.9444 37.708L49.5618 37.54ZM49.1579 36.294C49.0811 36.0901 48.998 35.887 48.9108 35.687L48.3246 35.943C48.4077 36.1333 48.4861 36.3268 48.5597 36.5212L49.1579 36.294ZM48.6349 35.0928C48.5381 34.8969 48.4365 34.7034 48.331 34.5122L47.7719 34.8241C47.8735 35.0057 47.9695 35.1912 48.0614 35.3767L48.6349 35.0928ZM44.4641 35.5847C44.3642 35.4399 44.4002 35.2408 44.5457 35.1408C44.6905 35.0408 44.8896 35.0768 44.9896 35.2224C45.5774 36.0757 46.0405 37.021 46.3548 38.0319C46.6579 39.0099 46.8218 40.0472 46.8218 41.1213C46.8218 43.9971 45.6566 46.6003 43.7716 48.4844C41.8873 50.3686 39.2841 51.5347 36.4082 51.5347C33.5323 51.5347 30.9291 50.3694 29.0449 48.4844C27.1606 46.6003 25.9946 43.9971 25.9946 41.1213C25.9946 38.2454 27.1598 35.6422 29.0449 33.7581C30.9291 31.8739 33.5323 30.7079 36.4082 30.7079C37.2999 30.7079 38.1693 30.8214 39.0018 31.035C39.86 31.2549 40.6733 31.5804 41.4267 31.9954C41.581 32.0802 41.6378 32.2745 41.553 32.4289C41.4683 32.5832 41.2739 32.64 41.1196 32.5553C40.4078 32.1634 39.6448 31.8571 38.8443 31.6524C38.0685 31.4532 37.2527 31.3477 36.4082 31.3477C33.709 31.3477 31.2658 32.4417 29.4975 34.2099C27.7293 35.9781 26.6352 38.4221 26.6352 41.1205C26.6352 43.8196 27.7293 46.2628 29.4975 48.031C31.2658 49.7992 33.7098 50.8933 36.4082 50.8933C39.1074 50.8933 41.5506 49.7992 43.3189 48.031C45.0872 46.2628 46.1812 43.8188 46.1812 41.1205C46.1812 40.108 46.0285 39.1339 45.7446 38.219C45.4502 37.2713 45.0144 36.3844 44.4641 35.5847ZM45.8869 29.2108L38.8906 38.3886L50.5359 27.6137L46.6251 26.1845C46.4595 26.1246 46.374 25.9414 46.4339 25.7759C46.4507 25.7295 46.4779 25.6887 46.5107 25.6559L55.3136 16.6908L48.7636 14.0253L42.9206 27.4961L45.7597 28.7237C45.9213 28.7933 45.9957 28.9812 45.9261 29.142C45.9157 29.1668 45.9021 29.1892 45.8869 29.2092V29.2108ZM36.1539 40.9269L45.1327 29.1476L42.3752 27.9552C42.2136 27.8856 42.1393 27.6976 42.2088 27.5369L48.2926 13.5103C48.2942 13.5047 48.2966 13.4991 48.299 13.4935C48.3654 13.3295 48.5517 13.2512 48.7148 13.3175L55.9942 16.2798C56.0318 16.295 56.067 16.319 56.0982 16.3486C56.2238 16.4717 56.2254 16.674 56.1022 16.7996L47.3081 25.7567L51.2437 27.1946C51.2901 27.2114 51.3332 27.2402 51.3692 27.2786C51.4884 27.4073 51.4804 27.6089 51.3516 27.7288L36.6409 41.3404C36.5306 41.4587 36.3458 41.4763 36.2139 41.3764C36.0739 41.2692 36.0467 41.0693 36.1539 40.9293V40.9269Z" fill="#539CFF" stroke="#539CFF" stroke-width="40" mask="url(#path-2-inside-1)"/>
<path d="M45.6245 29.1436L38.4199 38.2694L38.9002 38.7497L50.9078 27.7027L47.0654 25.7815L55.7108 16.6557L48.5063 13.7739V14.2542L42.7427 27.7027L45.6245 29.1436Z" fill="#539CFF"/>
</svg>
