<svg width="73" height="73" viewBox="0 0 73 73" fill="none" xmlns="http://www.w3.org/2000/svg">
<path d="M36.5 73C26.7505 73 17.5846 69.2034 10.6906 62.3094C3.79665 55.4154 0 46.2494 0 36.5C0 26.7505 3.79665 17.5844 10.6906 10.6906C17.5846 3.79665 26.7505 0 36.5 0C46.2495 0 55.4154 3.79665 62.3095 10.6906C69.2034 17.5844 73 26.7505 73 36.5C73 46.2494 69.2034 55.4154 62.3095 62.3094C55.4154 69.2034 46.2495 73 36.5 73ZM36.5 1.93805C17.4425 1.93805 1.93805 17.4425 1.93805 36.5C1.93805 55.5575 17.4425 71.0619 36.5 71.0619C55.5575 71.0619 71.0619 55.5575 71.0619 36.5C71.0619 17.4425 55.5575 1.93805 36.5 1.93805Z" fill="#539CFF"/>
<path d="M31.0438 31.5781C32.1752 31.5781 33.2388 31.1393 34.0384 30.3425C34.8374 29.547 35.2777 28.4877 35.2777 27.3601C35.2777 26.2322 34.8374 25.1729 34.0384 24.3775C33.2388 23.5808 32.1752 23.1421 31.0438 23.1421C29.9119 23.1421 28.8483 23.5808 28.0487 24.3775C26.3978 26.0221 26.3978 28.6978 28.0487 30.3425C28.8483 31.1393 29.9119 31.5781 31.0438 31.5781ZM28.8798 25.2052C29.4573 24.6298 30.2259 24.3129 31.0438 24.3129C31.8612 24.3129 32.6298 24.6298 33.2073 25.2052C33.7841 25.7797 34.1021 26.5449 34.1021 27.3601C34.1021 28.175 33.7841 28.9402 33.2073 29.5147C32.6292 30.0903 31.8612 30.4073 31.0438 30.4073C30.2264 30.4073 29.4579 30.0903 28.8798 29.5147C27.6871 28.3265 27.6871 26.3934 28.8798 25.2052Z" fill="#539CFF"/>
<path d="M40.855 37.2623C42.0523 35.4093 42.7011 33.253 42.7011 30.9927C42.7011 27.8868 41.4899 24.9702 39.2903 22.7799C37.0879 20.5861 34.1593 19.3779 31.0442 19.3779C27.9291 19.3779 24.9999 20.5861 22.7975 22.7799C18.8547 26.7063 18.3364 32.7652 21.2309 37.2593C21.235 37.2653 21.2375 37.2718 21.2418 37.2776C21.6831 37.96 22.1982 38.6084 22.7975 39.2052C24.9999 41.3989 27.9285 42.6071 31.0442 42.6071C34.1593 42.6071 37.0879 41.3989 39.2903 39.2052C39.8875 38.6105 40.4048 37.9585 40.8518 37.2675C40.8531 37.2658 40.8538 37.264 40.855 37.2623ZM23.6286 23.6077C25.6095 21.6351 28.243 20.5487 31.0442 20.5487C33.8453 20.5487 36.4783 21.6351 38.4592 23.6077C40.4366 25.5767 41.5255 28.1995 41.5255 30.9927C41.5255 32.7077 41.1112 34.3569 40.3364 35.8317C39.9939 35.3692 39.6188 34.9274 39.2071 34.5172C37.8347 33.1507 36.135 32.1471 34.2913 31.6146C34.0491 31.5437 33.7862 31.6372 33.6433 31.8453C33.5084 32.0408 33.3746 32.2034 33.2346 32.3429C32.6474 32.9277 31.8684 33.2499 31.0419 33.2499C30.2142 33.2499 29.4381 32.9283 28.8549 32.3426C28.7017 32.1906 28.5628 32.0222 28.4531 31.8556C28.3113 31.6409 28.0444 31.5435 27.7982 31.6146C25.9545 32.1471 24.2549 33.1507 22.8824 34.5172C22.4692 34.9291 22.0939 35.3717 21.7523 35.8348C19.6862 31.8966 20.3111 26.9116 23.6286 23.6077ZM38.4592 38.3774C36.4789 40.3499 33.8453 41.4363 31.0442 41.4363C28.2425 41.4363 25.6089 40.3499 23.6286 38.3774C23.1757 37.9263 22.7813 37.4396 22.4287 36.9328C22.8032 36.3696 23.2251 35.8317 23.7136 35.345C24.8667 34.1971 26.2191 33.3619 27.7385 32.8589C27.8269 32.9658 27.9216 33.0695 28.022 33.169C28.8257 33.9762 29.8985 34.4206 31.0419 34.4206C32.1824 34.4206 33.2564 33.9767 34.0652 33.171C34.1627 33.0744 34.2569 32.9706 34.3487 32.8586C35.8543 33.3593 37.2394 34.2137 38.3759 35.345C38.8629 35.8305 39.2865 36.3684 39.6631 36.9324C39.3073 37.4429 38.9094 37.929 38.4592 38.3774Z" fill="#539CFF"/>
<path d="M45.6061 39.446C45.3857 39.2265 44.9954 39.2265 44.775 39.446L43.934 40.2835L42.5483 38.9034C46.3132 33.4767 45.7832 25.9665 40.9366 21.14C38.2939 18.508 34.7804 17.0586 31.0436 17.0586C27.3063 17.0586 23.7928 18.508 21.1501 21.14C15.6948 26.5728 15.6948 35.4126 21.1501 40.8454C23.8778 43.562 27.4607 44.9202 31.0436 44.9202C33.8259 44.9202 36.6033 44.0902 38.9853 42.4515L40.3712 43.8318L39.5314 44.6681C39.3018 44.8968 39.3018 45.2672 39.5314 45.4959L48.5129 54.4407C49.3245 55.2487 50.4031 55.6938 51.5505 55.6938C52.6979 55.6938 53.7765 55.2487 54.5876 54.4407C55.3992 53.6326 55.8458 52.5585 55.8458 51.416C55.8458 50.2733 55.3992 49.1991 54.5876 48.3911L45.6061 39.446ZM21.9813 40.0177C16.9845 35.0413 16.9845 26.9441 21.9813 21.9677C24.4018 19.557 27.6203 18.2294 31.0436 18.2294C34.4664 18.2294 37.6849 19.557 40.1054 21.9677C45.1021 26.9441 45.1021 35.0413 40.1054 40.0177C35.1076 44.9945 26.978 44.994 21.9813 40.0177ZM39.9376 41.7444C40.2808 41.4624 40.6157 41.1651 40.9366 40.8454C41.2572 40.5262 41.5553 40.1931 41.8382 39.8517L43.1029 41.1113L41.2024 43.004L39.9376 41.7444ZM53.7564 53.6129C53.1675 54.1997 52.384 54.523 51.5505 54.523C50.7171 54.523 49.9335 54.1997 49.344 53.6129L40.7782 45.082L41.6122 44.2514C41.6143 44.2494 41.6171 44.2488 41.6191 44.2468L44.3508 41.5263C44.3528 41.5243 44.3534 41.5215 44.3553 41.5195L45.1905 40.6877L53.7564 49.2188C54.3459 49.8057 54.6702 50.586 54.6702 51.416C54.6702 52.2458 54.3459 53.0261 53.7564 53.6129Z" fill="#539CFF"/>
</svg>
