<svg width="252" height="252" viewBox="0 0 252 252" fill="none" xmlns="http://www.w3.org/2000/svg">
<path fill-rule="evenodd" clip-rule="evenodd" d="M251.704 0H0V251.704H251.704V0ZM93.11 75.0164C101.254 73.9201 117.397 73.7479 125.114 73.7999C132.939 73.7479 149.307 73.9201 157.564 75.0164C158.714 75.1691 159.946 75.3313 161.234 75.5008L161.241 75.5017L161.254 75.5035L161.261 75.5044C171.885 76.9031 186.319 78.8033 190.513 80.0624C191.291 80.2959 192.063 80.5183 192.822 80.737C196.658 81.8419 200.162 82.8514 202.383 84.7048C202.986 85.2077 203.484 85.576 203.917 85.8964L203.917 85.8969L203.918 85.8973L203.918 85.8974C205.396 86.9911 206.122 87.5282 207.704 90.9619C209.875 95.6725 210.306 97.6574 210.735 99.6296C210.912 100.446 211.089 101.26 211.388 102.265C212.411 105.696 214.253 120.633 214.663 124.67C214.795 125.977 215.057 127.813 215.349 129.871L215.35 129.872L215.35 129.877L215.35 129.877V129.877C215.962 134.171 216.709 139.425 216.709 142.835V151.717C216.709 153.937 216.3 156.157 214.663 157.772C213.025 159.387 207.27 163.903 202.383 166.653C202.079 166.824 201.755 167.01 201.407 167.209C199.102 168.531 195.745 170.455 189.914 172.862C189.537 173.017 189.15 173.178 188.755 173.341C184.522 175.098 179.407 177.221 175.995 177.611C174.465 177.786 168.497 177.799 161.821 177.11C155.18 176.423 148.374 174.774 146.706 174.37L146.706 174.37L146.512 174.323C144.649 173.874 142.029 173.34 137.94 172.862C134.397 172.447 127.321 172.238 125.074 172.189C122.74 172.238 115.958 172.447 112.464 172.862C108.431 173.34 105.847 173.874 104.009 174.323C101.595 174.912 92.2736 176.599 90.2841 176.947C87.9208 177.36 81.3623 178.25 78.1436 177.777L78.0514 177.764C74.6219 177.261 73.6887 177.124 64.886 174.323C57.4347 171.952 52.3102 168.758 49.9539 167.29L49.9537 167.29C49.5017 167.008 49.1516 166.79 48.9064 166.653C46.581 165.356 39.0763 160.185 37.4616 158.571C35.8468 156.956 34.7774 153.937 34.7774 151.717V142.835C34.7774 139.425 35.5149 134.171 36.1177 129.877C36.4069 127.817 36.665 125.978 36.7959 124.67C37.1995 120.633 39.0161 105.696 40.0254 102.265C40.3208 101.26 40.4952 100.446 40.67 99.6297L40.67 99.6296C41.0923 97.6574 41.5174 95.6725 43.6585 90.9619C45.2193 87.5282 45.9353 86.9911 47.3929 85.8974L47.3929 85.8974L47.393 85.8974C47.8204 85.5767 48.3115 85.2082 48.9064 84.7048C51.0968 82.8514 54.5531 81.8419 58.3359 80.737C59.0847 80.5183 59.8463 80.2959 60.6133 80.0624C64.7504 78.8033 78.9861 76.903 89.4641 75.5044L89.468 75.5038L89.4716 75.5034C90.7486 75.3329 91.9698 75.1699 93.11 75.0164ZM28.895 139.076C26.5743 138.7 21.8953 137.345 21.7447 134.936C21.5942 132.528 21.682 109.472 21.7447 98.2445C22.1211 96.4883 23.8146 92.976 27.5779 92.976H35.8571C34.7281 96.6138 32.3572 105.169 31.9056 110.287C31.454 115.405 29.7103 131.612 28.895 139.076ZM229.957 134.936C229.804 137.345 225.037 138.7 222.673 139.076C221.842 131.612 220.066 115.405 219.606 110.287C219.146 105.169 216.731 96.6138 215.58 92.976H224.015C227.849 92.976 229.574 96.4883 229.957 98.2445C230.021 109.472 230.111 132.528 229.957 134.936Z" fill="white"/>
</svg>
