<svg width="193" height="93" viewBox="0 0 193 93" fill="none" xmlns="http://www.w3.org/2000/svg">
<path d="M18.7382 3.39062H10.9413V24.5H9.01941V3.39062H1.23816V1.75H18.7382V3.39062ZM24.0819 24.5H22.2069V7.59375H24.0819V24.5ZM21.8788 2.70312C21.8788 2.34896 21.9934 2.05208 22.2225 1.8125C22.4517 1.5625 22.7642 1.4375 23.16 1.4375C23.5559 1.4375 23.8684 1.5625 24.0975 1.8125C24.3371 2.05208 24.4569 2.34896 24.4569 2.70312C24.4569 3.05729 24.3371 3.35417 24.0975 3.59375C23.8684 3.83333 23.5559 3.95312 23.16 3.95312C22.7642 3.95312 22.4517 3.83333 22.2225 3.59375C21.9934 3.35417 21.8788 3.05729 21.8788 2.70312ZM30.8788 7.59375L30.9413 10.3438C31.5663 9.32292 32.3475 8.55729 33.285 8.04688C34.2225 7.53646 35.2642 7.28125 36.41 7.28125C39.0767 7.28125 40.7694 8.375 41.4882 10.5625C42.0923 9.51042 42.8996 8.70312 43.91 8.14062C44.9205 7.56771 46.035 7.28125 47.2538 7.28125C50.8788 7.28125 52.7277 9.26042 52.8007 13.2188V24.5H50.9257V13.3594C50.9152 11.849 50.5871 10.7292 49.9413 10C49.3059 9.27083 48.2642 8.90625 46.8163 8.90625C45.4725 8.92708 44.3371 9.36458 43.41 10.2188C42.483 11.0625 41.9673 12.0938 41.8632 13.3125V24.5H39.9882V13.2188C39.9777 11.7708 39.634 10.6927 38.9569 9.98438C38.2902 9.26562 37.259 8.90625 35.8632 8.90625C34.6861 8.90625 33.6757 9.24479 32.8319 9.92188C31.9882 10.5885 31.3632 11.5833 30.9569 12.9062V24.5H29.0819V7.59375H30.8788ZM64.0975 24.8125C62.66 24.8125 61.358 24.4583 60.1913 23.75C59.035 23.0417 58.134 22.0573 57.4882 20.7969C56.8423 19.526 56.5194 18.1042 56.5194 16.5312V15.8594C56.5194 14.2344 56.8319 12.7708 57.4569 11.4688C58.0923 10.1667 58.9725 9.14583 60.0975 8.40625C61.2225 7.65625 62.4413 7.28125 63.7538 7.28125C65.8059 7.28125 67.4309 7.98438 68.6288 9.39062C69.8371 10.7865 70.4413 12.6979 70.4413 15.125V16.1719H58.3788V16.5312C58.3788 18.4479 58.9257 20.0469 60.0194 21.3281C61.1236 22.599 62.509 23.2344 64.1757 23.2344C65.1757 23.2344 66.0559 23.0521 66.8163 22.6875C67.5871 22.3229 68.285 21.7396 68.91 20.9375L70.0819 21.8281C68.7069 23.8177 66.7121 24.8125 64.0975 24.8125ZM63.7538 8.875C62.3475 8.875 61.16 9.39062 60.1913 10.4219C59.233 11.4531 58.6496 12.8385 58.4413 14.5781H68.5819V14.375C68.5298 12.75 68.0663 11.4271 67.1913 10.4062C66.3163 9.38542 65.1705 8.875 63.7538 8.875ZM97.1132 3.39062H89.3163V24.5H87.3944V3.39062H79.6132V1.75H97.1132V3.39062ZM106.988 9.1875C106.592 9.11458 106.17 9.07812 105.723 9.07812C104.556 9.07812 103.566 9.40625 102.754 10.0625C101.952 10.7083 101.379 11.651 101.035 12.8906V24.5H99.1757V7.59375H101.004L101.035 10.2812C102.025 8.28125 103.613 7.28125 105.801 7.28125C106.321 7.28125 106.733 7.34896 107.035 7.48438L106.988 9.1875ZM120.004 24.5C119.816 23.9688 119.696 23.1823 119.644 22.1406C118.988 22.9948 118.15 23.6562 117.129 24.125C116.118 24.5833 115.045 24.8125 113.91 24.8125C112.285 24.8125 110.967 24.3594 109.957 23.4531C108.957 22.5469 108.457 21.401 108.457 20.0156C108.457 18.3698 109.139 17.0677 110.504 16.1094C111.879 15.151 113.79 14.6719 116.238 14.6719H119.629V12.75C119.629 11.5417 119.254 10.5938 118.504 9.90625C117.764 9.20833 116.681 8.85938 115.254 8.85938C113.952 8.85938 112.874 9.19271 112.019 9.85938C111.165 10.526 110.738 11.3281 110.738 12.2656L108.863 12.25C108.863 10.9062 109.488 9.74479 110.738 8.76562C111.988 7.77604 113.525 7.28125 115.348 7.28125C117.233 7.28125 118.717 7.75521 119.801 8.70312C120.894 9.64062 121.457 10.9531 121.488 12.6406V20.6406C121.488 22.276 121.66 23.5 122.004 24.3125V24.5H120.004ZM114.129 23.1562C115.379 23.1562 116.493 22.8542 117.473 22.25C118.462 21.6458 119.181 20.8385 119.629 19.8281V16.1094H116.285C114.42 16.1302 112.962 16.474 111.91 17.1406C110.858 17.7969 110.332 18.7031 110.332 19.8594C110.332 20.8073 110.681 21.5938 111.379 22.2188C112.087 22.8438 113.004 23.1562 114.129 23.1562ZM131.504 21.9219L136.644 7.59375H138.566L132.254 24.5H130.738L124.394 7.59375H126.316L131.504 21.9219ZM147.973 24.8125C146.535 24.8125 145.233 24.4583 144.066 23.75C142.91 23.0417 142.009 22.0573 141.363 20.7969C140.717 19.526 140.394 18.1042 140.394 16.5312V15.8594C140.394 14.2344 140.707 12.7708 141.332 11.4688C141.967 10.1667 142.848 9.14583 143.973 8.40625C145.098 7.65625 146.316 7.28125 147.629 7.28125C149.681 7.28125 151.306 7.98438 152.504 9.39062C153.712 10.7865 154.316 12.6979 154.316 15.125V16.1719H142.254V16.5312C142.254 18.4479 142.801 20.0469 143.894 21.3281C144.999 22.599 146.384 23.2344 148.051 23.2344C149.051 23.2344 149.931 23.0521 150.691 22.6875C151.462 22.3229 152.16 21.7396 152.785 20.9375L153.957 21.8281C152.582 23.8177 150.587 24.8125 147.973 24.8125ZM147.629 8.875C146.223 8.875 145.035 9.39062 144.066 10.4219C143.108 11.4531 142.525 12.8385 142.316 14.5781H152.457V14.375C152.405 12.75 151.941 11.4271 151.066 10.4062C150.191 9.38542 149.045 8.875 147.629 8.875ZM160.051 24.5H158.176V0.5H160.051V24.5ZM10.16 55.6875L10.285 56.1719L10.4257 55.6875L17.5819 35.75H19.6913L11.2225 58.5H9.37878L0.910034 35.75H3.00378L10.16 55.6875ZM24.7069 58.5H22.8319V41.5938H24.7069V58.5ZM22.5038 36.7031C22.5038 36.349 22.6184 36.0521 22.8475 35.8125C23.0767 35.5625 23.3892 35.4375 23.785 35.4375C24.1809 35.4375 24.4934 35.5625 24.7225 35.8125C24.9621 36.0521 25.0819 36.349 25.0819 36.7031C25.0819 37.0573 24.9621 37.3542 24.7225 37.5938C24.4934 37.8333 24.1809 37.9531 23.785 37.9531C23.3892 37.9531 23.0767 37.8333 22.8475 37.5938C22.6184 37.3542 22.5038 37.0573 22.5038 36.7031ZM37.6132 43.1875C37.2173 43.1146 36.7955 43.0781 36.3475 43.0781C35.1809 43.0781 34.1913 43.4062 33.3788 44.0625C32.5767 44.7083 32.0038 45.651 31.66 46.8906V58.5H29.8007V41.5938H31.6288L31.66 44.2812C32.6496 42.2812 34.2382 41.2812 36.4257 41.2812C36.9465 41.2812 37.358 41.349 37.66 41.4844L37.6132 43.1875ZM44.2694 37.2656V41.5938H47.7694V43.125H44.2694V54.3906C44.2694 55.3281 44.4361 56.026 44.7694 56.4844C45.1132 56.9427 45.6809 57.1719 46.4725 57.1719C46.785 57.1719 47.2902 57.1198 47.9882 57.0156L48.0663 58.5469C47.5767 58.724 46.91 58.8125 46.0663 58.8125C44.785 58.8125 43.8527 58.4427 43.2694 57.7031C42.6861 56.9531 42.3944 55.8542 42.3944 54.4062V43.125H39.285V41.5938H42.3944V37.2656H44.2694ZM62.5194 56.3594C61.3944 57.9948 59.5975 58.8125 57.1288 58.8125C55.3267 58.8125 53.9569 58.2917 53.0194 57.25C52.0819 56.1979 51.6027 54.6458 51.5819 52.5938V41.5938H53.4413V52.3594C53.4413 55.5781 54.7434 57.1875 57.3475 57.1875C60.0559 57.1875 61.7694 56.0677 62.4882 53.8281V41.5938H64.3632V58.5H62.5507L62.5194 56.3594ZM79.91 58.5C79.7225 57.9688 79.6027 57.1823 79.5507 56.1406C78.8944 56.9948 78.0559 57.6562 77.035 58.125C76.0246 58.5833 74.9517 58.8125 73.8163 58.8125C72.1913 58.8125 70.8736 58.3594 69.8632 57.4531C68.8632 56.5469 68.3632 55.401 68.3632 54.0156C68.3632 52.3698 69.0455 51.0677 70.41 50.1094C71.785 49.151 73.6965 48.6719 76.1444 48.6719H79.535V46.75C79.535 45.5417 79.16 44.5938 78.41 43.9062C77.6705 43.2083 76.5871 42.8594 75.16 42.8594C73.858 42.8594 72.7798 43.1927 71.9257 43.8594C71.0715 44.526 70.6444 45.3281 70.6444 46.2656L68.7694 46.25C68.7694 44.9062 69.3944 43.7448 70.6444 42.7656C71.8944 41.776 73.4309 41.2812 75.2538 41.2812C77.1392 41.2812 78.6236 41.7552 79.7069 42.7031C80.8007 43.6406 81.3632 44.9531 81.3944 46.6406V54.6406C81.3944 56.276 81.5663 57.5 81.91 58.3125V58.5H79.91ZM74.035 57.1562C75.285 57.1562 76.3996 56.8542 77.3788 56.25C78.3684 55.6458 79.0871 54.8385 79.535 53.8281V50.1094H76.1913C74.3267 50.1302 72.8684 50.474 71.8163 51.1406C70.7642 51.7969 70.2382 52.7031 70.2382 53.8594C70.2382 54.8073 70.5871 55.5938 71.285 56.2188C71.9934 56.8438 72.91 57.1562 74.035 57.1562ZM88.4882 58.5H86.6132V34.5H88.4882V58.5ZM110.301 49.0312H103.691V58.5H101.754V35.75H109.144C111.571 35.75 113.467 36.3385 114.832 37.5156C116.196 38.6927 116.879 40.3385 116.879 42.4531C116.879 43.9115 116.452 45.1979 115.598 46.3125C114.743 47.4271 113.598 48.1979 112.16 48.625L117.848 58.2969V58.5H115.801L110.301 49.0312ZM103.691 47.3906H109.582C111.196 47.3906 112.493 46.9323 113.473 46.0156C114.452 45.099 114.941 43.9115 114.941 42.4531C114.941 40.849 114.431 39.6042 113.41 38.7188C112.389 37.8333 110.957 37.3906 109.113 37.3906H103.691V47.3906ZM128.223 58.8125C126.785 58.8125 125.483 58.4583 124.316 57.75C123.16 57.0417 122.259 56.0573 121.613 54.7969C120.967 53.526 120.644 52.1042 120.644 50.5312V49.8594C120.644 48.2344 120.957 46.7708 121.582 45.4688C122.217 44.1667 123.098 43.1458 124.223 42.4062C125.348 41.6562 126.566 41.2812 127.879 41.2812C129.931 41.2812 131.556 41.9844 132.754 43.3906C133.962 44.7865 134.566 46.6979 134.566 49.125V50.1719H122.504V50.5312C122.504 52.4479 123.051 54.0469 124.144 55.3281C125.249 56.599 126.634 57.2344 128.301 57.2344C129.301 57.2344 130.181 57.0521 130.941 56.6875C131.712 56.3229 132.41 55.7396 133.035 54.9375L134.207 55.8281C132.832 57.8177 130.837 58.8125 128.223 58.8125ZM127.879 42.875C126.473 42.875 125.285 43.3906 124.316 44.4219C123.358 45.4531 122.775 46.8385 122.566 48.5781H132.707V48.375C132.655 46.75 132.191 45.4271 131.316 44.4062C130.441 43.3854 129.295 42.875 127.879 42.875ZM148.879 58.5C148.691 57.9688 148.571 57.1823 148.519 56.1406C147.863 56.9948 147.025 57.6562 146.004 58.125C144.993 58.5833 143.92 58.8125 142.785 58.8125C141.16 58.8125 139.842 58.3594 138.832 57.4531C137.832 56.5469 137.332 55.401 137.332 54.0156C137.332 52.3698 138.014 51.0677 139.379 50.1094C140.754 49.151 142.665 48.6719 145.113 48.6719H148.504V46.75C148.504 45.5417 148.129 44.5938 147.379 43.9062C146.639 43.2083 145.556 42.8594 144.129 42.8594C142.827 42.8594 141.749 43.1927 140.894 43.8594C140.04 44.526 139.613 45.3281 139.613 46.2656L137.738 46.25C137.738 44.9062 138.363 43.7448 139.613 42.7656C140.863 41.776 142.4 41.2812 144.223 41.2812C146.108 41.2812 147.592 41.7552 148.676 42.7031C149.769 43.6406 150.332 44.9531 150.363 46.6406V54.6406C150.363 56.276 150.535 57.5 150.879 58.3125V58.5H148.879ZM143.004 57.1562C144.254 57.1562 145.368 56.8542 146.348 56.25C147.337 55.6458 148.056 54.8385 148.504 53.8281V50.1094H145.16C143.295 50.1302 141.837 50.474 140.785 51.1406C139.733 51.7969 139.207 52.7031 139.207 53.8594C139.207 54.8073 139.556 55.5938 140.254 56.2188C140.962 56.8438 141.879 57.1562 143.004 57.1562ZM157.457 58.5H155.582V34.5H157.457V58.5ZM164.644 58.5H162.769V41.5938H164.644V58.5ZM162.441 36.7031C162.441 36.349 162.556 36.0521 162.785 35.8125C163.014 35.5625 163.327 35.4375 163.723 35.4375C164.118 35.4375 164.431 35.5625 164.66 35.8125C164.9 36.0521 165.019 36.349 165.019 36.7031C165.019 37.0573 164.9 37.3542 164.66 37.5938C164.431 37.8333 164.118 37.9531 163.723 37.9531C163.327 37.9531 163.014 37.8333 162.785 37.5938C162.556 37.3542 162.441 37.0573 162.441 36.7031ZM172.644 37.2656V41.5938H176.144V43.125H172.644V54.3906C172.644 55.3281 172.811 56.026 173.144 56.4844C173.488 56.9427 174.056 57.1719 174.848 57.1719C175.16 57.1719 175.665 57.1198 176.363 57.0156L176.441 58.5469C175.952 58.724 175.285 58.8125 174.441 58.8125C173.16 58.8125 172.228 58.4427 171.644 57.7031C171.061 56.9531 170.769 55.8542 170.769 54.4062V43.125H167.66V41.5938H170.769V37.2656H172.644ZM185.379 55.8125L190.316 41.5938H192.332L185.113 61.375L184.738 62.25C183.811 64.3021 182.379 65.3281 180.441 65.3281C179.993 65.3281 179.514 65.2552 179.004 65.1094L178.988 63.5625L179.957 63.6562C180.874 63.6562 181.613 63.4271 182.176 62.9688C182.749 62.5208 183.233 61.7448 183.629 60.6406L184.457 58.3594L178.082 41.5938H180.129L185.379 55.8125ZM16.8163 92.5H2.56628V91.0625L10.3632 82.2188C11.6548 80.7292 12.5507 79.5 13.0507 78.5312C13.5507 77.5625 13.8007 76.6198 13.8007 75.7031C13.8007 74.2656 13.3788 73.1302 12.535 72.2969C11.6913 71.4531 10.5298 71.0312 9.05066 71.0312C7.51941 71.0312 6.27983 71.5208 5.33191 72.5C4.39441 73.4792 3.92566 74.75 3.92566 76.3125H2.06628C2.06628 75.0312 2.35274 73.8646 2.92566 72.8125C3.50899 71.7604 4.33191 70.9375 5.39441 70.3438C6.46733 69.7396 7.68608 69.4375 9.05066 69.4375C11.134 69.4375 12.759 69.9844 13.9257 71.0781C15.1027 72.1719 15.6913 73.6615 15.6913 75.5469C15.6913 76.6094 15.358 77.7708 14.6913 79.0312C14.035 80.2917 12.8736 81.8646 11.2069 83.75L4.86316 90.9219H16.8163V92.5ZM34.035 83.0156C34.035 86.224 33.4465 88.6615 32.2694 90.3281C31.0923 91.9844 29.358 92.8125 27.0663 92.8125C24.8163 92.8125 23.0923 92 21.8944 90.375C20.6965 88.7396 20.0819 86.3646 20.0507 83.25V79.1719C20.0507 75.974 20.6444 73.5521 21.8319 71.9062C23.0194 70.2604 24.7538 69.4375 27.035 69.4375C29.285 69.4375 31.0038 70.2344 32.1913 71.8281C33.3788 73.4115 33.9934 75.75 34.035 78.8438V83.0156ZM32.16 78.9375C32.16 76.3333 31.733 74.3646 30.8788 73.0312C30.035 71.6979 28.7538 71.0312 27.035 71.0312C25.3475 71.0312 24.0767 71.6823 23.2225 72.9844C22.3684 74.2865 21.9309 76.2083 21.91 78.75V83.2188C21.91 85.8125 22.3475 87.7969 23.2225 89.1719C24.108 90.5469 25.3892 91.2344 27.0663 91.2344C28.733 91.2344 29.9934 90.5625 30.8475 89.2188C31.7121 87.875 32.1496 85.9062 32.16 83.3125V78.9375ZM46.7694 92.5H44.8944V72L38.7069 74.2969V72.5469L46.4569 69.6719H46.7694V92.5ZM67.4882 81.9688C66.8215 82.9479 65.9934 83.7083 65.0038 84.25C64.0142 84.7812 62.9413 85.0469 61.785 85.0469C60.4934 85.0469 59.3527 84.7135 58.3632 84.0469C57.3736 83.3802 56.608 82.4583 56.0663 81.2812C55.5246 80.1042 55.2538 78.8177 55.2538 77.4219C55.2538 75.9219 55.5402 74.5573 56.1132 73.3281C56.6965 72.099 57.5038 71.1458 58.535 70.4688C59.5767 69.7812 60.7746 69.4375 62.1288 69.4375C64.41 69.4375 66.1861 70.2396 67.4569 71.8438C68.7277 73.4375 69.3632 75.7031 69.3632 78.6406V80.3281C69.3632 84.4323 68.4882 87.5156 66.7382 89.5781C64.9882 91.6406 62.3163 92.6719 58.7225 92.6719H58.3788L58.3944 91.0469H59.0507C61.7694 91.0052 63.8371 90.2344 65.2538 88.7344C66.6705 87.2344 67.4152 84.9792 67.4882 81.9688ZM62.0194 83.4375C63.2694 83.4375 64.3892 83.0677 65.3788 82.3281C66.3788 81.5781 67.0871 80.6094 67.5038 79.4219V78.3438C67.5038 76.0312 67.0194 74.2396 66.0507 72.9688C65.0923 71.6875 63.7955 71.0469 62.16 71.0469C60.6809 71.0469 59.4673 71.6458 58.5194 72.8438C57.5715 74.0312 57.0975 75.5312 57.0975 77.3438C57.0975 79.0833 57.5507 80.5365 58.4569 81.7031C59.3736 82.8594 60.5611 83.4375 62.0194 83.4375Z" fill="white"/>
</svg>
