<svg width="75" height="96" viewBox="0 0 75 96" fill="none" xmlns="http://www.w3.org/2000/svg">
<path d="M55.9 16.6775C58.1 16.6775 60 17.5775 61.4 18.9775C61.4 18.5775 61.3 18.2775 61.3 17.8775C61.2 15.9775 60.9 14.2775 60.4 12.7775C61 9.87749 61.3 6.77749 60.8 4.27749C60.6 3.37749 59.6 2.87749 58.7 3.17749C58.2 3.37749 57.7 3.47749 57.1 3.67749C57.2 2.87749 57.2 2.07749 57.2 1.37749C57.1 0.377492 56 -0.222508 55.1 0.0774923C51.1 1.57749 45.1 2.97749 37.4 2.97749C24.8 2.97749 14.5 3.57749 13.6 17.8775C13.6 18.2775 13.5 18.5775 13.5 18.9775C14.9 17.5775 16.8 16.6775 19 16.6775H55.9Z" fill="#5B009D"/>
<path d="M60.4 67.7774H51.6C51.6 67.6774 51.6 67.5774 51.5 67.3774L50 61.6774C56.8 56.7774 61 50.8774 62 44.5774C65.8 43.7774 67.6 41.0774 67.6 36.3774C67.6 32.7774 66.8 30.2774 65 28.7774C64.7 28.4774 64.2 28.1774 63.7 27.8774V35.6774C63.7 39.4774 61.1 42.6774 57.6 43.4774C56.8 48.9774 53.3 53.9774 47 58.3774C41.3 62.3774 33.3 62.3774 27.6 58.3774C21.3 53.9774 17.8 48.9774 17 43.4774C13.5 42.5774 11 39.4774 11 35.6774V27.8774C10.4 28.0774 10 28.4774 9.7 28.7774C8 30.3774 7.1 32.7774 7.1 36.3774C7.1 41.0774 8.9 43.7774 12.7 44.5774C13.8 50.9774 17.9 56.8774 24.7 61.7774L23.2 67.4774C23.2 67.5774 23.1 67.6774 23.1 67.8774H14.4C6.4 67.8774 0 74.3774 0 82.2774V91.2774C0 93.3774 1.7 95.0774 3.8 95.0774H70.8C72.9 95.0774 74.6 93.3774 74.6 91.2774V82.2774C74.8 74.2774 68.3 67.7774 60.4 67.7774ZM45.8 72.7774L39.9 77.1774C38.5 78.2774 36.5 78.2774 35.1 77.1774L29.2 72.7774C27.9 71.7774 27.3 70.1774 27.7 68.5774L28.9 63.9774C31.6 65.1774 34.5 65.7774 37.4 65.7774C40.3 65.7774 43.3 65.0774 45.9 63.9774L47.1 68.5774C47.7 70.1774 47.1 71.7774 45.8 72.7774Z" fill="#5B009D"/>
<path d="M29.1999 43.3774C28.2999 43.3774 27.6999 44.1774 27.7999 45.0774C28.7999 49.4774 32.6999 52.8774 37.3999 52.8774C42.0999 52.8774 46.0999 49.5774 46.9999 45.0774C47.1999 44.1774 46.4999 43.3774 45.5999 43.3774H29.1999Z" fill="#5B009D"/>
<path d="M55.9008 40.0776C58.3008 40.0776 60.2008 38.0776 60.2008 35.6776V24.6776C60.2008 22.2776 58.3008 20.2776 55.9008 20.2776H19.1008C16.7008 20.2776 14.8008 22.2776 14.8008 24.6776V35.5776C14.8008 37.9776 16.7008 39.9776 19.1008 39.9776H27.1008C29.3008 39.9776 31.3008 38.8776 32.8008 37.1776C33.9008 35.9776 35.6008 35.2776 37.5008 35.2776C39.4008 35.2776 41.1008 35.9776 42.2008 37.1776C43.7008 38.7776 45.7008 39.9776 47.9008 39.9776H55.9008V40.0776Z" fill="#5B009D"/>
</svg>
