<svg width="1201" height="598" viewBox="0 0 1201 598" fill="none" xmlns="http://www.w3.org/2000/svg">
<g filter="url(#filter0_b)">
<rect x="0.367188" width="1200" height="598" fill="#3A3335"/>
</g>
<g filter="url(#filter1_d)">
<path d="M542.228 325.028C542.228 364.131 511.647 392.945 474.117 392.945C436.587 392.945 406.006 364.131 406.006 325.028C406.006 285.65 436.587 257.112 474.117 257.112C511.647 257.112 542.228 285.65 542.228 325.028ZM512.412 325.028C512.412 300.593 494.688 283.874 474.117 283.874C453.546 283.874 435.822 300.593 435.822 325.028C435.822 349.219 453.546 366.182 474.117 366.182C494.688 366.182 512.412 349.188 512.412 325.028Z" fill="#EA4335"/>
</g>
<g filter="url(#filter2_d)">
<path d="M689.164 325.028C689.164 364.131 658.583 392.945 621.053 392.945C583.523 392.945 552.942 364.131 552.942 325.028C552.942 285.681 583.523 257.112 621.053 257.112C658.583 257.112 689.164 285.65 689.164 325.028ZM659.348 325.028C659.348 300.593 641.624 283.874 621.053 283.874C600.482 283.874 582.758 300.593 582.758 325.028C582.758 349.219 600.482 366.182 621.053 366.182C641.624 366.182 659.348 349.188 659.348 325.028Z" fill="#FBBC05"/>
</g>
<g filter="url(#filter3_d)">
<path d="M829.978 261.215V383.146C829.978 433.303 800.407 453.788 765.448 453.788C732.541 453.788 712.735 431.772 705.266 413.767L731.224 402.958C735.847 414.012 747.173 427.056 765.418 427.056C787.795 427.056 801.662 413.246 801.662 387.249V377.481H800.621C793.948 385.718 781.091 392.914 764.867 392.914C730.918 392.914 699.817 363.335 699.817 325.273C699.817 286.936 730.918 257.112 764.867 257.112C781.06 257.112 793.917 264.308 800.621 272.3H801.662V261.246H829.978V261.215ZM803.774 325.273C803.774 301.359 787.825 283.874 767.53 283.874C746.959 283.874 729.724 301.359 729.724 325.273C729.724 348.943 746.959 366.182 767.53 366.182C787.825 366.182 803.774 348.943 803.774 325.273Z" fill="#4285F4"/>
</g>
<g filter="url(#filter4_d)">
<path d="M876.661 189.747V388.78H847.58V189.747H876.661Z" fill="#34A853"/>
</g>
<g filter="url(#filter5_d)">
<path d="M989.984 347.381L1013.13 362.814C1005.66 373.868 987.658 392.914 956.557 392.914C917.986 392.914 889.18 363.09 889.18 324.998C889.18 284.609 918.231 257.081 953.22 257.081C988.454 257.081 1005.69 285.13 1011.32 300.287L1014.41 308.003L923.649 345.605C930.598 359.232 941.404 366.182 956.557 366.182C971.74 366.182 982.27 358.711 989.984 347.381ZM918.751 322.946L979.423 297.746C976.087 289.264 966.046 283.354 954.23 283.354C939.077 283.354 917.986 296.735 918.751 322.946V322.946Z" fill="#EA4335"/>
</g>
<g filter="url(#filter6_d)">
<path d="M295.926 307.36V278.547H392.996C393.945 283.568 394.435 289.509 394.435 295.939C394.435 317.557 388.527 344.289 369.486 363.335C350.966 382.626 327.303 392.914 295.957 392.914C237.856 392.914 189 345.575 189 287.457C189 229.339 237.856 182 295.957 182C328.099 182 350.997 194.616 368.201 211.059L347.874 231.391C335.538 219.816 318.824 210.814 295.926 210.814C253.499 210.814 220.316 245.017 220.316 287.457C220.316 329.897 253.499 364.1 295.926 364.1C323.446 364.1 339.12 353.046 349.16 343.003C357.303 334.858 362.66 323.222 364.772 307.33L295.926 307.36V307.36Z" fill="#4285F4"/>
</g>
<g opacity="0.75" filter="url(#filter7_b)">
<rect width="1200" height="598" fill="black" fill-opacity="0.75"/>
</g>
<path d="M196.031 307.125C195.188 308.135 193.995 308.922 192.453 309.484C190.911 310.036 189.203 310.312 187.328 310.312C185.359 310.312 183.63 309.885 182.141 309.031C180.661 308.167 179.516 306.917 178.703 305.281C177.901 303.646 177.49 301.724 177.469 299.516V297.969C177.469 295.698 177.849 293.734 178.609 292.078C179.38 290.411 180.484 289.141 181.922 288.266C183.37 287.38 185.062 286.938 187 286.938C189.698 286.938 191.807 287.583 193.328 288.875C194.849 290.156 195.75 292.026 196.031 294.484H191.469C191.26 293.182 190.797 292.229 190.078 291.625C189.37 291.021 188.391 290.719 187.141 290.719C185.547 290.719 184.333 291.318 183.5 292.516C182.667 293.714 182.245 295.495 182.234 297.859V299.312C182.234 301.698 182.688 303.5 183.594 304.719C184.5 305.938 185.828 306.547 187.578 306.547C189.339 306.547 190.594 306.172 191.344 305.422V301.5H187.078V298.047H196.031V307.125ZM198.844 301.391C198.844 299.714 199.167 298.219 199.812 296.906C200.458 295.594 201.385 294.578 202.594 293.859C203.812 293.141 205.224 292.781 206.828 292.781C209.109 292.781 210.969 293.479 212.406 294.875C213.854 296.271 214.661 298.167 214.828 300.562L214.859 301.719C214.859 304.312 214.135 306.396 212.688 307.969C211.24 309.531 209.297 310.312 206.859 310.312C204.422 310.312 202.474 309.531 201.016 307.969C199.568 306.406 198.844 304.281 198.844 301.594V301.391ZM203.359 301.719C203.359 303.323 203.661 304.552 204.266 305.406C204.87 306.25 205.734 306.672 206.859 306.672C207.953 306.672 208.807 306.255 209.422 305.422C210.036 304.578 210.344 303.234 210.344 301.391C210.344 299.818 210.036 298.599 209.422 297.734C208.807 296.87 207.943 296.438 206.828 296.438C205.724 296.438 204.87 296.87 204.266 297.734C203.661 298.589 203.359 299.917 203.359 301.719ZM216.938 301.391C216.938 299.714 217.26 298.219 217.906 296.906C218.552 295.594 219.479 294.578 220.688 293.859C221.906 293.141 223.318 292.781 224.922 292.781C227.203 292.781 229.062 293.479 230.5 294.875C231.948 296.271 232.755 298.167 232.922 300.562L232.953 301.719C232.953 304.312 232.229 306.396 230.781 307.969C229.333 309.531 227.391 310.312 224.953 310.312C222.516 310.312 220.568 309.531 219.109 307.969C217.661 306.406 216.938 304.281 216.938 301.594V301.391ZM221.453 301.719C221.453 303.323 221.755 304.552 222.359 305.406C222.964 306.25 223.828 306.672 224.953 306.672C226.047 306.672 226.901 306.255 227.516 305.422C228.13 304.578 228.438 303.234 228.438 301.391C228.438 299.818 228.13 298.599 227.516 297.734C226.901 296.87 226.036 296.438 224.922 296.438C223.818 296.438 222.964 296.87 222.359 297.734C221.755 298.589 221.453 299.917 221.453 301.719ZM235.078 301.422C235.078 298.828 235.693 296.74 236.922 295.156C238.161 293.573 239.828 292.781 241.922 292.781C243.776 292.781 245.219 293.417 246.25 294.688L246.438 293.094H250.531V309.438C250.531 310.917 250.193 312.203 249.516 313.297C248.849 314.391 247.906 315.224 246.688 315.797C245.469 316.37 244.042 316.656 242.406 316.656C241.167 316.656 239.958 316.406 238.781 315.906C237.604 315.417 236.714 314.781 236.109 314L238.109 311.25C239.234 312.51 240.599 313.141 242.203 313.141C243.401 313.141 244.333 312.818 245 312.172C245.667 311.536 246 310.63 246 309.453V308.547C244.958 309.724 243.589 310.312 241.891 310.312C239.859 310.312 238.214 309.521 236.953 307.938C235.703 306.344 235.078 304.234 235.078 301.609V301.422ZM239.594 301.75C239.594 303.281 239.901 304.484 240.516 305.359C241.13 306.224 241.974 306.656 243.047 306.656C244.422 306.656 245.406 306.141 246 305.109V298C245.396 296.969 244.422 296.453 243.078 296.453C241.995 296.453 241.141 296.896 240.516 297.781C239.901 298.667 239.594 299.99 239.594 301.75ZM258.781 310H254.25V286H258.781V310ZM270.297 310.312C267.818 310.312 265.797 309.552 264.234 308.031C262.682 306.51 261.906 304.484 261.906 301.953V301.516C261.906 299.818 262.234 298.302 262.891 296.969C263.547 295.625 264.474 294.594 265.672 293.875C266.88 293.146 268.255 292.781 269.797 292.781C272.109 292.781 273.927 293.51 275.25 294.969C276.583 296.427 277.25 298.495 277.25 301.172V303.016H266.484C266.63 304.12 267.068 305.005 267.797 305.672C268.536 306.339 269.469 306.672 270.594 306.672C272.333 306.672 273.693 306.042 274.672 304.781L276.891 307.266C276.214 308.224 275.297 308.974 274.141 309.516C272.984 310.047 271.703 310.312 270.297 310.312ZM269.781 296.438C268.885 296.438 268.156 296.74 267.594 297.344C267.042 297.948 266.688 298.812 266.531 299.938H272.812V299.578C272.792 298.578 272.521 297.807 272 297.266C271.479 296.714 270.74 296.438 269.781 296.438ZM305.312 287.25V302.234C305.312 304.724 304.531 306.693 302.969 308.141C301.417 309.589 299.292 310.312 296.594 310.312C293.938 310.312 291.828 309.609 290.266 308.203C288.703 306.797 287.906 304.865 287.875 302.406V287.25H292.562V302.266C292.562 303.755 292.917 304.844 293.625 305.531C294.344 306.208 295.333 306.547 296.594 306.547C299.229 306.547 300.568 305.161 300.609 302.391V287.25H305.312ZM317.297 295.094L321.562 287.25H326.953L320.328 298.531L327.125 310H321.672L317.297 302.031L312.922 310H307.469L314.266 298.531L307.641 287.25H313.031L317.297 295.094ZM337.469 310V287.25H344.469C346.469 287.25 348.255 287.703 349.828 288.609C351.411 289.505 352.646 290.786 353.531 292.453C354.417 294.109 354.859 295.995 354.859 298.109V299.156C354.859 301.271 354.422 303.151 353.547 304.797C352.682 306.443 351.458 307.719 349.875 308.625C348.292 309.531 346.505 309.99 344.516 310H337.469ZM342.156 291.047V306.234H344.422C346.255 306.234 347.656 305.635 348.625 304.438C349.594 303.24 350.089 301.526 350.109 299.297V298.094C350.109 295.781 349.63 294.031 348.672 292.844C347.714 291.646 346.312 291.047 344.469 291.047H342.156ZM365.766 310.312C363.286 310.312 361.266 309.552 359.703 308.031C358.151 306.51 357.375 304.484 357.375 301.953V301.516C357.375 299.818 357.703 298.302 358.359 296.969C359.016 295.625 359.943 294.594 361.141 293.875C362.349 293.146 363.724 292.781 365.266 292.781C367.578 292.781 369.396 293.51 370.719 294.969C372.052 296.427 372.719 298.495 372.719 301.172V303.016H361.953C362.099 304.12 362.536 305.005 363.266 305.672C364.005 306.339 364.938 306.672 366.062 306.672C367.802 306.672 369.161 306.042 370.141 304.781L372.359 307.266C371.682 308.224 370.766 308.974 369.609 309.516C368.453 310.047 367.172 310.312 365.766 310.312ZM365.25 296.438C364.354 296.438 363.625 296.74 363.062 297.344C362.51 297.948 362.156 298.812 362 299.938H368.281V299.578C368.26 298.578 367.99 297.807 367.469 297.266C366.948 296.714 366.208 296.438 365.25 296.438ZM384.453 305.328C384.453 304.776 384.177 304.344 383.625 304.031C383.083 303.708 382.208 303.422 381 303.172C376.979 302.328 374.969 300.62 374.969 298.047C374.969 296.547 375.589 295.297 376.828 294.297C378.078 293.286 379.708 292.781 381.719 292.781C383.865 292.781 385.578 293.286 386.859 294.297C388.151 295.307 388.797 296.62 388.797 298.234H384.281C384.281 297.589 384.073 297.057 383.656 296.641C383.24 296.214 382.589 296 381.703 296C380.943 296 380.354 296.172 379.938 296.516C379.521 296.859 379.312 297.297 379.312 297.828C379.312 298.328 379.547 298.734 380.016 299.047C380.495 299.349 381.297 299.615 382.422 299.844C383.547 300.062 384.495 300.312 385.266 300.594C387.651 301.469 388.844 302.984 388.844 305.141C388.844 306.682 388.182 307.932 386.859 308.891C385.536 309.839 383.828 310.312 381.734 310.312C380.318 310.312 379.057 310.062 377.953 309.562C376.859 309.052 376 308.359 375.375 307.484C374.75 306.599 374.438 305.646 374.438 304.625H378.719C378.76 305.427 379.057 306.042 379.609 306.469C380.161 306.896 380.901 307.109 381.828 307.109C382.693 307.109 383.344 306.948 383.781 306.625C384.229 306.292 384.453 305.859 384.453 305.328ZM396.531 310H392V293.094H396.531V310ZM391.734 288.719C391.734 288.042 391.958 287.484 392.406 287.047C392.865 286.609 393.484 286.391 394.266 286.391C395.036 286.391 395.651 286.609 396.109 287.047C396.568 287.484 396.797 288.042 396.797 288.719C396.797 289.406 396.562 289.969 396.094 290.406C395.635 290.844 395.026 291.062 394.266 291.062C393.505 291.062 392.891 290.844 392.422 290.406C391.964 289.969 391.734 289.406 391.734 288.719ZM399.609 301.422C399.609 298.828 400.224 296.74 401.453 295.156C402.693 293.573 404.359 292.781 406.453 292.781C408.307 292.781 409.75 293.417 410.781 294.688L410.969 293.094H415.062V309.438C415.062 310.917 414.724 312.203 414.047 313.297C413.38 314.391 412.438 315.224 411.219 315.797C410 316.37 408.573 316.656 406.938 316.656C405.698 316.656 404.49 316.406 403.312 315.906C402.135 315.417 401.245 314.781 400.641 314L402.641 311.25C403.766 312.51 405.13 313.141 406.734 313.141C407.932 313.141 408.865 312.818 409.531 312.172C410.198 311.536 410.531 310.63 410.531 309.453V308.547C409.49 309.724 408.12 310.312 406.422 310.312C404.391 310.312 402.745 309.521 401.484 307.938C400.234 306.344 399.609 304.234 399.609 301.609V301.422ZM404.125 301.75C404.125 303.281 404.432 304.484 405.047 305.359C405.661 306.224 406.505 306.656 407.578 306.656C408.953 306.656 409.938 306.141 410.531 305.109V298C409.927 296.969 408.953 296.453 407.609 296.453C406.526 296.453 405.672 296.896 405.047 297.781C404.432 298.667 404.125 299.99 404.125 301.75ZM422.703 293.094L422.844 295.047C424.052 293.536 425.672 292.781 427.703 292.781C429.495 292.781 430.828 293.307 431.703 294.359C432.578 295.411 433.026 296.984 433.047 299.078V310H428.531V299.188C428.531 298.229 428.323 297.536 427.906 297.109C427.49 296.672 426.797 296.453 425.828 296.453C424.557 296.453 423.604 296.995 422.969 298.078V310H418.453V293.094H422.703ZM462.609 302.422C462.432 304.87 461.526 306.797 459.891 308.203C458.266 309.609 456.12 310.312 453.453 310.312C450.536 310.312 448.24 309.333 446.562 307.375C444.896 305.406 444.062 302.708 444.062 299.281V297.891C444.062 295.703 444.448 293.776 445.219 292.109C445.99 290.443 447.089 289.167 448.516 288.281C449.953 287.385 451.62 286.938 453.516 286.938C456.141 286.938 458.255 287.641 459.859 289.047C461.464 290.453 462.391 292.427 462.641 294.969H457.953C457.839 293.5 457.427 292.438 456.719 291.781C456.021 291.115 454.953 290.781 453.516 290.781C451.953 290.781 450.781 291.344 450 292.469C449.229 293.583 448.833 295.318 448.812 297.672V299.391C448.812 301.849 449.182 303.646 449.922 304.781C450.672 305.917 451.849 306.484 453.453 306.484C454.901 306.484 455.979 306.156 456.688 305.5C457.406 304.833 457.818 303.807 457.922 302.422H462.609ZM469.797 294.938C470.995 293.5 472.5 292.781 474.312 292.781C477.979 292.781 479.839 294.911 479.891 299.172V310H475.375V299.297C475.375 298.328 475.167 297.615 474.75 297.156C474.333 296.688 473.641 296.453 472.672 296.453C471.349 296.453 470.391 296.964 469.797 297.984V310H465.281V286H469.797V294.938ZM493.094 310C492.885 309.594 492.734 309.089 492.641 308.484C491.547 309.703 490.125 310.312 488.375 310.312C486.719 310.312 485.344 309.833 484.25 308.875C483.167 307.917 482.625 306.708 482.625 305.25C482.625 303.458 483.286 302.083 484.609 301.125C485.943 300.167 487.865 299.682 490.375 299.672H492.453V298.703C492.453 297.922 492.25 297.297 491.844 296.828C491.448 296.359 490.818 296.125 489.953 296.125C489.193 296.125 488.594 296.307 488.156 296.672C487.729 297.036 487.516 297.536 487.516 298.172H483C483 297.193 483.302 296.286 483.906 295.453C484.51 294.62 485.365 293.969 486.469 293.5C487.573 293.021 488.812 292.781 490.188 292.781C492.271 292.781 493.922 293.307 495.141 294.359C496.37 295.401 496.984 296.87 496.984 298.766V306.094C496.995 307.698 497.219 308.911 497.656 309.734V310H493.094ZM489.359 306.859C490.026 306.859 490.641 306.714 491.203 306.422C491.766 306.12 492.182 305.719 492.453 305.219V302.312H490.766C488.505 302.312 487.302 303.094 487.156 304.656L487.141 304.922C487.141 305.484 487.339 305.948 487.734 306.312C488.13 306.677 488.672 306.859 489.359 306.859ZM505.219 310H500.688V286H505.219V310ZM513.719 310H509.188V286H513.719V310ZM525.234 310.312C522.755 310.312 520.734 309.552 519.172 308.031C517.62 306.51 516.844 304.484 516.844 301.953V301.516C516.844 299.818 517.172 298.302 517.828 296.969C518.484 295.625 519.411 294.594 520.609 293.875C521.818 293.146 523.193 292.781 524.734 292.781C527.047 292.781 528.865 293.51 530.188 294.969C531.521 296.427 532.188 298.495 532.188 301.172V303.016H521.422C521.568 304.12 522.005 305.005 522.734 305.672C523.474 306.339 524.406 306.672 525.531 306.672C527.271 306.672 528.63 306.042 529.609 304.781L531.828 307.266C531.151 308.224 530.234 308.974 529.078 309.516C527.922 310.047 526.641 310.312 525.234 310.312ZM524.719 296.438C523.823 296.438 523.094 296.74 522.531 297.344C521.979 297.948 521.625 298.812 521.469 299.938H527.75V299.578C527.729 298.578 527.458 297.807 526.938 297.266C526.417 296.714 525.677 296.438 524.719 296.438ZM538.922 293.094L539.062 295.047C540.271 293.536 541.891 292.781 543.922 292.781C545.714 292.781 547.047 293.307 547.922 294.359C548.797 295.411 549.245 296.984 549.266 299.078V310H544.75V299.188C544.75 298.229 544.542 297.536 544.125 297.109C543.708 296.672 543.016 296.453 542.047 296.453C540.776 296.453 539.823 296.995 539.188 298.078V310H534.672V293.094H538.922ZM552.047 301.422C552.047 298.828 552.661 296.74 553.891 295.156C555.13 293.573 556.797 292.781 558.891 292.781C560.745 292.781 562.188 293.417 563.219 294.688L563.406 293.094H567.5V309.438C567.5 310.917 567.161 312.203 566.484 313.297C565.818 314.391 564.875 315.224 563.656 315.797C562.438 316.37 561.01 316.656 559.375 316.656C558.135 316.656 556.927 316.406 555.75 315.906C554.573 315.417 553.682 314.781 553.078 314L555.078 311.25C556.203 312.51 557.568 313.141 559.172 313.141C560.37 313.141 561.302 312.818 561.969 312.172C562.635 311.536 562.969 310.63 562.969 309.453V308.547C561.927 309.724 560.557 310.312 558.859 310.312C556.828 310.312 555.182 309.521 553.922 307.938C552.672 306.344 552.047 304.234 552.047 301.609V301.422ZM556.562 301.75C556.562 303.281 556.87 304.484 557.484 305.359C558.099 306.224 558.943 306.656 560.016 306.656C561.391 306.656 562.375 306.141 562.969 305.109V298C562.365 296.969 561.391 296.453 560.047 296.453C558.964 296.453 558.109 296.896 557.484 297.781C556.87 298.667 556.562 299.99 556.562 301.75ZM578.766 310.312C576.286 310.312 574.266 309.552 572.703 308.031C571.151 306.51 570.375 304.484 570.375 301.953V301.516C570.375 299.818 570.703 298.302 571.359 296.969C572.016 295.625 572.943 294.594 574.141 293.875C575.349 293.146 576.724 292.781 578.266 292.781C580.578 292.781 582.396 293.51 583.719 294.969C585.052 296.427 585.719 298.495 585.719 301.172V303.016H574.953C575.099 304.12 575.536 305.005 576.266 305.672C577.005 306.339 577.938 306.672 579.062 306.672C580.802 306.672 582.161 306.042 583.141 304.781L585.359 307.266C584.682 308.224 583.766 308.974 582.609 309.516C581.453 310.047 580.172 310.312 578.766 310.312ZM578.25 296.438C577.354 296.438 576.625 296.74 576.062 297.344C575.51 297.948 575.156 298.812 575 299.938H581.281V299.578C581.26 298.578 580.99 297.807 580.469 297.266C579.948 296.714 579.208 296.438 578.25 296.438ZM599.969 314.219H597.234V287.25H599.969V314.219ZM612.527 292.938L618.82 307.996L625.137 292.938H627.059V310H625.617V302.57L625.734 294.953L619.383 310H618.27L611.941 295.012L612.059 302.523V310H610.617V292.938H612.527ZM635.965 310.234C634.887 310.234 633.91 309.969 633.035 309.438C632.168 308.906 631.492 308.168 631.008 307.223C630.523 306.27 630.281 305.203 630.281 304.023V303.52C630.281 302.301 630.516 301.203 630.984 300.227C631.461 299.25 632.121 298.484 632.965 297.93C633.809 297.367 634.723 297.086 635.707 297.086C637.246 297.086 638.465 297.613 639.363 298.668C640.27 299.715 640.723 301.148 640.723 302.969V303.754H631.676V304.023C631.676 305.461 632.086 306.66 632.906 307.621C633.734 308.574 634.773 309.051 636.023 309.051C636.773 309.051 637.434 308.914 638.004 308.641C638.582 308.367 639.105 307.93 639.574 307.328L640.453 307.996C639.422 309.488 637.926 310.234 635.965 310.234ZM635.707 298.281C634.652 298.281 633.762 298.668 633.035 299.441C632.316 300.215 631.879 301.254 631.723 302.559H639.328V302.406C639.289 301.188 638.941 300.195 638.285 299.43C637.629 298.664 636.77 298.281 635.707 298.281ZM644.789 297.32L644.836 299.488C645.312 298.707 645.906 298.113 646.617 297.707C647.328 297.293 648.113 297.086 648.973 297.086C650.332 297.086 651.344 297.469 652.008 298.234C652.672 299 653.008 300.148 653.016 301.68V310H651.621V301.668C651.613 300.535 651.371 299.691 650.895 299.137C650.426 298.582 649.672 298.305 648.633 298.305C647.766 298.305 646.996 298.578 646.324 299.125C645.66 299.664 645.168 300.395 644.848 301.316V310H643.453V297.32H644.789ZM658.828 294.074V297.32H661.453V298.469H658.828V306.918C658.828 307.621 658.953 308.145 659.203 308.488C659.461 308.832 659.887 309.004 660.48 309.004C660.715 309.004 661.094 308.965 661.617 308.887L661.676 310.035C661.309 310.168 660.809 310.234 660.176 310.234C659.215 310.234 658.516 309.957 658.078 309.402C657.641 308.84 657.422 308.016 657.422 306.93V298.469H655.09V297.32H657.422V294.074H658.828ZM663.352 303.473C663.352 302.254 663.586 301.156 664.055 300.18C664.531 299.203 665.199 298.445 666.059 297.906C666.926 297.359 667.906 297.086 669 297.086C670.688 297.086 672.055 297.68 673.102 298.867C674.148 300.047 674.672 301.613 674.672 303.566V303.859C674.672 305.086 674.434 306.191 673.957 307.176C673.488 308.152 672.824 308.906 671.965 309.438C671.105 309.969 670.125 310.234 669.023 310.234C667.344 310.234 665.977 309.645 664.922 308.465C663.875 307.277 663.352 305.707 663.352 303.754V303.473ZM664.758 303.859C664.758 305.375 665.148 306.621 665.93 307.598C666.719 308.566 667.75 309.051 669.023 309.051C670.289 309.051 671.312 308.566 672.094 307.598C672.883 306.621 673.277 305.336 673.277 303.742V303.473C673.277 302.504 673.098 301.617 672.738 300.812C672.379 300.008 671.875 299.387 671.227 298.949C670.578 298.504 669.836 298.281 669 298.281C667.75 298.281 666.73 298.773 665.941 299.758C665.152 300.734 664.758 302.016 664.758 303.602V303.859ZM683.438 298.516C683.141 298.461 682.824 298.434 682.488 298.434C681.613 298.434 680.871 298.68 680.262 299.172C679.66 299.656 679.23 300.363 678.973 301.293V310H677.578V297.32H678.949L678.973 299.336C679.715 297.836 680.906 297.086 682.547 297.086C682.938 297.086 683.246 297.137 683.473 297.238L683.438 298.516ZM693.258 306.777C693.258 306.082 692.977 305.523 692.414 305.102C691.859 304.68 691.02 304.352 689.895 304.117C688.77 303.875 687.895 303.602 687.27 303.297C686.652 302.984 686.191 302.605 685.887 302.16C685.59 301.715 685.441 301.176 685.441 300.543C685.441 299.543 685.859 298.719 686.695 298.07C687.531 297.414 688.602 297.086 689.906 297.086C691.32 297.086 692.453 297.438 693.305 298.141C694.164 298.836 694.594 299.746 694.594 300.871H693.188C693.188 300.129 692.875 299.512 692.25 299.02C691.633 298.527 690.852 298.281 689.906 298.281C688.984 298.281 688.242 298.488 687.68 298.902C687.125 299.309 686.848 299.84 686.848 300.496C686.848 301.129 687.078 301.621 687.539 301.973C688.008 302.316 688.855 302.633 690.082 302.922C691.316 303.211 692.238 303.52 692.848 303.848C693.465 304.176 693.922 304.57 694.219 305.031C694.516 305.492 694.664 306.051 694.664 306.707C694.664 307.777 694.23 308.633 693.363 309.273C692.504 309.914 691.379 310.234 689.988 310.234C688.512 310.234 687.312 309.879 686.391 309.168C685.477 308.449 685.02 307.543 685.02 306.449H686.426C686.48 307.27 686.824 307.91 687.457 308.371C688.098 308.824 688.941 309.051 689.988 309.051C690.965 309.051 691.754 308.836 692.355 308.406C692.957 307.977 693.258 307.434 693.258 306.777ZM699.223 299.465C699.684 298.707 700.273 298.121 700.992 297.707C701.711 297.293 702.496 297.086 703.348 297.086C704.707 297.086 705.719 297.469 706.383 298.234C707.047 299 707.383 300.148 707.391 301.68V310H705.996V301.668C705.988 300.535 705.746 299.691 705.27 299.137C704.801 298.582 704.047 298.305 703.008 298.305C702.141 298.305 701.371 298.578 700.699 299.125C700.035 299.664 699.543 300.395 699.223 301.316V310H697.828V292H699.223V299.465ZM712.57 310H711.164V297.32H712.57V310ZM710.918 293.652C710.918 293.387 711.004 293.164 711.176 292.984C711.348 292.797 711.582 292.703 711.879 292.703C712.176 292.703 712.41 292.797 712.582 292.984C712.762 293.164 712.852 293.387 712.852 293.652C712.852 293.918 712.762 294.141 712.582 294.32C712.41 294.5 712.176 294.59 711.879 294.59C711.582 294.59 711.348 294.5 711.176 294.32C711.004 294.141 710.918 293.918 710.918 293.652ZM726.586 303.789C726.586 305.766 726.148 307.336 725.273 308.5C724.398 309.656 723.227 310.234 721.758 310.234C720.023 310.234 718.695 309.625 717.773 308.406V314.875H716.379V297.32H717.68L717.75 299.113C718.664 297.762 719.988 297.086 721.723 297.086C723.238 297.086 724.426 297.66 725.285 298.809C726.152 299.957 726.586 301.551 726.586 303.59V303.789ZM725.18 303.543C725.18 301.926 724.848 300.648 724.184 299.711C723.52 298.773 722.594 298.305 721.406 298.305C720.547 298.305 719.809 298.512 719.191 298.926C718.574 299.34 718.102 299.941 717.773 300.73V306.812C718.109 307.539 718.59 308.094 719.215 308.477C719.84 308.859 720.578 309.051 721.43 309.051C722.609 309.051 723.527 308.582 724.184 307.645C724.848 306.699 725.18 305.332 725.18 303.543ZM745.078 305.219H737.332L735.574 310H734.062L740.52 292.938H741.891L748.348 310H746.848L745.078 305.219ZM737.777 303.988H744.621L741.199 294.695L737.777 303.988ZM760.734 303.789C760.734 305.766 760.297 307.336 759.422 308.5C758.547 309.656 757.375 310.234 755.906 310.234C754.172 310.234 752.844 309.625 751.922 308.406V314.875H750.527V297.32H751.828L751.898 299.113C752.812 297.762 754.137 297.086 755.871 297.086C757.387 297.086 758.574 297.66 759.434 298.809C760.301 299.957 760.734 301.551 760.734 303.59V303.789ZM759.328 303.543C759.328 301.926 758.996 300.648 758.332 299.711C757.668 298.773 756.742 298.305 755.555 298.305C754.695 298.305 753.957 298.512 753.34 298.926C752.723 299.34 752.25 299.941 751.922 300.73V306.812C752.258 307.539 752.738 308.094 753.363 308.477C753.988 308.859 754.727 309.051 755.578 309.051C756.758 309.051 757.676 308.582 758.332 307.645C758.996 306.699 759.328 305.332 759.328 303.543ZM774.047 303.789C774.047 305.766 773.609 307.336 772.734 308.5C771.859 309.656 770.688 310.234 769.219 310.234C767.484 310.234 766.156 309.625 765.234 308.406V314.875H763.84V297.32H765.141L765.211 299.113C766.125 297.762 767.449 297.086 769.184 297.086C770.699 297.086 771.887 297.66 772.746 298.809C773.613 299.957 774.047 301.551 774.047 303.59V303.789ZM772.641 303.543C772.641 301.926 772.309 300.648 771.645 299.711C770.98 298.773 770.055 298.305 768.867 298.305C768.008 298.305 767.27 298.512 766.652 298.926C766.035 299.34 765.562 299.941 765.234 300.73V306.812C765.57 307.539 766.051 308.094 766.676 308.477C767.301 308.859 768.039 309.051 768.891 309.051C770.07 309.051 770.988 308.582 771.645 307.645C772.309 306.699 772.641 305.332 772.641 303.543ZM778.734 310H777.328V292H778.734V310ZM784.125 310H782.719V297.32H784.125V310ZM782.473 293.652C782.473 293.387 782.559 293.164 782.73 292.984C782.902 292.797 783.137 292.703 783.434 292.703C783.73 292.703 783.965 292.797 784.137 292.984C784.316 293.164 784.406 293.387 784.406 293.652C784.406 293.918 784.316 294.141 784.137 294.32C783.965 294.5 783.73 294.59 783.434 294.59C783.137 294.59 782.902 294.5 782.73 294.32C782.559 294.141 782.473 293.918 782.473 293.652ZM792.633 309.051C793.609 309.051 794.426 308.777 795.082 308.23C795.746 307.676 796.105 306.961 796.16 306.086H797.508C797.469 306.859 797.227 307.566 796.781 308.207C796.336 308.84 795.742 309.336 795 309.695C794.266 310.055 793.477 310.234 792.633 310.234C790.969 310.234 789.648 309.656 788.672 308.5C787.703 307.344 787.219 305.789 787.219 303.836V303.414C787.219 302.164 787.438 301.059 787.875 300.098C788.312 299.137 788.938 298.395 789.75 297.871C790.57 297.348 791.527 297.086 792.621 297.086C794.012 297.086 795.156 297.5 796.055 298.328C796.961 299.156 797.445 300.246 797.508 301.598H796.16C796.098 300.605 795.738 299.805 795.082 299.195C794.434 298.586 793.613 298.281 792.621 298.281C791.355 298.281 790.371 298.738 789.668 299.652C788.973 300.566 788.625 301.848 788.625 303.496V303.906C788.625 305.523 788.973 306.785 789.668 307.691C790.371 308.598 791.359 309.051 792.633 309.051ZM808.324 310C808.184 309.602 808.094 309.012 808.055 308.23C807.562 308.871 806.934 309.367 806.168 309.719C805.41 310.062 804.605 310.234 803.754 310.234C802.535 310.234 801.547 309.895 800.789 309.215C800.039 308.535 799.664 307.676 799.664 306.637C799.664 305.402 800.176 304.426 801.199 303.707C802.23 302.988 803.664 302.629 805.5 302.629H808.043V301.188C808.043 300.281 807.762 299.57 807.199 299.055C806.645 298.531 805.832 298.27 804.762 298.27C803.785 298.27 802.977 298.52 802.336 299.02C801.695 299.52 801.375 300.121 801.375 300.824L799.969 300.812C799.969 299.805 800.438 298.934 801.375 298.199C802.312 297.457 803.465 297.086 804.832 297.086C806.246 297.086 807.359 297.441 808.172 298.152C808.992 298.855 809.414 299.84 809.438 301.105V307.105C809.438 308.332 809.566 309.25 809.824 309.859V310H808.324ZM803.918 308.992C804.855 308.992 805.691 308.766 806.426 308.312C807.168 307.859 807.707 307.254 808.043 306.496V303.707H805.535C804.137 303.723 803.043 303.98 802.254 304.48C801.465 304.973 801.07 305.652 801.07 306.52C801.07 307.23 801.332 307.82 801.855 308.289C802.387 308.758 803.074 308.992 803.918 308.992ZM815.367 294.074V297.32H817.992V298.469H815.367V306.918C815.367 307.621 815.492 308.145 815.742 308.488C816 308.832 816.426 309.004 817.02 309.004C817.254 309.004 817.633 308.965 818.156 308.887L818.215 310.035C817.848 310.168 817.348 310.234 816.715 310.234C815.754 310.234 815.055 309.957 814.617 309.402C814.18 308.84 813.961 308.016 813.961 306.93V298.469H811.629V297.32H813.961V294.074H815.367ZM822.469 310H821.062V297.32H822.469V310ZM820.816 293.652C820.816 293.387 820.902 293.164 821.074 292.984C821.246 292.797 821.48 292.703 821.777 292.703C822.074 292.703 822.309 292.797 822.48 292.984C822.66 293.164 822.75 293.387 822.75 293.652C822.75 293.918 822.66 294.141 822.48 294.32C822.309 294.5 822.074 294.59 821.777 294.59C821.48 294.59 821.246 294.5 821.074 294.32C820.902 294.141 820.816 293.918 820.816 293.652ZM825.516 303.473C825.516 302.254 825.75 301.156 826.219 300.18C826.695 299.203 827.363 298.445 828.223 297.906C829.09 297.359 830.07 297.086 831.164 297.086C832.852 297.086 834.219 297.68 835.266 298.867C836.312 300.047 836.836 301.613 836.836 303.566V303.859C836.836 305.086 836.598 306.191 836.121 307.176C835.652 308.152 834.988 308.906 834.129 309.438C833.27 309.969 832.289 310.234 831.188 310.234C829.508 310.234 828.141 309.645 827.086 308.465C826.039 307.277 825.516 305.707 825.516 303.754V303.473ZM826.922 303.859C826.922 305.375 827.312 306.621 828.094 307.598C828.883 308.566 829.914 309.051 831.188 309.051C832.453 309.051 833.477 308.566 834.258 307.598C835.047 306.621 835.441 305.336 835.441 303.742V303.473C835.441 302.504 835.262 301.617 834.902 300.812C834.543 300.008 834.039 299.387 833.391 298.949C832.742 298.504 832 298.281 831.164 298.281C829.914 298.281 828.895 298.773 828.105 299.758C827.316 300.734 826.922 302.016 826.922 303.602V303.859ZM841.078 297.32L841.125 299.488C841.602 298.707 842.195 298.113 842.906 297.707C843.617 297.293 844.402 297.086 845.262 297.086C846.621 297.086 847.633 297.469 848.297 298.234C848.961 299 849.297 300.148 849.305 301.68V310H847.91V301.668C847.902 300.535 847.66 299.691 847.184 299.137C846.715 298.582 845.961 298.305 844.922 298.305C844.055 298.305 843.285 298.578 842.613 299.125C841.949 299.664 841.457 300.395 841.137 301.316V310H839.742V297.32H841.078ZM860.543 303.051V310H859.102V292.938H864.914C866.688 292.938 868.086 293.391 869.109 294.297C870.141 295.203 870.656 296.449 870.656 298.035C870.656 299.637 870.16 300.875 869.168 301.75C868.184 302.617 866.754 303.051 864.879 303.051H860.543ZM860.543 301.832H864.914C866.312 301.832 867.379 301.5 868.113 300.836C868.848 300.172 869.215 299.246 869.215 298.059C869.215 296.879 868.848 295.941 868.113 295.246C867.387 294.543 866.352 294.184 865.008 294.168H860.543V301.832ZM879.422 298.516C879.125 298.461 878.809 298.434 878.473 298.434C877.598 298.434 876.855 298.68 876.246 299.172C875.645 299.656 875.215 300.363 874.957 301.293V310H873.562V297.32H874.934L874.957 299.336C875.699 297.836 876.891 297.086 878.531 297.086C878.922 297.086 879.23 297.137 879.457 297.238L879.422 298.516ZM880.641 303.473C880.641 302.254 880.875 301.156 881.344 300.18C881.82 299.203 882.488 298.445 883.348 297.906C884.215 297.359 885.195 297.086 886.289 297.086C887.977 297.086 889.344 297.68 890.391 298.867C891.438 300.047 891.961 301.613 891.961 303.566V303.859C891.961 305.086 891.723 306.191 891.246 307.176C890.777 308.152 890.113 308.906 889.254 309.438C888.395 309.969 887.414 310.234 886.312 310.234C884.633 310.234 883.266 309.645 882.211 308.465C881.164 307.277 880.641 305.707 880.641 303.754V303.473ZM882.047 303.859C882.047 305.375 882.438 306.621 883.219 307.598C884.008 308.566 885.039 309.051 886.312 309.051C887.578 309.051 888.602 308.566 889.383 307.598C890.172 306.621 890.566 305.336 890.566 303.742V303.473C890.566 302.504 890.387 301.617 890.027 300.812C889.668 300.008 889.164 299.387 888.516 298.949C887.867 298.504 887.125 298.281 886.289 298.281C885.039 298.281 884.02 298.773 883.23 299.758C882.441 300.734 882.047 302.016 882.047 303.602V303.859ZM897.047 294.074V297.32H899.672V298.469H897.047V306.918C897.047 307.621 897.172 308.145 897.422 308.488C897.68 308.832 898.105 309.004 898.699 309.004C898.934 309.004 899.312 308.965 899.836 308.887L899.895 310.035C899.527 310.168 899.027 310.234 898.395 310.234C897.434 310.234 896.734 309.957 896.297 309.402C895.859 308.84 895.641 308.016 895.641 306.93V298.469H893.309V297.32H895.641V294.074H897.047ZM901.57 303.473C901.57 302.254 901.805 301.156 902.273 300.18C902.75 299.203 903.418 298.445 904.277 297.906C905.145 297.359 906.125 297.086 907.219 297.086C908.906 297.086 910.273 297.68 911.32 298.867C912.367 300.047 912.891 301.613 912.891 303.566V303.859C912.891 305.086 912.652 306.191 912.176 307.176C911.707 308.152 911.043 308.906 910.184 309.438C909.324 309.969 908.344 310.234 907.242 310.234C905.562 310.234 904.195 309.645 903.141 308.465C902.094 307.277 901.57 305.707 901.57 303.754V303.473ZM902.977 303.859C902.977 305.375 903.367 306.621 904.148 307.598C904.938 308.566 905.969 309.051 907.242 309.051C908.508 309.051 909.531 308.566 910.312 307.598C911.102 306.621 911.496 305.336 911.496 303.742V303.473C911.496 302.504 911.316 301.617 910.957 300.812C910.598 300.008 910.094 299.387 909.445 298.949C908.797 298.504 908.055 298.281 907.219 298.281C905.969 298.281 904.949 298.773 904.16 299.758C903.371 300.734 902.977 302.016 902.977 303.602V303.859ZM917.977 294.074V297.32H920.602V298.469H917.977V306.918C917.977 307.621 918.102 308.145 918.352 308.488C918.609 308.832 919.035 309.004 919.629 309.004C919.863 309.004 920.242 308.965 920.766 308.887L920.824 310.035C920.457 310.168 919.957 310.234 919.324 310.234C918.363 310.234 917.664 309.957 917.227 309.402C916.789 308.84 916.57 308.016 916.57 306.93V298.469H914.238V297.32H916.57V294.074H917.977ZM927.527 307.984L931.23 297.32H932.742L927.328 312.156L927.047 312.812C926.352 314.352 925.277 315.121 923.824 315.121C923.488 315.121 923.129 315.066 922.746 314.957L922.734 313.797L923.461 313.867C924.148 313.867 924.703 313.695 925.125 313.352C925.555 313.016 925.918 312.434 926.215 311.605L926.836 309.895L922.055 297.32H923.59L927.527 307.984ZM945.117 303.789C945.117 305.766 944.68 307.336 943.805 308.5C942.93 309.656 941.758 310.234 940.289 310.234C938.555 310.234 937.227 309.625 936.305 308.406V314.875H934.91V297.32H936.211L936.281 299.113C937.195 297.762 938.52 297.086 940.254 297.086C941.77 297.086 942.957 297.66 943.816 298.809C944.684 299.957 945.117 301.551 945.117 303.59V303.789ZM943.711 303.543C943.711 301.926 943.379 300.648 942.715 299.711C942.051 298.773 941.125 298.305 939.938 298.305C939.078 298.305 938.34 298.512 937.723 298.926C937.105 299.34 936.633 299.941 936.305 300.73V306.812C936.641 307.539 937.121 308.094 937.746 308.477C938.371 308.859 939.109 309.051 939.961 309.051C941.141 309.051 942.059 308.582 942.715 307.645C943.379 306.699 943.711 305.332 943.711 303.543ZM953.145 310.234C952.066 310.234 951.09 309.969 950.215 309.438C949.348 308.906 948.672 308.168 948.188 307.223C947.703 306.27 947.461 305.203 947.461 304.023V303.52C947.461 302.301 947.695 301.203 948.164 300.227C948.641 299.25 949.301 298.484 950.145 297.93C950.988 297.367 951.902 297.086 952.887 297.086C954.426 297.086 955.645 297.613 956.543 298.668C957.449 299.715 957.902 301.148 957.902 302.969V303.754H948.855V304.023C948.855 305.461 949.266 306.66 950.086 307.621C950.914 308.574 951.953 309.051 953.203 309.051C953.953 309.051 954.613 308.914 955.184 308.641C955.762 308.367 956.285 307.93 956.754 307.328L957.633 307.996C956.602 309.488 955.105 310.234 953.145 310.234ZM952.887 298.281C951.832 298.281 950.941 298.668 950.215 299.441C949.496 300.215 949.059 301.254 948.902 302.559H956.508V302.406C956.469 301.188 956.121 300.195 955.465 299.43C954.809 298.664 953.949 298.281 952.887 298.281ZM970.828 303.062H965.215V301.879H970.828V303.062ZM983.801 310H973.113V308.922L978.961 302.289C979.93 301.172 980.602 300.25 980.977 299.523C981.352 298.797 981.539 298.09 981.539 297.402C981.539 296.324 981.223 295.473 980.59 294.848C979.957 294.215 979.086 293.898 977.977 293.898C976.828 293.898 975.898 294.266 975.188 295C974.484 295.734 974.133 296.688 974.133 297.859H972.738C972.738 296.898 972.953 296.023 973.383 295.234C973.82 294.445 974.438 293.828 975.234 293.383C976.039 292.93 976.953 292.703 977.977 292.703C979.539 292.703 980.758 293.113 981.633 293.934C982.516 294.754 982.957 295.871 982.957 297.285C982.957 298.082 982.707 298.953 982.207 299.898C981.715 300.844 980.844 302.023 979.594 303.438L974.836 308.816H983.801V310ZM996.715 302.887C996.715 305.293 996.273 307.121 995.391 308.371C994.508 309.613 993.207 310.234 991.488 310.234C989.801 310.234 988.508 309.625 987.609 308.406C986.711 307.18 986.25 305.398 986.227 303.062V300.004C986.227 297.605 986.672 295.789 987.562 294.555C988.453 293.32 989.754 292.703 991.465 292.703C993.152 292.703 994.441 293.301 995.332 294.496C996.223 295.684 996.684 297.438 996.715 299.758V302.887ZM995.309 299.828C995.309 297.875 994.988 296.398 994.348 295.398C993.715 294.398 992.754 293.898 991.465 293.898C990.199 293.898 989.246 294.387 988.605 295.363C987.965 296.34 987.637 297.781 987.621 299.688V303.039C987.621 304.984 987.949 306.473 988.605 307.504C989.27 308.535 990.23 309.051 991.488 309.051C992.738 309.051 993.684 308.547 994.324 307.539C994.973 306.531 995.301 305.055 995.309 303.109V299.828ZM1010.43 310H999.738V308.922L1005.59 302.289C1006.55 301.172 1007.23 300.25 1007.6 299.523C1007.98 298.797 1008.16 298.09 1008.16 297.402C1008.16 296.324 1007.85 295.473 1007.21 294.848C1006.58 294.215 1005.71 293.898 1004.6 293.898C1003.45 293.898 1002.52 294.266 1001.81 295C1001.11 295.734 1000.76 296.688 1000.76 297.859H999.363C999.363 296.898 999.578 296.023 1000.01 295.234C1000.45 294.445 1001.06 293.828 1001.86 293.383C1002.66 292.93 1003.58 292.703 1004.6 292.703C1006.16 292.703 1007.38 293.113 1008.26 293.934C1009.14 294.754 1009.58 295.871 1009.58 297.285C1009.58 298.082 1009.33 298.953 1008.83 299.898C1008.34 300.844 1007.47 302.023 1006.22 303.438L1001.46 308.816H1010.43V310ZM1023.34 302.887C1023.34 305.293 1022.9 307.121 1022.02 308.371C1021.13 309.613 1019.83 310.234 1018.11 310.234C1016.43 310.234 1015.13 309.625 1014.23 308.406C1013.34 307.18 1012.88 305.398 1012.85 303.062V300.004C1012.85 297.605 1013.3 295.789 1014.19 294.555C1015.08 293.32 1016.38 292.703 1018.09 292.703C1019.78 292.703 1021.07 293.301 1021.96 294.496C1022.85 295.684 1023.31 297.438 1023.34 299.758V302.887ZM1021.93 299.828C1021.93 297.875 1021.61 296.398 1020.97 295.398C1020.34 294.398 1019.38 293.898 1018.09 293.898C1016.82 293.898 1015.87 294.387 1015.23 295.363C1014.59 296.34 1014.26 297.781 1014.25 299.688V303.039C1014.25 304.984 1014.57 306.473 1015.23 307.504C1015.89 308.535 1016.86 309.051 1018.11 309.051C1019.36 309.051 1020.31 308.547 1020.95 307.539C1021.6 306.531 1021.93 305.055 1021.93 303.109V299.828Z" fill="white"/>
<defs>
<filter id="filter0_b" x="-49.6328" y="-50" width="1300" height="698" filterUnits="userSpaceOnUse" color-interpolation-filters="sRGB">
<feFlood flood-opacity="0" result="BackgroundImageFix"/>
<feGaussianBlur in="BackgroundImage" stdDeviation="25"/>
<feComposite in2="SourceAlpha" operator="in" result="effect1_backgroundBlur"/>
<feBlend mode="normal" in="SourceGraphic" in2="effect1_backgroundBlur" result="shape"/>
</filter>
<filter id="filter1_d" x="402.006" y="257.112" width="144.222" height="159.833" filterUnits="userSpaceOnUse" color-interpolation-filters="sRGB">
<feFlood flood-opacity="0" result="BackgroundImageFix"/>
<feColorMatrix in="SourceAlpha" type="matrix" values="0 0 0 0 0 0 0 0 0 0 0 0 0 0 0 0 0 0 127 0"/>
<feOffset dy="20"/>
<feGaussianBlur stdDeviation="2"/>
<feColorMatrix type="matrix" values="0 0 0 0 0 0 0 0 0 0 0 0 0 0 0 0 0 0 0.25 0"/>
<feBlend mode="normal" in2="BackgroundImageFix" result="effect1_dropShadow"/>
<feBlend mode="normal" in="SourceGraphic" in2="effect1_dropShadow" result="shape"/>
</filter>
<filter id="filter2_d" x="548.942" y="257.112" width="144.222" height="159.833" filterUnits="userSpaceOnUse" color-interpolation-filters="sRGB">
<feFlood flood-opacity="0" result="BackgroundImageFix"/>
<feColorMatrix in="SourceAlpha" type="matrix" values="0 0 0 0 0 0 0 0 0 0 0 0 0 0 0 0 0 0 127 0"/>
<feOffset dy="20"/>
<feGaussianBlur stdDeviation="2"/>
<feColorMatrix type="matrix" values="0 0 0 0 0 0 0 0 0 0 0 0 0 0 0 0 0 0 0.25 0"/>
<feBlend mode="normal" in2="BackgroundImageFix" result="effect1_dropShadow"/>
<feBlend mode="normal" in="SourceGraphic" in2="effect1_dropShadow" result="shape"/>
</filter>
<filter id="filter3_d" x="695.817" y="257.112" width="138.161" height="220.676" filterUnits="userSpaceOnUse" color-interpolation-filters="sRGB">
<feFlood flood-opacity="0" result="BackgroundImageFix"/>
<feColorMatrix in="SourceAlpha" type="matrix" values="0 0 0 0 0 0 0 0 0 0 0 0 0 0 0 0 0 0 127 0"/>
<feOffset dy="20"/>
<feGaussianBlur stdDeviation="2"/>
<feColorMatrix type="matrix" values="0 0 0 0 0 0 0 0 0 0 0 0 0 0 0 0 0 0 0.25 0"/>
<feBlend mode="normal" in2="BackgroundImageFix" result="effect1_dropShadow"/>
<feBlend mode="normal" in="SourceGraphic" in2="effect1_dropShadow" result="shape"/>
</filter>
<filter id="filter4_d" x="843.58" y="189.747" width="37.0811" height="223.033" filterUnits="userSpaceOnUse" color-interpolation-filters="sRGB">
<feFlood flood-opacity="0" result="BackgroundImageFix"/>
<feColorMatrix in="SourceAlpha" type="matrix" values="0 0 0 0 0 0 0 0 0 0 0 0 0 0 0 0 0 0 127 0"/>
<feOffset dy="20"/>
<feGaussianBlur stdDeviation="2"/>
<feColorMatrix type="matrix" values="0 0 0 0 0 0 0 0 0 0 0 0 0 0 0 0 0 0 0.25 0"/>
<feBlend mode="normal" in2="BackgroundImageFix" result="effect1_dropShadow"/>
<feBlend mode="normal" in="SourceGraphic" in2="effect1_dropShadow" result="shape"/>
</filter>
<filter id="filter5_d" x="885.18" y="257.081" width="133.232" height="159.833" filterUnits="userSpaceOnUse" color-interpolation-filters="sRGB">
<feFlood flood-opacity="0" result="BackgroundImageFix"/>
<feColorMatrix in="SourceAlpha" type="matrix" values="0 0 0 0 0 0 0 0 0 0 0 0 0 0 0 0 0 0 127 0"/>
<feOffset dy="20"/>
<feGaussianBlur stdDeviation="2"/>
<feColorMatrix type="matrix" values="0 0 0 0 0 0 0 0 0 0 0 0 0 0 0 0 0 0 0.25 0"/>
<feBlend mode="normal" in2="BackgroundImageFix" result="effect1_dropShadow"/>
<feBlend mode="normal" in="SourceGraphic" in2="effect1_dropShadow" result="shape"/>
</filter>
<filter id="filter6_d" x="185" y="182" width="213.435" height="234.914" filterUnits="userSpaceOnUse" color-interpolation-filters="sRGB">
<feFlood flood-opacity="0" result="BackgroundImageFix"/>
<feColorMatrix in="SourceAlpha" type="matrix" values="0 0 0 0 0 0 0 0 0 0 0 0 0 0 0 0 0 0 127 0"/>
<feOffset dy="20"/>
<feGaussianBlur stdDeviation="2"/>
<feColorMatrix type="matrix" values="0 0 0 0 0 0 0 0 0 0 0 0 0 0 0 0 0 0 0.25 0"/>
<feBlend mode="normal" in2="BackgroundImageFix" result="effect1_dropShadow"/>
<feBlend mode="normal" in="SourceGraphic" in2="effect1_dropShadow" result="shape"/>
</filter>
<filter id="filter7_b" x="-250" y="-250" width="1700" height="1098" filterUnits="userSpaceOnUse" color-interpolation-filters="sRGB">
<feFlood flood-opacity="0" result="BackgroundImageFix"/>
<feGaussianBlur in="BackgroundImage" stdDeviation="125"/>
<feComposite in2="SourceAlpha" operator="in" result="effect1_backgroundBlur"/>
<feBlend mode="normal" in="SourceGraphic" in2="effect1_backgroundBlur" result="shape"/>
</filter>
</defs>
</svg>
