<svg width="230" height="92" viewBox="0 0 230 92" fill="none" xmlns="http://www.w3.org/2000/svg">
<path d="M1.30066 23.5V0.75H8.01941C10.4569 0.75 12.3059 1.25521 13.5663 2.26562C14.8267 3.26562 15.4569 4.74479 15.4569 6.70312C15.4569 7.88021 15.134 8.90625 14.4882 9.78125C13.8527 10.6458 12.9777 11.2656 11.8632 11.6406C13.1861 11.9323 14.2486 12.5833 15.0507 13.5938C15.8632 14.6042 16.2694 15.7708 16.2694 17.0938C16.2694 19.1042 15.6184 20.6771 14.3163 21.8125C13.0246 22.9375 11.2225 23.5 8.91003 23.5H1.30066ZM3.22253 12.5625V21.875H8.98816C10.634 21.875 11.9361 21.4583 12.8944 20.625C13.8632 19.7812 14.3475 18.6146 14.3475 17.125C14.3475 15.7188 13.884 14.6094 12.9569 13.7969C12.0402 12.974 10.7694 12.5625 9.14441 12.5625H3.22253ZM3.22253 10.9531H8.47253C10.0767 10.9219 11.3163 10.5469 12.1913 9.82812C13.0767 9.09896 13.5194 8.04167 13.5194 6.65625C13.5194 5.19792 13.0611 4.125 12.1444 3.4375C11.2382 2.73958 9.86316 2.39062 8.01941 2.39062H3.22253V10.9531ZM19.4569 14.7969C19.4569 13.1719 19.7694 11.7083 20.3944 10.4062C21.0298 9.10417 21.9205 8.09375 23.0663 7.375C24.2225 6.64583 25.5298 6.28125 26.9882 6.28125C29.2382 6.28125 31.0611 7.07292 32.4569 8.65625C33.8527 10.2292 34.5507 12.3177 34.5507 14.9219V15.3125C34.5507 16.9479 34.233 18.4219 33.5975 19.7344C32.9725 21.0365 32.0871 22.0417 30.9413 22.75C29.7955 23.4583 28.4882 23.8125 27.0194 23.8125C24.7798 23.8125 22.9569 23.026 21.5507 21.4531C20.1548 19.8698 19.4569 17.776 19.4569 15.1719V14.7969ZM21.3319 15.3125C21.3319 17.3333 21.8527 18.9948 22.8944 20.2969C23.9465 21.5885 25.3215 22.2344 27.0194 22.2344C28.7069 22.2344 30.0715 21.5885 31.1132 20.2969C32.1652 18.9948 32.6913 17.2812 32.6913 15.1562V14.7969C32.6913 13.5052 32.4517 12.3229 31.9725 11.25C31.4934 10.1771 30.8215 9.34896 29.9569 8.76562C29.0923 8.17188 28.1027 7.875 26.9882 7.875C25.3215 7.875 23.9621 8.53125 22.91 9.84375C21.858 11.1458 21.3319 12.8542 21.3319 14.9688V15.3125ZM46.2382 8.1875C45.8423 8.11458 45.4205 8.07812 44.9725 8.07812C43.8059 8.07812 42.8163 8.40625 42.0038 9.0625C41.2017 9.70833 40.6288 10.651 40.285 11.8906V23.5H38.4257V6.59375H40.2538L40.285 9.28125C41.2746 7.28125 42.8632 6.28125 45.0507 6.28125C45.5715 6.28125 45.983 6.34896 46.285 6.48438L46.2382 8.1875ZM51.2225 6.59375V25.5156C51.2225 27.0781 50.8475 28.2708 50.0975 29.0938C49.3475 29.9167 48.2434 30.3281 46.785 30.3281C46.2225 30.3281 45.6757 30.2292 45.1444 30.0312L45.1757 28.4844C45.634 28.6198 46.1027 28.6875 46.5819 28.6875C48.4361 28.6875 49.3632 27.6198 49.3632 25.4844V6.59375H51.2225ZM50.3007 0.4375C50.7069 0.4375 51.0246 0.5625 51.2538 0.8125C51.483 1.05208 51.5975 1.34896 51.5975 1.70312C51.5975 2.05729 51.483 2.35417 51.2538 2.59375C51.0246 2.83333 50.7069 2.95312 50.3007 2.95312C49.9048 2.95312 49.5923 2.83333 49.3632 2.59375C49.1444 2.35417 49.035 2.05729 49.035 1.70312C49.035 1.34896 49.1444 1.05208 49.3632 0.8125C49.5923 0.5625 49.9048 0.4375 50.3007 0.4375ZM81.5975 23.5H79.66V12.5938H66.66V23.5H64.7382V0.75H66.66V10.9688H79.66V0.75H81.5975V23.5ZM85.9257 14.7969C85.9257 13.1719 86.2382 11.7083 86.8632 10.4062C87.4986 9.10417 88.3892 8.09375 89.535 7.375C90.6913 6.64583 91.9986 6.28125 93.4569 6.28125C95.7069 6.28125 97.5298 7.07292 98.9257 8.65625C100.321 10.2292 101.019 12.3177 101.019 14.9219V15.3125C101.019 16.9479 100.702 18.4219 100.066 19.7344C99.4413 21.0365 98.5559 22.0417 97.41 22.75C96.2642 23.4583 94.9569 23.8125 93.4882 23.8125C91.2486 23.8125 89.4257 23.026 88.0194 21.4531C86.6236 19.8698 85.9257 17.776 85.9257 15.1719V14.7969ZM87.8007 15.3125C87.8007 17.3333 88.3215 18.9948 89.3632 20.2969C90.4152 21.5885 91.7902 22.2344 93.4882 22.2344C95.1757 22.2344 96.5402 21.5885 97.5819 20.2969C98.634 18.9948 99.16 17.2812 99.16 15.1562V14.7969C99.16 13.5052 98.9205 12.3229 98.4413 11.25C97.9621 10.1771 97.2902 9.34896 96.4257 8.76562C95.5611 8.17188 94.5715 7.875 93.4569 7.875C91.7902 7.875 90.4309 8.53125 89.3788 9.84375C88.3267 11.1458 87.8007 12.8542 87.8007 14.9688V15.3125ZM115.769 21.3594C114.644 22.9948 112.848 23.8125 110.379 23.8125C108.577 23.8125 107.207 23.2917 106.269 22.25C105.332 21.1979 104.853 19.6458 104.832 17.5938V6.59375H106.691V17.3594C106.691 20.5781 107.993 22.1875 110.598 22.1875C113.306 22.1875 115.019 21.0677 115.738 18.8281V6.59375H117.613V23.5H115.801L115.769 21.3594ZM132.613 19.2031C132.613 18.276 132.238 17.5312 131.488 16.9688C130.749 16.4062 129.629 15.9688 128.129 15.6562C126.629 15.3333 125.462 14.9688 124.629 14.5625C123.806 14.1458 123.191 13.6406 122.785 13.0469C122.389 12.4531 122.191 11.7344 122.191 10.8906C122.191 9.55729 122.749 8.45833 123.863 7.59375C124.978 6.71875 126.405 6.28125 128.144 6.28125C130.03 6.28125 131.54 6.75 132.676 7.6875C133.821 8.61458 134.394 9.82812 134.394 11.3281H132.519C132.519 10.3385 132.103 9.51562 131.269 8.85938C130.446 8.20312 129.405 7.875 128.144 7.875C126.915 7.875 125.926 8.15104 125.176 8.70312C124.436 9.24479 124.066 9.95312 124.066 10.8281C124.066 11.6719 124.374 12.3281 124.988 12.7969C125.613 13.2552 126.743 13.6771 128.379 14.0625C130.025 14.4479 131.254 14.8594 132.066 15.2969C132.889 15.7344 133.499 16.2604 133.894 16.875C134.29 17.4896 134.488 18.2344 134.488 19.1094C134.488 20.5365 133.91 21.6771 132.754 22.5312C131.608 23.3854 130.108 23.8125 128.254 23.8125C126.285 23.8125 124.686 23.3385 123.457 22.3906C122.238 21.4323 121.629 20.224 121.629 18.7656H123.504C123.577 19.8594 124.035 20.7135 124.879 21.3281C125.733 21.9323 126.858 22.2344 128.254 22.2344C129.556 22.2344 130.608 21.9479 131.41 21.375C132.212 20.8021 132.613 20.0781 132.613 19.2031ZM145.254 23.8125C143.816 23.8125 142.514 23.4583 141.348 22.75C140.191 22.0417 139.29 21.0573 138.644 19.7969C137.999 18.526 137.676 17.1042 137.676 15.5312V14.8594C137.676 13.2344 137.988 11.7708 138.613 10.4688C139.249 9.16667 140.129 8.14583 141.254 7.40625C142.379 6.65625 143.598 6.28125 144.91 6.28125C146.962 6.28125 148.587 6.98438 149.785 8.39062C150.993 9.78646 151.598 11.6979 151.598 14.125V15.1719H139.535V15.5312C139.535 17.4479 140.082 19.0469 141.176 20.3281C142.28 21.599 143.665 22.2344 145.332 22.2344C146.332 22.2344 147.212 22.0521 147.973 21.6875C148.743 21.3229 149.441 20.7396 150.066 19.9375L151.238 20.8281C149.863 22.8177 147.868 23.8125 145.254 23.8125ZM144.91 7.875C143.504 7.875 142.316 8.39062 141.348 9.42188C140.389 10.4531 139.806 11.8385 139.598 13.5781H149.738V13.375C149.686 11.75 149.223 10.4271 148.348 9.40625C147.473 8.38542 146.327 7.875 144.91 7.875ZM1.30066 57.5V34.75H7.66003C9.52462 34.75 11.1965 35.1771 12.6757 36.0312C14.1548 36.875 15.3059 38.0885 16.1288 39.6719C16.9621 41.2552 17.3788 43.0573 17.3788 45.0781V47.1719C17.3788 49.2031 16.9673 51.0052 16.1444 52.5781C15.3215 54.151 14.16 55.3646 12.66 56.2188C11.1705 57.0729 9.45691 57.5 7.51941 57.5H1.30066ZM3.22253 36.3906V55.875H7.53503C9.93087 55.875 11.8527 55.0833 13.3007 53.5C14.7486 51.9062 15.4725 49.7552 15.4725 47.0469V45.0469C15.4725 42.4323 14.759 40.3385 13.3319 38.7656C11.9048 37.1927 10.0246 36.401 7.69128 36.3906H3.22253ZM28.3788 57.8125C26.9413 57.8125 25.6392 57.4583 24.4725 56.75C23.3163 56.0417 22.4152 55.0573 21.7694 53.7969C21.1236 52.526 20.8007 51.1042 20.8007 49.5312V48.8594C20.8007 47.2344 21.1132 45.7708 21.7382 44.4688C22.3736 43.1667 23.2538 42.1458 24.3788 41.4062C25.5038 40.6562 26.7225 40.2812 28.035 40.2812C30.0871 40.2812 31.7121 40.9844 32.91 42.3906C34.1184 43.7865 34.7225 45.6979 34.7225 48.125V49.1719H22.66V49.5312C22.66 51.4479 23.2069 53.0469 24.3007 54.3281C25.4048 55.599 26.7902 56.2344 28.4569 56.2344C29.4569 56.2344 30.3371 56.0521 31.0975 55.6875C31.8684 55.3229 32.5663 54.7396 33.1913 53.9375L34.3632 54.8281C32.9882 56.8177 30.9934 57.8125 28.3788 57.8125ZM28.035 41.875C26.6288 41.875 25.4413 42.3906 24.4725 43.4219C23.5142 44.4531 22.9309 45.8385 22.7225 47.5781H32.8632V47.375C32.8111 45.75 32.3475 44.4271 31.4725 43.4062C30.5975 42.3854 29.4517 41.875 28.035 41.875ZM48.4882 53.2031C48.4882 52.276 48.1132 51.5312 47.3632 50.9688C46.6236 50.4062 45.5038 49.9688 44.0038 49.6562C42.5038 49.3333 41.3371 48.9688 40.5038 48.5625C39.6809 48.1458 39.0663 47.6406 38.66 47.0469C38.2642 46.4531 38.0663 45.7344 38.0663 44.8906C38.0663 43.5573 38.6236 42.4583 39.7382 41.5938C40.8527 40.7188 42.2798 40.2812 44.0194 40.2812C45.9048 40.2812 47.4152 40.75 48.5507 41.6875C49.6965 42.6146 50.2694 43.8281 50.2694 45.3281H48.3944C48.3944 44.3385 47.9777 43.5156 47.1444 42.8594C46.3215 42.2031 45.2798 41.875 44.0194 41.875C42.7902 41.875 41.8007 42.151 41.0507 42.7031C40.3111 43.2448 39.9413 43.9531 39.9413 44.8281C39.9413 45.6719 40.2486 46.3281 40.8632 46.7969C41.4882 47.2552 42.6184 47.6771 44.2538 48.0625C45.8996 48.4479 47.1288 48.8594 47.9413 49.2969C48.7642 49.7344 49.3736 50.2604 49.7694 50.875C50.1652 51.4896 50.3632 52.2344 50.3632 53.1094C50.3632 54.5365 49.785 55.6771 48.6288 56.5312C47.483 57.3854 45.983 57.8125 44.1288 57.8125C42.16 57.8125 40.5611 57.3385 39.3319 56.3906C38.1132 55.4323 37.5038 54.224 37.5038 52.7656H39.3788C39.4517 53.8594 39.91 54.7135 40.7538 55.3281C41.608 55.9323 42.733 56.2344 44.1288 56.2344C45.4309 56.2344 46.483 55.9479 47.285 55.375C48.0871 54.8021 48.4882 54.0781 48.4882 53.2031ZM56.6757 57.5H54.8007V40.5938H56.6757V57.5ZM54.4725 35.7031C54.4725 35.349 54.5871 35.0521 54.8163 34.8125C55.0455 34.5625 55.358 34.4375 55.7538 34.4375C56.1496 34.4375 56.4621 34.5625 56.6913 34.8125C56.9309 35.0521 57.0507 35.349 57.0507 35.7031C57.0507 36.0573 56.9309 36.3542 56.6913 36.5938C56.4621 36.8333 56.1496 36.9531 55.7538 36.9531C55.358 36.9531 55.0455 36.8333 54.8163 36.5938C54.5871 36.3542 54.4725 36.0573 54.4725 35.7031ZM61.0194 48.8906C61.0194 46.2448 61.6027 44.151 62.7694 42.6094C63.9465 41.0573 65.5402 40.2812 67.5507 40.2812C69.8527 40.2812 71.6027 41.1979 72.8007 43.0312L72.8944 40.5938H74.6444V57.1562C74.6444 59.3333 74.035 61.0573 72.8163 62.3281C71.5975 63.599 69.9465 64.2344 67.8632 64.2344C66.6861 64.2344 65.5611 63.9688 64.4882 63.4375C63.4257 62.9167 62.5871 62.2188 61.9725 61.3438L63.0194 60.2188C64.3423 61.8438 65.9152 62.6562 67.7382 62.6562C69.3007 62.6562 70.5194 62.1927 71.3944 61.2656C72.2694 60.349 72.7225 59.0729 72.7538 57.4375V55.3125C71.5559 56.9792 69.8111 57.8125 67.5194 57.8125C65.5611 57.8125 63.9882 57.0312 62.8007 55.4688C61.6132 53.9062 61.0194 51.7969 61.0194 49.1406V48.8906ZM62.91 49.2188C62.91 51.375 63.3423 53.0781 64.2069 54.3281C65.0715 55.5677 66.2902 56.1875 67.8632 56.1875C70.1652 56.1875 71.7955 55.1562 72.7538 53.0938V45.2344C72.3163 44.151 71.6861 43.3281 70.8632 42.7656C70.0402 42.1927 69.0507 41.9062 67.8944 41.9062C66.3215 41.9062 65.0975 42.526 64.2225 43.7656C63.3475 44.9948 62.91 46.8125 62.91 49.2188ZM81.3007 40.5938L81.3632 43.4844C81.9986 42.4427 82.7902 41.651 83.7382 41.1094C84.6861 40.5573 85.733 40.2812 86.8788 40.2812C88.6913 40.2812 90.0402 40.7917 90.9257 41.8125C91.8111 42.8333 92.259 44.3646 92.2694 46.4062V57.5H90.41V46.3906C90.3996 44.8802 90.0767 43.7552 89.4413 43.0156C88.8163 42.276 87.8111 41.9062 86.4257 41.9062C85.2694 41.9062 84.2434 42.2708 83.3475 43C82.4621 43.7188 81.8059 44.6927 81.3788 45.9219V57.5H79.5194V40.5938H81.3007ZM115.566 57.5C115.379 56.9688 115.259 56.1823 115.207 55.1406C114.551 55.9948 113.712 56.6562 112.691 57.125C111.681 57.5833 110.608 57.8125 109.473 57.8125C107.848 57.8125 106.53 57.3594 105.519 56.4531C104.519 55.5469 104.019 54.401 104.019 53.0156C104.019 51.3698 104.702 50.0677 106.066 49.1094C107.441 48.151 109.353 47.6719 111.801 47.6719H115.191V45.75C115.191 44.5417 114.816 43.5938 114.066 42.9062C113.327 42.2083 112.243 41.8594 110.816 41.8594C109.514 41.8594 108.436 42.1927 107.582 42.8594C106.728 43.526 106.301 44.3281 106.301 45.2656L104.426 45.25C104.426 43.9062 105.051 42.7448 106.301 41.7656C107.551 40.776 109.087 40.2812 110.91 40.2812C112.795 40.2812 114.28 40.7552 115.363 41.7031C116.457 42.6406 117.019 43.9531 117.051 45.6406V53.6406C117.051 55.276 117.223 56.5 117.566 57.3125V57.5H115.566ZM109.691 56.1562C110.941 56.1562 112.056 55.8542 113.035 55.25C114.025 54.6458 114.743 53.8385 115.191 52.8281V49.1094H111.848C109.983 49.1302 108.525 49.474 107.473 50.1406C106.42 50.7969 105.894 51.7031 105.894 52.8594C105.894 53.8073 106.243 54.5938 106.941 55.2188C107.65 55.8438 108.566 56.1562 109.691 56.1562ZM123.832 40.5938L123.894 43.4844C124.53 42.4427 125.321 41.651 126.269 41.1094C127.217 40.5573 128.264 40.2812 129.41 40.2812C131.223 40.2812 132.571 40.7917 133.457 41.8125C134.342 42.8333 134.79 44.3646 134.801 46.4062V57.5H132.941V46.3906C132.931 44.8802 132.608 43.7552 131.973 43.0156C131.348 42.276 130.342 41.9062 128.957 41.9062C127.801 41.9062 126.775 42.2708 125.879 43C124.993 43.7188 124.337 44.6927 123.91 45.9219V57.5H122.051V40.5938H123.832ZM138.894 48.8906C138.894 46.2656 139.478 44.1771 140.644 42.625C141.821 41.0625 143.415 40.2812 145.426 40.2812C147.707 40.2812 149.446 41.1823 150.644 42.9844V33.5H152.504V57.5H150.754L150.676 55.25C149.478 56.9583 147.717 57.8125 145.394 57.8125C143.446 57.8125 141.874 57.0312 140.676 55.4688C139.488 53.8958 138.894 51.776 138.894 49.1094V48.8906ZM140.785 49.2188C140.785 51.375 141.217 53.0781 142.082 54.3281C142.946 55.5677 144.165 56.1875 145.738 56.1875C148.04 56.1875 149.676 55.1719 150.644 53.1406V45.2031C149.676 43.0052 148.051 41.9062 145.769 41.9062C144.196 41.9062 142.973 42.526 142.098 43.7656C141.223 44.9948 140.785 46.8125 140.785 49.2188ZM165.644 57.5V34.75H172.363C174.801 34.75 176.65 35.2552 177.91 36.2656C179.17 37.2656 179.801 38.7448 179.801 40.7031C179.801 41.8802 179.478 42.9062 178.832 43.7812C178.196 44.6458 177.321 45.2656 176.207 45.6406C177.53 45.9323 178.592 46.5833 179.394 47.5938C180.207 48.6042 180.613 49.7708 180.613 51.0938C180.613 53.1042 179.962 54.6771 178.66 55.8125C177.368 56.9375 175.566 57.5 173.254 57.5H165.644ZM167.566 46.5625V55.875H173.332C174.978 55.875 176.28 55.4583 177.238 54.625C178.207 53.7812 178.691 52.6146 178.691 51.125C178.691 49.7188 178.228 48.6094 177.301 47.7969C176.384 46.974 175.113 46.5625 173.488 46.5625H167.566ZM167.566 44.9531H172.816C174.42 44.9219 175.66 44.5469 176.535 43.8281C177.42 43.099 177.863 42.0417 177.863 40.6562C177.863 39.1979 177.405 38.125 176.488 37.4375C175.582 36.7396 174.207 36.3906 172.363 36.3906H167.566V44.9531ZM195.707 55.3594C194.582 56.9948 192.785 57.8125 190.316 57.8125C188.514 57.8125 187.144 57.2917 186.207 56.25C185.269 55.1979 184.79 53.6458 184.769 51.5938V40.5938H186.629V51.3594C186.629 54.5781 187.931 56.1875 190.535 56.1875C193.243 56.1875 194.957 55.0677 195.676 52.8281V40.5938H197.551V57.5H195.738L195.707 55.3594ZM204.519 57.5H202.644V40.5938H204.519V57.5ZM202.316 35.7031C202.316 35.349 202.431 35.0521 202.66 34.8125C202.889 34.5625 203.202 34.4375 203.598 34.4375C203.993 34.4375 204.306 34.5625 204.535 34.8125C204.775 35.0521 204.894 35.349 204.894 35.7031C204.894 36.0573 204.775 36.3542 204.535 36.5938C204.306 36.8333 203.993 36.9531 203.598 36.9531C203.202 36.9531 202.889 36.8333 202.66 36.5938C202.431 36.3542 202.316 36.0573 202.316 35.7031ZM211.707 57.5H209.832V33.5H211.707V57.5ZM216.051 48.8906C216.051 46.2656 216.634 44.1771 217.801 42.625C218.978 41.0625 220.571 40.2812 222.582 40.2812C224.863 40.2812 226.603 41.1823 227.801 42.9844V33.5H229.66V57.5H227.91L227.832 55.25C226.634 56.9583 224.874 57.8125 222.551 57.8125C220.603 57.8125 219.03 57.0312 217.832 55.4688C216.644 53.8958 216.051 51.776 216.051 49.1094V48.8906ZM217.941 49.2188C217.941 51.375 218.374 53.0781 219.238 54.3281C220.103 55.5677 221.321 56.1875 222.894 56.1875C225.196 56.1875 226.832 55.1719 227.801 53.1406V45.2031C226.832 43.0052 225.207 41.9062 222.926 41.9062C221.353 41.9062 220.129 42.526 219.254 43.7656C218.379 44.9948 217.941 46.8125 217.941 49.2188ZM14.8163 91.5H0.566284V90.0625L8.36316 81.2188C9.65483 79.7292 10.5507 78.5 11.0507 77.5312C11.5507 76.5625 11.8007 75.6198 11.8007 74.7031C11.8007 73.2656 11.3788 72.1302 10.535 71.2969C9.69128 70.4531 8.52983 70.0312 7.05066 70.0312C5.51941 70.0312 4.27983 70.5208 3.33191 71.5C2.39441 72.4792 1.92566 73.75 1.92566 75.3125H0.0662842C0.0662842 74.0312 0.352743 72.8646 0.925659 71.8125C1.50899 70.7604 2.33191 69.9375 3.39441 69.3438C4.46733 68.7396 5.68608 68.4375 7.05066 68.4375C9.13399 68.4375 10.759 68.9844 11.9257 70.0781C13.1027 71.1719 13.6913 72.6615 13.6913 74.5469C13.6913 75.6094 13.358 76.7708 12.6913 78.0312C12.035 79.2917 10.8736 80.8646 9.20691 82.75L2.86316 89.9219H14.8163V91.5ZM32.035 82.0156C32.035 85.224 31.4465 87.6615 30.2694 89.3281C29.0923 90.9844 27.358 91.8125 25.0663 91.8125C22.8163 91.8125 21.0923 91 19.8944 89.375C18.6965 87.7396 18.0819 85.3646 18.0507 82.25V78.1719C18.0507 74.974 18.6444 72.5521 19.8319 70.9062C21.0194 69.2604 22.7538 68.4375 25.035 68.4375C27.285 68.4375 29.0038 69.2344 30.1913 70.8281C31.3788 72.4115 31.9934 74.75 32.035 77.8438V82.0156ZM30.16 77.9375C30.16 75.3333 29.733 73.3646 28.8788 72.0312C28.035 70.6979 26.7538 70.0312 25.035 70.0312C23.3475 70.0312 22.0767 70.6823 21.2225 71.9844C20.3684 73.2865 19.9309 75.2083 19.91 77.75V82.2188C19.91 84.8125 20.3475 86.7969 21.2225 88.1719C22.108 89.5469 23.3892 90.2344 25.0663 90.2344C26.733 90.2344 27.9934 89.5625 28.8475 88.2188C29.7121 86.875 30.1496 84.9062 30.16 82.3125V77.9375ZM44.7694 91.5H42.8944V71L36.7069 73.2969V71.5469L44.4569 68.6719H44.7694V91.5ZM65.4882 80.9688C64.8215 81.9479 63.9934 82.7083 63.0038 83.25C62.0142 83.7812 60.9413 84.0469 59.785 84.0469C58.4934 84.0469 57.3527 83.7135 56.3632 83.0469C55.3736 82.3802 54.608 81.4583 54.0663 80.2812C53.5246 79.1042 53.2538 77.8177 53.2538 76.4219C53.2538 74.9219 53.5402 73.5573 54.1132 72.3281C54.6965 71.099 55.5038 70.1458 56.535 69.4688C57.5767 68.7812 58.7746 68.4375 60.1288 68.4375C62.41 68.4375 64.1861 69.2396 65.4569 70.8438C66.7277 72.4375 67.3632 74.7031 67.3632 77.6406V79.3281C67.3632 83.4323 66.4882 86.5156 64.7382 88.5781C62.9882 90.6406 60.3163 91.6719 56.7225 91.6719H56.3788L56.3944 90.0469H57.0507C59.7694 90.0052 61.8371 89.2344 63.2538 87.7344C64.6705 86.2344 65.4152 83.9792 65.4882 80.9688ZM60.0194 82.4375C61.2694 82.4375 62.3892 82.0677 63.3788 81.3281C64.3788 80.5781 65.0871 79.6094 65.5038 78.4219V77.3438C65.5038 75.0312 65.0194 73.2396 64.0507 71.9688C63.0923 70.6875 61.7955 70.0469 60.16 70.0469C58.6809 70.0469 57.4673 70.6458 56.5194 71.8438C55.5715 73.0312 55.0975 74.5312 55.0975 76.3438C55.0975 78.0833 55.5507 79.5365 56.4569 80.7031C57.3736 81.8594 58.5611 82.4375 60.0194 82.4375Z" fill="white"/>
</svg>
