<svg width="231" height="93" viewBox="0 0 231 93" fill="none" xmlns="http://www.w3.org/2000/svg">
<path d="M15.1757 18.7441C15.1757 17.4837 14.733 16.4889 13.8475 15.7598C12.9621 15.0202 11.3423 14.3223 8.98816 13.666C6.63399 12.9993 4.91524 12.2754 3.83191 11.4941C2.29024 10.39 1.51941 8.94206 1.51941 7.15039C1.51941 5.41081 2.23295 3.99935 3.66003 2.91602C5.09753 1.82227 6.93087 1.27539 9.16003 1.27539C10.6705 1.27539 12.0194 1.56706 13.2069 2.15039C14.4048 2.73372 15.3319 3.54622 15.9882 4.58789C16.6444 5.62956 16.9725 6.79102 16.9725 8.07227H15.035C15.035 6.52018 14.5038 5.27539 13.4413 4.33789C12.3788 3.38997 10.9517 2.91602 9.16003 2.91602C7.42045 2.91602 6.03503 3.30664 5.00378 4.08789C3.97253 4.85872 3.45691 5.86914 3.45691 7.11914C3.45691 8.27539 3.92045 9.2181 4.84753 9.94727C5.77462 10.6764 7.25899 11.3223 9.30066 11.8848C11.3423 12.4368 12.8892 13.015 13.9413 13.6191C14.9934 14.2129 15.785 14.9264 16.3163 15.7598C16.8475 16.5931 17.1132 17.5775 17.1132 18.7129C17.1132 20.5046 16.3944 21.9421 14.9569 23.0254C13.5298 24.1087 11.6444 24.6504 9.30066 24.6504C7.69649 24.6504 6.22253 24.3639 4.87878 23.791C3.54545 23.2181 2.52983 22.416 1.83191 21.3848C1.14441 20.3535 0.800659 19.1712 0.800659 17.8379H2.72253C2.72253 19.4421 3.32149 20.7077 4.51941 21.6348C5.71733 22.5618 7.31108 23.0254 9.30066 23.0254C11.0715 23.0254 12.4934 22.6348 13.5663 21.8535C14.6392 21.0723 15.1757 20.0358 15.1757 18.7441ZM27.3788 24.6504C25.9413 24.6504 24.6392 24.2962 23.4725 23.5879C22.3163 22.8796 21.4152 21.8952 20.7694 20.6348C20.1236 19.3639 19.8007 17.9421 19.8007 16.3691V15.6973C19.8007 14.0723 20.1132 12.6087 20.7382 11.3066C21.3736 10.0046 22.2538 8.98372 23.3788 8.24414C24.5038 7.49414 25.7225 7.11914 27.035 7.11914C29.0871 7.11914 30.7121 7.82227 31.91 9.22852C33.1184 10.6243 33.7225 12.5358 33.7225 14.9629V16.0098H21.66V16.3691C21.66 18.2858 22.2069 19.8848 23.3007 21.166C24.4048 22.4368 25.7902 23.0723 27.4569 23.0723C28.4569 23.0723 29.3371 22.89 30.0975 22.5254C30.8684 22.1608 31.5663 21.5775 32.1913 20.7754L33.3632 21.666C31.9882 23.6556 29.9934 24.6504 27.3788 24.6504ZM27.035 8.71289C25.6288 8.71289 24.4413 9.22852 23.4725 10.2598C22.5142 11.291 21.9309 12.6764 21.7225 14.416H31.8632V14.2129C31.8111 12.5879 31.3475 11.265 30.4725 10.2441C29.5975 9.22331 28.4517 8.71289 27.035 8.71289ZM50.9569 16.0566C50.9569 18.6921 50.3736 20.7858 49.2069 22.3379C48.0402 23.8796 46.4777 24.6504 44.5194 24.6504C42.2069 24.6504 40.4361 23.8379 39.2069 22.2129V30.8379H37.3475V7.43164H39.0819L39.1757 9.82227C40.3944 8.02018 42.16 7.11914 44.4725 7.11914C46.4934 7.11914 48.0767 7.88477 49.2225 9.41602C50.3788 10.9473 50.9569 13.0723 50.9569 15.791V16.0566ZM49.0819 15.7285C49.0819 13.5723 48.6392 11.8691 47.7538 10.6191C46.8684 9.36914 45.634 8.74414 44.0507 8.74414C42.9048 8.74414 41.9205 9.02018 41.0975 9.57227C40.2746 10.1243 39.6444 10.9264 39.2069 11.9785V20.0879C39.6548 21.0566 40.2955 21.7962 41.1288 22.3066C41.9621 22.8171 42.9465 23.0723 44.0819 23.0723C45.6548 23.0723 46.8788 22.4473 47.7538 21.1973C48.6392 19.9368 49.0819 18.1139 49.0819 15.7285ZM65.785 24.3379C65.5975 23.8066 65.4777 23.0202 65.4257 21.9785C64.7694 22.8327 63.9309 23.4941 62.91 23.9629C61.8996 24.4212 60.8267 24.6504 59.6913 24.6504C58.0663 24.6504 56.7486 24.1973 55.7382 23.291C54.7382 22.3848 54.2382 21.2389 54.2382 19.8535C54.2382 18.2077 54.9205 16.9056 56.285 15.9473C57.66 14.9889 59.5715 14.5098 62.0194 14.5098H65.41V12.5879C65.41 11.3796 65.035 10.4316 64.285 9.74414C63.5455 9.04622 62.4621 8.69727 61.035 8.69727C59.733 8.69727 58.6548 9.0306 57.8007 9.69727C56.9465 10.3639 56.5194 11.166 56.5194 12.1035L54.6444 12.0879C54.6444 10.7441 55.2694 9.58268 56.5194 8.60352C57.7694 7.61393 59.3059 7.11914 61.1288 7.11914C63.0142 7.11914 64.4986 7.5931 65.5819 8.54102C66.6757 9.47852 67.2382 10.791 67.2694 12.4785V20.4785C67.2694 22.1139 67.4413 23.3379 67.785 24.1504V24.3379H65.785ZM59.91 22.9941C61.16 22.9941 62.2746 22.6921 63.2538 22.0879C64.2434 21.4837 64.9621 20.6764 65.41 19.666V15.9473H62.0663C60.2017 15.9681 58.7434 16.3118 57.6913 16.9785C56.6392 17.6348 56.1132 18.541 56.1132 19.6973C56.1132 20.6452 56.4621 21.4316 57.16 22.0566C57.8684 22.6816 58.785 22.9941 59.91 22.9941ZM74.1288 10.291C74.7434 9.2806 75.5298 8.49935 76.4882 7.94727C77.4465 7.39518 78.4934 7.11914 79.6288 7.11914C81.4413 7.11914 82.7902 7.62956 83.6757 8.65039C84.5611 9.67122 85.009 11.2025 85.0194 13.2441V24.3379H83.16V13.2285C83.1496 11.7181 82.8267 10.5931 82.1913 9.85352C81.5663 9.11393 80.5611 8.74414 79.1757 8.74414C78.0194 8.74414 76.9934 9.10872 76.0975 9.83789C75.2121 10.5566 74.5559 11.5306 74.1288 12.7598V24.3379H72.2694V0.337891H74.1288V10.291ZM100.504 24.3379C100.316 23.8066 100.196 23.0202 100.144 21.9785C99.4882 22.8327 98.6496 23.4941 97.6288 23.9629C96.6184 24.4212 95.5455 24.6504 94.41 24.6504C92.785 24.6504 91.4673 24.1973 90.4569 23.291C89.4569 22.3848 88.9569 21.2389 88.9569 19.8535C88.9569 18.2077 89.6392 16.9056 91.0038 15.9473C92.3788 14.9889 94.2902 14.5098 96.7382 14.5098H100.129V12.5879C100.129 11.3796 99.7538 10.4316 99.0038 9.74414C98.2642 9.04622 97.1809 8.69727 95.7538 8.69727C94.4517 8.69727 93.3736 9.0306 92.5194 9.69727C91.6652 10.3639 91.2382 11.166 91.2382 12.1035L89.3632 12.0879C89.3632 10.7441 89.9882 9.58268 91.2382 8.60352C92.4882 7.61393 94.0246 7.11914 95.8475 7.11914C97.733 7.11914 99.2173 7.5931 100.301 8.54102C101.394 9.47852 101.957 10.791 101.988 12.4785V20.4785C101.988 22.1139 102.16 23.3379 102.504 24.1504V24.3379H100.504ZM94.6288 22.9941C95.8788 22.9941 96.9934 22.6921 97.9725 22.0879C98.9621 21.4837 99.6809 20.6764 100.129 19.666V15.9473H96.785C94.9205 15.9681 93.4621 16.3118 92.41 16.9785C91.358 17.6348 90.8319 18.541 90.8319 19.6973C90.8319 20.6452 91.1809 21.4316 91.8788 22.0566C92.5871 22.6816 93.5038 22.9941 94.6288 22.9941ZM108.769 7.43164L108.832 10.3223C109.467 9.2806 110.259 8.48893 111.207 7.94727C112.155 7.39518 113.202 7.11914 114.348 7.11914C116.16 7.11914 117.509 7.62956 118.394 8.65039C119.28 9.67122 119.728 11.2025 119.738 13.2441V24.3379H117.879V13.2285C117.868 11.7181 117.545 10.5931 116.91 9.85352C116.285 9.11393 115.28 8.74414 113.894 8.74414C112.738 8.74414 111.712 9.10872 110.816 9.83789C109.931 10.5566 109.275 11.5306 108.848 12.7598V24.3379H106.988V7.43164H108.769ZM149.66 24.3379H147.723V13.4316H134.723V24.3379H132.801V1.58789H134.723V11.8066H147.723V1.58789H149.66V24.3379ZM153.988 15.6348C153.988 14.0098 154.301 12.5462 154.926 11.2441C155.561 9.94206 156.452 8.93164 157.598 8.21289C158.754 7.48372 160.061 7.11914 161.519 7.11914C163.769 7.11914 165.592 7.91081 166.988 9.49414C168.384 11.0671 169.082 13.1556 169.082 15.7598V16.1504C169.082 17.7858 168.764 19.2598 168.129 20.5723C167.504 21.8743 166.618 22.8796 165.473 23.5879C164.327 24.2962 163.019 24.6504 161.551 24.6504C159.311 24.6504 157.488 23.8639 156.082 22.291C154.686 20.7077 153.988 18.6139 153.988 16.0098V15.6348ZM155.863 16.1504C155.863 18.1712 156.384 19.8327 157.426 21.1348C158.478 22.4264 159.853 23.0723 161.551 23.0723C163.238 23.0723 164.603 22.4264 165.644 21.1348C166.696 19.8327 167.223 18.1191 167.223 15.9941V15.6348C167.223 14.3431 166.983 13.1608 166.504 12.0879C166.025 11.015 165.353 10.1868 164.488 9.60352C163.624 9.00977 162.634 8.71289 161.519 8.71289C159.853 8.71289 158.493 9.36914 157.441 10.6816C156.389 11.9837 155.863 13.6921 155.863 15.8066V16.1504ZM183.832 22.1973C182.707 23.8327 180.91 24.6504 178.441 24.6504C176.639 24.6504 175.269 24.1296 174.332 23.0879C173.394 22.0358 172.915 20.4837 172.894 18.4316V7.43164H174.754V18.1973C174.754 21.416 176.056 23.0254 178.66 23.0254C181.368 23.0254 183.082 21.9056 183.801 19.666V7.43164H185.676V24.3379H183.863L183.832 22.1973ZM200.676 20.041C200.676 19.1139 200.301 18.3691 199.551 17.8066C198.811 17.2441 197.691 16.8066 196.191 16.4941C194.691 16.1712 193.525 15.8066 192.691 15.4004C191.868 14.9837 191.254 14.4785 190.848 13.8848C190.452 13.291 190.254 12.5723 190.254 11.7285C190.254 10.3952 190.811 9.29622 191.926 8.43164C193.04 7.55664 194.467 7.11914 196.207 7.11914C198.092 7.11914 199.603 7.58789 200.738 8.52539C201.884 9.45247 202.457 10.666 202.457 12.166H200.582C200.582 11.1764 200.165 10.3535 199.332 9.69727C198.509 9.04102 197.467 8.71289 196.207 8.71289C194.978 8.71289 193.988 8.98893 193.238 9.54102C192.499 10.0827 192.129 10.791 192.129 11.666C192.129 12.5098 192.436 13.166 193.051 13.6348C193.676 14.0931 194.806 14.515 196.441 14.9004C198.087 15.2858 199.316 15.6973 200.129 16.1348C200.952 16.5723 201.561 17.0983 201.957 17.7129C202.353 18.3275 202.551 19.0723 202.551 19.9473C202.551 21.3743 201.973 22.515 200.816 23.3691C199.67 24.2233 198.17 24.6504 196.316 24.6504C194.348 24.6504 192.749 24.1764 191.519 23.2285C190.301 22.2702 189.691 21.0618 189.691 19.6035H191.566C191.639 20.6973 192.098 21.5514 192.941 22.166C193.795 22.7702 194.92 23.0723 196.316 23.0723C197.618 23.0723 198.67 22.7858 199.473 22.2129C200.275 21.64 200.676 20.916 200.676 20.041ZM213.316 24.6504C211.879 24.6504 210.577 24.2962 209.41 23.5879C208.254 22.8796 207.353 21.8952 206.707 20.6348C206.061 19.3639 205.738 17.9421 205.738 16.3691V15.6973C205.738 14.0723 206.051 12.6087 206.676 11.3066C207.311 10.0046 208.191 8.98372 209.316 8.24414C210.441 7.49414 211.66 7.11914 212.973 7.11914C215.025 7.11914 216.65 7.82227 217.848 9.22852C219.056 10.6243 219.66 12.5358 219.66 14.9629V16.0098H207.598V16.3691C207.598 18.2858 208.144 19.8848 209.238 21.166C210.342 22.4368 211.728 23.0723 213.394 23.0723C214.394 23.0723 215.275 22.89 216.035 22.5254C216.806 22.1608 217.504 21.5775 218.129 20.7754L219.301 21.666C217.926 23.6556 215.931 24.6504 213.316 24.6504ZM212.973 8.71289C211.566 8.71289 210.379 9.22852 209.41 10.2598C208.452 11.291 207.868 12.6764 207.66 14.416H217.801V14.2129C217.749 12.5879 217.285 11.265 216.41 10.2441C215.535 9.22331 214.389 8.71289 212.973 8.71289ZM2.30066 58.3379V35.5879H8.66003C10.5246 35.5879 12.1965 36.015 13.6757 36.8691C15.1548 37.7129 16.3059 38.9264 17.1288 40.5098C17.9621 42.0931 18.3788 43.8952 18.3788 45.916V48.0098C18.3788 50.041 17.9673 51.8431 17.1444 53.416C16.3215 54.9889 15.16 56.2025 13.66 57.0566C12.1705 57.9108 10.4569 58.3379 8.51941 58.3379H2.30066ZM4.22253 37.2285V56.7129H8.53503C10.9309 56.7129 12.8527 55.9212 14.3007 54.3379C15.7486 52.7441 16.4725 50.5931 16.4725 47.8848V45.8848C16.4725 43.2702 15.759 41.1764 14.3319 39.6035C12.9048 38.0306 11.0246 37.2389 8.69128 37.2285H4.22253ZM29.3788 58.6504C27.9413 58.6504 26.6392 58.2962 25.4725 57.5879C24.3163 56.8796 23.4152 55.8952 22.7694 54.6348C22.1236 53.3639 21.8007 51.9421 21.8007 50.3691V49.6973C21.8007 48.0723 22.1132 46.6087 22.7382 45.3066C23.3736 44.0046 24.2538 42.9837 25.3788 42.2441C26.5038 41.4941 27.7225 41.1191 29.035 41.1191C31.0871 41.1191 32.7121 41.8223 33.91 43.2285C35.1184 44.6243 35.7225 46.5358 35.7225 48.9629V50.0098H23.66V50.3691C23.66 52.2858 24.2069 53.8848 25.3007 55.166C26.4048 56.4368 27.7902 57.0723 29.4569 57.0723C30.4569 57.0723 31.3371 56.89 32.0975 56.5254C32.8684 56.1608 33.5663 55.5775 34.1913 54.7754L35.3632 55.666C33.9882 57.6556 31.9934 58.6504 29.3788 58.6504ZM29.035 42.7129C27.6288 42.7129 26.4413 43.2285 25.4725 44.2598C24.5142 45.291 23.9309 46.6764 23.7225 48.416H33.8632V48.2129C33.8111 46.5879 33.3475 45.265 32.4725 44.2441C31.5975 43.2233 30.4517 42.7129 29.035 42.7129ZM49.4882 54.041C49.4882 53.1139 49.1132 52.3691 48.3632 51.8066C47.6236 51.2441 46.5038 50.8066 45.0038 50.4941C43.5038 50.1712 42.3371 49.8066 41.5038 49.4004C40.6809 48.9837 40.0663 48.4785 39.66 47.8848C39.2642 47.291 39.0663 46.5723 39.0663 45.7285C39.0663 44.3952 39.6236 43.2962 40.7382 42.4316C41.8527 41.5566 43.2798 41.1191 45.0194 41.1191C46.9048 41.1191 48.4152 41.5879 49.5507 42.5254C50.6965 43.4525 51.2694 44.666 51.2694 46.166H49.3944C49.3944 45.1764 48.9777 44.3535 48.1444 43.6973C47.3215 43.041 46.2798 42.7129 45.0194 42.7129C43.7902 42.7129 42.8007 42.9889 42.0507 43.541C41.3111 44.0827 40.9413 44.791 40.9413 45.666C40.9413 46.5098 41.2486 47.166 41.8632 47.6348C42.4882 48.0931 43.6184 48.515 45.2538 48.9004C46.8996 49.2858 48.1288 49.6973 48.9413 50.1348C49.7642 50.5723 50.3736 51.0983 50.7694 51.7129C51.1652 52.3275 51.3632 53.0723 51.3632 53.9473C51.3632 55.3743 50.785 56.515 49.6288 57.3691C48.483 58.2233 46.983 58.6504 45.1288 58.6504C43.16 58.6504 41.5611 58.1764 40.3319 57.2285C39.1132 56.2702 38.5038 55.0618 38.5038 53.6035H40.3788C40.4517 54.6973 40.91 55.5514 41.7538 56.166C42.608 56.7702 43.733 57.0723 45.1288 57.0723C46.4309 57.0723 47.483 56.7858 48.285 56.2129C49.0871 55.64 49.4882 54.916 49.4882 54.041ZM57.6757 58.3379H55.8007V41.4316H57.6757V58.3379ZM55.4725 36.541C55.4725 36.1868 55.5871 35.89 55.8163 35.6504C56.0455 35.4004 56.358 35.2754 56.7538 35.2754C57.1496 35.2754 57.4621 35.4004 57.6913 35.6504C57.9309 35.89 58.0507 36.1868 58.0507 36.541C58.0507 36.8952 57.9309 37.1921 57.6913 37.4316C57.4621 37.6712 57.1496 37.791 56.7538 37.791C56.358 37.791 56.0455 37.6712 55.8163 37.4316C55.5871 37.1921 55.4725 36.8952 55.4725 36.541ZM62.0194 49.7285C62.0194 47.0827 62.6027 44.9889 63.7694 43.4473C64.9465 41.8952 66.5402 41.1191 68.5507 41.1191C70.8527 41.1191 72.6027 42.0358 73.8007 43.8691L73.8944 41.4316H75.6444V57.9941C75.6444 60.1712 75.035 61.8952 73.8163 63.166C72.5975 64.4368 70.9465 65.0723 68.8632 65.0723C67.6861 65.0723 66.5611 64.8066 65.4882 64.2754C64.4257 63.7546 63.5871 63.0566 62.9725 62.1816L64.0194 61.0566C65.3423 62.6816 66.9152 63.4941 68.7382 63.4941C70.3007 63.4941 71.5194 63.0306 72.3944 62.1035C73.2694 61.1868 73.7225 59.9108 73.7538 58.2754V56.1504C72.5559 57.8171 70.8111 58.6504 68.5194 58.6504C66.5611 58.6504 64.9882 57.8691 63.8007 56.3066C62.6132 54.7441 62.0194 52.6348 62.0194 49.9785V49.7285ZM63.91 50.0566C63.91 52.2129 64.3423 53.916 65.2069 55.166C66.0715 56.4056 67.2902 57.0254 68.8632 57.0254C71.1652 57.0254 72.7955 55.9941 73.7538 53.9316V46.0723C73.3163 44.9889 72.6861 44.166 71.8632 43.6035C71.0402 43.0306 70.0507 42.7441 68.8944 42.7441C67.3215 42.7441 66.0975 43.3639 65.2225 44.6035C64.3475 45.8327 63.91 47.6504 63.91 50.0566ZM82.3007 41.4316L82.3632 44.3223C82.9986 43.2806 83.7902 42.4889 84.7382 41.9473C85.6861 41.3952 86.733 41.1191 87.8788 41.1191C89.6913 41.1191 91.0402 41.6296 91.9257 42.6504C92.8111 43.6712 93.259 45.2025 93.2694 47.2441V58.3379H91.41V47.2285C91.3996 45.7181 91.0767 44.5931 90.4413 43.8535C89.8163 43.1139 88.8111 42.7441 87.4257 42.7441C86.2694 42.7441 85.2434 43.1087 84.3475 43.8379C83.4621 44.5566 82.8059 45.5306 82.3788 46.7598V58.3379H80.5194V41.4316H82.3007ZM116.566 58.3379C116.379 57.8066 116.259 57.0202 116.207 55.9785C115.551 56.8327 114.712 57.4941 113.691 57.9629C112.681 58.4212 111.608 58.6504 110.473 58.6504C108.848 58.6504 107.53 58.1973 106.519 57.291C105.519 56.3848 105.019 55.2389 105.019 53.8535C105.019 52.2077 105.702 50.9056 107.066 49.9473C108.441 48.9889 110.353 48.5098 112.801 48.5098H116.191V46.5879C116.191 45.3796 115.816 44.4316 115.066 43.7441C114.327 43.0462 113.243 42.6973 111.816 42.6973C110.514 42.6973 109.436 43.0306 108.582 43.6973C107.728 44.3639 107.301 45.166 107.301 46.1035L105.426 46.0879C105.426 44.7441 106.051 43.5827 107.301 42.6035C108.551 41.6139 110.087 41.1191 111.91 41.1191C113.795 41.1191 115.28 41.5931 116.363 42.541C117.457 43.4785 118.019 44.791 118.051 46.4785V54.4785C118.051 56.1139 118.223 57.3379 118.566 58.1504V58.3379H116.566ZM110.691 56.9941C111.941 56.9941 113.056 56.6921 114.035 56.0879C115.025 55.4837 115.743 54.6764 116.191 53.666V49.9473H112.848C110.983 49.9681 109.525 50.3118 108.473 50.9785C107.42 51.6348 106.894 52.541 106.894 53.6973C106.894 54.6452 107.243 55.4316 107.941 56.0566C108.65 56.6816 109.566 56.9941 110.691 56.9941ZM124.832 41.4316L124.894 44.3223C125.53 43.2806 126.321 42.4889 127.269 41.9473C128.217 41.3952 129.264 41.1191 130.41 41.1191C132.223 41.1191 133.571 41.6296 134.457 42.6504C135.342 43.6712 135.79 45.2025 135.801 47.2441V58.3379H133.941V47.2285C133.931 45.7181 133.608 44.5931 132.973 43.8535C132.348 43.1139 131.342 42.7441 129.957 42.7441C128.801 42.7441 127.775 43.1087 126.879 43.8379C125.993 44.5566 125.337 45.5306 124.91 46.7598V58.3379H123.051V41.4316H124.832ZM139.894 49.7285C139.894 47.1035 140.478 45.015 141.644 43.4629C142.821 41.9004 144.415 41.1191 146.426 41.1191C148.707 41.1191 150.446 42.0202 151.644 43.8223V34.3379H153.504V58.3379H151.754L151.676 56.0879C150.478 57.7962 148.717 58.6504 146.394 58.6504C144.446 58.6504 142.874 57.8691 141.676 56.3066C140.488 54.7337 139.894 52.6139 139.894 49.9473V49.7285ZM141.785 50.0566C141.785 52.2129 142.217 53.916 143.082 55.166C143.946 56.4056 145.165 57.0254 146.738 57.0254C149.04 57.0254 150.676 56.0098 151.644 53.9785V46.041C150.676 43.8431 149.051 42.7441 146.769 42.7441C145.196 42.7441 143.973 43.3639 143.098 44.6035C142.223 45.8327 141.785 47.6504 141.785 50.0566ZM166.644 58.3379V35.5879H173.363C175.801 35.5879 177.65 36.0931 178.91 37.1035C180.17 38.1035 180.801 39.5827 180.801 41.541C180.801 42.7181 180.478 43.7441 179.832 44.6191C179.196 45.4837 178.321 46.1035 177.207 46.4785C178.53 46.7702 179.592 47.4212 180.394 48.4316C181.207 49.4421 181.613 50.6087 181.613 51.9316C181.613 53.9421 180.962 55.515 179.66 56.6504C178.368 57.7754 176.566 58.3379 174.254 58.3379H166.644ZM168.566 47.4004V56.7129H174.332C175.978 56.7129 177.28 56.2962 178.238 55.4629C179.207 54.6191 179.691 53.4525 179.691 51.9629C179.691 50.5566 179.228 49.4473 178.301 48.6348C177.384 47.8118 176.113 47.4004 174.488 47.4004H168.566ZM168.566 45.791H173.816C175.42 45.7598 176.66 45.3848 177.535 44.666C178.42 43.9368 178.863 42.8796 178.863 41.4941C178.863 40.0358 178.405 38.9629 177.488 38.2754C176.582 37.5775 175.207 37.2285 173.363 37.2285H168.566V45.791ZM196.707 56.1973C195.582 57.8327 193.785 58.6504 191.316 58.6504C189.514 58.6504 188.144 58.1296 187.207 57.0879C186.269 56.0358 185.79 54.4837 185.769 52.4316V41.4316H187.629V52.1973C187.629 55.416 188.931 57.0254 191.535 57.0254C194.243 57.0254 195.957 55.9056 196.676 53.666V41.4316H198.551V58.3379H196.738L196.707 56.1973ZM205.519 58.3379H203.644V41.4316H205.519V58.3379ZM203.316 36.541C203.316 36.1868 203.431 35.89 203.66 35.6504C203.889 35.4004 204.202 35.2754 204.598 35.2754C204.993 35.2754 205.306 35.4004 205.535 35.6504C205.775 35.89 205.894 36.1868 205.894 36.541C205.894 36.8952 205.775 37.1921 205.535 37.4316C205.306 37.6712 204.993 37.791 204.598 37.791C204.202 37.791 203.889 37.6712 203.66 37.4316C203.431 37.1921 203.316 36.8952 203.316 36.541ZM212.707 58.3379H210.832V34.3379H212.707V58.3379ZM217.051 49.7285C217.051 47.1035 217.634 45.015 218.801 43.4629C219.978 41.9004 221.571 41.1191 223.582 41.1191C225.863 41.1191 227.603 42.0202 228.801 43.8223V34.3379H230.66V58.3379H228.91L228.832 56.0879C227.634 57.7962 225.874 58.6504 223.551 58.6504C221.603 58.6504 220.03 57.8691 218.832 56.3066C217.644 54.7337 217.051 52.6139 217.051 49.9473V49.7285ZM218.941 50.0566C218.941 52.2129 219.374 53.916 220.238 55.166C221.103 56.4056 222.321 57.0254 223.894 57.0254C226.196 57.0254 227.832 56.0098 228.801 53.9785V46.041C227.832 43.8431 226.207 42.7441 223.926 42.7441C222.353 42.7441 221.129 43.3639 220.254 44.6035C219.379 45.8327 218.941 47.6504 218.941 50.0566ZM15.8163 92.3379H1.56628V90.9004L9.36316 82.0566C10.6548 80.5671 11.5507 79.3379 12.0507 78.3691C12.5507 77.4004 12.8007 76.4577 12.8007 75.541C12.8007 74.1035 12.3788 72.9681 11.535 72.1348C10.6913 71.291 9.52983 70.8691 8.05066 70.8691C6.51941 70.8691 5.27983 71.3587 4.33191 72.3379C3.39441 73.3171 2.92566 74.5879 2.92566 76.1504H1.06628C1.06628 74.8691 1.35274 73.7025 1.92566 72.6504C2.50899 71.5983 3.33191 70.7754 4.39441 70.1816C5.46733 69.5775 6.68608 69.2754 8.05066 69.2754C10.134 69.2754 11.759 69.8223 12.9257 70.916C14.1027 72.0098 14.6913 73.4993 14.6913 75.3848C14.6913 76.4473 14.358 77.6087 13.6913 78.8691C13.035 80.1296 11.8736 81.7025 10.2069 83.5879L3.86316 90.7598H15.8163V92.3379ZM33.035 82.8535C33.035 86.0618 32.4465 88.4993 31.2694 90.166C30.0923 91.8223 28.358 92.6504 26.0663 92.6504C23.8163 92.6504 22.0923 91.8379 20.8944 90.2129C19.6965 88.5775 19.0819 86.2025 19.0507 83.0879V79.0098C19.0507 75.8118 19.6444 73.39 20.8319 71.7441C22.0194 70.0983 23.7538 69.2754 26.035 69.2754C28.285 69.2754 30.0038 70.0723 31.1913 71.666C32.3788 73.2493 32.9934 75.5879 33.035 78.6816V82.8535ZM31.16 78.7754C31.16 76.1712 30.733 74.2025 29.8788 72.8691C29.035 71.5358 27.7538 70.8691 26.035 70.8691C24.3475 70.8691 23.0767 71.5202 22.2225 72.8223C21.3684 74.1243 20.9309 76.0462 20.91 78.5879V83.0566C20.91 85.6504 21.3475 87.6348 22.2225 89.0098C23.108 90.3848 24.3892 91.0723 26.0663 91.0723C27.733 91.0723 28.9934 90.4004 29.8475 89.0566C30.7121 87.7129 31.1496 85.7441 31.16 83.1504V78.7754ZM45.7694 92.3379H43.8944V71.8379L37.7069 74.1348V72.3848L45.4569 69.5098H45.7694V92.3379ZM68.2225 75.4473C68.2225 76.6243 67.8788 77.6816 67.1913 78.6191C66.5038 79.5462 65.5975 80.2285 64.4725 80.666C65.785 81.1139 66.8371 81.8379 67.6288 82.8379C68.4205 83.8379 68.8163 84.9941 68.8163 86.3066C68.8163 88.2546 68.1548 89.8014 66.8319 90.9473C65.509 92.0827 63.759 92.6504 61.5819 92.6504C59.384 92.6504 57.6236 92.0827 56.3007 90.9473C54.9882 89.8118 54.3319 88.265 54.3319 86.3066C54.3319 85.015 54.7121 83.8639 55.4725 82.8535C56.233 81.8431 57.2746 81.1139 58.5975 80.666C57.4725 80.2285 56.5767 79.5462 55.91 78.6191C55.2434 77.6816 54.91 76.6243 54.91 75.4473C54.91 73.5618 55.5142 72.0618 56.7225 70.9473C57.9413 69.8327 59.5507 69.2754 61.5507 69.2754C63.5507 69.2754 65.16 69.8379 66.3788 70.9629C67.608 72.0879 68.2225 73.5827 68.2225 75.4473ZM66.9413 86.3223C66.9413 84.9056 66.4361 83.7441 65.4257 82.8379C64.4152 81.9212 63.1236 81.4629 61.5507 81.4629C59.9777 81.4629 58.6913 81.9108 57.6913 82.8066C56.6913 83.7025 56.1913 84.8743 56.1913 86.3223C56.1913 87.7702 56.6757 88.9264 57.6444 89.791C58.6132 90.6452 59.9257 91.0723 61.5819 91.0723C63.1965 91.0723 64.4934 90.6452 65.4725 89.791C66.4517 88.9368 66.9413 87.7806 66.9413 86.3223ZM66.3475 75.4316C66.3475 74.1296 65.8944 73.0462 64.9882 72.1816C64.0923 71.3066 62.9465 70.8691 61.5507 70.8691C60.134 70.8691 58.983 71.291 58.0975 72.1348C57.2225 72.9681 56.785 74.0671 56.785 75.4316C56.785 76.765 57.2225 77.8379 58.0975 78.6504C58.983 79.4629 60.1392 79.8691 61.5663 79.8691C62.9725 79.8691 64.1184 79.4629 65.0038 78.6504C65.8996 77.8275 66.3475 76.7546 66.3475 75.4316Z" fill="white"/>
</svg>
