<svg width="272" height="93" viewBox="0 0 272 93" fill="none" xmlns="http://www.w3.org/2000/svg">
<path d="M1.30066 24.5V1.75H8.01941C10.4569 1.75 12.3059 2.25521 13.5663 3.26562C14.8267 4.26562 15.4569 5.74479 15.4569 7.70312C15.4569 8.88021 15.134 9.90625 14.4882 10.7812C13.8527 11.6458 12.9777 12.2656 11.8632 12.6406C13.1861 12.9323 14.2486 13.5833 15.0507 14.5938C15.8632 15.6042 16.2694 16.7708 16.2694 18.0938C16.2694 20.1042 15.6184 21.6771 14.3163 22.8125C13.0246 23.9375 11.2225 24.5 8.91003 24.5H1.30066ZM3.22253 13.5625V22.875H8.98816C10.634 22.875 11.9361 22.4583 12.8944 21.625C13.8632 20.7812 14.3475 19.6146 14.3475 18.125C14.3475 16.7188 13.884 15.6094 12.9569 14.7969C12.0402 13.974 10.7694 13.5625 9.14441 13.5625H3.22253ZM3.22253 11.9531H8.47253C10.0767 11.9219 11.3163 11.5469 12.1913 10.8281C13.0767 10.099 13.5194 9.04167 13.5194 7.65625C13.5194 6.19792 13.0611 5.125 12.1444 4.4375C11.2382 3.73958 9.86316 3.39062 8.01941 3.39062H3.22253V11.9531ZM31.16 24.5C30.9725 23.9688 30.8527 23.1823 30.8007 22.1406C30.1444 22.9948 29.3059 23.6562 28.285 24.125C27.2746 24.5833 26.2017 24.8125 25.0663 24.8125C23.4413 24.8125 22.1236 24.3594 21.1132 23.4531C20.1132 22.5469 19.6132 21.401 19.6132 20.0156C19.6132 18.3698 20.2955 17.0677 21.66 16.1094C23.035 15.151 24.9465 14.6719 27.3944 14.6719H30.785V12.75C30.785 11.5417 30.41 10.5938 29.66 9.90625C28.9205 9.20833 27.8371 8.85938 26.41 8.85938C25.108 8.85938 24.0298 9.19271 23.1757 9.85938C22.3215 10.526 21.8944 11.3281 21.8944 12.2656L20.0194 12.25C20.0194 10.9062 20.6444 9.74479 21.8944 8.76562C23.1444 7.77604 24.6809 7.28125 26.5038 7.28125C28.3892 7.28125 29.8736 7.75521 30.9569 8.70312C32.0507 9.64062 32.6132 10.9531 32.6444 12.6406V20.6406C32.6444 22.276 32.8163 23.5 33.16 24.3125V24.5H31.16ZM25.285 23.1562C26.535 23.1562 27.6496 22.8542 28.6288 22.25C29.6184 21.6458 30.3371 20.8385 30.785 19.8281V16.1094H27.4413C25.5767 16.1302 24.1184 16.474 23.0663 17.1406C22.0142 17.7969 21.4882 18.7031 21.4882 19.8594C21.4882 20.8073 21.8371 21.5938 22.535 22.2188C23.2434 22.8438 24.16 23.1562 25.285 23.1562ZM45.4569 9.1875C45.0611 9.11458 44.6392 9.07812 44.1913 9.07812C43.0246 9.07812 42.035 9.40625 41.2225 10.0625C40.4205 10.7083 39.8475 11.651 39.5038 12.8906V24.5H37.6444V7.59375H39.4725L39.5038 10.2812C40.4934 8.28125 42.0819 7.28125 44.2694 7.28125C44.7902 7.28125 45.2017 7.34896 45.5038 7.48438L45.4569 9.1875ZM50.5194 24.5H48.6444V7.59375H50.5194V24.5ZM48.3163 2.70312C48.3163 2.34896 48.4309 2.05208 48.66 1.8125C48.8892 1.5625 49.2017 1.4375 49.5975 1.4375C49.9934 1.4375 50.3059 1.5625 50.535 1.8125C50.7746 2.05208 50.8944 2.34896 50.8944 2.70312C50.8944 3.05729 50.7746 3.35417 50.535 3.59375C50.3059 3.83333 49.9934 3.95312 49.5975 3.95312C49.2017 3.95312 48.8892 3.83333 48.66 3.59375C48.4309 3.35417 48.3163 3.05729 48.3163 2.70312ZM65.7382 20.2031C65.7382 19.276 65.3632 18.5312 64.6132 17.9688C63.8736 17.4062 62.7538 16.9688 61.2538 16.6562C59.7538 16.3333 58.5871 15.9688 57.7538 15.5625C56.9309 15.1458 56.3163 14.6406 55.91 14.0469C55.5142 13.4531 55.3163 12.7344 55.3163 11.8906C55.3163 10.5573 55.8736 9.45833 56.9882 8.59375C58.1027 7.71875 59.5298 7.28125 61.2694 7.28125C63.1548 7.28125 64.6652 7.75 65.8007 8.6875C66.9465 9.61458 67.5194 10.8281 67.5194 12.3281H65.6444C65.6444 11.3385 65.2277 10.5156 64.3944 9.85938C63.5715 9.20312 62.5298 8.875 61.2694 8.875C60.0402 8.875 59.0507 9.15104 58.3007 9.70312C57.5611 10.2448 57.1913 10.9531 57.1913 11.8281C57.1913 12.6719 57.4986 13.3281 58.1132 13.7969C58.7382 14.2552 59.8684 14.6771 61.5038 15.0625C63.1496 15.4479 64.3788 15.8594 65.1913 16.2969C66.0142 16.7344 66.6236 17.2604 67.0194 17.875C67.4152 18.4896 67.6132 19.2344 67.6132 20.1094C67.6132 21.5365 67.035 22.6771 65.8788 23.5312C64.733 24.3854 63.233 24.8125 61.3788 24.8125C59.41 24.8125 57.8111 24.3385 56.5819 23.3906C55.3632 22.4323 54.7538 21.224 54.7538 19.7656H56.6288C56.7017 20.8594 57.16 21.7135 58.0038 22.3281C58.858 22.9323 59.983 23.2344 61.3788 23.2344C62.6809 23.2344 63.733 22.9479 64.535 22.375C65.3371 21.8021 65.7382 21.0781 65.7382 20.2031ZM96.16 17.4062C95.8996 19.8021 95.0402 21.6354 93.5819 22.9062C92.134 24.1771 90.2017 24.8125 87.785 24.8125C86.0975 24.8125 84.6027 24.3906 83.3007 23.5469C82.009 22.7031 81.009 21.5104 80.3007 19.9688C79.5923 18.4167 79.233 16.6458 79.2225 14.6562V11.7031C79.2225 9.68229 79.5767 7.89062 80.285 6.32812C80.9934 4.76562 82.009 3.5625 83.3319 2.71875C84.6652 1.86458 86.1965 1.4375 87.9257 1.4375C90.3632 1.4375 92.285 2.09896 93.6913 3.42188C95.108 4.73438 95.9309 6.55208 96.16 8.875H94.2225C93.7434 5.01042 91.6444 3.07812 87.9257 3.07812C85.8632 3.07812 84.2173 3.84896 82.9882 5.39062C81.7694 6.93229 81.16 9.0625 81.16 11.7812V14.5625C81.16 17.1875 81.7538 19.2812 82.9413 20.8438C84.1392 22.4062 85.7538 23.1875 87.785 23.1875C89.7955 23.1875 91.3111 22.7083 92.3319 21.75C93.3527 20.7812 93.983 19.3333 94.2225 17.4062H96.16ZM99.3632 15.7969C99.3632 14.1719 99.6757 12.7083 100.301 11.4062C100.936 10.1042 101.827 9.09375 102.973 8.375C104.129 7.64583 105.436 7.28125 106.894 7.28125C109.144 7.28125 110.967 8.07292 112.363 9.65625C113.759 11.2292 114.457 13.3177 114.457 15.9219V16.3125C114.457 17.9479 114.139 19.4219 113.504 20.7344C112.879 22.0365 111.993 23.0417 110.848 23.75C109.702 24.4583 108.394 24.8125 106.926 24.8125C104.686 24.8125 102.863 24.026 101.457 22.4531C100.061 20.8698 99.3632 18.776 99.3632 16.1719V15.7969ZM101.238 16.3125C101.238 18.3333 101.759 19.9948 102.801 21.2969C103.853 22.5885 105.228 23.2344 106.926 23.2344C108.613 23.2344 109.978 22.5885 111.019 21.2969C112.071 19.9948 112.598 18.2812 112.598 16.1562V15.7969C112.598 14.5052 112.358 13.3229 111.879 12.25C111.4 11.1771 110.728 10.349 109.863 9.76562C108.999 9.17188 108.009 8.875 106.894 8.875C105.228 8.875 103.868 9.53125 102.816 10.8438C101.764 12.1458 101.238 13.8542 101.238 15.9688V16.3125ZM120.035 7.59375L120.098 10.3438C120.723 9.32292 121.504 8.55729 122.441 8.04688C123.379 7.53646 124.42 7.28125 125.566 7.28125C128.233 7.28125 129.926 8.375 130.644 10.5625C131.249 9.51042 132.056 8.70312 133.066 8.14062C134.077 7.56771 135.191 7.28125 136.41 7.28125C140.035 7.28125 141.884 9.26042 141.957 13.2188V24.5H140.082V13.3594C140.071 11.849 139.743 10.7292 139.098 10C138.462 9.27083 137.42 8.90625 135.973 8.90625C134.629 8.92708 133.493 9.36458 132.566 10.2188C131.639 11.0625 131.124 12.0938 131.019 13.3125V24.5H129.144V13.2188C129.134 11.7708 128.79 10.6927 128.113 9.98438C127.446 9.26562 126.415 8.90625 125.019 8.90625C123.842 8.90625 122.832 9.24479 121.988 9.92188C121.144 10.5885 120.519 11.5833 120.113 12.9062V24.5H118.238V7.59375H120.035ZM160.301 16.2188C160.301 18.8542 159.717 20.9479 158.551 22.5C157.384 24.0417 155.821 24.8125 153.863 24.8125C151.551 24.8125 149.78 24 148.551 22.375V31H146.691V7.59375H148.426L148.519 9.98438C149.738 8.18229 151.504 7.28125 153.816 7.28125C155.837 7.28125 157.42 8.04688 158.566 9.57812C159.723 11.1094 160.301 13.2344 160.301 15.9531V16.2188ZM158.426 15.8906C158.426 13.7344 157.983 12.0312 157.098 10.7812C156.212 9.53125 154.978 8.90625 153.394 8.90625C152.249 8.90625 151.264 9.18229 150.441 9.73438C149.618 10.2865 148.988 11.0885 148.551 12.1406V20.25C148.999 21.2188 149.639 21.9583 150.473 22.4688C151.306 22.9792 152.29 23.2344 153.426 23.2344C154.999 23.2344 156.223 22.6094 157.098 21.3594C157.983 20.099 158.426 18.276 158.426 15.8906ZM166.551 24.5H164.676V0.5H166.551V24.5ZM178.191 24.8125C176.754 24.8125 175.452 24.4583 174.285 23.75C173.129 23.0417 172.228 22.0573 171.582 20.7969C170.936 19.526 170.613 18.1042 170.613 16.5312V15.8594C170.613 14.2344 170.926 12.7708 171.551 11.4688C172.186 10.1667 173.066 9.14583 174.191 8.40625C175.316 7.65625 176.535 7.28125 177.848 7.28125C179.9 7.28125 181.525 7.98438 182.723 9.39062C183.931 10.7865 184.535 12.6979 184.535 15.125V16.1719H172.473V16.5312C172.473 18.4479 173.019 20.0469 174.113 21.3281C175.217 22.599 176.603 23.2344 178.269 23.2344C179.269 23.2344 180.15 23.0521 180.91 22.6875C181.681 22.3229 182.379 21.7396 183.004 20.9375L184.176 21.8281C182.801 23.8177 180.806 24.8125 178.191 24.8125ZM177.848 8.875C176.441 8.875 175.254 9.39062 174.285 10.4219C173.327 11.4531 172.743 12.8385 172.535 14.5781H182.676V14.375C182.624 12.75 182.16 11.4271 181.285 10.4062C180.41 9.38542 179.264 8.875 177.848 8.875ZM193.488 14.4531L198.051 7.59375H200.269L194.535 15.8906L200.519 24.5H198.316L193.504 17.3438L188.691 24.5H186.488L192.457 15.8906L186.723 7.59375H188.926L193.488 14.4531ZM1.30066 58.5V35.75H7.66003C9.52462 35.75 11.1965 36.1771 12.6757 37.0312C14.1548 37.875 15.3059 39.0885 16.1288 40.6719C16.9621 42.2552 17.3788 44.0573 17.3788 46.0781V48.1719C17.3788 50.2031 16.9673 52.0052 16.1444 53.5781C15.3215 55.151 14.16 56.3646 12.66 57.2188C11.1705 58.0729 9.45691 58.5 7.51941 58.5H1.30066ZM3.22253 37.3906V56.875H7.53503C9.93087 56.875 11.8527 56.0833 13.3007 54.5C14.7486 52.9062 15.4725 50.7552 15.4725 48.0469V46.0469C15.4725 43.4323 14.759 41.3385 13.3319 39.7656C11.9048 38.1927 10.0246 37.401 7.69128 37.3906H3.22253ZM28.3788 58.8125C26.9413 58.8125 25.6392 58.4583 24.4725 57.75C23.3163 57.0417 22.4152 56.0573 21.7694 54.7969C21.1236 53.526 20.8007 52.1042 20.8007 50.5312V49.8594C20.8007 48.2344 21.1132 46.7708 21.7382 45.4688C22.3736 44.1667 23.2538 43.1458 24.3788 42.4062C25.5038 41.6562 26.7225 41.2812 28.035 41.2812C30.0871 41.2812 31.7121 41.9844 32.91 43.3906C34.1184 44.7865 34.7225 46.6979 34.7225 49.125V50.1719H22.66V50.5312C22.66 52.4479 23.2069 54.0469 24.3007 55.3281C25.4048 56.599 26.7902 57.2344 28.4569 57.2344C29.4569 57.2344 30.3371 57.0521 31.0975 56.6875C31.8684 56.3229 32.5663 55.7396 33.1913 54.9375L34.3632 55.8281C32.9882 57.8177 30.9934 58.8125 28.3788 58.8125ZM28.035 42.875C26.6288 42.875 25.4413 43.3906 24.4725 44.4219C23.5142 45.4531 22.9309 46.8385 22.7225 48.5781H32.8632V48.375C32.8111 46.75 32.3475 45.4271 31.4725 44.4062C30.5975 43.3854 29.4517 42.875 28.035 42.875ZM48.4882 54.2031C48.4882 53.276 48.1132 52.5312 47.3632 51.9688C46.6236 51.4062 45.5038 50.9688 44.0038 50.6562C42.5038 50.3333 41.3371 49.9688 40.5038 49.5625C39.6809 49.1458 39.0663 48.6406 38.66 48.0469C38.2642 47.4531 38.0663 46.7344 38.0663 45.8906C38.0663 44.5573 38.6236 43.4583 39.7382 42.5938C40.8527 41.7188 42.2798 41.2812 44.0194 41.2812C45.9048 41.2812 47.4152 41.75 48.5507 42.6875C49.6965 43.6146 50.2694 44.8281 50.2694 46.3281H48.3944C48.3944 45.3385 47.9777 44.5156 47.1444 43.8594C46.3215 43.2031 45.2798 42.875 44.0194 42.875C42.7902 42.875 41.8007 43.151 41.0507 43.7031C40.3111 44.2448 39.9413 44.9531 39.9413 45.8281C39.9413 46.6719 40.2486 47.3281 40.8632 47.7969C41.4882 48.2552 42.6184 48.6771 44.2538 49.0625C45.8996 49.4479 47.1288 49.8594 47.9413 50.2969C48.7642 50.7344 49.3736 51.2604 49.7694 51.875C50.1652 52.4896 50.3632 53.2344 50.3632 54.1094C50.3632 55.5365 49.785 56.6771 48.6288 57.5312C47.483 58.3854 45.983 58.8125 44.1288 58.8125C42.16 58.8125 40.5611 58.3385 39.3319 57.3906C38.1132 56.4323 37.5038 55.224 37.5038 53.7656H39.3788C39.4517 54.8594 39.91 55.7135 40.7538 56.3281C41.608 56.9323 42.733 57.2344 44.1288 57.2344C45.4309 57.2344 46.483 56.9479 47.285 56.375C48.0871 55.8021 48.4882 55.0781 48.4882 54.2031ZM56.6757 58.5H54.8007V41.5938H56.6757V58.5ZM54.4725 36.7031C54.4725 36.349 54.5871 36.0521 54.8163 35.8125C55.0455 35.5625 55.358 35.4375 55.7538 35.4375C56.1496 35.4375 56.4621 35.5625 56.6913 35.8125C56.9309 36.0521 57.0507 36.349 57.0507 36.7031C57.0507 37.0573 56.9309 37.3542 56.6913 37.5938C56.4621 37.8333 56.1496 37.9531 55.7538 37.9531C55.358 37.9531 55.0455 37.8333 54.8163 37.5938C54.5871 37.3542 54.4725 37.0573 54.4725 36.7031ZM61.0194 49.8906C61.0194 47.2448 61.6027 45.151 62.7694 43.6094C63.9465 42.0573 65.5402 41.2812 67.5507 41.2812C69.8527 41.2812 71.6027 42.1979 72.8007 44.0312L72.8944 41.5938H74.6444V58.1562C74.6444 60.3333 74.035 62.0573 72.8163 63.3281C71.5975 64.599 69.9465 65.2344 67.8632 65.2344C66.6861 65.2344 65.5611 64.9688 64.4882 64.4375C63.4257 63.9167 62.5871 63.2188 61.9725 62.3438L63.0194 61.2188C64.3423 62.8438 65.9152 63.6562 67.7382 63.6562C69.3007 63.6562 70.5194 63.1927 71.3944 62.2656C72.2694 61.349 72.7225 60.0729 72.7538 58.4375V56.3125C71.5559 57.9792 69.8111 58.8125 67.5194 58.8125C65.5611 58.8125 63.9882 58.0312 62.8007 56.4688C61.6132 54.9062 61.0194 52.7969 61.0194 50.1406V49.8906ZM62.91 50.2188C62.91 52.375 63.3423 54.0781 64.2069 55.3281C65.0715 56.5677 66.2902 57.1875 67.8632 57.1875C70.1652 57.1875 71.7955 56.1562 72.7538 54.0938V46.2344C72.3163 45.151 71.6861 44.3281 70.8632 43.7656C70.0402 43.1927 69.0507 42.9062 67.8944 42.9062C66.3215 42.9062 65.0975 43.526 64.2225 44.7656C63.3475 45.9948 62.91 47.8125 62.91 50.2188ZM81.3007 41.5938L81.3632 44.4844C81.9986 43.4427 82.7902 42.651 83.7382 42.1094C84.6861 41.5573 85.733 41.2812 86.8788 41.2812C88.6913 41.2812 90.0402 41.7917 90.9257 42.8125C91.8111 43.8333 92.259 45.3646 92.2694 47.4062V58.5H90.41V47.3906C90.3996 45.8802 90.0767 44.7552 89.4413 44.0156C88.8163 43.276 87.8111 42.9062 86.4257 42.9062C85.2694 42.9062 84.2434 43.2708 83.3475 44C82.4621 44.7188 81.8059 45.6927 81.3788 46.9219V58.5H79.5194V41.5938H81.3007ZM121.441 51.4062C121.181 53.8021 120.321 55.6354 118.863 56.9062C117.415 58.1771 115.483 58.8125 113.066 58.8125C111.379 58.8125 109.884 58.3906 108.582 57.5469C107.29 56.7031 106.29 55.5104 105.582 53.9688C104.874 52.4167 104.514 50.6458 104.504 48.6562V45.7031C104.504 43.6823 104.858 41.8906 105.566 40.3281C106.275 38.7656 107.29 37.5625 108.613 36.7188C109.946 35.8646 111.478 35.4375 113.207 35.4375C115.644 35.4375 117.566 36.099 118.973 37.4219C120.389 38.7344 121.212 40.5521 121.441 42.875H119.504C119.025 39.0104 116.926 37.0781 113.207 37.0781C111.144 37.0781 109.499 37.849 108.269 39.3906C107.051 40.9323 106.441 43.0625 106.441 45.7812V48.5625C106.441 51.1875 107.035 53.2812 108.223 54.8438C109.42 56.4062 111.035 57.1875 113.066 57.1875C115.077 57.1875 116.592 56.7083 117.613 55.75C118.634 54.7812 119.264 53.3333 119.504 51.4062H121.441ZM124.644 49.7969C124.644 48.1719 124.957 46.7083 125.582 45.4062C126.217 44.1042 127.108 43.0938 128.254 42.375C129.41 41.6458 130.717 41.2812 132.176 41.2812C134.426 41.2812 136.249 42.0729 137.644 43.6562C139.04 45.2292 139.738 47.3177 139.738 49.9219V50.3125C139.738 51.9479 139.42 53.4219 138.785 54.7344C138.16 56.0365 137.275 57.0417 136.129 57.75C134.983 58.4583 133.676 58.8125 132.207 58.8125C129.967 58.8125 128.144 58.026 126.738 56.4531C125.342 54.8698 124.644 52.776 124.644 50.1719V49.7969ZM126.519 50.3125C126.519 52.3333 127.04 53.9948 128.082 55.2969C129.134 56.5885 130.509 57.2344 132.207 57.2344C133.894 57.2344 135.259 56.5885 136.301 55.2969C137.353 53.9948 137.879 52.2812 137.879 50.1562V49.7969C137.879 48.5052 137.639 47.3229 137.16 46.25C136.681 45.1771 136.009 44.349 135.144 43.7656C134.28 43.1719 133.29 42.875 132.176 42.875C130.509 42.875 129.15 43.5312 128.098 44.8438C127.045 46.1458 126.519 47.8542 126.519 49.9688V50.3125ZM145.316 41.5938L145.379 44.3438C146.004 43.3229 146.785 42.5573 147.723 42.0469C148.66 41.5365 149.702 41.2812 150.848 41.2812C153.514 41.2812 155.207 42.375 155.926 44.5625C156.53 43.5104 157.337 42.7031 158.348 42.1406C159.358 41.5677 160.473 41.2812 161.691 41.2812C165.316 41.2812 167.165 43.2604 167.238 47.2188V58.5H165.363V47.3594C165.353 45.849 165.025 44.7292 164.379 44C163.743 43.2708 162.702 42.9062 161.254 42.9062C159.91 42.9271 158.775 43.3646 157.848 44.2188C156.92 45.0625 156.405 46.0938 156.301 47.3125V58.5H154.426V47.2188C154.415 45.7708 154.071 44.6927 153.394 43.9844C152.728 43.2656 151.696 42.9062 150.301 42.9062C149.124 42.9062 148.113 43.2448 147.269 43.9219C146.426 44.5885 145.801 45.5833 145.394 46.9062V58.5H143.519V41.5938H145.316ZM185.582 50.2188C185.582 52.8542 184.999 54.9479 183.832 56.5C182.665 58.0417 181.103 58.8125 179.144 58.8125C176.832 58.8125 175.061 58 173.832 56.375V65H171.973V41.5938H173.707L173.801 43.9844C175.019 42.1823 176.785 41.2812 179.098 41.2812C181.118 41.2812 182.702 42.0469 183.848 43.5781C185.004 45.1094 185.582 47.2344 185.582 49.9531V50.2188ZM183.707 49.8906C183.707 47.7344 183.264 46.0312 182.379 44.7812C181.493 43.5312 180.259 42.9062 178.676 42.9062C177.53 42.9062 176.545 43.1823 175.723 43.7344C174.9 44.2865 174.269 45.0885 173.832 46.1406V54.25C174.28 55.2188 174.92 55.9583 175.754 56.4688C176.587 56.9792 177.571 57.2344 178.707 57.2344C180.28 57.2344 181.504 56.6094 182.379 55.3594C183.264 54.099 183.707 52.276 183.707 49.8906ZM196.285 58.8125C194.848 58.8125 193.545 58.4583 192.379 57.75C191.223 57.0417 190.321 56.0573 189.676 54.7969C189.03 53.526 188.707 52.1042 188.707 50.5312V49.8594C188.707 48.2344 189.019 46.7708 189.644 45.4688C190.28 44.1667 191.16 43.1458 192.285 42.4062C193.41 41.6562 194.629 41.2812 195.941 41.2812C197.993 41.2812 199.618 41.9844 200.816 43.3906C202.025 44.7865 202.629 46.6979 202.629 49.125V50.1719H190.566V50.5312C190.566 52.4479 191.113 54.0469 192.207 55.3281C193.311 56.599 194.696 57.2344 196.363 57.2344C197.363 57.2344 198.243 57.0521 199.004 56.6875C199.775 56.3229 200.473 55.7396 201.098 54.9375L202.269 55.8281C200.894 57.8177 198.9 58.8125 196.285 58.8125ZM195.941 42.875C194.535 42.875 193.348 43.3906 192.379 44.4219C191.42 45.4531 190.837 46.8385 190.629 48.5781H200.769V48.375C200.717 46.75 200.254 45.4271 199.379 44.4062C198.504 43.3854 197.358 42.875 195.941 42.875ZM209.176 37.2656V41.5938H212.676V43.125H209.176V54.3906C209.176 55.3281 209.342 56.026 209.676 56.4844C210.019 56.9427 210.587 57.1719 211.379 57.1719C211.691 57.1719 212.196 57.1198 212.894 57.0156L212.973 58.5469C212.483 58.724 211.816 58.8125 210.973 58.8125C209.691 58.8125 208.759 58.4427 208.176 57.7031C207.592 56.9531 207.301 55.8542 207.301 54.4062V43.125H204.191V41.5938H207.301V37.2656H209.176ZM218.644 58.5H216.769V41.5938H218.644V58.5ZM216.441 36.7031C216.441 36.349 216.556 36.0521 216.785 35.8125C217.014 35.5625 217.327 35.4375 217.723 35.4375C218.118 35.4375 218.431 35.5625 218.66 35.8125C218.9 36.0521 219.019 36.349 219.019 36.7031C219.019 37.0573 218.9 37.3542 218.66 37.5938C218.431 37.8333 218.118 37.9531 217.723 37.9531C217.327 37.9531 217.014 37.8333 216.785 37.5938C216.556 37.3542 216.441 37.0573 216.441 36.7031ZM226.644 37.2656V41.5938H230.144V43.125H226.644V54.3906C226.644 55.3281 226.811 56.026 227.144 56.4844C227.488 56.9427 228.056 57.1719 228.848 57.1719C229.16 57.1719 229.665 57.1198 230.363 57.0156L230.441 58.5469C229.952 58.724 229.285 58.8125 228.441 58.8125C227.16 58.8125 226.228 58.4427 225.644 57.7031C225.061 56.9531 224.769 55.8542 224.769 54.4062V43.125H221.66V41.5938H224.769V37.2656H226.644ZM236.113 58.5H234.238V41.5938H236.113V58.5ZM233.91 36.7031C233.91 36.349 234.025 36.0521 234.254 35.8125C234.483 35.5625 234.795 35.4375 235.191 35.4375C235.587 35.4375 235.9 35.5625 236.129 35.8125C236.368 36.0521 236.488 36.349 236.488 36.7031C236.488 37.0573 236.368 37.3542 236.129 37.5938C235.9 37.8333 235.587 37.9531 235.191 37.9531C234.795 37.9531 234.483 37.8333 234.254 37.5938C234.025 37.3542 233.91 37.0573 233.91 36.7031ZM240.176 49.7969C240.176 48.1719 240.488 46.7083 241.113 45.4062C241.749 44.1042 242.639 43.0938 243.785 42.375C244.941 41.6458 246.249 41.2812 247.707 41.2812C249.957 41.2812 251.78 42.0729 253.176 43.6562C254.571 45.2292 255.269 47.3177 255.269 49.9219V50.3125C255.269 51.9479 254.952 53.4219 254.316 54.7344C253.691 56.0365 252.806 57.0417 251.66 57.75C250.514 58.4583 249.207 58.8125 247.738 58.8125C245.499 58.8125 243.676 58.026 242.269 56.4531C240.874 54.8698 240.176 52.776 240.176 50.1719V49.7969ZM242.051 50.3125C242.051 52.3333 242.571 53.9948 243.613 55.2969C244.665 56.5885 246.04 57.2344 247.738 57.2344C249.426 57.2344 250.79 56.5885 251.832 55.2969C252.884 53.9948 253.41 52.2812 253.41 50.1562V49.7969C253.41 48.5052 253.17 47.3229 252.691 46.25C252.212 45.1771 251.54 44.349 250.676 43.7656C249.811 43.1719 248.821 42.875 247.707 42.875C246.04 42.875 244.681 43.5312 243.629 44.8438C242.577 46.1458 242.051 47.8542 242.051 49.9688V50.3125ZM260.926 41.5938L260.988 44.4844C261.624 43.4427 262.415 42.651 263.363 42.1094C264.311 41.5573 265.358 41.2812 266.504 41.2812C268.316 41.2812 269.665 41.7917 270.551 42.8125C271.436 43.8333 271.884 45.3646 271.894 47.4062V58.5H270.035V47.3906C270.025 45.8802 269.702 44.7552 269.066 44.0156C268.441 43.276 267.436 42.9062 266.051 42.9062C264.894 42.9062 263.868 43.2708 262.973 44C262.087 44.7188 261.431 45.6927 261.004 46.9219V58.5H259.144V41.5938H260.926ZM14.8163 92.5H0.566284V91.0625L8.36316 82.2188C9.65483 80.7292 10.5507 79.5 11.0507 78.5312C11.5507 77.5625 11.8007 76.6198 11.8007 75.7031C11.8007 74.2656 11.3788 73.1302 10.535 72.2969C9.69128 71.4531 8.52983 71.0312 7.05066 71.0312C5.51941 71.0312 4.27983 71.5208 3.33191 72.5C2.39441 73.4792 1.92566 74.75 1.92566 76.3125H0.0662842C0.0662842 75.0312 0.352743 73.8646 0.925659 72.8125C1.50899 71.7604 2.33191 70.9375 3.39441 70.3438C4.46733 69.7396 5.68608 69.4375 7.05066 69.4375C9.13399 69.4375 10.759 69.9844 11.9257 71.0781C13.1027 72.1719 13.6913 73.6615 13.6913 75.5469C13.6913 76.6094 13.358 77.7708 12.6913 79.0312C12.035 80.2917 10.8736 81.8646 9.20691 83.75L2.86316 90.9219H14.8163V92.5ZM32.035 83.0156C32.035 86.224 31.4465 88.6615 30.2694 90.3281C29.0923 91.9844 27.358 92.8125 25.0663 92.8125C22.8163 92.8125 21.0923 92 19.8944 90.375C18.6965 88.7396 18.0819 86.3646 18.0507 83.25V79.1719C18.0507 75.974 18.6444 73.5521 19.8319 71.9062C21.0194 70.2604 22.7538 69.4375 25.035 69.4375C27.285 69.4375 29.0038 70.2344 30.1913 71.8281C31.3788 73.4115 31.9934 75.75 32.035 78.8438V83.0156ZM30.16 78.9375C30.16 76.3333 29.733 74.3646 28.8788 73.0312C28.035 71.6979 26.7538 71.0312 25.035 71.0312C23.3475 71.0312 22.0767 71.6823 21.2225 72.9844C20.3684 74.2865 19.9309 76.2083 19.91 78.75V83.2188C19.91 85.8125 20.3475 87.7969 21.2225 89.1719C22.108 90.5469 23.3892 91.2344 25.0663 91.2344C26.733 91.2344 27.9934 90.5625 28.8475 89.2188C29.7121 87.875 30.1496 85.9062 30.16 83.3125V78.9375ZM44.7694 92.5H42.8944V72L36.7069 74.2969V72.5469L44.4569 69.6719H44.7694V92.5ZM67.8319 70.8281L58.1132 92.5H56.16L65.8163 71.3438H52.8788V69.75H67.8319V70.8281Z" fill="white"/>
</svg>
