<svg width="244" height="244" viewBox="0 0 244 244" fill="none" xmlns="http://www.w3.org/2000/svg">
<path d="M122 0.375C54.8348 0.375 0.375 56.2465 0.375 125.095C0.375 180.206 35.2336 226.902 83.5578 243.408C84.2356 243.555 84.9275 243.628 85.6211 243.625C90.1277 243.625 91.8652 240.313 91.8652 237.435C91.8652 234.449 91.7566 226.63 91.7023 216.205C87.6792 217.148 83.5634 217.64 79.4313 217.671C56.0293 217.671 50.7082 199.482 50.7082 199.482C45.1699 185.093 37.1883 181.238 37.1883 181.238C26.6004 173.799 37.134 173.582 37.9484 173.582H38.0027C50.2195 174.668 56.6266 186.505 56.6266 186.505C62.7078 197.147 70.8523 200.133 78.1281 200.133C82.939 200.037 87.6755 198.927 92.0281 196.875C93.1141 188.839 96.2633 183.355 99.7383 180.206C72.7527 177.057 44.3555 166.361 44.3555 118.579C44.3555 104.951 49.0793 93.8199 56.8438 85.1324C55.5949 81.9832 51.4141 69.2777 58.0383 52.1199C58.9268 51.9073 59.8401 51.816 60.7531 51.8484C65.1512 51.8484 75.0875 53.5316 91.4852 64.934C111.41 59.3594 132.482 59.3594 152.406 64.934C168.804 53.5316 178.74 51.8484 183.138 51.8484C184.051 51.816 184.965 51.9073 185.853 52.1199C192.477 69.2777 188.296 81.9832 187.048 85.1324C194.812 93.8742 199.536 105.005 199.536 118.579C199.536 166.469 171.084 177.003 143.99 180.098C148.334 183.953 152.243 191.554 152.243 203.174C152.243 219.843 152.08 233.309 152.08 237.381C152.08 240.313 153.764 243.625 158.27 243.625C159 243.628 159.728 243.555 160.442 243.408C208.821 226.902 243.625 180.152 243.625 125.095C243.625 56.2465 189.165 0.375 122 0.375Z" fill="black"/>
</svg>
