<svg width="244" height="244" viewBox="0 0 244 244" fill="none" xmlns="http://www.w3.org/2000/svg">
<path d="M122 0C54.8348 0 0.375 55.8715 0.375 124.72C0.375 179.831 35.2336 226.527 83.5578 243.033C84.2356 243.18 84.9275 243.253 85.6211 243.25C90.1277 243.25 91.8652 239.938 91.8652 237.06C91.8652 234.074 91.7566 226.255 91.7023 215.83C87.6792 216.773 83.5634 217.265 79.4313 217.296C56.0293 217.296 50.7082 199.107 50.7082 199.107C45.1699 184.718 37.1883 180.863 37.1883 180.863C26.6004 173.424 37.134 173.207 37.9484 173.207H38.0027C50.2195 174.293 56.6266 186.13 56.6266 186.13C62.7078 196.772 70.8523 199.758 78.1281 199.758C82.939 199.662 87.6755 198.552 92.0281 196.5C93.1141 188.464 96.2633 182.98 99.7383 179.831C72.7527 176.682 44.3555 165.986 44.3555 118.204C44.3555 104.576 49.0793 93.4449 56.8438 84.7574C55.5949 81.6082 51.4141 68.9027 58.0383 51.7449C58.9268 51.5323 59.8401 51.441 60.7531 51.4734C65.1512 51.4734 75.0875 53.1566 91.4852 64.559C111.41 58.9844 132.482 58.9844 152.406 64.559C168.804 53.1566 178.74 51.4734 183.138 51.4734C184.051 51.441 184.965 51.5323 185.853 51.7449C192.477 68.9027 188.296 81.6082 187.048 84.7574C194.812 93.4992 199.536 104.63 199.536 118.204C199.536 166.094 171.084 176.628 143.99 179.723C148.334 183.578 152.243 191.179 152.243 202.799C152.243 219.468 152.08 232.934 152.08 237.006C152.08 239.938 153.764 243.25 158.27 243.25C159 243.253 159.728 243.18 160.442 243.033C208.821 226.527 243.625 179.777 243.625 124.72C243.625 55.8715 189.165 0 122 0Z" fill="white"/>
</svg>
