<svg width="244" height="244" viewBox="0 0 244 244" fill="none" xmlns="http://www.w3.org/2000/svg">
<path d="M224.17 0.375H21.1598C10.067 0.375 0.375 8.35664 0.375 19.3192V222.78C0.375 233.803 10.067 243.625 21.1598 243.625H224.111C235.263 243.625 243.625 233.738 243.625 222.78V19.3192C243.69 8.35664 235.263 0.375 224.17 0.375ZM75.7771 203.136H40.9293V94.7864H75.7771V203.136ZM59.5586 78.3127H59.3088C48.1562 78.3127 40.9348 70.0107 40.9348 59.6183C40.9348 49.0359 48.3463 40.9293 59.7486 40.9293C71.151 40.9293 78.1281 48.9761 78.3779 59.6183C78.3725 70.0107 71.151 78.3127 59.5586 78.3127ZM203.136 203.136H168.288V143.893C168.288 129.699 163.217 120.002 150.609 120.002C140.977 120.002 135.276 126.518 132.74 132.865C131.79 135.145 131.535 138.251 131.535 141.422V203.136H96.6868V94.7864H131.535V109.865C136.606 102.643 144.528 92.2507 162.962 92.2507C185.837 92.2507 203.141 107.329 203.141 139.837L203.136 203.136Z" fill="black"/>
</svg>
