<svg width="244" height="244" viewBox="0 0 244 244" fill="none" xmlns="http://www.w3.org/2000/svg">
<path d="M223.795 0H20.7848C9.69199 0 0 7.98164 0 18.9442V222.405C0 233.428 9.69199 243.25 20.7848 243.25H223.736C234.888 243.25 243.25 233.363 243.25 222.405V18.9442C243.315 7.98164 234.888 0 223.795 0ZM75.4021 202.761H40.5543V94.4114H75.4021V202.761ZM59.1836 77.9377H58.9338C47.7812 77.9377 40.5598 69.6357 40.5598 59.2433C40.5598 48.6609 47.9713 40.5543 59.3736 40.5543C70.776 40.5543 77.7531 48.6011 78.0029 59.2433C77.9975 69.6357 70.776 77.9377 59.1836 77.9377ZM202.761 202.761H167.913V143.518C167.913 129.324 162.842 119.627 150.234 119.627C140.602 119.627 134.901 126.143 132.365 132.49C131.415 134.77 131.16 137.876 131.16 141.047V202.761H96.3118V94.4114H131.16V109.49C136.231 102.268 144.153 91.8757 162.587 91.8757C185.462 91.8757 202.766 106.954 202.766 139.462L202.761 202.761Z" fill="white"/>
</svg>
