<svg width="252" height="252" viewBox="0 0 252 252" fill="none" xmlns="http://www.w3.org/2000/svg">
<path fill-rule="evenodd" clip-rule="evenodd" d="M251.704 0H0V251.704H251.704V0ZM18.2952 87.2462C20.0621 104 24.9703 139.43 30.4675 147.126C35.9647 154.823 46.501 161.197 51.082 163.422C53.3071 164.665 59.053 167.545 64.236 169.115C70.7149 171.079 94.8537 175.005 99.7715 175.005C103.667 175.005 104.591 174.605 106.055 173.97C106.44 173.803 106.862 173.62 107.384 173.424C109.897 172.482 116.158 167.725 118.333 165.4L120.581 163.422C121.543 162.291 125.978 162.231 127.557 163.422C129.066 164.56 130.159 165.826 131.253 167.092L131.253 167.093C131.543 167.429 131.834 167.765 132.132 168.099C134.006 170.199 138.302 173.266 144.52 174.622C146.72 175.101 167.928 172.936 175.822 171.47C182.199 170.286 193.416 166.823 201.662 162.111C209.369 157.707 214.144 150.892 216.357 147.733L216.374 147.708C216.522 147.497 216.659 147.303 216.783 147.126C219.466 143.344 226.011 132.991 227.385 124.745C228.485 118.148 229.021 96.9972 229.152 87.2462C228.236 86.7226 225.073 85.8584 220.121 84.6939C218.908 84.4087 217.795 84.1431 216.774 83.8994L216.773 83.899C213.625 83.148 211.35 82.6052 209.716 82.338C207.435 81.9651 204.697 81.4857 201.836 80.9848L201.829 80.9836L201.828 80.9833L201.826 80.9831C196.154 79.9897 189.999 78.9119 185.96 78.4114C182.596 77.9945 170.865 76.8408 164.56 76.8408C164.02 76.8408 160.743 76.8333 155.689 76.8218L155.673 76.8218C138.652 76.7831 101.522 76.6985 80.9422 76.6985C72.3038 77.2875 56.2809 78.8639 51.082 79.5893C46.5053 80.2279 19.2769 85.0866 18.2952 87.2462ZM37.8507 100.545C40.3015 100.545 42.2883 98.5584 42.2883 96.1076C42.2883 93.6568 40.3015 91.67 37.8507 91.67C35.3998 91.67 33.413 93.6568 33.413 96.1076C33.413 98.5584 35.3998 100.545 37.8507 100.545ZM58.1262 93.3532C58.1262 96.5647 55.5228 99.1681 52.3113 99.1681C49.0999 99.1681 46.4965 96.5647 46.4965 93.3532C46.4965 90.1417 49.0999 87.5383 52.3113 87.5383C55.5228 87.5383 58.1262 90.1417 58.1262 93.3532ZM213.013 99.1681C210.673 99.1681 208.776 97.2708 208.776 94.9304C208.776 92.59 210.673 90.6927 213.013 90.6927C215.354 90.6927 217.251 92.59 217.251 94.9304C217.251 97.2708 215.354 99.1681 213.013 99.1681ZM193.651 92.3001C193.651 95.3669 196.138 97.853 199.204 97.853C202.271 97.853 204.757 95.3669 204.757 92.3001C204.757 89.2334 202.271 86.7473 199.204 86.7473C196.138 86.7473 193.651 89.2334 193.651 92.3001Z" fill="white"/>
</svg>
