<svg width="189" height="93" viewBox="0 0 189 93" fill="none" xmlns="http://www.w3.org/2000/svg">
<path d="M3.84753 1.74994L12.2382 21.8281L20.66 1.74994H23.2225V24.4999H21.3007V14.5937L21.4569 4.43744L12.9882 24.4999H11.5038L3.06628 4.51556L3.22253 14.5312V24.4999H1.30066V1.74994H3.84753ZM39.2225 24.4999C39.035 23.9687 38.9152 23.1822 38.8632 22.1406C38.2069 22.9947 37.3684 23.6562 36.3475 24.1249C35.3371 24.5833 34.2642 24.8124 33.1288 24.8124C31.5038 24.8124 30.1861 24.3593 29.1757 23.4531C28.1757 22.5468 27.6757 21.401 27.6757 20.0156C27.6757 18.3697 28.358 17.0676 29.7225 16.1093C31.0975 15.151 33.009 14.6718 35.4569 14.6718H38.8475V12.7499C38.8475 11.5416 38.4725 10.5937 37.7225 9.90619C36.983 9.20827 35.8996 8.85931 34.4725 8.85931C33.1705 8.85931 32.0923 9.19265 31.2382 9.85931C30.384 10.526 29.9569 11.3281 29.9569 12.2656L28.0819 12.2499C28.0819 10.9062 28.7069 9.74473 29.9569 8.76556C31.2069 7.77598 32.7434 7.28119 34.5663 7.28119C36.4517 7.28119 37.9361 7.75515 39.0194 8.70306C40.1132 9.64056 40.6757 10.9531 40.7069 12.6406V20.6406C40.7069 22.276 40.8788 23.4999 41.2225 24.3124V24.4999H39.2225ZM33.3475 23.1562C34.5975 23.1562 35.7121 22.8541 36.6913 22.2499C37.6809 21.6458 38.3996 20.8385 38.8475 19.8281V16.1093H35.5038C33.6392 16.1301 32.1809 16.4739 31.1288 17.1406C30.0767 17.7968 29.5507 18.7031 29.5507 19.8593C29.5507 20.8072 29.8996 21.5937 30.5975 22.2187C31.3059 22.8437 32.2225 23.1562 33.3475 23.1562ZM51.9569 23.2343C53.259 23.2343 54.3475 22.8697 55.2225 22.1406C56.108 21.401 56.5871 20.4479 56.66 19.2812H58.4569C58.4048 20.3124 58.0819 21.2551 57.4882 22.1093C56.8944 22.9531 56.1027 23.6145 55.1132 24.0937C54.134 24.5729 53.0819 24.8124 51.9569 24.8124C49.7382 24.8124 47.9777 24.0416 46.6757 22.4999C45.384 20.9583 44.7382 18.8854 44.7382 16.2812V15.7187C44.7382 14.052 45.0298 12.5781 45.6132 11.2968C46.1965 10.0156 47.0298 9.02598 48.1132 8.32806C49.2069 7.63015 50.483 7.28119 51.9413 7.28119C53.7955 7.28119 55.3215 7.83327 56.5194 8.93744C57.7277 10.0416 58.3736 11.4947 58.4569 13.2968H56.66C56.5767 11.9739 56.0975 10.9062 55.2225 10.0937C54.358 9.28119 53.2642 8.87494 51.9413 8.87494C50.2538 8.87494 48.9413 9.48431 48.0038 10.7031C47.0767 11.9218 46.6132 13.6301 46.6132 15.8281V16.3749C46.6132 18.5312 47.0767 20.2135 48.0038 21.4218C48.9413 22.6301 50.259 23.2343 51.9569 23.2343ZM64.0663 10.4531C64.6809 9.44265 65.4673 8.6614 66.4257 8.10931C67.384 7.55723 68.4309 7.28119 69.5663 7.28119C71.3788 7.28119 72.7277 7.79161 73.6132 8.81244C74.4986 9.83327 74.9465 11.3645 74.9569 13.4062V24.4999H73.0975V13.3906C73.0871 11.8801 72.7642 10.7551 72.1288 10.0156C71.5038 9.27598 70.4986 8.90619 69.1132 8.90619C67.9569 8.90619 66.9309 9.27077 66.035 9.99994C65.1496 10.7187 64.4934 11.6926 64.0663 12.9218V24.4999H62.2069V0.499939H64.0663V10.4531ZM81.8632 24.4999H79.9882V7.59369H81.8632V24.4999ZM79.66 2.70306C79.66 2.3489 79.7746 2.05202 80.0038 1.81244C80.233 1.56244 80.5455 1.43744 80.9413 1.43744C81.3371 1.43744 81.6496 1.56244 81.8788 1.81244C82.1184 2.05202 82.2382 2.3489 82.2382 2.70306C82.2382 3.05723 82.1184 3.35411 81.8788 3.59369C81.6496 3.83327 81.3371 3.95306 80.9413 3.95306C80.5455 3.95306 80.233 3.83327 80.0038 3.59369C79.7746 3.35411 79.66 3.05723 79.66 2.70306ZM88.7382 7.59369L88.8007 10.4843C89.4361 9.44265 90.2277 8.65098 91.1757 8.10931C92.1236 7.55723 93.1705 7.28119 94.3163 7.28119C96.1288 7.28119 97.4777 7.79161 98.3632 8.81244C99.2486 9.83327 99.6965 11.3645 99.7069 13.4062V24.4999H97.8475V13.3906C97.8371 11.8801 97.5142 10.7551 96.8788 10.0156C96.2538 9.27598 95.2486 8.90619 93.8632 8.90619C92.7069 8.90619 91.6809 9.27077 90.785 9.99994C89.8996 10.7187 89.2434 11.6926 88.8163 12.9218V24.4999H86.9569V7.59369H88.7382ZM111.098 24.8124C109.66 24.8124 108.358 24.4583 107.191 23.7499C106.035 23.0416 105.134 22.0572 104.488 20.7968C103.842 19.526 103.519 18.1041 103.519 16.5312V15.8593C103.519 14.2343 103.832 12.7708 104.457 11.4687C105.092 10.1666 105.973 9.14577 107.098 8.40619C108.223 7.65619 109.441 7.28119 110.754 7.28119C112.806 7.28119 114.431 7.98431 115.629 9.39056C116.837 10.7864 117.441 12.6979 117.441 15.1249V16.1718H105.379V16.5312C105.379 18.4479 105.926 20.0468 107.019 21.3281C108.124 22.5989 109.509 23.2343 111.176 23.2343C112.176 23.2343 113.056 23.052 113.816 22.6874C114.587 22.3229 115.285 21.7395 115.91 20.9374L117.082 21.8281C115.707 23.8176 113.712 24.8124 111.098 24.8124ZM110.754 8.87494C109.348 8.87494 108.16 9.39056 107.191 10.4218C106.233 11.4531 105.65 12.8385 105.441 14.5781H115.582V14.3749C115.53 12.7499 115.066 11.427 114.191 10.4062C113.316 9.38536 112.17 8.87494 110.754 8.87494ZM146.16 24.4999H144.223V13.5937H131.223V24.4999H129.301V1.74994H131.223V11.9687H144.223V1.74994H146.16V24.4999ZM158.066 24.8124C156.629 24.8124 155.327 24.4583 154.16 23.7499C153.004 23.0416 152.103 22.0572 151.457 20.7968C150.811 19.526 150.488 18.1041 150.488 16.5312V15.8593C150.488 14.2343 150.801 12.7708 151.426 11.4687C152.061 10.1666 152.941 9.14577 154.066 8.40619C155.191 7.65619 156.41 7.28119 157.723 7.28119C159.775 7.28119 161.4 7.98431 162.598 9.39056C163.806 10.7864 164.41 12.6979 164.41 15.1249V16.1718H152.348V16.5312C152.348 18.4479 152.894 20.0468 153.988 21.3281C155.092 22.5989 156.478 23.2343 158.144 23.2343C159.144 23.2343 160.025 23.052 160.785 22.6874C161.556 22.3229 162.254 21.7395 162.879 20.9374L164.051 21.8281C162.676 23.8176 160.681 24.8124 158.066 24.8124ZM157.723 8.87494C156.316 8.87494 155.129 9.39056 154.16 10.4218C153.202 11.4531 152.618 12.8385 152.41 14.5781H162.551V14.3749C162.499 12.7499 162.035 11.427 161.16 10.4062C160.285 9.38536 159.139 8.87494 157.723 8.87494ZM170.144 24.4999H168.269V0.499939H170.144V24.4999ZM188.832 16.2187C188.832 18.8541 188.249 20.9479 187.082 22.4999C185.915 24.0416 184.353 24.8124 182.394 24.8124C180.082 24.8124 178.311 23.9999 177.082 22.3749V30.9999H175.223V7.59369H176.957L177.051 9.98431C178.269 8.18223 180.035 7.28119 182.348 7.28119C184.368 7.28119 185.952 8.04681 187.098 9.57806C188.254 11.1093 188.832 13.2343 188.832 15.9531V16.2187ZM186.957 15.8906C186.957 13.7343 186.514 12.0312 185.629 10.7812C184.743 9.53119 183.509 8.90619 181.926 8.90619C180.78 8.90619 179.795 9.18223 178.973 9.73431C178.15 10.2864 177.519 11.0885 177.082 12.1406V20.2499C177.53 21.2187 178.17 21.9583 179.004 22.4687C179.837 22.9791 180.821 23.2343 181.957 23.2343C183.53 23.2343 184.754 22.6093 185.629 21.3593C186.514 20.0989 186.957 18.276 186.957 15.8906ZM18.16 58.4999H16.2225V47.5937H3.22253V58.4999H1.30066V35.7499H3.22253V45.9687H16.2225V35.7499H18.16V58.4999ZM22.4882 49.7968C22.4882 48.1718 22.8007 46.7083 23.4257 45.4062C24.0611 44.1041 24.9517 43.0937 26.0975 42.3749C27.2538 41.6458 28.5611 41.2812 30.0194 41.2812C32.2694 41.2812 34.0923 42.0729 35.4882 43.6562C36.884 45.2291 37.5819 47.3176 37.5819 49.9218V50.3124C37.5819 51.9479 37.2642 53.4218 36.6288 54.7343C36.0038 56.0364 35.1184 57.0416 33.9725 57.7499C32.8267 58.4583 31.5194 58.8124 30.0507 58.8124C27.8111 58.8124 25.9882 58.026 24.5819 56.4531C23.1861 54.8697 22.4882 52.776 22.4882 50.1718V49.7968ZM24.3632 50.3124C24.3632 52.3333 24.884 53.9947 25.9257 55.2968C26.9777 56.5885 28.3527 57.2343 30.0507 57.2343C31.7382 57.2343 33.1027 56.5885 34.1444 55.2968C35.1965 53.9947 35.7225 52.2812 35.7225 50.1562V49.7968C35.7225 48.5051 35.483 47.3229 35.0038 46.2499C34.5246 45.177 33.8527 44.3489 32.9882 43.7656C32.1236 43.1718 31.134 42.8749 30.0194 42.8749C28.3527 42.8749 26.9934 43.5312 25.9413 44.8437C24.8892 46.1458 24.3632 47.8541 24.3632 49.9687V50.3124ZM43.5507 58.4999H41.6757V34.4999H43.5507V58.4999ZM47.6132 49.7968C47.6132 48.1718 47.9257 46.7083 48.5507 45.4062C49.1861 44.1041 50.0767 43.0937 51.2225 42.3749C52.3788 41.6458 53.6861 41.2812 55.1444 41.2812C57.3944 41.2812 59.2173 42.0729 60.6132 43.6562C62.009 45.2291 62.7069 47.3176 62.7069 49.9218V50.3124C62.7069 51.9479 62.3892 53.4218 61.7538 54.7343C61.1288 56.0364 60.2434 57.0416 59.0975 57.7499C57.9517 58.4583 56.6444 58.8124 55.1757 58.8124C52.9361 58.8124 51.1132 58.026 49.7069 56.4531C48.3111 54.8697 47.6132 52.776 47.6132 50.1718V49.7968ZM49.4882 50.3124C49.4882 52.3333 50.009 53.9947 51.0507 55.2968C52.1027 56.5885 53.4777 57.2343 55.1757 57.2343C56.8632 57.2343 58.2277 56.5885 59.2694 55.2968C60.3215 53.9947 60.8475 52.2812 60.8475 50.1562V49.7968C60.8475 48.5051 60.608 47.3229 60.1288 46.2499C59.6496 45.177 58.9777 44.3489 58.1132 43.7656C57.2486 43.1718 56.259 42.8749 55.1444 42.8749C53.4777 42.8749 52.1184 43.5312 51.0663 44.8437C50.0142 46.1458 49.4882 47.8541 49.4882 49.9687V50.3124ZM68.6757 58.4999H66.8007V34.4999H68.6757V58.4999ZM80.3163 58.8124C78.8788 58.8124 77.5767 58.4583 76.41 57.7499C75.2538 57.0416 74.3527 56.0572 73.7069 54.7968C73.0611 53.526 72.7382 52.1041 72.7382 50.5312V49.8593C72.7382 48.2343 73.0507 46.7708 73.6757 45.4687C74.3111 44.1666 75.1913 43.1458 76.3163 42.4062C77.4413 41.6562 78.66 41.2812 79.9725 41.2812C82.0246 41.2812 83.6496 41.9843 84.8475 43.3906C86.0559 44.7864 86.66 46.6979 86.66 49.1249V50.1718H74.5975V50.5312C74.5975 52.4479 75.1444 54.0468 76.2382 55.3281C77.3423 56.5989 78.7277 57.2343 80.3944 57.2343C81.3944 57.2343 82.2746 57.052 83.035 56.6874C83.8059 56.3229 84.5038 55.7395 85.1288 54.9374L86.3007 55.8281C84.9257 57.8176 82.9309 58.8124 80.3163 58.8124ZM79.9725 42.8749C78.5663 42.8749 77.3788 43.3906 76.41 44.4218C75.4517 45.4531 74.8684 46.8385 74.66 48.5781H84.8007V48.3749C84.7486 46.7499 84.285 45.427 83.41 44.4062C82.535 43.3854 81.3892 42.8749 79.9725 42.8749ZM92.0819 41.5937L92.1444 44.4843C92.7798 43.4426 93.5715 42.651 94.5194 42.1093C95.4673 41.5572 96.5142 41.2812 97.66 41.2812C99.4725 41.2812 100.821 41.7916 101.707 42.8124C102.592 43.8333 103.04 45.3645 103.051 47.4062V58.4999H101.191V47.3906C101.181 45.8801 100.858 44.7551 100.223 44.0156C99.5975 43.276 98.5923 42.9062 97.2069 42.9062C96.0507 42.9062 95.0246 43.2708 94.1288 43.9999C93.2434 44.7187 92.5871 45.6926 92.16 46.9218V58.4999H90.3007V41.5937H92.0819ZM118.019 54.2031C118.019 53.276 117.644 52.5312 116.894 51.9687C116.155 51.4062 115.035 50.9687 113.535 50.6562C112.035 50.3333 110.868 49.9687 110.035 49.5624C109.212 49.1458 108.598 48.6406 108.191 48.0468C107.795 47.4531 107.598 46.7343 107.598 45.8906C107.598 44.5572 108.155 43.4583 109.269 42.5937C110.384 41.7187 111.811 41.2812 113.551 41.2812C115.436 41.2812 116.946 41.7499 118.082 42.6874C119.228 43.6145 119.801 44.8281 119.801 46.3281H117.926C117.926 45.3385 117.509 44.5156 116.676 43.8593C115.853 43.2031 114.811 42.8749 113.551 42.8749C112.321 42.8749 111.332 43.151 110.582 43.7031C109.842 44.2447 109.473 44.9531 109.473 45.8281C109.473 46.6718 109.78 47.3281 110.394 47.7968C111.019 48.2551 112.15 48.677 113.785 49.0624C115.431 49.4479 116.66 49.8593 117.473 50.2968C118.295 50.7343 118.905 51.2604 119.301 51.8749C119.696 52.4895 119.894 53.2343 119.894 54.1093C119.894 55.5364 119.316 56.677 118.16 57.5312C117.014 58.3854 115.514 58.8124 113.66 58.8124C111.691 58.8124 110.092 58.3385 108.863 57.3906C107.644 56.4322 107.035 55.2239 107.035 53.7656H108.91C108.983 54.8593 109.441 55.7135 110.285 56.3281C111.139 56.9322 112.264 57.2343 113.66 57.2343C114.962 57.2343 116.014 56.9479 116.816 56.3749C117.618 55.802 118.019 55.0781 118.019 54.2031ZM144.613 52.1249H134.285L131.941 58.4999H129.926L138.535 35.7499H140.363L148.973 58.4999H146.973L144.613 52.1249ZM134.879 50.4843H144.004L139.441 38.0937L134.879 50.4843ZM165.488 50.2187C165.488 52.8541 164.905 54.9479 163.738 56.4999C162.571 58.0416 161.009 58.8124 159.051 58.8124C156.738 58.8124 154.967 57.9999 153.738 56.3749V64.9999H151.879V41.5937H153.613L153.707 43.9843C154.926 42.1822 156.691 41.2812 159.004 41.2812C161.025 41.2812 162.608 42.0468 163.754 43.5781C164.91 45.1093 165.488 47.2343 165.488 49.9531V50.2187ZM163.613 49.8906C163.613 47.7343 163.17 46.0312 162.285 44.7812C161.4 43.5312 160.165 42.9062 158.582 42.9062C157.436 42.9062 156.452 43.1822 155.629 43.7343C154.806 44.2864 154.176 45.0885 153.738 46.1406V54.2499C154.186 55.2187 154.827 55.9583 155.66 56.4687C156.493 56.9791 157.478 57.2343 158.613 57.2343C160.186 57.2343 161.41 56.6093 162.285 55.3593C163.17 54.0989 163.613 52.276 163.613 49.8906ZM183.238 50.2187C183.238 52.8541 182.655 54.9479 181.488 56.4999C180.321 58.0416 178.759 58.8124 176.801 58.8124C174.488 58.8124 172.717 57.9999 171.488 56.3749V64.9999H169.629V41.5937H171.363L171.457 43.9843C172.676 42.1822 174.441 41.2812 176.754 41.2812C178.775 41.2812 180.358 42.0468 181.504 43.5781C182.66 45.1093 183.238 47.2343 183.238 49.9531V50.2187ZM181.363 49.8906C181.363 47.7343 180.92 46.0312 180.035 44.7812C179.15 43.5312 177.915 42.9062 176.332 42.9062C175.186 42.9062 174.202 43.1822 173.379 43.7343C172.556 44.2864 171.926 45.0885 171.488 46.1406V54.2499C171.936 55.2187 172.577 55.9583 173.41 56.4687C174.243 56.9791 175.228 57.2343 176.363 57.2343C177.936 57.2343 179.16 56.6093 180.035 55.3593C180.92 54.0989 181.363 52.276 181.363 49.8906ZM14.8163 92.4999H0.566284V91.0624L8.36316 82.2187C9.65483 80.7291 10.5507 79.4999 11.0507 78.5312C11.5507 77.5624 11.8007 76.6197 11.8007 75.7031C11.8007 74.2656 11.3788 73.1301 10.535 72.2968C9.69128 71.4531 8.52983 71.0312 7.05066 71.0312C5.51941 71.0312 4.27983 71.5208 3.33191 72.4999C2.39441 73.4791 1.92566 74.7499 1.92566 76.3124H0.0662842C0.0662842 75.0312 0.352743 73.8645 0.925659 72.8124C1.50899 71.7604 2.33191 70.9374 3.39441 70.3437C4.46733 69.7395 5.68608 69.4374 7.05066 69.4374C9.13399 69.4374 10.759 69.9843 11.9257 71.0781C13.1027 72.1718 13.6913 73.6614 13.6913 75.5468C13.6913 76.6093 13.358 77.7708 12.6913 79.0312C12.035 80.2916 10.8736 81.8645 9.20691 83.7499L2.86316 90.9218H14.8163V92.4999ZM32.035 83.0156C32.035 86.2239 31.4465 88.6614 30.2694 90.3281C29.0923 91.9843 27.358 92.8124 25.0663 92.8124C22.8163 92.8124 21.0923 91.9999 19.8944 90.3749C18.6965 88.7395 18.0819 86.3645 18.0507 83.2499V79.1718C18.0507 75.9739 18.6444 73.552 19.8319 71.9062C21.0194 70.2604 22.7538 69.4374 25.035 69.4374C27.285 69.4374 29.0038 70.2343 30.1913 71.8281C31.3788 73.4114 31.9934 75.7499 32.035 78.8437V83.0156ZM30.16 78.9374C30.16 76.3333 29.733 74.3645 28.8788 73.0312C28.035 71.6979 26.7538 71.0312 25.035 71.0312C23.3475 71.0312 22.0767 71.6822 21.2225 72.9843C20.3684 74.2864 19.9309 76.2083 19.91 78.7499V83.2187C19.91 85.8124 20.3475 87.7968 21.2225 89.1718C22.108 90.5468 23.3892 91.2343 25.0663 91.2343C26.733 91.2343 27.9934 90.5624 28.8475 89.2187C29.7121 87.8749 30.1496 85.9062 30.16 83.3124V78.9374ZM44.7694 92.4999H42.8944V71.9999L36.7069 74.2968V72.5468L44.4569 69.6718H44.7694V92.4999ZM65.4882 81.9687C64.8215 82.9479 63.9934 83.7083 63.0038 84.2499C62.0142 84.7812 60.9413 85.0468 59.785 85.0468C58.4934 85.0468 57.3527 84.7135 56.3632 84.0468C55.3736 83.3801 54.608 82.4583 54.0663 81.2812C53.5246 80.1041 53.2538 78.8176 53.2538 77.4218C53.2538 75.9218 53.5402 74.5572 54.1132 73.3281C54.6965 72.0989 55.5038 71.1458 56.535 70.4687C57.5767 69.7812 58.7746 69.4374 60.1288 69.4374C62.41 69.4374 64.1861 70.2395 65.4569 71.8437C66.7277 73.4374 67.3632 75.7031 67.3632 78.6406V80.3281C67.3632 84.4322 66.4882 87.5156 64.7382 89.5781C62.9882 91.6406 60.3163 92.6718 56.7225 92.6718H56.3788L56.3944 91.0468H57.0507C59.7694 91.0051 61.8371 90.2343 63.2538 88.7343C64.6705 87.2343 65.4152 84.9791 65.4882 81.9687ZM60.0194 83.4374C61.2694 83.4374 62.3892 83.0676 63.3788 82.3281C64.3788 81.5781 65.0871 80.6093 65.5038 79.4218V78.3437C65.5038 76.0312 65.0194 74.2395 64.0507 72.9687C63.0923 71.6874 61.7955 71.0468 60.16 71.0468C58.6809 71.0468 57.4673 71.6458 56.5194 72.8437C55.5715 74.0312 55.0975 75.5312 55.0975 77.3437C55.0975 79.0833 55.5507 80.5364 56.4569 81.7031C57.3736 82.8593 58.5611 83.4374 60.0194 83.4374Z" fill="white"/>
</svg>
